<?xml version="1.0" encoding="utf-8"?>
<!-- Generator: Adobe Illustrator 27.5.0, SVG Export Plug-In . SVG Version: 6.00 Build 0)  -->
<svg version="1.1" xmlns="http://www.w3.org/2000/svg" xmlns:xlink="http://www.w3.org/1999/xlink" x="0px" y="0px"
	 viewBox="0 0 500 500" style="enable-background:new 0 0 500 500;" xml:space="preserve">
<g id="Stars">
	<g>
		
			<polygon style="fill:#FFFFFF;stroke:#9ABAE3;stroke-width:2.5;stroke-linecap:round;stroke-linejoin:round;stroke-miterlimit:10;" points="
			383.498,257.831 385.577,261.333 389.55,262.229 386.862,265.289 387.238,269.344 383.498,267.733 379.757,269.344 
			380.133,265.289 377.445,262.229 381.418,261.333 		"/>
		<polygon style="fill:#EC644E;" points="129.355,178.377 131.071,181.266 134.348,182.005 132.131,184.529 132.441,187.874 
			129.355,186.545 126.269,187.874 126.58,184.529 124.362,182.005 127.64,181.266 		"/>
		<polygon style="fill:#9ABAE3;" points="33.253,261.385 34.969,264.274 38.246,265.012 36.029,267.536 36.339,270.882 
			33.253,269.553 30.167,270.882 30.478,267.536 28.26,265.012 31.538,264.274 		"/>
		<polygon style="fill:#EC644E;" points="414.719,274.891 416.434,277.78 419.712,278.518 417.495,281.042 417.805,284.388 
			414.719,283.059 411.633,284.388 411.944,281.042 409.726,278.518 413.004,277.78 		"/>
		<polygon style="fill:#9ABAE3;" points="313.154,47.405 314.869,50.293 318.147,51.032 315.929,53.556 316.24,56.902 
			313.154,55.573 310.068,56.902 310.379,53.556 308.161,51.032 311.439,50.293 		"/>
		
			<polygon style="fill:none;stroke:#EC644E;stroke-width:2.5;stroke-linecap:round;stroke-linejoin:round;stroke-miterlimit:10;" points="
			83.576,331.145 85.656,334.647 89.629,335.542 86.941,338.602 87.317,342.658 83.576,341.047 79.836,342.658 80.212,338.602 
			77.524,335.542 81.497,334.647 		"/>
		
			<polygon style="fill:none;stroke:#EC644E;stroke-width:2.5;stroke-linecap:round;stroke-linejoin:round;stroke-miterlimit:10;" points="
			465.687,150.163 467.766,153.665 471.74,154.561 469.051,157.62 469.428,161.676 465.687,160.065 461.946,161.676 462.322,157.62 
			459.634,154.561 463.608,153.665 		"/>
		
			<polygon style="fill:#FFFFFF;stroke:#9ABAE3;stroke-width:2.5;stroke-linecap:round;stroke-linejoin:round;stroke-miterlimit:10;" points="
			151.013,92.834 153.092,96.336 157.065,97.232 154.377,100.291 154.753,104.347 151.013,102.736 147.272,104.347 147.648,100.291 
			144.96,97.232 148.933,96.336 		"/>
	</g>
</g>
<g id="Puzzle_pieces">
	<g>
		<g>
			
				<path style="fill:#9ABAE3;stroke:#263238;stroke-width:2.5;stroke-linecap:round;stroke-linejoin:round;stroke-miterlimit:10;" d="
				M122.407,109.064c-2.994,3.546-8.296,3.993-11.846,0.995c-2.003-1.691-3.022-4.118-2.982-6.545
				c0.018-1.243-0.471-2.443-1.422-3.247c-0.851-0.718-1.912-1.026-2.94-0.935c-1.029,0.082-2.023,0.563-2.742,1.414L86.88,116.847
				l-16.106-13.599c-1.701-1.437-1.915-3.971-0.479-5.672c0.402-0.476,0.901-0.842,1.455-1.08c0.554-0.238,1.162-0.358,1.786-0.347
				c2.432,0.035,4.864-0.98,6.551-2.977c3.003-3.556,2.555-8.858-0.99-11.852c-3.546-2.994-8.847-2.547-11.85,1.01
				c-1.687,1.997-2.285,4.56-1.843,6.952c0.226,1.223-0.055,2.488-0.858,3.439c-0.718,0.851-1.713,1.332-2.742,1.414
				c-1.023,0.086-2.085-0.222-2.936-0.94L42.764,79.596L80.01,35.485l16.106,13.599c1.701,1.437,1.921,3.975,0.484,5.677
				c-0.401,0.475-0.906,0.837-1.46,1.075c-0.554,0.238-1.168,0.354-1.786,0.347c-2.432-0.035-4.859,0.984-6.545,2.981
				c-3.003,3.556-2.556,8.858,0.99,11.852c3.546,2.994,8.847,2.547,11.85-1.01c1.686-1.997,2.279-4.565,1.837-6.957
				c-0.226-1.223,0.06-2.484,0.864-3.435c0.718-0.851,1.713-1.332,2.736-1.418c1.023-0.086,2.085,0.221,2.936,0.94l16.106,13.599
				l-13.595,16.1c-1.437,1.701-1.222,4.245,0.479,5.682c0.476,0.402,1.028,0.669,1.62,0.816c0.586,0.142,1.21,0.153,1.819,0.043
				c2.387-0.447,4.95,0.152,6.953,1.843C124.953,100.217,125.401,105.519,122.407,109.064z"/>
		</g>
		<g>
			
				<path style="fill:#EC644E;stroke:#263238;stroke-width:2.5;stroke-linecap:round;stroke-linejoin:round;stroke-miterlimit:10;" d="
				M447.99,313.043c-4.45-1.316-9.125,1.225-10.443,5.681c-0.743,2.513-0.261,5.101,1.108,7.107c0.698,1.029,0.95,2.3,0.597,3.494
				c-0.316,1.068-1.033,1.908-1.942,2.397c-0.904,0.497-2,0.642-3.068,0.326l-20.207-5.976l-5.978,20.214
				c-0.632,2.135,0.583,4.37,2.718,5.001c0.597,0.177,1.215,0.208,1.809,0.102c0.594-0.106,1.168-0.34,1.683-0.692
				c2.012-1.367,4.602-1.856,7.109-1.114c4.463,1.32,7.004,5.995,5.688,10.445c-1.316,4.45-5.991,6.991-10.454,5.671
				c-2.507-0.741-4.416-2.554-5.361-4.795c-0.483-1.145-1.414-2.048-2.607-2.401c-1.068-0.316-2.163-0.171-3.068,0.326
				c-0.902,0.49-1.62,1.331-1.936,2.399l-5.978,20.214l55.363,16.373l5.978-20.214c0.632-2.135-0.581-4.376-2.716-5.008
				c-0.597-0.177-1.217-0.201-1.811-0.096c-0.594,0.106-1.17,0.346-1.683,0.692c-2.012,1.366-4.6,1.849-7.107,1.108
				c-4.463-1.32-7.004-5.995-5.688-10.445c1.316-4.45,5.991-6.991,10.454-5.671c2.507,0.741,4.414,2.56,5.359,4.801
				c0.483,1.145,1.415,2.041,2.609,2.394c1.068,0.316,2.163,0.171,3.066-0.319c0.902-0.49,1.62-1.331,1.935-2.399l5.978-20.214
				l-20.207-5.976c-2.136-0.632-3.355-2.874-2.723-5.01c0.177-0.597,0.491-1.124,0.905-1.572c0.412-0.441,0.927-0.793,1.496-1.036
				c2.239-0.939,4.052-2.848,4.795-5.361C454.981,319.033,452.44,314.358,447.99,313.043z"/>
		</g>
	</g>
</g>
<g id="Box">
	<g>
		
			<polygon style="fill:#FFFFFF;stroke:#9ABAE3;stroke-width:2.5;stroke-linecap:round;stroke-linejoin:round;stroke-miterlimit:10;" points="
			250,290.375 365.306,323.932 365.306,439.238 250,405.682 		"/>
		
			<polygon style="fill:#FFFFFF;stroke:#9ABAE3;stroke-width:2.5;stroke-linecap:round;stroke-linejoin:round;stroke-miterlimit:10;" points="
			250,290.375 134.693,323.932 134.693,439.238 250,405.682 		"/>
		
			<polygon style="fill:#FFFFFF;stroke:#9ABAE3;stroke-width:2.5;stroke-linecap:round;stroke-linejoin:round;stroke-miterlimit:10;" points="
			365.306,323.965 250,290.408 283.178,261.385 398.484,294.941 		"/>
		
			<polygon style="fill:#FFFFFF;stroke:#9ABAE3;stroke-width:2.5;stroke-linecap:round;stroke-linejoin:round;stroke-miterlimit:10;" points="
			134.693,323.965 250,290.408 216.822,261.385 101.516,294.941 		"/>
		
			<polygon style="fill:#9ABAE3;stroke:#263238;stroke-width:2.5;stroke-linecap:round;stroke-linejoin:round;stroke-miterlimit:10;" points="
			250,472.827 134.693,439.271 134.693,323.965 250,357.521 		"/>
		<polygon style="fill:#FFFFFF;" points="173.547,421.754 173.547,440.554 143.552,431.831 143.552,413.031 		"/>
		
			<polygon style="fill:#9ABAE3;stroke:#263238;stroke-width:2.5;stroke-linecap:round;stroke-linejoin:round;stroke-miterlimit:10;" points="
			250,472.827 365.306,439.271 365.306,323.965 250,357.521 		"/>
		<g>
			<polygon style="fill:#263238;" points="257.863,436.974 262.199,435.712 262.199,460.182 257.863,461.444 			"/>
			<polygon style="fill:#263238;" points="264.754,434.967 268.81,433.787 268.81,458.258 264.754,459.437 			"/>
			<polygon style="fill:#263238;" points="271.376,433.042 275.432,431.863 275.432,456.333 271.376,457.513 			"/>
			<polygon style="fill:#263238;" points="282.334,429.856 282.334,454.326 277.988,455.588 277.988,431.118 			"/>
		</g>
		
			<polygon style="fill:#9ABAE3;stroke:#263238;stroke-width:2.5;stroke-linecap:round;stroke-linejoin:round;stroke-miterlimit:10;" points="
			216.822,386.544 101.516,352.988 134.693,323.965 250,357.521 		"/>
		<polygon style="fill:#9ABAE3;" points="283.178,386.544 398.484,352.988 365.306,323.965 250,357.521 		"/>
		<polygon style="fill:#FFFFFF;" points="398.487,352.989 387.882,356.072 359.076,330.878 254.377,361.349 250,357.521 
			365.305,323.966 		"/>
		
			<polygon style="fill:none;stroke:#263238;stroke-width:2.5;stroke-linecap:round;stroke-linejoin:round;stroke-miterlimit:10;" points="
			283.178,386.544 398.484,352.988 365.306,323.965 250,357.521 		"/>
	</g>
</g>
<g id="Lightbulb">
	<g>
		<g>
			<g>
				<path style="fill:none;stroke:#9ABAE3;stroke-width:2.5;stroke-linecap:round;stroke-linejoin:round;stroke-miterlimit:10;" d="
					M165.244,154.093c0,33.232,19.123,61.992,46.966,75.887c2.994,1.494,5.153,4.259,5.829,7.536l2.168,10.501
					c1.041,5.043,5.482,8.661,10.632,8.661h38.32c5.15,0,9.591-3.618,10.632-8.661l2.167-10.496c0.68-3.296,2.866-6.059,5.876-7.563
					c27.818-13.904,46.921-42.651,46.921-75.865c0-46.629-37.658-84.466-84.22-84.754
					C203.785,69.048,165.244,107.341,165.244,154.093z"/>
				<path style="fill:#EC644E;" d="M172.069,154.096c0,29.748,16.55,56.484,43.193,69.775c4.911,2.456,8.356,6.92,9.46,12.264
					l3.715,19.654c0.046,0.232,0.116,0.456,0.201,0.664c0.711,0.147,1.452,0.224,2.201,0.224h38.32c0.463,0,0.919-0.031,1.367-0.085
					c0.116-0.255,0.201-0.525,0.263-0.803l4.487-19.646c1.096-5.344,4.564-9.823,9.507-12.295
					c26.612-13.298,43.147-40.027,43.147-69.759c0-42.699-34.737-77.66-77.436-77.922h-0.486c-20.681,0-40.212,8.132-55.001,22.913
					C180.217,113.86,172.069,133.399,172.069,154.096z"/>
				<path style="fill:none;stroke:#263238;stroke-width:2.5;stroke-linecap:round;stroke-linejoin:round;stroke-miterlimit:10;" d="
					M172.069,154.096c0,29.748,16.55,56.484,43.193,69.775c4.911,2.456,8.356,6.92,9.46,12.264l3.715,19.654
					c0.046,0.232,0.116,0.456,0.201,0.664c0.711,0.147,1.452,0.224,2.201,0.224h38.32c0.463,0,0.919-0.031,1.367-0.085
					c0.116-0.255,0.201-0.525,0.263-0.803l4.487-19.646c1.096-5.344,4.564-9.823,9.507-12.295
					c26.612-13.298,43.147-40.027,43.147-69.759c0-42.699-34.737-77.66-77.436-77.922h-0.486c-20.681,0-40.212,8.132-55.001,22.913
					C180.217,113.86,172.069,133.399,172.069,154.096z"/>
				<g>
					
						<path style="fill:none;stroke:#FFFFFF;stroke-width:2.5;stroke-linecap:round;stroke-linejoin:round;stroke-miterlimit:10;" d="
						M271.77,184.327L271.77,184.327c1.085,0,1.939,0.618,1.853,1.341l-7.122,69.605h-3.73l7.146-69.802
						C269.993,184.825,270.8,184.327,271.77,184.327z"/>
					
						<path style="fill:none;stroke:#FFFFFF;stroke-width:2.5;stroke-linecap:round;stroke-linejoin:round;stroke-miterlimit:10;" d="
						M227.507,184.327L227.507,184.327c-1.085,0-1.939,0.618-1.853,1.341l7.122,69.605h3.73l-7.146-69.802
						C229.283,184.825,228.477,184.327,227.507,184.327z"/>
					
						<path style="fill:none;stroke:#FFFFFF;stroke-width:2.5;stroke-linecap:round;stroke-linejoin:round;stroke-miterlimit:10;" d="
						M271.77,184.327c-0.641,11.865-5.44,15.877-9.066,15.834c-9.845-0.117-10.671-20.671-5.117-19.728
						c6.187,1.051,3.21,31.518-7.949,31.518c-9.678,0-15.34-31.316-8.219-31.55c7.121-0.233,4.903,22.503-4.914,20.46
						c-7.868-1.637-8.999-16.534-8.999-16.534"/>
				</g>
				<path style="fill:#FFFFFF;" d="M288.935,104.837c-5.122,2.888,8.863,24.616,15.107,23.116
					C310.285,126.452,295.214,101.297,288.935,104.837z"/>
			</g>
			<g>
				<g>
					<path style="fill:#9ABAE3;" d="M224.435,270.5h51.129c2.214,0,4.008-1.795,4.008-4.008v-5.803c0-2.214-1.795-4.008-4.008-4.008
						h-51.129c-2.214,0-4.008,1.795-4.008,4.008v5.803C220.427,268.706,222.222,270.5,224.435,270.5z"/>
					<path style="opacity:0.5;fill:#263238;" d="M224.435,270.5h51.129c2.214,0,4.008-1.795,4.008-4.008v-5.803
						c0-2.214-1.795-4.008-4.008-4.008h-51.129c-2.214,0-4.008,1.795-4.008,4.008v5.803
						C220.427,268.706,222.222,270.5,224.435,270.5z"/>
					<path style="fill:#FFFFFF;" d="M260.395,270.497h10.876c1.482,0,2.677-1.195,2.677-2.671v-8.472
						c0-1.475-1.195-2.677-2.677-2.677h-10.876c1.475,0,2.677,1.202,2.677,2.677v8.472
						C263.072,269.302,261.87,270.497,260.395,270.497z"/>
					
						<path style="fill:none;stroke:#263238;stroke-width:2.5;stroke-linecap:round;stroke-linejoin:round;stroke-miterlimit:10;" d="
						M224.435,270.5h51.129c2.214,0,4.008-1.795,4.008-4.008v-5.803c0-2.214-1.795-4.008-4.008-4.008h-51.129
						c-2.214,0-4.008,1.795-4.008,4.008v5.803C220.427,268.706,222.222,270.5,224.435,270.5z"/>
				</g>
				<g>
					<path style="fill:#9ABAE3;" d="M226.676,276.59h46.366c1.632,0,2.954-1.323,2.954-2.954v-0.18c0-1.632-1.323-2.954-2.954-2.954
						h-46.367c-1.632,0-2.954,1.323-2.954,2.954v0.18C223.722,275.268,225.045,276.59,226.676,276.59z"/>
					<path style="opacity:0.5;fill:#263238;" d="M226.676,276.59h46.366c1.632,0,2.954-1.323,2.954-2.954v-0.18
						c0-1.632-1.323-2.954-2.954-2.954h-46.367c-1.632,0-2.954,1.323-2.954,2.954v0.18
						C223.722,275.268,225.045,276.59,226.676,276.59z"/>
					<path style="fill:#FFFFFF;" d="M259.976,276.593h8.772c1.268,0,2.297-1.035,2.297-2.303v-1.489
						c0-1.268-1.028-2.297-2.297-2.297h-8.772c1.268,0,2.297,1.028,2.297,2.297v1.489
						C262.273,275.558,261.244,276.593,259.976,276.593z"/>
					
						<path style="fill:none;stroke:#263238;stroke-width:2.5;stroke-linecap:round;stroke-linejoin:round;stroke-miterlimit:10;" d="
						M226.676,276.59h46.366c1.632,0,2.954-1.323,2.954-2.954v-0.18c0-1.632-1.323-2.954-2.954-2.954h-46.367
						c-1.632,0-2.954,1.323-2.954,2.954v0.18C223.722,275.268,225.045,276.59,226.676,276.59z"/>
				</g>
				<g>
					<path style="fill:#9ABAE3;" d="M226.676,282.681h46.366c1.632,0,2.954-1.323,2.954-2.954v-0.18
						c0-1.632-1.323-2.954-2.954-2.954h-46.367c-1.632,0-2.954,1.323-2.954,2.954v0.18
						C223.722,281.358,225.045,282.681,226.676,282.681z"/>
					<path style="opacity:0.5;fill:#263238;" d="M226.676,282.681h46.366c1.632,0,2.954-1.323,2.954-2.954v-0.18
						c0-1.632-1.323-2.954-2.954-2.954h-46.367c-1.632,0-2.954,1.323-2.954,2.954v0.18
						C223.722,281.358,225.045,282.681,226.676,282.681z"/>
					<path style="fill:#FFFFFF;" d="M259.976,282.683h8.772c1.268,0,2.297-1.035,2.297-2.303v-1.489
						c0-1.268-1.028-2.297-2.297-2.297h-8.772c1.268,0,2.297,1.028,2.297,2.297v1.489
						C262.273,281.649,261.244,282.683,259.976,282.683z"/>
					
						<path style="fill:none;stroke:#263238;stroke-width:2.5;stroke-linecap:round;stroke-linejoin:round;stroke-miterlimit:10;" d="
						M226.676,282.681h46.366c1.632,0,2.954-1.323,2.954-2.954v-0.18c0-1.632-1.323-2.954-2.954-2.954h-46.367
						c-1.632,0-2.954,1.323-2.954,2.954v0.18C223.722,281.358,225.045,282.681,226.676,282.681z"/>
				</g>
				<g>
					<path style="fill:#9ABAE3;" d="M226.676,288.772h46.367c1.632,0,2.954-1.323,2.954-2.954v-0.18
						c0-1.632-1.323-2.954-2.954-2.954h-46.366c-1.632,0-2.954,1.323-2.954,2.954v0.18
						C223.722,287.449,225.045,288.772,226.676,288.772z"/>
					<path style="opacity:0.5;fill:#263238;" d="M226.676,288.772h46.367c1.632,0,2.954-1.323,2.954-2.954v-0.18
						c0-1.632-1.323-2.954-2.954-2.954h-46.366c-1.632,0-2.954,1.323-2.954,2.954v0.18
						C223.722,287.449,225.045,288.772,226.676,288.772z"/>
					<path style="fill:#FFFFFF;" d="M259.976,288.774h8.772c1.268,0,2.297-1.035,2.297-2.303v-1.489
						c0-1.268-1.028-2.297-2.297-2.297h-8.772c1.268,0,2.297,1.028,2.297,2.297v1.489
						C262.273,287.739,261.244,288.774,259.976,288.774z"/>
					
						<path style="fill:none;stroke:#263238;stroke-width:2.5;stroke-linecap:round;stroke-linejoin:round;stroke-miterlimit:10;" d="
						M226.676,288.772h46.367c1.632,0,2.954-1.323,2.954-2.954v-0.18c0-1.632-1.323-2.954-2.954-2.954h-46.366
						c-1.632,0-2.954,1.323-2.954,2.954v0.18C223.722,287.449,225.045,288.772,226.676,288.772z"/>
				</g>
				
					<path style="fill:#263238;stroke:#263238;stroke-width:2.5;stroke-linecap:round;stroke-linejoin:round;stroke-miterlimit:10;" d="
					M232.062,294.86h35.876c1.632,0,2.955-1.323,2.955-2.955v-0.18c0-1.632-1.323-2.955-2.955-2.955h-35.876
					c-1.632,0-2.955,1.323-2.955,2.955v0.18C229.107,293.537,230.43,294.86,232.062,294.86z"/>
			</g>
		</g>
		<g>
			
				<line style="fill:none;stroke:#EC644E;stroke-width:2.5;stroke-linecap:round;stroke-linejoin:round;stroke-miterlimit:10;" x1="248.532" y1="35.291" x2="248.532" y2="54.511"/>
			
				<line style="fill:none;stroke:#EC644E;stroke-width:2.5;stroke-linecap:round;stroke-linejoin:round;stroke-miterlimit:10;" x1="164.703" y1="71.23" x2="178.293" y2="84.821"/>
			
				<line style="fill:none;stroke:#EC644E;stroke-width:2.5;stroke-linecap:round;stroke-linejoin:round;stroke-miterlimit:10;" x1="130.839" y1="155.92" x2="150.059" y2="155.92"/>
			
				<line style="fill:none;stroke:#EC644E;stroke-width:2.5;stroke-linecap:round;stroke-linejoin:round;stroke-miterlimit:10;" x1="166.779" y1="239.749" x2="180.369" y2="226.159"/>
			
				<line style="fill:none;stroke:#EC644E;stroke-width:2.5;stroke-linecap:round;stroke-linejoin:round;stroke-miterlimit:10;" x1="335.297" y1="237.673" x2="321.707" y2="224.083"/>
			
				<line style="fill:none;stroke:#EC644E;stroke-width:2.5;stroke-linecap:round;stroke-linejoin:round;stroke-miterlimit:10;" x1="369.16" y1="152.984" x2="349.941" y2="152.984"/>
			
				<line style="fill:none;stroke:#EC644E;stroke-width:2.5;stroke-linecap:round;stroke-linejoin:round;stroke-miterlimit:10;" x1="333.221" y1="69.154" x2="319.631" y2="82.745"/>
		</g>
	</g>
</g>
<g id="Gears">
	<g>
		<path style="fill:none;stroke:#9ABAE3;stroke-width:2.5;stroke-linecap:round;stroke-linejoin:round;stroke-miterlimit:10;" d="
			M369.072,117.476c0.674,0.507,1.396,0.971,2.158,1.379c0.767,0.411,1.548,0.756,2.342,1.032l0.166,5.349l11.672-0.363
			l-0.165-5.371l0,0c1.563-0.65,3.026-1.55,4.329-2.671l4.721,2.532l5.521-10.295l-4.721-2.532c0.211-1.705,0.153-3.423-0.17-5.084
			l4.564-2.833l-6.155-9.924l-4.571,2.831c-0.66-0.518-1.379-0.975-2.137-1.382c-0.758-0.406-1.535-0.753-2.342-1.019l-0.162-5.371
			l-11.672,0.363l0.17,5.362c-1.564,0.652-3.027,1.558-4.334,2.679c0,0,0,0,0,0l-4.721-2.532l-5.521,10.295l4.723,2.533c0,0,0,0,0,0
			c-0.215,1.708-0.158,3.427,0.163,5.092v0l-4.56,2.825l6.155,9.924L369.072,117.476z M369.261,105.399
			c-0.215-10.571,12.547-14.423,18.217-5.498c0.703,1.107,1.09,2.395,1.113,3.706c0.187,10.563-12.518,14.397-18.207,5.495
			C369.678,107.998,369.287,106.71,369.261,105.399z"/>
		<path style="fill:none;stroke:#EC644E;stroke-width:2.5;stroke-linecap:round;stroke-linejoin:round;stroke-miterlimit:10;" d="
			M420.507,78.846c0.89,0.67,1.844,1.283,2.85,1.821c1.013,0.543,2.044,0.999,3.094,1.363l0.22,7.067l15.418-0.479l-0.218-7.095l0,0
			c2.065-0.859,3.997-2.047,5.718-3.528l6.237,3.345l7.293-13.599l-6.237-3.345c0.279-2.253,0.202-4.521-0.224-6.716l6.03-3.743
			l-8.131-13.109l-6.038,3.74c-0.871-0.684-1.822-1.288-2.823-1.826c-1.001-0.536-2.028-0.994-3.093-1.345l-0.214-7.095
			l-15.419,0.479l0.224,7.083c-2.066,0.861-3.999,2.058-5.725,3.539c0,0,0,0,0,0l-6.236-3.344l-7.293,13.599l6.239,3.346
			c0,0,0,0,0,0c-0.285,2.256-0.209,4.527,0.215,6.726v0l-6.023,3.731l8.131,13.109L420.507,78.846z M420.757,62.894
			c-0.284-13.965,16.574-19.053,24.064-7.263c0.929,1.462,1.44,3.164,1.471,4.896c0.246,13.953-16.536,19.018-24.051,7.259
			C421.308,66.326,420.792,64.625,420.757,62.894z"/>
		<path style="fill:none;stroke:#9ABAE3;stroke-width:2.5;stroke-linecap:round;stroke-linejoin:round;stroke-miterlimit:10;" d="
			M58.605,233.576c1.205,0.907,2.497,1.736,3.859,2.466c1.372,0.736,2.768,1.353,4.189,1.845l0.297,9.568l20.876-0.649L87.53,237.2
			c0,0,0,0,0,0c2.796-1.163,5.412-2.772,7.742-4.776l8.445,4.528l9.874-18.412l-8.444-4.528c0.378-3.05,0.273-6.122-0.304-9.094
			l8.164-5.067l-11.009-17.749l-8.175,5.064c-1.18-0.926-2.466-1.744-3.822-2.472c-1.356-0.726-2.746-1.346-4.188-1.822l-0.29-9.606
			l-20.876,0.649l0.304,9.59c-2.797,1.166-5.414,2.786-7.751,4.792h0l-8.443-4.528l-9.875,18.412l8.448,4.53c0,0,0,0,0,0
			c-0.385,3.054-0.283,6.13,0.291,9.107l0,0l-8.155,5.052l11.009,17.749L58.605,233.576z M58.943,211.977
			c-0.384-18.907,22.44-25.797,32.581-9.834c1.257,1.979,1.95,4.285,1.991,6.629c0.334,18.891-22.389,25.75-32.563,9.829
			C59.69,216.624,58.991,214.322,58.943,211.977z"/>
	</g>
</g>
<g id="Paper_Plane">
	<g>
		<g>
			<g>
				
					<polygon style="fill:#EC644E;stroke:#263238;stroke-width:2.5;stroke-linecap:round;stroke-linejoin:round;stroke-miterlimit:10;" points="
					373.381,183.519 373.381,220.275 449.04,156.263 				"/>
				
					<polygon style="fill:#EC644E;stroke:#263238;stroke-width:2.5;stroke-linecap:round;stroke-linejoin:round;stroke-miterlimit:10;" points="
					381.863,199.239 373.381,220.275 449.04,156.263 				"/>
			</g>
			<polygon style="fill:#EC644E;" points="347.934,179.335 373.72,193.132 442.707,159.882 381.863,199.239 417.826,225.703 
				449.04,156.263 			"/>
			<polygon style="fill:#FFFFFF;" points="449.04,156.26 417.83,225.7 411.67,221.17 437.8,163.06 442.71,159.88 434.77,163.71 
				353.42,182.27 347.93,179.33 			"/>
			
				<polygon style="fill:none;stroke:#263238;stroke-width:2.5;stroke-linecap:round;stroke-linejoin:round;stroke-miterlimit:10;" points="
				347.934,179.335 373.72,193.132 442.707,159.882 381.863,199.239 417.826,225.703 449.04,156.263 			"/>
		</g>
		<g>
			<g>
				<path style="fill:none;stroke:#263238;stroke-width:2.5;stroke-linecap:round;stroke-linejoin:round;" d="M373.381,220.275
					c-0.605,0.825-1.456,2.083-2.549,3.703"/>
				
					<path style="fill:none;stroke:#263238;stroke-width:2.5;stroke-linecap:round;stroke-linejoin:round;stroke-dasharray:8.8553,8.8553;" d="
					M365.825,231.279c-20.118,28.643-75.131,97.264-164.195,86.15c-79.382-9.906-90.048-62.025-54.98-70.825
					c36.362-9.124,38.102,102.926-87.792,38.428"/>
				<path style="fill:none;stroke:#263238;stroke-width:2.5;stroke-linecap:round;stroke-linejoin:round;" d="M54.922,282.98
					c-1.307-0.693-2.628-1.405-3.962-2.136"/>
			</g>
		</g>
	</g>
</g>
</svg>
