<?xml version="1.0" encoding="utf-8"?>
<!-- Generator: Adobe Illustrator 27.5.0, SVG Export Plug-In . SVG Version: 6.00 Build 0)  -->
<svg version="1.1" xmlns="http://www.w3.org/2000/svg" xmlns:xlink="http://www.w3.org/1999/xlink" x="0px" y="0px"
	 viewBox="0 0 1122 1122" style="enable-background:new 0 0 1122 1122;" xml:space="preserve">
<g id="Bg">
	<g>
		<g>
			<rect style="fill:#FFFFFF;" width="1122" height="1122"/>
		</g>
	</g>
</g>
<g id="Object">
	<g>
		<polygon style="fill:#616E7D;" points="588.283,308.121 588.283,249.5 398.799,249.5 398.799,308.121 435.45,308.121 
			435.45,298.713 448.196,298.713 448.196,308.121 538.886,308.121 538.886,298.713 551.631,298.713 551.631,308.121 		"/>
		<path style="fill:#AAD4C8;" d="M551.631,335.088v-9.411h45.433c2.318,0,4.575-0.938,6.209-2.573
			c1.628-1.634,2.566-3.897,2.566-6.206V245.27v-4.545c0-2.312-0.938-4.576-2.566-6.204c-1.634-1.64-3.891-2.572-6.209-2.572
			H390.011c-2.306,0-4.569,0.932-6.209,2.572c-1.64,1.628-2.566,3.891-2.566,6.204v4.545v71.629c0,2.309,0.944,4.572,2.566,6.206
			c1.64,1.634,3.903,2.573,6.209,2.573h45.439v9.411h12.746v-9.411h90.69v9.411H551.631z M448.196,308.121v-9.408H435.45v9.408
			h-36.651V249.5h189.484v58.62h-36.652v-9.408h-12.745v9.408H448.196z"/>
		<path style="fill:#FFFFFF;" d="M826.201,870.324V392.577H473.566v477.747H826.201z M519.888,453.322h284.895v33.28H519.888
			V453.322z M494.984,528.63h309.798v33.278H494.984V528.63z M494.984,603.942h309.798v33.277H494.984V603.942z M494.984,679.251
			h309.798v33.278H494.984V679.251z M494.984,754.563h266.508v33.271H494.984V754.563z"/>
		<path style="fill:#616E7D;" d="M456.735,887.157c1.828,1.846,4.363,2.893,6.972,2.893h372.359c2.596,0,5.138-1.047,6.966-2.893
			c1.846-1.834,2.893-4.376,2.893-6.972V382.712c0-2.596-1.047-5.135-2.893-6.969c-1.828-1.846-4.37-2.893-6.966-2.893H711v-96.298
			c0-8.242-3.329-16.298-9.163-22.12c-5.816-5.828-13.877-9.163-22.108-9.163H605.84v71.629c0,2.309-0.938,4.572-2.566,6.206
			c-1.634,1.634-3.891,2.573-6.209,2.573h-45.433v9.411h-12.745v-9.411h-90.69v9.411H435.45v-9.411h-45.439
			c-2.306,0-4.569-0.938-6.209-2.573c-1.622-1.634-2.566-3.897-2.566-6.206V245.27h-73.89c-8.231,0-16.286,3.335-22.12,9.157
			c-5.816,5.828-9.151,13.884-9.151,22.126v524.293c0,8.24,3.335,16.295,9.151,22.118c5.834,5.825,13.889,9.16,22.12,9.16h146.496
			v48.063C453.842,882.782,454.89,885.324,456.735,887.157z M473.566,392.577h352.636v477.747H473.566V392.577z"/>
		<rect x="519.888" y="453.322" style="fill:#82BFAB;" width="284.895" height="33.28"/>
		<rect x="494.984" y="528.63" style="fill:#82BFAB;" width="309.798" height="33.278"/>
		<rect x="494.984" y="603.942" style="fill:#82BFAB;" width="309.798" height="33.277"/>
		<rect x="494.984" y="679.251" style="fill:#82BFAB;" width="309.798" height="33.278"/>
		<rect x="494.984" y="754.563" style="fill:#82BFAB;" width="266.508" height="33.271"/>
	</g>
</g>
</svg>
