<?xml version="1.0" encoding="utf-8"?>
<!-- Generator: Adobe Illustrator 27.5.0, SVG Export Plug-In . SVG Version: 6.00 Build 0)  -->
<svg version="1.1" id="Design" xmlns="http://www.w3.org/2000/svg" xmlns:xlink="http://www.w3.org/1999/xlink" x="0px" y="0px"
	 viewBox="0 0 2000 2000" style="enable-background:new 0 0 2000 2000;" xml:space="preserve">
<rect id="Background" style="fill:#FFFFFF;" width="2000" height="2000"/>
<g>
	<g>
		<path style="fill:#409FFF;" d="M1687.354,837.735l-93.718-175.083c-6.825-12.776-20.137-20.729-34.632-20.729h-333.132
			c-14.497,0-27.808,7.953-34.633,20.729l-93.69,175.083c-3.074,5.697-4.653,12.071-4.653,18.529v748.699
			c0,21.688,17.599,39.286,39.286,39.286h520.51c21.717,0,39.287-17.599,39.287-39.286V856.265
			C1691.98,849.806,1690.4,843.432,1687.354,837.735z M1392.442,837.051c-28.038,0-50.765-22.728-50.765-50.765
			c0-28.037,22.727-50.765,50.765-50.765c28.036,0,50.765,22.728,50.765,50.765C1443.207,814.323,1420.479,837.051,1392.442,837.051
			z"/>
		<path style="fill:#3A8BCE;" d="M1150.966,1561.79c0,4.484-1.805,8.545-4.738,11.479c-2.933,2.933-6.994,4.738-11.451,4.738
			h-41.881v-32.405h41.881C1143.718,1545.601,1150.966,1552.849,1150.966,1561.79z"/>
		<path style="fill:#3A8BCE;" d="M1247.588,1578.005h-54.485c-8.948,0-16.202-7.254-16.202-16.202l0,0
			c0-8.948,7.254-16.202,16.202-16.202h54.485c8.948,0,16.202,7.254,16.202,16.202l0,0
			C1263.789,1570.751,1256.535,1578.005,1247.588,1578.005z"/>
		<path style="fill:#3A8BCE;" d="M1360.399,1578.005h-54.485c-8.948,0-16.202-7.254-16.202-16.202l0,0
			c0-8.948,7.254-16.202,16.202-16.202h54.485c8.948,0,16.202,7.254,16.202,16.202l0,0
			C1376.6,1570.751,1369.347,1578.005,1360.399,1578.005z"/>
		<path style="fill:#3A8BCE;" d="M1473.21,1578.005h-54.485c-8.948,0-16.202-7.254-16.202-16.202l0,0
			c0-8.948,7.254-16.202,16.202-16.202h54.485c8.948,0,16.202,7.254,16.202,16.202l0,0
			C1489.411,1570.751,1482.158,1578.005,1473.21,1578.005z"/>
		<path style="fill:#3A8BCE;" d="M1586.021,1578.005h-54.485c-8.948,0-16.202-7.254-16.202-16.202l0,0
			c0-8.948,7.254-16.202,16.202-16.202h54.485c8.948,0,16.202,7.254,16.202,16.202l0,0
			C1602.223,1570.751,1594.969,1578.005,1586.021,1578.005z"/>
		<path style="fill:#3A8BCE;" d="M1691.98,1545.601v32.405h-47.635c-8.94,0-16.188-7.248-16.188-16.217
			c0-4.456,1.805-8.517,4.739-11.45c2.932-2.933,6.993-4.738,11.449-4.738H1691.98z"/>
	</g>
	<g>
		<path style="fill:#EF5350;" d="M1282.38,908.793l57.534-190.071c4.208-13.86,0.418-28.897-9.831-39.146l-235.56-235.56
			c-10.251-10.251-25.287-14.039-39.147-9.832l-190.051,57.554c-6.202,1.855-11.826,5.245-16.392,9.812l-529.41,529.41
			c-15.336,15.336-15.336,40.224,0,55.559l368.056,368.056c15.356,15.356,40.224,15.336,55.56,0l529.41-529.41
			C1277.115,920.6,1280.505,914.976,1282.38,908.793z M1074.329,699.776c-19.826-19.826-19.825-51.968,0-71.793
			c19.825-19.825,51.967-19.826,71.793,0c19.825,19.825,19.825,51.968,0,71.793C1126.297,719.6,1094.154,719.6,1074.329,699.776z"/>
		<path style="fill:#D34A4A;" d="M391.112,1041.493c-3.171,3.171-7.319,4.766-11.467,4.766c-4.148,0-8.296-1.595-11.447-4.746
			l-29.614-29.614l22.914-22.914l29.614,29.614C397.434,1024.921,397.433,1035.171,391.112,1041.493z"/>
		<path style="fill:#D34A4A;" d="M447.968,1121.281l-38.527-38.527c-6.327-6.327-6.327-16.585,0-22.912h0
			c6.327-6.327,16.585-6.327,22.913,0l38.527,38.527c6.327,6.327,6.327,16.585,0,22.912h0
			C464.553,1127.608,454.295,1127.608,447.968,1121.281z"/>
		<path style="fill:#D34A4A;" d="M527.738,1201.05l-38.527-38.527c-6.327-6.327-6.327-16.585,0-22.912h0
			c6.327-6.327,16.585-6.327,22.913,0l38.527,38.527c6.327,6.327,6.327,16.585,0,22.912l0,0
			C544.323,1207.377,534.065,1207.377,527.738,1201.05z"/>
		<path style="fill:#D34A4A;" d="M607.507,1280.82l-38.527-38.527c-6.327-6.327-6.327-16.585,0-22.912l0,0
			c6.327-6.327,16.585-6.327,22.913,0l38.527,38.527c6.327,6.327,6.327,16.585,0,22.912l0,0
			C624.093,1287.147,613.834,1287.147,607.507,1280.82z"/>
		<path style="fill:#D34A4A;" d="M687.277,1360.589l-38.527-38.527c-6.327-6.327-6.327-16.585,0-22.912l0,0
			c6.327-6.327,16.585-6.327,22.913,0l38.527,38.527c6.327,6.327,6.327,16.585,0,22.912l0,0
			C703.862,1366.916,693.604,1366.916,687.277,1360.589z"/>
		<path style="fill:#D34A4A;" d="M785.114,1412.601l-22.914,22.914l-33.683-33.683c-6.322-6.322-6.321-16.572,0.02-22.913
			c3.151-3.151,7.299-4.746,11.447-4.746c4.147-0.001,8.295,1.594,11.446,4.745L785.114,1412.601z"/>
	</g>
	<path style="fill:#36474F;" d="M1392.438,800.754L1392.438,800.754c-14.322,0-25.932-11.61-25.932-25.932V381.682
		c0-14.322,11.61-25.932,25.932-25.932l0,0c14.322,0,25.932,11.61,25.932,25.932v393.139
		C1418.371,789.143,1406.76,800.754,1392.438,800.754z"/>
	<path style="fill:#36474F;" d="M1098.659,675.461L1098.659,675.461c-10.127-10.127-10.127-26.547,0-36.674l275.442-275.442
		c10.127-10.127,26.547-10.127,36.674,0v0c10.127,10.127,10.127,26.547,0,36.674l-275.442,275.442
		C1125.206,685.588,1108.786,685.588,1098.659,675.461z"/>
	<g>
		<path style="fill:#FFFFFF;" d="M1468.583,1062.843c-11.218-18.549-43.141-32.788-72.909-32.788
			c-35.807,0-68.596,10.356-68.596,40.555c0,28.473,34.08,33.651,70.32,37.964c62.988,7.767,130.289,18.982,130.289,94.912
			c0,58.243-48.752,91.028-102.246,94.912v43.141h-54.789v-40.985c-48.319-4.313-93.188-26.316-113.464-73.771l50.908-21.571
			c11.647,27.611,50.043,45.298,85.85,45.298c38.828,0,74.635-13.374,74.635-47.025c0-28.473-35.807-38.828-75.93-43.574
			c-61.691-6.902-122.09-17.687-122.09-89.302c0-56.516,50.043-82.402,100.09-88.442v-37.531h54.789v37.531
			c36.669,5.61,70.32,19.414,89.734,59.105L1468.583,1062.843z"/>
	</g>
	<g>
		<path style="fill:#FFFFFF;" d="M778.792,870.601c-72.357-72.357,32.343-177.057,104.7-104.7
			C955.846,838.255,851.146,942.955,778.792,870.601z M1028.037,935.569L658.89,1012.45c-2.581,0.538-5.259-0.262-7.123-2.126
			l-34.116-34.116c-4.398-4.398-2.149-11.923,3.942-13.185l369.467-76.561c2.579-0.534,5.253,0.265,7.115,2.127l33.796,33.796
			C1036.368,926.781,1034.124,934.301,1028.037,935.569z M809.468,839.924c28.675,28.675,72.356-15.005,43.68-43.68
			C824.473,767.569,780.793,811.249,809.468,839.924z M770.121,1132.68c-72.354-72.354,32.344-177.053,104.699-104.699
			C947.177,1100.339,842.478,1205.037,770.121,1132.68z M800.465,1102.337c28.675,28.675,72.354-15.004,43.679-43.679
			S771.789,1073.662,800.465,1102.337z"/>
	</g>
</g>
</svg>
