<?xml version="1.0" encoding="utf-8"?>
<!-- Generator: Adobe Illustrator 27.5.0, SVG Export Plug-In . SVG Version: 6.00 Build 0)  -->
<svg version="1.1" xmlns="http://www.w3.org/2000/svg" xmlns:xlink="http://www.w3.org/1999/xlink" x="0px" y="0px"
	 viewBox="0 0 3710 3710" style="enable-background:new 0 0 3710 3710;" xml:space="preserve">
<g id="Background">
	<g>
		<g>
			<rect style="fill:#FFFFFF;" width="3710" height="3710"/>
		</g>
	</g>
</g>
<g id="Illustration">
	<g>
		<linearGradient id="SVGID_1_" gradientUnits="userSpaceOnUse" x1="3443.8406" y1="3267.1323" x2="1407.2664" y2="1485.1312">
			<stop  offset="0" style="stop-color:#B37CFF"/>
			<stop  offset="1" style="stop-color:#F895E7"/>
		</linearGradient>
		<path style="opacity:0.3;fill:url(#SVGID_1_);" d="M3097.729,2341.66c-263.208,619.747-964.331,966.934-1572.347,873.282
			c-98.936-15.24-370.173-60.634-610.316-274.792C452.775,2527.88,353.91,1711.533,726.826,1136.233
			C998.244,717.516,1484.788,480.159,1947.1,492.032c99.582,2.557,481.222,18.319,816.617,294.878
			c49.263,40.621,157.917,137.148,255.841,290.282C3249.5,1436.779,3269.264,1937.762,3097.729,2341.66z"/>
		<g>
			<g>
				
					<linearGradient id="SVGID_00000029765265127768210310000006445070147313298618_" gradientUnits="userSpaceOnUse" x1="-852.7162" y1="1222.326" x2="-2063.3884" y2="2752.1768" gradientTransform="matrix(-0.8892 -0.4575 -0.4575 0.8892 463.5373 216.9764)">
					<stop  offset="0" style="stop-color:#CB236D"/>
					<stop  offset="1" style="stop-color:#4C246D"/>
				</linearGradient>
				<path style="fill:url(#SVGID_00000029765265127768210310000006445070147313298618_);" d="M588.851,1564.201
					c2.818-12.861,19.73-13.086,22.787-0.289c29.555,123.721,116.443,445.51,256.256,618.351
					c227.648,281.424,374.123,733.45,220.542,962.476C1088.437,3144.739,281.857,2965.525,588.851,1564.201z"/>
				<path style="opacity:0.43;fill:#FFFFFF;" d="M607.952,1740.223c0.212,4.027,0.682,7.332,1.044,10.91l1.278,10.524l2.77,20.994
					c1.935,13.978,4.066,27.919,6.199,41.86c4.358,27.864,9.035,55.667,13.948,83.424c9.921,55.493,21.229,110.688,33.302,165.688
					c12.002,55.023,25.427,109.682,39.915,164.011c14.532,54.312,29.779,108.424,46.664,161.963
					c33.569,107.13,72.553,212.387,118.251,314.239c23.34,50.655,47.915,100.677,75.12,149.048
					c27.515,48.142,56.936,95.042,89.385,139.411c0.706,0.965,2,1.128,2.892,0.364c0.869-0.744,1.034-2.096,0.388-3.057
					l-0.017-0.025c-30.72-45.532-59.124-92.768-85.326-141.412c-26.331-48.571-50.029-98.756-72.484-149.531
					c-22.436-50.805-42.977-102.579-62.426-154.817c-19.433-52.26-36.858-105.365-54.003-158.56
					c-33.879-106.579-62.484-215.074-88.312-324.311c-12.807-54.655-24.598-109.595-35.485-164.748
					c-5.484-27.568-10.735-55.192-15.668-82.884l-7.098-41.593l-3.351-20.827l-1.567-10.422c-0.462-3.422-1.013-7.094-1.303-10.106
					l-0.048-0.498c-0.117-1.213-1.12-2.095-2.241-1.968C608.691,1738.024,607.893,1739.055,607.952,1740.223z"/>
			</g>
			<g>
				
					<linearGradient id="SVGID_00000022528487702216753100000003243872345117032847_" gradientUnits="userSpaceOnUse" x1="-2695.584" y1="-6.8461" x2="-3988.0786" y2="1626.3987" gradientTransform="matrix(-0.8844 -0.4666 -0.4666 0.8844 -1521.8835 125.5535)">
					<stop  offset="0" style="stop-color:#A737D5"/>
					<stop  offset="1" style="stop-color:#EF497A"/>
				</linearGradient>
				<path style="fill:url(#SVGID_00000022528487702216753100000003243872345117032847_);" d="M792.071,1237.189
					c3.079-13.704,20.797-13.743,23.871-0.038c29.725,132.504,117.53,477.256,262.254,663.54
					c235.645,303.312,384.567,787.885,221.418,1030.692C1299.615,2931.384,456.552,2730.358,792.071,1237.189z"/>
				<path style="opacity:0.43;fill:#FFFFFF;" d="M810.285,1425.433c0.181,4.313,0.64,7.845,0.982,11.672l1.232,11.258l2.686,22.46
					c1.883,14.955,3.975,29.872,6.068,44.789c4.281,29.816,8.898,59.571,13.762,89.28c9.83,59.397,21.12,118.49,33.21,177.385
					c12.015,58.919,25.529,117.465,40.163,175.671c14.678,58.188,30.109,116.172,47.259,173.565
					c34.093,114.835,73.888,227.73,120.749,337.069c23.951,54.383,49.203,108.105,77.224,160.095
					c28.354,51.746,58.714,102.188,92.276,149.956c0.744,1.058,2.123,1.25,3.081,0.43c0.935-0.8,1.124-2.267,0.445-3.32
					l-0.018-0.027c-31.707-49.012-60.978-99.808-87.927-152.084c-27.088-52.197-51.401-106.084-74.408-160.589
					c-22.988-54.534-43.986-110.078-63.833-166.107c-19.833-56.051-37.549-112.982-54.98-170.003
					c-34.43-114.239-63.307-230.466-89.288-347.448c-12.878-58.528-24.685-117.351-35.549-176.389
					c-5.475-29.51-10.706-59.078-15.603-88.714l-7.029-44.509l-3.308-22.285l-1.541-11.15c-0.451-3.659-0.992-7.591-1.267-10.802
					l-0.046-0.543c-0.113-1.321-1.175-2.291-2.371-2.166C811.095,1423.051,810.234,1424.162,810.285,1425.433z"/>
			</g>
		</g>
		<g>
			
				<linearGradient id="SVGID_00000106831119239997592290000004346130184765618358_" gradientUnits="userSpaceOnUse" x1="1835.8221" y1="3042.2461" x2="1701.4938" y2="-933.9407">
				<stop  offset="0" style="stop-color:#2B3582"/>
				<stop  offset="1" style="stop-color:#150E42"/>
			</linearGradient>
			<path style="fill:url(#SVGID_00000106831119239997592290000004346130184765618358_);" d="M890.764,947.447
				c0-94.852,76.893-171.746,171.746-171.746h1460.535c80.577,0,147.019,63.145,151.115,143.618l107.808,2117.504
				c3.206,62.972-46.365,116.09-109.409,117.236l-1673.958,30.424c-59.237,1.076-107.838-46.649-107.838-105.896V947.447z"/>
			
				<linearGradient id="SVGID_00000171714590657036345940000016797759903705681585_" gradientUnits="userSpaceOnUse" x1="569.1706" y1="2680.4409" x2="2091.5894" y2="3647.6265">
				<stop  offset="0" style="stop-color:#A737D5"/>
				<stop  offset="1" style="stop-color:#EF497A"/>
			</linearGradient>
			<path style="fill:url(#SVGID_00000171714590657036345940000016797759903705681585_);" d="M1243.256,3148.484
				c-0.018,0-0.035,0-0.053,0l-187.306-2.421c-62.631-0.812-113.585-52.429-113.585-115.063v-282.797c0-2.21,1.79-3.998,3.998-3.998
				c2.208,0,3.999,1.788,3.999,3.998V3031c0,58.279,47.411,106.308,105.691,107.065l187.304,2.422
				c2.208,0.027,3.975,1.843,3.948,4.049C1247.223,3146.727,1245.439,3148.484,1243.256,3148.484z"/>
			
				<linearGradient id="SVGID_00000121268986541941469970000016050161832736144016_" gradientUnits="userSpaceOnUse" x1="696.9585" y1="2479.293" x2="2219.3767" y2="3446.478">
				<stop  offset="0" style="stop-color:#A737D5"/>
				<stop  offset="1" style="stop-color:#EF497A"/>
			</linearGradient>
			<path style="fill:url(#SVGID_00000121268986541941469970000016050161832736144016_);" d="M946.311,2664.604
				c-2.208,0-3.998-1.789-3.998-3.999v-45.799c0-2.21,1.79-3.999,3.998-3.999c2.208,0,3.999,1.789,3.999,3.999v45.799
				C950.31,2662.815,948.519,2664.604,946.311,2664.604z"/>
			<g>
				
					<linearGradient id="SVGID_00000041257378378026027110000015241479115689088184_" gradientUnits="userSpaceOnUse" x1="2668.8652" y1="720.0605" x2="746.2806" y2="3487.1936">
					<stop  offset="0" style="stop-color:#53D8FF"/>
					<stop  offset="1" style="stop-color:#3840F7"/>
				</linearGradient>
				<path style="fill:url(#SVGID_00000041257378378026027110000015241479115689088184_);" d="M1010.419,808.294
					c-0.179-30.347,26.51-53.835,56.583-49.757c199.449,27.047,885.304,110.699,1452.36,67.17
					c25.86-1.985,48.302,17.608,49.678,43.508l113.042,2126.942c1.55,29.164-20.72,54.103-49.874,55.828
					c-238.493,14.114-1220.682,68.674-1571.015,31.98c-21.322-2.234-37.507-20.185-37.633-41.623L1010.419,808.294z"/>
				<path style="opacity:0.6;fill:#FFFFFF;" d="M1033.912,861.593c-0.172-29.204,25.512-51.808,54.452-47.883
					c191.939,26.029,851.967,106.531,1397.67,64.64c24.886-1.91,46.483,16.945,47.808,41.869l108.786,2046.851
					c1.492,28.065-19.94,52.066-47.996,53.726c-229.512,13.582-1174.717,66.087-1511.857,30.775
					c-20.519-2.149-36.095-19.425-36.216-40.056L1033.912,861.593z"/>
				<path style="opacity:0.78;fill:#FFFFFF;" d="M1211.594,1019.403l20.385,438.825c0.678,14.595,12.468,26.2,27.073,26.612
					c81.271,2.292,334.513,8.469,477.504,1.014c16.175-0.843,28.971-13.928,29.507-30.116c2.727-82.296,8.693-321.824-10.06-421.955
					c-3.03-16.174-16.932-28.026-33.377-28.601l-480.365-16.799C1224.939,987.777,1210.79,1002.089,1211.594,1019.403z"/>
				<g style="opacity:0.6;">
					<path style="fill:#FFFFFF;" d="M2415.033,1057.602c8.513,0,15.285-6.625,15.049-14.721
						c-0.237-8.097-7.394-14.845-15.906-14.997l-530.027-9.445c-8.512-0.152-13.162,6.294-10.334,14.323l3.607,10.241
						c2.828,8.03,12.107,14.599,20.62,14.599H2415.033z"/>
				</g>
				<g style="opacity:0.6;">
					<path style="fill:#FFFFFF;" d="M1884.148,1155.153c-8.512-0.152-13.162,6.294-10.334,14.324l3.607,10.241
						c2.828,8.03,12.107,14.599,20.62,14.599h516.992c8.513,0,15.285-6.625,15.049-14.721c-0.237-8.097-7.394-14.845-15.906-14.997
						L1884.148,1155.153z"/>
				</g>
				<g style="opacity:0.6;">
					<path style="fill:#FFFFFF;" d="M1884.148,1304.864c-8.512-0.151-13.162,6.294-10.334,14.324l3.607,10.241
						c2.828,8.03,12.107,14.599,20.62,14.599h516.992c8.513,0,15.285-6.625,15.049-14.721c-0.237-8.097-7.394-14.845-15.906-14.997
						L1884.148,1304.864z"/>
				</g>
				<g style="opacity:0.6;">
					<path style="fill:#FFFFFF;" d="M2466.198,1622.657c8.513,0,15.041-6.625,14.506-14.721c-0.535-8.097-7.937-14.776-16.45-14.843
						l-1237.324-9.753c-8.513-0.067-11.139,5.327-5.836,11.987l12.12,15.222c5.303,6.66,16.607,12.109,25.12,12.109H2466.198z"/>
				</g>
				<g>
					<path style="fill:#FFFFFF;" d="M1355.77,2192.156c-0.094,0-0.19,0-0.285,0l-104.152-1
						c-14.88-0.145-27.164-10.384-28.573-23.813l-9.155-87.387c-0.537-5.131,1.056-10.2,4.485-14.281
						c3.839-4.565,9.647-7.431,15.937-7.865l0,0c8.774-0.597,21.132-1.652,34.214-2.765c27.547-2.347,61.831-5.264,81.12-5.506
						c13.996-0.07,25.867,8.212,29.165,20.4c5.426,20.06,4.949,58.033,3.917,98.486
						C1382.107,2181.565,1370.17,2192.156,1355.77,2192.156z M1234.572,2065.792c-4.135,0.281-7.911,2.116-10.36,5.03
						c-2.021,2.401-2.962,5.35-2.653,8.298l9.155,87.387c0.984,9.388,9.882,16.546,20.697,16.651l104.152,1c0.068,0,0.139,0,0.209,0
						c10.093,0,18.45-7.111,18.676-15.937c1.016-39.839,1.502-77.172-3.643-96.197c-2.306-8.525-11.176-14.457-21.343-14.488
						c-19.002,0.238-53.124,3.144-80.542,5.479C1255.802,2064.132,1243.411,2065.186,1234.572,2065.792L1234.572,2065.792z"/>
					<path style="opacity:0.6;fill:#FFFFFF;" d="M1245.776,2074.81c21.88-1.495,69.435-6.324,91.989-6.604
						c9.557-0.119,17.939,5.655,20.18,13.942c4.353,16.095,3.776,48.176,3.021,77.786c-0.226,8.868-8.371,15.947-18.316,15.851
						l-83.231-0.8c-10.235-0.098-18.733-7.077-19.686-16.166l-7.317-69.834C1231.659,2081.761,1237.666,2075.365,1245.776,2074.81z"
						/>
					<g style="opacity:0.6;">
						<path style="fill:#FFFFFF;" d="M1447.25,2134.13c3.015,11.434,13.402,19.366,25.226,19.265l963.665-8.217
							c10.901-0.093,19.622-9.083,19.384-19.982c-0.232-10.596-8.863-19.079-19.461-19.128l-963.69-4.395
							C1455.363,2101.596,1442.911,2117.681,1447.25,2134.13z"/>
					</g>
					<path style="fill:#FFFFFF;" d="M1348.957,1963.393c-0.094,0-0.189,0-0.285,0l-104.152-0.999
						c-14.88-0.145-27.164-10.384-28.573-23.813l-9.155-87.387c-0.537-5.131,1.056-10.2,4.485-14.281
						c3.839-4.565,9.647-7.431,15.937-7.865l0,0c8.774-0.597,21.132-1.652,34.214-2.765c27.547-2.347,61.831-5.264,81.12-5.506
						c13.996-0.07,25.867,8.212,29.165,20.4c5.426,20.06,4.949,58.033,3.917,98.486
						C1375.295,1952.803,1363.357,1963.393,1348.957,1963.393z M1227.759,1837.03c-4.135,0.281-7.911,2.117-10.36,5.03
						c-2.021,2.401-2.962,5.35-2.653,8.298l9.155,87.387c0.984,9.388,9.882,16.546,20.697,16.651l104.152,1c0.068,0,0.139,0,0.209,0
						c10.093,0,18.45-7.111,18.676-15.937c1.016-39.839,1.502-77.172-3.643-96.197c-2.306-8.525-11.176-14.457-21.343-14.488
						c-19.002,0.238-53.124,3.144-80.542,5.479C1248.99,1835.37,1236.599,1836.424,1227.759,1837.03L1227.759,1837.03z"/>
					<path style="opacity:0.6;fill:#FFFFFF;" d="M1238.964,1846.048c21.88-1.495,69.435-6.324,91.989-6.604
						c9.557-0.119,17.939,5.655,20.18,13.942c4.353,16.095,3.776,48.176,3.021,77.786c-0.226,8.868-8.371,15.946-18.316,15.851
						l-83.231-0.8c-10.235-0.098-18.733-7.077-19.686-16.166l-7.317-69.833C1224.847,1853,1230.853,1846.603,1238.964,1846.048z"/>
					<g style="opacity:0.6;">
						<path style="fill:#FFFFFF;" d="M1440.437,1905.368c3.015,11.434,13.402,19.366,25.226,19.265l963.665-8.216
							c10.902-0.093,19.622-9.083,19.384-19.982c-0.232-10.596-8.863-19.079-19.461-19.128l-963.69-4.395
							C1448.55,1872.834,1436.099,1888.919,1440.437,1905.368z"/>
					</g>
					<path style="fill:#FFFFFF;" d="M1355.77,2415.381c-0.094,0-0.19,0-0.285,0l-104.152-1
						c-14.88-0.145-27.164-10.384-28.573-23.813l-9.155-87.388c-0.537-5.131,1.056-10.2,4.485-14.28
						c3.839-4.565,9.647-7.431,15.937-7.865l0,0c8.774-0.598,21.132-1.652,34.214-2.765c27.547-2.347,61.831-5.264,81.12-5.506
						c0.14,0,0.281-0.004,0.42-0.004c13.697,0,25.481,8.341,28.745,20.404c5.426,20.061,4.949,58.033,3.917,98.486
						C1382.107,2404.79,1370.17,2415.381,1355.77,2415.381z M1234.572,2289.017c-4.135,0.281-7.911,2.117-10.36,5.03
						c-2.021,2.402-2.962,5.35-2.653,8.298l9.155,87.387c0.984,9.388,9.882,16.546,20.697,16.651l104.152,1c0.068,0,0.139,0,0.209,0
						c10.093,0,18.45-7.111,18.676-15.936c1.016-39.84,1.502-77.172-3.643-96.198c-2.308-8.521-11.303-14.648-21.345-14.488
						c-19,0.238-53.123,3.143-80.54,5.479C1255.802,2287.357,1243.411,2288.412,1234.572,2289.017L1234.572,2289.017z"/>
					<path style="opacity:0.6;fill:#FFFFFF;" d="M1245.776,2298.036c21.88-1.496,69.435-6.323,91.989-6.605
						c9.557-0.119,17.939,5.655,20.18,13.942c4.353,16.095,3.776,48.177,3.021,77.786c-0.226,8.868-8.371,15.947-18.316,15.851
						l-83.231-0.8c-10.235-0.098-18.733-7.077-19.686-16.166l-7.317-69.834C1231.659,2304.987,1237.666,2298.59,1245.776,2298.036z"
						/>
					<g style="opacity:0.6;">
						<path style="fill:#FFFFFF;" d="M1447.25,2357.355c3.015,11.434,13.402,19.366,25.226,19.265l963.665-8.216
							c10.901-0.093,19.622-9.083,19.384-19.982c-0.232-10.596-8.863-19.079-19.461-19.127l-963.69-4.396
							C1455.363,2324.821,1442.911,2340.906,1447.25,2357.355z"/>
					</g>
					<path style="fill:#FFFFFF;" d="M1355.77,2638.606c-0.094,0-0.19,0-0.285,0l-104.152-0.999
						c-14.88-0.141-27.164-10.376-28.573-23.81l-9.155-87.387c-0.537-5.131,1.056-10.204,4.487-14.285
						c3.839-4.565,9.645-7.431,15.935-7.865l0,0c8.774-0.598,21.132-1.652,34.214-2.765c27.547-2.347,61.831-5.264,81.12-5.506
						c0.14,0,0.281-0.004,0.42-0.004c13.697,0,25.481,8.341,28.745,20.404c5.426,20.061,4.949,58.033,3.917,98.486
						C1382.107,2628.015,1370.17,2638.606,1355.77,2638.606z M1234.572,2512.242c-4.135,0.281-7.911,2.116-10.36,5.03
						c-2.021,2.402-2.962,5.35-2.653,8.302l9.155,87.387c0.984,9.388,9.882,16.546,20.695,16.647l104.154,1c0.068,0,0.139,0,0.209,0
						c10.093,0,18.45-7.111,18.676-15.937c1.016-39.839,1.502-77.172-3.643-96.197c-2.308-8.521-11.303-14.679-21.345-14.488
						c-19,0.238-53.123,3.144-80.54,5.479C1255.802,2510.583,1243.411,2511.637,1234.572,2512.242L1234.572,2512.242z"/>
					<path style="opacity:0.6;fill:#FFFFFF;" d="M1245.776,2521.261c21.88-1.496,69.435-6.324,91.989-6.605
						c9.557-0.119,17.939,5.655,20.18,13.942c4.353,16.095,3.776,48.177,3.021,77.786c-0.226,8.868-8.371,15.947-18.316,15.851
						l-83.231-0.799c-10.235-0.098-18.733-7.077-19.686-16.167l-7.317-69.834
						C1231.659,2528.213,1237.666,2521.816,1245.776,2521.261z"/>
					<g style="opacity:0.6;">
						<path style="fill:#FFFFFF;" d="M1447.25,2580.581c3.015,11.434,13.402,19.366,25.226,19.265l963.665-8.217
							c10.901-0.093,19.622-9.082,19.384-19.982c-0.232-10.596-8.863-19.079-19.461-19.127l-963.69-4.396
							C1455.363,2548.047,1442.911,2564.132,1447.25,2580.581z"/>
					</g>
					<g style="opacity:0.6;">
						<path style="fill:#FFFFFF;" d="M1851.496,2811.726L1851.496,2811.726c1.938,11.434,8.613,19.366,16.213,19.265l619.343-8.216
							c7.006-0.093,12.611-9.083,12.458-19.983c-0.149-10.596-5.696-19.079-12.508-19.127l-619.359-4.396
							C1856.71,2779.192,1848.708,2795.277,1851.496,2811.726z"/>
					</g>
				</g>
			</g>
			
				<linearGradient id="SVGID_00000026162860127624135830000018008091065696348814_" gradientUnits="userSpaceOnUse" x1="2046.3123" y1="268.9796" x2="1374.5175" y2="1152.7098">
				<stop  offset="0" style="stop-color:#2B3582"/>
				<stop  offset="1" style="stop-color:#150E42"/>
			</linearGradient>
			<path style="fill:url(#SVGID_00000026162860127624135830000018008091065696348814_);" d="M1883.362,486.99
				c-52.757-36.702-98.629-35.975-130.922-26.446c-29.458,8.692-48.55,37.132-45.748,67.717l13.926,152.004l165.715,14.707
				C1886.334,694.972,1986.826,558.968,1883.362,486.99z M1810.486,609.62c-22.821,0-41.32-18.499-41.32-41.32
				c0-22.821,18.5-41.321,41.32-41.321c22.821,0,41.321,18.5,41.321,41.321C1851.807,591.12,1833.307,609.62,1810.486,609.62z"/>
			<path style="fill:#FFFFFF;" d="M1737.172,616.323c-2.044,0-3.788-1.558-3.977-3.636l-2.218-24.207
				c-0.203-2.199,1.418-4.143,3.616-4.347c2.243-0.211,4.147,1.418,4.346,3.62l2.218,24.207c0.203,2.199-1.417,4.143-3.616,4.346
				C1737.416,616.32,1737.293,616.323,1737.172,616.323z M1732.826,568.885c-2.044,0-3.787-1.558-3.977-3.636l-1.685-18.377
				c-2.671-29.136,15.663-56.265,43.591-64.508c19.779-5.838,40.158-6.674,60.565-2.487c2.163,0.441,3.557,2.558,3.114,4.721
				c-0.443,2.16-2.54,3.542-4.719,3.112c-19.117-3.913-38.189-3.136-56.698,2.324c-24.276,7.166-40.212,30.764-37.891,56.112
				l1.685,18.377c0.203,2.199-1.417,4.144-3.616,4.347C1733.07,568.881,1732.947,568.885,1732.826,568.885z"/>
			
				<linearGradient id="SVGID_00000133516159732447352870000004867134880471817866_" gradientUnits="userSpaceOnUse" x1="2120.0029" y1="324.996" x2="1448.2076" y2="1208.7271">
				<stop  offset="0" style="stop-color:#2B3582"/>
				<stop  offset="1" style="stop-color:#150E42"/>
			</linearGradient>
			<path style="fill:url(#SVGID_00000133516159732447352870000004867134880471817866_);" d="M1494.447,778.497v-76.423
				c0-26.381,21.865-47.51,48.231-46.607l526.901,18.053c23.383,0.801,42.32,19.258,43.721,42.614l4.403,73.431L1494.447,778.497z"
				/>
			<path style="fill:#FFFFFF;" d="M1690.915,684.263h-22.659c-2.208,0-3.999-1.788-3.999-3.998c0-2.211,1.79-3.999,3.999-3.999
				h22.659c2.208,0,3.999,1.788,3.999,3.999C1694.914,682.475,1693.123,684.263,1690.915,684.263z"/>
			<path style="fill:#FFFFFF;" d="M1522.966,754.5c-2.208,0-3.999-1.788-3.999-3.999v-30.916c0-23.887,19.433-43.319,43.321-43.319
				h83.307c2.208,0,3.999,1.788,3.999,3.999c0,2.21-1.79,3.998-3.999,3.998h-83.307c-19.477,0-35.323,15.847-35.323,35.322v30.916
				C1526.965,752.712,1525.174,754.5,1522.966,754.5z"/>
			
				<linearGradient id="SVGID_00000064347521527244804930000012772223489250717598_" gradientUnits="userSpaceOnUse" x1="2035.3451" y1="379.0528" x2="1571.4847" y2="1230.7946">
				<stop  offset="0" style="stop-color:#53D8FF"/>
				<stop  offset="1" style="stop-color:#3840F7"/>
			</linearGradient>
			<path style="fill:url(#SVGID_00000064347521527244804930000012772223489250717598_);" d="M1279.756,797.795
				c1.272-26.464,23.098-47.267,49.593-47.268l921.386-0.025c33.131-0.001,61.455,23.841,67.106,56.486l0.78,4.505
				c6.19,35.757-21.34,68.461-57.629,68.461h-945.288c-21.717,0-39.024-18.158-37.981-39.851L1279.756,797.795z"/>
			
				<linearGradient id="SVGID_00000137850354498934075850000003358807387634475455_" gradientUnits="userSpaceOnUse" x1="1905.4097" y1="2666.6047" x2="2503.6431" y2="2666.6047">
				<stop  offset="0" style="stop-color:#2B3582"/>
				<stop  offset="1" style="stop-color:#150E42"/>
			</linearGradient>
			<path style="fill:url(#SVGID_00000137850354498934075850000003358807387634475455_);" d="M2060.475,2973.493
				c-10.096,0-20.296-4.859-31.143-14.826c-42.331-38.886-52.22-99.637-54.694-156.581c-20.332,22.903-41.216,45.158-61.85,67.145
				l-7.379-6.924c22.981-24.488,46.269-49.308,68.734-74.965c-1.891-76.569,1.621-153.972,10.439-230.06
				c5.373-46.356,13.109-95.414,33.162-140.074c6.32-14.079,16.793-34.245,34.691-46.762c18.399-12.86,42.456-14.309,58.501-3.534
				c18.124,12.181,23.05,35.592,25.178,52.141c12.76,99.252-26.011,190.298-60.783,249.198
				c-26.01,44.061-57.551,84.399-90.967,122.774c1.678,57.806,9.554,121.371,51.813,160.191
				c9.195,8.449,17.392,12.461,25.069,12.145c12.682-0.458,22.594-12.267,30.616-23.76c35.18-50.388,62.54-105.039,81.649-163.001
				c2.181-17.188,6.973-34.05,14.284-49.786l9.505,3.327c-4,16.467-8.629,32.709-13.874,48.702
				c-2.009,16.651-1.412,33.619,1.887,50.085c1.792,8.943,9.375,38.458,31.708,42.71c16.808,3.192,33.401-8.601,52.19-37.16
				l66.588-101.221l-6.402,27.574c-3.417,14.721-9.059,49.911,12.318,58.706c12.255,5.033,25.186-2.237,38.873-9.945
				c13.349-7.514,27.141-15.268,42.457-13.259l5.213,0.695l-0.894,5.181c-3.52,20.406-1.775,45.533,14.731,49.183
				c10.802,2.411,19.665-5.801,29.923-15.281c8.7-8.044,17.697-16.365,29.243-19.158l2.382,9.836
				c-8.989,2.174-17.004,9.585-24.755,16.75c-11.307,10.458-22.999,21.266-38.978,17.735c-21.745-4.813-26.382-30.651-23.358-55.109
				c-10.197,0.531-20.344,6.242-30.997,12.244c-15.184,8.551-30.881,17.386-47.689,10.485
				c-15.539-6.394-23.058-23.167-21.765-47.279l-38.436,58.422c-13.415,20.393-34.49,46.897-62.537,41.541
				c-19.26-3.669-34.115-22.61-39.736-50.662c-1.423-7.102-2.373-14.289-2.859-21.507c-18.474,47.944-42.682,93.458-72.373,135.98
				c-9.452,13.539-21.423,27.462-38.548,28.082C2061.235,2973.486,2060.854,2973.493,2060.475,2973.493z M2085.803,2369.773
				c-9.243,0-19.087,3.037-27.567,8.966c-15.846,11.081-25.43,29.626-31.259,42.611c-19.492,43.408-27.064,91.544-32.341,137.097
				c-8.337,71.928-11.903,145.035-10.613,217.487c30.367-35.463,58.87-72.636,82.597-112.83
				c33.965-57.536,71.852-146.356,59.458-242.762c-2.983-23.196-9.587-37.509-20.785-45.032
				C2099.768,2371.598,2092.966,2369.773,2085.803,2369.773z"/>
		</g>
		<g>
			
				<linearGradient id="SVGID_00000146498494094922696990000016957369152106813846_" gradientUnits="userSpaceOnUse" x1="2639.7102" y1="723.4459" x2="2539.8152" y2="1706.8615">
				<stop  offset="0" style="stop-color:#A737D5"/>
				<stop  offset="1" style="stop-color:#EF497A"/>
			</linearGradient>
			<path style="fill:url(#SVGID_00000146498494094922696990000016957369152106813846_);" d="M2967.189,1291.73h-705.08
				c-9.255,0-16.757-7.502-16.757-16.757V664.488h738.594v610.485C2983.946,1284.228,2976.444,1291.73,2967.189,1291.73z"/>
			
				<linearGradient id="SVGID_00000155856335789718112070000001499643892995096707_" gradientUnits="userSpaceOnUse" x1="2245.3518" y1="938.5048" x2="2983.9463" y2="938.5048">
				<stop  offset="0" style="stop-color:#B37CFF"/>
				<stop  offset="1" style="stop-color:#F895E7"/>
			</linearGradient>
			<path style="fill:url(#SVGID_00000155856335789718112070000001499643892995096707_);" d="M2967.189,1214.199h-705.08
				c-9.255,0-16.757-7.503-16.757-16.757V662.811h738.594v534.631C2983.946,1206.696,2976.444,1214.199,2967.189,1214.199z"/>
			<g>
				
					<linearGradient id="SVGID_00000085945998218634112480000008918308716373773703_" gradientUnits="userSpaceOnUse" x1="2288.8672" y1="734.8209" x2="2406.999" y2="469.8524">
					<stop  offset="0" style="stop-color:#A737D5"/>
					<stop  offset="1" style="stop-color:#EF497A"/>
				</linearGradient>
				
					<rect x="2287.872" y="686.921" style="fill:url(#SVGID_00000085945998218634112480000008918308716373773703_);" width="25.429" height="43.229"/>
				
					<linearGradient id="SVGID_00000009549324008029544680000002423649806202438310_" gradientUnits="userSpaceOnUse" x1="2336.595" y1="756.0995" x2="2454.7268" y2="491.1311">
					<stop  offset="0" style="stop-color:#A737D5"/>
					<stop  offset="1" style="stop-color:#EF497A"/>
				</linearGradient>
				
					<rect x="2345.086" y="686.921" style="fill:url(#SVGID_00000009549324008029544680000002423649806202438310_);" width="25.429" height="43.229"/>
				
					<linearGradient id="SVGID_00000083082081471596056610000000783891847315753658_" gradientUnits="userSpaceOnUse" x1="2378.7546" y1="774.8957" x2="2496.8865" y2="509.9273">
					<stop  offset="0" style="stop-color:#A737D5"/>
					<stop  offset="1" style="stop-color:#EF497A"/>
				</linearGradient>
				
					<rect x="2395.626" y="686.921" style="fill:url(#SVGID_00000083082081471596056610000000783891847315753658_);" width="25.429" height="43.229"/>
				
					<linearGradient id="SVGID_00000165948928193289249560000016445400635735656848_" gradientUnits="userSpaceOnUse" x1="2426.4824" y1="796.1742" x2="2544.6143" y2="531.2058">
					<stop  offset="0" style="stop-color:#A737D5"/>
					<stop  offset="1" style="stop-color:#EF497A"/>
				</linearGradient>
				
					<rect x="2452.84" y="686.921" style="fill:url(#SVGID_00000165948928193289249560000016445400635735656848_);" width="25.429" height="43.229"/>
				
					<linearGradient id="SVGID_00000105417143412864832740000016546433867129299601_" gradientUnits="userSpaceOnUse" x1="2468.6421" y1="814.9705" x2="2586.7737" y2="550.0021">
					<stop  offset="0" style="stop-color:#A737D5"/>
					<stop  offset="1" style="stop-color:#EF497A"/>
				</linearGradient>
				
					<rect x="2503.38" y="686.921" style="fill:url(#SVGID_00000105417143412864832740000016546433867129299601_);" width="25.429" height="43.229"/>
				
					<linearGradient id="SVGID_00000108294389267719276840000006626597958044730521_" gradientUnits="userSpaceOnUse" x1="2516.3699" y1="836.2494" x2="2634.5015" y2="571.2809">
					<stop  offset="0" style="stop-color:#A737D5"/>
					<stop  offset="1" style="stop-color:#EF497A"/>
				</linearGradient>
				
					<rect x="2560.594" y="686.921" style="fill:url(#SVGID_00000108294389267719276840000006626597958044730521_);" width="25.429" height="43.229"/>
				
					<linearGradient id="SVGID_00000124875174199167053740000011084760200351416976_" gradientUnits="userSpaceOnUse" x1="2558.5295" y1="855.0452" x2="2676.6611" y2="590.0768">
					<stop  offset="0" style="stop-color:#A737D5"/>
					<stop  offset="1" style="stop-color:#EF497A"/>
				</linearGradient>
				
					<rect x="2611.134" y="686.921" style="fill:url(#SVGID_00000124875174199167053740000011084760200351416976_);" width="25.429" height="43.229"/>
				
					<linearGradient id="SVGID_00000082359390855553263430000014325091985405527720_" gradientUnits="userSpaceOnUse" x1="2606.2573" y1="876.3241" x2="2724.3889" y2="611.3557">
					<stop  offset="0" style="stop-color:#A737D5"/>
					<stop  offset="1" style="stop-color:#EF497A"/>
				</linearGradient>
				
					<rect x="2668.348" y="686.921" style="fill:url(#SVGID_00000082359390855553263430000014325091985405527720_);" width="25.429" height="43.229"/>
				
					<linearGradient id="SVGID_00000071537213304848899590000015410049439642134197_" gradientUnits="userSpaceOnUse" x1="2648.4167" y1="895.1204" x2="2766.5483" y2="630.152">
					<stop  offset="0" style="stop-color:#A737D5"/>
					<stop  offset="1" style="stop-color:#EF497A"/>
				</linearGradient>
				
					<rect x="2718.888" y="686.921" style="fill:url(#SVGID_00000071537213304848899590000015410049439642134197_);" width="25.429" height="43.229"/>
				
					<linearGradient id="SVGID_00000122711499808297027290000013643135396698318722_" gradientUnits="userSpaceOnUse" x1="2696.1448" y1="916.3988" x2="2814.2764" y2="651.4304">
					<stop  offset="0" style="stop-color:#A737D5"/>
					<stop  offset="1" style="stop-color:#EF497A"/>
				</linearGradient>
				
					<rect x="2776.103" y="686.921" style="fill:url(#SVGID_00000122711499808297027290000013643135396698318722_);" width="25.429" height="43.229"/>
				
					<linearGradient id="SVGID_00000020363257664688154820000004551665371355944590_" gradientUnits="userSpaceOnUse" x1="2738.3042" y1="935.1951" x2="2856.4358" y2="670.2266">
					<stop  offset="0" style="stop-color:#A737D5"/>
					<stop  offset="1" style="stop-color:#EF497A"/>
				</linearGradient>
				
					<rect x="2826.642" y="686.921" style="fill:url(#SVGID_00000020363257664688154820000004551665371355944590_);" width="25.429" height="43.229"/>
				
					<linearGradient id="SVGID_00000149363871068135503430000010743977501618078631_" gradientUnits="userSpaceOnUse" x1="2786.032" y1="956.4734" x2="2904.1638" y2="691.5051">
					<stop  offset="0" style="stop-color:#A737D5"/>
					<stop  offset="1" style="stop-color:#EF497A"/>
				</linearGradient>
				
					<rect x="2883.857" y="686.921" style="fill:url(#SVGID_00000149363871068135503430000010743977501618078631_);" width="25.429" height="43.229"/>
			</g>
			<g>
				<g>
					<rect x="2574.072" y="752.519" style="fill:#FFFFFF;" width="76.751" height="76.751"/>
					<rect x="2667.35" y="752.519" style="fill:#FFFFFF;" width="76.751" height="76.751"/>
					<rect x="2759.679" y="752.519" style="fill:#FFFFFF;" width="76.751" height="76.751"/>
					<rect x="2851.248" y="752.519" style="fill:#FFFFFF;" width="76.751" height="76.751"/>
				</g>
				<g>
					<rect x="2296.99" y="849.027" style="fill:#FFFFFF;" width="76.751" height="76.751"/>
					<rect x="2389.319" y="849.027" style="fill:#FFFFFF;" width="76.751" height="76.751"/>
					<rect x="2480.888" y="849.027" style="fill:#FFFFFF;" width="76.751" height="76.751"/>
					<rect x="2573.977" y="849.027" style="fill:#FFFFFF;" width="76.751" height="76.751"/>
					<rect x="2667.255" y="849.027" style="fill:#FFFFFF;" width="76.751" height="76.751"/>
					<rect x="2759.584" y="849.027" style="fill:#FFFFFF;" width="76.751" height="76.751"/>
					<rect x="2851.153" y="849.027" style="fill:#FFFFFF;" width="76.751" height="76.751"/>
				</g>
				<g>
					<rect x="2299.27" y="940.976" style="fill:#FFFFFF;" width="76.751" height="76.751"/>
					<rect x="2391.599" y="940.976" style="fill:#FFFFFF;" width="76.751" height="76.751"/>
					
						<linearGradient id="SVGID_00000040545163814762048020000017904545892306187962_" gradientUnits="userSpaceOnUse" x1="1583.8536" y1="286.6441" x2="2527.7417" y2="983.9304">
						<stop  offset="0" style="stop-color:#FDF53F"/>
						<stop  offset="0.6645" style="stop-color:#E57A58"/>
						<stop  offset="1" style="stop-color:#D93C65"/>
					</linearGradient>
					
						<rect x="2483.168" y="940.976" style="fill:url(#SVGID_00000040545163814762048020000017904545892306187962_);" width="76.751" height="76.751"/>
					<rect x="2576.256" y="940.976" style="fill:#FFFFFF;" width="76.751" height="76.751"/>
					<rect x="2669.535" y="940.976" style="fill:#FFFFFF;" width="76.751" height="76.751"/>
					<rect x="2761.863" y="940.976" style="fill:#FFFFFF;" width="76.751" height="76.751"/>
					<rect x="2853.432" y="940.976" style="fill:#FFFFFF;" width="76.751" height="76.751"/>
				</g>
				<g>
					<rect x="2301.55" y="1031.785" style="fill:#FFFFFF;" width="76.751" height="76.751"/>
					<rect x="2393.879" y="1031.785" style="fill:#FFFFFF;" width="76.751" height="76.751"/>
					<rect x="2485.448" y="1031.785" style="fill:#FFFFFF;" width="76.751" height="76.751"/>
					<rect x="2578.536" y="1031.785" style="fill:#FFFFFF;" width="76.751" height="76.751"/>
					<rect x="2671.814" y="1031.785" style="fill:#FFFFFF;" width="76.751" height="76.751"/>
					<rect x="2764.143" y="1031.785" style="fill:#FFFFFF;" width="76.751" height="76.751"/>
					<rect x="2855.712" y="1031.785" style="fill:#FFFFFF;" width="76.751" height="76.751"/>
				</g>
				<g>
					<rect x="2301.55" y="1122.389" style="fill:#FFFFFF;" width="76.751" height="76.751"/>
					<rect x="2393.879" y="1122.389" style="fill:#FFFFFF;" width="76.751" height="76.751"/>
					<rect x="2485.448" y="1122.389" style="fill:#FFFFFF;" width="76.751" height="76.751"/>
				</g>
			</g>
			<g>
				
					<linearGradient id="SVGID_00000177469129772707585250000013784860328256417442_" gradientUnits="userSpaceOnUse" x1="3076.0825" y1="612.7055" x2="1800.5626" y2="714.7466">
					<stop  offset="0" style="stop-color:#FDF53F"/>
					<stop  offset="0.6645" style="stop-color:#E57A58"/>
					<stop  offset="1" style="stop-color:#D93C65"/>
				</linearGradient>
				<path style="fill:url(#SVGID_00000177469129772707585250000013784860328256417442_);" d="M2338.077,652.512h-32.649
					c-7.517,0-13.667,6.15-13.667,13.667v30.371h9.87v-19.741c0-7.517,6.15-13.667,13.667-13.667h32.649
					c1.227,0,2.413,0.179,3.547,0.487C2350.291,657.321,2344.722,652.512,2338.077,652.512z"/>
				
					<linearGradient id="SVGID_00000131337821959139747400000008267522464807190660_" gradientUnits="userSpaceOnUse" x1="3076.4861" y1="617.7474" x2="1800.9663" y2="719.7886">
					<stop  offset="0" style="stop-color:#FDF53F"/>
					<stop  offset="0.6645" style="stop-color:#E57A58"/>
					<stop  offset="1" style="stop-color:#D93C65"/>
				</linearGradient>
				<path style="fill:url(#SVGID_00000131337821959139747400000008267522464807190660_);" d="M2401.506,652.512h-32.649
					c-7.517,0-13.667,6.15-13.667,13.667v30.371h9.87v-19.741c0-7.517,6.15-13.667,13.667-13.667h32.649
					c1.227,0,2.413,0.179,3.547,0.487C2413.719,657.321,2408.151,652.512,2401.506,652.512z"/>
				
					<linearGradient id="SVGID_00000172422042926429082120000005762223068868353702_" gradientUnits="userSpaceOnUse" x1="3076.8196" y1="621.9382" x2="1801.2996" y2="723.9793">
					<stop  offset="0" style="stop-color:#FDF53F"/>
					<stop  offset="0.6645" style="stop-color:#E57A58"/>
					<stop  offset="1" style="stop-color:#D93C65"/>
				</linearGradient>
				<path style="fill:url(#SVGID_00000172422042926429082120000005762223068868353702_);" d="M2454.224,652.512h-32.649
					c-7.517,0-13.667,6.15-13.667,13.667v30.371h9.87v-19.741c0-7.517,6.15-13.667,13.667-13.667h32.649
					c1.227,0,2.413,0.179,3.547,0.487C2466.438,657.321,2460.869,652.512,2454.224,652.512z"/>
				
					<linearGradient id="SVGID_00000125560852731450478040000011158683502440830884_" gradientUnits="userSpaceOnUse" x1="3077.166" y1="626.2552" x2="1801.6442" y2="728.2965">
					<stop  offset="0" style="stop-color:#FDF53F"/>
					<stop  offset="0.6645" style="stop-color:#E57A58"/>
					<stop  offset="1" style="stop-color:#D93C65"/>
				</linearGradient>
				<path style="fill:url(#SVGID_00000125560852731450478040000011158683502440830884_);" d="M2508.533,652.512h-32.649
					c-7.517,0-13.667,6.15-13.667,13.667v30.371h9.87v-19.741c0-7.517,6.15-13.667,13.667-13.667h32.649
					c1.227,0,2.413,0.179,3.547,0.487C2520.747,657.321,2515.178,652.512,2508.533,652.512z"/>
				
					<linearGradient id="SVGID_00000040566332065106439660000001424067313343978884_" gradientUnits="userSpaceOnUse" x1="3077.4844" y1="630.2463" x2="1801.9644" y2="732.2874">
					<stop  offset="0" style="stop-color:#FDF53F"/>
					<stop  offset="0.6645" style="stop-color:#E57A58"/>
					<stop  offset="1" style="stop-color:#D93C65"/>
				</linearGradient>
				<path style="fill:url(#SVGID_00000040566332065106439660000001424067313343978884_);" d="M2558.74,652.512h-32.649
					c-7.517,0-13.667,6.15-13.667,13.667v30.371h9.87v-19.741c0-7.517,6.15-13.667,13.667-13.667h32.649
					c1.227,0,2.413,0.179,3.548,0.487C2570.954,657.321,2565.385,652.512,2558.74,652.512z"/>
				
					<linearGradient id="SVGID_00000026882473039617428310000009866030177027214248_" gradientUnits="userSpaceOnUse" x1="3077.8308" y1="634.5633" x2="1802.3087" y2="736.6046">
					<stop  offset="0" style="stop-color:#FDF53F"/>
					<stop  offset="0.6645" style="stop-color:#E57A58"/>
					<stop  offset="1" style="stop-color:#D93C65"/>
				</linearGradient>
				<path style="fill:url(#SVGID_00000026882473039617428310000009866030177027214248_);" d="M2613.049,652.512H2580.4
					c-7.517,0-13.667,6.15-13.667,13.667v30.371h9.871v-19.741c0-7.517,6.15-13.667,13.667-13.667h32.649
					c1.227,0,2.413,0.179,3.547,0.487C2625.263,657.321,2619.694,652.512,2613.049,652.512z"/>
				
					<linearGradient id="SVGID_00000054967966196968189850000018007516811396324749_" gradientUnits="userSpaceOnUse" x1="3078.1658" y1="638.7539" x2="1802.6438" y2="740.7952">
					<stop  offset="0" style="stop-color:#FDF53F"/>
					<stop  offset="0.6645" style="stop-color:#E57A58"/>
					<stop  offset="1" style="stop-color:#D93C65"/>
				</linearGradient>
				<path style="fill:url(#SVGID_00000054967966196968189850000018007516811396324749_);" d="M2665.767,652.512h-32.649
					c-7.517,0-13.667,6.15-13.667,13.667v30.371h9.87v-19.741c0-7.517,6.15-13.667,13.667-13.667h32.649
					c1.227,0,2.413,0.179,3.548,0.487C2677.981,657.321,2672.412,652.512,2665.767,652.512z"/>
				
					<linearGradient id="SVGID_00000181083701716579567910000015061099955225058237_" gradientUnits="userSpaceOnUse" x1="3078.5396" y1="643.4335" x2="1803.0195" y2="745.4746">
					<stop  offset="0" style="stop-color:#FDF53F"/>
					<stop  offset="0.6645" style="stop-color:#E57A58"/>
					<stop  offset="1" style="stop-color:#D93C65"/>
				</linearGradient>
				<path style="fill:url(#SVGID_00000181083701716579567910000015061099955225058237_);" d="M2724.636,652.512h-32.648
					c-7.517,0-13.667,6.15-13.667,13.667v30.371h9.87v-19.741c0-7.517,6.15-13.667,13.667-13.667h32.649
					c1.227,0,2.413,0.179,3.547,0.487C2736.85,657.321,2731.281,652.512,2724.636,652.512z"/>
				
					<linearGradient id="SVGID_00000026163379274045842740000002243662225096844203_" gradientUnits="userSpaceOnUse" x1="3078.8235" y1="646.9851" x2="1803.3036" y2="749.0262">
					<stop  offset="0" style="stop-color:#FDF53F"/>
					<stop  offset="0.6645" style="stop-color:#E57A58"/>
					<stop  offset="1" style="stop-color:#D93C65"/>
				</linearGradient>
				<path style="fill:url(#SVGID_00000026163379274045842740000002243662225096844203_);" d="M2775.398,652.026h-32.649
					c-7.517,0-13.667,6.15-13.667,13.667v30.371h9.87v-19.741c0-7.517,6.15-13.667,13.667-13.667h32.649
					c1.227,0,2.413,0.179,3.547,0.487C2787.612,656.834,2782.043,652.026,2775.398,652.026z"/>
				
					<linearGradient id="SVGID_00000059311476690354579820000015912333141314345859_" gradientUnits="userSpaceOnUse" x1="3079.1587" y1="651.1757" x2="1803.6388" y2="753.2169">
					<stop  offset="0" style="stop-color:#FDF53F"/>
					<stop  offset="0.6645" style="stop-color:#E57A58"/>
					<stop  offset="1" style="stop-color:#D93C65"/>
				</linearGradient>
				<path style="fill:url(#SVGID_00000059311476690354579820000015912333141314345859_);" d="M2828.116,652.026h-32.649
					c-7.517,0-13.667,6.15-13.667,13.667v30.371h9.87v-19.741c0-7.517,6.15-13.667,13.667-13.667h32.649
					c1.227,0,2.413,0.179,3.547,0.487C2840.33,656.834,2834.761,652.026,2828.116,652.026z"/>
				
					<linearGradient id="SVGID_00000106126077200787477030000017884801952164302751_" gradientUnits="userSpaceOnUse" x1="3079.9211" y1="660.7013" x2="1804.399" y2="762.7426">
					<stop  offset="0" style="stop-color:#FDF53F"/>
					<stop  offset="0.6645" style="stop-color:#E57A58"/>
					<stop  offset="1" style="stop-color:#D93C65"/>
				</linearGradient>
				<path style="fill:url(#SVGID_00000106126077200787477030000017884801952164302751_);" d="M2932.523,653.26h-32.649
					c-7.517,0-13.667,6.15-13.667,13.667v30.371h9.871v-19.741c0-7.517,6.15-13.667,13.667-13.667h32.649
					c1.227,0,2.413,0.179,3.547,0.487C2944.736,658.069,2939.167,653.26,2932.523,653.26z"/>
				
					<linearGradient id="SVGID_00000023987197212453456820000005260702688852284082_" gradientUnits="userSpaceOnUse" x1="3079.5339" y1="655.8552" x2="1804.012" y2="757.8965">
					<stop  offset="0" style="stop-color:#FDF53F"/>
					<stop  offset="0.6645" style="stop-color:#E57A58"/>
					<stop  offset="1" style="stop-color:#D93C65"/>
				</linearGradient>
				<path style="fill:url(#SVGID_00000023987197212453456820000005260702688852284082_);" d="M2886.985,652.026h-32.649
					c-7.517,0-13.667,6.15-13.667,13.667v30.371h9.87v-19.741c0-7.517,6.15-13.667,13.667-13.667h32.649
					c1.227,0,2.413,0.179,3.547,0.487C2899.199,656.834,2893.63,652.026,2886.985,652.026z"/>
			</g>
		</g>
		<g>
			<g>
				
					<linearGradient id="SVGID_00000147934245857743770890000007382543202225269407_" gradientUnits="userSpaceOnUse" x1="2117.1907" y1="1812.8662" x2="2282.1646" y2="1621.379" gradientTransform="matrix(0.9651 -0.2618 0.2618 0.9651 -1163.5303 186.1516)">
					<stop  offset="0" style="stop-color:#FDF53F"/>
					<stop  offset="1" style="stop-color:#D93C65"/>
				</linearGradient>
				
					<circle style="fill:url(#SVGID_00000147934245857743770890000007382543202225269407_);" cx="1465.667" cy="1148.869" r="122.991"/>
				
					<linearGradient id="SVGID_00000166641484038997990040000007423682424826848904_" gradientUnits="userSpaceOnUse" x1="2375.3853" y1="1481.7152" x2="1887.5536" y2="2218.6899" gradientTransform="matrix(0.9651 -0.2618 0.2618 0.9651 -1163.5303 186.1516)">
					<stop  offset="0" style="stop-color:#FDF53F"/>
					<stop  offset="1" style="stop-color:#D93C65"/>
				</linearGradient>
				
					<circle style="fill:url(#SVGID_00000166641484038997990040000007423682424826848904_);" cx="1465.667" cy="1148.869" r="118.902"/>
				<path style="fill:#FFFFFF;" d="M1359.148,1130.709c-0.581,0.158-1.207,0.186-1.838,0.056c-2.152-0.442-3.537-2.545-3.094-4.693
					c8.694-42.339,39.989-75.662,81.672-86.97c6.652-1.805,13.476-3.012,20.282-3.591c2.186-0.186,4.111,1.436,4.298,3.622
					c0.188,2.19-1.421,4.127-3.625,4.298c-6.329,0.542-12.679,1.666-18.872,3.346c-38.77,10.517-67.878,41.512-75.967,80.891
					C1361.693,1129.19,1360.551,1130.328,1359.148,1130.709z"/>
				
					<ellipse transform="matrix(0.7071 -0.7071 0.7071 0.7071 -383.4465 1375.6603)" style="opacity:0.78;fill:#FFFFFF;" cx="1468.846" cy="1150.691" rx="100.636" ry="100.636"/>
				<g>
					
						<linearGradient id="SVGID_00000023281367036661608380000004674363725209813415_" gradientUnits="userSpaceOnUse" x1="2360.8325" y1="1502.8329" x2="2101.0742" y2="1938.9241" gradientTransform="matrix(0.9651 -0.2618 0.2618 0.9651 -1163.5303 186.1516)">
						<stop  offset="0" style="stop-color:#FDF53F"/>
						<stop  offset="1" style="stop-color:#D93C65"/>
					</linearGradient>
					<path style="fill:url(#SVGID_00000023281367036661608380000004674363725209813415_);" d="M1478.902,1225.48l-2.866-10.566
						c-11.135,2.547-22.736,2.903-31.393,1.615c-3.092-0.46-5.341-3.179-5.337-6.304l0.014-10.571c0.005-3.878,3.425-6.811,7.27-6.3
						c8.55,1.136,18.718,1.11,28.939-1.663c10.61-2.878,17.547-8.621,15.546-15.995c-1.805-6.653-8.992-8.95-24.811-8.906
						c-22.601-0.047-40.195-5.12-45.219-23.643c-4.537-16.725,4.228-32.81,24.521-41.982l-2.867-10.568
						c-0.922-3.4,1.086-6.905,4.486-7.827l6.208-1.684c3.4-0.922,6.905,1.087,7.827,4.487l2.574,9.488
						c10.304-2.357,18.196-2.627,24.646-2.156c3.304,0.241,5.835,3.044,5.835,6.358l0.001,9.772c0,3.768-3.23,6.709-6.98,6.345
						c-5.978-0.579-14.222-0.635-24.185,2.068c-12.589,3.415-14.77,9.605-13.501,14.281c1.561,5.754,10.187,7.661,27.918,8.258
						c25.28,0.671,37.625,7.747,42.357,25.191c4.342,16.005-3.624,33.611-25.667,43.452l3.208,11.825
						c0.922,3.401-1.086,6.904-4.486,7.827l-6.209,1.684C1483.329,1230.889,1479.824,1228.881,1478.902,1225.48z"/>
				</g>
			</g>
			<g>
				
					<linearGradient id="SVGID_00000127028333713847224310000015729840033670843810_" gradientUnits="userSpaceOnUse" x1="2342.6082" y1="1811.7299" x2="2629.7988" y2="1478.3839" gradientTransform="matrix(0.9651 -0.2618 0.2618 0.9651 -1163.5303 186.1516)">
					<stop  offset="0" style="stop-color:#FDF53F"/>
					<stop  offset="1" style="stop-color:#D93C65"/>
				</linearGradient>
				
					<circle style="fill:url(#SVGID_00000127028333713847224310000015729840033670843810_);" cx="1765.365" cy="916.442" r="214.107"/>
				
					<linearGradient id="SVGID_00000082340484606699377150000009286945903608837761_" gradientUnits="userSpaceOnUse" x1="2792.0803" y1="1235.2534" x2="1942.8496" y2="2518.1992" gradientTransform="matrix(0.9651 -0.2618 0.2618 0.9651 -1163.5303 186.1516)">
					<stop  offset="0" style="stop-color:#FDF53F"/>
					<stop  offset="1" style="stop-color:#D93C65"/>
				</linearGradient>
				
					<circle style="fill:url(#SVGID_00000082340484606699377150000009286945903608837761_);" cx="1765.365" cy="916.442" r="206.987"/>
				<path style="fill:#FFFFFF;" d="M1579.166,881.985c-0.581,0.158-1.207,0.186-1.838,0.056c-2.152-0.442-3.537-2.545-3.094-4.693
					c14.911-72.609,68.579-129.76,140.064-149.153c11.408-3.095,23.111-5.167,34.785-6.153c2.188-0.187,4.113,1.435,4.299,3.626
					c0.185,2.187-1.429,4.134-3.627,4.295c-11.199,0.95-22.428,2.938-33.375,5.907c-68.571,18.602-120.053,73.426-134.359,143.074
					C1581.71,880.465,1580.569,881.604,1579.166,881.985z"/>
				
					<ellipse transform="matrix(0.7071 -0.7071 0.7071 0.7071 -131.5805 1521.5631)" style="opacity:0.78;fill:#FFFFFF;" cx="1770.899" cy="919.613" rx="175.189" ry="175.189"/>
				<g>
					
						<linearGradient id="SVGID_00000101104560074651815620000002004920146723668660_" gradientUnits="userSpaceOnUse" x1="2766.7466" y1="1272.0149" x2="2314.551" y2="2031.1763" gradientTransform="matrix(0.9651 -0.2618 0.2618 0.9651 -1163.5303 186.1516)">
						<stop  offset="0" style="stop-color:#FDF53F"/>
						<stop  offset="1" style="stop-color:#D93C65"/>
					</linearGradient>
					<path style="fill:url(#SVGID_00000101104560074651815620000002004920146723668660_);" d="M1788.405,1049.809l-4.99-18.395
						c-19.384,4.434-39.579,5.054-54.65,2.812c-5.382-0.801-9.298-5.534-9.291-10.976l0.025-18.402
						c0.009-6.751,5.963-11.856,12.655-10.967c14.883,1.977,32.585,1.932,50.377-2.894c18.47-5.011,30.545-15.009,27.064-27.844
						c-3.142-11.582-15.654-15.581-43.193-15.504c-39.344-0.082-69.972-8.914-78.719-41.158
						c-7.898-29.115,7.36-57.116,42.686-73.084L1725.379,815c-1.606-5.919,1.891-12.02,7.81-13.626l10.808-2.932
						c5.92-1.606,12.02,1.891,13.626,7.81l4.481,16.517c17.937-4.103,31.676-4.573,42.904-3.752
						c5.753,0.42,10.157,5.299,10.158,11.067l0.001,17.013c0.001,6.56-5.622,11.679-12.152,11.046
						c-10.406-1.009-24.757-1.105-42.101,3.6c-21.914,5.945-25.711,16.721-23.503,24.861c2.718,10.017,17.733,13.337,48.598,14.376
						c44.009,1.168,65.499,13.487,73.737,43.853c7.558,27.862-6.309,58.51-44.68,75.642l5.585,20.586
						c1.606,5.92-1.891,12.02-7.81,13.626l-10.809,2.932C1796.112,1059.226,1790.011,1055.729,1788.405,1049.809z"/>
				</g>
			</g>
			<g>
				
					<linearGradient id="SVGID_00000011737082458865522070000010622518802414495622_" gradientUnits="userSpaceOnUse" x1="2481.7854" y1="2299.8154" x2="2777.301" y2="1956.8066" gradientTransform="matrix(0.9651 -0.2618 0.2618 0.9651 -1163.5303 186.1516)">
					<stop  offset="0" style="stop-color:#FDF53F"/>
					<stop  offset="1" style="stop-color:#D93C65"/>
				</linearGradient>
				
					<circle style="fill:url(#SVGID_00000011737082458865522070000010622518802414495622_);" cx="2033.082" cy="1339.319" r="220.313"/>
				
					<linearGradient id="SVGID_00000178186488138288446420000015003175957606105270_" gradientUnits="userSpaceOnUse" x1="2944.2866" y1="1706.6281" x2="2070.4387" y2="3026.7629" gradientTransform="matrix(0.9651 -0.2618 0.2618 0.9651 -1163.5303 186.1516)">
					<stop  offset="0" style="stop-color:#FDF53F"/>
					<stop  offset="1" style="stop-color:#D93C65"/>
				</linearGradient>
				
					<circle style="fill:url(#SVGID_00000178186488138288446420000015003175957606105270_);" cx="2033.082" cy="1339.319" r="212.988"/>
				<path style="fill:#FFFFFF;" d="M1841.454,1303.752c-0.581,0.158-1.207,0.186-1.838,0.056c-2.152-0.442-3.537-2.545-3.094-4.693
					c15.333-74.67,70.526-133.442,144.042-153.386c11.73-3.182,23.766-5.313,35.774-6.329c2.188-0.187,4.113,1.435,4.299,3.625
					c0.185,2.187-1.419,4.119-3.627,4.295c-11.533,0.98-23.095,3.026-34.364,6.083c-70.602,19.153-123.608,75.598-138.336,147.307
					C1844,1302.233,1842.858,1303.371,1841.454,1303.752z"/>
				<circle style="opacity:0.78;fill:#FFFFFF;" cx="2038.776" cy="1342.583" r="180.268"/>
				<g>
					
						<linearGradient id="SVGID_00000011001685830305821130000008696049056420316853_" gradientUnits="userSpaceOnUse" x1="2918.2183" y1="1744.4553" x2="2452.9148" y2="2525.6228" gradientTransform="matrix(0.9651 -0.2618 0.2618 0.9651 -1163.5303 186.1516)">
						<stop  offset="0" style="stop-color:#FDF53F"/>
						<stop  offset="1" style="stop-color:#D93C65"/>
					</linearGradient>
					<path style="fill:url(#SVGID_00000011001685830305821130000008696049056420316853_);" d="M2056.79,1476.553l-5.135-18.928
						c-19.946,4.563-40.726,5.2-56.234,2.893c-5.537-0.824-9.568-5.695-9.56-11.293l0.026-18.935
						c0.009-6.946,6.136-12.2,13.021-11.286c15.315,2.034,33.53,1.989,51.838-2.978c19.005-5.156,31.431-15.444,27.848-28.652
						c-3.233-11.918-16.107-16.033-44.444-15.953c-40.484-0.084-72.001-9.172-81.001-42.351
						c-8.127-29.959,7.574-58.772,43.924-75.202l-5.135-18.93c-1.652-6.091,1.946-12.368,8.037-14.02l11.121-3.017
						c6.091-1.652,12.368,1.946,14.02,8.037l4.611,16.996c18.457-4.223,32.595-4.705,44.148-3.86
						c5.919,0.432,10.451,5.453,10.452,11.388l0.001,17.505c0.001,6.75-5.785,12.018-12.504,11.367
						c-10.707-1.038-25.474-1.137-43.321,3.704c-22.549,6.117-26.457,17.206-24.185,25.581
						c2.796,10.308,18.248,13.724,50.008,14.792c45.284,1.202,67.397,13.878,75.874,45.125c7.777,28.669-6.491,60.206-45.975,77.835
						l5.746,21.183c1.653,6.091-1.946,12.368-8.037,14.021l-11.123,3.017C2064.719,1486.242,2058.442,1482.644,2056.79,1476.553z"/>
				</g>
			</g>
			<g>
				
					<linearGradient id="SVGID_00000107584239637290703490000004954127845182246829_" gradientUnits="userSpaceOnUse" x1="2845.0093" y1="1906.155" x2="3061.5315" y2="1654.8348" gradientTransform="matrix(0.9651 -0.2618 0.2618 0.9651 -1163.5303 186.1516)">
					<stop  offset="0" style="stop-color:#FDF53F"/>
					<stop  offset="1" style="stop-color:#D93C65"/>
				</linearGradient>
				
					<circle style="fill:url(#SVGID_00000107584239637290703490000004954127845182246829_);" cx="2227.281" cy="975.68" r="161.422"/>
				
					<linearGradient id="SVGID_00000172410063037293214820000000611619855594214319_" gradientUnits="userSpaceOnUse" x1="3183.8804" y1="1471.5313" x2="2543.6189" y2="2438.7839" gradientTransform="matrix(0.9651 -0.2618 0.2618 0.9651 -1163.5303 186.1516)">
					<stop  offset="0" style="stop-color:#FDF53F"/>
					<stop  offset="1" style="stop-color:#D93C65"/>
				</linearGradient>
				
					<circle style="fill:url(#SVGID_00000172410063037293214820000000611619855594214319_);" cx="2227.281" cy="975.68" r="156.054"/>
				<path style="fill:#FFFFFF;" d="M2087.154,950.645c-0.581,0.158-1.206,0.186-1.838,0.056c-2.152-0.443-3.537-2.545-3.094-4.693
					c11.316-55.105,52.05-98.48,106.301-113.197c8.646-2.346,17.527-3.918,26.4-4.671c2.186-0.187,4.111,1.435,4.297,3.622
					c0.185,2.187-1.412,4.137-3.625,4.299c-8.396,0.717-16.803,2.205-24.99,4.426c-51.337,13.927-89.883,54.974-100.594,107.119
					C2089.699,949.126,2088.558,950.264,2087.154,950.645z"/>
				
					<ellipse transform="matrix(0.7071 -0.7071 0.7071 0.7071 -38.0231 1864.3462)" style="opacity:0.78;fill:#FFFFFF;" cx="2231.453" cy="978.071" rx="132.081" ry="132.081"/>
				<g>
					
						<linearGradient id="SVGID_00000173875702117632365740000014366601127504422315_" gradientUnits="userSpaceOnUse" x1="3164.7808" y1="1499.2466" x2="2823.8562" y2="2071.6025" gradientTransform="matrix(0.9651 -0.2618 0.2618 0.9651 -1163.5303 186.1516)">
						<stop  offset="0" style="stop-color:#FDF53F"/>
						<stop  offset="1" style="stop-color:#D93C65"/>
					</linearGradient>
					<path style="fill:url(#SVGID_00000173875702117632365740000014366601127504422315_);" d="M2244.652,1076.23l-3.762-13.868
						c-14.615,3.343-29.84,3.811-41.203,2.12c-4.057-0.604-7.01-4.172-7.005-8.275l0.018-13.874
						c0.008-5.089,4.497-8.939,9.542-8.269c11.221,1.49,24.567,1.457,37.981-2.182c13.925-3.777,23.029-11.316,20.404-20.993
						c-2.369-8.732-11.802-11.747-32.564-11.689c-29.662-0.062-52.754-6.721-59.349-31.03c-5.955-21.951,5.549-43.061,32.183-55.1
						l-3.763-13.87c-1.211-4.463,1.426-9.063,5.888-10.273l8.148-2.21c4.463-1.211,9.063,1.426,10.273,5.889l3.378,12.452
						c13.523-3.093,23.882-3.448,32.346-2.828c4.337,0.317,7.657,3.995,7.658,8.344l0.001,12.826c0,4.946-4.239,8.805-9.162,8.328
						c-7.845-0.76-18.665-0.833-31.741,2.715c-16.521,4.482-19.385,12.606-17.72,18.743c2.049,7.552,13.37,10.056,36.64,10.838
						c33.179,0.881,49.381,10.168,55.592,33.063c5.698,21.006-4.756,44.113-33.686,57.029l4.21,15.52
						c1.21,4.463-1.425,9.062-5.888,10.273l-8.149,2.211C2250.462,1083.329,2245.863,1080.693,2244.652,1076.23z"/>
				</g>
			</g>
		</g>
		<g>
			<g>
				
					<linearGradient id="SVGID_00000088096882994990020350000012732005619508966053_" gradientUnits="userSpaceOnUse" x1="3760.3169" y1="2740.728" x2="3760.3169" y2="4268.1929" gradientTransform="matrix(0.9416 0.3368 -0.3368 0.9416 -347.836 -41.6063)">
					<stop  offset="0" style="stop-color:#CB236D"/>
					<stop  offset="1" style="stop-color:#4C246D"/>
				</linearGradient>
				<path style="fill:url(#SVGID_00000088096882994990020350000012732005619508966053_);" d="M3086.774,1453.111
					c-20.125,63.989-57.778,87.561-88.394,77.934c-31.304-9.843-46.477-50.545-28.462-109.032
					c18.065-57.453,54.384-87.601,88.785-76.784C3094.135,1356.371,3103.958,1398.466,3086.774,1453.111z M2958.97,1658.767
					l228.389-273.077l24.082,7.571l-228.393,273.077L2958.97,1658.767z M3002.839,1430.31
					c-11.358,34.923-10.146,63.532,6.707,68.831c16.86,5.303,32.748-16.39,44.349-53.285c10.577-33.631,12.217-62.882-6.015-68.615
					C3030.682,1371.83,3013.561,1396.214,3002.839,1430.31z M3201.224,1627.684c-19.973,63.517-57.432,87.666-88.393,77.93
					c-30.958-9.735-46.473-50.544-27.968-109.393c17.919-56.98,54.384-87.597,88.439-76.889
					C3208.737,1530.475,3218.412,1573.039,3201.224,1627.684z M3117.296,1604.88c-11.212,34.454-10.153,63.531,6.704,68.83
					c17.198,5.41,32.751-16.389,44.353-53.285c10.722-34.096,12.214-62.882-6.015-68.614
					C3145.136,1546.4,3128.018,1570.787,3117.296,1604.88z"/>
			</g>
			<g>
				
					<linearGradient id="SVGID_00000085237945909116489210000004264198965473810622_" gradientUnits="userSpaceOnUse" x1="2864.4814" y1="1382.1541" x2="2864.4814" y2="2909.6799">
					<stop  offset="0" style="stop-color:#CB236D"/>
					<stop  offset="1" style="stop-color:#4C246D"/>
				</linearGradient>
				<path style="fill:url(#SVGID_00000085237945909116489210000004264198965473810622_);" d="M2849.71,1531.612h-38.086v-31.04
					h38.086v-55.931h29.541v55.931h38.089v31.04h-38.089v55.182h-29.541V1531.612z"/>
			</g>
		</g>
		<g>
			<g>
				
					<linearGradient id="SVGID_00000063634448480686469040000003658095922856746423_" gradientUnits="userSpaceOnUse" x1="661.3045" y1="1697.5564" x2="532.1326" y2="2114.8821" gradientTransform="matrix(1 0 0 1 1290.1023 0)">
					<stop  offset="0" style="stop-color:#53D8FF"/>
					<stop  offset="1" style="stop-color:#3840F7"/>
				</linearGradient>
				<path style="fill:url(#SVGID_00000063634448480686469040000003658095922856746423_);" d="M1544.403,3240.096
					c0.015-0.936-0.048-1.883-0.288-2.837c-14.148-56.093-84.371-91.03-84.371-91.03l-27.827,2.181
					c-15.999,49.44-13.943,79.76-11.374,93.266c0.071,0.379,0.186,0.739,0.287,1.104
					C1443.784,3244.831,1491.031,3246.17,1544.403,3240.096z"/>
				
					<linearGradient id="SVGID_00000065068922014559996320000015363713568444785325_" gradientUnits="userSpaceOnUse" x1="192.1681" y1="3264.9626" x2="198.7921" y2="2814.5181" gradientTransform="matrix(1 0 0 1 1290.1023 0)">
					<stop  offset="0" style="stop-color:#2B3582"/>
					<stop  offset="1" style="stop-color:#150E42"/>
				</linearGradient>
				<path style="fill:url(#SVGID_00000065068922014559996320000015363713568444785325_);" d="M1420.83,3242.78
					c1.24,4.51,4.569,8.022,8.83,8.918c32.653,6.867,84.552,1.341,106.341-1.508c4.808-0.628,8.322-5.074,8.401-10.094
					C1491.031,3246.17,1443.784,3244.831,1420.83,3242.78z"/>
				
					<linearGradient id="SVGID_00000052068545027716047800000001537245910153427614_" gradientUnits="userSpaceOnUse" x1="163.617" y1="3052.3552" x2="139.6215" y2="3261.7715" gradientTransform="matrix(1 0 0 1 1290.1023 0)">
					<stop  offset="0" style="stop-color:#F9B776"/>
					<stop  offset="1" style="stop-color:#F47960"/>
				</linearGradient>
				<path style="fill:url(#SVGID_00000052068545027716047800000001537245910153427614_);" d="M1420.729,3106.963l11.785,56.735
					c0.863,4.157,4.057,7.271,7.927,7.633c4.736,0.445,11.478,0.706,18.259-0.291c6.08-0.893,10.314-7.071,9.236-13.702
					l-8.192-50.376H1420.729z"/>
				
					<linearGradient id="SVGID_00000100358865310619661930000000955986072612212109_" gradientUnits="userSpaceOnUse" x1="410.3226" y1="3268.1707" x2="416.9466" y2="2817.7251" gradientTransform="matrix(1 0 0 1 1290.1023 0)">
					<stop  offset="0" style="stop-color:#2B3582"/>
					<stop  offset="1" style="stop-color:#150E42"/>
				</linearGradient>
				<path style="fill:url(#SVGID_00000100358865310619661930000000955986072612212109_);" d="M1664.916,3242.062
					c-30.732-0.86-46.628-4.48-54.846-7.838c-0.019,3.055-0.002,6.165,0.097,9.388c0.106,3.441,2.655,6.19,5.791,6.17l168.741-1.09
					c5.385-0.035,8.532-6.28,6.198-11.218C1768.773,3239.302,1712.424,3243.392,1664.916,3242.062z"/>
				
					<linearGradient id="SVGID_00000031905253530741801040000013377669867073716903_" gradientUnits="userSpaceOnUse" x1="862.261" y1="1759.7594" x2="733.0892" y2="2177.0845" gradientTransform="matrix(1 0 0 1 1290.1023 0)">
					<stop  offset="0" style="stop-color:#53D8FF"/>
					<stop  offset="1" style="stop-color:#3840F7"/>
				</linearGradient>
				<path style="fill:url(#SVGID_00000031905253530741801040000013377669867073716903_);" d="M1790.897,3237.474
					c-0.204-0.429-0.378-0.867-0.668-1.272c-14.902-20.823-52.857-62.285-127.857-80.269l-35.979-1.135
					c0,0-16.021,27.846-16.323,79.427c8.217,3.359,24.113,6.978,54.846,7.838
					C1712.424,3243.392,1768.773,3239.302,1790.897,3237.474z"/>
				
					<linearGradient id="SVGID_00000134935901590601313530000014810918247784636323_" gradientUnits="userSpaceOnUse" x1="462.162" y1="3043.866" x2="438.1662" y2="3253.2849" gradientTransform="matrix(0.998 -0.0629 0.0629 0.998 993.2088 65.7657)">
					<stop  offset="0" style="stop-color:#F9B776"/>
					<stop  offset="1" style="stop-color:#F47960"/>
				</linearGradient>
				<path style="fill:url(#SVGID_00000134935901590601313530000014810918247784636323_);" d="M1618.12,3101.943
					c0.568,2.652,8.055,43.021,10.954,58.674c0.689,3.719,3.587,6.448,7.035,6.641c6.161,0.345,16.097,0.386,24.641-1.934
					c4.609-1.252,7.707-5.951,7.378-11.167l-4.026-63.855L1618.12,3101.943z"/>
				
					<linearGradient id="SVGID_00000016758149472904822800000013747637573391248526_" gradientUnits="userSpaceOnUse" x1="1084.0887" y1="2879.7847" x2="2451.7839" y2="1202.0773" gradientTransform="matrix(-1 0 0 1 2705.8369 0)">
					<stop  offset="0" style="stop-color:#2B3582"/>
					<stop  offset="1" style="stop-color:#150E42"/>
				</linearGradient>
				<path style="fill:url(#SVGID_00000016758149472904822800000013747637573391248526_);" d="M1590.856,2356.555
					c0,0,49.493,340.097,85.211,744.806c0.666,7.538-5.341,14.097-12.745,15.656c-10.912,2.299-26.95,5.027-40.228,4.655
					c-7.088-0.198-13.013-5.455-14.205-12.445c-12.168-71.356-98.994-454.32-121.782-538.606c0,0-26.176,358.028-17.809,543.776
					c0.208,4.618-3.174,8.625-7.766,9.156c-6.967,0.805-18.112,1.417-32.296-0.09c-5.384-0.572-9.728-4.642-10.498-10.002
					c-8.667-60.391-58.553-419.861-56.432-678.81c0.12-14.603,17.134-134.583,17.134-134.583L1590.856,2356.555z"/>
			</g>
			<g>
				
					<linearGradient id="SVGID_00000170246895305355676430000012445728295761436600_" gradientUnits="userSpaceOnUse" x1="635.076" y1="2022.7736" x2="902.4154" y2="2022.7736" gradientTransform="matrix(1 0 0 1 1290.1023 0)">
					<stop  offset="0" style="stop-color:#F9B776"/>
					<stop  offset="1" style="stop-color:#F47960"/>
				</linearGradient>
				<path style="fill:url(#SVGID_00000170246895305355676430000012445728295761436600_);" d="M2015.104,2031.399
					c0,0-13.856-36.473-30.039-33.133c-16.183,3.341-33.888,15.773-33.888,15.773l-25.999,35.161c0,0,72.984,28.752,98.652,12.275
					c0,0,74.548,12.881,168.687-2.566c-13.627-28.771-21.75-57.575-26.519-79.934
					C2118.318,2005.964,2066.961,2026.124,2015.104,2031.399z"/>
				
					<linearGradient id="SVGID_00000014631578860414079440000013843061847627990964_" gradientUnits="userSpaceOnUse" x1="995.5413" y1="1812.8627" x2="1011.2604" y2="2214.406" gradientTransform="matrix(1 0 0 1 1290.1023 0)">
					<stop  offset="0" style="stop-color:#CB236D"/>
					<stop  offset="1" style="stop-color:#4C246D"/>
				</linearGradient>
				<path style="fill:url(#SVGID_00000014631578860414079440000013843061847627990964_);" d="M2409.99,1766.848
					c0,0-106.733,134.432-243.992,212.127c4.77,22.359,12.892,51.163,26.519,79.934c71.204-11.684,153.611-39.568,223.474-101.527
					L2409.99,1766.848z"/>
			</g>
			
				<linearGradient id="SVGID_00000183219363340210303300000017100525140228711084_" gradientUnits="userSpaceOnUse" x1="1593.7522" y1="1945.1422" x2="1106.8729" y2="2614.188">
				<stop  offset="0" style="stop-color:#FDF53F"/>
				<stop  offset="1" style="stop-color:#D93C65"/>
			</linearGradient>
			<path style="fill:url(#SVGID_00000183219363340210303300000017100525140228711084_);" d="M1610.036,1784.625l6.626,177.966
				c18.821,6.477,36.74,11.515,53.803,15.277c10.673-34.361,34.175-76.535,53.419-107.893
				C1653.178,1844.982,1610.036,1784.625,1610.036,1784.625z"/>
			
				<linearGradient id="SVGID_00000118398358453599089100000011028630741742686116_" gradientUnits="userSpaceOnUse" x1="800.9809" y1="1766.6442" x2="381.5748" y2="1975.2755" gradientTransform="matrix(1 0 0 1 1290.1023 0)">
				<stop  offset="0" style="stop-color:#F9B776"/>
				<stop  offset="1" style="stop-color:#F47960"/>
			</linearGradient>
			<path style="fill:url(#SVGID_00000118398358453599089100000011028630741742686116_);" d="M1963.037,1781.598
				c-96.99,104.718-175.493,110.882-239.154,88.378c-19.245,31.358-42.746,73.532-53.419,107.893
				c259.008,57.102,320.001-181.007,320.001-181.007L1963.037,1781.598z"/>
			
				<linearGradient id="SVGID_00000174575014428876292520000001313005972044447365_" gradientUnits="userSpaceOnUse" x1="794.8409" y1="1714.319" x2="732.9843" y2="1778.9248" gradientTransform="matrix(1 0 0 1 1290.1023 0)">
				<stop  offset="0" style="stop-color:#F9B776"/>
				<stop  offset="1" style="stop-color:#F47960"/>
			</linearGradient>
			<path style="fill:url(#SVGID_00000174575014428876292520000001313005972044447365_);" d="M1982.707,1770.475
				c0,0,11.172-11.997,31.85-8.227c20.677,3.771,39.083,10.954,51.967,0c12.883-10.954,17.413,3.748,17.413,3.748l-38.579,29.327
				L1982.707,1770.475z"/>
			
				<linearGradient id="SVGID_00000036959262063351706710000009735699474655807621_" gradientUnits="userSpaceOnUse" x1="802.9741" y1="1764.1719" x2="383.5698" y2="1972.8022" gradientTransform="matrix(1 0 0 1 1290.1023 0)">
				<stop  offset="0" style="stop-color:#F9B776"/>
				<stop  offset="1" style="stop-color:#F47960"/>
			</linearGradient>
			<path style="fill:url(#SVGID_00000036959262063351706710000009735699474655807621_);" d="M1959.632,1790.985
				c0,0,7.656-32.01,30.725-27.622c23.07,4.387,75.444,32.869,88.941,27.622c13.498-5.247,30.757-17.805,39.612-13.366
				l-15.597,19.391c0,0,40.096-23.132,46.999-8.919l-66.719,37.545C2083.593,1825.636,1985.981,1815.864,1959.632,1790.985z"/>
			
				<linearGradient id="SVGID_00000150783208513588173390000004912843959267226250_" gradientUnits="userSpaceOnUse" x1="1620.8835" y1="1964.8859" x2="1134.0031" y2="2633.9331">
				<stop  offset="0" style="stop-color:#FDF53F"/>
				<stop  offset="1" style="stop-color:#D93C65"/>
			</linearGradient>
			<path style="fill:url(#SVGID_00000150783208513588173390000004912843959267226250_);" d="M1372.001,2376.157
				c-5.089-1.809-8.636-6.421-9.19-11.793c-6.582-63.854-38.45-459.777,162.738-622.643c0,0,11.537-30.187,106.373,44.017
				c94.836,74.203,44.061,151.98,21.356,259.258c-27.475,129.814-75.681,235.925-54.352,315.811
				c1.472,5.513-1.427,11.302-6.78,13.275C1518.477,2401.232,1445.093,2402.131,1372.001,2376.157z"/>
			
				<linearGradient id="SVGID_00000168106999965552164170000013445974907238718114_" gradientUnits="userSpaceOnUse" x1="259.3435" y1="1831.791" x2="315.0732" y2="1679.6061" gradientTransform="matrix(1 0 0 1 1290.1023 0)">
				<stop  offset="0" style="stop-color:#F9B776"/>
				<stop  offset="1" style="stop-color:#F47960"/>
			</linearGradient>
			<path style="fill:url(#SVGID_00000168106999965552164170000013445974907238718114_);" d="M1604.028,1623.094
				c-0.064,5.634-80.4,119.742-80.4,119.742s14.42,28.399,83.26,51.457l59.423-122.176L1604.028,1623.094z"/>
			
				<linearGradient id="SVGID_00000098942144303353839930000007852189837548172468_" gradientUnits="userSpaceOnUse" x1="535.5103" y1="2008.7693" x2="121.1823" y2="2728.7" gradientTransform="matrix(1 0 0 1 1290.1023 0)">
				<stop  offset="0" style="stop-color:#F9B776"/>
				<stop  offset="1" style="stop-color:#F47960"/>
			</linearGradient>
			<path style="fill:url(#SVGID_00000098942144303353839930000007852189837548172468_);" d="M1572.434,2014.867
				c0,0,152.419,127.651,317.006,71.952c10.208-3.455,21.37-2.704,30.9,2.328l47.318,24.99c19.86,10.488,44.456,3.603,55.98-15.675
				c6.573-10.997,12.183-23.556,13.299-35.588l-92.587-37.482l6.826-11.353c0,0-45.205-3.83-57.036,28.568
				c0,0-86.103,35.814-231.309-123.901C1662.832,1918.706,1596.94,1974.734,1572.434,2014.867z"/>
			
				<linearGradient id="SVGID_00000095314004133310503070000001027895574251625106_" gradientUnits="userSpaceOnUse" x1="1661.2775" y1="1610.1982" x2="1399.6211" y2="2236.1868">
				<stop  offset="0" style="stop-color:#FDF53F"/>
				<stop  offset="1" style="stop-color:#D93C65"/>
			</linearGradient>
			<path style="fill:url(#SVGID_00000095314004133310503070000001027895574251625106_);" d="M1564.23,2013.546
				c-0.502,0-1.012-0.143-1.457-0.448c-64.178-43.361-94.369-113.348-94.667-114.051c-0.561-1.33,0.058-2.859,1.383-3.42
				c1.33-0.566,2.856,0.051,3.422,1.381c0.291,0.688,29.921,69.294,92.782,111.769c1.195,0.805,1.508,2.425,0.7,3.623
				C1565.891,2013.144,1565.068,2013.546,1564.23,2013.546z"/>
			
				<linearGradient id="SVGID_00000044874170284604074490000000894591625752685966_" gradientUnits="userSpaceOnUse" x1="1674.7831" y1="1615.844" x2="1413.1267" y2="2241.8323">
				<stop  offset="0" style="stop-color:#FDF53F"/>
				<stop  offset="1" style="stop-color:#D93C65"/>
			</linearGradient>
			<path style="fill:url(#SVGID_00000044874170284604074490000000894591625752685966_);" d="M1659.824,1916.541
				c-0.856,0-1.697-0.423-2.196-1.198c-0.194-0.3-19.8-30.82-57.143-97.688c-11.484-20.562-26.575-33.582-44.857-38.699
				c-30.274-8.459-59.451,7.772-59.739,7.934c-1.256,0.693-2.843,0.276-3.556-0.978c-0.711-1.254-0.276-2.844,0.978-3.557
				c1.259-0.713,31.269-17.505,63.676-8.434c19.691,5.493,35.86,19.35,48.054,41.185c37.249,66.701,56.782,97.113,56.975,97.413
				c0.78,1.208,0.431,2.823-0.78,3.603C1660.797,1916.408,1660.308,1916.541,1659.824,1916.541z"/>
			<g>
				
					<linearGradient id="SVGID_00000112627380680999605240000011707074538240144831_" gradientUnits="userSpaceOnUse" x1="396.3219" y1="1603.5088" x2="64.2715" y2="1867.9735" gradientTransform="matrix(1 0 0 1 1290.1023 0)">
					<stop  offset="0" style="stop-color:#F9B776"/>
					<stop  offset="1" style="stop-color:#F47960"/>
				</linearGradient>
				<path style="fill:url(#SVGID_00000112627380680999605240000011707074538240144831_);" d="M1667.279,1557.708
					c0,0,28.585,65.666,30.505,100.131c1.92,34.465,9.346,56.829-30.505,63.77c-39.851,6.941-73.422-12.912-91.609-47.243
					c0,0-28.496-52.901-22.104-74.566C1559.958,1578.135,1667.279,1557.708,1667.279,1557.708z"/>
				
					<linearGradient id="SVGID_00000088843666001468741730000009153467695947078539_" gradientUnits="userSpaceOnUse" x1="268.134" y1="1516.5067" x2="420.3269" y2="1712.4547" gradientTransform="matrix(1 0 0 1 1290.1023 0)">
					<stop  offset="0" style="stop-color:#2B3582"/>
					<stop  offset="1" style="stop-color:#150E42"/>
				</linearGradient>
				<path style="fill:url(#SVGID_00000088843666001468741730000009153467695947078539_);" d="M1589.287,1649.681l2.269-1
					c2.888-1.273,4.124-4.711,2.673-7.514c-5.619-10.858-16.575-35.739-2.423-41.543c18.239-7.48,90.485-22.213,106.073-47.849
					c14.982-24.638,1.707-56.442-18.241-65.487c-1.335-0.605-2.909-0.125-3.594,1.171l-1.662,3.146
					c-1.139,2.154-4.319,1.827-4.996-0.513l0,0c-0.65-2.246-3.637-2.682-4.876-0.699c-4.791,7.67-17.727,20.104-52.32,26.488
					c-49.164,9.074-81.667,28.969-82.476,62.942c-0.051,2.158-2.347,3.357-4.191,2.234c-3.63-2.212-9.439-3.25-17.202,3.278
					c-13.502,11.353-7.977,40.803,21.621,65.028c1.406,1.151,1.395,3.346-0.128,4.337c-5.366,3.493-13.365,11.804,7.362,22.883
					c21.438,11.46,37.447,10.52,43.611,9.503c1.534-0.253,2.521-1.738,2.187-3.256l-6.579-29.859
					c-0.373-1.69,0.914-3.291,2.644-3.291H1589.287z"/>
				
					<linearGradient id="SVGID_00000129906413844295250970000007672767155499416486_" gradientUnits="userSpaceOnUse" x1="362.8988" y1="1589.0173" x2="199.4879" y2="1714.0515" gradientTransform="matrix(1 0 0 1 1290.1023 0)">
					<stop  offset="0" style="stop-color:#F9B776"/>
					<stop  offset="1" style="stop-color:#F47960"/>
				</linearGradient>
				<path style="fill:url(#SVGID_00000129906413844295250970000007672767155499416486_);" d="M1590.525,1655.982
					c0,0-10.905-41.947-29.711-30.186c-18.806,11.761,9.759,46.999,24.878,48.568L1590.525,1655.982z"/>
			</g>
			
				<linearGradient id="SVGID_00000087397351203824850530000006360137137633443221_" gradientUnits="userSpaceOnUse" x1="630.2383" y1="2090.3677" x2="696.1173" y2="2090.3677" gradientTransform="matrix(1 0 0 1 1290.1023 0)">
				<stop  offset="0" style="stop-color:#F9B776"/>
				<stop  offset="1" style="stop-color:#F47960"/>
			</linearGradient>
			<path style="fill:url(#SVGID_00000087397351203824850530000006360137137633443221_);" d="M1920.341,2089.147
				c0,0,38.732,37.886,46.207,32.37c2.66-1.962,9.374-9.089,15.881-17.026c4.591-5.601,5.068-13.514,1.13-19.592l-9.135-14.096
				c-8.705-13.431-27.344-16.249-39.417-5.741C1928.917,2070.362,1923.389,2078.037,1920.341,2089.147z"/>
			
				<linearGradient id="SVGID_00000016788369764879556850000002952204135124575382_" gradientUnits="userSpaceOnUse" x1="1116.3833" y1="1950.2177" x2="1670.6323" y2="2245.2856" gradientTransform="matrix(1 0 0 1 1290.1023 0)">
				<stop  offset="0" style="stop-color:#CB236D"/>
				<stop  offset="1" style="stop-color:#4C246D"/>
			</linearGradient>
			<path style="fill:url(#SVGID_00000016788369764879556850000002952204135124575382_);" d="M2543.099,2362.687
				c-20.873-99.146-41.746-156.546-111.637-344.476c-21.995-59.139-41.967-118.976-32.314-181.331l10.842-70.032
				c0,0,135.825-45.961,286.384-1.936c0,0,205.41,89.233,65.89,529.937C2699.376,2365.209,2625.776,2385.261,2543.099,2362.687z"/>
			
				<linearGradient id="SVGID_00000148655894724563066070000009194882734411619760_" gradientUnits="userSpaceOnUse" x1="1233.2457" y1="1755.3796" x2="1190.3763" y2="1626.7711" gradientTransform="matrix(1 0 0 1 1290.1023 0)">
				<stop  offset="0" style="stop-color:#F9B776"/>
				<stop  offset="1" style="stop-color:#F47960"/>
			</linearGradient>
			<path style="fill:url(#SVGID_00000148655894724563066070000009194882734411619760_);" d="M2433.111,1677.468l35.22,84.612
				c2.225,5.344,7.033,9.152,12.738,10.131c20.306,3.483,69.418,8.922,101.671-12.286c3.844-2.528,4.822-7.752,2.193-11.526
				l-65.068-93.417L2433.111,1677.468z"/>
			<g>
				
					<linearGradient id="SVGID_00000125580705341000014580000013643806632173654149_" gradientUnits="userSpaceOnUse" x1="1224.0433" y1="2130.5518" x2="1674.8732" y2="2130.5518" gradientTransform="matrix(1 0 0 1 1290.1023 0)">
					<stop  offset="0" style="stop-color:#9CFFFB"/>
					<stop  offset="1" style="stop-color:#9BFFFA"/>
				</linearGradient>
				<path style="fill:url(#SVGID_00000125580705341000014580000013643806632173654149_);" d="M2519.976,2075.107
					c-4.85,1.279-7.26,6.73-4.94,11.178l101.891,195.373c1.721,3.299,5.528,4.93,9.103,3.897l333.292-96.23
					c4.15-1.198,6.542-5.534,5.343-9.684l-57.412-198.75c-1.179-4.081-5.4-6.475-9.507-5.392L2519.976,2075.107z"/>
				
					<linearGradient id="SVGID_00000098930998604640634000000005981844240911796657_" gradientUnits="userSpaceOnUse" x1="1245.0819" y1="2127.0796" x2="1675.3066" y2="2127.0796" gradientTransform="matrix(1 0 0 1 1290.1023 0)">
					<stop  offset="0" style="stop-color:#9CFFFB"/>
					<stop  offset="1" style="stop-color:#9BFFFA"/>
				</linearGradient>
				<path style="fill:url(#SVGID_00000098930998604640634000000005981844240911796657_);" d="M2541.476,2052.149
					c-4.772,1.137-7.479,6.187-5.785,10.791l81.561,221.555c1.483,4.03,5.827,6.228,9.952,5.037l332.287-95.939
					c4.135-1.194,6.639-5.386,5.731-9.593l-46.05-213.235c-0.968-4.485-5.434-7.299-9.898-6.235L2541.476,2052.149z"/>
				
					<linearGradient id="SVGID_00000014616829578064431480000010955437659117995139_" gradientUnits="userSpaceOnUse" x1="1466.9615" y1="2084.3411" x2="1558.416" y2="2494.4565" gradientTransform="matrix(1 0 0 1 1290.1023 0)">
					<stop  offset="0" style="stop-color:#FDF53F"/>
					<stop  offset="1" style="stop-color:#D93C65"/>
				</linearGradient>
				<path style="fill:url(#SVGID_00000014616829578064431480000010955437659117995139_);" d="M2570.416,2029.785
					c-5.827,0.886-9.666,6.545-8.336,12.286l55.397,239.176c1.308,5.651,7.091,9.046,12.663,7.438l327.252-94.486
					c5.259-1.519,8.358-6.945,6.991-12.246l-50.327-195.232c-1.296-5.027-6.186-8.258-11.319-7.478L2570.416,2029.785z"/>
			</g>
			
				<linearGradient id="SVGID_00000054235679940470168160000017119030548233527216_" gradientUnits="userSpaceOnUse" x1="1195.4783" y1="1814.9282" x2="1791.36" y2="2132.1604" gradientTransform="matrix(1 0 0 1 1290.1023 0)">
				<stop  offset="0" style="stop-color:#CB236D"/>
				<stop  offset="1" style="stop-color:#4C246D"/>
			</linearGradient>
			<path style="fill:url(#SVGID_00000054235679940470168160000017119030548233527216_);" d="M2835.324,2120.995
				c25.4-191.866-122.459-339.397-122.459-339.397l-87.972,102.557c66.789,83.25,98.538,159.536,113.041,219.452
				C2757.167,2098.006,2803.477,2089.157,2835.324,2120.995z"/>
			
				<linearGradient id="SVGID_00000064315563831340924670000010546934903643063443_" gradientUnits="userSpaceOnUse" x1="2991.2266" y1="1639.4532" x2="2577.2126" y2="2113.0859">
				<stop  offset="0" style="stop-color:#CB236D"/>
				<stop  offset="1" style="stop-color:#4C246D"/>
			</linearGradient>
			<path style="fill:url(#SVGID_00000064315563831340924670000010546934903643063443_);" d="M2737.929,2109.055
				c-2.455,0-4.687-1.67-5.291-4.166c-17.876-73.86-55.559-146.981-111.993-217.324c-1.883-2.346-1.508-5.778,0.838-7.661
				c2.344-1.878,5.778-1.506,7.658,0.841c57.445,71.604,95.83,146.156,114.089,221.581c0.708,2.926-1.091,5.868-4.014,6.576
				C2738.786,2109.007,2738.355,2109.055,2737.929,2109.055z"/>
			
				<linearGradient id="SVGID_00000066481118978034492370000018264292966982112143_" gradientUnits="userSpaceOnUse" x1="1493.5243" y1="2129.9905" x2="1354.1996" y2="2397.9229" gradientTransform="matrix(1 0 0 1 1290.1023 0)">
				<stop  offset="0" style="stop-color:#F9B776"/>
				<stop  offset="1" style="stop-color:#F47960"/>
			</linearGradient>
			<path style="fill:url(#SVGID_00000066481118978034492370000018264292966982112143_);" d="M2737.935,2103.607
				c13.479,55.689,12.062,97.238,10.012,117.075c-0.773,7.479-6.784,13.318-14.284,13.844c-8.521,0.596-20.115,1.378-30.478,1.975
				c-11.391,0.656-24.032-6.542-32.487-12.559c-4.316-3.072-9.899,1.711-7.489,6.429c6.309,12.345,22.323,23.333,33.361,29.796
				c4.015,2.351,3.262,8.353-1.214,9.622l-47.202,13.379c77.559,73.068,128.765-8.687,128.765-8.687
				c34.237-52.901,51.938-104.63,58.405-153.486C2803.477,2089.157,2757.167,2098.006,2737.935,2103.607z"/>
			<g>
				
					<linearGradient id="SVGID_00000182487016575144168270000018283681781085058238_" gradientUnits="userSpaceOnUse" x1="4818.979" y1="5486.6553" x2="4664.8916" y2="5690.501" gradientTransform="matrix(-0.6854 -0.7281 -0.7281 0.6854 9787.373 1318.7853)">
					<stop  offset="0" style="stop-color:#F9B776"/>
					<stop  offset="1" style="stop-color:#F47960"/>
				</linearGradient>
				<path style="fill:url(#SVGID_00000182487016575144168270000018283681781085058238_);" d="M2469.535,1548.013
					c-1.479,1.392-62.425,121.077-62.425,121.077l69.077,33.346l74.617-104.853
					C2550.804,1597.583,2494.297,1524.703,2469.535,1548.013z"/>
				
					<linearGradient id="SVGID_00000121240595827295816640000002233354308748997807_" gradientUnits="userSpaceOnUse" x1="4701.2998" y1="5535.6094" x2="4885.3599" y2="5535.6094" gradientTransform="matrix(-0.6854 -0.7281 -0.7281 0.6854 9787.373 1318.7853)">
					<stop  offset="0" style="stop-color:#2B3582"/>
					<stop  offset="1" style="stop-color:#150E42"/>
				</linearGradient>
				<path style="fill:url(#SVGID_00000121240595827295816640000002233354308748997807_);" d="M2519.412,1610.163l-34.452,57.43
					c-0.523,0.872-1.146,1.659-1.889,2.352c-4.101,3.817-18.133,14.92-28.982-0.197c-9.246-12.884-17.921-24.598-27.217-29.428
					c-5.428-2.821-12.108-0.568-14.864,4.893c-5.676,11.251-16.672,34.184-23.578,55.931c-1.731,5.451,1.082,11.302,6.382,13.45
					c13.988,5.667,41.633,15.916,66.163,19.301c4.03,0.556,8.019-1.143,10.417-4.429c10.554-14.459,40.301-54.864,50.454-64.978
					c9.432-9.396,26.84-5.854,34.684-3.6c2.977,0.856,6.148,0.444,8.802-1.154c7.958-4.794,21.847-16.731,9.142-36.942
					c-3.159-5.025-1.548-11.718,3.41-14.979c8.886-5.846,18.528-16.817,9.342-34.584c-9.3-17.986-25.905-19.601-37.216-18.218
					c-5.004,0.612-10.084-2.013-12.005-6.675c-0.854-2.073-2.542-3.841-5.686-4.478c-5.928-1.203-9.819-6.624-8.655-12.56
					c1.994-10.178,0.492-23.4-15.759-32.334c-29.804-16.387-55.912,10.314-62.55,32.854c-6.639,22.541,26.685,38.469,47.648,41.128
					c15.397,1.953,23.84,18.757,27.237,27.542C2521.473,1603.674,2521.17,1607.232,2519.412,1610.163z"/>
				
					<linearGradient id="SVGID_00000002343925199645200610000010511303020736438960_" gradientUnits="userSpaceOnUse" x1="4593.3013" y1="5648.0854" x2="4716.8921" y2="5521.2847" gradientTransform="matrix(-0.6854 -0.7281 -0.7281 0.6854 9787.373 1318.7853)">
					<stop  offset="0" style="stop-color:#F9B776"/>
					<stop  offset="1" style="stop-color:#F47960"/>
				</linearGradient>
				<path style="fill:url(#SVGID_00000002343925199645200610000010511303020736438960_);" d="M2508.907,1685.579
					c0,0,13.254-38.779,30.218-37.355c16.965,1.423,30.316,18.324,9.292,37.322
					C2522.265,1709.177,2508.907,1685.579,2508.907,1685.579z"/>
			</g>
			<g>
				
					<linearGradient id="SVGID_00000129898129912161633960000012012030644679954052_" gradientUnits="userSpaceOnUse" x1="2133.6938" y1="2897.1785" x2="2133.6938" y2="3285.7988" gradientTransform="matrix(-1 0 0 1 4753.7588 0)">
					<stop  offset="0" style="stop-color:#2B3582"/>
					<stop  offset="1" style="stop-color:#150E42"/>
				</linearGradient>
				<path style="fill:url(#SVGID_00000129898129912161633960000012012030644679954052_);" d="M2529.727,3236.476
					c32.805,2.835,89.739,7.441,134.623,9.417c26.98,1.188,42.513-1.455,51.459-5.035c-0.015,1.008-0.043,1.96-0.083,2.846
					c-0.212,4.723-4.051,8.501-8.821,8.768c-84.81,4.734-152.26,1.638-176.273,0.177c-4.965-0.303-7.924-5.698-5.386-9.932
					C2526.519,3240.601,2528.056,3238.526,2529.727,3236.476z"/>
				
					<linearGradient id="SVGID_00000018207360604768941930000008788559594641012119_" gradientUnits="userSpaceOnUse" x1="2037.9381" y1="3208.2085" x2="2224.0313" y2="3208.2085" gradientTransform="matrix(-1 0 0 1 4753.7588 0)">
					<stop  offset="0" style="stop-color:#CB236D"/>
					<stop  offset="1" style="stop-color:#4C246D"/>
				</linearGradient>
				<path style="fill:url(#SVGID_00000018207360604768941930000008788559594641012119_);" d="M2664.35,3245.893
					c-44.884-1.975-101.818-6.581-134.623-9.417c32.253-39.57,134.623-66.24,134.623-66.24h28.913
					c19.885,28.665,22.764,55.955,22.547,70.622C2706.864,3244.438,2691.33,3247.08,2664.35,3245.893z"/>
				
					<linearGradient id="SVGID_00000018956548308737959720000008344983043204180361_" gradientUnits="userSpaceOnUse" x1="2055.6279" y1="3155.8123" x2="2109.5669" y2="3155.8123" gradientTransform="matrix(-1 0 0 1 4753.7588 0)">
					<stop  offset="0" style="stop-color:#F9B776"/>
					<stop  offset="1" style="stop-color:#F47960"/>
				</linearGradient>
				<path style="fill:url(#SVGID_00000018956548308737959720000008344983043204180361_);" d="M2698.131,3123.035l-2.705,53.541
					c-0.292,5.798-4.634,10.67-10.44,11.5c-5.777,0.826-13.514,0.932-21.719-1.799c-5.047-1.68-8.795-5.933-9.726-11.121
					l-9.349-52.12H2698.131z"/>
			</g>
			<g>
				<g>
					
						<linearGradient id="SVGID_00000057130537423599497070000015581320396080932795_" gradientUnits="userSpaceOnUse" x1="1692.8895" y1="2897.1787" x2="1692.8895" y2="3285.7991" gradientTransform="matrix(-1 0 0 1 4753.7588 0)">
						<stop  offset="0" style="stop-color:#2B3582"/>
						<stop  offset="1" style="stop-color:#150E42"/>
					</linearGradient>
					<path style="fill:url(#SVGID_00000057130537423599497070000015581320396080932795_);" d="M3073.665,3245.491
						c14.225-1.984,20.662-9.374,23.36-17.275c0.018,0.072,0.037,0.143,0.054,0.213c2.093,8.334-2.759,16.971-12.459,21.079
						c-11.725,4.965-24.544,5.811-34.497,5.401c-10.676-0.44-20.478-4.859-25.864-11.93l-0.081-0.107
						C3034.896,3248.176,3049.94,3248.801,3073.665,3245.491z"/>
					
						<linearGradient id="SVGID_00000162346998117678608240000012295788351421482138_" gradientUnits="userSpaceOnUse" x1="1656.7329" y1="3185.1064" x2="1764.4427" y2="3185.1064" gradientTransform="matrix(-1 0 0 1 4753.7588 0)">
						<stop  offset="0" style="stop-color:#CB236D"/>
						<stop  offset="1" style="stop-color:#4C246D"/>
					</linearGradient>
					<path style="fill:url(#SVGID_00000162346998117678608240000012295788351421482138_);" d="M3006.592,3122.691h23.843
						c36.319-0.742,59.126,75.861,66.59,105.525c-2.698,7.902-9.135,15.292-23.36,17.275c-23.725,3.31-38.769,2.685-49.487-2.618
						c-19.621-25.82-29.35-63.635-34.025-85.706C2984.835,3132.067,3006.592,3122.691,3006.592,3122.691z"/>
				</g>
				
					<linearGradient id="SVGID_00000054247363792930851200000009338566759455719336_" gradientUnits="userSpaceOnUse" x1="1712.7184" y1="3110.8472" x2="1777.1805" y2="3110.8472" gradientTransform="matrix(-1 0 0 1 4753.7588 0)">
					<stop  offset="0" style="stop-color:#F9B776"/>
					<stop  offset="1" style="stop-color:#F47960"/>
				</linearGradient>
				<path style="fill:url(#SVGID_00000054247363792930851200000009338566759455719336_);" d="M3027.371,3072.997l13.24,52.66
					c1.624,6.456-1.467,13.134-7.437,16.198c-7.407,3.801-17.835,7.795-27.418,6.639c-4.508-0.544-8.251-3.718-9.741-7.962
					l-19.437-55.403L3027.371,3072.997z"/>
			</g>
			
				<linearGradient id="SVGID_00000016066462604301728660000006184450374807680405_" gradientUnits="userSpaceOnUse" x1="3371.21" y1="1209.4468" x2="2655.8335" y2="3067.4421">
				<stop  offset="0" style="stop-color:#53D8FF"/>
				<stop  offset="0.2057" style="stop-color:#4DB9FD"/>
				<stop  offset="1" style="stop-color:#3840F7"/>
			</linearGradient>
			<path style="fill:url(#SVGID_00000016066462604301728660000006184450374807680405_);" d="M3043.164,3088.218
				c-16.473,14.612-70.052,16.541-70.052,16.541c-193.001-463.223-273.466-590.744-273.466-590.744
				c27.868,174.842,6.007,623.633,6.007,623.633c-31.849,14.054-72.911,0-72.911,0c-2.586-286.239-42.887-593.813-94.861-790.615
				c130.446-2.932,201.338-31.369,223.989-49.284C2870.605,2473.051,3043.164,3088.218,3043.164,3088.218z"/>
		</g>
	</g>
</g>
</svg>
