<?xml version="1.0" encoding="utf-8"?>
<!-- Generator: Adobe Illustrator 23.0.5, SVG Export Plug-In . SVG Version: 6.00 Build 0)  -->
<svg version="1.1" xmlns="http://www.w3.org/2000/svg" xmlns:xlink="http://www.w3.org/1999/xlink" x="0px" y="0px"
	 viewBox="0 0 500 500" style="enable-background:new 0 0 500 500;" xml:space="preserve">
<style type="text/css">
	.st0{fill:#FFFFFF;}
	.st1{fill:#404057;}
	.st2{fill:#F5F7FF;}
	.st3{fill:url(#SVGID_1_);}
	.st4{opacity:0.4;}
	.st5{fill:#DDE0EF;}
	.st6{fill:#FF4940;}
	.st7{fill:#5BCAAA;}
	.st8{fill:#FDC65F;}
	.st9{fill:#F0F3FC;}
	.st10{fill:#2E539E;}
	.st11{fill:#4C6ED4;}
	.st12{fill:#49AD8E;}
	.st13{fill:#C2C4CE;}
	.st14{fill:#D5D7E2;}
	.st15{fill:#FBE4B1;}
	.st16{fill:#EDAF4A;}
	.st17{fill:#FFCA76;}
	.st18{fill:#464668;}
	.st19{opacity:0.5;}
	.st20{fill:#D7DAE2;}
	.st21{opacity:0.6;}
	.st22{fill:#BCBCBC;}
</style>
<g id="BACKGROUND">
	<g>
		<rect class="st0" width="500" height="500"/>
		<path class="st1" d="M409,103.8c-11.7-27.1-38.4-50-67.8-47.6c-32.3,2.6-55.6,33.2-86.9,42c-23.6,6.7-48.8,0.2-71.9-8
			c-23.1-8.2-46.2-18.3-70.7-19.1C87.4,70.4,60.4,82,51.9,105c-8.8,23.9,4.6,49.6,8.7,74.8c5.1,31.4-4.5,63.1-11.5,94.1
			c-7,31.1-11,65.3,4.1,93.3c16.7,31.1,52.2,46.2,85.1,58.8c44.3,16.9,89.4,33.3,136.5,38.4s97.2-2.2,136.1-29.4
			c29.6-20.6,52.2-56.5,44.7-91.7c-4.8-22.7-20.8-41-31.3-61.7C393.6,221.4,435.4,165,409,103.8z"/>
	</g>
</g>
<g id="OBJECTS">
	<path d="M426.7,394.8c0.1-0.7,0.2-1.3,0.2-2V183.6c0-6.6-6-11.9-13.4-11.9H95.6c-7.4,0-13.4,5.3-13.4,11.9v209.1
		c0,0.7,0.1,1.4,0.2,2H46.1V405c0,5.1,4.1,9.2,9.2,9.2h398.6c5.1,0,9.2-4.1,9.2-9.2v-10.2H426.7z"/>
	<g>
		<path class="st2" d="M419,177.7v209.1c0,6.6-6,11.9-13.4,11.9H87.7c-7.4,0-13.4-5.3-13.4-11.9V177.7c0-6.6,6-11.9,13.4-11.9h317.9
			C413,165.7,419,171.1,419,177.7z"/>
		<linearGradient id="SVGID_1_" gradientUnits="userSpaceOnUse" x1="83.99" y1="282.1053" x2="409.2485" y2="282.1053">
			<stop  offset="2.500000e-07" style="stop-color:#A1DFE7"/>
			<stop  offset="1" style="stop-color:#55B8DC"/>
		</linearGradient>
		<rect x="84" y="181.8" class="st3" width="325.3" height="200.7"/>
		<rect x="84" y="181.8" class="st4" width="325.3" height="3.9"/>
		<path class="st5" d="M445.9,408.2H47.3c-5.1,0-9.2-4.1-9.2-9.2v-10.2h417V399C455.1,404.1,451,408.2,445.9,408.2z"/>
		<path d="M278.6,396.1h-63.9c-4,0-7.3-3.3-7.3-7.3v0h78.5v0C285.9,392.9,282.6,396.1,278.6,396.1z"/>
	</g>
	<g>
		<g>
			<path class="st4" d="M375.2,383.2H133.8c3.3-72.1-0.1-144.6-6.1-217.5h253.1C373.8,241.2,370.3,313.9,375.2,383.2z"/>
			<path class="st4" d="M365.1,383.2H123.7c3.3-72.1-0.1-144.6-6.1-217.5h253.1C363.8,241.2,360.2,313.9,365.1,383.2z"/>
		</g>
		<g>
			<g>
				<path class="st0" d="M378.2,137.2c-0.3,3.1-0.7,6.1-0.9,9.2c-6.9,80.3-11.4,157.7-7.7,231.3c0.1,1.9,0.2,3.7,0.3,5.6H128.5
					c0.1-1.9,0.2-3.7,0.2-5.6c3.2-76.7-1.2-153.8-7.9-231.3c-0.3-3.1-0.5-6.2-0.8-9.3c-0.3-3.3,2.4-6.2,5.7-6.2h246.8
					C375.9,130.8,378.6,133.8,378.2,137.2z"/>
				<g>
					<path class="st2" d="M378.2,137.2c-0.3,3.1-0.6,6.1-0.9,9.2H120.8c-0.3-3.1-0.5-6.2-0.8-9.3c-0.3-3.3,2.4-6.2,5.7-6.2h246.8
						C375.9,130.8,378.6,133.8,378.2,137.2z"/>
					<g>
						<path class="st6" d="M133.9,139.4c0,1.7-1.4,3-3,3c-1.7,0-3-1.4-3-3c0-1.7,1.4-3,3-3C132.5,136.4,133.9,137.7,133.9,139.4z"/>
						<path class="st7" d="M150.8,139.4c0,1.7-1.4,3-3,3c-1.7,0-3-1.4-3-3c0-1.7,1.4-3,3-3C149.4,136.4,150.8,137.7,150.8,139.4z"/>
						<path class="st8" d="M142.3,139.4c0,1.7-1.4,3-3,3s-3-1.4-3-3c0-1.7,1.4-3,3-3S142.3,137.7,142.3,139.4z"/>
					</g>
				</g>
			</g>
			<g>
				<path class="st9" d="M135.8,164.1c0,0,5,63.2,4.3,73.2h71.5v-73.5L135.8,164.1z"/>
				<path class="st9" d="M240.8,353.1l-0.6,30.1H138.4c0.4-15.8,0.7-29.6,0.7-29.6L240.8,353.1z"/>
				<path class="st9" d="M356.4,383.2H254.6l-0.6-30.1l101.6,0.5C355.7,353.6,356,367.5,356.4,383.2z"/>
				<g>
					<rect x="219.6" y="184" class="st9" width="140.8" height="8"/>
					<rect x="219.6" y="199.3" class="st9" width="139.2" height="8"/>
					<rect x="219.6" y="214.3" class="st9" width="136" height="8"/>
				</g>
				<g>
					<rect x="253.8" y="304.6" class="st9" width="102.3" height="8"/>
					<rect x="253.8" y="319.9" class="st9" width="99.6" height="8"/>
					<rect x="253.8" y="334.9" class="st9" width="96.7" height="8"/>
				</g>
				<g>
					
						<rect x="141.4" y="304.6" transform="matrix(-1 -1.224647e-16 1.224647e-16 -1 385.1609 617.2444)" class="st9" width="102.3" height="8"/>
					
						<rect x="144.1" y="319.9" transform="matrix(-1 -1.224647e-16 1.224647e-16 -1 387.8174 647.8382)" class="st9" width="99.6" height="8"/>
					
						<rect x="147" y="334.9" transform="matrix(-1 -1.224647e-16 1.224647e-16 -1 390.7613 677.7668)" class="st9" width="96.7" height="8"/>
				</g>
				<path class="st9" d="M355.6,292.8H141.3c1.7-14-0.4-29.3-1.8-45.2h217.5C356,262.2,354.7,277.3,355.6,292.8z"/>
			</g>
			<path class="st4" d="M369.9,383.2H128.5c0.1-1.9,0.2-3.7,0.2-5.6h240.9C369.7,379.4,369.8,381.3,369.9,383.2z"/>
		</g>
	</g>
	<g>
		<path class="st4" d="M462.9,155.1l0.5-1.7l-9.6-17.9l0,0l0,0l-36.6-10.6c-3.3-1-6.8,1-7.8,4.3l-14.5,50.4l0,0l-2.8,9.7
			c0,0,0,0,0,0l-0.6,2c-1,3.3,1,6.8,4.3,7.8l44.2,12.8c3.3,1,6.8-1,7.8-4.3l0.6-2l0,0l0.1-0.2l14.4-49.9l0,0L462.9,155.1
			L462.9,155.1z"/>
		<g>
			<path class="st10" d="M460.2,151.3l-15.1,52.2c-1,3.3-4.4,5.2-7.8,4.3L393.1,195c-3.3-1-5.2-4.4-4.3-7.8l17.4-60.1
				c1-3.3,4.4-5.2,7.8-4.3l36.6,10.6l0,0.1L460.2,151.3z"/>
			<path class="st11" d="M460.7,149.4l-15.1,52.2c-1,3.3-4.4,5.2-7.8,4.3L393.7,193c-3.3-1-5.2-4.4-4.3-7.8l17.4-60.1
				c1-3.3,4.4-5.2,7.8-4.3l36.6,10.6l0,0.1L460.7,149.4z"/>
			<polygon class="st10" points="451.1,131.4 447,145.4 460.7,149.4 			"/>
			<polygon class="st4" points="447,145.4 460.2,151.1 460.7,149.4 			"/>
			<path class="st4" d="M448.5,191.8l-2.8,9.7c-1,3.3-4.4,5.2-7.8,4.3L393.7,193c-3.3-1-5.2-4.4-4.3-7.8l2.8-9.7L448.5,191.8z"/>
			<g>
				<path class="st0" d="M405.4,182.7l-1,3.5l3.4,1l1-3.5l2.1,0.6l-2.6,9.1l-2.1-0.6l1.1-3.8l-3.4-1l-1.1,3.8l-2.1-0.6l2.6-9.1
					L405.4,182.7z"/>
				<path class="st0" d="M414,187l-2.5-0.7l0.5-1.7l7,2l-0.5,1.7l-2.5-0.7l-2.1,7.4l-2.1-0.6L414,187z"/>
				<path class="st0" d="M426.1,194.7c0.3-1.1,0.6-2.4,1-3.8l0,0c-0.6,1.1-1.4,2.3-2,3.2l-2.1,3.2l-1.6-0.5l0-3.8
					c0-1.2,0.1-2.6,0.2-3.8l0,0c-0.4,1.2-0.9,2.6-1.2,3.7l-1.2,3.4l-1.9-0.5l3.2-8.9l2.7,0.8l0,3.3c0,1.1-0.1,2.4-0.2,3.5l0.1,0
					c0.5-1,1.2-2.1,1.8-3l1.8-2.8l2.7,0.8l-2.1,9.3l-2-0.6L426.1,194.7z"/>
				<path class="st0" d="M431.5,190.2l2.1,0.6l-2.1,7.4l3.6,1l-0.5,1.7l-5.7-1.6L431.5,190.2z"/>
			</g>
			<g>
				<path class="st0" d="M406.6,153.2l15.6-2.4l-0.9,3l-11.7,1.5l0,0.1l9.1,7.5l-0.9,3l-11.9-10.3L406.6,153.2z"/>
				<path class="st0" d="M419.6,167.7l12.1-18.9l2.9,0.8l-12.1,18.9L419.6,167.7z"/>
				<path class="st0" d="M446.1,167.4l-15.5,2.3l0.9-3l11.9-1.5l0-0.1l-9.3-7.6l0.9-3l11.9,10.2L446.1,167.4z"/>
			</g>
		</g>
	</g>
	<g>
		<path class="st4" d="M106.9,368.2l-6.4-34.8l-4.4-24l0,0l-0.4-2l-18.2-12.8l0,0l0,0l-41.1,7.6c-3.7,0.7-6.2,4.3-5.5,8l0.4,2.2
			c0,0,0,0,0,0l10,54.3l0,0l0.8,4.6l1.6,8.6c0.7,3.7,4.3,6.2,8,5.5l49.6-9.2C105.2,375.5,107.6,372,106.9,368.2z"/>
		<g>
			<path class="st12" d="M97.1,306.4l10.8,58.5c0.7,3.7-1.8,7.3-5.5,8l-49.6,9.2c-3.7,0.7-7.3-1.8-8-5.5l-12.4-67.4
				c-0.7-3.7,1.8-7.3,5.5-8l41.1-7.6l0.1,0.1L97.1,306.4z"/>
			<path class="st7" d="M96.7,304.2l10.8,58.5c0.7,3.7-1.8,7.3-5.5,8l-49.6,9.2c-3.7,0.7-7.3-1.8-8-5.5L32,306.9
				c-0.7-3.7,1.8-7.3,5.5-8l41.1-7.6l0.1,0.1L96.7,304.2z"/>
			<polygon class="st12" points="78.5,291.3 81.3,307 96.7,304.2 			"/>
			<polygon class="st4" points="81.3,307 97.1,306.1 96.7,304.2 			"/>
			<path class="st4" d="M105.5,351.8l2,10.9c0.7,3.7-1.8,7.3-5.5,8l-49.6,9.2c-3.7,0.7-7.3-1.8-8-5.5l-2-10.9L105.5,351.8z"/>
			<g>
				<path class="st0" d="M72.2,371.8c-0.4,0.3-1.3,0.7-2.5,0.9c-3.5,0.7-5.8-1.2-6.3-4.1c-0.6-3.5,1.5-5.9,4.6-6.4
					c1.2-0.2,2.2-0.2,2.6,0l-0.1,1.9c-0.5-0.1-1.2-0.2-2,0c-1.8,0.3-3,1.7-2.6,4c0.4,2,1.8,3.1,3.9,2.7c0.7-0.1,1.4-0.4,1.9-0.7
					L72.2,371.8z"/>
				<path class="st0" d="M73.4,369.4c0.7,0.2,1.7,0.3,2.7,0.2c1.1-0.2,1.5-0.7,1.4-1.4c-0.1-0.6-0.7-0.9-2-1.1
					c-1.8-0.3-3.1-1-3.4-2.5c-0.3-1.7,0.9-3.3,3.3-3.8c1.2-0.2,2-0.1,2.7,0l-0.2,1.9c-0.4-0.1-1.2-0.3-2.2-0.1
					c-1,0.2-1.4,0.7-1.3,1.3c0.1,0.7,0.7,0.8,2.2,1.1c1.9,0.3,2.9,1.1,3.2,2.6c0.3,1.7-0.7,3.4-3.5,3.9c-1.2,0.2-2.4,0.1-3-0.1
					L73.4,369.4z"/>
				<path class="st0" d="M81.6,367.9c0.7,0.2,1.7,0.3,2.7,0.2c1.1-0.2,1.5-0.7,1.4-1.4c-0.1-0.6-0.7-0.9-2-1.1
					c-1.8-0.3-3.1-1-3.4-2.5c-0.3-1.7,0.9-3.3,3.3-3.8c1.2-0.2,2-0.1,2.7,0l-0.2,1.9c-0.4-0.1-1.2-0.3-2.2-0.1
					c-1,0.2-1.4,0.7-1.3,1.3c0.1,0.7,0.7,0.8,2.2,1.1c1.9,0.3,2.9,1.1,3.2,2.6c0.3,1.7-0.7,3.4-3.5,3.9c-1.2,0.2-2.4,0.1-3-0.1
					L81.6,367.9z"/>
			</g>
			<g>
				<path class="st0" d="M55.3,331c2.3-0.5,2.3-1.8,2.2-2.8c-0.2-0.8-0.4-1.7-0.7-2.6c-0.3-0.9-0.5-1.8-0.7-2.7
					c-0.6-3.2,1.2-5,4.3-5.6l1.2-0.2l0.5,2.9l-0.6,0.1c-1.5,0.3-1.9,1.3-1.6,2.8c0.1,0.6,0.3,1.2,0.5,1.9c0.2,0.7,0.4,1.4,0.6,2.3
					c0.5,2.5-0.4,3.7-2.2,4.5l0,0.1c2,0,3.2,0.8,3.7,3.4c0.2,0.9,0.2,1.7,0.3,2.4c0,0.7,0.1,1.4,0.2,1.9c0.3,1.5,1,2.3,2.5,2.1
					l0.6-0.1l0.5,2.9l-1.2,0.2c-3,0.6-5.4-0.3-6-3.7c-0.2-0.9-0.2-1.8-0.3-2.7c-0.1-0.9-0.2-1.8-0.3-2.7c-0.2-1-0.6-2.2-3-1.8
					L55.3,331z"/>
				<path class="st0" d="M66.4,326.2c-0.3-1.8,0.7-3.4,2.5-3.7c1.8-0.3,3.2,0.7,3.6,2.6c0.3,1.8-0.6,3.3-2.5,3.7
					C68.2,329,66.7,327.9,66.4,326.2z M67.8,344.3c0.5-3.2,0.8-6.9,0.7-10.1l5.1-1.3c-0.4,3.7-1.4,7.5-2.5,10.5L67.8,344.3z"/>
				<path class="st0" d="M84,328.3c-2.3,0.5-2.3,1.8-2.2,2.8c0.2,0.9,0.4,1.7,0.7,2.6c0.2,0.9,0.5,1.8,0.7,2.7
					c0.6,3.4-1.3,5-4.3,5.6l-1.2,0.2l-0.5-2.9l0.6-0.1c1.6-0.3,1.9-1.3,1.6-2.8c-0.1-0.6-0.3-1.2-0.5-1.9c-0.2-0.7-0.4-1.5-0.6-2.4
					c-0.5-2.6,0.4-3.8,2.2-4.5l0-0.1c-2-0.1-3.2-0.8-3.7-3.4c-0.2-0.9-0.2-1.7-0.3-2.4c0-0.7-0.1-1.4-0.2-2c-0.3-1.5-1-2.3-2.5-2
					l-0.6,0.1l-0.5-2.9l1.2-0.2c3.2-0.6,5.4,0.4,6,3.6c0.2,0.9,0.2,1.8,0.3,2.7c0.1,0.9,0.1,1.9,0.3,2.7c0.2,1,0.7,2.2,3,1.9
					L84,328.3z"/>
			</g>
		</g>
	</g>
	<g>
		<path class="st4" d="M147.3,226c-8.5-8.2-20.7-10.2-30.9-5.9l-1.7-1.6l0,0L48.3,154c-4.5-4.4-11.7-4.3-16.1,0.2
			c-0.2,0.2-0.3,0.3-0.4,0.5c-0.2,0.1-0.3,0.3-0.5,0.4c-2.2,2.3-3.3,5.2-3.2,8.1c0,2.9,1.2,5.8,3.5,8l66.4,64.5l1.7,1.6
			c-3.9,10.4-1.6,22.5,6.8,30.7c5.6,5.4,12.8,8.1,20.1,8.1c0.1,0,0.1,0,0.2,0c0.7-0.2,0.9-0.9,0.9-0.9l-9.7-9.4l4.1-23.5l23.4-4.8
			l9.7,9.4c0.6-0.2,0.9-0.9,0.9-0.9C155.9,238.7,153,231.5,147.3,226z M42.9,158.8c2,1.9,2.1,5,0.5,7.1c-2.1,1.7-5.1,1.6-7.1-0.3
			c-2-1.9-2.1-5-0.5-7.1C37.9,156.8,40.9,156.9,42.9,158.8z"/>
		<g>
			<path class="st13" d="M155.2,238.7c0,0-0.4,0.8-0.9,0.9l-2-5.9L155.2,238.7z"/>
			<path class="st13" d="M126.8,268c0,0-0.3,0.7-0.9,0.9c-0.7,0.2-4.2-3.1-4.2-3.1L126.8,268z"/>
			<path class="st13" d="M30.5,147.8c-2.2,2.3-3.3,5.2-3.2,8.1c0,2.9,1.2,5.8,3.5,8l66.4,64.5l1.7,1.6c-3.9,10.4-1.6,22.5,6.8,30.7
				c5.6,5.5,13,8.2,20.3,8.1l-9.7-9.4l4.2-24.3l24.2-4.9l9.7,9.4c-0.1-7.3-3-14.5-8.7-20c-8.5-8.2-20.7-10.2-30.9-5.9l-1.7-1.6
				l-66.4-64.5C42.1,143.2,34.9,143.3,30.5,147.8z M34.5,151.6c2.1-2.1,5.5-2.2,7.6-0.1c2.1,2.1,2.2,5.5,0.1,7.6
				c-2.1,2.1-5.5,2.2-7.6,0.1C32.5,157.1,32.4,153.7,34.5,151.6z"/>
			<g>
				<path class="st14" d="M31.4,146.9c-2.2,2.3-3.3,5.2-3.2,8.1c0,2.9,1.2,5.8,3.5,8l76.3,74.1l15.9-16.4l-76.3-74.1
					C43,142.2,35.8,142.3,31.4,146.9z M35.4,150.6c2.1-2.1,5.5-2.2,7.6-0.1c2.1,2.1,2.2,5.5,0.1,7.6c-2.1,2.1-5.5,2.2-7.6,0.1
					C33.4,156.2,33.4,152.8,35.4,150.6z"/>
				<path class="st4" d="M104.3,217.7c-2.8,2.9-4.9,6.3-6.3,9.8l9.9,9.6l15.9-16.4l-9.9-9.6C110.4,212.6,107.1,214.8,104.3,217.7z"
					/>
				<path class="st14" d="M146.6,218.7c5.6,5.5,8.5,12.7,8.7,20l-9.7-9.4l-24.2,4.9l-4.2,24.3l9.7,9.4c-7.3,0.1-14.6-2.6-20.3-8.1
					c-11.4-11-11.6-29.2-0.6-40.6C117,207.9,135.2,207.6,146.6,218.7z"/>
			</g>
		</g>
	</g>
	<g>
		<g>
			<path d="M319.1,290.9l-7.4-1.4c-1-0.2-1.8-1-2.1-2c-0.1-0.2-0.1-0.4-0.2-0.7c-0.3-1,0-2.1,0.8-2.8l5.6-4.8c1-0.9,1.2-2.4,0.5-3.5
				l-4.5-6.5c-0.8-1.1-2.3-1.5-3.5-0.8l-6.6,3.6c-0.9,0.5-2,0.4-2.8-0.2c-0.2-0.1-0.4-0.3-0.6-0.4c-0.9-0.6-1.3-1.6-1.1-2.7l1.2-7.2
				c0.2-1.3-0.6-2.7-1.9-3l-7.6-2.1c-1.3-0.4-2.7,0.3-3.2,1.6l-2.7,7c-0.4,1-1.3,1.6-2.3,1.7c-0.2,0-0.5,0-0.7,0.1
				c-1,0.1-2-0.4-2.6-1.3l-3.7-6.3c-0.7-1.2-2.2-1.6-3.4-1.1l-7.2,3.3c-1.2,0.6-1.9,2-1.4,3.3l2.4,7c0.3,1,0.1,2.1-0.7,2.8
				c-0.2,0.2-0.4,0.4-0.5,0.5c-0.7,0.8-1.8,1-2.8,0.7l-6.8-2.4c-1.3-0.5-2.7,0.1-3.3,1.4l-3.4,7.1c-0.6,1.2-0.1,2.7,1,3.4l6.4,3.8
				c0.9,0.5,1.4,1.5,1.3,2.6c0,0.3,0,0.5-0.1,0.8c-0.1,1-0.7,2-1.7,2.3l-6.8,2.5c-1.3,0.5-2,1.8-1.7,3.2l2,7.6c0.3,1.3,1.6,2.2,3,2
				l7.3-1.2c1-0.2,2,0.3,2.6,1.1c0.1,0.2,0.3,0.4,0.4,0.6c0.6,0.9,0.7,2,0.2,2.9l-3.6,6.3c-0.7,1.2-0.3,2.7,0.8,3.5l6.4,4.6
				c1.1,0.8,2.6,0.6,3.5-0.4l4.9-5.6c0.7-0.8,1.7-1.1,2.7-0.8c0.2,0.1,0.5,0.1,0.7,0.2c1,0.3,1.8,1.1,2,2.1l1.3,7.2
				c0.2,1.3,1.5,2.3,2.8,2.2l7.9-0.6c1.4-0.1,2.4-1.2,2.4-2.6l0.1-7.5c0-1,0.7-2,1.6-2.4c0,0,0,0,0.1,0c0.2-0.1,0.4-0.2,0.6-0.3
				c0.9-0.5,2-0.3,2.8,0.4l5.6,4.7c1.1,0.9,2.6,0.8,3.6-0.2l5.6-5.5c1-1,1.1-2.5,0.2-3.6l-4.7-5.8c-0.6-0.8-0.8-1.9-0.3-2.8
				c0.1-0.2,0.2-0.4,0.3-0.6c0.4-1,1.4-1.6,2.4-1.6l7.4,0c1.4,0,2.5-1.1,2.6-2.4l0.7-7.9C321.3,292.4,320.4,291.2,319.1,290.9z
				 M289.3,308.5c-8,3.6-17.4,0.2-21-7.8c-3.6-8-0.2-17.4,7.8-21c8-3.6,17.4-0.2,21,7.8C300.7,295.4,297.2,304.8,289.3,308.5z"/>
			<path d="M252.7,329l-5-1c-0.7-0.1-1.2-0.7-1.4-1.3c0-0.2-0.1-0.3-0.1-0.5c-0.2-0.7,0-1.4,0.6-1.9l3.8-3.2
				c0.7-0.6,0.8-1.6,0.3-2.4l-3-4.4c-0.5-0.8-1.5-1-2.3-0.6l-4.4,2.4c-0.6,0.3-1.4,0.3-1.9-0.1c-0.1-0.1-0.3-0.2-0.4-0.3
				c-0.6-0.4-0.9-1.1-0.8-1.8l0.8-4.9c0.2-0.9-0.4-1.8-1.3-2l-5.1-1.4c-0.9-0.2-1.8,0.2-2.2,1.1l-1.8,4.7c-0.3,0.7-0.9,1.1-1.6,1.1
				c-0.2,0-0.3,0-0.5,0c-0.7,0.1-1.4-0.3-1.7-0.9l-2.5-4.3c-0.5-0.8-1.5-1.1-2.3-0.7l-4.9,2.2c-0.8,0.4-1.3,1.3-1,2.2l1.6,4.7
				c0.2,0.7,0,1.4-0.5,1.9c-0.1,0.1-0.2,0.2-0.4,0.4c-0.5,0.5-1.2,0.7-1.9,0.4l-4.6-1.7c-0.9-0.3-1.8,0.1-2.2,0.9l-2.3,4.8
				c-0.4,0.8-0.1,1.8,0.7,2.3l4.3,2.6c0.6,0.4,0.9,1,0.9,1.7c0,0.2,0,0.3,0,0.5c-0.1,0.7-0.5,1.3-1.2,1.6l-4.6,1.7
				c-0.9,0.3-1.3,1.2-1.1,2.1l1.3,5.2c0.2,0.9,1.1,1.5,2,1.3l5-0.8c0.7-0.1,1.4,0.2,1.8,0.8c0.1,0.1,0.2,0.3,0.3,0.4
				c0.4,0.6,0.5,1.3,0.1,2l-2.4,4.3c-0.5,0.8-0.2,1.8,0.5,2.4l4.4,3.1c0.8,0.5,1.8,0.4,2.4-0.3l3.3-3.8c0.5-0.5,1.2-0.7,1.8-0.5
				c0.2,0,0.3,0.1,0.5,0.1c0.7,0.2,1.2,0.7,1.3,1.4l0.9,4.9c0.2,0.9,1,1.5,1.9,1.5l5.3-0.4c0.9-0.1,1.6-0.8,1.7-1.8l0.1-5.1
				c0-0.7,0.4-1.3,1.1-1.6c0,0,0,0,0,0c0.1-0.1,0.3-0.1,0.4-0.2c0.6-0.3,1.4-0.2,1.9,0.2l3.8,3.2c0.7,0.6,1.8,0.5,2.4-0.1l3.8-3.7
				c0.7-0.6,0.7-1.7,0.1-2.4l-3.2-4c-0.4-0.5-0.5-1.3-0.2-1.9c0.1-0.1,0.1-0.3,0.2-0.4c0.3-0.6,0.9-1.1,1.6-1.1l5,0
				c0.9,0,1.7-0.7,1.8-1.6l0.5-5.3C254.3,330,253.7,329.2,252.7,329z M232.6,340.8c-5.4,2.5-11.7,0.1-14.2-5.3
				c-2.5-5.4-0.1-11.7,5.3-14.2c5.4-2.5,11.7-0.1,14.2,5.3C240.4,332,238,338.4,232.6,340.8z"/>
		</g>
		<g>
			<path class="st6" d="M314.8,268.7l-4.5-6.5c-0.8-1.1-2.3-1.5-3.5-0.8l-6.6,3.6c-0.9,0.5-2,0.4-2.8-0.2c-0.2-0.1-0.4-0.3-0.6-0.4
				c-0.9-0.6-1.3-1.6-1.1-2.7l1.2-7.2c0.2-1.3-0.6-2.7-1.9-3l-7.6-2.1c-1.3-0.4-2.7,0.3-3.2,1.6l-2.7,7c-0.4,1-1.3,1.6-2.3,1.7
				c-0.2,0-0.5,0-0.7,0.1c-1,0.1-2-0.4-2.6-1.3l-3.7-6.3c-0.7-1.2-2.2-1.6-3.4-1.1l-7.2,3.3c-1.2,0.6-1.9,2-1.4,3.3l2.4,7
				c0.3,1,0.1,2.1-0.7,2.8c-0.2,0.2-0.4,0.4-0.5,0.5c-0.7,0.8-1.8,1-2.8,0.7l-6.8-2.4c-1.3-0.5-2.7,0.1-3.3,1.4l-3.4,7.1
				c-0.6,1.2-0.1,2.7,1,3.4l6.4,3.8c0.9,0.5,1.4,1.5,1.3,2.6c0,0.3,0,0.5-0.1,0.8c-0.1,1-0.7,2-1.7,2.3l-6.8,2.5
				c-1.3,0.5-2,1.8-1.7,3.2l2,7.6c0.3,1.3,1.6,2.2,3,2l7.3-1.2c1-0.2,2,0.3,2.6,1.1c0.1,0.2,0.3,0.4,0.4,0.6c0.6,0.9,0.7,2,0.2,2.9
				l-3.6,6.3c-0.7,1.2-0.3,2.7,0.8,3.5l6.4,4.6c1.1,0.8,2.6,0.6,3.5-0.4l4.9-5.6c0.7-0.8,1.7-1.1,2.7-0.8c0.2,0.1,0.5,0.1,0.7,0.2
				c1,0.3,1.8,1.1,2,2.1l1.3,7.2c0.2,1.3,1.5,2.3,2.8,2.2l7.9-0.6c1.4-0.1,2.4-1.2,2.4-2.6l0.1-7.5c0-1,0.7-2,1.6-2.4c0,0,0,0,0.1,0
				c0.2-0.1,0.4-0.2,0.6-0.3c0.9-0.5,2-0.3,2.8,0.4l5.6,4.7c1.1,0.9,2.6,0.8,3.6-0.2l5.6-5.5c1-1,1.1-2.5,0.2-3.6l-4.7-5.8
				c-0.6-0.8-0.8-1.9-0.3-2.8c0.1-0.2,0.2-0.4,0.3-0.6c0.4-1,1.4-1.6,2.4-1.6l7.4,0c1.4,0,2.5-1.1,2.6-2.4l0.7-7.9
				c0.1-1.4-0.8-2.6-2.1-2.9l-7.4-1.4c-1-0.2-1.8-1-2.1-2c-0.1-0.2-0.1-0.4-0.2-0.7c-0.3-1,0-2.1,0.8-2.8l5.6-4.8
				C315.4,271.4,315.6,269.9,314.8,268.7z M287.8,301.4c-8,3.6-17.4,0.2-21-7.8c-3.6-8-0.2-17.4,7.8-21c8-3.6,17.4-0.2,21,7.8
				C299.2,288.4,295.7,297.8,287.8,301.4z"/>
			<path class="st6" d="M249.4,311.7l-3-4.4c-0.5-0.8-1.5-1-2.3-0.6l-4.4,2.4c-0.6,0.3-1.4,0.3-1.9-0.1c-0.1-0.1-0.3-0.2-0.4-0.3
				c-0.6-0.4-0.9-1.1-0.8-1.8l0.8-4.9c0.2-0.9-0.4-1.8-1.3-2l-5.1-1.4c-0.9-0.2-1.8,0.2-2.2,1.1l-1.8,4.7c-0.3,0.7-0.9,1.1-1.6,1.1
				c-0.2,0-0.3,0-0.5,0c-0.7,0.1-1.4-0.3-1.7-0.9l-2.5-4.3c-0.5-0.8-1.5-1.1-2.3-0.7l-4.9,2.2c-0.8,0.4-1.3,1.3-1,2.2l1.6,4.7
				c0.2,0.7,0,1.4-0.5,1.9c-0.1,0.1-0.2,0.2-0.4,0.4c-0.5,0.5-1.2,0.7-1.9,0.4l-4.6-1.7c-0.9-0.3-1.8,0.1-2.2,0.9l-2.3,4.8
				c-0.4,0.8-0.1,1.8,0.7,2.3l4.3,2.6c0.6,0.4,0.9,1,0.9,1.7c0,0.2,0,0.3,0,0.5c-0.1,0.7-0.5,1.3-1.2,1.6l-4.6,1.7
				c-0.9,0.3-1.3,1.2-1.1,2.1l1.3,5.2c0.2,0.9,1.1,1.5,2,1.3l5-0.8c0.7-0.1,1.4,0.2,1.8,0.8c0.1,0.1,0.2,0.3,0.3,0.4
				c0.4,0.6,0.5,1.3,0.1,1.9l-2.4,4.3c-0.5,0.8-0.2,1.8,0.5,2.4l4.4,3.1c0.8,0.5,1.8,0.4,2.4-0.3l3.3-3.8c0.5-0.5,1.2-0.7,1.8-0.5
				c0.2,0,0.3,0.1,0.5,0.1c0.7,0.2,1.2,0.7,1.3,1.4l0.9,4.9c0.2,0.9,1,1.5,1.9,1.5l5.3-0.4c0.9-0.1,1.6-0.8,1.7-1.8l0.1-5.1
				c0-0.7,0.4-1.3,1.1-1.6c0,0,0,0,0,0c0.1-0.1,0.3-0.1,0.4-0.2c0.6-0.3,1.4-0.2,1.9,0.2l3.8,3.2c0.7,0.6,1.8,0.5,2.4-0.1l3.8-3.7
				c0.7-0.6,0.7-1.7,0.1-2.4l-3.2-4c-0.4-0.5-0.5-1.3-0.2-1.9c0.1-0.1,0.1-0.3,0.2-0.4c0.3-0.6,0.9-1.1,1.6-1.1l5,0
				c0.9,0,1.7-0.7,1.8-1.6l0.5-5.3c0.1-0.9-0.5-1.8-1.4-1.9l-5-1c-0.7-0.1-1.2-0.7-1.4-1.3c0-0.2-0.1-0.3-0.1-0.5
				c-0.2-0.7,0-1.4,0.6-1.9l3.8-3.2C249.8,313.5,249.9,312.5,249.4,311.7z M231.1,333.8c-5.4,2.5-11.7,0.1-14.2-5.3
				c-2.5-5.4-0.1-11.7,5.3-14.2c5.4-2.5,11.7-0.1,14.2,5.3C238.8,325,236.5,331.3,231.1,333.8z"/>
		</g>
	</g>
	<g>
		<path d="M388,365.3l65.8-93.1l-5.6-16.7l-16.8-9l-0.6-0.3l-14.1,2.9L357,345.2l-4.8,30.6l-1.9,12.1c-0.1,0.7,0.7,1.3,1.3,0.9
			l0.1-0.1l8.7-5.6L388,365.3L388,365.3L388,365.3z"/>
		<g>
			<path class="st15" d="M361.3,345.2l-4.8,30.6l-1.9,12.1c-0.1,0.7,0.7,1.3,1.3,0.9l0.1-0.1l8.7-5.6l27.6-17.8
				c-1.7-5.2-3.8-9.2-6.2-12.2c-3.8-4.8-8.3-7.2-12.3-8.2c-0.6-0.2-1.3-0.3-1.9-0.4C366,343.6,361.3,345.2,361.3,345.2z"/>
			<polygon class="st16" points="421.1,249.1 361.3,345.2 371.6,345.4 373.5,345.5 385.8,353.6 392.4,365.3 458.2,272.2 
				452.5,255.5 435.8,246.5 435.2,246.2 			"/>
			<polygon class="st8" points="435.2,246.2 389,320.5 373.9,344.9 373.5,345.5 385.8,353.6 386.2,353.1 452.5,255.5 435.8,246.5 
							"/>
			<polygon class="st17" points="421.1,249.1 361.3,345.2 371.6,345.4 373.5,345.5 373.9,344.9 389,320.5 435.2,246.2 			"/>
			<path class="st18" d="M356.5,375.9l-1.9,12.1c-0.1,0.7,0.7,1.3,1.3,0.9l0.1-0.1l8.7-5.6c-0.8-1.6-1.9-3.3-3.6-4.7
				C359.9,377.3,358.4,376.4,356.5,375.9z"/>
			<polygon class="st19" points="391.4,365.9 384.7,354.4 372.9,346.7 361.2,346.6 361.3,345.2 373.5,345.5 385.8,353.6 
				392.4,365.3 			"/>
		</g>
	</g>
	<g>
		<path d="M431,49.9L420.7,42c-2.8-2.2-6.9-1.7-9.1,1.2l-40.2,52c-3.5-0.7-7.2,0.5-9.5,3.5l-4.6,6l11.4,8.8l-33.4,43.2l-0.7,0.9
			l-5.6-4.3L311,187.1l7,5.4l28.1-26.2l-5.6-4.3l1-1.3l0,0l32.4-41.9l0,0l0.7-0.9l12.2,9.4l4.6-6c2.5-3.2,2.6-7.4,0.7-10.7l40-51.8
			C434.3,56.1,433.8,52.1,431,49.9z"/>
		<g>
			
				<rect x="325.6" y="128.6" transform="matrix(0.6115 -0.7913 0.7913 0.6115 33.0505 331.9789)" class="st20" width="58" height="7.4"/>
			<polygon class="st20" points="311.2,181.3 329.4,147.4 346.4,160.5 318.3,186.7 			"/>
			
				<rect x="370.9" y="106.4" transform="matrix(0.6115 -0.7913 0.7913 0.6115 57.3514 336.9425)" class="st21" width="1.8" height="7.4"/>
			
				<rect x="337.4" y="149.7" transform="matrix(0.6115 -0.7913 0.7913 0.6115 10.0925 327.2926)" class="st21" width="1.8" height="7.4"/>
			<path class="st6" d="M357.6,98.8l4.6-6c3.2-4.2,9.3-5,13.4-1.7l14.3,11c4.2,3.2,5,9.3,1.7,13.4l-4.6,6L357.6,98.8z"/>
			<path class="st6" d="M368.9,93l43-55.6c2.2-2.8,6.3-3.4,9.1-1.2l10.2,7.9c2.8,2.2,3.4,6.3,1.2,9.1l-43,55.6L368.9,93z"/>
			<path class="st21" d="M382.8,88.1l31.4-40.6c1.5-2,4.4-2.3,6.4-0.8l0,0c2,1.5,2.3,4.4,0.8,6.4L390,93.7c-1.5,2-4.4,2.3-6.4,0.8
				l0,0C381.7,93,381.3,90.1,382.8,88.1z"/>
		</g>
	</g>
	<g>
		<path d="M243,152.6l-0.6-1.8c0,0,0,0,0,0l-7.2-22.1l-5.8-17.8v0l-0.6-1.8c-0.7-2.2-3.1-3.4-5.3-2.7l-2.9,1l-5.3-16.4
			c-2.8-8.8-12.3-13.6-21-10.7l-10.2,3.3c-8.8,2.8-13.6,12.3-10.7,21l4.7,14.3l0,0l0.7,2l0,0l0,0l-3.8,1.2c-2.2,0.7-3.4,3.1-2.7,5.3
			l6.3,19.5l7.8,23.9c1.3,4,5.7,6.3,9.7,4.9l42-13.6C242.1,161,244.3,156.7,243,152.6z M183.7,119.5L183.7,119.5l-0.7-2l0,0
			l-4.7-14.3c-2-6.1,1.4-12.6,7.4-14.6l10.2-3.3c6.1-2,12.6,1.4,14.6,7.4l5.3,16.4L183.7,119.5L183.7,119.5z"/>
		<g>
			<path class="st16" d="M239.1,158.1l-42,13.6c-4,1.3-8.4-0.9-9.7-4.9l-13.5-41.7c-0.7-2.2,0.5-4.6,2.7-5.3l48.6-15.8
				c2.2-0.7,4.6,0.5,5.3,2.7l13.5,41.7C245.4,152.5,243.2,156.8,239.1,158.1z"/>
			<g>
				<path class="st22" d="M195.4,76.2l-10.2,3.3c-8.8,2.8-13.6,12.3-10.7,21l7.3,22.6l41.9-13.6l-7.3-22.6
					C213.6,78.1,204.1,73.3,195.4,76.2z M217.3,106.2l-32.2,10.4l-5.8-17.7c-2-6.1,1.4-12.6,7.4-14.6l10.2-3.3
					c6.1-2,12.6,1.4,14.6,7.4L217.3,106.2z"/>
			</g>
			<path class="st8" d="M238.6,156.4l-42,13.6c-4,1.3-8.4-0.9-9.7-4.9l-13.5-41.7c-0.7-2.2,0.5-4.6,2.7-5.3l48.6-15.8
				c2.2-0.7,4.6,0.5,5.3,2.7l13.5,41.7C244.8,150.7,242.6,155.1,238.6,156.4z"/>
			<path class="st16" d="M215.9,129.2c-1.5-4.7-6.6-7.3-11.3-5.8c-4.7,1.5-7.3,6.6-5.8,11.3c0.7,2.2,2.3,4,4.2,5.1l3.5,10.7
				c1.1,3.4,4.8,5.3,8.2,4.2c3.4-1.1,5.3-4.8,4.2-8.2l-3.5-10.7C216.4,133.8,216.7,131.5,215.9,129.2z"/>
			<path class="st4" d="M204.6,123.5c-0.6,0.2-1.2,0.5-1.7,0.8c0.3-0.1,0.5-0.2,0.8-0.3c4.7-1.5,9.8,1,11.3,5.8
				c0.7,2.2,0.5,4.6-0.4,6.6l3.5,10.7c1,2.9-0.3,6.1-2.8,7.6c3.1-1.3,4.8-4.8,3.7-8.1l-3.5-10.7c0.9-2,1.1-4.3,0.4-6.6
				C214.4,124.5,209.3,122,204.6,123.5z"/>
			
				<rect x="179.4" y="114" transform="matrix(0.9511 -0.3088 0.3088 0.9511 -26.6459 61.8116)" class="st4" width="5.1" height="2.1"/>
			
				<rect x="216.4" y="102" transform="matrix(0.9511 -0.3089 0.3089 0.9511 -21.1199 72.6757)" class="st4" width="5.1" height="2.1"/>
		</g>
	</g>
</g>
</svg>
