<svg xmlns="http://www.w3.org/2000/svg" viewBox="0 0 500 372.06"><defs><style>.cls-1{fill:#ebebeb;}.cls-2{fill:#e6e6e6;}.cls-3{fill:#fafafa;}.cls-4{fill:#f0f0f0;}.cls-5{fill:#f5f5f5;}.cls-6{fill:#e0e0e0;}.cls-7{fill:#407bff;}.cls-10,.cls-19,.cls-20,.cls-21,.cls-27,.cls-29,.cls-31,.cls-8{fill:#fff;}.cls-8{opacity:0.9;}.cls-21,.cls-9{opacity:0.4;}.cls-11,.cls-14,.cls-18,.cls-19{opacity:0.8;}.cls-12,.cls-14,.cls-18,.cls-23,.cls-24,.cls-30{isolation:isolate;}.cls-13{opacity:0.7;}.cls-15{opacity:0.1;}.cls-16,.cls-18{fill:#263238;}.cls-17,.cls-23{fill:#ffb573;}.cls-20,.cls-24,.cls-28{opacity:0.2;}.cls-22,.cls-27,.cls-30{opacity:0.3;}.cls-25{fill:#ed893e;}.cls-26{fill:#f7978d;}.cls-29{opacity:0.5;}.cls-31{opacity:0.6;}.cls-32{fill:#ff5652;}</style></defs><title>8960482_4045059</title><g id="Background_Complete" data-name="Background Complete"><rect class="cls-1" x="416.78" y="343.54" width="33.12" height="0.25"/><rect class="cls-1" x="322.53" y="346.26" width="8.69" height="0.25"/><rect class="cls-1" x="396.59" y="334.26" width="19.19" height="0.25"/><rect class="cls-1" x="52.46" y="335.94" width="43.19" height="0.25"/><rect class="cls-1" x="104.56" y="335.94" width="6.33" height="0.25"/><rect class="cls-1" x="131.47" y="340.16" width="93.68" height="0.25"/><path class="cls-1" d="M237,337.8H43.91a5.71,5.71,0,0,1-5.7-5.71V60.66A5.71,5.71,0,0,1,43.91,55H237a5.71,5.71,0,0,1,5.71,5.71V332.09A5.71,5.71,0,0,1,237,337.8ZM43.91,55.2a5.46,5.46,0,0,0-5.45,5.46V332.09a5.46,5.46,0,0,0,5.45,5.46H237a5.47,5.47,0,0,0,5.46-5.46V60.66A5.47,5.47,0,0,0,237,55.2Z" transform="translate(0 -54.95)"/><path class="cls-1" d="M453.31,338.06H260.21a5.72,5.72,0,0,1-5.71-5.71V60.92a5.72,5.72,0,0,1,5.71-5.71h193.1A5.71,5.71,0,0,1,459,60.92V332.35A5.71,5.71,0,0,1,453.31,338.06ZM260.21,55.46a5.47,5.47,0,0,0-5.46,5.46V332.35a5.47,5.47,0,0,0,5.46,5.46h193.1a5.47,5.47,0,0,0,5.46-5.46V60.92a5.47,5.47,0,0,0-5.46-5.46Z" transform="translate(0 -54.95)"/><rect class="cls-1" y="327.45" width="500" height="0.25"/><path class="cls-2" d="M75.66,148h90.69c11.62,0,14.42-16.26,3.45-20.08l-.43-.14c12.14-10.12-14.49-31.44-43.42-1.92,2.26-9.84-23.46-6.28-31.32,7.15C91.83,124.19,67.31,139.51,75.66,148Z" transform="translate(0 -54.95)"/><path class="cls-1" d="M318.23,107.45h54.38s12.75-4.8,11.1-17.52-20.9-2.12-20.9-2.12S368.64,70.06,350,75.1s-20.46,22.63-20.46,22.63S305.05,93.45,318.23,107.45Z" transform="translate(0 -54.95)"/><path class="cls-1" d="M368.19,143.23h35.9s8.42-3.17,7.33-11.57-13.8-1.4-13.8-1.4,3.85-11.71-8.46-8.39a18.21,18.21,0,0,0-13.5,14.94S359.49,134,368.19,143.23Z" transform="translate(0 -54.95)"/><path class="cls-1" d="M361.29,325.21l-.1-10.62V314l-.09-9.47v-.6l-.09-9v-.59l-.08-8.57v-.56l-.08-8.18v-.52l-.08-7.82v-.49l-.07-7.47v-.48l-.06-6.18a4.5,4.5,0,0,1-1,.47l0,5.22-6.62,0,5.34-4.89a10.75,10.75,0,0,1-1.67.2l-4.4,4,.08-4.72a3.68,3.68,0,0,1-1-.6l-.12,6.48v.48l-.12,7.47v.51l-.15,7.79V277l-.14,8.16v.56l-.15,8.57v.59l-.16,9v.61l-.17,9.46v.64l-.18,10.61L349.16,371l12.76.15Zm-1.33-2-7.69-8.31h7.64Zm-.12-9.3h-7.61l7.55-7.94Zm.08-11.67-7.32-7.5,7.28,0Zm-.09-8.53-7.24,0,7.2-7.21Zm-.05-9.93-7-6.81,6.94,0Zm0-7.87-6.92,0,6.86-6.58Zm-.12-15.15,0,6.23-6.67-6.2Zm-7.52,1.42,6.67,6.22-6.76,0Zm-.1,7.3,6.76,0L351.89,276Zm-.14,9.11,7,6.82-7.06,0Zm-.1,7.86,7.09,0-7.19,7.18Zm-.14,9.93,7.33,7.53h-7.43Zm-.07,8.54H359l-7.56,7.9Zm-.05,10.46,7.69,8.34h-7.81Z" transform="translate(0 -54.95)"/><path class="cls-1" d="M360.53,252.94l-.51,0-.37-.34-3,2.8a11.79,11.79,0,0,0,1.66-.2l1.25-1.14v.77a4.88,4.88,0,0,0,1-.47Zm-9.26.06,0,1.12a4.43,4.43,0,0,0,1,.6l0-1.72Z" transform="translate(0 -54.95)"/><path class="cls-1" d="M362,252.11a1.8,1.8,0,0,1-.53,1.52l-.36.34a4.83,4.83,0,0,1-.6.41,4.88,4.88,0,0,1-1,.47,6.74,6.74,0,0,1-1.25.37,11.79,11.79,0,0,1-1.66.2h-.75a9.13,9.13,0,0,1-3.57-.72,4.43,4.43,0,0,1-1-.6l-.09-.07-.33-.32a1.66,1.66,0,0,1-.48-1.47l.76-4.26-2,0,7-3.55,7.29,3.32-2.05,0Z" transform="translate(0 -54.95)"/><polygon class="cls-1" points="394.12 202.5 394.39 316.07 402.63 316.07 450.53 316.07 458.77 316.07 459.13 202.5 394.12 202.5"/><polygon class="cls-1" points="406.69 188.05 406.72 213.37 411.82 213.37 441.47 213.37 446.57 213.37 446.62 188.05 406.69 188.05"/><polygon class="cls-3" points="406.64 213.37 398.22 213.37 398.21 205.78 406.63 205.78 406.64 213.37"/><rect class="cls-3" x="414.37" y="205.78" width="8.42" height="7.59"/><rect class="cls-3" x="430.53" y="205.78" width="8.42" height="7.59"/><polygon class="cls-4" points="455.1 213.37 446.68 213.37 446.7 205.78 455.12 205.78 455.1 213.37"/><polygon class="cls-4" points="406.53 227.19 398.31 227.19 398.29 219.79 406.52 219.79 406.53 227.19"/><rect class="cls-4" x="414.43" y="219.79" width="8.23" height="7.4"/><rect class="cls-3" x="430.57" y="219.79" width="8.23" height="7.4"/><polygon class="cls-3" points="454.92 227.19 446.69 227.19 446.71 219.79 454.94 219.79 454.92 227.19"/><polygon class="cls-4" points="406.46 240.68 398.43 240.68 398.41 233.46 406.45 233.46 406.46 240.68"/><rect class="cls-3" x="414.54" y="233.46" width="8.04" height="7.22"/><rect class="cls-3" x="430.65" y="233.46" width="8.04" height="7.22"/><rect class="cls-3" x="414.16" y="194.76" width="8.58" height="7.74"/><rect class="cls-4" x="430.33" y="194.76" width="8.59" height="7.74"/><polygon class="cls-4" points="454.79 240.68 446.76 240.68 446.77 233.46 454.81 233.46 454.79 240.68"/><polygon class="cls-3" points="406.44 253.84 398.59 253.84 398.57 246.8 406.43 246.8 406.44 253.84"/><rect class="cls-4" x="414.68" y="246.8" width="7.85" height="7.05"/><polygon class="cls-4" points="438.63 253.84 430.78 253.84 430.79 246.8 438.64 246.8 438.63 253.84"/><polygon class="cls-3" points="454.72 253.84 446.87 253.84 446.89 246.8 454.74 246.8 454.72 253.84"/><polygon class="cls-4" points="406.79 268.64 398.04 268.64 398.02 260.8 406.78 260.8 406.79 268.64"/><polygon class="cls-3" points="422.85 268.64 414.11 268.64 414.1 260.8 422.86 260.8 422.85 268.64"/><polygon class="cls-3" points="438.92 268.64 430.17 268.64 430.17 260.8 438.93 260.8 438.92 268.64"/><polygon class="cls-4" points="454.98 268.64 446.23 268.64 446.25 260.8 455 260.8 454.98 268.64"/><polygon class="cls-4" points="406.84 281.15 398.29 281.15 398.27 273.49 406.83 273.49 406.84 281.15"/><rect class="cls-3" x="414.34" y="273.49" width="8.55" height="7.66"/><rect class="cls-4" x="430.41" y="273.49" width="8.55" height="7.66"/><polygon class="cls-3" points="455.01 281.15 446.46 281.15 446.48 273.49 455.04 273.49 455.01 281.15"/><polygon class="cls-3" points="406.66 295.21 398.32 295.21 398.31 287.76 406.65 287.76 406.66 295.21"/><rect class="cls-3" x="414.35" y="287.76" width="8.34" height="7.46"/><rect class="cls-4" x="430.38" y="287.76" width="8.34" height="7.46"/><polygon class="cls-4" points="454.74 295.21 446.41 295.21 446.42 287.76 454.76 287.76 454.74 295.21"/><polygon class="cls-4" points="406.66 308.01 398.52 308.01 398.51 300.74 406.65 300.74 406.66 308.01"/><polygon class="cls-3" points="454.71 308.01 446.58 308.01 446.59 300.74 454.73 300.74 454.71 308.01"/><polygon class="cls-5" points="438.76 300.74 414.46 300.74 414.51 302.56 415.18 302.56 415.19 316.07 417.62 316.07 417.61 302.56 435.65 302.56 435.63 316.07 438.06 316.07 438.08 302.56 438.81 302.56 438.76 300.74"/><polygon class="cls-2" points="426.73 316.07 417.73 316.07 417.73 302.56 426.74 302.56 426.73 316.07"/><polygon class="cls-1" points="435.52 316.07 426.51 316.07 426.52 302.56 435.54 302.56 435.52 316.07"/><polygon class="cls-5" points="394.21 238.63 394.39 316.07 384.06 316.07 324 316.07 313.66 316.07 312.92 238.63 394.21 238.63"/><polygon class="cls-2" points="378.76 255.84 388.84 255.84 388.81 246.8 378.73 246.8 378.76 255.84"/><polygon class="cls-2" points="358.65 255.84 368.73 255.84 368.69 246.8 358.6 246.8 358.65 255.84"/><polygon class="cls-2" points="338.54 255.84 348.62 255.84 348.56 246.8 338.48 246.8 338.54 255.84"/><polygon class="cls-2" points="318.43 255.84 328.51 255.84 328.43 246.8 318.35 246.8 318.43 255.84"/><polygon class="cls-2" points="378.38 273.49 389.24 273.49 389.21 263.76 378.34 263.76 378.38 273.49"/><polygon class="cls-2" points="358.31 273.49 369.17 273.49 369.12 263.76 358.25 263.76 358.31 273.49"/><polygon class="cls-2" points="338.23 273.49 349.09 273.49 349.03 263.76 338.16 263.76 338.23 273.49"/><polygon class="cls-2" points="318.16 273.49 329.02 273.49 328.94 263.76 318.07 263.76 318.16 273.49"/><polygon class="cls-2" points="378.66 289.63 389.2 289.63 389.18 280.2 378.63 280.2 378.66 289.63"/><polygon class="cls-2" points="358.61 289.63 369.15 289.63 369.11 280.2 358.56 280.2 358.61 289.63"/><polygon class="cls-2" points="338.56 289.63 349.1 289.63 349.04 280.2 338.49 280.2 338.56 289.63"/><polygon class="cls-2" points="318.5 289.63 329.04 289.63 328.97 280.2 318.42 280.2 318.5 289.63"/><polygon class="cls-2" points="378.89 306.2 389.11 306.2 389.09 297.06 378.85 297.06 378.89 306.2"/><polygon class="cls-2" points="318.81 306.2 329.04 306.2 328.96 297.06 318.73 297.06 318.81 306.2"/><polygon class="cls-5" points="338.08 297.06 369.71 297.06 369.72 299.82 367.7 299.82 367.78 316.07 364.85 316.07 364.77 299.82 343.07 299.82 343.18 316.07 340.26 316.07 340.14 299.82 338.11 299.82 338.08 297.06"/><polygon class="cls-2" points="354.09 316.07 364.92 316.07 364.84 299.82 353.99 299.82 354.09 316.07"/><polygon class="cls-1" points="343.11 316.07 353.94 316.07 353.85 299.82 343 299.82 343.11 316.07"/><path class="cls-1" d="M152.1,227.29v-3.64a.44.44,0,0,0-.87,0v4a.46.46,0,0,0,.43.44,1.75,1.75,0,1,1-1.75,1.74c0-.55-.92-.55-.87,0,.22,2.17,2.75,3.6,4.47,1.86A2.62,2.62,0,0,0,152.1,227.29Z" transform="translate(0 -54.95)"/><path class="cls-4" d="M88,201.12V209l-8.31-8.31-.41.41H78.7v75H89.16v-75Zm-8.14,57.22,7.32,7.32H79.86Zm0-18.61,7.32,7.32H79.86Zm0-18.6,7.32,7.32H79.86Zm0-18.61,7.32,7.33H79.86ZM87.18,211l-7.32,7.33V211Zm.82.82v7.33H80.68Zm-.82,17.79-7.32,7.32v-7.32Zm.82.82v7.32H80.68Zm-.82,17.78-7.32,7.33v-7.33ZM88,249v7.33H80.68Zm-.82,17.79-7.32,7.32v-7.32ZM80.68,275,88,267.64V275ZM88,264.84l-7.32-7.32H88Zm0-18.61-7.32-7.32H88Zm0-18.6-7.32-7.32H88Z" transform="translate(0 -54.95)"/><path class="cls-4" d="M79.86,176.42V191H81v-5.57l6,6,.41-.41H88V176.42ZM86,177.58l-5,5v-5Zm.82,12-5-5h5Zm-5-6.15,5-5v5Z" transform="translate(0 -54.95)"/><rect class="cls-2" x="46.81" y="146.17" width="13.95" height="13.95"/><polygon class="cls-2" points="151.85 166.3 151.07 166.3 151.07 139.47 86.1 117.93 81.81 117.93 47.02 139.52 46.61 138.87 81.58 117.15 86.23 117.15 86.29 117.17 151.85 138.91 151.85 166.3"/><path class="cls-4" d="M143.9,201.73h.8l8.16-8.16H46.23v8.13H143.9Zm1.16-7h5l-5,5Zm-97.67,5.81v-5l5,5Zm5.82-.82-5-5h5Zm1.16-5h5l-5,5Zm5.82,5.81h-5l5-5Zm1.16,0v-5l5,5Zm5.81-.82-5-5h5Zm1.16-5h5l-5,5Zm5.82,5.81h-5l5-5Zm1.16,0v-5l5,5Zm5.82-.82-5-5h5Zm1.16-5h5l-5,5Zm5.81,5.81h-5l5-5Zm1.16,0v-5l5,5Zm5.82-.82-5-5h5Zm1.16-5h5l-5,5Zm5.81,5.81h-5l5-5Zm1.16,0v-5l5,5Zm5.82-.82-5-5h5Zm1.16-5h5l-5,5Zm5.82,5.81h-5l5-5Zm1.16,0v-5l5,5Zm5.81-.82-5-5h5Zm1.16-5h5l-5,5Zm5.82,5.81h-5l5-5Zm1.16-5.81h5l-5,5Zm5.82,5.81h-5l5-5Zm1.16,0v-5l5,5Zm.82-5.81h5v5Z" transform="translate(0 -54.95)"/><path class="cls-4" d="M94.32,204.29H72.86l.79-9a4.71,4.71,0,0,1,4.7-4.31H88.57a4.73,4.73,0,0,1,4.69,4.18Z" transform="translate(0 -54.95)"/><rect class="cls-3" x="76.32" y="139.75" width="4.12" height="4.12"/><rect class="cls-3" x="81.53" y="139.75" width="4.12" height="4.12"/><rect class="cls-3" x="86.74" y="139.75" width="4.12" height="4.12"/><path class="cls-2" d="M86.74,174.19a2.81,2.81,0,1,1-2.81-2.81A2.81,2.81,0,0,1,86.74,174.19Z" transform="translate(0 -54.95)"/><path class="cls-2" d="M151.66,226.05h0a2.4,2.4,0,0,1-2.4-2.4v-2.4h4.8v2.4A2.4,2.4,0,0,1,151.66,226.05Z" transform="translate(0 -54.95)"/><polygon class="cls-5" points="38.04 202.5 39.9 316.07 48.15 316.07 96.05 316.07 104.29 316.07 103.06 202.5 38.04 202.5"/><polygon class="cls-2" points="42.1 205.78 42.33 219.6 42.39 223.4 42.45 227.19 50.88 227.19 50.82 223.4 50.77 219.6 50.55 205.78 42.1 205.78"/><polygon class="cls-2" points="58.26 205.78 58.47 219.6 58.52 223.4 58.58 227.19 67.01 227.19 66.96 223.4 66.91 219.6 66.72 205.78 58.26 205.78"/><polygon class="cls-2" points="74.42 205.78 74.61 219.6 74.66 223.4 74.71 227.19 83.14 227.19 83.1 223.4 83.05 219.6 82.88 205.78 74.42 205.78"/><polygon class="cls-2" points="90.59 205.78 90.75 219.6 90.82 225.47 90.84 227.19 99.28 227.19 99.26 225.47 99.19 219.6 99.04 205.78 90.59 205.78"/><polygon class="cls-2" points="42.61 233.46 42.84 247.26 42.9 251.06 42.96 254.84 51.4 254.84 51.35 251.06 51.29 247.26 51.08 233.46 42.61 233.46"/><polygon class="cls-2" points="58.73 233.46 58.93 247.26 59.01 252.61 59.04 254.84 67.49 254.84 67.46 252.61 67.39 247.26 67.19 233.46 58.73 233.46"/><polygon class="cls-2" points="74.84 233.46 75.03 247.26 75.08 251.06 75.13 254.84 83.58 254.84 83.53 251.06 83.48 247.26 83.31 233.46 74.84 233.46"/><polygon class="cls-2" points="90.96 233.46 91.13 247.26 91.17 251.06 91.22 254.84 99.66 254.84 99.62 251.06 99.58 247.26 99.43 233.46 90.96 233.46"/><polygon class="cls-2" points="43.09 260.8 43.31 274.55 43.38 278.32 43.44 282.1 51.87 282.1 51.81 278.32 51.75 274.55 51.55 260.8 43.09 260.8"/><polygon class="cls-2" points="59.17 260.8 59.37 274.55 59.42 278.32 59.48 282.1 67.91 282.1 67.86 278.32 67.81 274.55 67.62 260.8 59.17 260.8"/><polygon class="cls-2" points="75.24 260.8 75.42 274.55 75.47 278.32 75.52 282.1 83.96 282.1 83.91 278.32 83.86 274.55 83.69 260.8 75.24 260.8"/><polygon class="cls-2" points="91.32 260.8 91.48 274.55 91.54 279.76 91.57 282.1 100 282.1 99.98 279.76 99.92 274.55 99.77 260.8 91.32 260.8"/><polygon class="cls-2" points="96 287.76 91.83 287.76 84.02 287.76 75.67 287.76 67.86 287.76 59.52 287.76 43.36 287.76 43.48 295.21 59.63 295.21 67.96 295.21 75.77 295.21 84.11 295.21 91.92 295.21 96.09 295.21 100.26 295.21 100.18 287.76 96 287.76"/><polygon class="cls-3" points="84.01 300.74 59.71 300.74 59.69 302.56 60.42 302.56 60.62 316.07 63.05 316.07 62.85 302.56 80.89 302.56 81.06 316.07 83.48 316.07 83.32 302.56 83.99 302.56 84.01 300.74"/><polygon class="cls-2" points="72.16 316.07 63.16 316.07 62.96 302.56 71.98 302.56 72.16 316.07"/><polygon class="cls-2" points="80.94 316.07 71.94 316.07 71.76 302.56 80.77 302.56 80.94 316.07"/><polygon class="cls-2" points="164.38 209.05 165.11 316.07 157.34 316.07 112.21 316.07 104.44 316.07 103.11 209.05 164.38 209.05"/><polygon class="cls-4" points="142.74 289.63 146.05 289.63 160.9 289.63 160.92 293.06 160.94 296.48 161.04 308.91 153.35 308.91 153.25 296.14 145.75 296.14 142.79 296.14 138.47 296.14 138.41 289.63 142.74 289.63"/><polygon class="cls-4" points="113.44 289.63 116.4 289.63 130.5 289.63 130.57 296.14 115.98 296.14 116.13 308.91 108.44 308.91 108.3 296.48 108.24 291.53 108.21 289.63 113.44 289.63"/><polygon class="cls-5" points="124.18 301.65 145.09 301.65 145.11 303.48 145.34 303.48 145.44 316.07 143.18 316.07 143.07 303.48 126.25 303.48 126.38 316.07 124.12 316.07 123.98 303.48 124.2 303.48 124.18 301.65"/><polygon class="cls-1" points="134.69 316.07 143.09 316.07 142.98 303.48 134.57 303.48 134.69 316.07"/><polygon class="cls-6" points="126.47 316.07 134.87 316.07 134.75 303.48 126.34 303.48 126.47 316.07"/><polygon class="cls-4" points="137.31 213.37 160.62 213.37 160.76 233.46 137.5 233.46 137.31 213.37"/><polygon class="cls-4" points="107.09 213.37 130.4 213.37 130.59 233.46 107.33 233.46 107.09 213.37"/><polygon class="cls-4" points="137.96 238.63 160.27 238.63 160.42 257.83 138.13 257.83 137.96 238.63"/><polygon class="cls-4" points="107.79 238.63 130.1 238.63 130.3 257.83 108.01 257.83 107.79 238.63"/><polygon class="cls-4" points="138.19 264.74 160.63 264.74 160.77 283.99 138.36 283.99 138.19 264.74"/><polygon class="cls-4" points="108.11 264.74 130.55 264.74 130.74 283.99 108.33 283.99 108.11 264.74"/></g><g id="Background_Simple" data-name="Background Simple"><path class="cls-7" d="M134,151.81c-20.46,10.64-36.37,28.49-48.88,47.86-17.79,27.53-29.81,60.52-24.72,92.9S91.3,355.33,124,357.91c41.86,3.32,75.93-36.28,117.69-40.64,15.91-1.66,31.84,2,47.8,3,47.22,3,95.33-18.27,124.85-55.24,19.34-24.21,30.88-56.15,24.83-86.54-6.28-31.58-31.24-57.65-61.11-69.69s-63.85-11.2-94.81-2.33c-28.67,8.22-51.54,24-77.23,38.12-10.37,5.71-22.13-2-33.71-2.11A81.38,81.38,0,0,0,134,151.81Z" transform="translate(0 -54.95)"/><path class="cls-8" d="M134,151.81c-20.46,10.64-36.37,28.49-48.88,47.86-17.79,27.53-29.81,60.52-24.72,92.9S91.3,355.33,124,357.91c41.86,3.32,75.93-36.28,117.69-40.64,15.91-1.66,31.84,2,47.8,3,47.22,3,95.33-18.27,124.85-55.24,19.34-24.21,30.88-56.15,24.83-86.54-6.28-31.58-31.24-57.65-61.11-69.69s-63.85-11.2-94.81-2.33c-28.67,8.22-51.54,24-77.23,38.12-10.37,5.71-22.13-2-33.71-2.11A81.38,81.38,0,0,0,134,151.81Z" transform="translate(0 -54.95)"/></g><g id="Shadow"><ellipse id="_Path_" data-name="&lt;Path&gt;" class="cls-5" cx="250" cy="360.74" rx="193.89" ry="11.32"/></g><g id="Company"><polygon class="cls-7" points="160.83 29.67 164.56 34.49 335.42 34.49 339.18 29.67 160.83 29.67"/><g class="cls-9"><polygon points="160.83 29.67 164.56 34.49 335.42 34.49 339.18 29.67 160.83 29.67"/></g><rect class="cls-7" x="164.21" y="23.45" width="171.25" height="303.58"/><g class="cls-9"><rect class="cls-10" x="164.21" y="23.45" width="171.25" height="303.58"/></g><g class="cls-11"><path class="cls-4" d="M171.15,85.88a3.11,3.11,0,0,1-3.06,3.57,4,4,0,0,1-3.82-3.57,3.12,3.12,0,0,1,3.07-3.6A4,4,0,0,1,171.15,85.88Z" transform="translate(0 -54.95)"/><path class="cls-4" d="M177.46,85.88a3.14,3.14,0,0,1-3.1,3.57,4,4,0,0,1-3.78-3.57,3.14,3.14,0,0,1,3.09-3.6A4,4,0,0,1,177.46,85.88Z" transform="translate(0 -54.95)"/><path class="cls-4" d="M183.76,85.88a3.16,3.16,0,0,1-3.12,3.57,3.92,3.92,0,0,1-3.76-3.57,3.17,3.17,0,0,1,3.12-3.6A3.92,3.92,0,0,1,183.76,85.88Z" transform="translate(0 -54.95)"/><path class="cls-4" d="M190.06,85.88a3.2,3.2,0,0,1-3.15,3.57,3.89,3.89,0,0,1-3.73-3.57,3.21,3.21,0,0,1,3.16-3.6A3.88,3.88,0,0,1,190.06,85.88Z" transform="translate(0 -54.95)"/><path class="cls-4" d="M196.37,85.88a3.23,3.23,0,0,1-3.18,3.57,3.85,3.85,0,0,1-3.7-3.57,3.23,3.23,0,0,1,3.18-3.6A3.84,3.84,0,0,1,196.37,85.88Z" transform="translate(0 -54.95)"/><path class="cls-4" d="M202.67,85.88a3.26,3.26,0,0,1-3.21,3.57,3.81,3.81,0,0,1-3.67-3.57,3.26,3.26,0,0,1,3.21-3.6A3.8,3.8,0,0,1,202.67,85.88Z" transform="translate(0 -54.95)"/><path class="cls-4" d="M209,85.88a3.29,3.29,0,0,1-3.24,3.57,3.77,3.77,0,0,1-3.64-3.57,3.28,3.28,0,0,1,3.23-3.6A3.78,3.78,0,0,1,209,85.88Z" transform="translate(0 -54.95)"/><path class="cls-4" d="M215.28,85.88A3.32,3.32,0,0,1,212,89.45a3.73,3.73,0,0,1-3.61-3.57,3.32,3.32,0,0,1,3.26-3.6A3.74,3.74,0,0,1,215.28,85.88Z" transform="translate(0 -54.95)"/><path class="cls-4" d="M221.58,85.88a3.35,3.35,0,0,1-3.29,3.57,3.7,3.7,0,0,1-3.59-3.57,3.35,3.35,0,0,1,3.3-3.6A3.69,3.69,0,0,1,221.58,85.88Z" transform="translate(0 -54.95)"/><path class="cls-4" d="M227.89,85.88a3.39,3.39,0,0,1-3.33,3.57A3.65,3.65,0,0,1,221,85.88a3.38,3.38,0,0,1,3.32-3.6A3.66,3.66,0,0,1,227.89,85.88Z" transform="translate(0 -54.95)"/><path class="cls-4" d="M234.19,85.88a3.42,3.42,0,0,1-3.35,3.57,3.63,3.63,0,0,1-3.53-3.57,3.41,3.41,0,0,1,3.35-3.6A3.62,3.62,0,0,1,234.19,85.88Z" transform="translate(0 -54.95)"/><path class="cls-4" d="M240.49,85.88a3.45,3.45,0,0,1-3.38,3.57,3.6,3.6,0,0,1-3.5-3.57,3.45,3.45,0,0,1,3.38-3.6A3.58,3.58,0,0,1,240.49,85.88Z" transform="translate(0 -54.95)"/><path class="cls-4" d="M246.8,85.88a3.48,3.48,0,0,1-3.41,3.57,3.55,3.55,0,0,1-3.47-3.57,3.48,3.48,0,0,1,3.41-3.6A3.56,3.56,0,0,1,246.8,85.88Z" transform="translate(0 -54.95)"/><path class="cls-4" d="M253.1,85.88a3.44,3.44,0,1,1-3.44-3.6A3.51,3.51,0,0,1,253.1,85.88Z" transform="translate(0 -54.95)"/><path class="cls-4" d="M259.4,85.88a3.54,3.54,0,0,1-3.46,3.57,3.48,3.48,0,0,1-3.41-3.57,3.54,3.54,0,0,1,3.46-3.6A3.48,3.48,0,0,1,259.4,85.88Z" transform="translate(0 -54.95)"/><path class="cls-4" d="M265.71,85.88a3.58,3.58,0,0,1-3.5,3.57,3.45,3.45,0,0,1-3.38-3.57,3.58,3.58,0,0,1,3.49-3.6A3.46,3.46,0,0,1,265.71,85.88Z" transform="translate(0 -54.95)"/><path class="cls-4" d="M272,85.88a3.62,3.62,0,0,1-3.52,3.57,3.43,3.43,0,0,1-3.36-3.57,3.62,3.62,0,0,1,3.53-3.6A3.42,3.42,0,0,1,272,85.88Z" transform="translate(0 -54.95)"/><path class="cls-4" d="M278.32,85.88a3.66,3.66,0,0,1-3.56,3.57,3.38,3.38,0,0,1-3.32-3.57,3.65,3.65,0,0,1,3.55-3.6A3.39,3.39,0,0,1,278.32,85.88Z" transform="translate(0 -54.95)"/><path class="cls-4" d="M284.62,85.88A3.7,3.7,0,0,1,281,89.45a3.36,3.36,0,0,1-3.3-3.57,3.69,3.69,0,0,1,3.58-3.6A3.35,3.35,0,0,1,284.62,85.88Z" transform="translate(0 -54.95)"/><path class="cls-4" d="M290.92,85.88a3.72,3.72,0,0,1-3.6,3.57A3.33,3.33,0,0,1,284,85.88a3.73,3.73,0,0,1,3.61-3.6A3.32,3.32,0,0,1,290.92,85.88Z" transform="translate(0 -54.95)"/><path class="cls-4" d="M297.23,85.88a3.77,3.77,0,0,1-3.64,3.57,3.29,3.29,0,0,1-3.24-3.57,3.76,3.76,0,0,1,3.64-3.6A3.3,3.3,0,0,1,297.23,85.88Z" transform="translate(0 -54.95)"/><path class="cls-4" d="M303.53,85.88a3.8,3.8,0,0,1-3.66,3.57,3.27,3.27,0,0,1-3.22-3.57,3.8,3.8,0,0,1,3.67-3.6A3.26,3.26,0,0,1,303.53,85.88Z" transform="translate(0 -54.95)"/><path class="cls-4" d="M309.83,85.88a3.83,3.83,0,0,1-3.69,3.57A3.24,3.24,0,0,1,303,85.88a3.84,3.84,0,0,1,3.7-3.6A3.23,3.23,0,0,1,309.83,85.88Z" transform="translate(0 -54.95)"/><path class="cls-4" d="M316.14,85.88a3.88,3.88,0,0,1-3.72,3.57,3.2,3.2,0,0,1-3.16-3.57,3.87,3.87,0,0,1,3.72-3.6A3.21,3.21,0,0,1,316.14,85.88Z" transform="translate(0 -54.95)"/><path class="cls-4" d="M322.44,85.88a3.92,3.92,0,0,1-3.75,3.57,3.18,3.18,0,0,1-3.13-3.57,3.92,3.92,0,0,1,3.75-3.6A3.18,3.18,0,0,1,322.44,85.88Z" transform="translate(0 -54.95)"/><path class="cls-4" d="M328.75,85.88A4,4,0,0,1,325,89.45a3.14,3.14,0,0,1-3.1-3.57,4,4,0,0,1,3.78-3.6A3.15,3.15,0,0,1,328.75,85.88Z" transform="translate(0 -54.95)"/><path class="cls-4" d="M335.05,85.88a4,4,0,0,1-3.81,3.57,3.12,3.12,0,0,1-3.07-3.57,4,4,0,0,1,3.81-3.6A3.12,3.12,0,0,1,335.05,85.88Z" transform="translate(0 -54.95)"/></g><polygon class="cls-7" points="160.82 24.79 339.19 24.79 339.18 29.67 160.83 29.67 160.82 24.79"/><polygon class="cls-7" points="160.81 19.91 164.53 24.79 335.44 24.79 339.2 19.91 160.81 19.91"/><g class="cls-9"><polygon points="160.81 19.91 164.53 24.79 335.44 24.79 339.2 19.91 160.81 19.91"/></g><polygon class="cls-7" points="160.79 15.01 339.21 15.01 339.2 19.91 160.81 19.91 160.79 15.01"/><g class="cls-12"><polygon class="cls-7" points="164.52 19.91 335.45 19.91 335.44 24.79 164.53 24.79 164.52 19.91"/></g><g class="cls-11"><polygon class="cls-10" points="164.52 19.91 335.45 19.91 335.44 24.79 164.53 24.79 164.52 19.91"/></g><g class="cls-13"><rect class="cls-10" x="164.26" y="120.86" width="171.24" height="2.15"/></g><g class="cls-11"><rect class="cls-10" x="164.61" y="227.56" width="170.88" height="2.14"/></g><rect class="cls-7" x="199.75" y="43.83" width="21.17" height="22.87"/><rect class="cls-7" x="240.41" y="43.83" width="21.17" height="22.87"/><rect class="cls-7" x="281.07" y="43.83" width="21.17" height="22.87"/><rect class="cls-7" x="199.75" y="78.08" width="21.17" height="22.87"/><rect class="cls-7" x="240.41" y="78.08" width="21.17" height="22.87"/><rect class="cls-7" x="281.07" y="78.08" width="21.17" height="22.87"/><rect class="cls-7" x="199.75" y="244.03" width="21.17" height="22.87"/><rect class="cls-7" x="240.41" y="244.03" width="21.17" height="22.87"/><rect class="cls-7" x="281.07" y="244.03" width="21.17" height="22.87"/><rect class="cls-7" x="177.07" y="292.18" width="21.17" height="22.87"/><rect class="cls-7" x="301.45" y="292.18" width="21.17" height="22.87"/><rect class="cls-7" x="199.75" y="141.03" width="21.17" height="22.87"/><rect class="cls-7" x="240.41" y="141.03" width="21.17" height="22.87"/><rect class="cls-7" x="281.07" y="141.03" width="21.17" height="22.87"/><rect class="cls-7" x="199.75" y="175.27" width="21.17" height="22.87"/><rect class="cls-7" x="240.41" y="175.27" width="21.17" height="22.87"/><rect class="cls-7" x="281.07" y="175.27" width="21.17" height="22.87"/><g class="cls-14"><polygon class="cls-10" points="225.35 294.87 247.26 294.87 247.17 317.62 225.2 317.62 225.35 294.87"/></g><g class="cls-14"><polygon class="cls-10" points="251.49 294.87 274.3 294.87 273.22 317.62 251.25 317.62 251.49 294.87"/></g><polygon class="cls-7" points="277.79 322.2 219.98 322.2 219.75 317.62 278.01 317.62 277.79 322.2"/><g class="cls-15"><polygon class="cls-10" points="277.79 322.2 219.98 322.2 219.75 317.62 278.01 317.62 277.79 322.2"/></g><polygon class="cls-7" points="280.12 327.04 217.94 327.04 217.69 322.52 280.35 322.52 280.12 327.04"/><g class="cls-9"><polygon class="cls-10" points="282.18 286.81 215.72 286.81 215.43 281.65 282.44 281.65 282.18 286.81"/></g><polygon class="cls-16" points="215.72 286.81 225.35 294.87 274.3 294.87 282.18 286.81 215.72 286.81"/><path class="cls-7" d="M220.22,345.53l3.4,27h2.7l-1.09-27h0a5.47,5.47,0,0,0-5,0Z" transform="translate(0 -54.95)"/><path class="cls-7" d="M278.62,345.53l-3.33,27h-2.7l1-27h0a4.56,4.56,0,0,1,5,0Z" transform="translate(0 -54.95)"/><path class="cls-16" d="M193.44,62.54c0-4.42,3.39-7.55,8-7.55a7.67,7.67,0,0,1,6.25,2.74l-2.61,2.36a4.34,4.34,0,0,0-3.43-1.7,4.15,4.15,0,0,0,0,8.3,4.31,4.31,0,0,0,3.43-1.7l2.61,2.37a7.7,7.7,0,0,1-6.25,2.74C196.83,70.1,193.44,67,193.44,62.54Z" transform="translate(0 -54.95)"/><path class="cls-16" d="M208.44,62.54c0-4.35,3.43-7.55,8.08-7.55s8.07,3.2,8.07,7.55-3.42,7.56-8.07,7.56S208.44,66.9,208.44,62.54Zm12,0a3.93,3.93,0,1,0-3.92,4.15A3.89,3.89,0,0,0,220.44,62.54Z" transform="translate(0 -54.95)"/><path class="cls-16" d="M239.86,69.81l0-7.7-3.74,6.27h-1.82l-3.72-6.06v7.49h-3.8V55.28h3.39l5.1,8.38,5-8.38h3.38l0,14.53Z" transform="translate(0 -54.95)"/><path class="cls-16" d="M259.63,60.66c0,3.29-2.49,5.35-6.45,5.35h-2.54v3.8h-4.1V55.28h6.64C257.14,55.28,259.63,57.34,259.63,60.66Zm-4.15,0c0-1.35-.85-2.14-2.55-2.14h-2.29v4.25h2.29C254.63,62.77,255.48,62,255.48,60.66Z" transform="translate(0 -54.95)"/><path class="cls-16" d="M270.63,67h-6.15l-1.14,2.83h-4.19l6.41-14.53h4.05L276,69.81h-4.27Zm-1.21-3-1.87-4.64L265.69,64Z" transform="translate(0 -54.95)"/><path class="cls-16" d="M291,55.28V69.81h-3.38l-6.41-7.74v7.74h-4V55.28h3.38L287,63V55.28Z" transform="translate(0 -54.95)"/><path class="cls-16" d="M301.7,64.6v5.21h-4.11V64.54l-5.54-9.26h4.34l3.45,5.77,3.44-5.77h4Z" transform="translate(0 -54.95)"/></g><g id="Character_2" data-name="Character 2"><path class="cls-17" d="M362.18,231.13c-5.37,7.24-7.45,10.57-9.53,12.62-2.27,2.24-25.45.53-28.25-.64-2.14-.9-.66-3.68.35-3.54,3.82.53,18.16-2,22.41-3.84.74-.33,8-9.16,8-9.16Z" transform="translate(0 -54.95)"/><path class="cls-7" d="M353.36,226.34c4.54-8.33,13.49-14.44,16.2-14.79,3.9-.51,5.21.27,4.07,3.4-1.94,5.33-5.51,10.93-10.54,17.71Z" transform="translate(0 -54.95)"/><g class="cls-15"><path d="M353.36,226.34c4.54-8.33,13.49-14.44,16.2-14.79,3.9-.51,5.21.27,4.07,3.4-1.94,5.33-5.51,10.93-10.54,17.71Z" transform="translate(0 -54.95)"/></g><path class="cls-7" d="M369.56,211.55a59.73,59.73,0,0,1,6.7-2,88.2,88.2,0,0,1,12.61-2.08,71.48,71.48,0,0,1,7.44-.41,3.19,3.19,0,0,1,.75.08,3.73,3.73,0,0,1,2.75,4.38c-4.17,22.05-4.37,31.83-3.77,43.19l-25.38.9a1.35,1.35,0,0,1-1.34-1.14c-1.13-5.72-4.64-18.43-4.64-18.43-3.17-3.05-3.7-6.81-4-9-.18-1.19,2.48-2.48,5.37-8.78C366,218.26,368.26,212,369.56,211.55Z" transform="translate(0 -54.95)"/><path class="cls-16" d="M385.6,255.06l-9.25.34c-1.38-11-1.12-20.71-.64-31.65A315.38,315.38,0,0,0,385.6,255.06Z" transform="translate(0 -54.95)"/><path class="cls-17" d="M388.28,339.66c-.23-.51-.46-1-.68-1.58C377.62,314.23,370,266,370,266L387.79,257s5.06,42.38,12,69.95c1.06,4.2,2.15,8,3.28,11.33l-12.15,5.58Z" transform="translate(0 -54.95)"/><g class="cls-14"><path class="cls-16" d="M388.28,339.66c-.23-.51-.46-1-.68-1.58C377.62,314.23,370,266,370,266L387.79,257s5.06,42.38,12,69.95c1.06,4.2,2.15,8,3.28,11.33l-12.15,5.58Z" transform="translate(0 -54.95)"/></g><path class="cls-17" d="M371.31,259.78s-8.14,57-6.22,80.31c2,24.57,9.3,66.64,9.3,66.64l6-.41a286.67,286.67,0,0,0-1.49-65.88c13.75-35.39,15.29-79.76,15.29-79.76Z" transform="translate(0 -54.95)"/><path class="cls-18" d="M371.31,259.78s-8.14,57-6.22,80.31c2,24.57,9.3,66.64,9.3,66.64l6-.41a286.67,286.67,0,0,0-1.49-65.88c13.75-35.39,15.29-79.76,15.29-79.76Z" transform="translate(0 -54.95)"/><path class="cls-16" d="M381.17,408.2a5.89,5.89,0,0,1,.67,2.58c.16,3.29.39,12.06.39,12.06l-.72.05s-.44-4.3-.94-6.45-.83-.3-1.93,2.05-4.19,4.76-8.89,5.2c-5.51.51-7.76.41-6.25-1.14s5.12-2.71,5.12-2.71,4.8-8.21,4.52-13.75c-.3-5.91,6.53-.36,7.85-1.19C381.46,405,380.9,407.72,381.17,408.2Z" transform="translate(0 -54.95)"/><path class="cls-16" d="M400.19,329c-3.49.75-6.59,3.32-15.76,4.24l-.55,0c-.39,0-.79.07-1.21.09-2.46.13-16.55-.53-19.16-2.06,2.27-23.45,6.74-73.28,6.74-73.28L381,256.71l13.87-.42s15.3,15.8,11.78,30.14C401.4,307.88,404,311.21,400.19,329Z" transform="translate(0 -54.95)"/><path class="cls-17" d="M395.91,243.44a3.5,3.5,0,0,1-1-2.84s0-1.58-.05-4c-.08-7-.14-21,.59-22.86,1.6-4,4.34-6.19,5.77-3.85,1.68,2.74,1.8,23.53,1.8,23.53C402.59,247.18,397.55,245.36,395.91,243.44Z" transform="translate(0 -54.95)"/><path class="cls-7" d="M392.58,206.65l-.84,1.51C388.5,214,381,221.61,378.07,222.35a10.85,10.85,0,0,0-3.07-4.08,6.4,6.4,0,0,0-3.28,3.85c-2.51-4.08-2.29-9.24-1.66-11.79h0c1.48-.45,3.06-.91,4.56-1.28a91,91,0,0,1,12.61-2A42.58,42.58,0,0,1,392.58,206.65Z" transform="translate(0 -54.95)"/><path class="cls-19" d="M392.58,206.65l-.84,1.51C388.5,214,381,221.61,378.07,222.35a37,37,0,0,1-1.39-4.34c-1.57.78-2.73,3-3.25,4.68-2.52-4.08-4-9.81-3.37-12.36h0c1.48-.45,3.06-.91,4.56-1.28a91,91,0,0,1,12.61-2A42.58,42.58,0,0,1,392.58,206.65Z" transform="translate(0 -54.95)"/><path class="cls-17" d="M373.28,235.26l-3.48-4.72-3.11,6.16s3.18,1.78,5.82,1.18Z" transform="translate(0 -54.95)"/><polygon class="cls-17" points="364.29 174.13 362.81 179.11 366.69 181.72 369.8 175.59 364.29 174.13"/><path class="cls-7" d="M396,257.61l-12.85.35-1.08,0-2.78.08-1.06,0-7.55.2c-.23,0-.44-.12-.45-.27l-.3-2.42c0-.16.19-.31.45-.32l7.46-.3.89,0,3.69-.14.87,0,12.38-.49a.5.5,0,0,1,.45.19l.3,2.75C396.54,257.4,396.32,257.6,396,257.61Z" transform="translate(0 -54.95)"/><path class="cls-20" d="M396,257.61l-12.85.35-1.08,0-2.78.08-1.06,0-7.55.2c-.23,0-.44-.12-.45-.27l-.3-2.42c0-.16.19-.31.45-.32l7.46-.3.89,0,3.69-.14.87,0,12.38-.49a.5.5,0,0,1,.45.19l.3,2.75C396.54,257.4,396.32,257.6,396,257.61Z" transform="translate(0 -54.95)"/><path class="cls-16" d="M374.26,258.51h.82a.23.23,0,0,0,.28-.21l-.46-3.43c0-.1-.16-.19-.33-.19l-.82,0c-.17,0-.29.1-.28.2l.46,3.44A.32.32,0,0,0,374.26,258.51Z" transform="translate(0 -54.95)"/><path class="cls-16" d="M388.58,258.3l.78,0a.22.22,0,0,0,.27-.18l-.47-3.45c0-.09-.16-.18-.31-.17l-.78,0c-.16,0-.27.08-.26.19l.46,3.42C388.28,258.23,388.42,258.3,388.58,258.3Z" transform="translate(0 -54.95)"/><path class="cls-7" d="M392.84,273.11l-2-.71,8.9-26.63c1.42-4.23.88-8.27-4.37-10.12-4.91-1.73-8.77.74-10.2,5l-9,26.55-2-.71,9-26.53c1.66-4.91,4.86-8.24,12.58-5.51s7.57,7.13,5.92,12.06Z" transform="translate(0 -54.95)"/><path class="cls-7" d="M397.87,289.54l-39-14,8.84-25.82a4.74,4.74,0,0,1,6.06-3l28.42,10.1a6.39,6.39,0,0,1,3.85,8Z" transform="translate(0 -54.95)"/><path class="cls-21" d="M393.55,288l-30.39-10.92a4.69,4.69,0,0,1-2.77-5.95l7.33-21.41a4.74,4.74,0,0,1,6.06-3l28.42,10.1a6.39,6.39,0,0,1,3.85,8l-6.71,20.27A4.51,4.51,0,0,1,393.55,288Z" transform="translate(0 -54.95)"/><g class="cls-22"><path class="cls-10" d="M392.84,273.11l-1.57,1.37-.41-2.08,8.9-26.63c1.42-4.23.88-8.27-4.37-10.12-4.91-1.73-8.77.74-10.2,5l-9,26.55-1.62,1.35-.35-2.06,9-26.53c1.66-4.91,4.86-8.24,12.58-5.51s7.57,7.13,5.92,12.06Z" transform="translate(0 -54.95)"/></g><polygon class="cls-7" points="380.24 202.13 376.99 200.97 377.4 199.74 380.65 200.9 380.24 202.13"/><polygon class="cls-7" points="377.54 210.11 374.28 208.95 374.7 207.71 377.95 208.88 377.54 210.11"/><polygon class="cls-7" points="396.95 208.09 393.69 206.92 394.1 205.69 397.36 206.85 396.95 208.09"/><polygon class="cls-7" points="394.28 216.1 391.01 214.93 391.42 213.69 394.69 214.85 394.28 216.1"/><polygon class="cls-10" points="390.5 206.57 383.52 204.09 384.4 201.45 391.38 203.94 390.5 206.57"/><path class="cls-17" d="M398.92,244.67c-3.13,1.8-15.79-.23-26.5-6.67-.5-.31-1-.27-1.19-.39-.67-.49,1-1.62,2-2.14.55-.28,24.18,2.71,25.81,2.93C400.89,243.22,399.22,243.16,398.92,244.67Z" transform="translate(0 -54.95)"/><path class="cls-23" d="M388.83,341.59c1.72,4.91,7.49,7.07,11.53,4a5.85,5.85,0,0,0,.47-.4c17.5-16.2,39.76-39.81,39.76-39.81l-3.75-4.75a247.45,247.45,0,0,0-37,26.25c-4,3.43-8.15,7.18-12.19,11.18h0Z" transform="translate(0 -54.95)"/><path class="cls-18" d="M388.83,341.59c1.72,4.91,7.49,7.07,11.53,4a5.85,5.85,0,0,0,.47-.4c17.5-16.2,39.76-39.81,39.76-39.81l-3.75-4.75a247.45,247.45,0,0,0-37,26.25c-4,3.43-8.15,7.18-12.19,11.18h0Z" transform="translate(0 -54.95)"/><path class="cls-16" d="M434.57,301.23a5.16,5.16,0,0,1,1.28-2.13c2.1-2.19,7.78-7.83,7.78-7.83l.51.51s-2.56,3-3.66,4.72.35.8,2.64.15,5.95.14,9.37,3.36c4,3.79,5.46,5.54,3.43,5.37s-5.22-2.11-5.22-2.11-8.67,1.59-12.19,5.3c-3.78,4-4.6-4.67-6-5.14C432.21,303,434.42,301.73,434.57,301.23Z" transform="translate(0 -54.95)"/><path class="cls-17" d="M374.51,205.92c1.88,2.24,3.34,5,.84,8.25a3.81,3.81,0,0,0-.82,2.44c.06,1.41,1,2.73,5.32-.29,6.3-4.36,5.44-8.73,5.44-8.73-3.52-.82-6.08-8-7.16-12.07Z" transform="translate(0 -54.95)"/><path class="cls-24" d="M378.19,201.79c.62,1.74-1.05,4.7-2.39,5.92a11.89,11.89,0,0,0-1.28-1.79l2.14-6.16A6.36,6.36,0,0,1,378.19,201.79Z" transform="translate(0 -54.95)"/><path class="cls-16" d="M359.48,186.83c-1.68,6.53.82,13.69,5.43,18.61,4.66-5.11,13.47-4,18.37-8.88,3.28-3.24,3.88-8.68,1.85-12.82-2.18-4.46-8.62-8.76-13.7-8.06C365.74,176.47,360.89,181.33,359.48,186.83Z" transform="translate(0 -54.95)"/><path class="cls-17" d="M378.89,184.61a9.16,9.16,0,0,0-12.74-2.41c-5.91,4-4.81,14-2.17,19.65,2.9,6.32,11.37,6.58,15.32.38,2.65-4.13,2.09-6.95,1.11-13.66A9.27,9.27,0,0,0,378.89,184.61Z" transform="translate(0 -54.95)"/><path class="cls-25" d="M367.32,198.61a2.35,2.35,0,0,1-2,0,14.49,14.49,0,0,0,1.21-3.85Z" transform="translate(0 -54.95)"/><path class="cls-16" d="M372.45,198a.15.15,0,0,0-.09-.21.17.17,0,0,0-.21.09,4.28,4.28,0,0,1-3.12,2.4.18.18,0,0,0-.12.2h0a.15.15,0,0,0,.18.12,5,5,0,0,0,.76-.21A4.53,4.53,0,0,0,372.45,198Z" transform="translate(0 -54.95)"/><path class="cls-16" d="M367.7,179.15a7,7,0,0,0-1,2.8c7.81,1.8,13.57,10,15.79,17.77,2.11-2.78,6.25-6.18,7.86-9.52,1.79-3.75-.6-8-4.2-10.1a64.69,64.69,0,0,0-9.9-3.91A7.38,7.38,0,0,0,367.7,179.15Z" transform="translate(0 -54.95)"/><path class="cls-17" d="M383.35,192.61a2.21,2.21,0,0,0-2.61-1.73c-1.65.36-2.25,2.67-2.15,4.15.14,1.63,1.41,2.76,2.81,1.74a5,5,0,0,0,2-3.24A2.37,2.37,0,0,0,383.35,192.61Z" transform="translate(0 -54.95)"/><path class="cls-16" d="M370.48,192c.18.65,0,1.28-.46,1.4s-.91-.32-1.08-1,0-1.28.45-1.39S370.3,191.29,370.48,192Z" transform="translate(0 -54.95)"/><path class="cls-16" d="M364.52,194.09c.18.65,0,1.28-.46,1.39s-.91-.32-1.09-1,0-1.28.46-1.4S364.35,193.42,364.52,194.09Z" transform="translate(0 -54.95)"/><path class="cls-16" d="M363.63,193.09l-1.69,0S363.07,194.07,363.63,193.09Z" transform="translate(0 -54.95)"/><path class="cls-16" d="M371.74,189a.34.34,0,0,0,.12-.12.34.34,0,0,0-.09-.46h0a3.82,3.82,0,0,0-3.53-.42.35.35,0,0,0-.17.44.34.34,0,0,0,.43.17,3.19,3.19,0,0,1,2.92.37A.35.35,0,0,0,371.74,189Z" transform="translate(0 -54.95)"/><path class="cls-16" d="M361.69,192.57a.71.71,0,0,0,.1-.14,3.24,3.24,0,0,1,2.16-2,.33.33,0,0,0,.27-.38h0a.33.33,0,0,0-.4-.25,3.91,3.91,0,0,0-2.65,2.39.33.33,0,0,0,.16.44.36.36,0,0,0,.36-.05Z" transform="translate(0 -54.95)"/><path class="cls-16" d="M369.59,191l-1.69,0S369,191.93,369.59,191Z" transform="translate(0 -54.95)"/><path class="cls-16" d="M360.77,196.26c.77,4.11,4.1,9.78,7.65,12-2.39,1.81-6.67-.24-9.19-1.85a10.59,10.59,0,0,1-4.51-7.45,18,18,0,0,1,1.18-8.81,26.63,26.63,0,0,1,8.79-11.36c.76-.62,2.06-1.11,2.56-.27.35.58-.05,1.31-.43,1.86C363.13,185.72,360.23,189.48,360.77,196.26Z" transform="translate(0 -54.95)"/><path class="cls-16" d="M379.33,203.77h-.06a.25.25,0,0,1-.18-.3c2.67-10.79-8.9-19-12.51-21.3a.25.25,0,0,1-.08-.34.24.24,0,0,1,.34-.08c3.69,2.31,15.49,10.72,12.74,21.84A.25.25,0,0,1,379.33,203.77Z" transform="translate(0 -54.95)"/><polygon class="cls-7" points="381.36 141 381.14 144.81 382.16 145.65 382.66 144.48 381.36 141"/><path class="cls-7" d="M398.21,207.4a4.71,4.71,0,0,0-4.52,1.26,9.09,9.09,0,0,0-2.3,5.05c-.37,2.88.36,5.8,1.14,8.61a29.21,29.21,0,0,1,1.58,8.6c3.06-1.67,7.51-5,11.79-5.44-.59-6.81-1.38-11.35-2.7-13.6a12.54,12.54,0,0,0-2.71-3.56A6.19,6.19,0,0,0,398.21,207.4Z" transform="translate(0 -54.95)"/><g class="cls-15"><path class="cls-10" d="M398.21,207.4a4.71,4.71,0,0,0-4.52,1.26,9.09,9.09,0,0,0-2.3,5.05c-.37,2.88.36,5.8,1.14,8.61a29.21,29.21,0,0,1,1.58,8.6c3.06-1.67,7.51-5,11.79-5.44-.59-6.81-1.38-11.35-2.7-13.6a12.54,12.54,0,0,0-2.71-3.56A6.19,6.19,0,0,0,398.21,207.4Z" transform="translate(0 -54.95)"/></g><path class="cls-17" d="M325.33,239.5s-7.55,1.25-7.65,1.59-.06,4.59-.06,4.59l6.78-2.57Z" transform="translate(0 -54.95)"/><polygon class="cls-17" points="317.62 190.73 311.24 184.72 314.09 183.89 318.82 186.45 317.62 190.73"/></g><g id="Character_1" data-name="Character 1"><polygon class="cls-26" points="125.01 343.23 132.14 342.84 132.77 359.72 125.64 360.11 125.01 343.23"/><path class="cls-16" d="M134.52,413.15c2.22,1.37,5.43,2.57,11.28,3.16,1.3.13,1.72,3.1-1.29,3.43s-8.26.8-10.44,1c-3.55.38-4.87.7-7.67,1.05a1.28,1.28,0,0,1-1.4-1.14l-.3-6.42a.51.51,0,0,1,.48-.55l8.06-.88A2.06,2.06,0,0,1,134.52,413.15Z" transform="translate(0 -54.95)"/><polygon class="cls-24" points="125.33 351.94 132.47 351.55 132.14 342.85 125.01 343.24 125.33 351.94"/><path class="cls-7" d="M138,413.75a.92.92,0,0,0,.11-.92.65.65,0,0,0-.45-.43c-.91-.25-2.79,1.36-3,1.55a.18.18,0,0,0,0,.17.22.22,0,0,0,.15.13,8.9,8.9,0,0,0,1.93,0A2,2,0,0,0,138,413.75Zm-2.8.2c.76-.57,1.9-1.35,2.39-1.21a.32.32,0,0,1,.21.21.58.58,0,0,1,0,.61c-.3.39-1.24.53-2.56.41Z" transform="translate(0 -54.95)"/><path class="cls-7" d="M134.88,414.21c.67-.51,1.57-2.13,1.33-2.89a.66.66,0,0,0-.66-.44.83.83,0,0,0-.69.31c-.65.78-.22,2.83-.24,2.91a.16.16,0,0,0,.09.13l.09,0Zm.63-3c.25,0,.36.12.34.21a3.3,3.3,0,0,1-1,2.31,3.87,3.87,0,0,1,.22-2.33.47.47,0,0,1,.35-.18Z" transform="translate(0 -54.95)"/><polygon class="cls-26" points="68.66 335.74 75.73 337.23 70.58 353.23 63.52 351.73 68.66 335.74"/><path class="cls-16" d="M72.5,408.19c1.65,2,5.07,4.42,10.45,6.8,1.2.54.67,3.48-2.29,2.86s-8.83-2.11-11-2.56c-3.49-.74-4.84-.86-7.61-1.39h0a1.27,1.27,0,0,1-1-1.52l1.71-6.2a.52.52,0,0,1,.62-.37l7.94,1.68A2.07,2.07,0,0,1,72.5,408.19Z" transform="translate(0 -54.95)"/><polygon class="cls-24" points="66.01 343.99 73.07 345.48 75.73 337.24 68.66 335.75 66.01 343.99"/><path class="cls-7" d="M113.55,241s7.52,65.07,8.09,89.4c.53,22.41.16,72,.16,72l13-.61s5.41-46.07,7-68.66c1.42-20.67-3-86.81-3-86.81Z" transform="translate(0 -54.95)"/><path class="cls-24" d="M116.64,266.67c1.16,13.46,2.74,30.78,4.18,45.27,3-8.38,4.8-29.48,1.24-42.41C119.91,261.66,118,263.39,116.64,266.67Z" transform="translate(0 -54.95)"/><polygon class="cls-16" points="119.67 344.84 136.44 343.57 135.67 349.08 121.56 350.25 119.67 344.84"/><path class="cls-7" d="M98.83,243.51S86.69,303.4,82.5,327.37c-3.87,22.08-19,68.9-19,68.9L76.4,399s21.44-47.37,27.38-69.24c5.43-20,19-81.19,19-81.19Z" transform="translate(0 -54.95)"/><polygon class="cls-16" points="63.15 336.93 80.53 339.81 78.72 344.55 62.94 341.21 63.15 336.93"/><path class="cls-7" d="M75,409.19a.91.91,0,0,0,.39-.86.61.61,0,0,0-.28-.55c-.78-.52-3.08.42-3.34.53a.23.23,0,0,0-.1.16.18.18,0,0,0,.1.15,9.28,9.28,0,0,0,1.83.65A2,2,0,0,0,75,409.19Zm-2.67-.73c.92-.35,2.22-.7,2.6-.4a.3.3,0,0,1,.13.27.6.6,0,0,1-.24.57c-.4.25-1.34.09-2.55-.42Z" transform="translate(0 -54.95)"/><path class="cls-7" d="M71.89,408.63c.78-.28,2.16-1.52,2.16-2.33a.65.65,0,0,0-.49-.63.83.83,0,0,0-.75.09c-.86.54-1.12,2.6-1.14,2.69a.15.15,0,0,0,.06.14l.08,0ZM73.45,406c.24.09.29.21.27.31,0,.53-.94,1.5-1.66,1.89A3.74,3.74,0,0,1,73,406a.49.49,0,0,1,.39-.06Z" transform="translate(0 -54.95)"/><path class="cls-7" d="M75.14,256.87c1.68-1.68,1.93-3.52,3-5.47.71-1.33-.93-.81.71-.64a8,8,0,0,1,1.76.61c1.42.55,2.79,1.23,4.23,1.74,1.23.44,3.44.24,4.49.85,1.7,1,.07,5.4-.29,6.82-.42,1.72,2.21,2.62,2.63.88.62-2.48,2.2-6.9.29-9.23-1.19-1.45-3-1.16-4.66-1.48-3.11-.6-6.29-3.44-9.55-3.1a2.45,2.45,0,0,0-2.21,1.61c-.52,1.14-.22,2.41-.9,3.61a8.3,8.3,0,0,1-1.3,1.71c-1.26,1.26.56,3.35,1.83,2.09Z" transform="translate(0 -54.95)"/><g class="cls-22"><path d="M75.14,256.87c1.68-1.68,1.93-3.52,3-5.47.71-1.33-.93-.81.71-.64a8,8,0,0,1,1.76.61c1.42.55,2.79,1.23,4.23,1.74,1.23.44,3.44.24,4.49.85,1.7,1,.07,5.4-.29,6.82-.42,1.72,2.21,2.62,2.63.88.62-2.48,2.2-6.9.29-9.23-1.19-1.45-3-1.16-4.66-1.48-3.11-.6-6.29-3.44-9.55-3.1a2.45,2.45,0,0,0-2.21,1.61c-.52,1.14-.22,2.41-.9,3.61a8.3,8.3,0,0,1-1.3,1.71c-1.26,1.26.56,3.35,1.83,2.09Z" transform="translate(0 -54.95)"/></g><path class="cls-7" d="M49,257.22h52.73a3.24,3.24,0,0,1,3.24,3.24v28.22a5.59,5.59,0,0,1-5.59,5.59h-48a5.59,5.59,0,0,1-5.59-5.59V260.46A3.24,3.24,0,0,1,49,257.22Z" transform="translate(91.52 -64.61) rotate(18.53)"/><path class="cls-27" d="M49,257.22h52.73a3.24,3.24,0,0,1,3.24,3.24v28.22a5.59,5.59,0,0,1-5.59,5.59h-48a5.59,5.59,0,0,1-5.59-5.59V260.46A3.24,3.24,0,0,1,49,257.22Z" transform="translate(91.52 -64.61) rotate(18.53)"/><rect class="cls-7" x="63.03" y="281.35" width="23.82" height="1" transform="translate(-215.85 204.54) rotate(-70.71)"/><g class="cls-22"><rect x="63.03" y="281.35" width="23.82" height="1" transform="translate(-215.85 204.54) rotate(-70.71)"/></g><path class="cls-28" d="M105.37,269.82,54.91,252.91a3,3,0,0,0-3.79,1.89l-.35,1a8.45,8.45,0,0,0,5.32,10.69L96.23,280a8.44,8.44,0,0,0,10.68-5.33l.35-1A3,3,0,0,0,105.37,269.82Z" transform="translate(0 -54.95)"/><path class="cls-7" d="M106.48,266.64,56,249.73a3,3,0,0,0-3.8,1.89l-.35,1a8.45,8.45,0,0,0,5.32,10.69L97.34,276.8A8.44,8.44,0,0,0,108,271.47l.35-1A3,3,0,0,0,106.48,266.64Z" transform="translate(0 -54.95)"/><path class="cls-7" d="M106.48,266.64,56,249.73a3,3,0,0,0-3.8,1.89l-.35,1a8.45,8.45,0,0,0,5.32,10.69L97.34,276.8A8.44,8.44,0,0,0,108,271.47l.35-1A3,3,0,0,0,106.48,266.64Z" transform="translate(0 -54.95)"/><path class="cls-29" d="M106.48,266.64,56,249.73a3,3,0,0,0-3.8,1.89l-.35,1a8.45,8.45,0,0,0,5.32,10.69L97.34,276.8A8.44,8.44,0,0,0,108,271.47l.35-1A3,3,0,0,0,106.48,266.64Z" transform="translate(0 -54.95)"/><rect class="cls-7" x="60.6" y="260.43" width="5.66" height="11.9" rx="1.95" transform="translate(87.92 -61.3) rotate(18.52)"/><rect class="cls-7" x="87.78" y="269.53" width="5.66" height="11.9" rx="1.95" transform="translate(92.17 -69.47) rotate(18.51)"/><rect class="cls-10" x="60.6" y="260.43" width="5.66" height="11.9" rx="1.95" transform="translate(87.92 -61.3) rotate(18.52)"/><rect class="cls-10" x="87.78" y="269.53" width="5.66" height="11.9" rx="1.95" transform="translate(92.17 -69.47) rotate(18.51)"/><path class="cls-16" d="M147.86,192.3c.45.89,1,1.95,1.54,2.92s1.1,2,1.67,3c1.15,1.95,2.32,3.87,3.56,5.69a58.37,58.37,0,0,0,3.88,5.09,17.34,17.34,0,0,0,3.93,3.52l.2.12h.09l.25,0a4,4,0,0,0,1.61-.37,19.63,19.63,0,0,0,4.71-3.16,48.71,48.71,0,0,0,4.72-4.59c.76-.84,1.52-1.67,2.25-2.54s1.48-1.79,2.13-2.59l.12-.16a3.89,3.89,0,0,1,6.46,4.33,63,63,0,0,1-9,12.52,29.13,29.13,0,0,1-6.78,5.38,14.64,14.64,0,0,1-5.21,1.73,10.94,10.94,0,0,1-3.33-.1,10,10,0,0,1-1.69-.45,4.07,4.07,0,0,1-.79-.32l-.6-.27a27.48,27.48,0,0,1-7.23-5.44,54.14,54.14,0,0,1-5.17-6c-1.54-2.07-3-4.17-4.3-6.33-.7-1.07-1.32-2.12-1.94-3.25s-1.21-2.16-1.84-3.41a6,6,0,1,1,10.75-5.45h0Z" transform="translate(0 -54.95)"/><path class="cls-26" d="M181.73,202.42l5.67,2.06-.39-6.62s-5.9-2.09-6.68,1v1.45A2.19,2.19,0,0,0,181.73,202.42Z" transform="translate(0 -54.95)"/><polygon class="cls-26" points="193.23 147.95 194.43 142.3 187.01 142.9 187.4 149.52 193.23 147.95"/><g id="Character--inject-2"><path class="cls-30" d="M149.54,215.5c-.66-.77-1.3-1.53-1.92-2.3a63.18,63.18,0,0,1-5.22-7.84,80.85,80.85,0,0,1-4.1-8.23c-.17-.4-.33-.8-.49-1.2,3-1.81,9.48-.92,11.57,7.49A31.28,31.28,0,0,1,149.54,215.5Z" transform="translate(0 -54.95)"/><path class="cls-10" d="M136.55,251.49l-37.72-8c.44-3.43,3.52-14.24,5.92-28.33a225.79,225.79,0,0,0,2.59-29.36s0-.06,0-.09a4.61,4.61,0,0,1,4.87-4.35l.08,0c2.35.14,5.28.41,8.11.86a146.26,146.26,0,0,1,16.05,3.4,43,43,0,0,1,5.1,2,7,7,0,0,1,4.21,5.82C146.43,201.76,146.11,217.89,136.55,251.49Z" transform="translate(0 -54.95)"/><path class="cls-7" d="M131.79,191.1l-1.08,2.16a.91.91,0,0,1-.83.6L128,193.7c-.27,0-.49-.24-.59-.59l-.76-2.59,2.8-1.74Z" transform="translate(0 -54.95)"/><path class="cls-16" d="M120,181.59c-3-.48-6.07-.75-8.55-.91l-.08,0h-.14a4.86,4.86,0,0,0-5,4.69,240.58,240.58,0,0,1-2.72,31c-3.67,26.29-7.3,31.52-7.3,31.52L113,251c5.09-23.88,9-56.5,8.6-69.19Z" transform="translate(0 -54.95)"/><path class="cls-30" d="M104.07,212.67c1.22-8.49,1.75-17.25,2-23.65a1.94,1.94,0,0,1,.26-.23c2.11-1.8,7.38,2.51,5.94,10.58C110.94,207,107.21,211.64,104.07,212.67Z" transform="translate(0 -54.95)"/><path class="cls-16" d="M139.39,257l-10.16-2.72c6.38-44.75,7.87-56.64,6.43-69.18a73.82,73.82,0,0,1,7.43,2.38,8.18,8.18,0,0,1,4.58,6.64C148.53,201.1,143.21,219,139.39,257Z" transform="translate(0 -54.95)"/><path class="cls-16" d="M127.68,238.51a2.15,2.15,0,0,1,2.88,1h0a2.16,2.16,0,1,1-2.89-.95Z" transform="translate(0 -54.95)"/><path class="cls-10" d="M126.41,241.6a2.51,2.51,0,0,1,1.09-3.38h0a2.47,2.47,0,0,1,1.92-.15,2.51,2.51,0,1,1-3,3.53Z" transform="translate(0 -54.95)"/><path class="cls-26" d="M129.71,188.83c-8.05-1.25-9.93-6.62-9.93-6.62,4.23-2.75,4.88-12.46,4.79-17.88l3.53,4.47,4.82,6.09a23.43,23.43,0,0,0-.87,2.29c-1,3.1-.77,6.17,3.66,8.26C135.71,185.44,136.57,189.87,129.71,188.83Z" transform="translate(0 -54.95)"/><path class="cls-10" d="M118.28,181.26l2.64-.38a24.78,24.78,0,0,0,8.26,7.84,9.51,9.51,0,0,0-4.33,3.49C117,187.55,118.28,181.26,118.28,181.26Z" transform="translate(0 -54.95)"/><path class="cls-10" d="M135.77,185l-2.18-1s-1.93,4.56-4.42,4.73c3.77,2.46,4,4.63,4,4.63C139.49,192.72,135.77,185,135.77,185Z" transform="translate(0 -54.95)"/><path class="cls-24" d="M132.31,176.45l-4.62-5.8a10.6,10.6,0,0,0-.38,2.24c-.15,2.3,2.24,5.21,4.32,6.13Z" transform="translate(0 -54.95)"/><path class="cls-16" d="M137.38,165.86s.25,3.6,4,2.22c.16-3.83,1.42-3.54,2.72-5.79a8.31,8.31,0,0,0,.5-8.51l-2.39-1.21C132.89,149.68,137.38,165.86,137.38,165.86Z" transform="translate(0 -54.95)"/><path class="cls-31" d="M137.38,165.86s.25,3.6,4,2.22c.16-3.83,1.42-3.54,2.72-5.79a8.31,8.31,0,0,0,.5-8.51l-2.39-1.21C132.89,149.68,137.38,165.86,137.38,165.86Z" transform="translate(0 -54.95)"/><path class="cls-26" d="M127.64,151.3a9.45,9.45,0,0,1,13.34-.76c5.81,4.93,3.77,15.43.5,21.12a9.34,9.34,0,0,1-16.52-.34c-2.41-4.66-1.13-8.67.48-15.67A9.48,9.48,0,0,1,127.64,151.3Z" transform="translate(0 -54.95)"/><path class="cls-16" d="M124.3,162s.94,3.11,4.34,1.45c-.59-3.36.69-3.27,1.53-5.4a6.84,6.84,0,0,0-1.15-7.54l-2.57-.75C114.23,148.61,124.3,162,124.3,162Z" transform="translate(0 -54.95)"/><path class="cls-31" d="M124.3,162s.94,3.11,4.34,1.45c-.59-3.36.69-3.27,1.53-5.4a6.84,6.84,0,0,0-1.15-7.54l-2.57-.75C114.23,148.61,124.3,162,124.3,162Z" transform="translate(0 -54.95)"/><path class="cls-16" d="M136.43,142.81a3.8,3.8,0,0,0-3.76.67c-.67.58-1.32,1.47-2.19,1.3a3.2,3.2,0,0,1-1.14-.71c-1.4-1-3.44-.57-4.8.49a14.43,14.43,0,0,0-3.12,4.08,9.38,9.38,0,0,1-3.47,3.75,10.92,10.92,0,0,0,8.92.22,5.89,5.89,0,0,1-3.12,2,12.12,12.12,0,0,0,8.5-.69c1.49-.71,2.87-1.74,4.5-2s3.63.6,3.78,2.24a1.61,1.61,0,0,1,2.22-.77,4.43,4.43,0,0,1,1.74,2,5.11,5.11,0,0,0,1.65,2.07,1.69,1.69,0,0,0,2.34-.44,2.51,2.51,0,0,1-2.3-2.31,4.29,4.29,0,0,0,2.89.47c-1.3-.08-3.85-4.73-4.24-6a6.07,6.07,0,0,0-2.07-3.24c-1.22-.84-2.45.62-3.6,0S137.73,143.3,136.43,142.81Z" transform="translate(0 -54.95)"/><path class="cls-16" d="M134.81,168.07a4.59,4.59,0,0,1-1.63-3.11l2,.8c.85.33,3.29,1.36,2.75,2.7S135.46,168.6,134.81,168.07Z" transform="translate(0 -54.95)"/><path class="cls-16" d="M140.55,170.27a4.59,4.59,0,0,0,3.22-1.42l-2.09-.64c-.87-.27-3.42-1-3.84.41S139.7,170.28,140.55,170.27Z" transform="translate(0 -54.95)"/><path class="cls-32" d="M137.78,168a3.31,3.31,0,0,0,2.76.36,21.48,21.48,0,0,1-1.24-5.65Z" transform="translate(0 -54.95)"/><path class="cls-26" d="M124.7,157.18c1.7.57,2.37,3.42,2.29,5.2-.09,2-1.4,3.23-2.87,2a6.68,6.68,0,0,1-2.07-4C121.79,158.38,123,156.6,124.7,157.18Z" transform="translate(0 -54.95)"/><path class="cls-16" d="M136,160.34c.36.13.5.73.35,1.24s-.58.86-.94.74-.48-.65-.36-1.22S135.63,160.22,136,160.34Z" transform="translate(0 -54.95)"/><path class="cls-16" d="M142.31,162.08c.37.12.52.66.36,1.22s-.59.93-.95.8-.52-.67-.36-1.23S142,162,142.31,162.08Z" transform="translate(0 -54.95)"/><path class="cls-16" d="M137.15,171.09a.19.19,0,0,0,.2-.14.18.18,0,0,0-.14-.2,4.79,4.79,0,0,1-3.51-2.37.18.18,0,0,0-.23-.08.18.18,0,0,0-.08.23,5,5,0,0,0,3.1,2.42C136.7,171,136.93,171,137.15,171.09Z" transform="translate(0 -54.95)"/><path class="cls-16" d="M142.09,159.67a.35.35,0,0,0,.21.25,2.88,2.88,0,0,1,1.85,1.72.32.32,0,0,0,.4.24h0a.35.35,0,0,0,.23-.42h0a3.53,3.53,0,0,0-2.28-2.19.35.35,0,0,0-.43.22A.28.28,0,0,0,142.09,159.67Z" transform="translate(0 -54.95)"/><path class="cls-16" d="M134.8,157.89a.37.37,0,0,0,.32.06,2.91,2.91,0,0,1,2.52.23.33.33,0,0,0,.46-.06v0a.34.34,0,0,0-.07-.47h0a3.49,3.49,0,0,0-3.14-.32.33.33,0,0,0-.21.43A.42.42,0,0,0,134.8,157.89Z" transform="translate(0 -54.95)"/><path class="cls-26" d="M80.75,244.9l-1.3-.14c-3.06,1.47.26,7.13.26,7.13l9-1.1-2.61-3A8.33,8.33,0,0,0,80.75,244.9Z" transform="translate(0 -54.95)"/><path class="cls-26" d="M89,254.67l-.3-3.89-9,1.1.5,4.61a1.42,1.42,0,0,0,0,.2,1.37,1.37,0,0,0,1.67,1L88,256.08A1.37,1.37,0,0,0,89,254.67Z" transform="translate(0 -54.95)"/><path class="cls-7" d="M133.18,228.59s-3.13,7.53-4.51,6.49-4.56-6.8-4.57-6.92S128,193.7,128,193.7l1.87.16C129.11,197.71,133.18,228.59,133.18,228.59Z" transform="translate(0 -54.95)"/></g><path class="cls-16" d="M81.64,210C77.9,215.32,77,240.42,78,246.87a4.91,4.91,0,0,1,6.41-.8c.09-4.42,3.67-20.21,5.21-26.8a8,8,0,0,1,3.07-4.61c6.6-4.78,18.55-14.24,19.87-18,2.13-6,.3-18.3-5-14.52C102.54,185.75,84.61,205.71,81.64,210Z" transform="translate(0 -54.95)"/></g><g id="Birds"><path class="cls-7" d="M380.85,83.45a13,13,0,0,1-2.09-.68c-1.26-.49-2.87-1.32-4.56-2.13a13.85,13.85,0,0,0-4.46-1.34c-1.19-.13-2,0-2.11-.31s.59-.89,2-1.16a9.19,9.19,0,0,1,5.43.93,16.77,16.77,0,0,1,4.23,3.14C380.27,82.83,380.85,83.45,380.85,83.45Z" transform="translate(0 -54.95)"/><path class="cls-7" d="M388.19,77.54l-1.51.59c-.9.37-2,.89-3.3,1.44-2.53,1.12-4.69,2.28-5,1.77-.16-.23.17-.8.9-1.5a11.27,11.27,0,0,1,3.32-2.18,7.58,7.58,0,0,1,4-.56,6,6,0,0,1,1.21.29Z" transform="translate(0 -54.95)"/><path class="cls-7" d="M367.23,87.86l-.41-.25c-.26-.17-.65-.39-1.12-.64a24,24,0,0,0-3.7-1.61c-2.94-1.06-5.57-.82-5.65-1.27,0-.2.6-.54,1.74-.7a9.91,9.91,0,0,1,4.42.49,8.81,8.81,0,0,1,3.68,2.48,6.76,6.76,0,0,1,.8,1.08Z" transform="translate(0 -54.95)"/><path class="cls-7" d="M370.12,81.78l-1.06.61-2.35,1.31c-1.77,1-3.14,2.11-3.48,1.81-.15-.15,0-.62.45-1.23a7.25,7.25,0,0,1,2.28-2,6,6,0,0,1,2.92-.7A5,5,0,0,1,370.12,81.78Z" transform="translate(0 -54.95)"/><path class="cls-7" d="M364.79,78.32s-1-.35-2.52-1-3.57-1.55-5.82-2.29a16,16,0,0,0-5.89-.82c-1.54.09-2.52.39-2.66.11s.67-1,2.39-1.55a11.75,11.75,0,0,1,6.81.28,17.11,17.11,0,0,1,5.72,3.39A24,24,0,0,1,364.79,78.32Z" transform="translate(0 -54.95)"/><path class="cls-7" d="M371.55,69.73l-.56.16c-.37.09-.88.25-1.49.44A42.29,42.29,0,0,0,365,72.11c-3.42,1.53-5.62,3.8-6.09,3.44-.22-.17.06-1,.93-2.08a12.13,12.13,0,0,1,4.29-3.25,10.77,10.77,0,0,1,5.28-.92,8.41,8.41,0,0,1,1.6.27Z" transform="translate(0 -54.95)"/><path class="cls-7" d="M139.93,108.71a14.36,14.36,0,0,1-2.09-.68c-1.26-.49-2.88-1.32-4.56-2.14a14.15,14.15,0,0,0-4.47-1.34c-1.19-.13-2,0-2.11-.31s.59-.89,2-1.15a9.1,9.1,0,0,1,5.43.93,16.35,16.35,0,0,1,4.23,3.13C139.35,108.08,139.93,108.71,139.93,108.71Z" transform="translate(0 -54.95)"/><path class="cls-7" d="M147.27,102.8l-1.52.59c-.9.36-2,.88-3.3,1.44-2.53,1.11-4.68,2.27-5,1.77-.17-.24.17-.8.89-1.51a11.41,11.41,0,0,1,3.32-2.18,7.73,7.73,0,0,1,4-.56,6.38,6.38,0,0,1,1.2.29A4.06,4.06,0,0,1,147.27,102.8Z" transform="translate(0 -54.95)"/><path class="cls-7" d="M126.31,113.11l-.42-.25c-.26-.17-.64-.39-1.11-.64a24.9,24.9,0,0,0-3.7-1.61c-2.94-1-5.58-.82-5.66-1.27,0-.2.61-.54,1.74-.7a9.84,9.84,0,0,1,4.43.5,8.77,8.77,0,0,1,3.68,2.47,6.59,6.59,0,0,1,.79,1.08Z" transform="translate(0 -54.95)"/><path class="cls-7" d="M129.19,107l-1.05.61L125.79,109c-1.78,1-3.14,2.11-3.48,1.8-.16-.14,0-.61.45-1.23a7.12,7.12,0,0,1,2.28-1.94,5.94,5.94,0,0,1,2.91-.71A5,5,0,0,1,129.19,107Z" transform="translate(0 -54.95)"/></g></svg>