<?xml version="1.0" encoding="utf-8"?>
<!-- Generator: Adobe Illustrator 23.0.5, SVG Export Plug-In . SVG Version: 6.00 Build 0)  -->
<svg version="1.1" id="Ñëîé_1" xmlns="http://www.w3.org/2000/svg" xmlns:xlink="http://www.w3.org/1999/xlink" x="0px" y="0px"
	 viewBox="0 0 400 400" style="enable-background:new 0 0 400 400;" xml:space="preserve">
<style type="text/css">
	.st0{fill:#FFFFFF;}
	.st1{fill:#F6F6F6;}
	.st2{fill:#66BECC;}
	.st3{fill:#F1484B;}
	.st4{fill:#F5B500;}
	.st5{fill:#5EBFD2;}
	.st6{fill:#F6B968;}
	.st7{fill:#EEAA59;}
	.st8{fill:#FFCC90;}
	.st9{fill:#FFE0BC;}
	.st10{fill:#999999;}
	.st11{fill:#FEFEFE;}
	.st12{fill:#FDFDFD;}
	.st13{fill:#FCFDFD;}
	.st14{fill:#FBFCFC;}
	.st15{fill:#FAFBFB;}
	.st16{fill:#F9FAFA;}
	.st17{fill:#F8F9F9;}
	.st18{fill:#F7F9F9;}
	.st19{fill:#F6F8F8;}
	.st20{fill:#F5F7F7;}
	.st21{fill:#F4F6F6;}
	.st22{fill:#F3F6F6;}
	.st23{fill:#F2F5F5;}
	.st24{fill:#F1F4F4;}
	.st25{fill:#F0F3F3;}
	.st26{fill:#EFF2F2;}
	.st27{fill:#EEF2F2;}
	.st28{fill:#EDF1F1;}
	.st29{fill:#EDF0F0;}
	.st30{fill:#ECEFEF;}
	.st31{fill:#EBEEEE;}
	.st32{fill:#EAEEEE;}
	.st33{fill:#E9EDED;}
	.st34{fill:#E8ECEC;}
	.st35{fill:#E7EBEB;}
	.st36{fill:#E6EAEA;}
	.st37{fill:#E5EAEA;}
	.st38{fill:#E4E9E9;}
	.st39{fill:#E3E8E8;}
	.st40{fill:#E2E7E7;}
	.st41{fill:#E1E7E7;}
	.st42{fill:#E0E6E6;}
	.st43{fill:#DFE5E5;}
	.st44{fill:#DEE4E4;}
	.st45{fill:#DDE3E3;}
	.st46{fill:#DCE3E3;}
	.st47{fill:#DBE2E2;}
	.st48{fill:#DAE1E1;}
	.st49{fill:#CCCCCC;}
	.st50{fill:#FFDBA8;}
	.st51{fill:#F0BD6D;}
	.st52{fill:#C94D4D;}
	.st53{fill:#DFE1DE;}
	.st54{fill:#A83D0D;}
	.st55{fill:#D47171;}
	.st56{fill:#FAF8FA;}
	.st57{fill:#3B556C;}
	.st58{fill:#60768E;}
	.st59{fill:#597D90;}
	.st60{fill:#3D5B73;}
	.st61{fill:#598997;}
	.st62{fill:#4DBBC9;}
	.st63{fill:#C6C6C6;}
	.st64{fill:#6AA7F1;}
	.st65{fill:#FFEED2;}
	.st66{fill:#FFDAAF;}
	.st67{fill:#2E4150;}
	.st68{fill:#647988;}
	.st69{fill:#9CDBD7;}
	.st70{fill:#E5E5E5;}
	.st71{fill:#FFC186;}
	.st72{fill:#375273;}
	.st73{fill:#496D99;}
	.st74{fill:#FF7956;}
	.st75{fill:#F33F37;}
	.st76{fill:#B62F29;}
	.st77{fill:#F5F5F5;}
	.st78{fill:#F4F5F5;}
	.st79{fill:#F3F4F4;}
	.st80{fill:#F2F3F3;}
	.st81{fill:#F1F2F2;}
	.st82{fill:#F0F2F2;}
	.st83{fill:#EFF1F1;}
	.st84{fill:#EEF0F0;}
	.st85{fill:#EDEFEF;}
	.st86{fill:#EAEDED;}
	.st87{fill:#E8EBEB;}
	.st88{fill:#E7EAEA;}
	.st89{fill:#E5E9E9;}
	.st90{fill:#E4E8E8;}
	.st91{fill:#E1E6E6;}
	.st92{fill:#E0E5E5;}
	.st93{fill:#DCE2E2;}
	.st94{fill:#F5763D;}
	.st95{fill:#FBC56D;}
	.st96{fill:#BD632E;}
	.st97{fill:#FDB88D;}
	.st98{fill:#48596B;}
	.st99{fill:#F8BA54;}
	.st100{fill:#FFD4A4;}
	.st101{fill:#B8592E;}
	.st102{fill:#FBC8B1;}
	.st103{fill:#5ED26A;}
	.st104{fill:#47A759;}
	.st105{fill:#ECEDEB;}
	.st106{fill:#4799AF;}
	.st107{fill:#3D576A;}
	.st108{fill:#F9962D;}
	.st109{fill:#FAFAFA;}
	.st110{fill:#F2F2F2;}
</style>
<rect class="st0" width="400" height="400"/>
<g>
	<path class="st1" d="M242.1,130.2c0,17.2-14,31.2-31.2,31.2c-17.2,0-31.2-14-31.2-31.2c0-17.2,14-31.2,31.2-31.2
		C228.2,99,242.1,113,242.1,130.2z"/>
	<path class="st2" d="M210.9,163.6c-18.4,0-33.4-15-33.4-33.4c0-18.4,15-33.4,33.4-33.4c18.4,0,33.4,15,33.4,33.4
		C244.3,148.6,229.3,163.6,210.9,163.6z M210.9,101.2c-16,0-29,13-29,29c0,16,13,29,29,29c16,0,29-13,29-29
		C240,114.2,226.9,101.2,210.9,101.2z"/>
</g>
<g>
	<path class="st1" d="M180.4,67.7c0,17.2-14,31.2-31.2,31.2c-17.2,0-31.2-14-31.2-31.2c0-17.2,14-31.2,31.2-31.2
		C166.4,36.5,180.4,50.5,180.4,67.7z"/>
	<path class="st3" d="M149.2,101.1c-18.4,0-33.4-15-33.4-33.4c0-18.4,15-33.4,33.4-33.4c18.4,0,33.4,15,33.4,33.4
		C182.6,86.1,167.6,101.1,149.2,101.1z M149.2,38.7c-16,0-29,13-29,29c0,16,13,29,29,29c16,0,29-13,29-29
		C178.2,51.7,165.2,38.7,149.2,38.7z"/>
</g>
<g>
	<path class="st1" d="M106.8,122.3c0,17.2-14,31.2-31.2,31.2c-17.2,0-31.2-14-31.2-31.2c0-17.2,14-31.2,31.2-31.2
		C92.8,91.1,106.8,105,106.8,122.3z"/>
	<path class="st4" d="M75.6,155.7c-18.4,0-33.4-15-33.4-33.4c0-18.4,15-33.4,33.4-33.4c18.4,0,33.4,15,33.4,33.4
		C108.9,140.7,94,155.7,75.6,155.7z M75.6,93.2c-16,0-29,13-29,29c0,16,13,29,29,29s29-13,29-29C104.6,106.3,91.6,93.2,75.6,93.2z"
		/>
</g>
<g>
	<path class="st1" d="M298.7,73.8c0,17.2-14,31.2-31.2,31.2c-17.2,0-31.2-14-31.2-31.2c0-17.2,14-31.2,31.2-31.2
		C284.7,42.6,298.7,56.6,298.7,73.8z"/>
	<path class="st4" d="M267.5,107.2c-18.4,0-33.4-15-33.4-33.4c0-18.4,15-33.4,33.4-33.4c18.4,0,33.4,15,33.4,33.4
		C300.9,92.2,285.9,107.2,267.5,107.2z M267.5,44.8c-16,0-29,13-29,29c0,16,13,29,29,29s29-13,29-29
		C296.5,57.8,283.5,44.8,267.5,44.8z"/>
</g>
<g>
	<path class="st1" d="M353.4,126.7c0,15.4-12.5,27.9-27.9,27.9c-15.4,0-27.9-12.5-27.9-27.9c0-15.4,12.5-27.9,27.9-27.9
		C340.9,98.8,353.4,111.3,353.4,126.7z"/>
	<path class="st5" d="M325.5,156.8c-16.6,0-30.1-13.5-30.1-30.1c0-16.6,13.5-30.1,30.1-30.1c16.6,0,30.1,13.5,30.1,30.1
		C355.6,143.3,342.1,156.8,325.5,156.8z M325.5,101c-14.2,0-25.7,11.5-25.7,25.7c0,14.2,11.5,25.7,25.7,25.7
		c14.2,0,25.7-11.5,25.7-25.7C351.2,112.5,339.7,101,325.5,101z"/>
</g>
<g>
	<rect x="262.9" y="122.3" class="st4" width="7.9" height="95.5"/>
	<polygon class="st4" points="257.2,123.6 266.9,106.9 276.5,123.6 	"/>
</g>
<g>
	<g>
		<rect x="145.2" y="118.5" class="st3" width="7.9" height="114.1"/>
		<polygon class="st3" points="158.8,119.8 149.2,103.2 139.6,119.8 		"/>
	</g>
</g>
<g>
	<rect x="207" y="181.7" class="st5" width="7.9" height="95.5"/>
	<polygon class="st5" points="201.3,183 210.9,166.4 220.6,183 	"/>
</g>
<path class="st4" d="M59.9,172.5c-9.9,21.8-5.4,47.3,11.7,64.4c14.1,14.1,34.2,19.9,53.7,15.4l2.5-0.6l-1.7-7.3l-2.5,0.6
	c-17,3.9-34.4-1.1-46.7-13.4c-14.5-14.5-18.6-36.1-10.8-54.8l6.2,4.3l1.9-22.9l-20.8,9.9L59.9,172.5z"/>
<path class="st5" d="M349.9,172.5c9.9,21.8,5.4,47.3-11.7,64.4c-14.1,14.1-34.2,19.9-53.7,15.4l-2.5-0.6l1.7-7.3l2.5,0.6
	c17,3.9,34.4-1.1,46.7-13.4c14.5-14.5,18.6-36.1,10.8-54.8l-6.2,4.3l-1.9-22.9l20.8,9.9L349.9,172.5z"/>
<g>
	<path class="st6" d="M145.2,284.8c2.3-0.2,4.5,1.9,4.8,4.8l0,0c0.3,2.9-1.4,5.4-3.7,5.6l-37.3,3.7c-2.3,0.2-4.5-1.9-4.8-4.8l0,0
		c-0.3-2.9,1.4-5.4,3.7-5.6L145.2,284.8z"/>
	<path class="st7" d="M145.4,284.9l-38.8,0c-1.3,0.1-2.7,4.6-3.4,5.8l42.9-3.5c0.5-0.1,2.4-0.7,2.9-0.6
		C148,285.5,146.7,284.8,145.4,284.9z"/>
	<path class="st6" d="M151.1,274.9c2.4-0.1,4.4,2.1,4.6,5l0,0c0.2,2.9-1.6,5.3-4,5.5l-37.9,2.4c-2.4,0.1-3.8-2.3-4-5.2l0,0
		c-0.2-2.9,1.6-5.3,4-5.5L151.1,274.9z"/>
	<path class="st7" d="M150.9,274.9l-38.3,2.1c-1.3,0.1-1.3,2.5-1.9,3.6l42.2-4.2c0.5-0.1,1,0,1.5,0.1
		C153.6,275.5,152.3,274.8,150.9,274.9z"/>
	<path class="st6" d="M152,264.4c2.4-0.1,4.4,2.1,4.6,5l0,0c0.2,2.9-1.6,5.3-4,5.5l-37.4,2.2c-2.4,0.1-4.4-2.1-4.6-5l0,0
		c-0.2-2.9,1.6-5.3,4-5.5L152,264.4z"/>
	<path class="st8" d="M92.5,299.6c1-2.9,19.5-37.1,24.4-38c4.2-0.8,30.2-0.5,37.4-0.3c0.2,0,0.9,0,0.9,0c2.8,0,5.1,2.6,5.1,5.8
		c0,3.2-2.3,5.8-5.1,5.8h-29.9c-1,0.3-1.7,0.7-1.9,1c-1.7,2-9.5,18.6-10,26.6l-11.5,5.5l-9.4-6C92.4,299.8,92.5,299.7,92.5,299.6z"
		/>
	<g>
		<path class="st9" d="M115.8,262.6c0.2-0.1,0.4-0.1,0.5,0.1l1.4,2.1c0.1,0.2,0.1,0.4-0.1,0.5l0,0c-0.2,0.1-0.4,0.1-0.5-0.1
			l-1.4-2.1C115.5,263,115.6,262.7,115.8,262.6L115.8,262.6z"/>
		<path class="st9" d="M117.1,261.8c0.2-0.1,0.4-0.1,0.5,0.1l1.4,2.1c0.1,0.2,0.1,0.4-0.1,0.5l0,0c-0.2,0.1-0.4,0.1-0.5-0.1
			l-1.4-2.1C116.9,262.1,116.9,261.9,117.1,261.8L117.1,261.8z"/>
	</g>
</g>
<path class="st10" d="M302.8,314.6c0,3.7-3.2,6.6-7.2,6.6H123.8c-4,0-7.2-3-7.2-6.6V200.8c0-3.7,3.2-6.6,7.2-6.6l171.8,0
	c4,0,7.2,3,7.2,6.6V314.6z"/>
<rect x="128.1" y="204.5" class="st0" width="153.6" height="104.1"/>
<g>
	<g>
		<path class="st0" d="M260.8,251.3c0,1-9,1.9-20.1,1.9c-11.1,0-20.1-0.8-20.1-1.9c0-1,9-1.9,20.1-1.9
			C251.8,249.4,260.8,250.3,260.8,251.3z"/>
		<path class="st11" d="M260.5,251.3c0,1-8.9,1.8-19.9,1.8c-11,0-19.9-0.8-19.9-1.8c0-1,8.9-1.8,19.9-1.8
			C251.6,249.4,260.5,250.3,260.5,251.3z"/>
		<path class="st12" d="M260.3,251.3c0,1-8.8,1.8-19.6,1.8c-10.8,0-19.6-0.8-19.6-1.8c0-1,8.8-1.8,19.6-1.8
			C251.5,249.4,260.3,250.3,260.3,251.3z"/>
		<path class="st13" d="M260,251.2c0,1-8.7,1.8-19.4,1.8c-10.7,0-19.4-0.8-19.4-1.8c0-1,8.7-1.8,19.4-1.8
			C251.4,249.4,260,250.2,260,251.2z"/>
		<path class="st14" d="M259.8,251.2c0,1-8.6,1.8-19.1,1.8c-10.6,0-19.2-0.8-19.2-1.8c0-1,8.6-1.8,19.2-1.8
			C251.2,249.4,259.8,250.2,259.8,251.2z"/>
		<path class="st15" d="M259.6,251.2c0,1-8.5,1.8-18.9,1.8c-10.4,0-18.9-0.8-18.9-1.8c0-1,8.5-1.7,18.9-1.7
			C251.1,249.5,259.6,250.2,259.6,251.2z"/>
		<path class="st16" d="M259.3,251.2c0,1-8.4,1.7-18.7,1.7c-10.3,0-18.7-0.8-18.7-1.7c0-1,8.4-1.7,18.7-1.7
			C251,249.5,259.3,250.2,259.3,251.2z"/>
		<path class="st17" d="M259.1,251.2c0,0.9-8.3,1.7-18.4,1.7c-10.2,0-18.4-0.8-18.4-1.7c0-0.9,8.3-1.7,18.4-1.7
			C250.8,249.5,259.1,250.2,259.1,251.2z"/>
		<path class="st18" d="M258.8,251.1c0,0.9-8.1,1.7-18.2,1.7c-10,0-18.2-0.8-18.2-1.7c0-0.9,8.1-1.7,18.2-1.7
			C250.7,249.5,258.8,250.2,258.8,251.1z"/>
		<path class="st19" d="M258.6,251.1c0,0.9-8,1.7-17.9,1.7c-9.9,0-18-0.7-18-1.7c0-0.9,8-1.7,18-1.7
			C250.6,249.5,258.6,250.2,258.6,251.1z"/>
		<path class="st20" d="M258.4,251.1c0,0.9-7.9,1.6-17.7,1.6c-9.8,0-17.7-0.7-17.7-1.6c0-0.9,7.9-1.6,17.7-1.6
			C250.4,249.5,258.4,250.2,258.4,251.1z"/>
		<path class="st21" d="M258.1,251.1c0,0.9-7.8,1.6-17.5,1.6c-9.7,0-17.5-0.7-17.5-1.6c0-0.9,7.8-1.6,17.5-1.6
			C250.3,249.5,258.1,250.2,258.1,251.1z"/>
		<path class="st22" d="M257.9,251.1c0,0.9-7.7,1.6-17.2,1.6c-9.5,0-17.2-0.7-17.2-1.6c0-0.9,7.7-1.6,17.2-1.6
			C250.2,249.5,257.9,250.2,257.9,251.1z"/>
		<path class="st23" d="M257.6,251c0,0.9-7.6,1.6-17,1.6c-9.4,0-17-0.7-17-1.6c0-0.9,7.6-1.6,17-1.6
			C250,249.5,257.6,250.2,257.6,251z"/>
		<path class="st24" d="M257.4,251c0,0.9-7.5,1.5-16.7,1.5c-9.3,0-16.8-0.7-16.8-1.5c0-0.9,7.5-1.5,16.8-1.5
			C249.9,249.5,257.4,250.2,257.4,251z"/>
		<path class="st25" d="M257.2,251c0,0.8-7.4,1.5-16.5,1.5c-9.1,0-16.5-0.7-16.5-1.5c0-0.8,7.4-1.5,16.5-1.5
			C249.8,249.5,257.2,250.2,257.2,251z"/>
		<path class="st26" d="M256.9,251c0,0.8-7.3,1.5-16.3,1.5c-9,0-16.3-0.7-16.3-1.5c0-0.8,7.3-1.5,16.3-1.5
			C249.6,249.5,256.9,250.2,256.9,251z"/>
		<path class="st27" d="M256.7,251c0,0.8-7.2,1.5-16,1.5c-8.9,0-16-0.7-16-1.5c0-0.8,7.2-1.5,16-1.5
			C249.5,249.5,256.7,250.1,256.7,251z"/>
		<path class="st28" d="M256.4,250.9c0,0.8-7.1,1.5-15.8,1.5c-8.7,0-15.8-0.7-15.8-1.5c0-0.8,7.1-1.5,15.8-1.5
			C249.4,249.5,256.4,250.1,256.4,250.9z"/>
		<path class="st29" d="M256.2,250.9c0,0.8-7,1.4-15.6,1.4c-8.6,0-15.6-0.6-15.6-1.4c0-0.8,7-1.4,15.6-1.4
			C249.2,249.5,256.2,250.1,256.2,250.9z"/>
		<path class="st30" d="M256,250.9c0,0.8-6.9,1.4-15.3,1.4c-8.5,0-15.3-0.6-15.3-1.4s6.9-1.4,15.3-1.4
			C249.1,249.5,256,250.1,256,250.9z"/>
		<path class="st31" d="M255.7,250.9c0,0.8-6.7,1.4-15.1,1.4c-8.3,0-15.1-0.6-15.1-1.4c0-0.8,6.7-1.4,15.1-1.4
			C249,249.5,255.7,250.1,255.7,250.9z"/>
		<path class="st32" d="M255.5,250.9c0,0.8-6.6,1.4-14.8,1.4c-8.2,0-14.8-0.6-14.8-1.4s6.6-1.4,14.8-1.4
			C248.8,249.5,255.5,250.1,255.5,250.9z"/>
		<path class="st33" d="M255.2,250.8c0,0.7-6.5,1.3-14.6,1.3c-8.1,0-14.6-0.6-14.6-1.3c0-0.7,6.5-1.4,14.6-1.4
			C248.7,249.5,255.2,250.1,255.2,250.8z"/>
		<path class="st34" d="M255,250.8c0,0.7-6.4,1.3-14.4,1.3c-7.9,0-14.4-0.6-14.4-1.3c0-0.7,6.4-1.3,14.4-1.3
			C248.6,249.5,255,250.1,255,250.8z"/>
		<path class="st35" d="M254.8,250.8c0,0.7-6.3,1.3-14.1,1.3c-7.8,0-14.1-0.6-14.1-1.3c0-0.7,6.3-1.3,14.1-1.3
			C248.4,249.5,254.8,250.1,254.8,250.8z"/>
		<path class="st36" d="M254.5,250.8c0,0.7-6.2,1.3-13.9,1.3c-7.7,0-13.9-0.6-13.9-1.3c0-0.7,6.2-1.3,13.9-1.3
			C248.3,249.5,254.5,250.1,254.5,250.8z"/>
		<path class="st37" d="M254.3,250.8c0,0.7-6.1,1.3-13.6,1.3c-7.5,0-13.6-0.6-13.6-1.3c0-0.7,6.1-1.3,13.6-1.3
			C248.2,249.5,254.3,250.1,254.3,250.8z"/>
		<path class="st38" d="M254,250.7c0,0.7-6,1.2-13.4,1.2c-7.4,0-13.4-0.6-13.4-1.2c0-0.7,6-1.2,13.4-1.2
			C248.1,249.5,254,250.1,254,250.7z"/>
		<path class="st39" d="M253.8,250.7c0,0.7-5.9,1.2-13.2,1.2c-7.3,0-13.2-0.5-13.2-1.2c0-0.7,5.9-1.2,13.2-1.2
			C247.9,249.5,253.8,250.1,253.8,250.7z"/>
		<path class="st40" d="M253.6,250.7c0,0.7-5.8,1.2-12.9,1.2c-7.1,0-12.9-0.5-12.9-1.2c0-0.7,5.8-1.2,12.9-1.2
			C247.8,249.5,253.6,250,253.6,250.7z"/>
		<path class="st41" d="M253.3,250.7c0,0.6-5.7,1.2-12.7,1.2c-7,0-12.7-0.5-12.7-1.2c0-0.6,5.7-1.2,12.7-1.2
			C247.7,249.5,253.3,250,253.3,250.7z"/>
		<path class="st42" d="M253.1,250.7c0,0.6-5.6,1.1-12.4,1.1c-6.9,0-12.4-0.5-12.4-1.1c0-0.6,5.6-1.2,12.4-1.2
			C247.5,249.5,253.1,250,253.1,250.7z"/>
		<path class="st43" d="M252.8,250.6c0,0.6-5.5,1.1-12.2,1.1c-6.7,0-12.2-0.5-12.2-1.1c0-0.6,5.5-1.1,12.2-1.1
			C247.4,249.5,252.8,250,252.8,250.6z"/>
		<path class="st44" d="M252.6,250.6c0,0.6-5.4,1.1-12,1.1c-6.6,0-12-0.5-12-1.1c0-0.6,5.4-1.1,12-1.1
			C247.3,249.5,252.6,250,252.6,250.6z"/>
		<path class="st45" d="M252.4,250.6c0,0.6-5.2,1.1-11.7,1.1c-6.5,0-11.7-0.5-11.7-1.1c0-0.6,5.2-1.1,11.7-1.1
			C247.1,249.5,252.4,250,252.4,250.6z"/>
		<path class="st46" d="M252.1,250.6c0,0.6-5.1,1.1-11.5,1.1c-6.3,0-11.5-0.5-11.5-1.1c0-0.6,5.1-1.1,11.5-1.1
			C247,249.5,252.1,250,252.1,250.6z"/>
		<path class="st47" d="M251.9,250.6c0,0.6-5,1-11.2,1c-6.2,0-11.2-0.5-11.2-1c0-0.6,5-1,11.2-1C246.9,249.5,251.9,250,251.9,250.6z
			"/>
		<path class="st48" d="M251.7,250.6c0,0.6-4.9,1-11,1c-6.1,0-11-0.5-11-1c0-0.6,4.9-1,11-1C246.7,249.5,251.7,250,251.7,250.6z"/>
	</g>
	<g>
		<path class="st0" d="M240.9,244c0,1-9,1.9-20.1,1.9c-11.1,0-20.1-0.8-20.1-1.9c0-1,9-1.9,20.1-1.9
			C231.9,242.1,240.9,242.9,240.9,244z"/>
		<path class="st11" d="M240.6,243.9c0,1-8.9,1.8-19.9,1.8c-11,0-19.9-0.8-19.9-1.8c0-1,8.9-1.8,19.9-1.8
			C231.7,242.1,240.6,242.9,240.6,243.9z"/>
		<path class="st12" d="M240.4,243.9c0,1-8.8,1.8-19.6,1.8c-10.8,0-19.6-0.8-19.6-1.8c0-1,8.8-1.8,19.6-1.8
			C231.6,242.1,240.4,242.9,240.4,243.9z"/>
		<path class="st13" d="M240.1,243.9c0,1-8.7,1.8-19.4,1.8c-10.7,0-19.4-0.8-19.4-1.8c0-1,8.7-1.8,19.4-1.8
			C231.5,242.1,240.1,242.9,240.1,243.9z"/>
		<path class="st14" d="M239.9,243.9c0,1-8.6,1.8-19.1,1.8c-10.6,0-19.1-0.8-19.1-1.8c0-1,8.6-1.8,19.1-1.8
			C231.3,242.1,239.9,242.9,239.9,243.9z"/>
		<path class="st15" d="M239.7,243.9c0,1-8.5,1.8-18.9,1.8c-10.4,0-18.9-0.8-18.9-1.8c0-1,8.5-1.8,18.9-1.8
			C231.2,242.1,239.7,242.9,239.7,243.9z"/>
		<path class="st16" d="M239.4,243.8c0,1-8.4,1.7-18.7,1.7c-10.3,0-18.7-0.8-18.7-1.7c0-1,8.4-1.7,18.7-1.7
			C231.1,242.1,239.4,242.9,239.4,243.8z"/>
		<path class="st17" d="M239.2,243.8c0,0.9-8.3,1.7-18.4,1.7c-10.2,0-18.4-0.8-18.4-1.7c0-0.9,8.3-1.7,18.4-1.7
			C230.9,242.1,239.2,242.9,239.2,243.8z"/>
		<ellipse class="st18" cx="220.8" cy="243.8" rx="18.2" ry="1.7"/>
		<path class="st19" d="M238.7,243.8c0,0.9-8,1.7-18,1.7c-9.9,0-17.9-0.7-17.9-1.7c0-0.9,8-1.7,17.9-1.7
			C230.7,242.1,238.7,242.9,238.7,243.8z"/>
		<path class="st20" d="M238.5,243.8c0,0.9-7.9,1.6-17.7,1.6c-9.8,0-17.7-0.7-17.7-1.6c0-0.9,7.9-1.6,17.7-1.6
			C230.5,242.1,238.5,242.9,238.5,243.8z"/>
		<ellipse class="st21" cx="220.8" cy="243.7" rx="17.5" ry="1.6"/>
		<path class="st22" d="M238,243.7c0,0.9-7.7,1.6-17.2,1.6c-9.5,0-17.2-0.7-17.2-1.6c0-0.9,7.7-1.6,17.2-1.6
			C230.3,242.1,238,242.8,238,243.7z"/>
		<path class="st23" d="M237.7,243.7c0,0.9-7.6,1.6-17,1.6c-9.4,0-17-0.7-17-1.6c0-0.9,7.6-1.6,17-1.6
			C230.1,242.1,237.7,242.8,237.7,243.7z"/>
		<path class="st24" d="M237.5,243.7c0,0.9-7.5,1.6-16.8,1.6c-9.3,0-16.8-0.7-16.8-1.6c0-0.9,7.5-1.6,16.8-1.6
			C230,242.1,237.5,242.8,237.5,243.7z"/>
		<path class="st25" d="M237.3,243.7c0,0.8-7.4,1.5-16.5,1.5c-9.1,0-16.5-0.7-16.5-1.5c0-0.8,7.4-1.5,16.5-1.5
			C229.9,242.1,237.3,242.8,237.3,243.7z"/>
		<path class="st26" d="M237,243.7c0,0.8-7.3,1.5-16.3,1.5c-9,0-16.3-0.7-16.3-1.5c0-0.8,7.3-1.5,16.3-1.5
			C229.7,242.1,237,242.8,237,243.7z"/>
		<path class="st27" d="M236.8,243.6c0,0.8-7.2,1.5-16,1.5c-8.9,0-16-0.7-16-1.5c0-0.8,7.2-1.5,16-1.5
			C229.6,242.1,236.8,242.8,236.8,243.6z"/>
		<path class="st28" d="M236.5,243.6c0,0.8-7.1,1.5-15.8,1.5c-8.7,0-15.8-0.7-15.8-1.5c0-0.8,7.1-1.5,15.8-1.5
			C229.5,242.1,236.5,242.8,236.5,243.6z"/>
		<path class="st29" d="M236.3,243.6c0,0.8-7,1.4-15.6,1.4c-8.6,0-15.6-0.6-15.6-1.4c0-0.8,7-1.4,15.6-1.4
			C229.3,242.2,236.3,242.8,236.3,243.6z"/>
		<path class="st30" d="M236.1,243.6c0,0.8-6.9,1.4-15.3,1.4c-8.5,0-15.3-0.6-15.3-1.4c0-0.8,6.9-1.4,15.3-1.4
			C229.2,242.2,236.1,242.8,236.1,243.6z"/>
		<path class="st31" d="M235.8,243.6c0,0.8-6.8,1.4-15.1,1.4c-8.3,0-15.1-0.6-15.1-1.4c0-0.8,6.7-1.4,15.1-1.4
			C229.1,242.2,235.8,242.8,235.8,243.6z"/>
		<path class="st32" d="M235.6,243.5c0,0.8-6.6,1.4-14.8,1.4c-8.2,0-14.8-0.6-14.8-1.4c0-0.8,6.6-1.4,14.8-1.4
			C228.9,242.2,235.6,242.8,235.6,243.5z"/>
		<path class="st33" d="M235.3,243.5c0,0.7-6.5,1.4-14.6,1.4c-8.1,0-14.6-0.6-14.6-1.4c0-0.7,6.5-1.4,14.6-1.4
			C228.8,242.2,235.3,242.8,235.3,243.5z"/>
		<path class="st34" d="M235.1,243.5c0,0.7-6.4,1.3-14.4,1.3c-7.9,0-14.4-0.6-14.4-1.3c0-0.7,6.4-1.3,14.4-1.3
			C228.7,242.2,235.1,242.8,235.1,243.5z"/>
		<path class="st35" d="M234.9,243.5c0,0.7-6.3,1.3-14.1,1.3c-7.8,0-14.1-0.6-14.1-1.3c0-0.7,6.3-1.3,14.1-1.3
			C228.5,242.2,234.9,242.8,234.9,243.5z"/>
		<path class="st36" d="M234.6,243.5c0,0.7-6.2,1.3-13.9,1.3c-7.7,0-13.9-0.6-13.9-1.3c0-0.7,6.2-1.3,13.9-1.3
			C228.4,242.2,234.6,242.7,234.6,243.5z"/>
		<path class="st37" d="M234.4,243.4c0,0.7-6.1,1.3-13.6,1.3s-13.6-0.6-13.6-1.3c0-0.7,6.1-1.3,13.6-1.3S234.4,242.7,234.4,243.4z"
			/>
		<path class="st38" d="M234.1,243.4c0,0.7-6,1.2-13.4,1.2c-7.4,0-13.4-0.6-13.4-1.2c0-0.7,6-1.2,13.4-1.2
			C228.2,242.2,234.1,242.7,234.1,243.4z"/>
		<path class="st39" d="M233.9,243.4c0,0.7-5.9,1.2-13.2,1.2c-7.3,0-13.2-0.5-13.2-1.2c0-0.7,5.9-1.2,13.2-1.2
			C228,242.2,233.9,242.7,233.9,243.4z"/>
		<path class="st40" d="M233.7,243.4c0,0.7-5.8,1.2-12.9,1.2c-7.1,0-12.9-0.5-12.9-1.2c0-0.7,5.8-1.2,12.9-1.2
			C227.9,242.2,233.7,242.7,233.7,243.4z"/>
		<path class="st41" d="M233.4,243.4c0,0.6-5.7,1.2-12.7,1.2s-12.7-0.5-12.7-1.2c0-0.6,5.7-1.2,12.7-1.2S233.4,242.7,233.4,243.4z"
			/>
		<path class="st42" d="M233.2,243.3c0,0.6-5.6,1.2-12.4,1.2c-6.9,0-12.4-0.5-12.4-1.2c0-0.6,5.6-1.2,12.4-1.2
			C227.6,242.2,233.2,242.7,233.2,243.3z"/>
		<path class="st43" d="M232.9,243.3c0,0.6-5.5,1.1-12.2,1.1c-6.7,0-12.2-0.5-12.2-1.1c0-0.6,5.5-1.1,12.2-1.1
			C227.5,242.2,232.9,242.7,232.9,243.3z"/>
		<path class="st44" d="M232.7,243.3c0,0.6-5.4,1.1-12,1.1c-6.6,0-12-0.5-12-1.1c0-0.6,5.4-1.1,12-1.1
			C227.4,242.2,232.7,242.7,232.7,243.3z"/>
		<path class="st45" d="M232.5,243.3c0,0.6-5.2,1.1-11.7,1.1c-6.5,0-11.7-0.5-11.7-1.1c0-0.6,5.2-1.1,11.7-1.1
			C227.2,242.2,232.5,242.7,232.5,243.3z"/>
		<path class="st46" d="M232.2,243.3c0,0.6-5.1,1.1-11.5,1.1c-6.3,0-11.5-0.5-11.5-1.1c0-0.6,5.1-1.1,11.5-1.1
			C227.1,242.2,232.2,242.7,232.2,243.3z"/>
		<path class="st47" d="M232,243.2c0,0.6-5,1-11.2,1c-6.2,0-11.2-0.5-11.2-1c0-0.6,5-1,11.2-1C227,242.2,232,242.7,232,243.2z"/>
		<path class="st48" d="M231.8,243.2c0,0.6-4.9,1-11,1c-6.1,0-11-0.5-11-1c0-0.6,4.9-1,11-1C226.8,242.2,231.8,242.7,231.8,243.2z"
			/>
	</g>
	<g>
		<path class="st0" d="M278.1,243.5c0,1-9,1.9-20.1,1.9c-11.1,0-20.1-0.8-20.1-1.9c0-1,9-1.9,20.1-1.9
			C269.1,241.7,278.1,242.5,278.1,243.5z"/>
		<path class="st11" d="M277.9,243.5c0,1-8.9,1.8-19.9,1.8c-11,0-19.9-0.8-19.9-1.8c0-1,8.9-1.8,19.9-1.8
			C269,241.7,277.9,242.5,277.9,243.5z"/>
		<path class="st12" d="M277.7,243.5c0,1-8.8,1.8-19.6,1.8c-10.8,0-19.6-0.8-19.6-1.8c0-1,8.8-1.8,19.6-1.8
			C268.9,241.7,277.7,242.5,277.7,243.5z"/>
		<path class="st13" d="M277.4,243.5c0,1-8.7,1.8-19.4,1.8c-10.7,0-19.4-0.8-19.4-1.8c0-1,8.7-1.8,19.4-1.8
			C268.7,241.7,277.4,242.5,277.4,243.5z"/>
		<path class="st14" d="M277.2,243.5c0,1-8.6,1.8-19.1,1.8c-10.6,0-19.1-0.8-19.1-1.8c0-1,8.6-1.8,19.1-1.8
			C268.6,241.7,277.2,242.5,277.2,243.5z"/>
		<path class="st15" d="M276.9,243.4c0,1-8.5,1.8-18.9,1.8c-10.4,0-18.9-0.8-18.9-1.8s8.5-1.8,18.9-1.8
			C268.5,241.7,276.9,242.5,276.9,243.4z"/>
		<path class="st16" d="M276.7,243.4c0,1-8.4,1.7-18.7,1.7c-10.3,0-18.7-0.8-18.7-1.7c0-1,8.4-1.7,18.7-1.7
			C268.3,241.7,276.7,242.5,276.7,243.4z"/>
		<path class="st17" d="M276.5,243.4c0,0.9-8.3,1.7-18.4,1.7c-10.2,0-18.4-0.8-18.4-1.7c0-0.9,8.3-1.7,18.4-1.7
			C268.2,241.7,276.5,242.5,276.5,243.4z"/>
		<path class="st18" d="M276.2,243.4c0,0.9-8.1,1.7-18.2,1.7c-10,0-18.2-0.8-18.2-1.7c0-0.9,8.1-1.7,18.2-1.7
			C268.1,241.7,276.2,242.4,276.2,243.4z"/>
		<path class="st19" d="M276,243.4c0,0.9-8,1.7-18,1.7c-9.9,0-17.9-0.7-17.9-1.7c0-0.9,8-1.7,17.9-1.7
			C268,241.7,276,242.4,276,243.4z"/>
		<path class="st20" d="M275.8,243.3c0,0.9-7.9,1.6-17.7,1.6c-9.8,0-17.7-0.7-17.7-1.6c0-0.9,7.9-1.6,17.7-1.6
			C267.8,241.7,275.8,242.4,275.8,243.3z"/>
		<path class="st21" d="M275.5,243.3c0,0.9-7.8,1.6-17.5,1.6c-9.7,0-17.5-0.7-17.5-1.6c0-0.9,7.8-1.6,17.5-1.6
			C267.7,241.7,275.5,242.4,275.5,243.3z"/>
		<path class="st22" d="M275.3,243.3c0,0.9-7.7,1.6-17.2,1.6c-9.5,0-17.2-0.7-17.2-1.6c0-0.9,7.7-1.6,17.2-1.6
			C267.6,241.7,275.3,242.4,275.3,243.3z"/>
		<path class="st23" d="M275,243.3c0,0.9-7.6,1.6-17,1.6c-9.4,0-17-0.7-17-1.6c0-0.9,7.6-1.6,17-1.6
			C267.4,241.7,275,242.4,275,243.3z"/>
		<path class="st24" d="M274.8,243.3c0,0.9-7.5,1.6-16.8,1.6c-9.3,0-16.8-0.7-16.8-1.6c0-0.9,7.5-1.6,16.8-1.6
			C267.3,241.7,274.8,242.4,274.8,243.3z"/>
		<path class="st25" d="M274.6,243.2c0,0.8-7.4,1.5-16.5,1.5c-9.1,0-16.5-0.7-16.5-1.5c0-0.8,7.4-1.5,16.5-1.5
			C267.2,241.7,274.6,242.4,274.6,243.2z"/>
		<ellipse class="st26" cx="258" cy="243.2" rx="16.3" ry="1.5"/>
		<path class="st27" d="M274.1,243.2c0,0.8-7.2,1.5-16,1.5c-8.9,0-16-0.7-16-1.5c0-0.8,7.2-1.5,16-1.5
			C266.9,241.7,274.1,242.4,274.1,243.2z"/>
		<path class="st28" d="M273.8,243.2c0,0.8-7.1,1.5-15.8,1.5c-8.7,0-15.8-0.7-15.8-1.5c0-0.8,7.1-1.5,15.8-1.5
			C266.8,241.7,273.8,242.4,273.8,243.2z"/>
		<path class="st29" d="M273.6,243.2c0,0.8-7,1.4-15.6,1.4c-8.6,0-15.6-0.6-15.6-1.4c0-0.8,7-1.4,15.6-1.4
			C266.6,241.7,273.6,242.4,273.6,243.2z"/>
		<path class="st30" d="M273.4,243.1c0,0.8-6.9,1.4-15.3,1.4c-8.5,0-15.3-0.6-15.3-1.4c0-0.8,6.9-1.4,15.3-1.4
			C266.5,241.7,273.4,242.4,273.4,243.1z"/>
		<ellipse class="st31" cx="258" cy="243.1" rx="15.1" ry="1.4"/>
		<path class="st32" d="M272.9,243.1c0,0.8-6.6,1.4-14.8,1.4s-14.8-0.6-14.8-1.4c0-0.8,6.6-1.4,14.8-1.4S272.9,242.3,272.9,243.1z"
			/>
		<path class="st33" d="M272.6,243.1c0,0.7-6.5,1.3-14.6,1.3c-8.1,0-14.6-0.6-14.6-1.3c0-0.7,6.5-1.4,14.6-1.4
			C266.1,241.7,272.6,242.3,272.6,243.1z"/>
		<path class="st34" d="M272.4,243.1c0,0.7-6.4,1.3-14.4,1.3c-7.9,0-14.4-0.6-14.4-1.3c0-0.7,6.4-1.3,14.4-1.3
			C266,241.7,272.4,242.3,272.4,243.1z"/>
		<path class="st35" d="M272.2,243c0,0.7-6.3,1.3-14.1,1.3c-7.8,0-14.1-0.6-14.1-1.3c0-0.7,6.3-1.3,14.1-1.3
			C265.8,241.7,272.2,242.3,272.2,243z"/>
		<path class="st36" d="M271.9,243c0,0.7-6.2,1.3-13.9,1.3c-7.7,0-13.9-0.6-13.9-1.3c0-0.7,6.2-1.3,13.9-1.3
			C265.7,241.7,271.9,242.3,271.9,243z"/>
		<path class="st37" d="M271.7,243c0,0.7-6.1,1.3-13.6,1.3c-7.5,0-13.6-0.6-13.6-1.3c0-0.7,6.1-1.3,13.6-1.3
			C265.6,241.7,271.7,242.3,271.7,243z"/>
		<path class="st38" d="M271.4,243c0,0.7-6,1.2-13.4,1.2c-7.4,0-13.4-0.6-13.4-1.2c0-0.7,6-1.2,13.4-1.2
			C265.4,241.7,271.4,242.3,271.4,243z"/>
		<path class="st39" d="M271.2,243c0,0.7-5.9,1.2-13.2,1.2c-7.3,0-13.2-0.5-13.2-1.2c0-0.7,5.9-1.2,13.2-1.2
			C265.3,241.7,271.2,242.3,271.2,243z"/>
		<path class="st40" d="M271,242.9c0,0.7-5.8,1.2-12.9,1.2c-7.1,0-12.9-0.5-12.9-1.2c0-0.7,5.8-1.2,12.9-1.2
			C265.2,241.7,271,242.3,271,242.9z"/>
		<path class="st41" d="M270.7,242.9c0,0.6-5.7,1.2-12.7,1.2c-7,0-12.7-0.5-12.7-1.2c0-0.7,5.7-1.2,12.7-1.2
			C265,241.7,270.7,242.3,270.7,242.9z"/>
		<path class="st42" d="M270.5,242.9c0,0.6-5.6,1.1-12.4,1.1c-6.9,0-12.4-0.5-12.4-1.1c0-0.6,5.6-1.2,12.4-1.2
			C264.9,241.8,270.5,242.3,270.5,242.9z"/>
		<path class="st43" d="M270.2,242.9c0,0.6-5.5,1.1-12.2,1.1c-6.7,0-12.2-0.5-12.2-1.1c0-0.6,5.5-1.1,12.2-1.1
			C264.8,241.8,270.2,242.3,270.2,242.9z"/>
		<path class="st44" d="M270,242.9c0,0.6-5.4,1.1-12,1.1c-6.6,0-12-0.5-12-1.1c0-0.6,5.4-1.1,12-1.1
			C264.6,241.8,270,242.3,270,242.9z"/>
		<path class="st45" d="M269.8,242.8c0,0.6-5.2,1.1-11.7,1.1c-6.5,0-11.7-0.5-11.7-1.1c0-0.6,5.2-1.1,11.7-1.1
			C264.5,241.8,269.8,242.2,269.8,242.8z"/>
		<path class="st46" d="M269.5,242.8c0,0.6-5.1,1.1-11.5,1.1c-6.3,0-11.5-0.5-11.5-1.1c0-0.6,5.1-1.1,11.5-1.1
			C264.4,241.8,269.5,242.2,269.5,242.8z"/>
		<path class="st47" d="M269.3,242.8c0,0.6-5,1-11.2,1c-6.2,0-11.2-0.5-11.2-1c0-0.6,5-1,11.2-1
			C264.2,241.8,269.3,242.2,269.3,242.8z"/>
		<path class="st48" d="M269,242.8c0,0.6-4.9,1-11,1c-6.1,0-11-0.5-11-1c0-0.6,4.9-1,11-1C264.1,241.8,269,242.2,269,242.8z"/>
	</g>
	<g>
		<path class="st49" d="M219.7,242.2c0,0-2.4,0.1-2.6,0c-0.2-0.1-0.9-3.9-0.9-4.5c0-0.6,0.2-2.5,0.9-2.5c0.7,0,6.3-1.5,7-0.3
			C224.8,236.1,222.3,243.7,219.7,242.2z"/>
		<path class="st50" d="M219.7,228.8l-3.5-1.7v7.9c0,0,1.3,1.6,3.5,1.6c2.5,0,3.5-1.5,3.5-1.5v-6.8L219.7,228.8z"/>
		<path class="st51" d="M223.2,230.1c0,0-1.7,1.5-6.9,4.4l0-5.1L223.2,230.1z"/>
		<path class="st52" d="M219.7,234.6v2.9l-0.9,0.3l-1.3-2.2C217.5,235.7,218.7,234.7,219.7,234.6z"/>
		<path class="st53" d="M216.2,232.6l-0.7,0.3l1.6,5.5l2.5-3.8C219.7,234.6,218.3,234.4,216.2,232.6z"/>
		<g>
			<path class="st50" d="M214.2,222.9c0,0,0.8,6.4,1,6.7c0.2,0.3,3.4,2.1,4.4,2v-15.4C219.7,216.2,213,213.4,214.2,222.9z"/>
			<path class="st50" d="M225.1,222.9c0,0-0.8,6.4-1,6.7c-0.2,0.3-3.4,2.1-4.4,2v-15.4C219.7,216.2,226,214.8,225.1,222.9z"/>
			<path class="st50" d="M224.2,226.7c0,0,0.9,0.3,1.5-1.5c0.7-2.1,0.2-3.1-0.4-3c-0.2,0-0.4,0.1-0.5,0.1c-0.4,0.2-0.5,0.7-0.5,0.7
				L224.2,226.7z"/>
			<path class="st50" d="M215.2,226.7c0,0-0.9,0.3-1.5-1.5c-0.7-2.1-0.2-3.1,0.4-3c0.2,0,0.4,0.1,0.5,0.1c0.4,0.2,0.5,0.7,0.5,0.7
				L215.2,226.7z"/>
			<g>
				<g>
					<path class="st54" d="M213.6,217.2c-0.5,1.3,0.5,5.1,0.5,5.1l0.6,1l-0.2-2.1c0,0,1.3-2.9,1-4l-0.8-1.2
						C214.7,215.9,213.8,216.8,213.6,217.2z"/>
				</g>
			</g>
			<g>
				<g>
					<path class="st54" d="M225.7,217.2c0.5,1.3-0.5,5.1-0.5,5.1l-0.6,1l0.2-2.1c0,0-1.3-2.9-1-4l0.8-1.2
						C224.6,215.9,225.6,216.8,225.7,217.2z"/>
				</g>
			</g>
			<path class="st54" d="M219.7,213.2c-1.6,0-3.9,0.7-4.9,2.7l0.8,1.2c0,0,2.3,1.2,4.2,1.4c1.2,0.1,3.1,0.1,4.5-1l0.4-1.6
				C224.6,215.9,223.5,213.2,219.7,213.2z"/>
		</g>
		<path class="st55" d="M219.7,234.6v2.9l0.9,0.3l1.3-2.2C221.8,235.7,220.6,234.7,219.7,234.6z"/>
		<path class="st56" d="M223.2,232.6l0.7,0.5l-1.6,5.4l-2.6-3.8C219.7,234.6,221.1,234.3,223.2,232.6z"/>
		<g>
			<path class="st57" d="M213.4,238.8l0.7-1.1l0.4-0.5l-1.3-2.2l-0.5-0.8l0,0c0,0-5.2,2.4-5.2,2.4c-0.4,0.4-1,4-1.5,7.1h11.1
				L213.4,238.8z"/>
			<path class="st58" d="M226,238.8l-3.7,4.9h11.1c-0.4-3.1-1.1-6.7-1.5-7.1c0,0-5.2-2.4-5.2-2.4l-1.8,3L226,238.8z"/>
			<path class="st52" d="M219.7,243.7v-6.2l-0.9,0.3c0,0-0.6,2.6-0.7,3.9l0.6,2H219.7z"/>
			<path class="st55" d="M220.7,243.7l0.6-2c-0.1-1.3-0.7-3.9-0.7-3.9l-0.9-0.3v6.2H220.7z"/>
			<polygon class="st59" points="214.5,237.3 214.1,237.8 213.4,238.8 217.1,243.7 218.7,243.7 218.1,241.7 216.1,235 215.5,233 
				212.6,234.2 213.1,235.1 			"/>
			<polygon class="st60" points="226,238.8 224.9,237.3 226.7,234.2 223.9,233 223.3,235 221.4,241.2 220.7,243.7 222.3,243.7 			
				"/>
		</g>
	</g>
	<g>
		<path class="st49" d="M260,242.2c0,0,2.4,0.1,2.6,0c0.2-0.1,0.9-3.9,0.9-4.5c0-0.6-0.2-2.5-0.9-2.5c-0.7,0-6.3-1.5-7-0.3
			C254.8,236.1,257.4,243.7,260,242.2z"/>
		<path class="st50" d="M260,228.8l3.5-1.7v7.9c0,0-1.3,1.6-3.5,1.6c-2.5,0-3.5-1.5-3.5-1.5v-6.8L260,228.8z"/>
		<path class="st51" d="M256.5,230.1c0,0,1.7,1.5,6.9,4.4l0-5.1L256.5,230.1z"/>
		<path class="st55" d="M260,234.6v2.9l0.9,0.3l1.3-2.2C262.1,235.7,260.9,234.7,260,234.6z"/>
		<path class="st53" d="M263.5,232.6l0.7,0.3l-1.6,5.5l-2.5-3.8C260,234.6,261.4,234.4,263.5,232.6z"/>
		<g>
			<path class="st50" d="M265.4,222.9c0,0-0.8,6.4-1,6.7c-0.2,0.3-3.4,2.1-4.4,2v-15.4C260,216.2,266.7,213.4,265.4,222.9z"/>
			<path class="st50" d="M254.6,222.9c0,0,0.8,6.4,1,6.7c0.2,0.3,3.4,2.1,4.4,2v-15.4C260,216.2,253.7,214.8,254.6,222.9z"/>
			<path class="st50" d="M255.5,226.7c0,0-0.9,0.3-1.5-1.5c-0.7-2.1-0.2-3.1,0.4-3c0.2,0,0.4,0.1,0.5,0.1c0.4,0.2,0.5,0.7,0.5,0.7
				L255.5,226.7z"/>
			<path class="st50" d="M264.5,226.7c0,0,0.9,0.3,1.5-1.5c0.7-2.1,0.2-3.1-0.4-3c-0.2,0-0.4,0.1-0.5,0.1c-0.4,0.2-0.5,0.7-0.5,0.7
				L264.5,226.7z"/>
			<g>
				<g>
					<path class="st54" d="M266,217.2c0.5,1.3-0.5,5.1-0.5,5.1l-0.6,1l0.2-2.1c0,0-1.3-2.9-1-4l0.8-1.2
						C264.9,215.9,265.9,216.8,266,217.2z"/>
				</g>
			</g>
			<g>
				<g>
					<path class="st54" d="M254,217.2c-0.5,1.3,0.5,5.1,0.5,5.1l0.6,1l-0.1-2.1c0,0,1.3-2.9,1-4l-0.8-1.2
						C255.1,215.9,254.1,216.8,254,217.2z"/>
				</g>
			</g>
			<path class="st54" d="M260,213.2c1.6,0,3.9,0.7,4.9,2.7l-0.8,1.2c0,0-2.3,1.2-4.2,1.4c-1.2,0.1-3.1,0.1-4.5-1l-0.4-1.6
				C255.1,215.9,256.2,213.2,260,213.2z"/>
		</g>
		<path class="st52" d="M260,234.6v2.9l-0.9,0.3l-1.3-2.2C257.8,235.7,259,234.7,260,234.6z"/>
		<path class="st56" d="M256.5,232.6l-0.7,0.5l1.6,5.4l2.6-3.8C260,234.6,258.6,234.3,256.5,232.6z"/>
		<g>
			<path class="st57" d="M266.3,238.8l-0.7-1.1l-0.4-0.5l1.3-2.2l0.5-0.8l0,0c0,0,5.2,2.4,5.2,2.4c0.4,0.4,1,4,1.5,7.1h-11.1
				L266.3,238.8z"/>
			<path class="st58" d="M253.7,238.8l3.7,4.9h-11.1c0.4-3.1,1.1-6.7,1.5-7.1c0,0,5.2-2.4,5.2-2.4l1.8,3L253.7,238.8z"/>
			<path class="st55" d="M260,243.7v-6.2l0.9,0.3c0,0,0.6,2.6,0.7,3.9l-0.6,2H260z"/>
			<path class="st52" d="M259,243.7l-0.6-2c0.1-1.3,0.7-3.9,0.7-3.9l0.9-0.3v6.2H259z"/>
			<polygon class="st59" points="265.2,237.3 265.6,237.8 266.3,238.8 262.6,243.7 261,243.7 261.6,241.7 263.5,235 264.1,233 
				267,234.2 266.5,235.1 			"/>
			<polygon class="st60" points="253.7,238.8 254.8,237.3 252.9,234.2 255.8,233 256.4,235 258.2,241.2 259,243.7 257.4,243.7 			
				"/>
		</g>
	</g>
	<g>
		<path class="st49" d="M239.8,249.3c0,0-3.2,0.2-3.5,0c-0.2-0.2-1.2-5.2-1.2-5.9c0-0.8,0.2-3.4,1.2-3.4c1,0,8.3-1.9,9.3-0.4
			C246.7,241.2,243.2,251.3,239.8,249.3z"/>
		<g>
			<path class="st50" d="M239.8,231.5l-4.6-2.3v10.4c0,0,1.8,2.1,4.6,2.1c3.3,0,4.6-2,4.6-2v-9.1L239.8,231.5z"/>
			<path class="st51" d="M244.4,233.3c0,0-2.2,2-9.2,5.8l0-6.8L244.4,233.3z"/>
			<path class="st61" d="M239.8,239.2v3.9l-1.2,0.4l-1.7-2.8C237,240.7,238.6,239.3,239.8,239.2z"/>
			<path class="st53" d="M235.2,236.6l-0.9,0.5l2.1,7.2l3.4-5.1C239.8,239.2,237.9,239,235.2,236.6z"/>
			<g>
				<path class="st50" d="M232.6,223.7c0,0,1.1,8.4,1.3,8.8c0.2,0.4,4.5,2.7,5.9,2.6v-20.4C239.8,214.8,230.9,211.1,232.6,223.7z"/>
				<path class="st50" d="M247,223.7c0,0-1.1,8.4-1.3,8.8c-0.2,0.4-4.5,2.7-5.9,2.6v-20.4C239.8,214.8,248.2,213,247,223.7z"/>
				<path class="st50" d="M245.8,228.7c0,0,1.2,0.5,2-2c0.9-2.8,0.3-4.1-0.5-4c-0.3,0-0.5,0.1-0.7,0.2c-0.5,0.3-0.7,0.9-0.7,0.9
					L245.8,228.7z"/>
				<path class="st50" d="M233.9,228.7c0,0-1.2,0.5-2-2c-0.9-2.8-0.3-4.1,0.5-4c0.3,0,0.5,0.1,0.7,0.2c0.5,0.3,0.7,0.9,0.7,0.9
					L233.9,228.7z"/>
				<g>
					<g>
						<path class="st54" d="M231.8,216.1c-0.6,1.7,0.7,6.7,0.7,6.7l0.8,1.3l-0.2-2.8c0,0,1.8-3.8,1.3-5.3l-1.1-1.6
							C233.3,214.5,232,215.6,231.8,216.1z"/>
					</g>
				</g>
				<g>
					<g>
						<path class="st54" d="M247.8,216.1c0.6,1.7-0.7,6.7-0.7,6.7l-0.8,1.3l0.2-2.8c0,0-1.8-3.8-1.3-5.3l1.1-1.6
							C246.4,214.5,247.6,215.6,247.8,216.1z"/>
					</g>
				</g>
				<path class="st54" d="M239.8,210.9c-2.1,0-5.2,1-6.5,3.5l1.1,1.6c0,0,3,1.6,5.5,1.8c1.6,0.1,4.1,0.2,6-1.3l0.5-2.1
					C246.4,214.5,244.8,210.9,239.8,210.9z"/>
			</g>
			<path class="st62" d="M239.8,239.2v3.9l1.2,0.4l1.7-2.8C242.7,240.7,241.1,239.3,239.8,239.2z"/>
			<path class="st56" d="M244.4,236.6l1,0.6l-2.1,7.1l-3.5-5C239.8,239.2,241.7,238.9,244.4,236.6z"/>
			<g>
				<path class="st57" d="M231.5,244.8l1-1.4l0.5-0.7l-1.8-2.9l-0.7-1.1l0,0c0,0-6.9,3.1-6.9,3.2c-0.5,0.5-1.4,5.3-2,9.4h14.7
					L231.5,244.8z"/>
				<path class="st58" d="M248.2,244.8l-4.9,6.5H258c-0.6-4.1-1.5-8.9-2-9.4c0,0-6.9-3.2-6.9-3.2l-2.4,4L248.2,244.8z"/>
				<path class="st61" d="M239.8,251.3v-8.2l-1.2,0.4c0,0-0.8,3.4-0.9,5.1l0.8,2.6H239.8z"/>
				<path class="st62" d="M241.2,251.3l0.8-2.6c-0.2-1.7-0.9-5.1-0.9-5.1l-1.2-0.4v8.2H241.2z"/>
				<polygon class="st59" points="232.9,242.8 232.4,243.5 231.5,244.8 236.4,251.3 238.5,251.3 237.7,248.7 235.1,239.8 
					234.4,237.1 230.5,238.8 231.2,239.9 				"/>
				<polygon class="st60" points="248.2,244.8 246.8,242.8 249.2,238.8 245.4,237.2 244.6,239.8 242.2,248 241.2,251.3 243.3,251.3 
									"/>
			</g>
		</g>
	</g>
</g>
<g>
	<rect x="139.6" y="219" class="st63" width="54.2" height="0.2"/>
	<rect x="139.6" y="223.2" class="st63" width="54.2" height="0.2"/>
	<rect x="139.6" y="227.3" class="st63" width="54.2" height="0.2"/>
	<rect x="139.6" y="231.5" class="st63" width="54.2" height="0.2"/>
	<rect x="139.6" y="235.7" class="st63" width="54.2" height="0.2"/>
	<rect x="139.6" y="239.8" class="st63" width="54.6" height="0.2"/>
	<rect x="139.6" y="244" class="st63" width="54.6" height="0.2"/>
	<rect x="139.6" y="248.2" class="st63" width="54.6" height="0.2"/>
	<rect x="139.6" y="252.3" class="st63" width="52" height="0.2"/>
	<g>
		<path class="st3" d="M143.6,232.7c0,0.6-0.5,1.1-1.1,1.1c-0.6,0-1.1-0.5-1.1-1.1c0-0.6,0.5-1.1,1.1-1.1
			C143.1,231.6,143.6,232.1,143.6,232.7z"/>
		<path class="st3" d="M151,225.3c0,0.6-0.5,1.1-1.1,1.1c-0.6,0-1.1-0.5-1.1-1.1c0-0.6,0.5-1.1,1.1-1.1
			C150.5,224.2,151,224.7,151,225.3z"/>
		<path class="st3" d="M159.2,222.3c0,0.6-0.5,1.1-1.1,1.1c-0.6,0-1.1-0.5-1.1-1.1c0-0.6,0.5-1.1,1.1-1.1
			C158.7,221.2,159.2,221.7,159.2,222.3z"/>
		<path class="st3" d="M167.6,229c0,0.6-0.5,1.1-1.1,1.1c-0.6,0-1.1-0.5-1.1-1.1c0-0.6,0.5-1.1,1.1-1.1
			C167.1,227.9,167.6,228.4,167.6,229z"/>
		<path class="st3" d="M175.2,220.6c0,0.6-0.5,1.1-1.1,1.1c-0.6,0-1.1-0.5-1.1-1.1c0-0.6,0.5-1.1,1.1-1.1
			C174.7,219.5,175.2,220,175.2,220.6z"/>
		<path class="st3" d="M183.8,227.5c0,0.6-0.5,1.1-1.1,1.1c-0.6,0-1.1-0.5-1.1-1.1c0-0.6,0.5-1.1,1.1-1.1
			C183.3,226.4,183.8,226.9,183.8,227.5z"/>
		<path class="st3" d="M192.5,219.7c0,0.6-0.5,1.1-1.1,1.1c-0.6,0-1.1-0.5-1.1-1.1c0-0.6,0.5-1.1,1.1-1.1
			C192,218.6,192.5,219.1,192.5,219.7z"/>
		<polygon class="st3" points="143.2,232.3 143.1,232.1 148.7,225.8 148.9,226 		"/>
		
			<rect x="150.3" y="223.3" transform="matrix(0.945 -0.3271 0.3271 0.945 -64.6355 62.5919)" class="st3" width="6.9" height="0.2"/>
		<polygon class="st3" points="165.9,228.7 158.6,222.9 158.8,222.7 166,228.5 		"/>
		<polygon class="st3" points="167.5,228.6 167.3,228.4 173.1,221.1 173.3,221.3 		"/>
		<polygon class="st3" points="182,227.1 174.7,221.4 174.9,221.2 182.2,227 		"/>
		<polygon class="st3" points="183.8,226.6 183.7,226.5 190.5,220.2 190.7,220.3 		"/>
	</g>
	<path class="st64" d="M143.8,249.1L143.8,249.1c-0.7,0-1.3-0.5-1.5-1.3c-0.1-0.4,0-0.8,0.3-1.1c0.2-0.3,0.6-0.5,1-0.6
		c0.8-0.1,1.6,0.4,1.7,1.2c0.1,0.8-0.4,1.6-1.2,1.7C143.9,249.1,143.9,249.1,143.8,249.1z M143.8,247.1
		C143.8,247.1,143.7,247.1,143.8,247.1c-0.2,0-0.4,0.1-0.5,0.2c-0.1,0.1-0.1,0.3-0.1,0.4c0,0.3,0.3,0.5,0.6,0.5c0,0,0.1,0,0.1,0
		c0.3,0,0.5-0.3,0.5-0.7C144.3,247.3,144.1,247.1,143.8,247.1z"/>
	<path class="st64" d="M150.5,245.5C150.5,245.5,150.5,245.5,150.5,245.5c-0.7,0-1.3-0.5-1.5-1.3c-0.1-0.8,0.4-1.6,1.2-1.7
		c0.8-0.1,1.6,0.4,1.7,1.2c0.1,0.4,0,0.8-0.3,1.1c-0.2,0.3-0.6,0.5-1,0.6C150.7,245.5,150.6,245.5,150.5,245.5z M150.6,243.5
		C150.5,243.5,150.5,243.5,150.6,243.5c-0.4,0.1-0.6,0.4-0.6,0.7c0,0.3,0.3,0.5,0.6,0.5l0,0c0,0,0.1,0,0.1,0c0.2,0,0.3-0.1,0.4-0.2
		c0.1-0.1,0.1-0.3,0.1-0.4C151.1,243.7,150.8,243.5,150.6,243.5z"/>
	<path class="st64" d="M158.4,247.1c-0.7,0-1.3-0.5-1.5-1.2c-0.1-0.4,0-0.8,0.3-1.1c0.2-0.3,0.6-0.5,1-0.6c0.8-0.1,1.6,0.4,1.7,1.2
		c0.1,0.4,0,0.8-0.3,1.1c-0.2,0.3-0.6,0.5-1,0.6C158.6,247.1,158.5,247.1,158.4,247.1z M158.4,245C158.4,245,158.4,245.1,158.4,245
		c-0.2,0-0.4,0.1-0.5,0.2c-0.1,0.1-0.1,0.3-0.1,0.4c0,0.3,0.3,0.5,0.7,0.5c0.2,0,0.3-0.1,0.4-0.2c0.1-0.1,0.1-0.3,0.1-0.4
		C159,245.3,158.7,245,158.4,245z"/>
	<path class="st64" d="M165.2,239.8L165.2,239.8c-0.7,0-1.3-0.5-1.5-1.3c-0.1-0.8,0.4-1.6,1.2-1.7c0.8-0.1,1.6,0.4,1.7,1.2
		c0.1,0.8-0.4,1.6-1.2,1.7C165.3,239.8,165.3,239.8,165.2,239.8z M165.2,237.7C165.2,237.7,165.1,237.7,165.2,237.7
		c-0.4,0.1-0.6,0.4-0.6,0.7c0,0.3,0.3,0.5,0.6,0.5l0,0c0,0,0.1,0,0.1,0c0.3,0,0.5-0.3,0.5-0.7C165.7,237.9,165.5,237.7,165.2,237.7z
		"/>
	<path class="st64" d="M173.3,246.4c-0.7,0-1.3-0.5-1.5-1.3c-0.1-0.4,0-0.8,0.3-1.1c0.2-0.3,0.6-0.5,1-0.6c0.8-0.1,1.6,0.4,1.7,1.2
		c0.1,0.4,0,0.8-0.3,1.1c-0.2,0.3-0.6,0.5-1,0.6C173.4,246.4,173.4,246.4,173.3,246.4z M173.3,244.4
		C173.3,244.4,173.2,244.4,173.3,244.4c-0.3,0-0.4,0.1-0.5,0.2c-0.1,0.1-0.1,0.3-0.1,0.4c0,0.3,0.3,0.5,0.7,0.5
		c0.2,0,0.3-0.1,0.4-0.2c0.1-0.1,0.1-0.3,0.1-0.4C173.8,244.6,173.6,244.4,173.3,244.4z"/>
	<path class="st64" d="M180.1,239L180.1,239c-0.7,0-1.3-0.5-1.5-1.3c-0.1-0.4,0-0.8,0.3-1.1c0.2-0.3,0.6-0.5,1-0.6
		c0.8-0.1,1.6,0.4,1.7,1.2c0.1,0.4,0,0.8-0.3,1.1c-0.2,0.3-0.6,0.5-1,0.6C180.3,239,180.2,239,180.1,239z M180.1,236.9
		C180.1,236.9,180.1,236.9,180.1,236.9c-0.2,0-0.4,0.1-0.5,0.2c-0.1,0.1-0.1,0.3-0.1,0.4c0,0.3,0.3,0.5,0.6,0.5l0,0c0,0,0.1,0,0.1,0
		c0.2,0,0.3-0.1,0.4-0.2c0.1-0.1,0.1-0.3,0.1-0.4C180.7,237.1,180.4,236.9,180.1,236.9z"/>
	
		<rect x="144.3" y="245.7" transform="matrix(0.9114 -0.4115 0.4115 0.9114 -88.1135 82.3262)" class="st64" width="5.6" height="0.2"/>
	<polygon class="st64" points="157.4,245.9 151.2,244.8 151.2,244.5 157.4,245.7 	"/>
	<polygon class="st64" points="159,245.2 158.8,245 164.7,238.7 164.8,238.9 	"/>
	
		<rect x="169.1" y="237.3" transform="matrix(0.683 -0.7304 0.7304 0.683 -122.84 200.1888)" class="st64" width="0.2" height="8.6"/>
	<polygon class="st64" points="173.9,244.3 173.8,244.2 179.6,237.9 179.8,238 	"/>
	<polygon class="st64" points="187.4,242.4 181.2,238.3 181.3,238.1 187.5,242.3 	"/>
	<path class="st64" d="M187.9,245L187.9,245c-0.7,0-1.3-0.5-1.5-1.3c-0.1-0.4,0-0.8,0.3-1.1c0.2-0.3,0.6-0.5,1-0.6
		c0.8-0.1,1.6,0.5,1.7,1.2c0.1,0.4,0,0.8-0.3,1.1c-0.2,0.3-0.6,0.5-1,0.6C188.1,245,188,245,187.9,245z M187.9,242.9
		C187.9,242.9,187.9,242.9,187.9,242.9c-0.2,0-0.4,0.1-0.5,0.2c-0.1,0.1-0.1,0.3-0.1,0.4c0,0.3,0.3,0.5,0.6,0.5l0,0c0,0,0.1,0,0.1,0
		c0.2,0,0.3-0.1,0.4-0.2c0.1-0.1,0.1-0.3,0.1-0.4C188.5,243.1,188.2,242.9,187.9,242.9z"/>
</g>
<g>
	<rect x="140.5" y="263.2" class="st64" width="3.1" height="29.9"/>
	<g>
		<rect x="152.4" y="266.9" class="st3" width="3.1" height="26.2"/>
		<rect x="164.3" y="271.5" class="st64" width="3.1" height="21.6"/>
		<rect x="176.2" y="274" class="st3" width="3.1" height="19.1"/>
		<rect x="188.1" y="275.6" class="st64" width="3.1" height="17.5"/>
		<rect x="146.9" y="271.6" class="st4" width="3.1" height="21.5"/>
		<rect x="158.2" y="275.6" class="st4" width="3.1" height="17.5"/>
		<rect x="170.3" y="280" class="st4" width="3.1" height="13.1"/>
		<rect x="182.1" y="283.5" class="st4" width="3.1" height="9.6"/>
		<rect x="194.5" y="285.7" class="st4" width="3.1" height="7.4"/>
		<rect x="138.9" y="293.1" class="st63" width="61.2" height="0.6"/>
	</g>
</g>
<g>
	<rect x="205" y="265.6" class="st64" width="20.6" height="2.3"/>
	<rect x="205" y="274" class="st64" width="27" height="2.3"/>
	<rect x="205" y="291.4" class="st64" width="25.7" height="2.3"/>
	<rect x="205" y="283.5" class="st64" width="11.9" height="2.3"/>
</g>
<rect x="235.8" y="265.6" class="st64" width="36.6" height="2.3"/>
<rect x="235.8" y="274" class="st64" width="36.6" height="2.3"/>
<rect x="235.8" y="291.4" class="st64" width="36.6" height="2.3"/>
<rect x="221.1" y="283.5" class="st64" width="27.8" height="2.3"/>
<rect x="255.8" y="283.5" class="st64" width="16.5" height="2.3"/>
<g>
	<path class="st8" d="M254.4,293.4c0.7,3.9-2,5.7-5.5,6.3l0,0c-3.5,0.6-6.5-0.6-7.1-4.5l-6.5-38.7c-0.6-3.9,1.6-7.5,5.1-8.1l0,0
		c3.5-0.6,6.8,2.1,7.5,6L254.4,293.4z"/>
	<path class="st8" d="M273.3,324.8c0.7,4.1-1.4,7.9-4.7,8.4l0,0c-3.3,0.6-6.5-2.3-7.2-6.4l-6.5-39.1c-0.7-4.1,1.4-7.9,4.7-8.4l0,0
		c3.3-0.6,6.5,2.3,7.2,6.4L273.3,324.8z"/>
	<path class="st8" d="M286.7,321.5c0.6,3.9-1.3,7.5-4.4,8l0,0c-3.1,0.5-6.1-2.2-6.8-6.1l-6.2-37c-0.6-3.9,1.3-7.5,4.4-8l0,0
		c3.1-0.5,6.1,2.2,6.8,6.1L286.7,321.5z"/>
	<path class="st8" d="M298.6,317c0.6,3.4-1.5,6.5-4.6,7.1l0,0c-3.1,0.5-6.1-1.8-6.7-5.2l-5.3-32.1c-0.6-3.4,1.5-6.5,4.6-7l0,0
		c3.1-0.5,6.1,1.8,6.7,5.2L298.6,317z"/>
	<polygon class="st8" points="241.7,295.2 246.1,322 297.8,314.1 293.3,286.7 	"/>
	<path class="st8" d="M296.7,307.4c0,0,2.5,12.6,1.5,16.3c-1.2,4.7-5.7,5.6-6,6.2c-0.3,0.6,3,17.8,3,17.8l-39.8,7.7l-2.8-17.9
		c0,0-11.3,3-14.5-4.3c-3.1-7.1-5.2-12.9-8.2-20.3l16.2,5.5l21.3-6.7L296.7,307.4z"/>
	<g>
		<polygon class="st65" points="299.7,352.3 296.9,335.8 250,343.6 252.8,360.1 		"/>
		<polygon class="st64" points="315,400 253.4,400 247.7,360.6 305.5,351.8 		"/>
	</g>
	<path class="st8" d="M247.2,320c1.4,3.5-0.3,7.4-3.8,8.8l0,0c-3.5,1.4-7.4-0.3-8.8-3.8l-14-34.8c-1.4-3.5,0.3-7.4,3.8-8.8l0,0
		c3.5-1.4,7.4,0.3,8.8,3.8L247.2,320z"/>
	<g>
		<path class="st9" d="M236.3,303.5c-0.1-0.2-0.5-0.2-0.9,0l-4.7,2c-0.4,0.2-0.7,0.5-0.6,0.7l0,0c0.1,0.2,0.5,0.2,0.9,0l4.7-2
			C236.1,304,236.4,303.7,236.3,303.5L236.3,303.5z"/>
		<path class="st9" d="M235.7,302.1c-0.1-0.2-0.5-0.2-0.9,0l-4.7,2c-0.4,0.2-0.7,0.5-0.6,0.7l0,0c0.1,0.2,0.5,0.2,0.9,0l4.7-2
			C235.5,302.6,235.8,302.3,235.7,302.1L235.7,302.1z"/>
	</g>
	<path class="st9" d="M222.6,286c0,0,1.2-0.7,2.8-1.2l0,0c0,0,0,0,0,0c0,0,0,0,0,0l0,0c1.6-0.5,3-0.6,3-0.6c0.6,2,1.5,4.9,0.7,6.3
		c-0.3,0.7-1,1-1.6,1.2l0,0c0,0,0,0,0,0c0,0,0,0,0,0v0c-0.6,0.2-1.4,0.3-2-0.1C224,290.9,223.2,287.9,222.6,286z"/>
	<g>
		<path class="st9" d="M247.3,271.5c0-0.2-0.4-0.3-0.9-0.2l-5,1c-0.4,0.1-0.7,0.3-0.7,0.5l0,0c0,0.2,0.4,0.3,0.9,0.2l5-1
			C247,271.9,247.3,271.7,247.3,271.5L247.3,271.5z"/>
		<path class="st9" d="M246.9,269.9c0-0.2-0.4-0.3-0.9-0.2l-5,1c-0.4,0.1-0.7,0.3-0.7,0.5l0,0c0,0.2,0.4,0.3,0.9,0.2l5-1
			C246.7,270.3,247,270.1,246.9,269.9L246.9,269.9z"/>
	</g>
	<path class="st9" d="M238.3,253c0,0,1.3-0.5,3-0.6l0,0c0,0,0,0,0,0c0,0,0,0,0,0l0,0c1.7-0.2,3.1,0,3.1,0c0.2,2,0.6,5.1-0.4,6.4
		c-0.5,0.6-1.2,0.8-1.8,0.9l0,0c0,0,0,0,0,0c0,0,0,0,0,0h0c-0.6,0.1-1.4,0-2-0.5C238.8,258.1,238.5,255,238.3,253z"/>
	<g>
		<path class="st66" d="M278,290.3c0-0.2-0.3-0.2-0.6-0.2l-3.7,0.7c-0.3,0.1-0.6,0.2-0.5,0.4l0,0c0,0.2,0.3,0.2,0.6,0.2l3.7-0.7
			C277.8,290.7,278,290.5,278,290.3L278,290.3z"/>
		<path class="st66" d="M277.8,289.2c0-0.2-0.3-0.2-0.6-0.2l-3.7,0.7c-0.3,0.1-0.6,0.2-0.5,0.4l0,0c0,0.2,0.3,0.2,0.6,0.2l3.7-0.7
			C277.6,289.5,277.8,289.3,277.8,289.2L277.8,289.2z"/>
	</g>
	<g>
		<path class="st66" d="M264.8,292.3c0-0.2-0.3-0.2-0.6-0.2l-3.7,0.7c-0.3,0.1-0.6,0.2-0.5,0.4l0,0c0,0.2,0.3,0.2,0.6,0.2l3.7-0.7
			C264.6,292.6,264.8,292.5,264.8,292.3L264.8,292.3z"/>
		<path class="st66" d="M264.6,291.1c0-0.2-0.3-0.2-0.6-0.2l-3.7,0.7c-0.3,0.1-0.6,0.2-0.5,0.4l0,0c0,0.2,0.3,0.2,0.6,0.2l3.7-0.7
			C264.3,291.5,264.6,291.3,264.6,291.1L264.6,291.1z"/>
	</g>
	<g>
		<path class="st66" d="M250.2,294.8c0-0.2-0.3-0.2-0.6-0.2l-3.7,0.7c-0.3,0.1-0.6,0.2-0.5,0.4l0,0c0,0.2,0.3,0.2,0.6,0.2l3.7-0.7
			C250,295.1,250.2,294.9,250.2,294.8L250.2,294.8z"/>
		<path class="st66" d="M250,293.6c0-0.2-0.3-0.2-0.6-0.2l-3.7,0.7c-0.3,0.1-0.6,0.2-0.5,0.4l0,0c0,0.2,0.3,0.2,0.6,0.2l3.7-0.7
			C249.8,293.9,250,293.7,250,293.6L250,293.6z"/>
	</g>
	<g>
		<path class="st66" d="M291.8,287.9c0-0.2-0.3-0.2-0.6-0.2l-3.7,0.7c-0.3,0.1-0.6,0.2-0.5,0.4l0,0c0,0.2,0.3,0.2,0.6,0.2l3.7-0.7
			C291.6,288.2,291.8,288,291.8,287.9L291.8,287.9z"/>
		<path class="st66" d="M291.6,286.7c0-0.2-0.3-0.2-0.6-0.2l-3.7,0.7c-0.3,0.1-0.6,0.2-0.5,0.4l0,0c0,0.2,0.3,0.2,0.6,0.2l3.7-0.7
			C291.4,287,291.6,286.9,291.6,286.7L291.6,286.7z"/>
	</g>
</g>
<path class="st8" d="M92.4,300l20.9,0.5c-0.1,1.6,0.1,2.9,0.7,3.6c4.8,5.3,8.8,4.8,15,0.9c3.6-2.2,7.5-4.7,14-8.9
	c13.9-8.9,17-3.1,17.3,0.2c0.6,7.2-16.4,14.1-20.8,22.8c-5.2,10.4-15.3,19.4-15.3,19.4v30H92.5C92.5,368.5,91.5,305.9,92.4,300z"/>
<path class="st9" d="M159.5,299c0,0-0.7-1.5-1.9-3.1l0,0c0,0,0,0,0,0c0,0,0,0,0,0l0,0c-1.2-1.6-2.5-2.6-2.5-2.6
	c-1.9,1.5-4.8,3.6-5.1,5.6c-0.1,0.9,0.3,1.7,0.7,2.3l0,0c0,0,0,0,0,0c0,0,0,0,0,0l0,0c0.5,0.6,1.1,1.2,2,1.3
	C154.7,302.7,157.6,300.5,159.5,299z"/>
<g>
	<path class="st9" d="M138.4,304.7c0.2-0.1,0.5,0.1,0.8,0.5l2.7,4.2c0.2,0.4,0.3,0.8,0.1,0.9l0,0c-0.2,0.1-0.5-0.1-0.7-0.5l-2.7-4.2
		C138.2,305.2,138.2,304.8,138.4,304.7L138.4,304.7z"/>
	<path class="st9" d="M139.7,303.8c0.2-0.1,0.5,0.1,0.7,0.5l2.7,4.2c0.2,0.4,0.3,0.8,0.1,0.9l0,0c-0.2,0.1-0.5-0.1-0.7-0.5l-2.7-4.2
		C139.6,304.3,139.5,303.9,139.7,303.8L139.7,303.8z"/>
</g>
<g>
	<polygon class="st64" points="145.1,368.5 144.9,400 79.1,400 79.4,368.5 	"/>
</g>
<rect x="86.5" y="352.1" class="st65" width="50.1" height="16.4"/>
<g>
	<path class="st67" d="M288.3,257.3c-2.3,1.3-3.2,4-2.3,6.4c-0.2-0.2-0.4-0.5-0.5-0.7c-1.5-2.5-0.6-5.7,1.9-7.2
		c2.5-1.5,5.7-0.6,7.2,1.9c0.2,0.3,0.3,0.5,0.4,0.8C293.4,256.6,290.6,256,288.3,257.3z"/>
	<path class="st68" d="M292.7,264.9c-2.3,1.3-5.1,0.7-6.7-1.2c-0.9-2.4,0-5.1,2.3-6.4c2.3-1.3,5.1-0.7,6.7,1.2
		C295.9,260.9,295,263.6,292.7,264.9z"/>
</g>
<g>
	<path class="st67" d="M121.6,250.1v12c0,0.7,0.4,1.3,1,1.5c-0.2,0.1-0.3,0.1-0.5,0.1c-0.8,0-1.5-0.7-1.5-1.6v-12
		c0-0.9,0.7-1.6,1.5-1.6c0.2,0,0.4,0,0.5,0.1C122,248.8,121.6,249.4,121.6,250.1z"/>
	<path class="st68" d="M123.5,250.1v12c0,0.7-0.4,1.3-1,1.5c-0.6-0.2-1-0.8-1-1.5v-12c0-0.7,0.4-1.3,1-1.5
		C123.1,248.8,123.5,249.4,123.5,250.1z"/>
</g>
<g>
	<polygon class="st69" points="75.9,132.5 62.1,132.5 53.6,137.6 75.9,137.6 	"/>
	<polygon class="st69" points="75.9,132.5 89.8,132.5 98.2,137.6 75.9,137.6 	"/>
	<g>
		<path class="st70" d="M72.4,119.9c0.2-1.9,1.3-3.7,2.9-3.9c1.6-0.2,3.9-0.8,4,1.2c0.1,2.1-0.5,5.1-1.9,5.2
			C75.9,122.5,72.2,121.5,72.4,119.9z"/>
		<g>
			<path class="st50" d="M75.9,110.1l-3.1-1.5v7c0,0,1.2,1.4,3.1,1.4c2.2,0,3.1-1.3,3.1-1.3v-6L75.9,110.1z"/>
			<path class="st71" d="M79,111.3c0,0-1.5,1.4-6.1,3.9l0-4.5L79,111.3z"/>
			<path class="st61" d="M75.9,115.2v2.6l-0.8,0.3l-1.1-1.9C74,116.2,75.1,115.3,75.9,115.2z"/>
			<path class="st53" d="M72.9,113.5l-0.6,0.3l1.4,4.8l2.2-3.4C75.9,115.2,74.7,115,72.9,113.5z"/>
			<g>
				<path class="st50" d="M71.1,104.9c0,0,0.7,5.6,0.9,5.9c0.2,0.3,3,1.8,3.9,1.8V98.9C75.9,98.9,70,96.5,71.1,104.9z"/>
				<path class="st50" d="M80.7,104.9c0,0-0.7,5.6-0.9,5.9c-0.2,0.3-3,1.8-3.9,1.8V98.9C75.9,98.9,81.5,97.7,80.7,104.9z"/>
				<path class="st50" d="M79.9,108.2c0,0,0.8,0.3,1.3-1.3c0.6-1.9,0.2-2.7-0.4-2.7c-0.2,0-0.3,0.1-0.4,0.1
					c-0.4,0.2-0.5,0.6-0.5,0.6L79.9,108.2z"/>
				<path class="st50" d="M72,108.2c0,0-0.8,0.3-1.3-1.3c-0.6-1.9-0.2-2.7,0.4-2.7c0.2,0,0.3,0.1,0.4,0.1c0.4,0.2,0.5,0.6,0.5,0.6
					L72,108.2z"/>
				<g>
					<g>
						<path class="st54" d="M70.6,99.8c-0.4,1.1,0.4,4.5,0.4,4.5l0.6,0.9l-0.1-1.9c0,0,1.2-2.6,0.9-3.5l-0.8-1.1
							C71.6,98.7,70.7,99.5,70.6,99.8z"/>
					</g>
				</g>
				<g>
					<g>
						<path class="st54" d="M81.3,99.8c0.4,1.1-0.4,4.5-0.4,4.5l-0.6,0.9l0.1-1.9c0,0-1.2-2.6-0.9-3.5l0.8-1.1
							C80.3,98.7,81.1,99.5,81.3,99.8z"/>
					</g>
				</g>
				<path class="st54" d="M75.9,96.3c-1.4,0-3.5,0.6-4.4,2.4l0.8,1.1c0,0,2,1.1,3.7,1.2c1,0.1,2.7,0.1,4-0.9l0.3-1.4
					C80.3,98.7,79.3,96.3,75.9,96.3z"/>
			</g>
			<path class="st62" d="M75.9,115.2v2.6l0.8,0.3l1.1-1.9C77.8,116.2,76.8,115.3,75.9,115.2z"/>
			<path class="st56" d="M79,113.4l0.7,0.4l-1.4,4.7l-2.3-3.4C75.9,115.2,77.2,115,79,113.4z"/>
			<g>
				<path class="st72" d="M70.3,119L71,118l0.3-0.5l-1.2-1.9l-0.4-0.7l0,0c0,0-4.6,2.1-4.6,2.1c-0.3,0.4-0.9,3.5-1.3,6.3l3.3,0.4
					l-0.6,7.2l11.9-1.5L70.3,119z"/>
				<path class="st73" d="M81.5,119l-6.5,8.6l10.3,3.3l-0.4-7.6h3.2c-0.4-2.7-1-5.9-1.3-6.3c0,0-4.6-2.1-4.6-2.1l-1.6,2.7L81.5,119z
					"/>
				<path class="st61" d="M75.9,126v-8.2l-0.8,0.3c0,0-0.5,2.3-0.6,3.4l0.5,1.8L75.9,126z"/>
				<path class="st62" d="M76.8,123.3l0.5-1.8c-0.1-1.2-0.6-3.4-0.6-3.4l-0.8-0.3v4.7l0,3.2L76.8,123.3z"/>
				<polygon class="st73" points="71.3,117.6 71,118 70.3,119 75.9,127.2 75.9,126 74.5,121.5 72.8,115.6 72.3,113.8 69.7,114.9 
					70.1,115.6 				"/>
				<polygon class="st72" points="81.5,119 80.6,117.6 82.2,114.9 79.7,113.9 79.1,115.6 77.5,121.1 75.9,125.9 75.9,127 				"/>
			</g>
		</g>
	</g>
	<path class="st72" d="M64.6,118.6c0,0-7.1,10.2-6.4,11.6c0.7,1.4,7,5.2,7,5.2s-0.6-3.9,3.1-4.8l-3.3-1.9l2.7-4.1L64.6,118.6z"/>
	<path class="st50" d="M65.2,135.4c0,0,0.9,0.4,2.4-0.4c1.5-0.8,2.5,0.8,2.5,0.8l2.2-2.8c0,0,0.2-3.2-4.1-2.3
		C65.6,131.2,65,133.5,65.2,135.4z"/>
	<path class="st73" d="M87.3,118.6c0,0,7.1,10.2,6.4,11.5c-0.7,1.4-7,5.2-7,5.2s0.6-3.9-3.1-4.8l3.3-1.9l-2.7-4.1L87.3,118.6z"/>
	<path class="st50" d="M86.7,135.4c0,0-0.9,0.4-2.4-0.4c-1.5-0.8-2.5,0.8-2.5,0.8l-2.2-2.8c0,0-0.2-3.2,4.1-2.3
		C86.3,131.2,86.9,133.5,86.7,135.4z"/>
	<path class="st74" d="M84.3,135.5c0,0.2-0.1,0.3-0.3,0.3H67.6c-0.2,0-0.3-0.1-0.3-0.3v-10.8c0-0.2,0.1-0.3,0.3-0.3H84
		c0.2,0,0.3,0.1,0.3,0.3V135.5z"/>
	<path class="st75" d="M84.3,135.6c0,0.1-0.1,0.3-0.3,0.3H67.6c-0.2,0-0.3-0.1-0.3-0.3v-10.5c0-0.1,0.1-0.3,0.3-0.3H84
		c0.2,0,0.3,0.1,0.3,0.3V135.6z"/>
	<path class="st76" d="M74.7,130.9c0,0.1-0.2,0.2-0.4,0.2l0,0c-0.2,0-0.4-0.1-0.4-0.2v-0.5c0-0.1,0.2-0.2,0.4-0.2l0,0
		c0.2,0,0.4,0.1,0.4,0.2V130.9z"/>
	<path class="st76" d="M75.8,130.9c0,0.1-0.2,0.2-0.4,0.2l0,0c-0.2,0-0.4-0.1-0.4-0.2v-0.5c0-0.1,0.2-0.2,0.4-0.2l0,0
		c0.2,0,0.4,0.1,0.4,0.2V130.9z"/>
	<path class="st76" d="M76.9,130.9c0,0.1-0.2,0.2-0.4,0.2l0,0c-0.2,0-0.4-0.1-0.4-0.2v-0.5c0-0.1,0.2-0.2,0.4-0.2l0,0
		c0.2,0,0.4,0.1,0.4,0.2V130.9z"/>
</g>
<g>
	<g>
		<path class="st1" d="M340.4,138.9c0,0.6-7.3,1.1-16.3,1.1c-9,0-16.3-0.5-16.3-1.1c0-0.6,7.3-1.1,16.3-1.1
			C333.1,137.8,340.4,138.2,340.4,138.9z"/>
		<path class="st77" d="M340.1,138.8c0,0.6-7.2,1.1-16,1.1c-8.9,0-16-0.5-16-1.1c0-0.6,7.2-1.1,16-1.1
			C332.9,137.8,340.1,138.2,340.1,138.8z"/>
		<path class="st78" d="M339.8,138.8c0,0.6-7.1,1.1-15.8,1.1c-8.7,0-15.8-0.5-15.8-1.1c0-0.6,7.1-1.1,15.8-1.1
			C332.8,137.8,339.8,138.2,339.8,138.8z"/>
		<path class="st79" d="M339.6,138.8c0,0.6-7,1-15.5,1c-8.6,0-15.5-0.5-15.5-1c0-0.6,7-1,15.5-1
			C332.6,137.8,339.6,138.2,339.6,138.8z"/>
		<path class="st80" d="M339.3,138.8c0,0.6-6.8,1-15.3,1c-8.4,0-15.3-0.5-15.3-1c0-0.6,6.8-1,15.3-1
			C332.5,137.8,339.3,138.2,339.3,138.8z"/>
		<path class="st81" d="M339.1,138.8c0,0.6-6.7,1-15,1c-8.3,0-15-0.5-15-1c0-0.6,6.7-1,15-1C332.4,137.8,339.1,138.2,339.1,138.8z"
			/>
		<path class="st82" d="M338.8,138.8c0,0.5-6.6,1-14.8,1c-8.2,0-14.8-0.4-14.8-1c0-0.5,6.6-1,14.8-1
			C332.2,137.8,338.8,138.2,338.8,138.8z"/>
		<path class="st83" d="M338.6,138.7c0,0.5-6.5,1-14.5,1c-8,0-14.5-0.4-14.5-1c0-0.5,6.5-1,14.5-1
			C332.1,137.8,338.6,138.2,338.6,138.7z"/>
		<path class="st84" d="M338.3,138.7c0,0.5-6.4,1-14.3,1c-7.9,0-14.3-0.4-14.3-1c0-0.5,6.4-1,14.3-1
			C331.9,137.8,338.3,138.2,338.3,138.7z"/>
		<path class="st85" d="M338.1,138.7c0,0.5-6.3,0.9-14,0.9c-7.7,0-14-0.4-14-0.9c0-0.5,6.3-0.9,14-0.9
			C331.8,137.8,338.1,138.2,338.1,138.7z"/>
		<path class="st30" d="M337.8,138.7c0,0.5-6.2,0.9-13.8,0.9c-7.6,0-13.8-0.4-13.8-0.9c0-0.5,6.2-0.9,13.8-0.9
			C331.7,137.8,337.8,138.2,337.8,138.7z"/>
		<path class="st31" d="M337.6,138.7c0,0.5-6,0.9-13.5,0.9c-7.5,0-13.5-0.4-13.5-0.9c0-0.5,6-0.9,13.5-0.9
			C331.5,137.8,337.6,138.2,337.6,138.7z"/>
		<ellipse class="st86" cx="324.1" cy="138.7" rx="13.2" ry="0.9"/>
		<path class="st33" d="M337,138.7c0,0.5-5.8,0.9-13,0.9c-7.2,0-13-0.4-13-0.9c0-0.5,5.8-0.9,13-0.9
			C331.2,137.8,337,138.2,337,138.7z"/>
		<path class="st34" d="M336.8,138.6c0,0.5-5.7,0.9-12.7,0.9c-7,0-12.7-0.4-12.7-0.9c0-0.5,5.7-0.9,12.7-0.9
			C331.1,137.8,336.8,138.2,336.8,138.6z"/>
		<path class="st87" d="M336.5,138.6c0,0.5-5.6,0.8-12.5,0.8c-6.9,0-12.5-0.4-12.5-0.8c0-0.5,5.6-0.8,12.5-0.8
			C331,137.8,336.5,138.2,336.5,138.6z"/>
		<path class="st88" d="M336.3,138.6c0,0.5-5.5,0.8-12.2,0.8c-6.8,0-12.2-0.4-12.2-0.8c0-0.5,5.5-0.8,12.2-0.8
			C330.8,137.8,336.3,138.2,336.3,138.6z"/>
		<path class="st36" d="M336,138.6c0,0.4-5.4,0.8-12,0.8c-6.6,0-12-0.4-12-0.8c0-0.4,5.4-0.8,12-0.8
			C330.7,137.8,336,138.2,336,138.6z"/>
		<path class="st89" d="M335.8,138.6c0,0.4-5.2,0.8-11.7,0.8c-6.5,0-11.7-0.4-11.7-0.8c0-0.4,5.2-0.8,11.7-0.8
			C330.5,137.8,335.8,138.1,335.8,138.6z"/>
		<ellipse class="st90" cx="324.1" cy="138.6" rx="11.5" ry="0.8"/>
		<path class="st39" d="M335.3,138.5c0,0.4-5,0.8-11.2,0.8c-6.2,0-11.2-0.3-11.2-0.8s5-0.8,11.2-0.8
			C330.2,137.8,335.3,138.1,335.3,138.5z"/>
		<path class="st40" d="M335,138.5c0,0.4-4.9,0.7-10.9,0.7c-6,0-11-0.3-11-0.7c0-0.4,4.9-0.7,11-0.7
			C330.1,137.8,335,138.1,335,138.5z"/>
		<path class="st91" d="M334.8,138.5c0,0.4-4.8,0.7-10.7,0.7c-5.9,0-10.7-0.3-10.7-0.7c0-0.4,4.8-0.7,10.7-0.7
			C330,137.8,334.8,138.1,334.8,138.5z"/>
		<path class="st92" d="M334.5,138.5c0,0.4-4.7,0.7-10.4,0.7c-5.8,0-10.4-0.3-10.4-0.7c0-0.4,4.7-0.7,10.4-0.7
			C329.8,137.8,334.5,138.1,334.5,138.5z"/>
		<path class="st43" d="M334.2,138.5c0,0.4-4.6,0.7-10.2,0.7c-5.6,0-10.2-0.3-10.2-0.7c0-0.4,4.6-0.7,10.2-0.7
			C329.7,137.8,334.2,138.1,334.2,138.5z"/>
		<path class="st44" d="M334,138.5c0,0.4-4.4,0.7-9.9,0.7c-5.5,0-9.9-0.3-9.9-0.7c0-0.4,4.4-0.7,9.9-0.7
			C329.5,137.8,334,138.1,334,138.5z"/>
		<ellipse class="st45" cx="324.1" cy="138.5" rx="9.7" ry="0.7"/>
		<path class="st93" d="M333.5,138.4c0,0.3-4.2,0.6-9.4,0.6c-5.2,0-9.4-0.3-9.4-0.6c0-0.3,4.2-0.6,9.4-0.6
			C329.3,137.8,333.5,138.1,333.5,138.4z"/>
		<ellipse class="st47" cx="324.1" cy="138.4" rx="9.2" ry="0.6"/>
		<path class="st48" d="M333,138.4c0,0.3-4,0.6-8.9,0.6c-4.9,0-8.9-0.3-8.9-0.6c0-0.3,4-0.6,8.9-0.6C329,137.8,333,138.1,333,138.4z
			"/>
	</g>
	<g>
		<g>
			<path class="st50" d="M324.1,125.1l-3.2-1.6v7.3c0,0,1.2,1.5,3.2,1.5c2.3,0,3.2-1.4,3.2-1.4v-6.3L324.1,125.1z"/>
			<path class="st51" d="M327.3,126.3c0,0-1.5,1.4-6.4,4.1l0-4.7L327.3,126.3z"/>
			<path class="st61" d="M324.1,130.4v2.7l-0.8,0.3l-1.2-2C322.1,131.5,323.2,130.5,324.1,130.4z"/>
			<path class="st53" d="M320.9,128.6l-0.6,0.3l1.5,5l2.3-3.5C324.1,130.4,322.7,130.2,320.9,128.6z"/>
			<g>
				<path class="st50" d="M319,119.6c0,0,0.8,5.9,0.9,6.2c0.2,0.3,3.1,1.9,4.1,1.8v-14.2C324.1,113.4,317.8,110.8,319,119.6z"/>
				<path class="st50" d="M329.1,119.6c0,0-0.8,5.9-0.9,6.2c-0.2,0.3-3.1,1.9-4.1,1.8v-14.2C324.1,113.4,329.9,112.2,329.1,119.6z"
					/>
				<path class="st50" d="M328.2,123.1c0,0,0.9,0.3,1.4-1.4c0.6-2,0.2-2.9-0.4-2.8c-0.2,0-0.3,0.1-0.5,0.1c-0.4,0.2-0.5,0.6-0.5,0.6
					L328.2,123.1z"/>
				<path class="st50" d="M319.9,123.1c0,0-0.9,0.3-1.4-1.4c-0.6-2-0.2-2.9,0.4-2.8c0.2,0,0.3,0.1,0.5,0.1c0.4,0.2,0.5,0.6,0.5,0.6
					L319.9,123.1z"/>
				<g>
					<g>
						<path class="st54" d="M318.5,114.3c-0.4,1.2,0.5,4.7,0.5,4.7l0.6,0.9l-0.1-2c0,0,1.2-2.7,0.9-3.7l-0.8-1.1
							C319.5,113.2,318.6,114,318.5,114.3z"/>
					</g>
				</g>
				<g>
					<g>
						<path class="st54" d="M329.6,114.3c0.4,1.2-0.5,4.7-0.5,4.7l-0.6,0.9l0.1-2c0,0-1.2-2.7-0.9-3.7l0.8-1.1
							C328.6,113.2,329.5,114,329.6,114.3z"/>
					</g>
				</g>
				<path class="st54" d="M324.1,110.7c-1.5,0-3.6,0.7-4.6,2.5l0.8,1.1c0,0,2.1,1.1,3.8,1.3c1.1,0.1,2.8,0.1,4.2-0.9l0.4-1.5
					C328.6,113.2,327.6,110.7,324.1,110.7z"/>
			</g>
			<path class="st62" d="M324.1,130.4v2.7l0.8,0.3l1.2-2C326,131.5,324.9,130.5,324.1,130.4z"/>
			<path class="st56" d="M327.3,128.6l0.7,0.4l-1.5,5l-2.4-3.5C324.1,130.4,325.4,130.2,327.3,128.6z"/>
			<g>
				<path class="st57" d="M318.2,134.4l0.7-1l0.3-0.5l-1.2-2l-0.5-0.8l0,0c0,0-4.8,2.2-4.8,2.2c-0.3,0.4-1,3.7-1.4,6.5h10.3
					L318.2,134.4z"/>
				<path class="st58" d="M329.9,134.4l-3.4,4.5h10.3c-0.4-2.9-1-6.2-1.4-6.5c0,0-4.8-2.2-4.8-2.2l-1.7,2.8L329.9,134.4z"/>
				<path class="st61" d="M324.1,138.9v-5.7l-0.8,0.3c0,0-0.5,2.4-0.7,3.6l0.5,1.8H324.1z"/>
				<path class="st62" d="M325,138.9l0.5-1.8c-0.1-1.2-0.7-3.6-0.7-3.6l-0.8-0.3v5.7H325z"/>
				<polygon class="st59" points="319.2,132.9 318.9,133.4 318.2,134.4 321.6,138.9 323.1,138.9 322.6,137 320.8,130.8 320.2,128.9 
					317.5,130.1 318,130.9 				"/>
				<polygon class="st60" points="329.9,134.4 328.9,132.9 330.6,130.1 328,129 327.4,130.8 325.7,136.6 325,138.9 326.5,138.9 				
					"/>
			</g>
		</g>
		<g>
			<g>
				<path class="st94" d="M335.5,117.8c0.3,0.3,0.6,0.6,0.9,0.9l-0.6,1.4l0,0l2.1,0.9l0.6-1.4c0.4,0.1,0.8,0.1,1.3,0l0.6,1.4l0,0
					l2.1-0.8l-0.6-1.5c0.3-0.3,0.6-0.6,0.9-0.9l1.4,0.6l0,0l0.9-2.1l-1.4-0.6c0.1-0.4,0.1-0.8,0-1.3l1.4-0.6l0,0l-0.8-2.1l-1.5,0.6
					c-0.3-0.3-0.6-0.6-0.9-0.9l0.6-1.4l0,0l-2.1-0.9l-0.6,1.4c-0.4-0.1-0.8-0.1-1.3,0l-0.6-1.4l0,0l-2.1,0.8l0.6,1.5
					c-0.3,0.3-0.7,0.6-0.9,0.9l-1.4-0.6l0,0l-0.9,2.1l1.4,0.6c-0.1,0.4-0.1,0.8,0,1.3l-1.4,0.6l0,0l0.8,2.1L335.5,117.8z
					 M335.9,116.3c-0.3-0.8-0.3-1.7,0-2.6c0.3-0.8,1-1.5,1.8-1.9c0,0,0.1,0,0.1-0.1c0.9-0.3,1.8-0.3,2.6,0c0.8,0.4,1.5,1,1.9,1.9
					c0.3,0.8,0.3,1.7,0,2.6c-0.3,0.8-1,1.5-1.8,1.9c0,0-0.1,0-0.1,0.1C338.6,119,336.6,118.1,335.9,116.3z"/>
				<g>
					<path class="st95" d="M340.4,118.2c0,0,0.1,0,0.1-0.1c1.7-0.8,2.5-2.7,1.8-4.4c-0.3-0.9-1-1.5-1.9-1.9c-0.8-0.4-1.8-0.4-2.6,0
						c0,0-0.1,0-0.1,0.1c-1.7,0.8-2.5,2.7-1.8,4.4C336.6,118.1,338.6,119,340.4,118.2z M336.2,116.2c-0.6-1.5,0.1-3.3,1.6-4
						c0,0,0.1,0,0.1,0c0.8-0.3,1.6-0.3,2.4,0c0.8,0.3,1.4,0.9,1.7,1.7c0.6,1.5-0.1,3.3-1.6,4c0,0-0.1,0-0.1,0
						C338.7,118.6,336.9,117.8,336.2,116.2z"/>
					<path class="st94" d="M340.3,117.9c0,0,0.1,0,0.1,0c1.5-0.7,2.2-2.4,1.6-4c-0.3-0.8-0.9-1.4-1.7-1.7c-0.8-0.3-1.6-0.3-2.4,0
						c0,0-0.1,0-0.1,0c-1.5,0.7-2.2,2.4-1.6,4C336.9,117.8,338.7,118.6,340.3,117.9z M336.6,116.1c-0.6-1.4,0.1-2.9,1.5-3.5
						c1.4-0.6,2.9,0.1,3.5,1.5c0.6,1.4-0.1,2.9-1.5,3.5C338.7,118.1,337.2,117.5,336.6,116.1z"/>
				</g>
			</g>
			<g>
				<path class="st94" d="M337,128.9c0.3,0.2,0.6,0.3,1,0.4l0,1.3v0l1.9,0l0-1.3c0.3-0.1,0.7-0.2,1-0.4l0.9,0.9l0,0l1.4-1.3
					l-0.9-0.9c0.2-0.3,0.3-0.6,0.4-1l1.3,0h0l0-1.9l-1.3,0c-0.1-0.3-0.2-0.7-0.4-1l0.9-0.9l0,0l-1.3-1.4l-0.9,0.9
					c-0.3-0.2-0.6-0.3-1-0.4l0-1.3l0,0l-1.9,0l0,1.3c-0.3,0.1-0.7,0.2-1,0.4l-0.9-0.9l0,0l-1.4,1.3l0.9,0.9c-0.2,0.3-0.3,0.6-0.4,1
					l-1.3,0h0l0,1.9l1.3,0c0.1,0.3,0.2,0.7,0.4,1l-0.9,0.9l0,0l1.3,1.4L337,128.9z M336.9,127.7c-0.5-0.5-0.8-1.2-0.8-2
					c0-0.7,0.3-1.4,0.8-2c0,0,0.1-0.1,0.1-0.1c0.6-0.5,1.3-0.8,2-0.8c0.8,0,1.5,0.3,2,0.9c0.5,0.5,0.8,1.2,0.8,2
					c0,0.7-0.3,1.4-0.8,2c0,0-0.1,0.1-0.1,0.1C339.8,128.9,338,128.8,336.9,127.7z"/>
				<g>
					<path class="st95" d="M340.9,127.8C341,127.7,341,127.7,340.9,127.8c1.2-1.2,1.2-2.9,0.1-4c-0.5-0.6-1.2-0.9-2-0.9
						c-0.8,0-1.5,0.3-2,0.8c0,0-0.1,0.1-0.1,0.1c-1.1,1.1-1.1,2.9,0,4C338,128.8,339.8,128.9,340.9,127.8z M337.1,127.5
						c-1-1-1-2.6,0-3.6c0,0,0,0,0.1-0.1c0.5-0.5,1.1-0.7,1.8-0.7c0.7,0,1.3,0.3,1.8,0.8c1,1,1,2.6,0,3.6c0,0-0.1,0-0.1,0.1
						C339.7,128.5,338.1,128.5,337.1,127.5z"/>
					<path class="st94" d="M340.7,127.6C340.8,127.5,340.8,127.5,340.7,127.6c1-1.1,1-2.6,0.1-3.6c-0.5-0.5-1.1-0.8-1.8-0.8
						c-0.7,0-1.3,0.2-1.8,0.7c0,0-0.1,0-0.1,0.1c-1,1-1,2.6,0,3.6C338.1,128.5,339.7,128.5,340.7,127.6z M337.4,127.3
						c-0.9-0.9-0.8-2.3,0.1-3.2c0.9-0.9,2.3-0.8,3.2,0.1c0.8,0.9,0.8,2.3-0.1,3.2C339.6,128.2,338.2,128.2,337.4,127.3z"/>
				</g>
			</g>
		</g>
	</g>
</g>
<g>
	<g>
		<path class="st1" d="M283.6,92.2c0,0.6-7.7,1.2-17.2,1.2c-9.5,0-17.2-0.5-17.2-1.2c0-0.6,7.7-1.2,17.2-1.2
			C275.9,91,283.6,91.6,283.6,92.2z"/>
		<path class="st77" d="M283.3,92.2c0,0.6-7.6,1.1-16.9,1.1c-9.3,0-16.9-0.5-16.9-1.1c0-0.6,7.6-1.1,16.9-1.1
			C275.7,91,283.3,91.6,283.3,92.2z"/>
		<path class="st78" d="M283,92.2c0,0.6-7.4,1.1-16.6,1.1c-9.2,0-16.6-0.5-16.6-1.1c0-0.6,7.4-1.1,16.6-1.1
			C275.6,91,283,91.5,283,92.2z"/>
		<path class="st79" d="M282.8,92.1c0,0.6-7.3,1.1-16.3,1.1c-9,0-16.3-0.5-16.3-1.1c0-0.6,7.3-1.1,16.3-1.1
			C275.4,91,282.8,91.5,282.8,92.1z"/>
		<path class="st80" d="M282.5,92.1c0,0.6-7.2,1.1-16.1,1.1c-8.9,0-16.1-0.5-16.1-1.1c0-0.6,7.2-1.1,16.1-1.1
			C275.3,91,282.5,91.5,282.5,92.1z"/>
		<path class="st81" d="M282.2,92.1c0,0.6-7.1,1.1-15.8,1.1c-8.7,0-15.8-0.5-15.8-1.1c0-0.6,7.1-1.1,15.8-1.1
			C275.1,91.1,282.2,91.5,282.2,92.1z"/>
		<ellipse class="st82" cx="266.4" cy="92.1" rx="15.5" ry="1"/>
		<path class="st83" d="M281.7,92.1c0,0.6-6.8,1-15.3,1c-8.4,0-15.3-0.5-15.3-1c0-0.6,6.8-1,15.3-1
			C274.8,91.1,281.7,91.5,281.7,92.1z"/>
		<path class="st84" d="M281.4,92.1c0,0.6-6.7,1-15,1c-8.3,0-15-0.5-15-1c0-0.6,6.7-1,15-1C274.7,91.1,281.4,91.5,281.4,92.1z"/>
		<path class="st85" d="M281.2,92.1c0,0.5-6.6,1-14.7,1c-8.1,0-14.7-0.4-14.7-1c0-0.5,6.6-1,14.7-1
			C274.6,91.1,281.2,91.5,281.2,92.1z"/>
		<path class="st30" d="M280.9,92c0,0.5-6.5,1-14.5,1c-8,0-14.5-0.4-14.5-1c0-0.5,6.5-1,14.5-1C274.4,91.1,280.9,91.5,280.9,92z"/>
		<path class="st31" d="M280.6,92c0,0.5-6.4,1-14.2,1c-7.8,0-14.2-0.4-14.2-1c0-0.5,6.4-1,14.2-1C274.3,91.1,280.6,91.5,280.6,92z"
			/>
		<path class="st86" d="M280.3,92c0,0.5-6.2,0.9-13.9,0.9c-7.7,0-13.9-0.4-13.9-0.9c0-0.5,6.2-0.9,13.9-0.9
			C274.1,91.1,280.3,91.5,280.3,92z"/>
		<path class="st33" d="M280.1,92c0,0.5-6.1,0.9-13.7,0.9c-7.5,0-13.7-0.4-13.7-0.9c0-0.5,6.1-0.9,13.7-0.9
			C274,91.1,280.1,91.5,280.1,92z"/>
		<path class="st34" d="M279.8,92c0,0.5-6,0.9-13.4,0.9c-7.4,0-13.4-0.4-13.4-0.9c0-0.5,6-0.9,13.4-0.9
			C273.8,91.1,279.8,91.5,279.8,92z"/>
		<path class="st87" d="M279.5,92c0,0.5-5.9,0.9-13.1,0.9c-7.3,0-13.1-0.4-13.1-0.9c0-0.5,5.9-0.9,13.1-0.9
			C273.7,91.1,279.5,91.5,279.5,92z"/>
		<path class="st88" d="M279.3,91.9c0,0.5-5.8,0.9-12.9,0.9c-7.1,0-12.9-0.4-12.9-0.9c0-0.5,5.8-0.9,12.9-0.9
			C273.5,91.1,279.3,91.5,279.3,91.9z"/>
		<path class="st36" d="M279,91.9c0,0.5-5.6,0.8-12.6,0.8c-7,0-12.6-0.4-12.6-0.8c0-0.5,5.6-0.8,12.6-0.8
			C273.4,91.1,279,91.5,279,91.9z"/>
		<path class="st89" d="M278.7,91.9c0,0.5-5.5,0.8-12.3,0.8c-6.8,0-12.3-0.4-12.3-0.8c0-0.5,5.5-0.8,12.3-0.8
			C273.2,91.1,278.7,91.4,278.7,91.9z"/>
		<path class="st90" d="M278.5,91.9c0,0.4-5.4,0.8-12.1,0.8c-6.7,0-12.1-0.4-12.1-0.8c0-0.4,5.4-0.8,12.1-0.8
			C273.1,91.1,278.5,91.4,278.5,91.9z"/>
		<path class="st39" d="M278.2,91.9c0,0.4-5.3,0.8-11.8,0.8c-6.5,0-11.8-0.4-11.8-0.8c0-0.4,5.3-0.8,11.8-0.8
			C272.9,91.1,278.2,91.4,278.2,91.9z"/>
		<path class="st40" d="M277.9,91.9c0,0.4-5.2,0.8-11.5,0.8c-6.4,0-11.5-0.3-11.5-0.8c0-0.4,5.2-0.8,11.5-0.8
			C272.8,91.1,277.9,91.4,277.9,91.9z"/>
		<path class="st91" d="M277.7,91.8c0,0.4-5,0.8-11.3,0.8c-6.2,0-11.3-0.3-11.3-0.8c0-0.4,5-0.8,11.3-0.8
			C272.6,91.1,277.7,91.4,277.7,91.8z"/>
		<path class="st92" d="M277.4,91.8c0,0.4-4.9,0.7-11,0.7c-6.1,0-11-0.3-11-0.7c0-0.4,4.9-0.7,11-0.7
			C272.5,91.1,277.4,91.4,277.4,91.8z"/>
		<path class="st43" d="M277.1,91.8c0,0.4-4.8,0.7-10.7,0.7c-5.9,0-10.7-0.3-10.7-0.7c0-0.4,4.8-0.7,10.7-0.7
			C272.3,91.1,277.1,91.4,277.1,91.8z"/>
		<path class="st44" d="M276.9,91.8c0,0.4-4.7,0.7-10.5,0.7c-5.8,0-10.5-0.3-10.5-0.7c0-0.4,4.7-0.7,10.5-0.7
			C272.2,91.1,276.9,91.4,276.9,91.8z"/>
		<ellipse class="st45" cx="266.4" cy="91.8" rx="10.2" ry="0.7"/>
		<path class="st93" d="M276.3,91.8c0,0.4-4.4,0.7-9.9,0.7c-5.5,0-9.9-0.3-9.9-0.7c0-0.4,4.4-0.7,9.9-0.7
			C271.9,91.1,276.3,91.4,276.3,91.8z"/>
		<path class="st47" d="M276.1,91.7c0,0.4-4.3,0.6-9.6,0.6c-5.3,0-9.6-0.3-9.6-0.6c0-0.4,4.3-0.6,9.6-0.6
			C271.7,91.1,276.1,91.4,276.1,91.7z"/>
		<path class="st48" d="M275.8,91.7c0,0.3-4.2,0.6-9.4,0.6c-5.2,0-9.4-0.3-9.4-0.6c0-0.3,4.2-0.6,9.4-0.6
			C271.6,91.1,275.8,91.4,275.8,91.7z"/>
	</g>
	<g>
		<path class="st96" d="M262.5,80.9c0,0,0.6-2.6,3.9-2.3c0,0-4.2-6.5-5.7-6.5C259.1,72.2,261.6,80.3,262.5,80.9z"/>
		<path class="st96" d="M270.3,80.9c0,0-0.6-2.6-3.9-2.3c0,0,4.2-6.5,5.7-6.5C273.7,72.2,271.2,80.3,270.3,80.9z"/>
		<path class="st50" d="M266.4,77.1l-3-1.5v6.8c0,0,1.2,1.4,3,1.4c2.2,0,3-1.3,3-1.3v-5.9L266.4,77.1z"/>
		<path class="st51" d="M269.1,77.8c0,0-1.4,1.5-5.8,3.9l0-4.3L269.1,77.8z"/>
		<path class="st50" d="M261.4,71.1c0,0,0.8,5.9,0.9,6.1c0.2,0.3,3.1,1.9,4.1,1.8V64.9C266.4,64.9,260.6,63.7,261.4,71.1z"/>
		<path class="st50" d="M271.4,71.1c0,0-0.8,5.9-0.9,6.1c-0.2,0.3-3.1,1.9-4.1,1.8V64.9c0,0,2.3-0.8,3.9-0.1
			C271.5,65.4,271.7,68.1,271.4,71.1z"/>
		<path class="st50" d="M270.6,74.5c0,0,0.7,0.4,1.4-1.3c0.8-1.9,0.8-2.7,0-2.8c-0.8-0.1-1,0.7-1,0.7L270.6,74.5z"/>
		<path class="st50" d="M262.2,74.5c0,0-0.7,0.4-1.4-1.3c-0.8-1.9-0.8-2.7,0-2.8c0.8-0.1,1,0.7,1,0.7L262.2,74.5z"/>
		<path class="st97" d="M264.6,75.6c0,0,0.2,0,0.5,0.1C264.8,75.6,264.6,75.6,264.6,75.6z"/>
		<path class="st94" d="M262.5,65.5c0,0-2.8,6.5,0,15.5c0,0-7.9-6-2.8-15.6c0.6-1.2,3.1-3.9,6.6-3.3v2.6
			C266.3,64.6,263.3,64.4,262.5,65.5z"/>
		<path class="st94" d="M270.2,65.5c0,0,2.8,6.5,0,15.5c0,0,7.9-6,2.8-15.6c-0.6-1.2-3.1-3.9-6.6-3.3v2.6
			C266.3,64.6,269.3,64.4,270.2,65.5z"/>
		<g>
			<path class="st94" d="M261.5,69.6h4.8v-6C265.1,63.6,260.9,64,261.5,69.6z"/>
			<path class="st94" d="M266.5,63.6C266.5,63.6,266.5,63.6,266.5,63.6c-0.1,0-0.1,0-0.2,0v6h4.9C271.8,63.8,267.6,63.6,266.5,63.6z
				"/>
		</g>
		<path class="st49" d="M267.3,92.2h-2c-0.2-0.1-2.5-5.2-2.4-5.7c0-0.6,2.7-3,3.4-3c0.7,0,3.5-0.8,4.2,0.3
			C271.3,84.8,267.3,92.2,267.3,92.2z"/>
		<path class="st53" d="M263.4,81.4l-1,0.4l1.5,5.3l2.5-3.7C266.3,83.4,265.3,83.1,263.4,81.4z"/>
		<path class="st56" d="M269.4,81.4l1,0.5l-1.5,5.2l-2.5-3.7C266.3,83.4,267.4,83.1,269.4,81.4z"/>
		<g>
			<path class="st57" d="M260.2,87.5l0.7-1l0.4-0.5l-1.3-2.1l-0.5-0.8l0,0c0,0-5,2.3-5,2.3c-0.4,0.4-1,3.8-1.4,6.8h10.7L260.2,87.5z
				"/>
			<path class="st58" d="M272.4,87.5l-3.6,4.7h10.7c-0.4-3-1.1-6.5-1.4-6.8c0,0-5-2.3-5-2.3l-1.8,2.9L272.4,87.5z"/>
			<polygon class="st59" points="261.3,86 260.9,86.5 260.2,87.5 263.8,92.2 265.4,92.2 264.8,90.3 262.9,83.8 262.3,81.8 259.5,83 
				260,83.8 			"/>
			<polygon class="st59" points="260.2,87.5 260.9,86.5 260.2,87.5 263.8,92.2 263.8,92.2 			"/>
			<polygon class="st59" points="260,83.8 259.5,83 259.5,83.1 			"/>
			<polygon class="st60" points="272.4,87.5 271.4,86 273.2,83 270.4,81.9 269.8,83.8 268,89.8 267.3,92.2 268.9,92.2 			"/>
		</g>
		<g>
			<g>
				<g>
					<path class="st57" d="M264.1,82.7c-0.4,0.1-0.2,1.7-0.2,1.7s-0.2,1.6,0.2,1.7c0.4,0.1,2.7-1.7,2.7-1.7S264.5,82.5,264.1,82.7z"
						/>
				</g>
				<g>
					<path class="st58" d="M268.7,82.7c-0.4-0.1-2.7,1.7-2.7,1.7s2.3,1.9,2.7,1.7c0.4-0.1,0.2-1.7,0.2-1.7S269.1,82.8,268.7,82.7z"
						/>
				</g>
				<path class="st98" d="M266.8,83.7h-0.4H266c0,0-0.1,0.5,0,1.3h0.4h0.4C266.9,84.3,266.8,83.7,266.8,83.7z"/>
			</g>
		</g>
	</g>
	<g>
		<g>
			<path class="st94" d="M277.7,64.1c-1,0-1.6-0.6-1.6-1.5l-0.3-1.8c-1.2-0.7-2-2-2-3.5c0-2.2,1.7-4,3.8-4s3.8,1.8,3.8,4
				c0,1.4-0.7,2.7-1.8,3.4l-0.4,2C279.2,63.6,278.7,64.1,277.7,64.1z M277.6,53.8c-1.8,0-3.3,1.6-3.3,3.5c0,1.3,0.7,2.5,1.8,3.1
				l0.1,0.1l0.3,2.1c0,0.7,0.4,1,1.1,1c0.7,0,1-0.3,1-1l0-0.1l0.5-2.2l0.1-0.1c1-0.6,1.7-1.8,1.7-3
				C280.9,55.3,279.4,53.8,277.6,53.8z"/>
		</g>
		<g>
			<path class="st99" d="M273,61.5c0.1-0.1,0.3-0.1,0.4,0l0,0c0.1,0.1,0.1,0.3,0,0.4l-1.1,1.1c-0.1,0.1-0.3,0.1-0.4,0l0,0
				c-0.1-0.1-0.1-0.3,0-0.4L273,61.5z"/>
			<g>
				<path class="st100" d="M271.9,62.9C271.9,63,271.9,63,271.9,62.9c0-0.1-0.1-0.2,0-0.3l1.1-1.1c0.1-0.1,0.2-0.1,0.4,0
					c0,0,0,0,0,0c-0.1-0.1-0.3-0.2-0.4-0.1l-1.1,1.1C271.7,62.6,271.7,62.8,271.9,62.9z"/>
				<path class="st101" d="M273.4,61.9l-1.1,1.1c-0.1,0.1-0.2,0.1-0.4,0c0,0,0,0,0,0c0.1,0.1,0.3,0.2,0.4,0.1L273.4,61.9
					c0.2,0,0.2-0.2,0-0.3c0,0,0,0,0,0C273.4,61.7,273.5,61.8,273.4,61.9z"/>
			</g>
			<path class="st94" d="M273,61.5c0.1-0.1,0.3-0.1,0.4,0l0,0c0.1,0.1,0.1,0.3,0,0.4l-1.1,1.1c-0.1,0.1-0.3,0.1-0.4,0l0,0
				c-0.1-0.1-0.1-0.3,0-0.4L273,61.5z"/>
		</g>
		<g>
			<path class="st99" d="M271.7,58.4c0.1,0,0.3,0.1,0.3,0.2l0,0c0,0.1-0.1,0.3-0.2,0.3l-1.5,0.3c-0.1,0-0.3-0.1-0.3-0.2l0,0
				c0-0.1,0.1-0.3,0.2-0.3L271.7,58.4z"/>
			<g>
				<path class="st100" d="M270,59.1C270,59.1,270,59.1,270,59.1c0-0.1,0.1-0.2,0.2-0.3l1.5-0.3c0.1,0,0.2,0.1,0.3,0.2
					c0,0,0,0,0-0.1c0-0.2-0.2-0.3-0.3-0.3l-1.5,0.3C270,58.7,269.9,58.9,270,59.1z"/>
				<path class="st101" d="M271.8,59l-1.5,0.3c-0.1,0-0.2-0.1-0.3-0.2c0,0,0,0,0,0.1c0,0.2,0.2,0.3,0.3,0.3l1.5-0.3
					c0.1,0,0.2-0.2,0.2-0.4c0,0,0,0,0-0.1C272,58.8,271.9,58.9,271.8,59z"/>
			</g>
			<path class="st94" d="M271.7,58.4c0.1,0,0.3,0.1,0.3,0.2l0,0c0,0.2,0,0.3-0.2,0.3l-1.5,0.3c-0.1,0-0.3-0.1-0.3-0.2l0,0
				c0-0.2,0-0.3,0.2-0.3L271.7,58.4z"/>
		</g>
		<g>
			<path class="st99" d="M272.2,55.1c0.1,0,0.2,0.2,0.2,0.3l0,0c0,0.1-0.2,0.2-0.3,0.2l-1.5-0.5c-0.1,0-0.2-0.2-0.2-0.3l0,0
				c0-0.1,0.2-0.2,0.3-0.2L272.2,55.1z"/>
			<g>
				<path class="st100" d="M270.4,54.8C270.4,54.8,270.4,54.8,270.4,54.8c0.1-0.1,0.2-0.2,0.3-0.1l1.5,0.5c0.1,0,0.2,0.2,0.1,0.3
					c0,0,0,0,0-0.1c0.1-0.2,0-0.3-0.1-0.4l-1.5-0.5C270.6,54.5,270.5,54.6,270.4,54.8z"/>
				<path class="st101" d="M272,55.7l-1.5-0.5c-0.1,0-0.2-0.2-0.1-0.3c0,0,0,0,0,0.1c-0.1,0.2,0,0.3,0.1,0.4l1.5,0.5
					c0.1,0,0.3-0.1,0.3-0.2c0,0,0,0,0-0.1C272.3,55.6,272.1,55.7,272,55.7z"/>
			</g>
			<path class="st94" d="M272.2,55.1c0.1,0,0.2,0.2,0.1,0.4l0,0c-0.1,0.2-0.2,0.2-0.3,0.2l-1.5-0.5c-0.1,0-0.2-0.2-0.1-0.4l0,0
				c0.1-0.2,0.2-0.2,0.3-0.2L272.2,55.1z"/>
		</g>
		<g>
			<path class="st99" d="M274.4,52.6c0.1,0.1,0.1,0.3,0,0.4l0,0c-0.1,0.1-0.3,0.1-0.4,0l-1-1.2c-0.1-0.1-0.1-0.3,0-0.4l0,0
				c0.1-0.1,0.3-0.1,0.4,0L274.4,52.6z"/>
			<g>
				<path class="st100" d="M273.1,51.4C273.1,51.4,273.1,51.4,273.1,51.4c0.1,0,0.2,0,0.3,0.1l1,1.2c0.1,0.1,0.1,0.2-0.1,0.4
					c0,0,0,0,0.1,0c0.1-0.1,0.2-0.3,0.1-0.4l-1-1.2C273.4,51.3,273.2,51.3,273.1,51.4z"/>
				<path class="st101" d="M274,53l-1-1.2c-0.1-0.1-0.1-0.2,0.1-0.4c0,0,0,0-0.1,0c-0.1,0.1-0.2,0.3-0.1,0.4L274,53
					c0,0.2,0.2,0.2,0.3,0.1c0,0,0,0,0,0C274.2,53.1,274,53.1,274,53z"/>
			</g>
			<path class="st94" d="M274.4,52.6c0.1,0.1,0.1,0.3-0.1,0.4l0,0c-0.1,0.1-0.3,0.1-0.4,0l-1-1.2c-0.1-0.1-0.1-0.3,0.1-0.4l0,0
				c0.1-0.1,0.3-0.1,0.4,0L274.4,52.6z"/>
		</g>
		<g>
			<path class="st99" d="M277.6,51.7c0,0.1-0.1,0.3-0.2,0.3l0,0c-0.1,0-0.3-0.1-0.3-0.2l-0.2-1.5c0-0.1,0.1-0.3,0.2-0.3l0,0
				c0.1,0,0.3,0.1,0.3,0.2L277.6,51.7z"/>
			<g>
				<path class="st101" d="M277.1,49.9C277.1,49.9,277.1,49.9,277.1,49.9c0.1,0,0.2,0.1,0.2,0.2l0.2,1.5c0,0.1-0.1,0.2-0.2,0.3
					c0,0,0,0,0.1,0c0.2,0,0.3-0.2,0.3-0.3l-0.2-1.5C277.5,50,277.3,49.9,277.1,49.9z"/>
				<path class="st100" d="M277,51.7l-0.2-1.5c0-0.1,0.1-0.2,0.2-0.3c0,0,0,0-0.1,0c-0.2,0-0.3,0.2-0.3,0.3l0.2,1.5
					c0,0.1,0.2,0.2,0.4,0.2c0,0,0,0,0.1,0C277.2,51.9,277.1,51.9,277,51.7z"/>
			</g>
			<path class="st94" d="M277.6,51.7c0,0.1-0.1,0.3-0.3,0.3l0,0c-0.2,0-0.3-0.1-0.3-0.2l-0.2-1.5c0-0.1,0.1-0.3,0.3-0.3l0,0
				c0.2,0,0.3,0.1,0.3,0.2L277.6,51.7z"/>
		</g>
		<g>
			<path class="st99" d="M280.8,52.5c-0.1,0.1-0.2,0.2-0.3,0.1l0,0c-0.1-0.1-0.2-0.2-0.1-0.3l0.7-1.4c0.1-0.1,0.2-0.2,0.3-0.1l0,0
				c0.1,0.1,0.2,0.2,0.1,0.3L280.8,52.5z"/>
			<g>
				<path class="st101" d="M281.4,50.8C281.3,50.8,281.3,50.8,281.4,50.8c0.1,0.1,0.1,0.2,0.1,0.3l-0.7,1.4
					c-0.1,0.1-0.2,0.2-0.3,0.1c0,0,0,0,0.1,0c0.2,0.1,0.3,0,0.4-0.1l0.7-1.4C281.6,51.1,281.5,50.9,281.4,50.8z"/>
				<path class="st100" d="M280.3,52.3l0.7-1.4c0.1-0.1,0.2-0.2,0.3-0.1c0,0,0,0-0.1,0c-0.2-0.1-0.3,0-0.4,0.1l-0.7,1.4
					c-0.1,0.1,0,0.3,0.2,0.4c0,0,0,0,0.1,0C280.3,52.6,280.2,52.4,280.3,52.3z"/>
			</g>
			<path class="st94" d="M280.8,52.5c-0.1,0.1-0.2,0.2-0.4,0.1l0,0c-0.1-0.1-0.2-0.2-0.2-0.4l0.7-1.4c0.1-0.1,0.2-0.2,0.4-0.1l0,0
				c0.1,0.1,0.2,0.2,0.2,0.4L280.8,52.5z"/>
		</g>
		<g>
			<path class="st99" d="M283.1,55c-0.1,0.1-0.3,0-0.3-0.1l0,0c-0.1-0.1,0-0.3,0.1-0.3l1.3-0.8c0.1-0.1,0.3,0,0.3,0.1l0,0
				c0.1,0.1,0,0.3-0.1,0.3L283.1,55z"/>
			<g>
				<path class="st101" d="M284.5,53.8C284.4,53.8,284.4,53.8,284.5,53.8c0,0.1,0,0.2-0.1,0.3l-1.3,0.8c-0.1,0.1-0.2,0-0.3-0.1
					c0,0,0,0,0,0.1c0.1,0.2,0.3,0.2,0.4,0.1l1.3-0.8C284.5,54.1,284.6,54,284.5,53.8z"/>
				<path class="st100" d="M282.8,54.5l1.3-0.8c0.1-0.1,0.3,0,0.4,0.1c0,0,0,0,0-0.1c-0.1-0.2-0.3-0.2-0.4-0.1l-1.3,0.8
					c-0.1,0.1-0.1,0.3,0,0.4c0,0,0,0,0,0C282.6,54.7,282.7,54.6,282.8,54.5z"/>
			</g>
			<path class="st94" d="M283.1,55c-0.1,0.1-0.3,0-0.4-0.1l0,0c-0.1-0.1-0.1-0.3,0-0.4l1.3-0.8c0.1-0.1,0.3,0,0.4,0.1l0,0
				c0.1,0.1,0.1,0.3,0,0.4L283.1,55z"/>
		</g>
		<g>
			<path class="st99" d="M283.7,58.3c-0.1,0-0.3-0.1-0.3-0.2l0,0c0-0.1,0.1-0.3,0.2-0.3l1.5,0c0.1,0,0.3,0.1,0.3,0.2l0,0
				c0,0.1-0.1,0.3-0.3,0.3L283.7,58.3z"/>
			<g>
				<path class="st101" d="M285.5,58C285.5,58,285.5,58,285.5,58c0,0.1-0.1,0.2-0.3,0.2l-1.5,0c-0.1,0-0.2-0.1-0.3-0.3
					c0,0,0,0,0,0.1c0,0.2,0.1,0.3,0.3,0.3l1.5,0C285.4,58.3,285.5,58.2,285.5,58z"/>
				<path class="st100" d="M283.7,57.7l1.6,0c0.1,0,0.2,0.1,0.2,0.3c0,0,0,0,0-0.1c0-0.2-0.1-0.3-0.3-0.3l-1.5,0
					c-0.1,0-0.3,0.2-0.2,0.3c0,0,0,0,0,0.1C283.5,57.8,283.6,57.7,283.7,57.7z"/>
			</g>
			<path class="st94" d="M283.7,58.3c-0.1,0-0.3-0.1-0.3-0.3l0,0c0-0.2,0.1-0.3,0.2-0.3l1.5,0c0.1,0,0.3,0.1,0.3,0.3l0,0
				c0,0.2-0.1,0.3-0.2,0.3L283.7,58.3z"/>
		</g>
		<g>
			<path class="st99" d="M282.5,61.4c-0.1-0.1-0.2-0.2-0.1-0.3l0,0c0.1-0.1,0.2-0.2,0.3-0.1l1.3,0.8c0.1,0.1,0.2,0.2,0.1,0.3l0,0
				c-0.1,0.1-0.2,0.2-0.3,0.1L282.5,61.4z"/>
			<g>
				<path class="st101" d="M284.2,62.1C284.2,62.1,284.2,62.1,284.2,62.1c-0.1,0.1-0.2,0.1-0.3,0l-1.3-0.8c-0.1-0.1-0.1-0.2-0.1-0.4
					c0,0,0,0,0,0c-0.1,0.2-0.1,0.3,0.1,0.4l1.3,0.8C283.9,62.3,284.1,62.2,284.2,62.1z"/>
				<path class="st100" d="M282.8,60.9l1.3,0.8c0.1,0.1,0.1,0.2,0.1,0.4c0,0,0,0,0,0c0.1-0.2,0.1-0.3,0-0.4l-1.3-0.8
					c-0.1-0.1-0.3,0-0.4,0.2c0,0,0,0,0,0.1C282.5,60.9,282.7,60.8,282.8,60.9z"/>
			</g>
			<path class="st94" d="M282.5,61.4c-0.1-0.1-0.2-0.2-0.1-0.4l0,0c0.1-0.1,0.3-0.2,0.4-0.1l1.3,0.8c0.1,0.1,0.1,0.2,0.1,0.4l0,0
				c-0.1,0.1-0.2,0.2-0.4,0.1L282.5,61.4z"/>
		</g>
		<path class="st94" d="M279.6,62.8c0,0.1-0.2,0.2-0.3,0.2h-3.2c-0.2,0-0.3-0.1-0.3-0.2v-0.2c0-0.1,0.2-0.2,0.3-0.2h3.2
			c0.2,0,0.3,0.1,0.3,0.2V62.8z"/>
		<path class="st94" d="M279.6,63.4c0,0.1-0.2,0.2-0.3,0.2h-3.2c-0.2,0-0.3-0.1-0.3-0.2v-0.2c0-0.1,0.2-0.2,0.3-0.2h3.2
			c0.2,0,0.3,0.1,0.3,0.2V63.4z"/>
		<g>
			<path class="st102" d="M276.2,55.5c0.6-0.7,1.9-1.1,3.2-0.8c-1.2-0.8-2.8-0.7-3.9,0.3c-1.2,1.2-1.2,3.1,0,4.3
				c0.2,0.2,0.5,0.4,0.8,0.6c-0.1-0.1-0.3-0.2-0.4-0.3C275.2,58.4,275.2,56.6,276.2,55.5z"/>
		</g>
		<path class="st94" d="M279.6,62.2c0,0.1-0.2,0.2-0.3,0.2h-3.2c-0.2,0-0.3-0.1-0.3-0.2V62c0-0.1,0.2-0.2,0.3-0.2h3.2
			c0.2,0,0.3,0.1,0.3,0.2V62.2z"/>
		<g>
			<polygon class="st94" points="275.9,63.6 276.9,65.1 277.5,65.1 276.9,63.6 			"/>
			<polygon class="st94" points="278.4,65.1 279.4,63.6 277.6,63.6 276.9,63.6 277.5,65.1 277.6,65.1 			"/>
		</g>
	</g>
</g>
<g>
	<path class="st50" d="M211.1,126.2l-5.3-2.6v11.9c0,0,2,2.4,5.3,2.4c3.8,0,5.3-2.2,5.3-2.2v-10.4L211.1,126.2z"/>
	<path class="st51" d="M216.3,128.2c0,0-2.5,2.3-10.5,6.7l0-7.8L216.3,128.2z"/>
	<path class="st50" d="M202.8,117.2c0,0,1.2,9.6,1.5,10.1c0.3,0.5,5.1,3.1,6.7,3V107C211.1,107,200.9,102.8,202.8,117.2z"/>
	<path class="st50" d="M219.3,117.2c0,0-1.2,9.6-1.5,10.1c-0.3,0.5-5.1,3.1-6.7,3V107C211.1,107,220.7,105,219.3,117.2z"/>
	<path class="st50" d="M217.9,122.2c0,0,1.4,0.5,2.3-2.3c1-3.2,0.3-4.7-0.6-4.6c-0.3,0-0.6,0.1-0.8,0.2c-0.6,0.4-0.8,1-0.8,1
		L217.9,122.2z"/>
	<path class="st50" d="M204.3,122.2c0,0-1.4,0.5-2.3-2.3c-1-3.2-0.3-4.7,0.6-4.6c0.3,0,0.6,0.1,0.8,0.2c0.6,0.4,0.8,1,0.8,1
		L204.3,122.2z"/>
	<g>
		<path class="st103" d="M229.6,138.1c0,0-7.9-3.6-7.9-3.6l-4.3-1.8l-0.9,3l-0.3,1.1l-2.8,1.5l0.9-1.5c0,0-1.8-1.5-3.3-1.7v4.4v9.4
			h1.5l0,0l0,0h2.4h16.9C231.2,144.1,230.2,138.7,229.6,138.1z"/>
		<path class="st104" d="M207.8,136.7l1.1,1.9l-2.7-1.1l-0.5-1.8l-0.9-3.1l-4.4,1.9c0,0-7.9,3.6-7.9,3.6c-0.6,0.6-1.6,6-2.3,10.8
			h20.8v-9.4V135C209.6,135.1,207.8,136.7,207.8,136.7z"/>
	</g>
	<path class="st53" d="M205.8,132l-2.7,1.2l4.9,6.8l3.1-5.1C211.1,135,208.9,134.7,205.8,132z"/>
	<path class="st105" d="M216.3,132l2.7,1.2l-4.9,6.8l-3.1-5.1C211.1,135,213.2,134.7,216.3,132z"/>
	<g>
		<path class="st5" d="M211.2,111.8v-8.1c0,0,8.8-0.8,8.8,11.5C220,115.2,216.9,112.9,211.2,111.8z"/>
		<path class="st106" d="M211.2,111.8v-8.1c0,0-8.8-0.8-8.8,11.5C202.4,115.2,205.8,111.6,211.2,111.8z"/>
		<path class="st68" d="M211.2,111.8v4c0,0,4.1-0.1,6.3,3.2l2.5-3.8C220,115.2,217.4,111.8,211.2,111.8z"/>
		<path class="st107" d="M211.2,111.8v4c0,0-4.1-0.1-6.3,3.2l-2.5-3.8C202.4,115.2,204.9,111.8,211.2,111.8z"/>
	</g>
	<g>
		<g>
			<rect x="202.8" y="146" class="st2" width="2.8" height="0.5"/>
			<rect x="202.8" y="145.1" class="st2" width="2.8" height="0.5"/>
			<rect x="202.8" y="144.3" class="st2" width="2.8" height="0.5"/>
			<polygon class="st2" points="203.1,142.7 203.1,141.5 202.1,141.5 202.1,142.7 202.1,142.9 203.1,142.9 			"/>
			<g>
				<path class="st53" d="M206,142.7h-2.8v0.4H202v-0.4h-2.9c-0.1,0-0.2,0.1-0.2,0.1v4.6c0,0.1,0.1,0.1,0.2,0.1h6.9
					c0.1,0,0.2-0.1,0.2-0.1v-4.6C206.2,142.7,206.1,142.7,206,142.7z M205.6,146.5h-2.8V146h2.8V146.5z M205.6,145.6h-2.8v-0.5h2.8
					V145.6z M205.6,144.8h-2.8v-0.5h2.8V144.8z"/>
			</g>
		</g>
		<path class="st2" d="M202.3,145.7c0,0-0.6-0.3-0.6-0.3l-0.2-0.1l0,0l-0.2-0.1l0,0V145c0.1,0,0.1-0.1,0.1-0.1c0,0,0-0.2,0.1-0.4
			c0,0,0.1-0.1,0.1-0.2c0.1-0.2,0-0.3,0-0.3l0,0c0-0.9-0.6-0.8-0.6-0.8s-0.7-0.1-0.6,0.8l0,0c-0.1,0-0.1,0.1,0,0.3
			c0,0.1,0.1,0.1,0.1,0.2c0,0.2,0.1,0.4,0.1,0.4c0,0,0.1,0,0.1,0.1v0.3l-0.2,0.1l0,0l-0.2,0.1l-0.6,0.3c0,0-0.1,0.4-0.2,0.8h1.2h0.2
			h0.1h0.1l0,0v0h0.2h1.2C202.4,146.1,202.4,145.7,202.3,145.7z"/>
	</g>
</g>
<g>
	<path class="st1" d="M172,84.4c0,1.1-9.9,2.1-22,2.1c-12.2,0-22-0.9-22-2.1c0-1.1,9.9-2.1,22-2.1C162.2,82.3,172,83.3,172,84.4z"/>
	<path class="st77" d="M171.7,84.4c0,1.1-9.7,2-21.7,2c-12,0-21.7-0.9-21.7-2c0-1.1,9.7-2,21.7-2C162,82.4,171.7,83.3,171.7,84.4z"
		/>
	<path class="st78" d="M171.4,84.4c0,1.1-9.6,2-21.3,2c-11.8,0-21.3-0.9-21.3-2c0-1.1,9.6-2,21.3-2
		C161.8,82.4,171.4,83.3,171.4,84.4z"/>
	<path class="st79" d="M171,84.4c0,1.1-9.4,2-21,2c-11.6,0-21-0.9-21-2c0-1.1,9.4-2,21-2C161.6,82.4,171,83.3,171,84.4z"/>
	<path class="st80" d="M170.7,84.4c0,1.1-9.2,1.9-20.6,1.9c-11.4,0-20.6-0.9-20.6-1.9c0-1.1,9.2-1.9,20.6-1.9
		C161.4,82.4,170.7,83.3,170.7,84.4z"/>
	<path class="st81" d="M170.3,84.4c0,1-9.1,1.9-20.3,1.9c-11.2,0-20.3-0.8-20.3-1.9c0-1,9.1-1.9,20.3-1.9
		C161.2,82.5,170.3,83.3,170.3,84.4z"/>
	<path class="st82" d="M170,84.3c0,1-8.9,1.9-20,1.9c-11,0-20-0.8-20-1.9c0-1,8.9-1.9,20-1.9C161,82.5,170,83.3,170,84.3z"/>
	<path class="st83" d="M169.6,84.3c0,1-8.8,1.8-19.6,1.8c-10.8,0-19.6-0.8-19.6-1.8c0-1,8.8-1.8,19.6-1.8
		C160.8,82.5,169.6,83.3,169.6,84.3z"/>
	<path class="st84" d="M169.3,84.3c0,1-8.6,1.8-19.3,1.8c-10.6,0-19.3-0.8-19.3-1.8c0-1,8.6-1.8,19.3-1.8
		C160.7,82.5,169.3,83.3,169.3,84.3z"/>
	<path class="st85" d="M168.9,84.3c0,1-8.5,1.8-18.9,1.8c-10.5,0-18.9-0.8-18.9-1.8s8.5-1.8,18.9-1.8
		C160.5,82.5,168.9,83.3,168.9,84.3z"/>
	<path class="st30" d="M168.6,84.3c0,1-8.3,1.7-18.6,1.7c-10.3,0-18.6-0.8-18.6-1.7c0-1,8.3-1.7,18.6-1.7
		C160.3,82.6,168.6,83.3,168.6,84.3z"/>
	<path class="st31" d="M168.3,84.3c0,0.9-8.2,1.7-18.2,1.7c-10.1,0-18.2-0.8-18.2-1.7c0-0.9,8.2-1.7,18.2-1.7
		C160.1,82.6,168.3,83.4,168.3,84.3z"/>
	<path class="st86" d="M167.9,84.3c0,0.9-8,1.7-17.9,1.7c-9.9,0-17.9-0.7-17.9-1.7c0-0.9,8-1.7,17.9-1.7
		C159.9,82.6,167.9,83.4,167.9,84.3z"/>
	<path class="st33" d="M167.6,84.3c0,0.9-7.9,1.6-17.6,1.6c-9.7,0-17.5-0.7-17.5-1.6c0-0.9,7.9-1.6,17.5-1.6
		C159.7,82.6,167.6,83.4,167.6,84.3z"/>
	<path class="st34" d="M167.2,84.3c0,0.9-7.7,1.6-17.2,1.6c-9.5,0-17.2-0.7-17.2-1.6c0-0.9,7.7-1.6,17.2-1.6
		C159.5,82.7,167.2,83.4,167.2,84.3z"/>
	<path class="st87" d="M166.9,84.3c0,0.9-7.6,1.6-16.9,1.6s-16.9-0.7-16.9-1.6c0-0.9,7.5-1.6,16.9-1.6S166.9,83.4,166.9,84.3z"/>
	<path class="st88" d="M166.5,84.2c0,0.9-7.4,1.5-16.5,1.5c-9.1,0-16.5-0.7-16.5-1.5c0-0.9,7.4-1.5,16.5-1.5
		C159.1,82.7,166.5,83.4,166.5,84.2z"/>
	<path class="st36" d="M166.2,84.2c0,0.8-7.2,1.5-16.2,1.5c-8.9,0-16.2-0.7-16.2-1.5c0-0.8,7.2-1.5,16.2-1.5
		C158.9,82.7,166.2,83.4,166.2,84.2z"/>
	<path class="st89" d="M165.8,84.2c0,0.8-7.1,1.5-15.8,1.5c-8.7,0-15.8-0.7-15.8-1.5s7.1-1.5,15.8-1.5
		C158.8,82.7,165.8,83.4,165.8,84.2z"/>
	<ellipse class="st90" cx="150" cy="84.2" rx="15.5" ry="1.4"/>
	<path class="st39" d="M165.2,84.2c0,0.8-6.8,1.4-15.1,1.4c-8.4,0-15.1-0.6-15.1-1.4c0-0.8,6.8-1.4,15.1-1.4
		C158.4,82.8,165.2,83.4,165.2,84.2z"/>
	<path class="st40" d="M164.8,84.2c0,0.8-6.6,1.4-14.8,1.4c-8.2,0-14.8-0.6-14.8-1.4c0-0.8,6.6-1.4,14.8-1.4
		C158.2,82.8,164.8,83.4,164.8,84.2z"/>
	<path class="st91" d="M164.5,84.2c0,0.7-6.5,1.4-14.5,1.4c-8,0-14.5-0.6-14.5-1.4c0-0.7,6.5-1.3,14.5-1.3
		C158,82.8,164.5,83.4,164.5,84.2z"/>
	<ellipse class="st92" cx="150" cy="84.2" rx="14.1" ry="1.3"/>
	<path class="st43" d="M163.8,84.2c0,0.7-6.2,1.3-13.8,1.3c-7.6,0-13.8-0.6-13.8-1.3c0-0.7,6.2-1.3,13.8-1.3
		C157.6,82.9,163.8,83.5,163.8,84.2z"/>
	<path class="st44" d="M163.4,84.1c0,0.7-6,1.3-13.4,1.3c-7.4,0-13.4-0.6-13.4-1.3c0-0.7,6-1.3,13.4-1.3
		C157.4,82.9,163.4,83.5,163.4,84.1z"/>
	<path class="st45" d="M163.1,84.1c0,0.7-5.9,1.2-13.1,1.2c-7.2,0-13.1-0.5-13.1-1.2c0-0.7,5.9-1.2,13.1-1.2
		C157.2,82.9,163.1,83.5,163.1,84.1z"/>
	<path class="st93" d="M162.7,84.1c0,0.7-5.7,1.2-12.7,1.2c-7,0-12.7-0.5-12.7-1.2c0-0.7,5.7-1.2,12.7-1.2
		C157,82.9,162.7,83.5,162.7,84.1z"/>
	<path class="st47" d="M162.4,84.1c0,0.6-5.5,1.2-12.4,1.2c-6.8,0-12.4-0.5-12.4-1.2c0-0.6,5.5-1.2,12.4-1.2
		C156.9,83,162.4,83.5,162.4,84.1z"/>
	<path class="st48" d="M162.1,84.1c0,0.6-5.4,1.1-12,1.1c-6.7,0-12-0.5-12-1.1c0-0.6,5.4-1.1,12-1.1C156.7,83,162.1,83.5,162.1,84.1
		z"/>
</g>
<g>
	<path class="st108" d="M189.9,53.5c0,5.1-5.4,9.2-12.1,9.2c-6.7,0-12.1-4.1-12.1-9.2c0-5.1,5.4-9.2,12.1-9.2
		C184.5,44.3,189.9,48.4,189.9,53.5z"/>
	<path class="st108" d="M168.3,56.5c0,0-4.5,5.4-6.5,7.9c0,0,12.4-3.7,15.8-4.7L168.3,56.5z"/>
	<g>
		<g>
			<path class="st109" d="M174.3,53.5c0,0.7-0.5,1.2-1.2,1.2c-0.7,0-1.2-0.5-1.2-1.2c0-0.7,0.5-1.2,1.2-1.2
				C173.8,52.3,174.3,52.8,174.3,53.5z"/>
			<path class="st109" d="M179.8,53.5c0,0.9-0.7,1.6-1.6,1.6c-0.9,0-1.6-0.7-1.6-1.6c0-0.9,0.7-1.6,1.6-1.6
				C179.1,51.9,179.8,52.6,179.8,53.5z"/>
		</g>
		<path class="st109" d="M185,53.5c0,1-0.8,1.8-1.8,1.8c-1,0-1.8-0.8-1.8-1.8c0-1,0.8-1.8,1.8-1.8C184.3,51.7,185,52.5,185,53.5z"/>
	</g>
</g>
<g>
	<g>
		<path class="st110" d="M149,83.2c0,0-5.7,1.9-7.2-0.6c-1.4-2.5,0.4-7.8,0.4-7.8s7.7-1.2,8.9-1.3c1.2-0.1,7.5-0.4,8.1,1.3
			C159.7,76.5,154.2,83.1,149,83.2z"/>
		<g>
			<path class="st50" d="M149,64.9l-4.6-2.3V73c0,0,1.8,2.1,4.6,2.1c3.3,0,4.6-2,4.6-2v-9L149,64.9z"/>
			<path class="st51" d="M153.6,66.7c0,0-2.2,2-9.2,5.8l0-6.8L153.6,66.7z"/>
			<path class="st61" d="M149,72.6v3.9l-1.2,0.4l-1.7-2.8C146.1,74.1,147.7,72.7,149,72.6z"/>
			<path class="st53" d="M144.4,70l-0.9,0.5l2.1,7.2l3.4-5.1C149,72.6,147.1,72.4,144.4,70z"/>
			<g>
				<path class="st50" d="M141.8,57.1c0,0,1.1,8.4,1.3,8.8c0.2,0.4,4.5,2.7,5.9,2.6V48.2C149,48.2,140.1,44.5,141.8,57.1z"/>
				<path class="st50" d="M156.2,57.1c0,0-1.1,8.4-1.3,8.8c-0.2,0.4-4.5,2.7-5.9,2.6V48.2C149,48.2,157.3,46.4,156.2,57.1z"/>
				<path class="st50" d="M154.9,62.1c0,0,1.2,0.5,2-2c0.9-2.8,0.3-4.1-0.5-4c-0.3,0-0.5,0.1-0.7,0.2c-0.5,0.3-0.7,0.9-0.7,0.9
					L154.9,62.1z"/>
				<path class="st50" d="M143,62.1c0,0-1.2,0.5-2-2c-0.9-2.8-0.3-4.1,0.5-4c0.3,0,0.5,0.1,0.7,0.2c0.5,0.3,0.7,0.9,0.7,0.9
					L143,62.1z"/>
				<g>
					<g>
						<path class="st54" d="M141,49.6c-0.6,1.7,0.7,6.7,0.7,6.7l0.8,1.3l-0.2-2.8c0,0,1.8-3.8,1.3-5.3l-1.1-1.6
							C142.4,47.9,141.2,49,141,49.6z"/>
					</g>
				</g>
				<g>
					<g>
						<path class="st54" d="M157,49.6c0.6,1.7-0.7,6.7-0.7,6.7l-0.8,1.3l0.2-2.8c0,0-1.8-3.8-1.3-5.3l1.1-1.6
							C155.5,47.9,156.8,49,157,49.6z"/>
					</g>
				</g>
				<path class="st54" d="M149,44.3c-2.1,0-5.2,1-6.5,3.5l1.1,1.6c0,0,3,1.6,5.5,1.8c1.6,0.1,4.1,0.2,6-1.3l0.5-2.1
					C155.5,47.9,154,44.3,149,44.3z"/>
			</g>
			<path class="st62" d="M149,72.6v3.9l1.2,0.4l1.7-2.8C151.8,74.1,150.2,72.7,149,72.6z"/>
			<path class="st56" d="M153.6,70l1,0.6l-2.1,7.1l-3.5-5C149,72.6,150.9,72.3,153.6,70z"/>
			<g>
				<path class="st57" d="M140.6,78.2l1-1.4l0.5-0.7l-1.8-2.9l-0.7-1.1l0,0c0,0-6.9,3.1-6.9,3.1c-0.5,0.5-1.4,5.3-2,9.4h14.7
					L140.6,78.2z"/>
				<path class="st58" d="M157.3,78.2l-4.9,6.5h14.7c-0.6-4.1-1.5-8.9-2-9.4c0,0-6.9-3.1-6.9-3.1l-2.4,4L157.3,78.2z"/>
				<path class="st61" d="M149,84.7v-8.2l-1.2,0.4c0,0-0.7,3.4-0.9,5.1l0.8,2.6H149z"/>
				<path class="st62" d="M150.3,84.7l0.8-2.6c-0.2-1.7-0.9-5.1-0.9-5.1l-1.2-0.4v8.2H150.3z"/>
				<polygon class="st59" points="142,76.2 141.6,76.8 140.6,78.2 145.5,84.7 147.6,84.7 146.9,82.1 144.3,73.2 143.5,70.5 
					139.6,72.2 140.3,73.3 				"/>
				<polygon class="st60" points="157.3,78.2 155.9,76.2 158.3,72.2 154.5,70.6 153.8,73.2 151.3,81.4 150.3,84.7 152.4,84.7 				
					"/>
			</g>
		</g>
	</g>
	<path class="st108" d="M137.3,56l0.4,3.5c0.1,1.1,1.4,1.9,2.9,1.7l0.1,0l-0.8-7c0-0.2,0-0.4,0-0.6c0-5.4,4.2-9.7,9.3-9.7
		c5.1,0,9.3,4.4,9.3,9.7c0,0.2,0,0.4,0,0.6l-0.8,6.4l-2.7,3.7c-0.5-0.2-1-0.1-1.3,0.3l-2.3,2.8c-0.4,0.5-0.3,1.2,0.2,1.7
		c0.5,0.4,1.2,0.3,1.7-0.2l2.3-2.8c0.3-0.4,0.3-0.9,0.1-1.3l2.6-3.6c1.2,0,2.3-0.7,2.4-1.7L161,56c0.1-0.9-0.6-1.8-1.7-2.2
		c0-0.1,0-0.3,0-0.4c0-5.8-4.6-10.6-10.2-10.6c-5.6,0-10.2,4.7-10.2,10.6c0,0.1,0,0.3,0,0.4C137.9,54.2,137.2,55.1,137.3,56z"/>
</g>
</svg>
