<?xml version="1.0" encoding="utf-8"?>
<!-- Generator: Adobe Illustrator 27.5.0, SVG Export Plug-In . SVG Version: 6.00 Build 0)  -->
<svg version="1.1" xmlns="http://www.w3.org/2000/svg" xmlns:xlink="http://www.w3.org/1999/xlink" x="0px" y="0px"
	 viewBox="0 0 500 500" style="enable-background:new 0 0 500 500;" xml:space="preserve">
<g id="Background_Complete">
	<g>
		<rect x="416.779" y="398.494" style="fill:#EBEBEB;" width="33.122" height="0.25"/>
		<rect x="322.527" y="401.208" style="fill:#EBEBEB;" width="8.693" height="0.25"/>
		<rect x="396.586" y="389.208" style="fill:#EBEBEB;" width="19.192" height="0.25"/>
		<rect x="52.459" y="390.888" style="fill:#EBEBEB;" width="43.193" height="0.25"/>
		<rect x="104.556" y="390.888" style="fill:#EBEBEB;" width="6.333" height="0.25"/>
		<rect x="131.471" y="395.111" style="fill:#EBEBEB;" width="93.676" height="0.25"/>
		<path style="fill:#EBEBEB;" d="M237.014,337.8H43.915c-3.147,0-5.708-2.561-5.708-5.708V60.66c0-3.147,2.561-5.708,5.708-5.708
			h193.099c3.146,0,5.707,2.561,5.707,5.708v271.432C242.721,335.239,240.16,337.8,237.014,337.8z M43.915,55.203
			c-3.01,0-5.458,2.448-5.458,5.458v271.432c0,3.01,2.448,5.458,5.458,5.458h193.099c3.009,0,5.457-2.448,5.457-5.458V60.66
			c0-3.009-2.448-5.458-5.457-5.458H43.915z"/>
		<path style="fill:#EBEBEB;" d="M453.31,337.8H260.212c-3.147,0-5.707-2.561-5.707-5.708V60.66c0-3.147,2.561-5.708,5.707-5.708
			H453.31c3.148,0,5.708,2.561,5.708,5.708v271.432C459.019,335.239,456.458,337.8,453.31,337.8z M260.212,55.203
			c-3.009,0-5.457,2.448-5.457,5.458v271.432c0,3.01,2.448,5.458,5.457,5.458H453.31c3.01,0,5.458-2.448,5.458-5.458V60.66
			c0-3.009-2.448-5.458-5.458-5.458H260.212z"/>
		<rect y="382.398" style="fill:#EBEBEB;" width="500" height="0.25"/>
	</g>
	<g>
		<path style="fill:#EBEBEB;" d="M211.07,302.355v-23.542l-42.754,23.542v-23.542l-47.776,26.307v77.583h133.285v-103.89
			L211.07,302.355z M146.906,350.265h-10.032v-10.032h10.032V350.265z M146.906,335.217h-10.032v-10.032h10.032V335.217z
			 M161.286,350.265h-10.032v-10.032h10.032V350.265z M161.286,335.217h-10.032v-10.032h10.032V335.217z M185.008,350.265h-10.032
			v-10.032h10.032V350.265z M185.008,335.217h-10.032v-10.032h10.032V335.217z M199.388,350.265h-10.032v-10.032h10.032V350.265z
			 M199.388,335.217h-10.032v-10.032h10.032V335.217z M223.11,350.265h-10.032v-10.032h10.032V350.265z M223.11,335.217h-10.032
			v-10.032h10.032V335.217z M237.49,350.265h-10.032v-10.032h10.032V350.265z M237.49,335.217h-10.032v-10.032h10.032V335.217z"/>
		<polygon style="fill:#F5F5F5;" points="108.115,382.703 78.687,382.703 82.699,212.823 104.102,212.823 		"/>
		<g>
			<polygon style="fill:#E0E0E0;" points="82.277,230.694 81.824,249.873 104.74,239.848 104.296,221.061 			"/>
			<polygon style="fill:#E0E0E0;" points="80.399,310.219 79.946,329.397 106.58,317.746 106.136,298.959 			"/>
			<polygon style="fill:#E0E0E0;" points="107.056,337.908 79.46,349.98 79.007,369.159 107.5,356.694 			"/>
			<polygon style="fill:#E0E0E0;" points="81.338,270.456 80.885,289.634 105.66,278.796 105.216,260.01 			"/>
		</g>
	</g>
	<path style="fill:#F0F0F0;" d="M339.911,141.356c0-1.192-0.111-2.357-0.313-3.491l5.313-4.797
		c-0.392-1.175-0.864-2.313-1.412-3.407l-7.148,0.365c-1.342-1.923-3.014-3.595-4.937-4.937l0.365-7.148
		c-1.094-0.548-2.232-1.019-3.407-1.412l-4.796,5.313c-1.134-0.202-2.299-0.313-3.491-0.313c-1.192,0-2.357,0.111-3.491,0.313
		l-4.796-5.313c-1.175,0.392-2.313,0.864-3.407,1.412l0.365,7.148c-1.923,1.342-3.596,3.015-4.937,4.937l-7.148-0.365
		c-0.548,1.094-1.02,2.232-1.412,3.407l5.313,4.797c-0.202,1.134-0.313,2.299-0.313,3.491c0,1.192,0.111,2.357,0.313,3.492
		l-5.313,4.796c0.392,1.175,0.864,2.313,1.412,3.407l7.148-0.365c1.342,1.923,3.015,3.596,4.937,4.937l-0.365,7.148
		c1.094,0.548,2.232,1.02,3.407,1.412l4.796-5.313c1.134,0.202,2.299,0.313,3.491,0.313c1.192,0,2.357-0.111,3.491-0.313
		l4.797,5.313c1.175-0.392,2.313-0.864,3.407-1.412l-0.365-7.148c1.923-1.342,3.595-3.015,4.937-4.937l7.148,0.365
		c0.548-1.094,1.02-2.232,1.412-3.407l-5.313-4.796C339.8,143.713,339.911,142.548,339.911,141.356z M320.084,152.597
		c-6.208,0-11.241-5.033-11.241-11.241c0-6.208,5.033-11.241,11.241-11.241c6.208,0,11.241,5.033,11.241,11.241
		C331.325,147.564,326.292,152.597,320.084,152.597z"/>
	<path style="fill:#F5F5F5;" d="M437.147,153.239c0-0.733-0.068-1.45-0.192-2.147l3.267-2.95c-0.241-0.723-0.531-1.422-0.868-2.095
		l-4.396,0.225c-0.825-1.182-1.854-2.211-3.036-3.036l0.224-4.396c-0.673-0.337-1.373-0.627-2.095-0.868l-2.949,3.267
		c-0.697-0.124-1.414-0.192-2.147-0.192c-0.733,0-1.45,0.068-2.147,0.192l-2.949-3.267c-0.723,0.241-1.422,0.531-2.095,0.868
		l0.224,4.396c-1.182,0.825-2.211,1.854-3.036,3.036l-4.396-0.225c-0.337,0.673-0.627,1.373-0.868,2.095l3.267,2.95
		c-0.124,0.697-0.192,1.414-0.192,2.147c0,0.733,0.068,1.45,0.192,2.147l-3.267,2.95c0.241,0.723,0.531,1.422,0.868,2.095
		l4.396-0.225c0.825,1.182,1.854,2.211,3.036,3.036l-0.224,4.396c0.673,0.337,1.373,0.627,2.095,0.868l2.95-3.267
		c0.697,0.124,1.414,0.192,2.147,0.192c0.733,0,1.45-0.068,2.147-0.192l2.949,3.267c0.723-0.241,1.422-0.531,2.095-0.868
		l-0.224-4.396c1.182-0.825,2.211-1.854,3.036-3.036l4.396,0.225c0.337-0.673,0.627-1.373,0.868-2.095l-3.267-2.95
		C437.078,154.689,437.147,153.972,437.147,153.239z"/>
	<path style="fill:#F5F5F5;" d="M407.021,127.188c0-1.7-0.158-3.361-0.446-4.979l7.576-6.839c-0.559-1.676-1.232-3.298-2.013-4.859
		l-10.193,0.521c-1.913-2.742-4.298-5.127-7.04-7.04l0.521-10.193c-1.56-0.781-3.183-1.454-4.859-2.013l-6.839,7.576
		c-1.617-0.288-3.279-0.446-4.979-0.446s-3.361,0.158-4.978,0.446l-6.84-7.576c-1.676,0.559-3.298,1.232-4.858,2.013l0.521,10.193
		c-2.742,1.913-5.127,4.299-7.04,7.04l-10.193-0.521c-0.781,1.561-1.454,3.183-2.013,4.859l7.576,6.839
		c-0.287,1.617-0.446,3.279-0.446,4.979c0,1.7,0.158,3.361,0.446,4.979l-7.576,6.84c0.559,1.676,1.232,3.298,2.013,4.858
		l10.193-0.521c1.913,2.742,4.298,5.127,7.04,7.04l-0.521,10.193c1.56,0.781,3.183,1.454,4.859,2.013l6.84-7.576
		c1.617,0.288,3.279,0.446,4.978,0.446s3.361-0.158,4.979-0.446l6.839,7.576c1.676-0.559,3.298-1.232,4.859-2.013l-0.521-10.193
		c2.742-1.913,5.127-4.298,7.04-7.04l10.193,0.521c0.781-1.56,1.454-3.183,2.013-4.858l-7.576-6.84
		C406.863,130.549,407.021,128.888,407.021,127.188z M378.749,143.217c-8.852,0-16.029-7.176-16.029-16.029
		c0-8.852,7.177-16.029,16.029-16.029c8.853,0,16.029,7.177,16.029,16.029C394.778,136.04,387.602,143.217,378.749,143.217z"/>
	<g>
		<polygon style="fill:#E0E0E0;" points="411.446,295.069 408.549,382.703 416.154,382.703 413.257,295.069 		"/>
		<path style="fill:#EBEBEB;" d="M411.538,314.239c0,0-41.688,41.29-32.162,53.708c2.544,3.317,16.081-4.58,16.081-4.58
			s2.486,7.411,4.736,7.91c4.171,0.925,14.155-9.576,14.155-9.576s8.262,10.137,12.074,9.576c2.885-0.425,6.661-9.576,6.661-9.576
			s12.244,8.064,14.572,4.996C457.28,354.013,411.538,314.239,411.538,314.239z"/>
		<path style="fill:#EBEBEB;" d="M411.793,292.08c0,0-36.201,35.856-27.93,46.639c2.209,2.88,13.965-3.977,13.965-3.977
			s2.159,6.436,4.112,6.869c3.622,0.803,12.293-8.316,12.293-8.316s7.175,8.803,10.485,8.316c2.505-0.369,5.785-8.316,5.785-8.316
			s10.633,7.003,12.654,4.339C451.515,326.62,411.793,292.08,411.793,292.08z"/>
		<path style="fill:#F0F0F0;" d="M412.104,276.177c0,0-29.502,29.22-22.761,38.008c1.8,2.347,11.38-3.241,11.38-3.241
			s1.759,5.245,3.352,5.598c2.952,0.655,10.018-6.777,10.018-6.777s5.847,7.174,8.544,6.777c2.042-0.301,4.714-6.777,4.714-6.777
			s8.665,5.707,10.312,3.536C444.475,304.324,412.104,276.177,412.104,276.177z"/>
		<path style="fill:#F5F5F5;" d="M417.105,266.378c-2.61-2.505-6.772-2.368-9.21,0.304c-6.699,7.344-18.178,21.259-14.193,26.455
			c1.475,1.923,9.325-2.655,9.325-2.655s1.441,4.297,2.746,4.587c2.419,0.536,8.208-5.553,8.208-5.553s4.791,5.878,7.001,5.553
			c1.673-0.246,3.863-5.553,3.863-5.553s7.1,4.676,8.45,2.897C437.349,287.07,424.459,273.437,417.105,266.378z"/>
	</g>
	<g>
		<polygon style="fill:#E0E0E0;" points="320.081,258.48 315.975,382.703 326.754,382.703 322.648,258.48 		"/>
		<path style="fill:#EBEBEB;" d="M320.212,285.655c0,0-59.093,58.529-45.59,76.132c3.606,4.702,22.795-6.492,22.795-6.492
			s3.523,10.506,6.713,11.213c5.913,1.312,20.066-13.574,20.066-13.574s11.712,14.37,17.115,13.574
			c4.09-0.602,9.443-13.574,9.443-13.574s17.356,11.431,20.656,7.082C385.052,342.035,320.212,285.655,320.212,285.655z"/>
		<path style="fill:#EBEBEB;" d="M320.573,254.244c0,0-51.316,50.826-39.59,66.112c3.132,4.083,19.795-5.637,19.795-5.637
			s3.06,9.123,5.83,9.737c5.134,1.139,17.425-11.788,17.425-11.788s10.171,12.479,14.862,11.788c3.552-0.523,8.2-11.788,8.2-11.788
			s15.072,9.927,17.937,6.15C376.879,303.204,320.573,254.244,320.573,254.244z"/>
		<path style="fill:#F0F0F0;" d="M321.014,231.7c0,0-41.819,41.42-32.264,53.877c2.552,3.327,16.132-4.594,16.132-4.594
			s2.493,7.435,4.751,7.935c4.184,0.928,14.2-9.606,14.2-9.606s8.289,10.169,12.112,9.606c2.894-0.426,6.682-9.606,6.682-9.606
			s12.283,8.09,14.618,5.012C366.9,271.599,321.014,231.7,321.014,231.7z"/>
		<path style="fill:#F5F5F5;" d="M328.103,217.811c-3.699-3.551-9.6-3.357-13.056,0.431c-9.496,10.41-25.768,30.135-20.118,37.501
			c2.091,2.726,13.218-3.764,13.218-3.764s2.043,6.092,3.893,6.502c3.428,0.761,11.635-7.871,11.635-7.871s6.791,8.332,9.924,7.871
			c2.371-0.349,5.475-7.871,5.475-7.871s10.064,6.628,11.977,4.106C356.798,247.142,338.528,227.816,328.103,217.811z"/>
	</g>
</g>
<g id="Background_Simple" style="display:none;">
	<g style="display:inline;">
		<path style="fill:#407BFF;" d="M234.984,287.221c-24.348,3.582-37.019,51.492-89.321,64.18
			c-50.719,12.304-90.902-35.255-90.017-87.915c1.083-64.42,48.699-143.36,96.171-152.365
			c49.665-9.421,79.607,34.931,109.015,39.064c30.498,4.287,70.005-48.198,129.446-31.937
			c46.568,12.739,65.946,61.12,42.234,144.024c-15.1,52.792-49.857,101.067-114.12,89.619
			C270.237,343.313,262.048,283.24,234.984,287.221z"/>
		<path style="opacity:0.9;fill:#FFFFFF;" d="M234.984,287.221c-24.348,3.582-37.019,51.492-89.321,64.18
			c-50.719,12.304-90.902-35.255-90.017-87.915c1.083-64.42,48.699-143.36,96.171-152.365
			c49.665-9.421,79.607,34.931,109.015,39.064c30.498,4.287,70.005-48.198,129.446-31.937
			c46.568,12.739,65.946,61.12,42.234,144.024c-15.1,52.792-49.857,101.067-114.12,89.619
			C270.237,343.313,262.048,283.24,234.984,287.221z"/>
	</g>
</g>
<g id="Shadow">
	<ellipse id="_x3C_Path_x3E__1_" style="fill:#F5F5F5;" cx="250" cy="412.391" rx="196.512" ry="11.323"/>
</g>
<g id="Earth">
	<g>
		
			<ellipse transform="matrix(0.0825 -0.9966 0.9966 0.0825 1.8513 259.5592)" style="fill:#407BFF;" cx="141.89" cy="128.774" rx="62.051" ry="62.051"/>
		
			<ellipse transform="matrix(0.0825 -0.9966 0.9966 0.0825 1.8513 259.5592)" style="opacity:0.2;fill:#FFFFFF;" cx="141.89" cy="128.774" rx="62.051" ry="62.051"/>
		<path style="fill:#407BFF;" d="M159.591,148.568L159.591,148.568c-0.485,0.052-0.966-0.13-1.296-0.49l-1.837-2.003
			c-0.272-0.296-0.649-0.474-1.05-0.496l-2.415-0.131c-0.177-0.01-0.351-0.05-0.514-0.118l-3.18-1.34
			c-0.337-0.142-0.714-0.159-1.062-0.049l-2.786,0.883c-0.152,0.048-0.312,0.073-0.471,0.072l-3.11-0.013
			c-0.416-0.002-0.815,0.165-1.106,0.462l-2.65,2.706c-0.225,0.23-0.516,0.383-0.833,0.439l-1.506,0.264
			c-0.478,0.084-0.968-0.063-1.322-0.396l-0.843-0.796l-0.952-2.401c-0.082-0.207-0.301-0.324-0.519-0.276l-1.982,0.434
			c-0.365,0.08-0.665-0.292-0.509-0.632l0,0l0.65-2.079l-0.035-2.366l-0.707-0.24l-3.831,3.671l0,0
			c-0.482,0.436-1.256,0.157-1.349-0.486l-0.737-5.073c-0.099-0.68,0.359-1.317,1.036-1.439l1.751-0.316
			c0.382-0.069,0.712-0.308,0.896-0.65l0,0c0.319-0.592,1.043-0.834,1.654-0.555l2.907,1.33c0.13,0.06,0.27,0.097,0.412,0.11
			l1.051,0.098c0.869,0.081,1.561-0.715,1.36-1.564l-0.382-1.614c-0.073-0.308-0.029-0.633,0.124-0.91l2.267-4.113
			c0.026-0.047,0.049-0.096,0.069-0.147l1.434-3.624c0.055-0.138,0.133-0.265,0.231-0.376l2.58-2.914l1.158-2.865l6.486-3.127
			l-1.582-1.181l-0.208-1.001c-0.214-1.032,0.227-2.089,1.11-2.663l1.922-1.249c1.218-0.792,1.532-2.438,0.691-3.623l0,0
			l-2.146-3.363c-0.335-0.524-0.849-0.909-1.447-1.081l-1.878-0.541c-0.157-0.045-0.31-0.106-0.456-0.18l-3.359-1.717
			c-1.205-0.616-2.682-0.186-3.368,0.981l-1.372,2.334c-0.032,0.054-0.062,0.11-0.09,0.167l-1.27,2.583
			c-0.611,1.243-2.102,1.773-3.361,1.195l-0.29-0.133c-0.11-0.051-0.217-0.109-0.319-0.175l-2.361-1.522
			c-1.264-0.815-1.555-2.539-0.629-3.724l0.881-1.127c0.092-0.118,0.194-0.227,0.305-0.327l2.814-2.529l1.48-1.442
			c0.162-0.158,0.344-0.293,0.542-0.403l0.923-0.513c1.018-0.566,1.525-1.748,1.234-2.876l-0.232-0.898
			c-0.281-1.087-1.238-1.863-2.36-1.914l-0.773-0.035c-0.234-0.011-0.466-0.053-0.689-0.127l-1.382-0.458
			c-0.847-0.281-1.779-0.1-2.459,0.478l-1.653,1.403c-0.479,0.407-1.092,0.623-1.72,0.607l-5.145-0.133
			c-0.174-0.004-0.348-0.027-0.517-0.067l-5.206-1.22c-0.316-0.074-0.644-0.087-0.965-0.039l-7.758,1.17
			c-0.385,0.058-0.779,0.027-1.151-0.09l-3.411-1.077c-0.44-0.139-0.909-0.156-1.358-0.05l-1.31,0.31
			c-0.81,0.191-1.476,0.765-1.785,1.537l-5.059,12.624c-0.099,0.248-0.159,0.51-0.177,0.776l-0.535,7.804
			c-0.004,0.056-0.006,0.112-0.006,0.168l-0.01,4.063l0,0c-0.088,0.647,0.79,0.928,1.095,0.351l2.462-4.659
			c0.11-0.208,0.248-0.4,0.411-0.571L95,111.019c1.244-1.304,3.41-0.946,4.169,0.689l3.236,6.974l1.88,1.462l-1.158,9.075
			c-0.027,0.215,0,0.434,0.081,0.636l3.082,7.693c0.081,0.201,0.211,0.379,0.38,0.516l7.589,6.169l3.333,4.134l6.016,0.511
			l2.539,0.389l2.987,0.27l2.588,1.258l2.551,1.068l0.496-0.109c0.93-0.205,1.82,0.476,1.867,1.426l0.035,0.717
			c0.008,0.172-0.012,0.345-0.061,0.51l-0.91,3.092c-0.129,0.438-0.057,0.911,0.198,1.291l1.934,2.887
			c0.048,0.071,0.101,0.138,0.16,0.2l3.341,3.537c0.197,0.209,0.449,0.359,0.728,0.432l1.913,0.502
			c0.593,0.156,1.038,0.649,1.13,1.256l0.392,2.568l0.436,3.537c0.007,0.054,0.016,0.108,0.029,0.161l1.002,4.307
			c0.012,0.053,0.028,0.106,0.046,0.158l0.472,1.355c0.113,0.324,0.331,0.6,0.619,0.786l0.591,0.381
			c0.288,0.186,0.63,0.27,0.972,0.239l1.999-0.18c1.018-0.092,1.666-1.133,1.297-2.087l0,0c-0.051-0.132-0.084-0.271-0.097-0.412
			l-0.066-0.706c-0.027-0.292,0.03-0.585,0.163-0.845l0.872-1.697c0.137-0.267,0.35-0.488,0.611-0.636l1.005-0.568
			c0.2-0.113,0.372-0.269,0.503-0.458l1.081-1.546c0.031-0.045,0.065-0.089,0.102-0.13l1.412-1.618
			c0.047-0.054,0.091-0.112,0.13-0.173l1.454-2.236c0.098-0.151,0.169-0.319,0.21-0.495l0.502-2.185
			c0.074-0.32,0.248-0.609,0.497-0.823l3.051-2.62c0.231-0.198,0.397-0.46,0.479-0.753l1.867-6.676
			c0.027-0.098,0.065-0.194,0.111-0.285l0.038-0.075c0.058-0.113,0.101-0.233,0.129-0.356l0.493-2.158
			c0.166-0.729-0.216-1.472-0.906-1.761l-0.089-0.037C164.326,148.666,161.946,148.318,159.591,148.568z M91.42,113.363
			l-0.013-0.026l0.017,0.026H91.42z M109.459,140.614l0.098-0.02L109.459,140.614z"/>
		<path style="fill:#407BFF;" d="M176.224,77.084l-1.987,0.518c-0.344,0.379-0.849,0.57-1.358,0.515l-6.182-0.679
			c-0.243-0.027-0.488,0.003-0.718,0.086l-4.495,1.625c-0.152,0.055-0.295,0.133-0.424,0.231l-1.754,1.334
			c-0.911,0.693-0.82,2.09,0.173,2.66l1.043,0.598c0.063,0.036,0.123,0.076,0.181,0.12l5.232,4.031
			c0.394,0.304,0.624,0.773,0.623,1.271l-0.012,4.738c-0.001,0.452,0.189,0.883,0.523,1.187l5.663,5.15
			c0.828,0.753,2.153,0.445,2.563-0.596l0.128-0.326c0.12-0.306,0.332-0.567,0.606-0.747l5.873-3.88
			c0.021-0.014,0.042-0.025,0.065-0.035l5.573-2.411c0.168-0.073,0.27-0.245,0.253-0.428c-0.041-0.434,0.522-0.638,0.769-0.279
			c0,0,2.93,2.964,2.333,3.941c-0.039,0.064-3.528,1.717-3.528,1.717c-0.363,0.183-0.283,0.723,0.117,0.794
			c0,0,4.528,0.129,5.672,1.003c1.469,1.123,3.156,6.69,3.156,6.69c0.077,0.171,0.033,0.372-0.109,0.495l-0.256,0.221
			c-0.024,0.02-0.049,0.038-0.077,0.053l-0.195,0.104c-0.221,0.118-0.291,0.4-0.152,0.608l2.004,2.995
			c0.023,0.034,0.04,0.07,0.052,0.109l1.227,3.924l-0.002,0l-2.268,2.6c-0.086,0.099-0.121,0.232-0.096,0.36l1.104,5.547
			c0.022,0.11-0.001,0.223-0.063,0.316c0,0-3.978,1.616-3.189,5.722c0.426,2.219,6.757,3.564,9.5,4.045
			c0.094-1.401,0.147-2.813,0.147-4.237C203.941,107.201,192.93,88.203,176.224,77.084z"/>
		<path style="opacity:0.5;fill:#FFFFFF;" d="M159.591,148.568L159.591,148.568c-0.485,0.052-0.966-0.13-1.296-0.49l-1.837-2.003
			c-0.272-0.296-0.649-0.474-1.05-0.496l-2.415-0.131c-0.177-0.01-0.351-0.05-0.514-0.118l-3.18-1.34
			c-0.337-0.142-0.714-0.159-1.062-0.049l-2.786,0.883c-0.152,0.048-0.312,0.073-0.471,0.072l-3.11-0.013
			c-0.416-0.002-0.815,0.165-1.106,0.462l-2.65,2.706c-0.225,0.23-0.516,0.383-0.833,0.439l-1.506,0.264
			c-0.478,0.084-0.968-0.063-1.322-0.396l-0.843-0.796l-0.952-2.401c-0.082-0.207-0.301-0.324-0.519-0.276l-1.982,0.434
			c-0.365,0.08-0.665-0.292-0.509-0.632l0,0l0.65-2.079l-0.035-2.366l-0.707-0.24l-3.831,3.671l0,0
			c-0.482,0.436-1.256,0.157-1.349-0.486l-0.737-5.073c-0.099-0.68,0.359-1.317,1.036-1.439l1.751-0.316
			c0.382-0.069,0.712-0.308,0.896-0.65l0,0c0.319-0.592,1.043-0.834,1.654-0.555l2.907,1.33c0.13,0.06,0.27,0.097,0.412,0.11
			l1.051,0.098c0.869,0.081,1.561-0.715,1.36-1.564l-0.382-1.614c-0.073-0.308-0.029-0.633,0.124-0.91l2.267-4.113
			c0.026-0.047,0.049-0.096,0.069-0.147l1.434-3.624c0.055-0.138,0.133-0.265,0.231-0.376l2.58-2.914l1.158-2.865l6.486-3.127
			l-1.582-1.181l-0.208-1.001c-0.214-1.032,0.227-2.089,1.11-2.663l1.922-1.249c1.218-0.792,1.532-2.438,0.691-3.623l0,0
			l-2.146-3.363c-0.335-0.524-0.849-0.909-1.447-1.081l-1.878-0.541c-0.157-0.045-0.31-0.106-0.456-0.18l-3.359-1.717
			c-1.205-0.616-2.682-0.186-3.368,0.981l-1.372,2.334c-0.032,0.054-0.062,0.11-0.09,0.167l-1.27,2.583
			c-0.611,1.243-2.102,1.773-3.361,1.195l-0.29-0.133c-0.11-0.051-0.217-0.109-0.319-0.175l-2.361-1.522
			c-1.264-0.815-1.555-2.539-0.629-3.724l0.881-1.127c0.092-0.118,0.194-0.227,0.305-0.327l2.814-2.529l1.48-1.442
			c0.162-0.158,0.344-0.293,0.542-0.403l0.923-0.513c1.018-0.566,1.525-1.748,1.234-2.876l-0.232-0.898
			c-0.281-1.087-1.238-1.863-2.36-1.914l-0.773-0.035c-0.234-0.011-0.466-0.053-0.689-0.127l-1.382-0.458
			c-0.847-0.281-1.779-0.1-2.459,0.478l-1.653,1.403c-0.479,0.407-1.092,0.623-1.72,0.607l-5.145-0.133
			c-0.174-0.004-0.348-0.027-0.517-0.067l-5.206-1.22c-0.316-0.074-0.644-0.087-0.965-0.039l-7.758,1.17
			c-0.385,0.058-0.779,0.027-1.151-0.09l-3.411-1.077c-0.44-0.139-0.909-0.156-1.358-0.05l-1.31,0.31
			c-0.81,0.191-1.476,0.765-1.785,1.537l-5.059,12.624c-0.099,0.248-0.159,0.51-0.177,0.776l-0.535,7.804
			c-0.004,0.056-0.006,0.112-0.006,0.168l-0.01,4.063l0,0c-0.088,0.647,0.79,0.928,1.095,0.351l2.462-4.659
			c0.11-0.208,0.248-0.4,0.411-0.571L95,111.019c1.244-1.304,3.41-0.946,4.169,0.689l3.236,6.974l1.88,1.462l-1.158,9.075
			c-0.027,0.215,0,0.434,0.081,0.636l3.082,7.693c0.081,0.201,0.211,0.379,0.38,0.516l7.589,6.169l3.333,4.134l6.016,0.511
			l2.539,0.389l2.987,0.27l2.588,1.258l2.551,1.068l0.496-0.109c0.93-0.205,1.82,0.476,1.867,1.426l0.035,0.717
			c0.008,0.172-0.012,0.345-0.061,0.51l-0.91,3.092c-0.129,0.438-0.057,0.911,0.198,1.291l1.934,2.887
			c0.048,0.071,0.101,0.138,0.16,0.2l3.341,3.537c0.197,0.209,0.449,0.359,0.728,0.432l1.913,0.502
			c0.593,0.156,1.038,0.649,1.13,1.256l0.392,2.568l0.436,3.537c0.007,0.054,0.016,0.108,0.029,0.161l1.002,4.307
			c0.012,0.053,0.028,0.106,0.046,0.158l0.472,1.355c0.113,0.324,0.331,0.6,0.619,0.786l0.591,0.381
			c0.288,0.186,0.63,0.27,0.972,0.239l1.999-0.18c1.018-0.092,1.666-1.133,1.297-2.087l0,0c-0.051-0.132-0.084-0.271-0.097-0.412
			l-0.066-0.706c-0.027-0.292,0.03-0.585,0.163-0.845l0.872-1.697c0.137-0.267,0.35-0.488,0.611-0.636l1.005-0.568
			c0.2-0.113,0.372-0.269,0.503-0.458l1.081-1.546c0.031-0.045,0.065-0.089,0.102-0.13l1.412-1.618
			c0.047-0.054,0.091-0.112,0.13-0.173l1.454-2.236c0.098-0.151,0.169-0.319,0.21-0.495l0.502-2.185
			c0.074-0.32,0.248-0.609,0.497-0.823l3.051-2.62c0.231-0.198,0.397-0.46,0.479-0.753l1.867-6.676
			c0.027-0.098,0.065-0.194,0.111-0.285l0.038-0.075c0.058-0.113,0.101-0.233,0.129-0.356l0.493-2.158
			c0.166-0.729-0.216-1.472-0.906-1.761l-0.089-0.037C164.326,148.666,161.946,148.318,159.591,148.568z M91.42,113.363
			l-0.013-0.026l0.017,0.026H91.42z M109.459,140.614l0.098-0.02L109.459,140.614z"/>
		<path style="opacity:0.5;fill:#FFFFFF;" d="M176.224,77.084l-1.987,0.518c-0.344,0.379-0.849,0.57-1.358,0.515l-6.182-0.679
			c-0.243-0.027-0.488,0.003-0.718,0.086l-4.495,1.625c-0.152,0.055-0.295,0.133-0.424,0.231l-1.754,1.334
			c-0.911,0.693-0.82,2.09,0.173,2.66l1.043,0.598c0.063,0.036,0.123,0.076,0.181,0.12l5.232,4.031
			c0.394,0.304,0.624,0.773,0.623,1.271l-0.012,4.738c-0.001,0.452,0.189,0.883,0.523,1.187l5.663,5.15
			c0.828,0.753,2.153,0.445,2.563-0.596l0.128-0.326c0.12-0.306,0.332-0.567,0.606-0.747l5.873-3.88
			c0.021-0.014,0.042-0.025,0.065-0.035l5.573-2.411c0.168-0.073,0.27-0.245,0.253-0.428c-0.041-0.434,0.522-0.638,0.769-0.279
			c0,0,2.93,2.964,2.333,3.941c-0.039,0.064-3.528,1.717-3.528,1.717c-0.363,0.183-0.283,0.723,0.117,0.794
			c0,0,4.528,0.129,5.672,1.003c1.469,1.123,3.156,6.69,3.156,6.69c0.077,0.171,0.033,0.372-0.109,0.495l-0.256,0.221
			c-0.024,0.02-0.049,0.038-0.077,0.053l-0.195,0.104c-0.221,0.118-0.291,0.4-0.152,0.608l2.004,2.995
			c0.023,0.034,0.04,0.07,0.052,0.109l1.227,3.924l-0.002,0l-2.268,2.6c-0.086,0.099-0.121,0.232-0.096,0.36l1.104,5.547
			c0.022,0.11-0.001,0.223-0.063,0.316c0,0-3.978,1.616-3.189,5.722c0.426,2.219,6.757,3.564,9.5,4.045
			c0.094-1.401,0.147-2.813,0.147-4.237C203.941,107.201,192.93,88.203,176.224,77.084z"/>
	</g>
</g>
<g id="Wind_turbines">
	<g>
		<path style="fill:#407BFF;" d="M176.656,254.601h-4.226L168.256,409.5c-0.044,1.636,1.27,2.986,2.906,2.986h6.761
			c1.636,0,2.951-1.35,2.907-2.986L176.656,254.601z"/>
		<path style="opacity:0.5;fill:#FFFFFF;" d="M176.656,254.601h-4.226L168.256,409.5c-0.044,1.636,1.27,2.986,2.906,2.986h6.761
			c1.636,0,2.951-1.35,2.907-2.986L176.656,254.601z"/>
		<path style="fill:#407BFF;" d="M188.445,250.154l-5.925-0.278l-0.581-1.744c-0.398-1.194-1.468-2.036-2.722-2.143l-3.688-0.315
			c-1.316-0.112-2.562,0.608-3.122,1.803l-0.886,1.892c-2.122-0.049-3.882,1.651-3.882,3.785c0,2.165,1.809,3.892,3.972,3.79
			l16.834-0.789c1.603-0.075,2.864-1.397,2.864-3.001C191.308,251.55,190.047,250.229,188.445,250.154z"/>
		<path style="opacity:0.2;fill:#FFFFFF;" d="M188.445,250.154l-5.925-0.278l-0.581-1.744c-0.398-1.194-1.468-2.036-2.722-2.143
			l-3.688-0.315c-1.316-0.112-2.562,0.608-3.122,1.803l-0.886,1.892c-2.122-0.049-3.882,1.651-3.882,3.785
			c0,2.165,1.809,3.892,3.972,3.79l16.834-0.789c1.603-0.075,2.864-1.397,2.864-3.001
			C191.308,251.55,190.047,250.229,188.445,250.154z"/>
		<path style="opacity:0.2;" d="M188.445,256.156c1.071-0.05,1.978-0.662,2.47-1.538l-15.788,0.216
			c0.253-0.508,0.408-1.074,0.408-1.681c0-2.15-1.785-3.863-3.928-3.788c-2.161-0.099-3.968,1.626-3.968,3.79
			c0,2.165,1.809,3.892,3.972,3.79L188.445,256.156z"/>
		<g>
			<path style="fill:#407BFF;" d="M170.627,252.07L170.627,252.07c-1.043,0-1.889-0.846-1.889-1.889v-42.653
				c0-2.715,2.201-4.917,4.917-4.917l0,0c2.992,0,5.29,2.649,4.867,5.611l-6.025,42.225
				C172.365,251.378,171.568,252.07,170.627,252.07z"/>
			<path style="opacity:0.3;fill:#FFFFFF;" d="M170.627,252.07L170.627,252.07c-1.043,0-1.889-0.846-1.889-1.889v-42.653
				c0-2.715,2.201-4.917,4.917-4.917l0,0c2.992,0,5.29,2.649,4.867,5.611l-6.025,42.225
				C172.365,251.378,171.568,252.07,170.627,252.07z"/>
			<path style="opacity:0.6;fill:#FFFFFF;" d="M174.12,202.636c-0.154-0.014-0.308-0.026-0.466-0.026
				c-2.715,0-4.917,2.201-4.917,4.917v42.653c0,0.406,0.131,0.779,0.348,1.087c0.674-0.216,1.193-0.794,1.297-1.527l6.024-42.226
				C176.695,205.497,175.718,203.625,174.12,202.636z"/>
		</g>
		<g>
			<path style="fill:#407BFF;" d="M171.821,254.052L171.821,254.052c-0.547,0.889-0.27,2.052,0.619,2.599l36.329,22.35
				c2.313,1.423,5.341,0.701,6.764-1.611l0,0c1.568-2.548,0.515-5.894-2.229-7.086l-39.121-16.994
				C173.32,252.935,172.314,253.251,171.821,254.052z"/>
			<path style="opacity:0.3;fill:#FFFFFF;" d="M171.821,254.052L171.821,254.052c-0.547,0.889-0.27,2.052,0.619,2.599l36.329,22.35
				c2.313,1.423,5.341,0.701,6.764-1.611l0,0c1.568-2.548,0.515-5.894-2.229-7.086l-39.121-16.994
				C173.32,252.935,172.314,253.251,171.821,254.052z"/>
			<path style="opacity:0.6;fill:#FFFFFF;" d="M213.304,270.304l-39.121-16.994c-0.66-0.286-1.402-0.166-1.936,0.263
				c0.089,0.516,0.384,0.993,0.865,1.289l36.329,22.35c2.306,1.419,5.323,0.704,6.751-1.594
				C216.547,273.469,215.443,271.233,213.304,270.304z"/>
		</g>
		<g>
			<path style="fill:#407BFF;" d="M169.063,254.052L169.063,254.052c0.547,0.889,0.27,2.052-0.619,2.599l-36.329,22.35
				c-2.313,1.423-5.341,0.701-6.764-1.611l0,0c-1.568-2.548-0.515-5.894,2.229-7.086l39.121-16.994
				C167.564,252.935,168.57,253.251,169.063,254.052z"/>
			<path style="opacity:0.3;fill:#FFFFFF;" d="M169.063,254.052L169.063,254.052c0.547,0.889,0.27,2.052-0.619,2.599l-36.329,22.35
				c-2.313,1.423-5.341,0.701-6.764-1.611l0,0c-1.568-2.548-0.515-5.894,2.229-7.086l39.121-16.994
				C167.564,252.935,168.57,253.251,169.063,254.052z"/>
			<path style="opacity:0.6;fill:#FFFFFF;" d="M166.701,253.309l-39.121,16.994c-2.403,1.044-3.509,3.739-2.694,6.104
				c1.566,1.652,4.124,2.043,6.141,0.803l36.329-22.35c0.554-0.341,0.87-0.921,0.897-1.525
				C167.776,253.113,167.214,253.087,166.701,253.309z"/>
		</g>
		<g style="opacity:0.5;">
			<path d="M171.113,303.473l-0.025,0.916c1.277,0.112,2.522,0.159,3.52,0.159c0.964,0,2.159-0.045,3.39-0.149l-0.025-0.915
				c-1.005,0.085-2.123,0.138-3.365,0.138C173.314,303.621,172.152,303.565,171.113,303.473z"/>
			<path d="M178.212,312.32l-0.15-5.572c-0.993,0.094-2.141,0.155-3.453,0.155c-1.374,0-2.556-0.07-3.583-0.172l-0.151,5.584
				c1.244,0.101,2.513,0.145,3.733,0.145C175.788,312.46,177.009,312.415,178.212,312.32z"/>
		</g>
	</g>
	<g>
		<path style="fill:#407BFF;" d="M112.363,210.108h-5.432l-5.366,199.123c-0.057,2.103,1.632,3.838,3.736,3.838h8.692
			c2.104,0,3.793-1.735,3.736-3.838L112.363,210.108z"/>
		<path style="opacity:0.5;fill:#FFFFFF;" d="M112.363,210.108h-5.432l-5.366,199.123c-0.057,2.103,1.632,3.838,3.736,3.838h8.692
			c2.104,0,3.793-1.735,3.736-3.838L112.363,210.108z"/>
		<path style="fill:#407BFF;" d="M127.517,204.391l-7.617-0.357l-0.747-2.241c-0.512-1.535-1.887-2.618-3.499-2.756l-4.741-0.405
			c-1.691-0.145-3.293,0.781-4.013,2.318l-1.139,2.433c-2.728-0.063-4.991,2.122-4.991,4.866c0,2.784,2.326,5.003,5.106,4.873
			l21.641-1.015c2.061-0.096,3.681-1.795,3.681-3.858C131.199,206.187,129.578,204.488,127.517,204.391z"/>
		<path style="opacity:0.2;fill:#FFFFFF;" d="M127.517,204.391l-7.617-0.357l-0.747-2.241c-0.512-1.535-1.887-2.618-3.499-2.756
			l-4.741-0.405c-1.691-0.145-3.293,0.781-4.013,2.318l-1.139,2.433c-2.728-0.063-4.991,2.122-4.991,4.866
			c0,2.784,2.326,5.003,5.106,4.873l21.641-1.015c2.061-0.096,3.681-1.795,3.681-3.858
			C131.199,206.187,129.578,204.488,127.517,204.391z"/>
		<path style="opacity:0.2;" d="M127.517,212.107c1.376-0.064,2.543-0.852,3.175-1.977l-20.296,0.277
			c0.325-0.653,0.524-1.38,0.524-2.162c0-2.764-2.294-4.966-5.049-4.87c-2.779-0.128-5.101,2.09-5.101,4.872
			c0,2.784,2.326,5.003,5.106,4.873L127.517,212.107z"/>
		<g>
			<path style="fill:#407BFF;" d="M104.613,206.855L104.613,206.855c-1.341,0-2.429-1.087-2.429-2.429v-54.831
				c0-3.491,2.83-6.321,6.321-6.321l0,0c3.846,0,6.8,3.406,6.257,7.213l-7.744,54.281
				C106.847,205.965,105.822,206.855,104.613,206.855z"/>
			<path style="opacity:0.3;fill:#FFFFFF;" d="M104.613,206.855L104.613,206.855c-1.341,0-2.429-1.087-2.429-2.429v-54.831
				c0-3.491,2.83-6.321,6.321-6.321l0,0c3.846,0,6.8,3.406,6.257,7.213l-7.744,54.281
				C106.847,205.965,105.822,206.855,104.613,206.855z"/>
			<path style="opacity:0.6;fill:#FFFFFF;" d="M109.104,143.307c-0.198-0.019-0.396-0.033-0.599-0.033c-3.49,0-6.32,2.83-6.32,6.32
				v54.831c0,0.521,0.168,1.002,0.447,1.397c0.866-0.277,1.533-1.021,1.668-1.963l7.744-54.281
				C112.414,146.984,111.158,144.578,109.104,143.307z"/>
		</g>
		<g>
			<path style="fill:#407BFF;" d="M106.147,209.403L106.147,209.403c-0.703,1.143-0.346,2.639,0.796,3.341l46.701,28.731
				c2.973,1.829,6.866,0.902,8.695-2.071l0,0c2.015-3.276,0.662-7.577-2.865-9.109l-50.291-21.846
				C108.075,207.966,106.781,208.373,106.147,209.403z"/>
			<path style="opacity:0.3;fill:#FFFFFF;" d="M106.147,209.403L106.147,209.403c-0.703,1.143-0.346,2.639,0.796,3.341
				l46.701,28.731c2.973,1.829,6.866,0.902,8.695-2.071l0,0c2.015-3.276,0.662-7.577-2.865-9.109l-50.291-21.846
				C108.075,207.966,106.781,208.373,106.147,209.403z"/>
			<path style="opacity:0.6;fill:#FFFFFF;" d="M159.475,230.294l-50.291-21.846c-0.848-0.368-1.802-0.214-2.489,0.339
				c0.115,0.663,0.493,1.277,1.111,1.657l46.701,28.731c2.965,1.824,6.842,0.905,8.678-2.049
				C163.643,234.364,162.223,231.488,159.475,230.294z"/>
		</g>
		<g>
			<path style="fill:#407BFF;" d="M102.602,209.403L102.602,209.403c0.703,1.143,0.346,2.639-0.796,3.341l-46.701,28.731
				c-2.973,1.829-6.866,0.902-8.695-2.071l0,0c-2.015-3.276-0.662-7.577,2.865-9.109l50.291-21.846
				C100.674,207.966,101.969,208.373,102.602,209.403z"/>
			<path style="opacity:0.3;fill:#FFFFFF;" d="M102.602,209.403L102.602,209.403c0.703,1.143,0.346,2.639-0.796,3.341
				l-46.701,28.731c-2.973,1.829-6.866,0.902-8.695-2.071l0,0c-2.015-3.276-0.662-7.577,2.865-9.109l50.291-21.846
				C100.674,207.966,101.969,208.373,102.602,209.403z"/>
			<path style="opacity:0.6;fill:#FFFFFF;" d="M99.566,208.448l-50.291,21.846c-3.089,1.342-4.51,4.807-3.463,7.847
				c2.013,2.124,5.302,2.627,7.894,1.032l46.701-28.731c0.712-0.438,1.118-1.184,1.154-1.961
				C100.948,208.196,100.225,208.161,99.566,208.448z"/>
		</g>
		<g style="opacity:0.5;">
			<path d="M105.238,272.934l-0.032,1.177c1.641,0.143,3.243,0.204,4.524,0.204c1.239,0,2.775-0.058,4.358-0.192l-0.032-1.176
				c-1.293,0.109-2.73,0.177-4.326,0.177C108.067,273.124,106.574,273.051,105.238,272.934z"/>
			<path d="M114.363,284.306l-0.193-7.163c-1.277,0.12-2.752,0.2-4.439,0.2c-1.767,0-3.286-0.09-4.605-0.221l-0.194,7.178
				c1.6,0.13,3.23,0.186,4.799,0.186C111.247,284.486,112.817,284.428,114.363,284.306z"/>
		</g>
	</g>
</g>
<g id="Clipboard">
	<g>
		<g>
			<polygon style="fill:#407BFF;" points="197.99,158.019 339.702,158.019 359.564,355.775 351.986,364.08 210.274,364.08 
				195.198,162.482 			"/>
			<polygon style="opacity:0.7;fill:#FFFFFF;" points="217.852,355.775 359.564,355.775 339.702,158.019 197.99,158.019 			"/>
		</g>
		<g style="opacity:0.5;">
			<path style="fill:#FFFFFF;" d="M219.555,361.246c38.292,0,76.584,0,114.876,0c5.458,0,10.916,0,16.374,0c0.965,0,0.967-1.5,0-1.5
				c-38.292,0-76.584,0-114.876,0c-5.458,0-10.916,0-16.374,0C218.59,359.746,218.589,361.246,219.555,361.246L219.555,361.246z"/>
		</g>
		<g style="opacity:0.5;">
			<path style="fill:#FFFFFF;" d="M204.251,259.756c2.546,28.908,5.091,57.816,7.637,86.725c0.36,4.088,0.72,8.177,1.08,12.265
				c0.084,0.954,1.585,0.963,1.5,0c-2.546-28.908-5.091-57.816-7.637-86.725c-0.36-4.088-0.72-8.177-1.08-12.265
				C205.667,258.802,204.166,258.793,204.251,259.756L204.251,259.756z"/>
		</g>
		<g>
			<g>
				<g>
					<path style="fill:#407BFF;" d="M293.3,189.603h13.131c1.583,0,2.754-1.283,2.615-2.866l-0.141-1.608
						c-0.138-1.583-1.534-2.866-3.117-2.866h-13.131c-1.583,0-2.754,1.283-2.615,2.866l0.141,1.608
						C290.322,188.32,291.717,189.603,293.3,189.603z"/>
					<path style="fill:#407BFF;" d="M292.065,204.756h15.692c1.583,0,2.754-1.283,2.615-2.866l-0.141-1.608
						c-0.138-1.583-1.534-2.866-3.117-2.866h-15.692c-1.583,0-2.754,1.283-2.615,2.866l0.141,1.608
						C289.087,203.473,290.482,204.756,292.065,204.756z"/>
					<path style="fill:#407BFF;" d="M295.952,219.909h13.131c1.583,0,2.754-1.283,2.615-2.866l-0.141-1.608
						c-0.138-1.583-1.534-2.866-3.117-2.866H295.31c-1.583,0-2.754,1.283-2.615,2.866l0.141,1.608
						C292.974,218.626,294.369,219.909,295.952,219.909z"/>
					<path style="fill:#407BFF;" d="M293.489,235.062h16.919c1.583,0,2.754-1.283,2.615-2.866l-0.141-1.608
						c-0.138-1.583-1.534-2.866-3.117-2.866h-16.919c-1.583,0-2.754,1.283-2.615,2.866l0.141,1.608
						C290.511,233.779,291.906,235.062,293.489,235.062z"/>
					<path style="fill:#407BFF;" d="M297.536,250.215h39.248c1.583,0,2.754-1.283,2.615-2.866l-0.141-1.608
						c-0.138-1.583-1.534-2.866-3.117-2.866h-39.248c-1.583,0-2.754,1.283-2.615,2.866l0.141,1.608
						C294.558,248.932,295.953,250.215,297.536,250.215z"/>
					<path style="fill:#407BFF;" d="M293.526,265.368h44.583c1.583,0,2.754-1.283,2.615-2.866l-0.141-1.608
						c-0.138-1.583-1.534-2.866-3.117-2.866h-44.583c-1.583,0-2.754,1.283-2.615,2.866l0.141,1.608
						C290.548,264.085,291.943,265.368,293.526,265.368z"/>
					<path style="fill:#407BFF;" d="M298.694,280.521h40.742c1.583,0,2.754-1.283,2.615-2.866l-0.141-1.608
						c-0.139-1.583-1.534-2.866-3.117-2.866h-40.742c-1.583,0-2.754,1.283-2.615,2.866l0.141,1.608
						C295.715,279.238,297.111,280.521,298.694,280.521z"/>
				</g>
				<g style="opacity:0.4;">
					<path style="fill:#FFFFFF;" d="M293.3,189.603h13.131c1.583,0,2.754-1.283,2.615-2.866l-0.141-1.608
						c-0.138-1.583-1.534-2.866-3.117-2.866h-13.131c-1.583,0-2.754,1.283-2.615,2.866l0.141,1.608
						C290.322,188.32,291.717,189.603,293.3,189.603z"/>
					<path style="fill:#FFFFFF;" d="M292.065,204.756h15.692c1.583,0,2.754-1.283,2.615-2.866l-0.141-1.608
						c-0.138-1.583-1.534-2.866-3.117-2.866h-15.692c-1.583,0-2.754,1.283-2.615,2.866l0.141,1.608
						C289.087,203.473,290.482,204.756,292.065,204.756z"/>
					<path style="fill:#FFFFFF;" d="M295.952,219.909h13.131c1.583,0,2.754-1.283,2.615-2.866l-0.141-1.608
						c-0.138-1.583-1.534-2.866-3.117-2.866H295.31c-1.583,0-2.754,1.283-2.615,2.866l0.141,1.608
						C292.974,218.626,294.369,219.909,295.952,219.909z"/>
					<path style="fill:#FFFFFF;" d="M293.489,235.062h16.919c1.583,0,2.754-1.283,2.615-2.866l-0.141-1.608
						c-0.138-1.583-1.534-2.866-3.117-2.866h-16.919c-1.583,0-2.754,1.283-2.615,2.866l0.141,1.608
						C290.511,233.779,291.906,235.062,293.489,235.062z"/>
					<path style="fill:#FFFFFF;" d="M297.536,250.215h39.248c1.583,0,2.754-1.283,2.615-2.866l-0.141-1.608
						c-0.138-1.583-1.534-2.866-3.117-2.866h-39.248c-1.583,0-2.754,1.283-2.615,2.866l0.141,1.608
						C294.558,248.932,295.953,250.215,297.536,250.215z"/>
					<path style="fill:#FFFFFF;" d="M293.526,265.368h44.583c1.583,0,2.754-1.283,2.615-2.866l-0.141-1.608
						c-0.138-1.583-1.534-2.866-3.117-2.866h-44.583c-1.583,0-2.754,1.283-2.615,2.866l0.141,1.608
						C290.548,264.085,291.943,265.368,293.526,265.368z"/>
					<path style="fill:#FFFFFF;" d="M298.694,280.521h40.742c1.583,0,2.754-1.283,2.615-2.866l-0.141-1.608
						c-0.139-1.583-1.534-2.866-3.117-2.866h-40.742c-1.583,0-2.754,1.283-2.615,2.866l0.141,1.608
						C295.715,279.238,297.111,280.521,298.694,280.521z"/>
				</g>
			</g>
			<g>
				<path style="fill:#263238;" d="M267.263,189.603h9.327c1.583,0,2.754-1.283,2.615-2.866l-0.141-1.608
					c-0.139-1.583-1.534-2.866-3.117-2.866h-9.327c-1.583,0-2.754,1.283-2.615,2.866l0.141,1.608
					C264.285,188.32,265.68,189.603,267.263,189.603z"/>
				<path style="fill:#263238;" d="M268.589,204.756h9.327c1.583,0,2.754-1.283,2.615-2.866l-0.141-1.608
					c-0.138-1.583-1.534-2.866-3.117-2.866h-9.327c-1.583,0-2.754,1.283-2.615,2.866l0.141,1.608
					C265.611,203.473,267.006,204.756,268.589,204.756z"/>
				<path style="fill:#263238;" d="M269.914,219.909h9.327c1.583,0,2.754-1.283,2.615-2.866l-0.141-1.608
					c-0.138-1.583-1.534-2.866-3.117-2.866h-9.327c-1.583,0-2.754,1.283-2.615,2.866l0.141,1.608
					C266.936,218.626,268.332,219.909,269.914,219.909z"/>
				<path style="fill:#263238;" d="M271.24,235.062h9.327c1.583,0,2.754-1.283,2.615-2.866l-0.141-1.608
					c-0.138-1.583-1.534-2.866-3.117-2.866h-9.327c-1.583,0-2.754,1.283-2.615,2.866l0.141,1.608
					C268.262,233.779,269.657,235.062,271.24,235.062z"/>
				<path style="fill:#263238;" d="M272.566,250.215h9.327c1.583,0,2.754-1.283,2.615-2.866l-0.141-1.608
					c-0.138-1.583-1.534-2.866-3.117-2.866h-9.327c-1.583,0-2.754,1.283-2.615,2.866l0.141,1.608
					C269.588,248.932,270.983,250.215,272.566,250.215z"/>
				<path style="fill:#263238;" d="M273.891,265.368h9.327c1.583,0,2.754-1.283,2.615-2.866l-0.141-1.608
					c-0.139-1.583-1.534-2.866-3.117-2.866h-9.327c-1.583,0-2.754,1.283-2.615,2.866l0.141,1.608
					C270.913,264.085,272.309,265.368,273.891,265.368z"/>
				<path style="fill:#263238;" d="M275.217,280.521h9.327c1.583,0,2.754-1.283,2.615-2.866l-0.141-1.608
					c-0.138-1.583-1.534-2.866-3.117-2.866h-9.327c-1.583,0-2.754,1.283-2.615,2.866l0.141,1.608
					C272.239,279.238,273.634,280.521,275.217,280.521z"/>
			</g>
			<g style="opacity:0.4;">
				<path style="fill:#FFFFFF;" d="M267.263,189.603h9.327c1.583,0,2.754-1.283,2.615-2.866l-0.141-1.608
					c-0.139-1.583-1.534-2.866-3.117-2.866h-9.327c-1.583,0-2.754,1.283-2.615,2.866l0.141,1.608
					C264.285,188.32,265.68,189.603,267.263,189.603z"/>
				<path style="fill:#FFFFFF;" d="M268.589,204.756h9.327c1.583,0,2.754-1.283,2.615-2.866l-0.141-1.608
					c-0.138-1.583-1.534-2.866-3.117-2.866h-9.327c-1.583,0-2.754,1.283-2.615,2.866l0.141,1.608
					C265.611,203.473,267.006,204.756,268.589,204.756z"/>
				<path style="fill:#FFFFFF;" d="M269.914,219.909h9.327c1.583,0,2.754-1.283,2.615-2.866l-0.141-1.608
					c-0.138-1.583-1.534-2.866-3.117-2.866h-9.327c-1.583,0-2.754,1.283-2.615,2.866l0.141,1.608
					C266.936,218.626,268.332,219.909,269.914,219.909z"/>
				<path style="fill:#FFFFFF;" d="M271.24,235.062h9.327c1.583,0,2.754-1.283,2.615-2.866l-0.141-1.608
					c-0.138-1.583-1.534-2.866-3.117-2.866h-9.327c-1.583,0-2.754,1.283-2.615,2.866l0.141,1.608
					C268.262,233.779,269.657,235.062,271.24,235.062z"/>
				<path style="fill:#FFFFFF;" d="M272.566,250.215h9.327c1.583,0,2.754-1.283,2.615-2.866l-0.141-1.608
					c-0.138-1.583-1.534-2.866-3.117-2.866h-9.327c-1.583,0-2.754,1.283-2.615,2.866l0.141,1.608
					C269.588,248.932,270.983,250.215,272.566,250.215z"/>
				<path style="fill:#FFFFFF;" d="M273.891,265.368h9.327c1.583,0,2.754-1.283,2.615-2.866l-0.141-1.608
					c-0.139-1.583-1.534-2.866-3.117-2.866h-9.327c-1.583,0-2.754,1.283-2.615,2.866l0.141,1.608
					C270.913,264.085,272.309,265.368,273.891,265.368z"/>
				<path style="fill:#FFFFFF;" d="M275.217,280.521h9.327c1.583,0,2.754-1.283,2.615-2.866l-0.141-1.608
					c-0.138-1.583-1.534-2.866-3.117-2.866h-9.327c-1.583,0-2.754,1.283-2.615,2.866l0.141,1.608
					C272.239,279.238,273.634,280.521,275.217,280.521z"/>
			</g>
		</g>
		<g>
			<g>
				<path style="fill:#263238;" d="M227.422,299.859h44.037c1.583,0,2.754-1.283,2.615-2.866l-0.141-1.608
					c-0.138-1.583-1.534-2.866-3.117-2.866H226.78c-1.583,0-2.754,1.283-2.615,2.866l0.141,1.608
					C224.444,298.576,225.839,299.859,227.422,299.859z"/>
				<path style="fill:#263238;" d="M226.186,315.012h46.598c1.583,0,2.754-1.283,2.615-2.866l-0.141-1.608
					c-0.138-1.583-1.534-2.866-3.117-2.866h-46.598c-1.583,0-2.754,1.283-2.615,2.866l0.141,1.608
					C223.208,313.728,224.604,315.012,226.186,315.012z"/>
				<path style="fill:#263238;" d="M230.073,330.164h44.037c1.583,0,2.754-1.283,2.615-2.866l-0.141-1.608
					c-0.138-1.583-1.534-2.866-3.117-2.866h-44.037c-1.583,0-2.754,1.283-2.615,2.866l0.141,1.608
					C227.095,328.881,228.49,330.164,230.073,330.164z"/>
				<path style="fill:#263238;" d="M227.611,345.317h47.825c1.583,0,2.754-1.283,2.615-2.866l-0.141-1.608
					c-0.139-1.583-1.534-2.866-3.117-2.866h-47.825c-1.583,0-2.754,1.283-2.615,2.866l0.141,1.608
					C224.633,344.034,226.028,345.317,227.611,345.317z"/>
			</g>
			<g style="opacity:0.4;">
				<path style="fill:#FFFFFF;" d="M227.422,299.859h44.037c1.583,0,2.754-1.283,2.615-2.866l-0.141-1.608
					c-0.138-1.583-1.534-2.866-3.117-2.866H226.78c-1.583,0-2.754,1.283-2.615,2.866l0.141,1.608
					C224.444,298.576,225.839,299.859,227.422,299.859z"/>
				<path style="fill:#FFFFFF;" d="M226.186,315.012h46.598c1.583,0,2.754-1.283,2.615-2.866l-0.141-1.608
					c-0.138-1.583-1.534-2.866-3.117-2.866h-46.598c-1.583,0-2.754,1.283-2.615,2.866l0.141,1.608
					C223.208,313.728,224.604,315.012,226.186,315.012z"/>
				<path style="fill:#FFFFFF;" d="M230.073,330.164h44.037c1.583,0,2.754-1.283,2.615-2.866l-0.141-1.608
					c-0.138-1.583-1.534-2.866-3.117-2.866h-44.037c-1.583,0-2.754,1.283-2.615,2.866l0.141,1.608
					C227.095,328.881,228.49,330.164,230.073,330.164z"/>
				<path style="fill:#FFFFFF;" d="M227.611,345.317h47.825c1.583,0,2.754-1.283,2.615-2.866l-0.141-1.608
					c-0.139-1.583-1.534-2.866-3.117-2.866h-47.825c-1.583,0-2.754,1.283-2.615,2.866l0.141,1.608
					C224.633,344.034,226.028,345.317,227.611,345.317z"/>
			</g>
		</g>
		<g>
			<g>
				<path d="M260.274,161.717l1.414-0.296l-7.111-24.302c-0.672-2.296-0.353-4.581,0.876-6.269c1.215-1.668,3.138-2.586,5.418-2.586
					c4.824,0,9.446,4.209,9.89,9.007l2.25,24.302l1.469-0.009l-2.25-24.302c-0.516-5.576-5.884-10.468-11.487-10.468
					c-2.69,0-5.063,1.14-6.511,3.127c-1.479,2.031-1.869,4.762-1.069,7.493L260.274,161.717z"/>
			</g>
			<path style="fill:#407BFF;" d="M249.814,165.696h40.639l-1.62-18.515c-0.189-2.158-2.091-3.907-4.249-3.907h-32.826
				c-2.158,0-3.754,1.749-3.565,3.907L249.814,165.696z"/>
			<path style="opacity:0.2;" d="M249.814,165.696h40.639l-1.62-18.515c-0.189-2.158-2.091-3.907-4.249-3.907h-32.826
				c-2.158,0-3.754,1.749-3.565,3.907L249.814,165.696z"/>
			<g>
				<g>
					<path d="M264.385,161.642l1.45-0.146l-4.556-24.302c-0.428-2.279,0.124-4.56,1.511-6.257c1.389-1.698,3.498-2.672,5.789-2.672
						c2.291,0,4.57,0.975,6.256,2.672c1.685,1.698,2.635,3.978,2.606,6.257l-0.304,24.302l1.475,0.146l0.304-24.302
						c0.034-2.691-1.088-5.385-3.078-7.39c-1.99-2.006-4.683-3.156-7.387-3.156c-2.705,0-5.197,1.15-6.836,3.156
						c-1.639,2.005-2.29,4.699-1.785,7.39L264.385,161.642z"/>
				</g>
				<g style="opacity:0.2;">
					<path style="fill:#FFFFFF;" d="M264.385,161.642l1.45-0.146l-4.556-24.302c-0.428-2.279,0.124-4.56,1.511-6.257
						c1.389-1.698,3.498-2.672,5.789-2.672c2.291,0,4.57,0.975,6.256,2.672c1.685,1.698,2.635,3.978,2.606,6.257l-0.304,24.302
						l1.475,0.146l0.304-24.302c0.034-2.691-1.088-5.385-3.078-7.39c-1.99-2.006-4.683-3.156-7.387-3.156
						c-2.705,0-5.197,1.15-6.836,3.156c-1.639,2.005-2.29,4.699-1.785,7.39L264.385,161.642z"/>
				</g>
			</g>
			<path style="fill:#407BFF;" d="M248.515,168.499h43.728c0.759,0,1.321-0.616,1.255-1.375l-0.209-2.388
				c-0.066-0.759-0.736-1.375-1.495-1.375h-43.728c-0.759,0-1.321,0.616-1.255,1.375l0.209,2.388
				C247.086,167.883,247.756,168.499,248.515,168.499z"/>
		</g>
		<path style="opacity:0.8;fill:#FFFFFF;" d="M338.922,299.842h-1.034h-10.413h-1.034h-10.413h-1.034h-10.413h-1.034h-10.413h-1.034
			h-11.447l1.004,11.48l0.087,1l0.917,10.48l0.087,1l0.917,10.48l0.087,1l1.004,11.479h11.447h1.034h10.413h1.034H319.1h1.034
			h10.413h1.034h10.413h1.034h11.447l-1.004-11.479l-0.088-1l-0.917-10.48l-0.087-1l-0.917-10.48l-0.087-1l-1.004-11.48H338.922z
			 M339.897,322.803h-10.413l-0.917-10.48h10.413L339.897,322.803z M328.45,322.803h-10.413l-0.917-10.48h10.413L328.45,322.803z
			 M317.004,322.803h-10.413l-0.917-10.48h10.413L317.004,322.803z M305.557,322.803h-10.413l-0.917-10.48h10.413L305.557,322.803z
			 M295.231,323.803h10.413l0.917,10.48h-10.413L295.231,323.803z M306.678,323.803h10.413l0.917,10.48h-10.413L306.678,323.803z
			 M318.125,323.803h10.413l0.917,10.48h-10.413L318.125,323.803z M329.572,323.803h10.413l0.917,10.48h-10.413L329.572,323.803z
			 M337.976,300.842l0.917,10.48H328.48l-0.917-10.48H337.976z M326.529,300.842l0.917,10.48h-10.413l-0.917-10.48H326.529z
			 M315.082,300.842l0.917,10.48h-10.413l-0.917-10.48H315.082z M303.635,300.842l0.917,10.48h-10.413l-0.917-10.48H303.635z
			 M281.742,300.842h10.447l0.917,10.48h-10.447L281.742,300.842z M282.746,312.323h10.447l0.917,10.48h-10.447L282.746,312.323z
			 M283.751,323.803h10.447l0.917,10.48h-10.447L283.751,323.803z M285.672,345.763l-0.917-10.479h10.447l0.917,10.479H285.672z
			 M297.152,345.763l-0.917-10.479h10.413l0.917,10.479H297.152z M308.599,345.763l-0.917-10.479h10.413l0.917,10.479H308.599z
			 M320.046,345.763l-0.917-10.479h10.413l0.917,10.479H320.046z M331.493,345.763l-0.917-10.479h10.413l0.917,10.479H331.493z
			 M353.386,345.763H342.94l-0.917-10.479h10.447L353.386,345.763z M352.382,334.284h-10.447l-0.917-10.48h10.447L352.382,334.284z
			 M351.378,322.803h-10.447l-0.917-10.48h10.447L351.378,322.803z M339.926,311.323l-0.917-10.48h10.447l0.917,10.48H339.926z"/>
		<g>
			<polygon style="fill:#407BFF;" points="299.611,345.925 292.211,345.925 291.206,334.614 298.606,334.614 			"/>
			<polygon style="fill:#263238;" points="314.41,345.925 307.01,345.925 305,323.302 312.4,323.302 			"/>
			<polygon style="fill:#407BFF;" points="329.209,345.925 321.81,345.925 320.494,331.116 327.894,331.116 			"/>
			<polygon style="fill:#263238;" points="344.009,345.925 336.609,345.925 333.831,314.659 341.231,314.659 			"/>
			<g>
				<path style="fill:#407BFF;" d="M290.002,321.061L290.002,321.061c-0.585-0.935-0.336-2.099,0.554-2.601l16.703-9.408
					l15.163,4.937l15.204-10.115c0.848-0.564,2.058-0.293,2.702,0.605l0,0c0.644,0.898,0.478,2.084-0.37,2.648l-16.659,11.081
					l-15.317-4.987l-15.309,8.624C291.782,322.348,290.586,321.996,290.002,321.061z"/>
			</g>
			<path style="fill:#407BFF;" d="M332.35,307.672c0,0,8.567-8.068-1.874-11.483c0,0-4.729,9.147,0.487,11.483
				c0,0,2.507-4.185,1.052-8.56C332.015,299.112,334.868,302.378,332.35,307.672z"/>
			<path style="fill:#407BFF;" d="M338.792,307.873c0,0,7.243-9.284,11.559,0.854c0,0-8.655,5.541-11.436,0.534
				c0,0,3.929-2.878,8.399-1.813C347.314,307.447,343.82,304.885,338.792,307.873z"/>
		</g>
		<g>
			<path style="fill:#407BFF;" d="M241.213,221.901c10.195,0,17.737-8.265,16.845-18.46c-0.892-10.195-9.88-18.46-20.075-18.46
				c-0.836,0-1.647,0.075-2.444,0.183c-0.816-0.108-1.64-0.183-2.476-0.183c-10.196,0-17.737,8.265-16.845,18.46h11.424
				c-0.504-5.76,3.149-10.566,8.473-11.701c5.522,1.135,10.017,5.941,10.521,11.701c0.578,6.604-4.307,11.957-10.911,11.957
				l0.569,6.503H241.213z"/>
			<path style="fill:#407BFF;" d="M239.273,224.027l-0.569-6.503c-6.604,0-12.425-5.353-13.003-11.957h-11.423
				c0.892,10.195,9.88,18.46,20.075,18.46H239.273z"/>
			<path style="fill:#263238;" d="M241.213,221.901c10.195,0,17.737-8.265,16.845-18.46c-0.892-10.195-9.88-18.46-20.075-18.46
				c-0.836,0-1.647,0.075-2.444,0.183c-0.816-0.108-1.64-0.183-2.476-0.183c-10.196,0-17.737,8.265-16.845,18.46h11.424
				c-0.504-5.76,3.149-10.566,8.473-11.701c5.522,1.135,10.017,5.941,10.521,11.701c0.578,6.604-4.307,11.957-10.911,11.957
				l0.569,6.503H241.213z"/>
			<path style="fill:#263238;" d="M239.273,224.027l-0.569-6.503c-6.604,0-12.425-5.353-13.003-11.957h-11.423
				c0.892,10.195,9.88,18.46,20.075,18.46H239.273z"/>
			<path style="fill:#407BFF;" d="M227.641,203.441c-0.578-6.603,4.307-11.957,10.911-11.957c6.604,0,12.426,5.354,13.003,11.957
				c0.578,6.604-4.307,11.957-10.911,11.957l0.569,6.503c10.195,0,17.737-8.265,16.845-18.46c-0.892-10.195-9.88-18.46-20.075-18.46
				s-17.737,8.265-16.845,18.46H227.641z"/>
			<path style="fill:#407BFF;" d="M219.198,205.567c0.892,10.195,9.88,18.46,20.075,18.46l-0.569-6.503
				c-6.604,0-12.425-5.353-13.003-11.957H219.198z"/>
			<path style="opacity:0.5;fill:#FFFFFF;" d="M219.198,205.567c0.892,10.195,9.88,18.46,20.075,18.46l-0.569-6.503
				c-6.604,0-12.425-5.353-13.003-11.957H219.198z"/>
		</g>
		<g>
			<g>
				<path style="fill:#407BFF;" d="M238.045,239.26c-0.196-2.241-0.266-3.043-0.463-5.289h-4.92c-5.098,0-9.532,2.066-12.58,5.407
					l5.001,4.599h4.92c1.491-1.635,3.496-2.796,5.81-3.267c0.128,1.462,0.213,2.433,0.428,4.887c6.604,0,12.426,5.354,13.003,11.957
					h11.423c-0.892-10.195-9.88-18.46-20.076-18.46L238.045,239.26z"/>
				<path style="fill:#407BFF;" d="M246.133,278.139c10.195,0,17.737-8.265,16.845-18.46h-11.423
					c0.493,5.64-3.004,10.355-8.147,11.616l-0.156-1.784c-6.604,0-12.425-5.353-13.003-11.957c-0.289-3.302,0.788-6.291,2.763-8.455
					l-5.001-4.599h-4.92c-3.048,3.341-4.711,7.956-4.265,13.053c0.892,10.195,9.88,18.46,20.075,18.46l2.106-0.234l0.206,2.36
					H246.133z"/>
			</g>
			<g>
				<path style="fill:#263238;" d="M238.045,239.26c-0.196-2.241-0.266-3.043-0.463-5.289h-4.92c-5.098,0-9.532,2.066-12.58,5.407
					l5.001,4.599h4.92c1.491-1.635,3.496-2.796,5.81-3.267c0.128,1.462,0.213,2.433,0.428,4.887c6.604,0,12.426,5.354,13.003,11.957
					h11.423c-0.892-10.195-9.88-18.46-20.076-18.46L238.045,239.26z"/>
				<path style="fill:#263238;" d="M246.133,278.139c10.195,0,17.737-8.265,16.845-18.46h-11.423
					c0.493,5.64-3.004,10.355-8.147,11.616l-0.156-1.784c-6.604,0-12.425-5.353-13.003-11.957c-0.289-3.302,0.788-6.291,2.763-8.455
					l-5.001-4.599h-4.92c-3.048,3.341-4.711,7.956-4.265,13.053c0.892,10.195,9.88,18.46,20.075,18.46l2.106-0.234l0.206,2.36
					H246.133z"/>
			</g>
			<path style="fill:#407BFF;" d="M256.475,259.678c0.578,6.604-4.307,11.957-10.911,11.957l0.569,6.503
				c10.195,0,17.737-8.265,16.845-18.46H256.475z"/>
			<path style="opacity:0.3;" d="M256.475,259.678c0.578,6.604-4.307,11.957-10.911,11.957l0.569,6.503
				c10.195,0,17.737-8.265,16.845-18.46H256.475z"/>
			<g>
				<path style="fill:#407BFF;" d="M240.591,239.092c10.195,0,19.183,8.265,20.075,18.46h-6.503
					c-0.578-6.603-6.399-11.957-13.003-11.957C240.877,242.357,240.82,241.703,240.591,239.092z"/>
				<path style="fill:#407BFF;" d="M233.012,249.098c-1.975,2.164-3.051,5.153-2.763,8.455c0.578,6.604,6.4,11.957,13.003,11.957
					l0.569,6.503c-10.195,0-19.183-8.265-20.075-18.46c-0.446-5.098,1.217-9.713,4.265-13.053L233.012,249.098z"/>
			</g>
			<path style="fill:#407BFF;" d="M230.003,243.976l-5.001-4.599c3.048-3.341,7.483-5.407,12.58-5.407
				c0.228,2.611,0.286,3.265,0.569,6.503C234.849,240.473,231.977,241.812,230.003,243.976z"/>
			<path style="opacity:0.5;fill:#FFFFFF;" d="M230.003,243.976l-5.001-4.599c3.048-3.341,7.483-5.407,12.58-5.407
				c0.228,2.611,0.286,3.265,0.569,6.503C234.849,240.473,231.977,241.812,230.003,243.976z"/>
		</g>
	</g>
</g>
<g id="Character">
	<g>
		<g>
			<polygon style="fill:#CE7A63;" points="372.282,397.296 367.886,408.252 361.552,406.648 364.721,394.453 			"/>
			<polygon style="fill:#CE7A63;" points="414.334,395.297 412.484,406.957 405.952,406.802 406.33,394.208 			"/>
			<path style="fill:#407BFF;" d="M354.091,412.851c5.807,0.084,6.576,0.005,9.84-0.057c2.796-0.06,3.459,0.299,5.705,0.282
				c1.876-0.013,1.833-1.81,1.284-3.884c-0.275-1.041-0.689-3.241-1.064-4.923l-7.541-2.761c-1.23,2.268-4.936,7.509-8.215,7.901
				C350.97,409.782,351.776,412.818,354.091,412.851z"/>
			<path style="fill:#263238;" d="M380.906,250.559c0,0-4.143,60.967-6.725,84.22c-3.28,29.541-8.423,51.826-12.728,67.14
				c1.16,1.063,6.094,1.579,8.891,1.332c0,0,20.165-34.516,18.264-64.756c19.489-53.258,13.617-85.776,13.617-85.776
				L380.906,250.559z"/>
			<path style="opacity:0.5;" d="M392.61,320.694c2.423-17.252-0.822-46.941-0.822-46.941l1.633-9.703l3.562,2.926l6.177,6.048
				C402.345,284.022,399.639,299.736,392.61,320.694z"/>
			<path style="fill:#407BFF;" d="M398.192,412.328c5.806-0.122,6.572-0.227,9.832-0.405c2.792-0.159,3.467,0.177,5.711,0.08
				c1.875-0.079,1.767-1.874,1.145-3.927c-0.311-1.031-0.803-3.215-1.237-4.882l-8.519-0.44c-1.149,2.31-3.782,5.625-7.045,6.134
				C394.964,409.372,395.877,412.377,398.192,412.328z"/>
			<path style="fill:#263238;" d="M388.696,253.507c0,0,9.081,56.798,13.123,79.843c4.246,24.202,3.671,54.263,3.07,70.159
				c1.377,0.761,6.294,0.108,8.955-0.786c0,0,9.893-43.261,4.55-67.322c6.48-56.34-6.757-78.754-6.757-78.754L388.696,253.507z"/>
			<g>
				<path style="fill:#407BFF;" d="M385.618,211.22c-1.665,5.533-7.662,16.502-17.775,19.019c0,0,1.305,5.24-3.118,4.751
					c0,0,10.28,3.446,17.289-2.93c10.664-9.7,13.02-22.929,8.282-24.865C387.217,205.936,386.105,209.602,385.618,211.22z"/>
				<path style="opacity:0.5;" d="M385.618,211.22c-1.665,5.533-7.781,16.502-17.775,19.019c0,0,1.305,5.24-3.118,4.751
					c0,0,10.28,3.446,17.289-2.93c10.664-9.7,13.02-22.929,8.282-24.865C387.217,205.936,386.105,209.602,385.618,211.22z"/>
			</g>
			<path style="fill:#263238;" d="M380.534,217.996c-0.734,3.002,0.289,8.532,0.357,15.974c-0.064,6.283,0.669,10.529-0.866,22.162
				l32.928,1.243c-0.201-8.949,0.621-18.892,7.352-38.06c1.561-4.444-1.185-9.284-5.899-10.396c-1.26-0.297-2.597-0.583-3.972-0.835
				c-5.345-0.977-9.729-1.738-14.51-1.955c-1.584-0.072-3.235,0.056-4.802-0.093C388.696,205.806,381.985,212.061,380.534,217.996z"
				/>
			<path style="fill:#263238;" d="M396.835,174.67c0,0-5.721,0.134-2.447,9.999l3.7-6.462L396.835,174.67z"/>
			<path style="fill:#CE7A63;" d="M409.621,193.209c-1.47,4.362-3.412,12.455-0.572,15.881c0,0-4.326-1.231-13.858,3.155
				c-2.491-4.144-0.44-5.082-0.44-5.082c5.281-0.503,5.619-4.23,5.167-7.834L409.621,193.209z"/>
			<path style="opacity:0.2;" d="M405.665,195.707l-5.743,3.619c0.11,0.853,0.171,1.712,0.127,2.533
				c1.995-0.012,4.953-1.746,5.414-3.717C405.695,197.158,405.773,196.194,405.665,195.707z"/>
			<path style="fill:#CE7A63;" d="M414.392,182.658c-1.008,7.457-1.276,10.627-5.308,14.386c-6.065,5.655-14.92,3.285-16.141-4.202
				c-1.098-6.739,0.734-17.802,8.219-20.633C408.536,169.42,415.399,175.2,414.392,182.658z"/>
			<g>
				<path style="fill:#263238;" d="M402.754,185.801c-0.054,0.594-0.406,1.07-0.785,1.061c-0.379-0.008-0.643-0.497-0.589-1.092
					c0.054-0.595,0.406-1.07,0.785-1.061C402.545,184.718,402.809,185.206,402.754,185.801z"/>
				<path style="fill:#263238;" d="M395.373,185.411c-0.054,0.594-0.406,1.07-0.785,1.061c-0.379-0.008-0.643-0.497-0.588-1.092
					c0.054-0.594,0.406-1.07,0.785-1.061C395.164,184.327,395.427,184.816,395.373,185.411z"/>
				<path style="fill:#263238;" d="M394.949,184.356l-1.356-0.442C393.593,183.913,394.206,185.044,394.949,184.356z"/>
				<path style="fill:#BA4D3C;" d="M397.509,186.767c0,0-1.218,2.538-2.415,3.749c0.699,0.749,2.032,0.444,2.032,0.444
					L397.509,186.767z"/>
				<path style="fill:#263238;" d="M404.185,182.099c-0.091,0.006-0.181-0.024-0.248-0.091c-1.046-1.055-2.288-0.754-2.302-0.75
					c-0.184,0.045-0.363-0.066-0.397-0.253c-0.033-0.187,0.091-0.377,0.277-0.424c0.065-0.016,1.623-0.396,2.921,0.914
					c0.129,0.131,0.122,0.352-0.015,0.494C404.354,182.056,404.27,182.093,404.185,182.099z"/>
				<path style="fill:#263238;" d="M392.702,181.43c-0.085,0.017-0.173,0.002-0.246-0.048c-0.151-0.104-0.183-0.32-0.07-0.482
					c1.13-1.628,2.708-1.662,2.776-1.662c0.189-0.002,0.332,0.153,0.32,0.346c-0.012,0.193-0.174,0.35-0.362,0.353
					c-0.062,0-1.286,0.045-2.185,1.34C392.877,181.359,392.792,181.412,392.702,181.43z"/>
				<path style="fill:#263238;" d="M402.33,184.746l-1.356-0.442C400.974,184.304,401.587,185.435,402.33,184.746z"/>
				<g>
					<path style="fill:#263238;" d="M396.237,193.11c0,0,1.732-0.39,6.524-0.358c-0.654,1.47-1.777,2.667-4.23,2.626
						C396.078,195.339,396.237,193.11,396.237,193.11z"/>
					<path style="fill:#FF5652;" d="M399.742,194.227c-1.184-0.02-2.057,0.251-2.718,0.695c0.332,0.261,0.82,0.443,1.505,0.454
						c1.184,0.019,2.051-0.244,2.713-0.695C400.909,194.42,400.427,194.239,399.742,194.227z"/>
					<path style="fill:#FFFFFF;" d="M396.457,193.07c0.116,0.315,0.231,0.631,0.705,0.736c0.994,0.076,3.568-0.197,4.264-0.339
						c0.444-0.071,0.829-0.222,1.128-0.716C398.863,192.735,397.045,192.972,396.457,193.07z"/>
				</g>
			</g>
			<path style="fill:#263238;" d="M412.529,187.963c0,0-5.01-1.702-7.228-11.408c0,0-1.327,2.925,1.286,8.298
				c0,0-6.072-2.071-5.638-8.207c0,0-4.781,2.995-1.346,7.414c0,0-7.827-4.471-2.787-10.328c0,0-0.238-11.372,10.82-4.478
				c0,0,27.06,8.56,4.124,24.53L412.529,187.963z"/>
			<path style="fill:#CE7A63;" d="M416.395,188.857c-0.95,1.497-2.429,2.4-3.76,2.674c-2.003,0.412-2.76-1.581-1.998-3.538
				c0.686-1.761,2.554-4.097,4.466-3.625C416.986,184.833,417.481,187.145,416.395,188.857z"/>
			<path style="fill:#263238;" d="M400.823,170.648c0,0-9.987,0.95-7.987,8.044c0,0,1.128-4.025,7.153-3.651L400.823,170.648z"/>
			<path style="fill:#263238;" d="M400.823,170.648c0,0-3.918,0.89-4.935-3.494c0,0-3.53,6.922,3.127,5.407L400.823,170.648z"/>
			<path style="fill:#263238;" d="M409.958,209.277c0,0-2.077-1.402-2.12-5.343c-0.007-0.641-0.568-1.126-1.197-1.007
				c-1.381,0.26-3.766,0.471-6.458-0.332c-0.574-0.171-1.166,0.184-1.282,0.772c-0.264,1.334-1.081,3.33-3.614,3.341l-3.969,1.271
				l1.838,5.463l5.103,0.581l10.096-1.212l2.419-2.864L409.958,209.277z"/>
			<g>
				<path style="fill:#407BFF;" d="M409.213,206.853c-0.67-0.164-1.369-0.001-1.904,0.434c-2.33,1.893-8.442,8.244-10.567,24.007
					c-2.647,19.638,6.419,41.73,6.419,41.73l16.816-4.131c0,0-7.015-10.212-6.059-20.627c0.956-10.416,9.52-30.789,7.411-35.08
					C419.606,209.682,411.96,207.526,409.213,206.853z"/>
				<path style="opacity:0.3;" d="M409.213,206.853c-0.67-0.164-1.369-0.001-1.904,0.434c-2.33,1.893-8.442,8.244-10.567,24.007
					c-2.647,19.638,6.419,41.73,6.419,41.73l16.816-4.131c0,0-7.015-10.212-6.059-20.627c0.956-10.416,9.52-30.789,7.411-35.08
					C419.606,209.682,411.96,207.526,409.213,206.853z"/>
			</g>
			<path style="opacity:0.2;" d="M409.454,208.288c0,0-0.802,7.263-2.183,9.174c-0.526,0.728-3.248,1.008-3.056,1.885
				c0.231,1.055,3.861-0.465,4.289,0.527c1.725,3.997-11.309,14.053-11.309,14.053s10.542-9.43,8.985-12.879
				c-0.585-1.295-5.33,0.449-5.604-0.945c-0.314-1.599,4.493-2.187,5.539-3.436C407.562,214.937,409.454,208.288,409.454,208.288z"
				/>
			<g>
				<path style="fill:#407BFF;" d="M396.457,205.787c0.342,0.069,0.367,0.131,0.073,0.32c-2.243,1.447-7.32,7.339-9.198,31.223
					c-2.441,31.048-6.738,34.014-6.738,34.014l-4.297-1.41c0,0,1.696-5.592,2.654-18.516c0.371-5.007-0.172-14.094-0.126-22.625
					C378.894,215.739,385.53,203.583,396.457,205.787z"/>
				<path style="opacity:0.3;" d="M396.457,205.787c0.342,0.068,0.367,0.131,0.073,0.32c-2.243,1.447-7.32,7.339-9.198,31.223
					c-2.441,31.048-6.738,34.014-6.738,34.014l-4.297-1.41c0,0,1.696-5.592,2.654-18.516c0.371-5.007-0.172-14.094-0.126-22.625
					C378.894,215.739,385.397,203.583,396.457,205.787z"/>
				<path style="opacity:0.2;" d="M392.95,207.487c0,0-6.789,5.601-6.745,8.268c0.015,0.91,2.701,1.887,2.391,2.742
					c-0.416,1.147-4.13-0.24-4.818,0.768c-1.709,2.502,2.599,12.844,2.599,12.844s-6.286-11.014-4.497-13.93
					c0.521-0.849,3.618,0.397,3.946-0.543c0.219-0.626-1.852-1.256-1.831-1.918C384.095,212.68,392.95,207.487,392.95,207.487z"/>
			</g>
			<g>
				<path style="fill:#263238;" d="M399.695,250.017l-36.822-29.04c9.381-12.666,7.406-30.608-4.822-40.892
					c-12.712-10.691-31.684-9.053-42.376,3.658c-10.691,12.712-9.053,31.684,3.659,42.376c12.227,10.284,30.242,9.155,41.113-2.259
					l34.921,31.3c1.414,1.267,3.595,1.113,4.817-0.34l0,0C401.408,253.368,401.185,251.193,399.695,250.017z M321.429,223.628
					c-11.336-9.534-12.797-26.453-3.263-37.789c9.534-11.336,26.453-12.797,37.789-3.263c11.336,9.534,12.797,26.453,3.263,37.789
					S332.765,233.163,321.429,223.628z"/>
				<path style="opacity:0.5;fill:#FFFFFF;" d="M399.695,250.017l-36.822-29.04c9.381-12.666,7.406-30.608-4.822-40.892
					c-12.712-10.691-31.684-9.053-42.376,3.658c-10.691,12.712-9.053,31.684,3.659,42.376c12.227,10.284,30.242,9.155,41.113-2.259
					l34.921,31.3c1.414,1.267,3.595,1.113,4.817-0.34l0,0C401.408,253.368,401.185,251.193,399.695,250.017z M321.429,223.628
					c-11.336-9.534-12.797-26.453-3.263-37.789c9.534-11.336,26.453-12.797,37.789-3.263c11.336,9.534,12.797,26.453,3.263,37.789
					S332.765,233.163,321.429,223.628z"/>
			</g>
			<g>
				<path style="fill:#CE7A63;" d="M395.616,244.664c1.543,0.981,3.065,1.767,4.669,2.551c1.604,0.754,3.264,1.425,5.023,1.986
					c1.77,0.533,3.615,1.012,5.768,1.113c1.082,0.04,2.253,0.004,3.59-0.333c1.311-0.323,2.905-1.086,4.12-2.497
					c0.15-0.174,0.278-0.36,0.383-0.554l0.125-0.235c0.98-1.833,1.798-3.755,2.373-5.73c0.6-1.969,0.996-3.978,1.225-5.991
					c0.235-2.012,0.291-4.028,0.199-6.033c-0.053-1.003-0.141-2.003-0.267-3.008c-0.063-0.502-0.133-1.007-0.224-1.515l-0.151-0.772
					l-0.199-0.876c-0.549-2.42-2.956-3.936-5.376-3.388c-2.341,0.531-3.837,2.801-3.434,5.14l0.066,0.379l0.077,0.442l0.085,0.554
					l0.16,1.152c0.096,0.778,0.164,1.569,0.203,2.36c0.092,1.583,0.08,3.168-0.015,4.734c-0.2,2.92-0.785,5.753-1.807,8.393
					c-0.293,0.106-0.711,0.195-1.184,0.239c-1.21,0.109-2.702,0.033-4.204-0.176c-1.514-0.192-3.075-0.496-4.644-0.841
					c-1.567-0.323-3.178-0.756-4.702-1.146l-0.097-0.025c-1.203-0.308-2.428,0.418-2.736,1.62
					C394.397,243.175,394.819,244.156,395.616,244.664z"/>
				<path style="fill:#CE7A63;" d="M389.82,237.685l2.035-0.507c0.765-0.19,1.609,0.007,2.264,0.531l3.063,2.447
					c1.224,0.978,2.599,3.738,1.929,4.861c-1.777,2.977-7.871-0.253-7.871-0.253l-1.334-0.238c-1.188-0.212-2.033-1.246-1.941-2.374
					l0.212-2.598C388.249,238.656,388.904,237.913,389.82,237.685z"/>
				<g>
					<path style="fill:#407BFF;" d="M416.154,210.653c1.141-0.611,2.551-0.385,3.567,0.418c2.47,1.952,6.374,7.498,4.52,22.683
						c-2.632,21.56-13.492,18.536-25.784,12.709l0.757-5.662c0,0,8.409,2.376,12.797,1.472c0,0,2.175-5.315,1.836-11.343
						C413.535,225.404,410.563,213.646,416.154,210.653z"/>
					<path style="opacity:0.5;" d="M416.154,210.653c1.141-0.611,2.551-0.385,3.567,0.418c2.47,1.952,6.374,7.498,4.52,22.683
						c-2.632,21.56-13.492,18.536-25.784,12.709l0.757-5.662c0,0,8.409,2.376,12.797,1.472c0,0,2.175-5.315,1.836-11.343
						C413.535,225.404,410.563,213.646,416.154,210.653z"/>
				</g>
			</g>
			<path style="fill:#CE7A63;" d="M358.675,229.364l0.574,2.136c0.216,0.803,0.802,1.487,1.573,1.835l3.605,1.628
				c0.18,0.081,0.395,0.133,0.633,0.16c2.447,0.284,4.139-2.512,2.861-4.618c-1.17-1.927-2.498-3.329-2.498-3.329l-0.863-1.118
				c-0.769-0.996-2.07-1.268-2.988-0.624l-2.114,1.482C358.728,227.428,358.416,228.402,358.675,229.364z"/>
		</g>
		<g>
			<polygon style="fill:#407BFF;" points="338.848,190 334.031,198.275 326.621,193.829 332.796,183.084 345.147,183.084 			"/>
			<path style="fill:#407BFF;" d="M349.592,207.908l-4.816-8.398l7.533-4.199l6.299,10.745c-1.976,3.458-4.323,7.41-6.175,10.745
				L349.592,207.908z"/>
			<path style="fill:#407BFF;" d="M328.72,208.278h9.509v8.645h-12.473c-1.976-3.334-4.323-7.41-6.175-10.745L328.72,208.278z"/>
			<path style="fill:#407BFF;" d="M345.147,183.084l3.705,6.299l1.857-1.052c0.514-0.291,1.084,0.282,0.789,0.794l-3.88,6.743
				c-0.152,0.264-0.44,0.421-0.744,0.406l-7.135-0.361c-0.585-0.03-0.763-0.81-0.247-1.089c0.535-0.29,1.058-0.581,1.58-0.871
				c-0.494-0.988-1.359-2.47-2.223-3.952L345.147,183.084z"/>
			<path style="fill:#407BFF;" d="M352.432,216.801h-7.286l-0.065,2.269c-0.017,0.585-0.791,0.78-1.083,0.273l-3.914-6.804
				c-0.152-0.264-0.143-0.592,0.023-0.847l3.86-5.926c0.318-0.489,1.077-0.255,1.066,0.328c-0.011,0.574-0.011,1.144-0.011,1.691
				c1.111,0.123,2.841,0.123,4.569,0.123L352.432,216.801z"/>
			<path style="fill:#407BFF;" d="M319.581,206.179l3.581-6.299l-1.852-1.15c-0.496-0.308-0.278-1.073,0.306-1.073l7.844,0
				c0.304,0,0.582,0.17,0.721,0.44l3.283,6.384c0.272,0.528-0.331,1.074-0.831,0.753c-0.523-0.336-1.045-0.684-1.568-1.032
				c-0.617,0.988-1.482,2.47-2.347,4.075L319.581,206.179z"/>
			<path style="opacity:0.3;" d="M345.147,183.084l3.705,6.299l1.857-1.052c0.514-0.291,1.084,0.282,0.789,0.794l-3.88,6.743
				c-0.152,0.264-0.44,0.421-0.744,0.406l-7.135-0.361c-0.585-0.03-0.763-0.81-0.247-1.089c0.535-0.29,1.058-0.581,1.58-0.871
				c-0.494-0.988-1.359-2.47-2.223-3.952L345.147,183.084z"/>
			<path style="opacity:0.3;" d="M352.432,216.801h-7.286l-0.065,2.269c-0.017,0.585-0.791,0.78-1.083,0.273l-3.914-6.804
				c-0.152-0.264-0.143-0.592,0.023-0.847l3.86-5.926c0.318-0.489,1.077-0.255,1.066,0.328c-0.011,0.574-0.011,1.144-0.011,1.691
				c1.111,0.123,2.841,0.123,4.569,0.123L352.432,216.801z"/>
			<path style="opacity:0.3;" d="M319.581,206.179l3.581-6.299l-1.852-1.15c-0.496-0.308-0.278-1.073,0.306-1.073l7.844,0
				c0.304,0,0.582,0.17,0.721,0.44l3.283,6.384c0.272,0.528-0.331,1.074-0.831,0.753c-0.523-0.336-1.045-0.684-1.568-1.032
				c-0.617,0.988-1.482,2.47-2.347,4.075L319.581,206.179z"/>
		</g>
	</g>
</g>
</svg>
