<?xml version="1.0" encoding="utf-8"?>
<!-- Generator: Adobe Illustrator 23.0.5, SVG Export Plug-In . SVG Version: 6.00 Build 0)  -->
<svg version="1.1" id="_x2018_лой_x5F_1" xmlns="http://www.w3.org/2000/svg" xmlns:xlink="http://www.w3.org/1999/xlink"
	 x="0px" y="0px" viewBox="0 0 3000 2000" style="enable-background:new 0 0 3000 2000;" xml:space="preserve">
<style type="text/css">
	.st0{fill:#FFFFFF;}
	.st1{fill:#EBF3FA;}
	.st2{fill:#D2E0FF;}
	.st3{opacity:0.8;}
	.st4{fill:#AEC3FF;}
	.st5{opacity:0.5;}
	.st6{fill:#BBD0FF;}
	.st7{fill:#739AF0;}
	.st8{fill:#F3FAFF;}
	.st9{fill:#2B478B;}
	.st10{fill:#8C9DF4;}
	.st11{fill:#AFCDFB;}
	.st12{fill:#F99746;}
	.st13{fill:#FFB27D;}
	.st14{fill:#6980E2;}
	.st15{fill:#1C4B8E;}
	.st16{fill:#FFA561;}
	.st17{fill:#F4904D;}
	.st18{fill:#FCA56B;}
	.st19{fill:#163560;}
	.st20{fill:#1F4D84;}
	.st21{fill:#B3CFF9;}
	.st22{fill:#233862;}
	.st23{fill:#EF873A;}
	.st24{fill:#9FB1FF;}
	.st25{fill:#182D4C;}
	.st26{fill:#F2CCAA;}
	.st27{fill:#E8945B;}
	.st28{fill:#ED7D2B;}
	.st29{fill:#ED975D;}
	.st30{fill:#A8D29F;}
</style>
<rect class="st0" width="3000" height="2000"/>
<g>
	<path class="st1" d="M488.3,1855.5c0,0-406.2-346.8-97.4-675.5c328.8-350,37.5-799.3,483.8-980.6c482.5-196,606.6,149.2,808.6,96.2
		c402.9-105.7,913.9-53.7,828.8,459.9c-106.7,644.6,331.2,562.4,71.1,1102.2L488.3,1855.5z"/>
	<g>
		<path class="st2" d="M1683.2,810.9c0,0,67.4-285.7,294.9-317.2c0,0,44.3-5.4,59,43.3c14.7,48.7-73.2,49.1-127.6,68.7
			C1855,625.3,1728.3,708.4,1683.2,810.9z"/>
		<path class="st2" d="M1678,757.4c0,0-23.6-236.7,142.3-320.7c0,0,32.5-15.8,56.6,17.6c24.1,33.4-43.2,56.9-79.7,86.2
			C1760.8,570,1685.5,667,1678,757.4z"/>
	</g>
	<g class="st3">
		<path class="st4" d="M1166.6,978.3c0,0,97.5-54.6,52-128.8c0,0-36.4-45.5-75.4-57.2c0,0,20.8,110.6,0,113.2
			c-20.8,2.6-14.3-124.9-14.3-124.9s-102.8-49.4-143.1-45.5c0,0,63.7,108,42.9,105.4c-20.8-2.6-92.3-111.9-92.3-111.9
			S831,709.1,814.1,771.5c-16.9,62.4,10.4,93.6,26,97.5c15.6,3.9,115.8,2.6,113.2,15.6c-2.6,13-70.2,33.8-108,22.1
			c0,0,41.6,102.8,96.2,97.5c54.6-5.2,71.5-39,105.4-41.6c33.8-2.6,58.5,6.5,41.6,15.6c-16.9,9.1-74.1,3-101.5,26.2
			c-27.3,23.2-49.4,37.5,1.3,47.9c50.7,10.4,141.8,3.9,160-35.1C1166.6,978.3,1166.6,978.3,1166.6,978.3z"/>
		<g>
			<path class="st4" d="M862.3,791c0,0,273.1,88.4,304.4,187.3c0,0-1.3,44.2,26,94.9v19.5c0,0-28.6-66.3-44.2-75.4
				C1148.4,1017.4,1209.5,931.5,862.3,791z"/>
			<path class="st4" d="M1192.6,1073.3c0,0,42.1,64,18.1,141.8l-10.8-2.9c0,0,10.5-85.8-11.5-128.9
				C1166.3,1040.2,1192.6,1073.3,1192.6,1073.3z"/>
		</g>
	</g>
	<g class="st5">
		<path class="st2" d="M1220.8,1419.4c0,0,63.9-191.5-86.9-235.2c0,0-103.9-16.5-170.3,15.2c0,0,162.1,122.4,137.5,151.1
			s-170.8-149.4-170.8-149.4s-197.3,58.8-246.4,113c0,0,216.2,66.7,185.3,88.5S610,1365.6,610,1365.6s-164.4,101.9-111.1,205.8
			c53.3,103.9,127.7,112.4,153.2,98.7c25.6-13.8,157.7-137.1,170.1-116.6c12.3,20.5-52.7,130.5-117.3,160.7c0,0,180.4,86.7,247,13.3
			c66.6-73.3,48.1-139,90.1-183.6c42-44.6,86.1-62.4,74.5-29.7s-95.4,94-103.6,158.2c-8.3,64.2-20.4,110.2,60,62.4
			c80.4-47.7,194.1-167,171-241.2C1220.8,1419.4,1220.8,1419.4,1220.8,1419.4z"/>
		<g>
			<path class="st2" d="M586.9,1539c0,0,472.2-213.7,634-119.6c0,0,55,67.4,23.1,74.2C1243.9,1493.6,1221.2,1304.7,586.9,1539z"/>
		</g>
	</g>
	<g>
		<path class="st6" d="M1919.1,1439.8c0,0,18.8-114.5,107.3-96.3c0,0,57.3,19.4,82.5,53.4c0,0-115.2,18.8-110.4,40
			s126.9-30.2,126.9-30.2s84.5,82.8,95,123.5c0,0-127.9-24-118-4.6c9.9,19.4,141.8,50.6,141.8,50.6s56.3,95.9,1.3,134.5
			c-54.9,38.6-95.1,22.9-104.4,9.1s-43.5-112-55.2-104.9c-11.8,7.1-8.2,80.5,16.6,113.2c0,0-115-4.3-129.2-59.4s12.8-83.6,3.4-117.5
			s-27-54.8-29.9-35.1c-2.9,19.7,23.3,73.4,10.3,108.3c-13,34.9-19.2,61.5-47.2,15.7c-28.1-45.8-53.9-137-22.3-168.5
			C1919.1,1439.8,1919.1,1439.8,1919.1,1439.8z"/>
		<g>
			<path class="st6" d="M2209.4,1670.6c0,0-182.9-235.3-290.3-230.8c0,0-42.7,16.9-101.8,8.2l-19,6.9c0,0,74.8,4.5,89.2,16.5
				C1887.5,1471.4,1949.6,1381.4,2209.4,1670.6z"/>
			<path class="st6" d="M1817.3,1448c0,0-77.3-18.5-144.8,32.5l6.7,9.5c0,0,80-40.6,129.8-34.3C1858.9,1462,1817.3,1448,1817.3,1448
				z"/>
		</g>
	</g>
	<g>
		<path class="st2" d="M1884.7,965.6c0,0-119.2-66.8-63.6-157.4c0,0,44.5-55.6,92.2-70c0,0-25.4,135.1,0,138.3
			c25.4,3.2,17.5-152.6,17.5-152.6s125.6-60.4,174.9-55.6c0,0-77.9,132-52.5,128.8s112.9-136.7,112.9-136.7s128.8-23.8,149.5,52.5
			c20.7,76.3-12.7,114.5-31.8,119.2c-19.1,4.8-141.5,3.2-138.3,19.1c3.2,15.9,85.9,41.3,132,27c0,0-50.9,125.6-117.7,119.2
			c-66.8-6.4-87.4-47.7-128.8-50.9c-41.3-3.2-71.5,7.9-50.9,19.1c20.7,11.1,90.6,3.6,124,32c33.4,28.4,60.4,45.9-1.6,58.6
			c-62,12.7-173.3,4.8-195.6-42.9C1884.7,965.6,1884.7,965.6,1884.7,965.6z"/>
		<g>
			<path class="st2" d="M2256.8,736.7c0,0-333.9,108.1-372,228.9c0,0,1.6,54.1-31.8,116.1v23.8c0,0,35-81.1,54.1-92.2
				C1907,1013.3,1832.3,908.4,2256.8,736.7z"/>
			<path class="st2" d="M1852.9,1081.7c0,0-51.5,78.2-22.1,173.4l13.2-3.6c0,0-12.9-104.8,14.1-157.6
				C1885.1,1041.2,1852.9,1081.7,1852.9,1081.7z"/>
		</g>
	</g>
	<g>
		<g>
			<rect x="1084.9" y="635" class="st7" width="891.3" height="1218.9"/>
			<rect x="1122.9" y="667.9" class="st8" width="815.3" height="1152.4"/>
			<path class="st9" d="M1361.5,635v41.5c0,22.9,18.6,41.5,41.5,41.5h222.8c22.9,0,41.5-18.6,41.5-41.5V635H1361.5z"/>
		</g>
		<g>
			<rect x="1217.5" y="1657.1" class="st4" width="100.9" height="10.2"/>
			<rect x="1341.8" y="1657.1" class="st4" width="100.9" height="10.2"/>
			<rect x="1217.5" y="1679.8" class="st4" width="139.9" height="10.2"/>
		</g>
		<g>
			<g>
				<path class="st10" d="M1334.7,807.1h36.9c10.3,0,18.2,2.9,23.5,8.2c4.5,4.5,6.9,10.8,6.9,18.7c0,13-7,21.2-17.3,25l19.7,28.8
					h-20.8l-17.5-25.8h-13.7v25.8h-17.8V807.1z M1370.4,846.3c8.7,0,13.6-4.6,13.6-11.7c0-7.6-5.3-11.5-14-11.5h-17.7v23.2H1370.4z"
					/>
				<path class="st10" d="M1416.8,853.3v-46.2h17.8v45.7c0,13.2,6.6,20,17.4,20c10.8,0,17.4-6.6,17.4-19.4v-46.3h17.8v45.6
					c0,24.5-13.7,36.5-35.4,36.5C1430.1,889.1,1416.8,877,1416.8,853.3z"/>
				<path class="st10" d="M1505.3,807.1h17.8v64.6h40.3v16.2h-58V807.1z"/>
				<path class="st10" d="M1576.8,807.1h60.9v15.8h-43.3v16.4h38.1v15.8h-38.1v17h43.8v15.8h-61.5V807.1z"/>
				<path class="st10" d="M1648.5,876.1l10.5-12.6c7.3,6,14.9,9.8,24.1,9.8c7.3,0,11.7-2.9,11.7-7.8c0-4.5-2.8-6.8-16.3-10.3
					c-16.3-4.2-26.8-8.7-26.8-24.9c0-14.7,11.8-24.3,28.3-24.3c11.8,0,21.8,3.7,30,10.3l-9.2,13.4c-7.2-5-14.2-8-21-8
					c-6.8,0-10.4,3.1-10.4,7.3c0,5.3,3.5,7,17.4,10.6c16.4,4.3,25.6,10.2,25.6,24.5c0,16-12.2,25-29.7,25
					C1670.6,889,1658.2,884.8,1648.5,876.1z"/>
			</g>
			<rect x="1304.5" y="906.9" class="st10" width="438" height="5.7"/>
		</g>
		<g>
			<g>
				<g>
					<path class="st11" d="M1856.6,1096.1h-147.5V948.6h147.5V1096.1z M1716.1,1089.1h133.6V955.6h-133.6V1089.1z"/>
				</g>
				<g>
					<path class="st12" d="M1786.6,1066.5c-3.1,0-6-1.4-8-3.8l-45.5-55c-3.7-4.4-3-11,1.4-14.7c4.4-3.7,11-3,14.7,1.4l36.1,43.7
						l65.3-109.6c2.9-4.9,9.3-6.6,14.3-3.6c4.9,2.9,6.6,9.3,3.6,14.3l-72.8,122.3c-1.7,2.9-4.8,4.8-8.2,5.1
						C1787.1,1066.4,1786.8,1066.5,1786.6,1066.5z"/>
				</g>
			</g>
			<g>
				<g>
					<g>
						<rect x="1267.8" y="970.4" class="st4" width="327.6" height="14.4"/>
					</g>
					<g>
						<rect x="1267.8" y="1034.7" class="st4" width="301.9" height="14.4"/>
					</g>
					<g>
						<rect x="1506.1" y="1002.5" class="st4" width="89.3" height="14.4"/>
						<rect x="1267.8" y="1002.5" class="st4" width="213.5" height="14.4"/>
					</g>
				</g>
				<g>
					<g>
						<path class="st4" d="M1194.5,983.3l-14.7,4.1l-3-11.6l21.9-7h10v82h-14.2V983.3z"/>
					</g>
					<path class="st4" d="M1218,1045.5c0-2.9,2.3-5.2,5.2-5.2s5.2,2.3,5.2,5.2s-2.3,5.2-5.2,5.2S1218,1048.4,1218,1045.5z"/>
				</g>
			</g>
		</g>
		<g>
			<g>
				<g>
					<path class="st11" d="M1857.8,1316.4h-147.5v-147.5h147.5V1316.4z M1717.3,1309.4h133.6v-133.6h-133.6V1309.4z"/>
				</g>
				<g>
					<path class="st12" d="M1787.7,1286.7c-3.1,0-6-1.4-8-3.8l-45.5-55c-3.7-4.4-3-11,1.4-14.7c4.4-3.7,11-3,14.7,1.4l36.1,43.7
						l65.3-109.6c2.9-4.9,9.3-6.6,14.3-3.6c4.9,2.9,6.6,9.3,3.6,14.3l-72.8,122.3c-1.7,2.9-4.8,4.8-8.2,5.1
						C1788.3,1286.7,1788,1286.7,1787.7,1286.7z"/>
				</g>
			</g>
			<g>
				<g>
					<g>
						<path class="st4" d="M1176.2,1259.8l27.8-23.7c11.1-9.4,15.1-14.6,15.1-21.8c0-8-5.7-12.6-13.1-12.6s-12.5,4-18.7,12.1
							l-10-7.9c7.7-10.9,15.4-17,29.8-17c15.8,0,26.7,9.7,26.7,24.4c0,12.7-6.8,19.5-21,31.3l-16.6,13.9h38.5v12.5h-58.4V1259.8z"/>
					</g>
					<path class="st4" d="M1244.2,1265.9c0-2.8,2.3-5.1,5.1-5.1c2.8,0,5.1,2.3,5.1,5.1c0,2.8-2.3,5.1-5.1,5.1
						C1246.5,1271,1244.2,1268.7,1244.2,1265.9z"/>
				</g>
				<g>
					<g>
						<g>
							<rect x="1270.5" y="1190.7" class="st4" width="344.2" height="14.4"/>
						</g>
						<g>
							<rect x="1270.5" y="1254.9" class="st4" width="317.2" height="14.4"/>
						</g>
						<g>
							<rect x="1520.9" y="1222.8" class="st4" width="93.8" height="14.4"/>
							<rect x="1270.5" y="1222.8" class="st4" width="224.4" height="14.4"/>
						</g>
					</g>
				</g>
			</g>
		</g>
		<g>
			<g>
				<g>
					<path class="st11" d="M1857.8,1538.3h-147.5v-147.5h147.5V1538.3z M1717.3,1531.3h133.6v-133.6h-133.6V1531.3z"/>
				</g>
				<g>
					<path class="st12" d="M1787.7,1508.6c-3.1,0-6-1.4-8-3.8l-45.5-55c-3.7-4.4-3-11,1.4-14.7c4.4-3.7,11-3,14.7,1.4l36.1,43.7
						l65.3-109.6c2.9-4.9,9.3-6.6,14.3-3.6c4.9,2.9,6.6,9.3,3.6,14.3l-72.8,122.3c-1.7,2.9-4.8,4.8-8.2,5.1
						C1788.3,1508.6,1788,1508.6,1787.7,1508.6z"/>
				</g>
			</g>
			<g>
				<g>
					<g>
						<rect x="1270.5" y="1412.6" class="st4" width="344.2" height="14.4"/>
					</g>
					<g>
						<rect x="1270.5" y="1476.8" class="st4" width="317.2" height="14.4"/>
					</g>
					<g>
						<rect x="1520.9" y="1444.7" class="st4" width="93.8" height="14.4"/>
						<rect x="1270.5" y="1444.7" class="st4" width="224.4" height="14.4"/>
					</g>
				</g>
			</g>
			<g>
				<g>
					<path class="st4" d="M1175.1,1478.2l9.7-9c5.7,6.7,12,10.4,20.8,10.4c7.8,0,13.7-4.7,13.7-12.2c0-7.8-7.1-12.2-18.2-12.2h-6.4
						l-2.3-8.7l21.4-22.7h-34.2v-12.1h52.3v10.4l-22,22.6c12.5,1.8,23.3,8.3,23.3,22.5c0,14.6-11.3,25-27.7,25
						C1191.6,1492.1,1181.8,1486.4,1175.1,1478.2z"/>
				</g>
				<path class="st4" d="M1237.1,1487.1c0-2.8,2.3-5,5-5c2.8,0,5,2.3,5,5s-2.3,5-5,5C1239.3,1492.1,1237.1,1489.9,1237.1,1487.1z"/>
			</g>
		</g>
		<g>
			<g>
				<path class="st4" d="M1590.6,1689.7c-29.6,0-55.4-21-61.3-49.9c-0.5-2.3,1-4.6,3.3-5.1c2.3-0.5,4.6,1,5.1,3.3
					c5.1,25,27.3,43.1,52.9,43.1c25.3,0,47.5-17.9,52.8-42.6c0.5-2.3,2.8-3.8,5.1-3.3c2.3,0.5,3.8,2.8,3.3,5.1
					C1645.6,1669,1619.8,1689.7,1590.6,1689.7z"/>
			</g>
			<g>
				<path class="st4" d="M1533.4,1620.3c-0.3,0-0.5,0-0.8-0.1c-2.3-0.4-3.8-2.7-3.4-5c5.7-29.3,31.5-50.6,61.4-50.6
					c28.7,0,53.7,19.4,60.7,47.3c0.6,2.3-0.8,4.6-3.1,5.2c-2.3,0.6-4.6-0.8-5.2-3.1c-6-24-27.6-40.8-52.4-40.8
					c-25.8,0-48.1,18.4-53,43.7C1537.2,1618.9,1535.4,1620.3,1533.4,1620.3z"/>
			</g>
			<g>
				<path class="st4" d="M1590.6,1716.1c-49,0-88.9-39.9-88.9-88.9c0-49,39.9-88.9,88.9-88.9s88.9,39.9,88.9,88.9
					C1679.5,1676.2,1639.6,1716.1,1590.6,1716.1z M1590.6,1550.5c-42.3,0-76.7,34.4-76.7,76.7c0,42.3,34.4,76.7,76.7,76.7
					c42.3,0,76.7-34.4,76.7-76.7C1667.3,1584.9,1632.9,1550.5,1590.6,1550.5z"/>
			</g>
			<g>
				<rect x="1572.9" y="1616.1" class="st4" width="35.2" height="5.6"/>
				<rect x="1572.9" y="1639.1" class="st4" width="35.2" height="5.6"/>
				<rect x="1564.6" y="1627.2" class="st4" width="51.8" height="5.6"/>
			</g>
		</g>
	</g>
	<g>
		<path class="st13" d="M1013.7,1244.9c0,0,2.8-6.2,4.6-9.2c1.8-3,9.5-11.6,10.8-9.6c1.3,2,6.5,15.1,3.7,18.8s0.2,10.1-13.6,14
			L1013.7,1244.9z"/>
		<path class="st14" d="M860.6,1205.5c0,0,70.6,58.9,98.1,53.4c21.5-4.3,54.5-15.6,54.5-15.6l6.6,16.9c0,0-29.6,40.2-60.5,40.4
			c-48.3,0.4-83.9-20.9-83.9-20.9L860.6,1205.5z"/>
		<path class="st15" d="M736.8,1826.8c0,0,2,33,8.4,33.5c0.9,0.1,32.4,0.1,32.4,0.1l40.3-0.2c0,0-0.3-9.7-12-11.8
			c-11.8-2.1-31.5-10.3-38.6-25.9C759.8,1806.1,736.8,1826.8,736.8,1826.8z"/>
		<path class="st16" d="M734.5,1829.1c0,0,12.3,4.1,21.8,4.1c10.7,0,20.4-2.9,20.4-2.9s2.3-22.3,15-71.5
			c6.7-25.8,16.2-58.9,29.7-100c37.4-113.8,48.8-180.3,49.8-186.6c0.1-0.3,0.1-0.5,0.1-0.5l-0.1-0.1l-114.9-50.5
			c0,0,14.2,156.8-3.9,217c-2.5,8.4-4.7,18.2-6.6,28.8C734.2,1732.3,734.5,1829.1,734.5,1829.1z"/>
		<path class="st17" d="M791.7,1758.8c6.7-25.8,16.2-58.9,29.7-100c37.4-113.8,48.8-180.3,49.8-186.6c0-0.2,0-0.4,0-0.6l-114.9-50.5
			c0,0,14.2,156.8-3.9,217C749.7,1646.5,791.7,1758.8,791.7,1758.8z"/>
		<path class="st15" d="M826.6,1826.8c0,0,2,33,8.4,33.5c0.9,0.1,32.4,0.1,32.4,0.1l40.3-0.2c0,0-0.3-9.7-12-11.8
			c-11.8-2.1-31.5-10.3-38.6-25.9C849.6,1806.1,826.6,1826.8,826.6,1826.8z"/>
		<path class="st16" d="M891.8,1424.9c0,0,1.5,101.6-16.1,226.3c-17.6,124.7-11.6,177.7-11.6,177.7s-12.1,3.9-17,4.3
			c-12.4,1-25.1-2.9-25.1-2.9s-25.2-124.8-17.9-187.2c7.2-62.4-34.5-214.3-34.5-214.3L891.8,1424.9z"/>
		<path class="st13" d="M810.3,1187.1l22.4,14.7l20.4-5.8c3.7-5.3,4.7-15.6,4.8-24.5c0.1-8.8-0.8-16.3-0.8-16.3l-30.3-13.4l-11.3-5
			c0,0.2,0.9,9.3,1,10.6C818.6,1171.1,810.3,1187.1,810.3,1187.1z"/>
		<path class="st10" d="M892.3,1453.1c-27.9,27-133.6,22.4-140.1-7.3c-6.5-29.7,7.1-252.9,54.8-266.9c9.9-2.9,62.8,14.2,62.8,14.2
			s8.3,21.7,13.8,49.4c1.1,5.4,4.1,62.4,6.5,115.8c1.1,25,2,49.1,2.5,66.8C892.8,1441.6,892.9,1452.5,892.3,1453.1z"/>
		<path class="st18" d="M818.8,1147.9c6.1,10.4,27.7,19.5,39.1,23.6c0.1-8.8-0.8-16.3-0.8-16.3l-30.3-13.4
			C820.1,1141.8,816.1,1143.3,818.8,1147.9z"/>
		<path class="st13" d="M868.5,1153.4c0,0-48.8,15.2-57.8-15.3c-9-30.5-21.4-49.1,9.4-60.1c30.8-11,40.3-1.2,45.8,8.3
			C871.4,1095.7,881,1148.6,868.5,1153.4z"/>
		<path class="st19" d="M864,1083.3c0,0-3.1,35.5-10.5,34c-7.3-1.5-15.4-4.8-14.4,5.9c1.1,10.7-7.1,29.1-17.7,29
			c-22.7-0.1-47.4-58.4-41.2-69.4C798.2,1050.9,889.9,1044.4,864,1083.3z"/>
		<path class="st14" d="M856.8,1179.7c-0.6-0.3-36.3-16.3-40.5-14.9c-4.2,1.4-9.4,14.1-9.4,14.1l62.8,14.2
			C869.8,1193.1,864.8,1183.1,856.8,1179.7z"/>
		<g>
			<path class="st20" d="M1078.9,1352.5l-200,188.3c-3.9,3.7-8.9,4.9-11,2.6l-6.8-7.2c-2.1-2.3-0.7-7.1,3.3-10.8l200-188.3
				c3.9-3.7,8.9-4.9,11-2.6l6.8,7.2C1084.3,1344,1082.8,1348.8,1078.9,1352.5z"/>
			<path class="st7" d="M966.7,1458.2l-87.8,82.6c-3.9,3.7-8.9,4.9-11,2.6l-6.8-7.2c-2.1-2.3-0.7-7.1,3.3-10.8l87.8-82.6
				L966.7,1458.2z"/>
			<path class="st20" d="M1033,1281.4c7.7,25.3,21.9,49,42.5,68.4c63.1,59.3,162.3,56.3,221.6-6.8c58.5-62.2,56.4-159.6-4.3-219.2
				c-0.8-0.8-1.6-1.6-2.5-2.4c-63-59.3-162.2-56.3-221.6,6.7C1028.8,1170.7,1017.1,1229.5,1033,1281.4z M1077.8,1136.8
				c34.5-36.7,83.7-51.3,129.9-43.3c26.9,4.7,52.8,17,74.2,37.1c58.1,54.6,60.9,146,6.2,204.1c-20.1,21.4-45.2,35.3-71.8,41.6
				c-45.6,10.8-95.6-0.8-132.3-35.3C1025.9,1286.2,1023.1,1194.8,1077.8,1136.8z"/>
			<g class="st5">
				<path class="st21" d="M1288.1,1334.6c-20.1,21.4-45.2,35.3-71.8,41.6c-45.6,10.8-95.6-0.8-132.3-35.3
					c-58.1-54.6-60.9-146-6.2-204.1c34.5-36.7,83.7-51.3,129.9-43.3c26.9,4.7,52.8,17,74.2,37.1
					C1339.9,1185.2,1342.7,1276.5,1288.1,1334.6z"/>
			</g>
		</g>
		<path class="st14" d="M892.4,1425.1c-110.2-78.5-101-183.3-101-183.3c40.3,22.7,80.2,72.9,98.6,116.5
			C891,1383.2,892,1407.4,892.4,1425.1z"/>
		<g>
			<path class="st13" d="M1001.2,1389.3c7.8-1.8,13-7.7,14.1-8.7c0,0,3.3,0.2-0.5,7.3c-0.3,0.6-1,2.1-1.6,3.2
				c-0.2,0.4,0.1,0.9,0.6,1c4.5,0.3,9-1.4,17.6,0.4c1.2,0.2,1.5,3.1,1.5,4.3c-0.1,2.1,0.1,4.4-2.3,7.5c-1.4,1.8-5.3,3.8-13.9,7.3
				c-3.3,1.3-12.7,0.3-21.5-2.7l-7.1-3.3l2.2-13.1l1.8,0.4C994.8,1393.5,998.3,1390,1001.2,1389.3z"/>
			<path class="st10" d="M825.6,1193.1c0,0-99,18.9,29.1,162.2c20.5,22.9,131.2,52.8,131.2,52.8s11.2-9.6,5.6-17.3
				c0,0-76.2-55.4-93-64.2c-7.5-4-29.3-88.4-41.6-108.7C844.6,1197.7,825.6,1193.1,825.6,1193.1z"/>
		</g>
		<path class="st13" d="M1016.4,1246.6c0,0,3.2-6.2,3.9-9.5c0.6-3.3,4.7-12.8,6.4-14.5c0.7-0.7,2.9,0.2,3.2,3.1
			c0.1,1.3-0.5,3.5-1.6,6.3c-1.8,4.4-1.5,10.4-2.1,12.4C1024.6,1249.5,1016.4,1246.6,1016.4,1246.6z"/>
	</g>
	<g>
		<path class="st9" d="M1343.5,1813.6c0,1.7,0.1,3.4,0.3,5c0.6,5.2,2.2,10.1,4.6,14.6c1.9,3.5,4.2,6.6,7,9.3
			c7.4,7.4,17.6,12,28.9,12h574.5c22.6,0,40.9-18.3,40.9-40.8c0-11.3-4.6-21.5-12-28.9c-7.4-7.4-17.6-12-28.9-12h-574.5
			C1361.8,1772.8,1343.5,1791.1,1343.5,1813.6z"/>
		<path class="st9" d="M1387.3,1765.4h197c3.4,0,6.3-2.8,6.3-6.3l0,0c0-3.4-2.8-6.3-6.3-6.3h-197c-3.4,0-6.3,2.8-6.3,6.3l0,0
			C1381,1762.6,1383.8,1765.4,1387.3,1765.4z"/>
		
			<rect x="1398.2" y="1765.4" transform="matrix(-1 -1.224647e-16 1.224647e-16 -1 2817.7065 3538.1553)" class="st22" width="21.4" height="7.4"/>
		<path class="st22" d="M1348.4,1833.2c1.9,3.5,4.2,6.6,7,9.3c7.4,7.4,17.6,12,28.9,12H1506v-21.3H1348.4z"/>
		<path class="st12" d="M2075.8,1801.7v23.9c0,2.6-0.4,5.2-1,7.6c-3.3,12.3-14.5,21.3-27.9,21.3h-598.5c-13.3,0-24.6-9-27.9-21.3
			c-0.7-2.4-1-5-1-7.6v-23.9c0-16,12.9-28.9,28.9-28.9h598.5C2062.8,1772.8,2075.8,1785.7,2075.8,1801.7z"/>
		<path class="st23" d="M2074.8,1833.2c-3.3,12.3-14.5,21.3-27.9,21.3h-598.5c-13.3,0-24.6-9-27.9-21.3H2074.8z"/>
		<g>
			<path class="st10" d="M2016.3,1813.8c0,12.7,4.6,24,11.9,31.5c0.2,0.2,0.3,0.3,0.5,0.5c5.6,5.6,12.7,9,20.5,9
				c12.1,0,42.1-18.3,60.8-30.4c9.3-6.1,15.7-10.6,15.7-10.6s-6.4-4.5-15.7-10.6c-18.6-12.1-48.6-30.4-60.8-30.4
				c-3.5,0-6.9,0.7-10.1,1.9c-5.3,2.1-10.1,6-13.9,10.9c-4.1,5.5-7.1,12.3-8.3,20c0,0.1,0,0.2,0,0.3
				C2016.5,1808.4,2016.3,1811.1,2016.3,1813.8z"/>
			<path class="st14" d="M2016.3,1813.8c0,12.7,4.6,24,11.9,31.5l92.1-31.7l-103.4-7.7C2016.5,1808.4,2016.3,1811.1,2016.3,1813.8z"
				/>
			<path class="st24" d="M2025.3,1785.7l91.9,25.1l-78-36C2033.8,1776.9,2029,1780.7,2025.3,1785.7z"/>
			<path class="st25" d="M2104,1813.8c0,4.9,2.5,9,6,10.6c9.3-6.1,15.7-10.6,15.7-10.6s-6.4-4.5-15.7-10.6
				C2106.5,1804.7,2104,1808.9,2104,1813.8z"/>
		</g>
	</g>
	<g>
		<path class="st19" d="M2266.9,1066.9c-15.2-7.9-27.4-2.9-27.4-2.9c-46.6-5.5-60.2,48.8-59.5,67.5c0.6,18.7,2.8,38.8-18,63
			c-60.1,70.1,65.7,73.2,65.7,73.2c1.1-56,68.2-35.6,65.3-29.9C2379.1,1258.5,2301.5,1084.8,2266.9,1066.9z"/>
		<path class="st13" d="M2087.3,1289.2c0,0-8.2-12.5-14.8-12.7c-6.6-0.2-18.8-3.7-17.8-1.2s8.6,2.7,9.3,4.2s-11.2,3.7-14.7,3.9
			c-3.4,0.2-11.5,0-11.2,1.7c0.2,1.7,14.5,8.8,24.6,7.8s22.6,2.9,22.6,2.9L2087.3,1289.2z"/>
		<path class="st16" d="M2205.7,1293.3c0,0-4.5,8.8-12.5,18.9c-9.7,12.2-24.7,26.3-43.6,29c-9,1.3-17.8-0.6-25.9-4.2c0,0,0,0,0,0
			c-22.9-10.2-40.1-33.5-40.1-33.5c-4-11,2.6-18.5,2.6-18.5s46.2,10.4,50.6,8.2c4.4-2.2,31.5-62.2,36.3-72.2
			c10.4-21.2,26.8-27.3,26.8-27.3L2205.7,1293.3z"/>
		<path class="st17" d="M2193.2,1312.2c-9.7,12.2-24.7,26.3-43.6,29c-9,1.3-17.8-0.6-25.9-4.2c0.9,0.1,23.7,2.9,32.9-13.4
			c9.3-16.6,19.3-43,33.1-34.2C2195.7,1293.3,2195.4,1302.7,2193.2,1312.2z"/>
		<path class="st15" d="M2378.1,1792c0,0,14.1,12.9,11.3,22c-2.8,9.1-15.5,15.2-17.2,26.4s-8.6,17.3-14.8,17.3c-6.2,0-29.5,0-29.5,0
			s-4.6-7.9,6.4-10.2c11-2.4,15.2-15.5,14.5-27.7c-0.7-12.2,1-28.4,1-28.4l23.4-5.4L2378.1,1792z"/>
		<path class="st15" d="M2258.8,1797.4c0,0,5.1,54.5-1.1,57.5l-79.2-0.2c0,0,0-9.1,12.7-11.2c12.7-2,35.1-9.5,38.9-26.1
			C2233.8,1801,2258.8,1797.4,2258.8,1797.4z"/>
		<path class="st16" d="M2319.7,1256.5c0,0,1.2,16.6,0,36.6c-0.8,13.2-14.2,31-16.1,35.4c-4.8,11-10.1,12.8-10.1,12.8l-41.6,10.2
			l-14.6,3.6l-46.1-13.8c0,0-21-58.6-12.6-91.6c8.4-33,21.3-55.9,21.3-55.9s31.3-12.3,86.6-3.1L2319.7,1256.5z"/>
		<path class="st26" d="M2307.5,1298.5c-0.8,13.2-2,25.6-3.9,29.9c-4.8,11-10.1,12.8-10.1,12.8l-41.6,10.2l-18.1-5.3
			c0,0,60.3-9.1,53.6-61L2307.5,1298.5z"/>
		<path class="st14" d="M2194.1,1350.1c0,0-22.8,71.1-24.3,95.3c-1.5,24.2,43.7,343.8,45.5,354.9c1.7,10.5,14.8,17.2,14.8,17.2
			s6,3.5,14.6,1.1c11.9-3.4,15.6-7.4,15.6-7.4s17.8-227.9,6.8-309.3c-11-81.4-11.1-151.8-11.1-151.8H2194.1z"/>
		<path class="st10" d="M2290.8,1348c0,0,34.8,46.7,38.1,78.3c3.2,31.6,5.1,142.6,12,173.4c6.9,30.8,32.3,90.1,32.3,186.1
			c0,0-2.6,5.5-10.8,8.4c-2.6,0.9-6.1,1.8-9.5,2.6c-6.7,1.5-13.6-1.7-16.7-7.9c-17.2-34.6-71.9-146.2-74.7-169.4
			c-2-16.4-19.3-124.9-57-188.6c-9.1-15.3,5.6-76.1,5.6-76.1L2290.8,1348z"/>
		<path class="st22" d="M2190.4,1339.2c0,0,9.2,7.3,27.4,7.6c21.8,0.4,75.7-5.5,75.7-5.5s2.4,6.7,2.3,13.8c0,0-65.8,16.6-104,2.4
			C2191.8,1357.4,2186.9,1348.2,2190.4,1339.2z"/>
		<g>
			<path class="st0" d="M2212.6,1365.5c-5.5,0-9.9-5-9.9-11.2c0-6.2,4.5-11.2,9.9-11.2c5.5,0,9.9,5,9.9,11.2
				C2222.5,1360.5,2218.1,1365.5,2212.6,1365.5z M2212.6,1346.4c-3.7,0-6.6,3.6-6.6,7.9c0,4.4,3,7.9,6.6,7.9c3.7,0,6.6-3.6,6.6-7.9
				C2219.2,1349.9,2216.3,1346.4,2212.6,1346.4z"/>
		</g>
		<path class="st9" d="M2357.4,1358.1l-53.5,46.5c-3.9,3.4-9.7,3-13.1-0.9l-68.2-78.3c-3.4-3.9-3-9.7,0.9-13.1l53.5-46.5
			c3.9-3.4,9.7-3,13.1,0.9l68.2,78.3C2361.6,1348.9,2361.2,1354.8,2357.4,1358.1z"/>
		<path class="st13" d="M2278.3,1352.2c-0.8,0.2-28.4,3.5-28.4,9.2c0,6.6,8.1,15.5,15.7,15c3.1-0.2,17.4-13.3,17.4-13.3
			L2278.3,1352.2z"/>
		<path class="st13" d="M2264.1,1187.6c-3.1-7.6-5-19.2-4.9-33.6l-2.1,0.4l-35.1,7c0,0,0.8,11,0.8,21.5c0,0.1,0,0.2,0,0.3
			c0,9-6.1,18.1,8.4,21.7C2235.7,1205.8,2270.7,1203.6,2264.1,1187.6z"/>
		<path class="st27" d="M2222,1161.3c0,0,0.8,11,0.8,21.5c19.6-0.6,30-18.5,34.3-28.4L2222,1161.3z"/>
		<path class="st13" d="M2215.4,1171.2c0,0,46.5,0.8,46.5-28.2c0-29,6.1-48.4-23.6-50.1s-35.5,9.3-37.8,19
			C2198.1,1121.6,2203.3,1170.2,2215.4,1171.2z"/>
		<path class="st19" d="M2217.1,1092.2c0,0,12.7,34,32.3,39s28-0.2,28-0.2s-15-11.9-18.1-32.7
			C2259.3,1098.3,2226.7,1076,2217.1,1092.2z"/>
		<path class="st19" d="M2220.3,1095c0,0-9.4,3.5-13.3,10.4c-3.8,6.7-7,15.6-6.3,26.6c0,0-9.6-23.1,1.2-36.1
			C2213.3,1082,2220.3,1095,2220.3,1095z"/>
		<path class="st13" d="M2278.3,1352.2c0,0-6.6-2.1-11-1.5c-4.4,0.6-7.7-0.1-7.7,1.2s5.7,1.8,6.9,2.4
			C2267.7,1354.9,2278.3,1352.2,2278.3,1352.2z"/>
		<path class="st16" d="M2286.5,1190.6c0,0,33,2.3,45.6,33.1s36.6,82.4,36.6,91s-13.4,35.5-85.4,50.8c0,0-7.4-7.8-7-14
			c0,0,44.9-38.6,44.8-43.1c-0.2-8.5-7.4-19.8-46.8-59.3C2263.7,1238.4,2286.5,1190.6,2286.5,1190.6z"/>
	</g>
	<g>
		<g>
			<path class="st22" d="M1169.9,276.6c0,0-26.5-4.5-43.3,8.2c-16.8,12.7-19.5,8.6-28.9,16.4c-9.5,7.8,0.2,17.2-5,22.4
				c-5.2,5.2-5.4,15.3,2.3,17.9c7.7,2.6,2.5,16.8,19.3,18.6c16.8,1.9,9.3,9.6,25.2,10.8c15.9,1.2,29.1,1.7,37.5,5.2
				c8.4,3.5,16-0.1,18.4-6.5c2.4-6.4,9.1,1.9,11.1-6.9c2-8.7-5-12.2-1.1-19.3C1209.2,336.4,1218.9,286.1,1169.9,276.6z"/>
			<path class="st13" d="M1215.7,784.6c-1.8,2.1-2,4.5-1.1,7c0,0,0,0,0,0c1.7,4.6,7.3,9.8,13.8,15c0.8,0.7,1.6,1.3,2.2,1.8
				c0.2,0.1,0.3,0.3,0.5,0.4c0.1,0.1,0.3,0.2,0.4,0.3c6.1,5.5,3.8,6.8,14.7,18c12.5,12.8,21,13,23.4,11.8c2-1-2.2-7.8-6.8-15.4
				c-0.2-0.4-0.4-0.7-0.7-1.1c-0.6-1-1.2-2-1.9-3.1c-5.5-9.2-4.1-13.5-2.9-27.3c1-11.2,16.9-62.5,16.9-62.5l-23.7-3.9
				c0,0-6.8,40.8-14.7,47.2c-4.2,3.4-8.9,3.5-12.9,6c-0.3,0.2-0.6,0.4-0.8,0.5C1219.8,780.9,1217.5,782.5,1215.7,784.6z"/>
			<path class="st22" d="M1215.7,784.6c-1.8,2.1-2,4.5-1.1,7c0,0,0,0,0,0c2.1,4.6,7.6,9.8,13.9,14.9c0.8,0.7,1.5,1.3,2.2,1.9
				c0.2,0.1,0.3,0.3,0.5,0.4c0.1,0.1,0.3,0.2,0.4,0.3c6.1,5.5,3.8,6.8,14.7,18c12.5,12.8,21,13,23.4,11.8c2-1-2.2-7.8-6.8-15.4
				c-2.4-0.9-13.6-5.3-22.2-16.1c-7.5-9.5-12.6-21.6-17.7-28.7c-0.3,0.2-0.6,0.4-0.8,0.5C1219.8,780.9,1217.5,782.5,1215.7,784.6z"
				/>
			<path class="st13" d="M1406.7,768.5c1.5,7.3,11.9,6,23.6,3.1c11.6-2.9,8.9,0.5,25.5-1.5c16.6-2,21.5-8.2,22-10.6
				c0.4-2.2-7.8-2.9-16.6-3.9c-1.1-0.1-2.2-0.2-3.3-0.4c-9.9-1.2-17.2-7.5-26.3-12.7c-8.6-4.9-21.5-25.1-21.5-25.1l-22.7,2
				c0,0,12.1,18,16.7,25.9c2.7,4.6,2.6,10.7,2.3,15.5C1406.3,763.3,1406.1,765.9,1406.7,768.5z"/>
			<path class="st22" d="M1430.2,771.6c11.6-2.9,8.9,0.5,25.5-1.5c16.6-2,21.5-8.2,22-10.6c0.4-2.2-7.8-2.9-16.6-3.9l-0.1,0.2
				c0,0-9.9,7.1-23.7,7.5c-11.2,0.4-23.2-2.8-31-2.6c-0.2,2.6-0.3,5.2,0.2,7.8C1408.2,775.8,1418.6,774.5,1430.2,771.6z"/>
			<path class="st28" d="M1318.5,623.7l-20.9,57.4l-27.2,74.9c0,0-7.5,0.8-14.8-1.2c-6.7-1.9-14.3-6.8-14.3-6.8s7.1-80.2,21.2-126.4
				c3.6-11.8,7.7-21.4,12.2-26.8C1296.8,568.1,1318.5,623.7,1318.5,623.7z"/>
			<path class="st12" d="M1296.3,533c-14-4.4-53.6,1.7-93.5,9.7l-8.5-13.7l-86.2-6.1c0,0-27,59.7-12.1,103.3
				c2.9,8.5,16.7,8.8,16.7,8.8c0,0,50.5,0.6,67.2,0.4c42.9-0.3,90.5-30.1,96.7-31.4c10.1-2.1,14.3,18.1,24.6,39.3
				c10.3,21.2,95.9,93.5,95.9,93.5s13.1,0,18.5-2c5.8-2.2,7.9-5.1,7.9-5.1S1327.7,542.9,1296.3,533z"/>
			<path class="st13" d="M1167.2,396.2c0.1,0.1-15.1,5.4-25.3,1c-9.6-4.2-17-19.9-16.8-19.9c4.4-0.2,9.1-4.1,12.6-29.1l1.9,0.7
				l31.3,11c0,0-2.2,10-3.6,19.6C1166,387.4,1165.4,395,1167.2,396.2z"/>
			<path class="st29" d="M1170.8,359.8c0,0-1.3,7-3.2,17.1c-18-3.1-25.5-18.4-28.1-28.1L1170.8,359.8z"/>
			<path class="st13" d="M1175.5,369.7c0,0-42.7-5.4-39-32c3.8-26.6,0.8-45.2,28.3-42.8c27.5,2.3,31.3,13.2,32.2,22.4
				C1197.9,326.5,1186.7,370.4,1175.5,369.7z"/>
			<path class="st22" d="M1195.4,302.7c0,0-27.2,23.8-45.8,25.8c-18.6,2-25.7-3.9-25.7-3.9s10.9-9.2,17.4-23.9
				c1.9-4.3,6-7.3,10.7-7.8C1165.3,291.7,1190.5,291,1195.4,302.7z"/>
			<path class="st22" d="M1178.3,300.8c0,0,9.2,8.8,12.1,15.3c2.8,6.3,3.8,21.4,1.6,27.5c0,0,14.1-27.8,5.9-41.2
				C1189.2,288.1,1178.3,300.8,1178.3,300.8z"/>
			<path class="st10" d="M1203.6,458.8c-0.7,86.5,0.1,68.4-9.3,76.7c-2.3,2-8.7,3.2-17.1,3.8c-26.5,1.9-73.1-2.1-74.9-7
				c-6.2-16.9-2-22.2-7.2-48.1c-0.6-2.8-1.2-5.7-2-9c-4.4-17.8-8.6-23.8,6.3-52.6c13.5-26,27.6-47.2,28.9-46.4
				c36.3,21.2,39,3.1,39,3.1S1203.9,416.6,1203.6,458.8z"/>
			<path class="st12" d="M1297.7,681.1l-27.2,74.9c0,0-7.5,0.8-14.8-1.2c-6.7-1.9-14.3-6.8-14.3-6.8s7.1-80.2,21.2-126.4
				L1297.7,681.1z"/>
			<path class="st10" d="M1167.2,379.3c0,0,37.2,6,41.7,22c4.5,16,30.8,109.8,30.8,109.8s-18.9,3.5-27.6-5.1
				c-8.8-8.7-30.9-80.7-30.9-80.7L1167.2,379.3z"/>
			<path class="st14" d="M1177.2,539.3c-26.5,1.9-73.1-2.1-74.9-7c-6.2-16.9-2-22.2-7.2-48.1l12.5-36.1c0,0-1.8,40.1,10.1,50.6
				c11.9,10.5,48.5,20,54.4,28.8C1174.8,531.7,1176.6,535.9,1177.2,539.3z"/>
			<path class="st13" d="M1146.7,522.6c0,0,26.1-6,30.3-3.7s14.6,10.7,15.9,13.6c1.3,2.9-9.4-2.2-12.9-3.1
				c-2.3-0.6-8.2,1.5-11.1,2.5c-12.3,4.2-19.9,2.1-19.9,2.1L1146.7,522.6z"/>
			<path class="st10" d="M1128.2,376.2c0,0-35.1,2.4-47.1,19.4c-16.9,24-50.2,125.9-30.6,139.4c22,15.1,99.7,3.3,99.7,3.3
				s2.5-12.1-1.1-17.9c-3.6-5.8-62.2-14.9-65-17.6c-2.7-2.7,33.4-52.9,33.3-61C1117.3,433.7,1128.2,376.2,1128.2,376.2z"/>
			<path class="st13" d="M1178.4,526.2c0,0,5.5,7,7.3,7.9s3,0.6,3,0.6l-3.7-6.6L1178.4,526.2z"/>
			<path class="st13" d="M1177.1,518.9l16,7.6c0,0-0.7,1.1-2.6,1c-2-0.1-6.9-1.9-6.9-1.9L1177.1,518.9z"/>
		</g>
		<g>
			<g>
				<polygon class="st22" points="1182.3,545.5 1308.3,544.6 1345.6,450 1219.7,450.9 				"/>
				<polygon class="st22" points="1309.8,540.9 1143.4,542.1 1143.4,545.7 1308.3,544.6 				"/>
			</g>
			<path class="st1" d="M1276.2,497.7c0.9-3.3-1-6-4.3-6c-3.3,0-6.8,2.7-7.7,6.1c-0.9,3.3,1,6,4.3,6
				C1271.8,503.7,1275.2,501,1276.2,497.7z"/>
		</g>
	</g>
	<path class="st30" d="M541.3,1854.2h92c4.9-4.2-3.4-13.7-12.1-14.3c-3.8-0.3-8.6,0.5-14,1.7c-1.3-16.8-8.5-92.4-35.7-89.3
		c-30.6,3.4,0,33.3,8.7,51c6.4,13.1,13.2,31.9,16.3,40.8c-2.5,0.5-5.1,1.1-7.7,1.6c-4.1-12.5-19.2-54.4-38.4-51.9
		c-22.6,2.9-13.5,19.7,2.5,29.6c11.7,7.3,26.1,17.8,33,22.8c-5.8,0.9-11.8,1.6-18,1.4C552,1847,544.3,1851.7,541.3,1854.2z"/>
	<path class="st30" d="M2531.6,1854h-101.7c-5.5-4.6,3.8-15.1,13.4-15.8c4.2-0.3,9.5,0.6,15.5,1.8c1.4-18.6,9.4-102.2,39.5-98.8
		c33.9,3.8,0,36.8-9.6,56.4c-7.1,14.5-14.6,35.3-18,45.1c2.8,0.6,5.6,1.2,8.5,1.7c4.5-13.8,21.2-60.2,42.4-57.5
		c24.9,3.2,14.9,21.8-2.8,32.8c-13,8.1-28.9,19.7-36.5,25.2c6.4,1,13.1,1.8,19.9,1.6C2519.8,1846.1,2528.3,1851.2,2531.6,1854z"/>
	<path class="st22" d="M2677.1,1861.4h-2290c-1.6,0-2.9-1.3-2.9-2.9v-1.8c0-1.6,1.3-2.9,2.9-2.9h2290c1.6,0,2.9,1.3,2.9,2.9v1.8
		C2680,1860.1,2678.7,1861.4,2677.1,1861.4z"/>
</g>
</svg>
