<?xml version="1.0" encoding="utf-8"?>
<!-- Generator: Adobe Illustrator 23.0.5, SVG Export Plug-In . SVG Version: 6.00 Build 0)  -->
<svg version="1.1" id="Capa_1" xmlns="http://www.w3.org/2000/svg" xmlns:xlink="http://www.w3.org/1999/xlink" x="0px" y="0px"
	 viewBox="0 0 768 768" style="enable-background:new 0 0 768 768;" xml:space="preserve">
<style type="text/css">
	.st0{fill:#0075C9;}
	.st1{fill:#3C3C3B;}
</style>
<g>
	<g>
		<g>
			<polygon class="st0" points="312.4,289.8 312.4,387.3 263.8,387.3 263.8,338.4 214.9,338.4 214.9,289.8 			"/>
			<polygon class="st0" points="263.8,387.3 214.9,436.2 166.1,436.2 166.1,338.4 214.9,338.4 214.9,387.3 			"/>
		</g>
		<g>
			<path class="st1" d="M352.6,304.8h15.9c10.3,0,15.8,3.5,15.8,12.5c0,8.7-5.3,12.9-15.8,12.9H363v8.3h-10.4V304.8z M367.5,323.1
				c4.8,0,6.5-1,6.5-5.5c0-4.4-1.5-5.7-6.5-5.7H363v11.2H367.5z"/>
			<path class="st1" d="M393.2,338.5h-10.1l12.7-33.6h12.6l12.5,33.6h-11l-2-6.3h-12.6L393.2,338.5z M403.5,318.7
				c-1-2.8-1.9-7.5-1.9-7.5s-0.9,4.6-1.9,7.5l-2.2,6.6h8L403.5,318.7z"/>
			<path class="st1" d="M424.6,304.8H435v26.3h15.5v7.4h-25.9V304.8z"/>
			<path class="st1" d="M462.5,338.5h-10.1l12.7-33.6h12.6l12.5,33.6h-11l-2-6.3h-12.6L462.5,338.5z M472.8,318.7
				c-1-2.8-1.9-7.5-1.9-7.5s-0.9,4.6-1.9,7.5l-2.2,6.6h8L472.8,318.7z"/>
			<path class="st1" d="M490.8,321.7c0-11.2,6-17.1,18.5-17.1c5.2,0,7.8,0.4,9.3,0.6v7.1c-1.3-0.2-3.8-0.4-8.2-0.4c-6.7,0-9,3-9,9.8
				s2.3,9.8,9,9.8c3.6,0,6.7-0.3,8.2-0.5v7.2c-1.4,0.2-4.9,0.6-9.4,0.6C496.9,338.8,490.8,332.9,490.8,321.7z"/>
			<path class="st1" d="M523.7,304.8h10.4v33.6h-10.4V304.8z"/>
			<path class="st1" d="M539.5,321.7c0-12.2,7.1-17.5,18-17.5c11,0,17.9,5.3,17.9,17.5c0,12.1-7,17.3-18,17.3
				C546.5,339,539.5,333.8,539.5,321.7z M564.9,321.7c0-8.2-2.4-10.3-7.4-10.3c-5,0-7.4,2.2-7.4,10.3c0,8,2.5,10.1,7.4,10.1
				C562.4,331.9,564.9,329.8,564.9,321.7z"/>
			<path class="st1" d="M579.5,337.9v-7.2c2,0.3,6.2,0.7,11.8,0.7c5.5,0,6.8-0.7,6.8-2.8c0-2.2-0.9-3-7.5-3
				c-9.1,0-12.1-3.4-12.1-10.3c0-6.6,2.8-10.7,15.8-10.7c6,0,10.2,0.4,12.1,0.7v7.2c-2.1-0.2-5.9-0.5-11.5-0.5c-5,0-6.3,0.6-6.3,2.9
				c0,2.4,1,2.8,7.7,2.8c9,0,12,3.3,12,10.1c0,7.2-2.8,11-16.1,11C586.3,338.8,581.6,338.3,579.5,337.9z"/>
		</g>
		<g>
			<path class="st1" d="M353.3,362.7c0-6.1,3.3-9.4,10.2-9.4c2.8,0,4.3,0.2,5.1,0.3v3.9c-0.7-0.1-2.1-0.2-4.5-0.2
				c-3.7,0-5,1.6-5,5.4s1.3,5.4,5,5.4c2,0,3.7-0.1,4.5-0.3v3.9c-0.8,0.1-2.7,0.3-5.2,0.3C356.7,372.1,353.3,368.9,353.3,362.7z"/>
			<path class="st1" d="M370.1,362.7c0-6.7,3.9-9.6,9.9-9.6c6,0,9.8,2.9,9.8,9.6c0,6.7-3.8,9.5-9.9,9.5
				C373.9,372.2,370.1,369.4,370.1,362.7z M384,362.8c0-4.5-1.3-5.7-4.1-5.7s-4,1.2-4,5.7c0,4.4,1.4,5.5,4.1,5.5
				C382.7,368.3,384,367.2,384,362.8z"/>
			<path class="st1" d="M392.5,353.5h5.9l5.1,8.7c0.8,1.4,1.6,3.5,1.6,3.5s-0.1-2.3-0.1-4.1v-8h4.9v18.4H404l-5.1-8.7
				c-0.8-1.5-1.6-3.5-1.6-3.5s0.1,2.1,0.1,4.1v8.2h-4.9V353.5z"/>
			<path class="st1" d="M412.9,371.6v-3.9c1.1,0.2,3.4,0.4,6.5,0.4c3,0,3.7-0.4,3.7-1.6c0-1.2-0.5-1.6-4.1-1.6c-5,0-6.6-1.9-6.6-5.7
				c0-3.6,1.6-5.8,8.7-5.8c3.3,0,5.6,0.2,6.6,0.4v3.9c-1.2-0.1-3.2-0.3-6.3-0.3c-2.8,0-3.5,0.3-3.5,1.6c0,1.3,0.5,1.6,4.2,1.6
				c4.9,0,6.6,1.8,6.6,5.5c0,4-1.6,6.1-8.8,6.1C416.6,372.1,414,371.8,412.9,371.6z"/>
			<path class="st1" d="M435.3,357.5h-5.6v-4h16.9v4H441v14.4h-5.7V357.5z"/>
			<path class="st1" d="M464.7,367.1l2.4,4.8h-5.9l-2.3-4.7c-0.6-1.3-1.1-1.6-2.5-1.6h-1.9v6.4h-5.7v-18.4h10c5.8,0,7.9,2.1,7.9,6
				c0,3-1.6,4.6-3.9,5.5C463.5,365.3,464.1,366,464.7,367.1z M457.8,362.1c2.4,0,3.2-0.6,3.2-2.6c0-1.9-0.8-2.5-3.1-2.5h-3.5v5
				H457.8z"/>
			<path class="st1" d="M469.2,364.4v-10.9h5.7v10.3c0,3.5,0.6,4.5,3.2,4.5c2.6,0,3.2-1,3.2-4.5v-10.3h5.7v10.9c0,5.6-3,7.8-9.1,7.8
				C472.2,372.2,469.2,370,469.2,364.4z"/>
			<path class="st1" d="M489.5,362.7c0-6.1,3.3-9.4,10.2-9.4c2.8,0,4.3,0.2,5.1,0.3v3.9c-0.7-0.1-2.1-0.2-4.5-0.2
				c-3.7,0-5,1.6-5,5.4s1.3,5.4,5,5.4c2,0,3.7-0.1,4.5-0.3v3.9c-0.8,0.1-2.7,0.3-5.2,0.3C492.8,372.1,489.5,368.9,489.5,362.7z"/>
			<path class="st1" d="M506.3,362.7c0-6.1,3.3-9.4,10.2-9.4c2.8,0,4.3,0.2,5.1,0.3v3.9c-0.7-0.1-2.1-0.2-4.5-0.2
				c-3.7,0-5,1.6-5,5.4s1.3,5.4,5,5.4c2,0,3.7-0.1,4.5-0.3v3.9c-0.8,0.1-2.7,0.3-5.2,0.3C509.6,372.1,506.3,368.9,506.3,362.7z"/>
			<path class="st1" d="M524.3,353.5h5.7v18.4h-5.7V353.5z"/>
			<path class="st1" d="M533,362.7c0-6.7,3.9-9.6,9.9-9.6c6,0,9.8,2.9,9.8,9.6c0,6.7-3.8,9.5-9.9,9.5
				C536.8,372.2,533,369.4,533,362.7z M546.9,362.8c0-4.5-1.3-5.7-4.1-5.7s-4,1.2-4,5.7c0,4.4,1.3,5.5,4.1,5.5
				C545.5,368.3,546.9,367.2,546.9,362.8z"/>
			<path class="st1" d="M555.4,353.5h5.9l5.1,8.7c0.8,1.4,1.6,3.5,1.6,3.5s-0.2-2.3-0.2-4.1v-8h4.9v18.4h-5.8l-5.1-8.7
				c-0.8-1.5-1.7-3.5-1.7-3.5s0.2,2.1,0.2,4.1v8.2h-4.9V353.5z"/>
			<path class="st1" d="M576.2,353.5h15.4v4H582v3.1h8.5v3.8H582v3.4h10v4h-15.7V353.5z"/>
			<path class="st1" d="M594.2,371.6v-3.9c1.1,0.2,3.4,0.4,6.5,0.4c3,0,3.7-0.4,3.7-1.6c0-1.2-0.5-1.6-4.1-1.6c-5,0-6.6-1.9-6.6-5.7
				c0-3.6,1.6-5.8,8.7-5.8c3.3,0,5.6,0.2,6.6,0.4v3.9c-1.2-0.1-3.2-0.3-6.3-0.3c-2.8,0-3.5,0.3-3.5,1.6c0,1.3,0.5,1.6,4.2,1.6
				c4.9,0,6.6,1.8,6.6,5.5c0,4-1.6,6.1-8.8,6.1C597.9,372.1,595.3,371.8,594.2,371.6z"/>
		</g>
	</g>
</g>
</svg>
