<?xml version="1.0" encoding="utf-8"?>
<!-- Generator: Adobe Illustrator 23.0.5, SVG Export Plug-In . SVG Version: 6.00 Build 0)  -->
<svg version="1.1" xmlns="http://www.w3.org/2000/svg" xmlns:xlink="http://www.w3.org/1999/xlink" x="0px" y="0px"
	 viewBox="0 0 2500 2500" style="enable-background:new 0 0 2500 2500;" xml:space="preserve">
<style type="text/css">
	.st0{fill:#FFFFFF;}
	.st1{fill:#EFEFF4;}
	.st2{opacity:0.3;}
	.st3{fill:#D7D9E0;}
	.st4{fill:#C6C9D3;}
	.st5{fill:#A8ABB2;}
	.st6{fill:#333435;}
	.st7{fill:url(#SVGID_1_);}
	.st8{fill:#74767B;}
	.st9{opacity:0.16;}
	.st10{opacity:0.68;}
	.st11{fill:#B9BCC5;}
	.st12{fill:#979AA0;}
	.st13{opacity:0.85;fill:#FFFFFF;}
	.st14{fill:url(#SVGID_2_);}
	.st15{fill:url(#SVGID_3_);}
	.st16{fill:url(#SVGID_4_);}
	.st17{fill:#F7E057;}
	.st18{fill:url(#SVGID_5_);}
	.st19{fill:url(#SVGID_6_);}
	.st20{fill:url(#SVGID_7_);}
	.st21{fill:url(#SVGID_8_);}
	.st22{fill:url(#SVGID_9_);}
	.st23{fill:url(#SVGID_10_);}
	.st24{fill:#E5B731;}
	.st25{opacity:0.57;fill:#FFFFFF;}
	.st26{fill:#48494B;}
	.st27{opacity:0.77;}
</style>
<g id="Background">
	<rect class="st0" width="2500" height="2500"/>
</g>
<g id="Illustration">
	<g>
		<path class="st1" d="M1936.4,1897.5c-36.6,38.6-71.3,63.4-98.6,83.1c-321.8,230.9-702.6,163.6-783.5,147.2
			c-119.5-24.3-350.5-71.2-517.5-267.6C284.2,1563,323.5,1094.9,519.5,785.9c35.8-56.5,225.2-370.2,610.1-420.5
			c232.9-30.4,504.4,31,701,195.7C2243.3,906.8,2213.9,1605.3,1936.4,1897.5z"/>
		<g>
			<g>
				<g class="st2">
					<path class="st3" d="M1668.6,531.1c-2-2-2.2-5.3-0.3-7.6c4.1-5,8.4-9.8,13-14.4c2.2-2.2,5.8-2.3,8-0.1c0,0,0.1,0.1,0.1,0.1
						c2.2,2.2,2.2,5.7,0,8c-4.3,4.4-8.4,9-12.3,13.7c-2,2.4-5.6,2.8-8,0.8C1668.9,531.3,1668.8,531.2,1668.6,531.1z M1704.2,496.6
						c-0.2-0.2-0.3-0.3-0.4-0.5c-1.9-2.5-1.5-6.1,1-8c5.1-4,10.4-7.7,15.8-11.2c2.6-1.7,6.1-1,7.9,1.7c1.7,2.6,1,6.2-1.7,7.9
						c-5.1,3.3-10.2,6.9-15,10.7C1709.4,498.9,1706.2,498.6,1704.2,496.6z M1746.4,470.8c-0.4-0.5-0.8-1-1.1-1.6
						c-1.3-2.8-0.1-6.2,2.8-7.6c5.8-2.7,11.9-5.2,17.9-7.4c3-1.1,6.2,0.4,7.3,3.4c1.1,2.9-0.4,6.2-3.4,7.3c-5.7,2.1-11.5,4.5-17,7
						C1750.6,473,1748.1,472.4,1746.4,470.8z M1793.4,455.1c-0.7-0.7-1.3-1.7-1.5-2.8c-0.7-3.1,1.3-6.1,4.4-6.7
						c6.3-1.3,12.7-2.4,19.1-3.2c3.1-0.4,6,1.8,6.3,4.9c0.4,3.1-1.8,6-4.9,6.3c-6.1,0.8-12.2,1.8-18.2,3.1
						C1796.7,457.1,1794.7,456.4,1793.4,455.1z M1842.7,450.2c-1-1-1.7-2.5-1.6-4.1c0-3.1,2.6-5.6,5.8-5.6
						c6.4,0.1,12.9,0.5,19.3,1.1c3.1,0.3,5.4,3.1,5.1,6.2c-0.3,3.1-3.1,5.4-6.2,5.1c-6.1-0.6-12.3-1-18.4-1
						C1845.1,451.9,1843.7,451.3,1842.7,450.2z M1891.8,456.4c-1.3-1.4-2-3.3-1.5-5.3c0.7-3.1,3.8-4.9,6.9-4.2
						c6.3,1.5,12.5,3.3,18.6,5.3c3,1,4.6,4.2,3.6,7.2c-1,3-4.2,4.6-7.2,3.6c-5.8-1.9-11.8-3.6-17.7-5.1
						C1893.5,457.7,1892.5,457.2,1891.8,456.4z M2047.6,595.4c-0.6-0.6-1-1.2-1.3-2c-2.1-5.7-4.5-11.5-7.1-17
						c-1.3-2.8-0.1-6.2,2.7-7.6c2.8-1.3,6.2-0.1,7.6,2.7c2.7,5.8,5.2,11.9,7.4,17.9c1.1,2.9-0.4,6.2-3.4,7.3
						C2051.4,597.5,2049.1,596.9,2047.6,595.4z M1938.3,473.3c-1.7-1.7-2.1-4.3-1-6.5c1.4-2.8,4.8-4,7.6-2.6c5.8,2.9,11.5,6,17,9.4
						c2.7,1.6,3.5,5.1,1.9,7.8c-1.6,2.7-5.1,3.5-7.8,1.9c-5.2-3.2-10.6-6.2-16.1-8.9C1939.3,474.1,1938.8,473.8,1938.3,473.3z
						 M2025.4,551.1c-0.3-0.3-0.5-0.6-0.7-0.9c-3.3-5.1-6.9-10.2-10.7-15c-1.9-2.5-1.5-6,1-8c2.5-1.9,6.1-1.5,8,1
						c4,5.1,7.7,10.4,11.3,15.8c1.7,2.6,1,6.2-1.7,7.9C2030.3,553.3,2027.3,553,2025.4,551.1z M1979.9,500.2c-2-2-2.2-5.3-0.3-7.6
						c2-2.4,5.6-2.8,8-0.8c5,4.1,9.8,8.4,14.4,12.9c0,0,0.1,0.1,0.1,0.1c2.2,2.2,2.2,5.7,0,8c-2.2,2.2-5.8,2.3-8,0.1
						c-4.4-4.3-9-8.4-13.7-12.3C1980.2,500.5,1980,500.4,1979.9,500.2z"/>
					<path class="st3" d="M2057.9,633.9c-0.8-0.8-1.3-1.8-1.5-3c-0.5-2.9-1.1-5.8-1.7-8.7c-0.7-3.1,1.3-6.1,4.4-6.7
						c3.1-0.7,6.1,1.3,6.7,4.4c0.6,3,1.2,6.1,1.8,9.2c0.5,3.1-1.5,6-4.6,6.6C2061,635.9,2059.1,635.2,2057.9,633.9z"/>
				</g>
				<g class="st2">
					<path class="st3" d="M2018.2,802.6c-1.9-2-2.2-5.1-0.5-7.4c1.7-2.4,3.5-4.8,5.1-7.2c1.8-2.6,5.3-3.3,7.9-1.5
						c2.6,1.8,3.3,5.3,1.5,7.9c-1.7,2.6-3.5,5.1-5.4,7.6c-1.9,2.5-5.4,3.1-7.9,1.2C2018.6,803,2018.4,802.8,2018.2,802.6z"/>
					<path class="st3" d="M1682.1,827c-1.8-1.9-3.6-3.8-5.4-5.7c-2.1-2.3-2-5.9,0.3-8c2.3-2.1,5.9-2,8,0.3
						c4.1,4.5,8.4,8.8,12.8,12.8c2.3,2.1,2.5,5.7,0.3,8c-2.1,2.3-5.7,2.5-8,0.3C1687.5,832.3,1684.8,829.7,1682.1,827z
						 M1657.9,797.9c-0.2-0.2-0.4-0.5-0.6-0.7c-3.6-5.2-7.1-10.6-10.2-16.1c-1.6-2.7-0.6-6.2,2.1-7.8c2.7-1.6,6.2-0.6,7.8,2.1
						c3,5.2,6.3,10.3,9.7,15.3c1.8,2.6,1.2,6.1-1.4,7.9C1662.9,800.2,1659.8,799.8,1657.9,797.9z M1713.5,853.5
						c-1.9-1.9-2.2-4.9-0.6-7.2c1.8-2.6,5.3-3.2,7.9-1.4c4.9,3.4,10.1,6.7,15.3,9.7c2.7,1.6,3.7,5,2.1,7.8c-1.6,2.7-5,3.7-7.8,2.1
						c-5.5-3.2-10.9-6.6-16.1-10.2C1714.1,854,1713.8,853.7,1713.5,853.5z M1634.7,755.1c-0.5-0.5-0.9-1.1-1.2-1.8
						c-2.4-5.9-4.6-11.9-6.4-18c-0.9-3,0.7-6.2,3.7-7.1c3-0.9,6.2,0.7,7.1,3.7c1.8,5.7,3.8,11.5,6.1,17c1.2,2.9-0.2,6.2-3.1,7.4
						C1638.7,757.3,1636.2,756.7,1634.7,755.1z M1756.4,876.7c-1.5-1.6-2.1-4-1.2-6.1c1.2-2.9,4.5-4.3,7.4-3.1
						c5.6,2.3,11.3,4.3,17.1,6.1c3,0.9,4.7,4.1,3.7,7.1c-0.9,3-4.1,4.7-7.1,3.7c-6.1-1.9-12.1-4-18-6.4
						C1757.5,877.7,1756.9,877.2,1756.4,876.7z M1803.3,889.9c-1.2-1.3-1.9-3.1-1.6-4.9c0.5-3.1,3.4-5.2,6.5-4.7
						c5.9,1,12,1.7,18,2.2c3.1,0.3,5.5,3,5.2,6.1c-0.3,3.1-3,5.5-6.1,5.2c-6.3-0.5-12.7-1.3-18.9-2.3
						C1805.1,891.3,1804.1,890.7,1803.3,889.9z M1851.9,892.6c-0.9-1-1.5-2.2-1.6-3.7c-0.2-3.1,2.2-5.8,5.4-6c6-0.3,12.1-0.9,18-1.7
						c3.1-0.4,6,1.7,6.4,4.8c0.4,3.1-1.7,6-4.8,6.4c-6.3,0.9-12.7,1.5-19,1.8C1854.6,894.4,1853,893.7,1851.9,892.6z M1900,884.6
						c-0.6-0.7-1.1-1.5-1.4-2.4c-0.9-3,0.9-6.2,3.9-7c5.8-1.6,11.6-3.5,17.2-5.7c2.9-1.1,6.2,0.4,7.3,3.3c1.1,2.9-0.4,6.2-3.3,7.3
						c-5.9,2.2-12,4.2-18.1,6C1903.5,886.7,1901.4,886,1900,884.6z M1945.1,866.3c-0.4-0.4-0.7-0.8-0.9-1.3
						c-1.5-2.8-0.5-6.2,2.3-7.7c5.3-2.9,10.5-6,15.5-9.3c2.6-1.7,6.2-1,7.9,1.6c1.7,2.6,1,6.1-1.6,7.9c-5.3,3.5-10.8,6.8-16.4,9.8
						C1949.6,868.5,1946.9,868,1945.1,866.3z M1985.1,838.5c-0.1-0.1-0.2-0.2-0.2-0.3c-2.1-2.4-1.8-6,0.6-8c3.3-2.9,6.6-6,9.8-9.1
						c1.1-1.1,2.3-2.3,3.4-3.4c2.2-2.3,5.8-2.3,8-0.1c2.3,2.2,2.3,5.8,0.1,8c-1.2,1.2-2.4,2.4-3.6,3.6c-3.3,3.3-6.8,6.5-10.3,9.5
						C1990.6,840.7,1987.2,840.6,1985.1,838.5z"/>
					<path class="st3" d="M1621.4,708.1c-0.8-0.8-1.4-1.9-1.6-3.1c-0.5-3-1-6.1-1.3-9.2c-0.4-3.1,1.8-6,4.9-6.3
						c3.1-0.4,6,1.8,6.3,4.9c0.4,2.9,0.8,5.9,1.3,8.8c0.5,3.1-1.6,6-4.7,6.5C1624.4,710,1622.6,709.3,1621.4,708.1z"/>
				</g>
				<g>
					<path class="st3" d="M1673.7,667.3c-0.1,1.1,0.5,2.2,1.5,2.7l29.2,13.8c1.8,15,6.1,29.8,12.8,43.8l-17.2,27.3
						c-0.6,1-0.5,2.2,0.2,3.1l24.3,30.2c0.7,0.9,1.9,1.2,3,0.8l30.4-10.9c12.2,9.6,25.8,16.9,40,21.9l7.2,31.5
						c0.3,1.1,1.2,1.9,2.3,2.1l38.6,4.2c1.1,0.1,2.2-0.5,2.7-1.5l13.8-29.2c15-1.8,29.8-6.1,43.8-12.8l27.3,17.2
						c1,0.6,2.2,0.5,3.1-0.2l30.2-24.3c0.9-0.7,1.2-1.9,0.8-3l-10.9-30.4c9.6-12.2,16.9-25.8,21.9-40l31.5-7.2
						c1.1-0.3,1.9-1.2,2.1-2.3l4.2-38.6c0.1-1.1-0.5-2.2-1.5-2.7l-29.2-13.8c-1.8-15-6.1-29.8-12.8-43.8l17.2-27.3
						c0.6-1,0.5-2.2-0.2-3.1l-24.3-30.2c-0.7-0.9-1.9-1.2-3-0.8l-30.4,10.9c-12.2-9.6-25.8-16.9-40-21.9l-7.2-31.5
						c-0.3-1.1-1.2-1.9-2.3-2.1l-38.6-4.2c-1.1-0.1-2.2,0.5-2.7,1.5l-13.8,29.2c-15,1.8-29.8,6.1-43.8,12.8l-27.3-17.2
						c-1-0.6-2.2-0.5-3.1,0.2l-30.2,24.3c-0.9,0.7-1.2,1.9-0.8,3l10.9,30.4c-9.6,12.2-16.9,25.8-21.9,40l-31.5,7.2
						c-1.1,0.3-1.9,1.2-2.1,2.3L1673.7,667.3z"/>
					<path class="st1" d="M1817.3,693.8c-13.3-13.5-15.1-35.2-3.3-50.8c13-17.2,37.5-20.6,54.6-7.6c8.3,6.3,13.7,15.4,15.1,25.7
						c1.4,10.3-1.2,20.6-7.5,28.9c-13,17.2-37.5,20.6-54.6,7.6C1820.1,696.4,1818.6,695.1,1817.3,693.8z M1866.5,645.5
						c-1-1-2.1-2-3.3-2.9c-13.2-9.9-31.9-7.3-41.9,5.8c-9.9,13.2-7.3,31.9,5.8,41.9c13.2,9.9,31.9,7.3,41.9-5.8
						c4.8-6.4,6.9-14.2,5.8-22.1C1873.8,655.9,1870.9,650.1,1866.5,645.5z"/>
					<path class="st1" d="M1777.8,733.9c-2.3-2.3-4.5-4.8-6.5-7.4l0,0c-0.7-0.8-1.3-1.6-1.9-2.5c-3.1-4.1-5.8-8.5-8.2-13
						c0-0.1-0.1-0.1-0.1-0.2c-0.1-0.2-0.2-0.4-0.3-0.5c-0.2-0.3-0.4-0.7-0.5-1c-0.5-0.9-0.2-2,0.4-2.6c0.2-0.2,0.4-0.3,0.6-0.4
						c1.1-0.6,2.5-0.1,3,1c2.9,5.8,6.4,11.3,10.5,16.4c20.3,25.2,51.3,36.8,81.3,33.6c16.7-1.8,33.1-8.3,47.1-19.5
						c2.5-2,4.8-4.1,7-6.2c14.9-14.7,24.3-33.9,26.6-55c2.6-24.2-4.3-48.1-19.6-67.1c-31.5-39.3-89.1-45.5-128.4-14
						c-2.4,1.9-4.7,4-6.9,6.2c-9.5,9.4-16.9,20.7-21.5,33.3c-0.1,0.3-0.3,0.6-0.5,0.8c-0.6,0.6-1.5,0.8-2.4,0.5
						c-1.2-0.4-1.8-1.7-1.3-2.9c4.9-13.2,12.6-25.1,22.6-34.9c2.3-2.3,4.7-4.4,7.3-6.5c41.2-33.1,101.7-26.5,134.8,14.7
						c16,20,23.3,45,20.6,70.4c-2.4,22.2-12.2,42.3-27.9,57.8c-2.3,2.3-4.8,4.5-7.4,6.6c-20,16-45,23.3-70.4,20.6
						C1813.4,759.4,1793.2,749.5,1777.8,733.9z"/>
				</g>
			</g>
			<g>
				<g class="st2">
					<path class="st3" d="M1395.8,448.3c-1.2-1.2-1.5-3.1-0.6-4.6c1.6-2.9,3.3-5.8,5.1-8.6c1.2-1.8,3.6-2.3,5.4-1.2
						c1.8,1.1,2.3,3.6,1.2,5.4c-1.7,2.7-3.3,5.4-4.9,8.2c-1,1.9-3.4,2.6-5.3,1.5C1396.3,448.8,1396,448.6,1395.8,448.3z"/>
					<path class="st3" d="M1412.7,423.6c-1.4-1.4-1.5-3.7-0.2-5.2c3.6-4.4,7.5-8.6,11.6-12.6c0.9-0.8,1.7-1.7,2.6-2.5
						c1.6-1.5,4-1.3,5.5,0.2c1.5,1.6,1.4,4-0.2,5.5c-0.8,0.8-1.7,1.6-2.5,2.4c-3.9,3.8-7.6,7.9-11,12c-1.4,1.7-3.8,1.9-5.5,0.5
						C1412.9,423.8,1412.8,423.7,1412.7,423.6z M1442.1,395.9c-0.1-0.1-0.3-0.3-0.4-0.4c-1.3-1.7-0.9-4.2,0.8-5.4
						c5.6-4.1,11.4-7.9,17.4-11.2c1.9-1.1,4.2-0.4,5.3,1.5c1.1,1.9,0.4,4.2-1.5,5.3c-5.7,3.2-11.3,6.8-16.6,10.7
						C1445.6,397.4,1443.4,397.2,1442.1,395.9z M1477.3,376.1c-0.3-0.4-0.6-0.8-0.8-1.3c-0.8-2,0.1-4.3,2.1-5.1
						c6.4-2.6,13-4.8,19.6-6.6c2.1-0.6,4.2,0.7,4.8,2.7c0.6,2.1-0.7,4.2-2.7,4.8c-6.3,1.7-12.6,3.8-18.7,6.3
						C1480,377.6,1478.4,377.2,1477.3,376.1z M1516.3,365.6c-0.6-0.6-1-1.3-1.1-2.2c-0.3-2.1,1.2-4.1,3.3-4.4
						c6.8-1,13.8-1.5,20.7-1.6c2.1,0,3.9,1.7,4,3.8c0,2.1-1.7,3.9-3.8,4c-6.6,0.1-13.2,0.6-19.7,1.5
						C1518.3,366.9,1517.1,366.4,1516.3,365.6z M1556.7,364.9c-0.8-0.8-1.2-1.9-1.1-3.1c0.2-2.1,2.1-3.7,4.3-3.5
						c6.8,0.7,13.7,1.9,20.4,3.5c2.1,0.5,3.4,2.6,2.9,4.7c-0.5,2.1-2.6,3.4-4.7,2.9c-6.4-1.5-12.9-2.6-19.5-3.3
						C1558.1,366,1557.3,365.6,1556.7,364.9z M1596,374.1c-1-1-1.4-2.6-0.9-4.1c0.7-2,3-3,5-2.3c6.5,2.4,12.8,5.2,19,8.3
						c1.9,1,2.7,3.3,1.7,5.2c-1,1.9-3.3,2.7-5.2,1.7c-5.8-3-11.9-5.7-18.1-7.9C1596.9,374.8,1596.4,374.5,1596,374.1z M1631.9,392.6
						c-1.3-1.3-1.5-3.4-0.4-4.9c1.2-1.8,3.6-2.2,5.4-1c5.7,3.9,11.2,8.2,16.3,12.7c1.6,1.5,1.8,3.9,0.3,5.5
						c-1.4,1.6-3.9,1.8-5.5,0.3c-4.9-4.4-10.2-8.4-15.6-12.1C1632.3,392.9,1632.1,392.8,1631.9,392.6z M1674.6,435.3
						c-0.2-0.2-0.3-0.3-0.4-0.5c-3.2-4.7-6.7-9.3-10.5-13.6c-0.6-0.7-1.1-1.3-1.7-1.9c-1.4-1.6-1.3-4.1,0.3-5.5
						c1.6-1.4,4.1-1.3,5.5,0.3c0.6,0.7,1.2,1.4,1.8,2.1c3.9,4.6,7.6,9.4,11,14.3c1.2,1.8,0.8,4.2-1,5.4
						C1678,436.8,1675.9,436.6,1674.6,435.3z"/>
				</g>
				<g class="st2">
					<path class="st3" d="M1423.9,644.9c-1.5-1.5-1.5-4,0-5.5c1.5-1.5,4-1.5,5.5,0c4.6,4.6,9.5,8.9,14.6,12.8c1.7,1.3,2,3.8,0.7,5.5
						c-1.3,1.7-3.8,2-5.5,0.7C1433.9,654.3,1428.8,649.8,1423.9,644.9C1423.9,645,1423.9,645,1423.9,644.9z M1410.6,630.1
						c-0.1-0.1-0.2-0.2-0.3-0.3c-4.2-5.3-8.1-10.9-11.7-16.7c-1.1-1.8-0.6-4.2,1.3-5.4c1.8-1.1,4.2-0.5,5.4,1.3
						c3.4,5.5,7.1,10.9,11.1,15.9c1.3,1.7,1.1,4.1-0.6,5.5C1414.2,631.7,1412,631.5,1410.6,630.1z M1455.3,669.3
						c-1.2-1.2-1.5-3.2-0.6-4.7c1.1-1.8,3.5-2.5,5.3-1.4c5.6,3.3,11.4,6.3,17.3,8.9c2,0.9,2.9,3.2,2,5.1c-0.9,2-3.2,2.9-5.1,2
						c-6.2-2.7-12.3-5.9-18.1-9.3C1455.8,669.7,1455.5,669.5,1455.3,669.3z M1389.9,596.2c-0.3-0.3-0.6-0.7-0.8-1.1
						c-2.8-6.2-5.3-12.6-7.3-19c-0.6-2,0.5-4.2,2.5-4.9c2-0.6,4.2,0.5,4.9,2.5c1.9,6.2,4.3,12.3,7,18.1c0.9,2,0,4.3-1.9,5.2
						C1392.7,597.7,1391,597.4,1389.9,596.2z M1491.7,685.3c-1-1-1.4-2.4-1-3.9c0.6-2.1,2.8-3.2,4.8-2.6c6.2,1.9,12.5,3.4,18.9,4.5
						c2.1,0.4,3.5,2.4,3.2,4.5c-0.4,2.1-2.4,3.5-4.5,3.2c-6.7-1.2-13.3-2.7-19.8-4.7C1492.7,686.1,1492.1,685.7,1491.7,685.3z
						 M1530.8,692.1c-0.7-0.8-1.2-1.8-1.1-2.9c0.1-2.1,1.9-3.8,4.1-3.7c6.5,0.3,13,0.3,19.4-0.2c2.1-0.1,4,1.5,4.1,3.6
						c0.1,2.1-1.5,4-3.6,4.1c-6.7,0.5-13.6,0.5-20.4,0.2C1532.4,693.2,1531.5,692.8,1530.8,692.1z M1570.5,689.3
						c-0.5-0.5-0.9-1.2-1-2c-0.4-2.1,1-4.2,3.1-4.6c6.4-1.2,12.7-2.8,18.8-4.8c2-0.7,4.2,0.5,4.9,2.5c0.7,2-0.5,4.2-2.5,4.9
						c-6.4,2.1-13.1,3.8-19.7,5.1C1572.6,690.7,1571.3,690.2,1570.5,689.3z"/>
					<path class="st3" d="M1377.8,558.1c-0.5-0.5-0.9-1.2-1.1-2c-0.6-3.3-1.1-6.6-1.5-9.8c-0.3-2.1,1.2-4.1,3.4-4.3
						c2.1-0.3,4.1,1.3,4.3,3.4c0.4,3.1,0.9,6.3,1.4,9.4c0.4,2.1-1,4.1-3.1,4.5C1380,559.5,1378.7,559,1377.8,558.1z"/>
				</g>
				<g>
					<path class="st3" d="M1415.9,525.2c-0.1,0.8,0.4,1.6,1.1,2l21.7,10.2c1.4,11.1,4.5,22.1,9.5,32.5l-12.8,20.3
						c-0.4,0.7-0.4,1.6,0.1,2.3l18,22.4c0.5,0.7,1.4,0.9,2.2,0.6l22.6-8.1c9.1,7.1,19.1,12.5,29.7,16.3l5.3,23.4
						c0.2,0.8,0.9,1.4,1.7,1.5l28.6,3.1c0.8,0.1,1.6-0.4,2-1.1l10.2-21.7c11.1-1.4,22.1-4.5,32.5-9.5l20.3,12.8
						c0.7,0.4,1.6,0.4,2.3-0.1l22.4-18c0.7-0.5,0.9-1.4,0.6-2.2l-8.1-22.6c7.1-9.1,12.5-19.1,16.3-29.7l23.4-5.3
						c0.8-0.2,1.4-0.9,1.5-1.7l3.1-28.6c0.1-0.8-0.4-1.6-1.1-2l-21.7-10.2c-1.4-11.1-4.5-22.1-9.5-32.5l12.8-20.3
						c0.4-0.7,0.4-1.6-0.1-2.3l-18-22.4c-0.5-0.7-1.4-0.9-2.2-0.6l-22.6,8.1c-9.1-7.1-19.1-12.5-29.7-16.3l-5.3-23.4
						c-0.2-0.8-0.9-1.4-1.7-1.5l-28.6-3.1c-0.8-0.1-1.6,0.4-2,1.1l-10.2,21.7c-11.1,1.4-22.1,4.5-32.5,9.5l-20.3-12.8
						c-0.7-0.4-1.6-0.4-2.3,0.1l-22.4,18c-0.7,0.5-0.9,1.4-0.6,2.2l8.1,22.6c-7.1,9.1-12.5,19.1-16.3,29.7l-23.4,5.3
						c-0.8,0.2-1.4,0.9-1.5,1.7L1415.9,525.2z"/>
					<path class="st1" d="M1522,545.2c-4.4-4.5-7.2-10.2-8.1-16.5c-1.1-7.8,0.9-15.5,5.7-21.8c9.8-12.9,28.3-15.5,41.2-5.7
						c12.9,9.8,15.5,28.3,5.7,41.2c-4.7,6.3-11.6,10.3-19.4,11.4c-7.8,1.1-15.5-0.9-21.8-5.7C1524.1,547.2,1523,546.2,1522,545.2z
						 M1558.5,509.4c-0.7-0.7-1.5-1.4-2.4-2.1c-9.5-7.2-23.1-5.3-30.3,4.2c-3.5,4.6-5,10.3-4.2,16c0.8,5.7,3.8,10.8,8.4,14.3l0,0
						c4.6,3.5,10.3,5,16,4.2c5.7-0.8,10.8-3.8,14.3-8.4C1566.9,529,1565.9,516.9,1558.5,509.4z"/>
					<path class="st1" d="M1491.5,576.1c-1.7-1.8-3.4-3.6-5-5.6c-3.1-3.9-5.9-8.1-8.1-12.5c-0.1-0.2-0.2-0.4-0.3-0.6
						c-0.8-1.5-0.4-3.4,0.7-4.5c0.3-0.3,0.6-0.5,1-0.7c1.9-1,4.3-0.2,5.2,1.7c2.1,4.2,4.6,8.1,7.5,11.7l0,0c0.2,0.2,0.3,0.4,0.5,0.6
						c7,8.5,15.8,15,25.8,19.1c5.4,2.2,11.1,3.7,17.1,4.4c0,0,0.1,0,0.1,0c0.1,0,0.3,0,0.4,0c17.4,1.9,34.5-3.1,48.1-14
						c1.8-1.4,3.4-2.9,5-4.5c10.7-10.5,17.4-24.3,19.1-39.5c1.9-17.4-3.1-34.5-14-48.1c-11-13.6-26.6-22.2-44-24.1
						c-17.4-1.9-34.5,3.1-48.1,14c-1.7,1.4-3.4,2.9-5,4.4c-6.8,6.7-12.1,14.9-15.4,23.9c-0.2,0.6-0.5,1-0.9,1.4
						c-1,1-2.6,1.4-4.1,0.9c-2-0.8-3-3-2.3-5c3.7-10.1,9.6-19.2,17.3-26.7c1.8-1.7,3.6-3.4,5.6-5c15.3-12.3,34.4-17.8,53.9-15.7
						c19.5,2.1,36.9,11.7,49.2,27c12.3,15.3,17.8,34.4,15.7,53.8c-1.8,16.9-9.3,32.4-21.3,44.2c-1.8,1.8-3.7,3.4-5.6,5
						C1560,605.5,1517.5,602.5,1491.5,576.1z"/>
				</g>
			</g>
		</g>
		<g>
			<path class="st3" d="M363.8,390.6c-1.8-7.7,9-12.8,15.6-7.4c67.2,54.5,228.8,217.8,188.5,503.1c-50.5,358,35.8,488.6,143.3,568.3
				c0,0-147.6-37.5-240.5-170C242.7,959.1,395.9,527.3,363.8,390.6z"/>
			<path class="st0" d="M414.9,502.4c8.4,39.9,15.9,79.8,21.7,120c6,40.1,10.7,80.4,13.8,120.7c3,40.3,5.1,80.7,5.2,121.1
				c0.3,40.4-1.3,80.8-3.2,121.3c-1.6,40.5-3.5,81.3-0.5,122.4c2.9,41,11.5,82.4,28.7,121.1c4.3,9.7,8.8,19.3,13.9,28.6
				c4.9,9.4,10.3,18.6,15.9,27.7c11.3,18.2,24,35.8,38.1,52.5c28.4,33.3,62.7,62.9,100.4,87.9c4,2.6,9.7,2,12.7-1.4
				c3-3.4,2.3-8.2-1.5-10.8l0,0c-9-6.3-17.9-12.7-26.4-19.4c-4.3-3.3-8.5-6.8-12.7-10.1c-4.1-3.5-8.3-6.9-12.2-10.5
				c-16-14.3-30.9-29.5-44.4-45.6c-27.1-32-48.8-67.7-65.2-104.8c-8-18.6-14.4-37.7-19-57.1c-4.6-19.4-7.6-39.2-9.2-59.1
				c-3.2-39.9-1.8-80.3-0.5-120.8c1.2-40.5,2.1-81.2,1-121.9c-0.5-20.3-1.4-40.7-2.7-61c-0.6-10.2-1.4-20.3-2.2-30.5
				c-0.9-10.1-1.9-20.3-3-30.4c-4.4-40.5-10.2-80.9-17.4-121c-7.5-40.1-16.2-80-26.7-119.6c-0.3-1.1-1.6-1.8-2.9-1.6
				C415.5,500.2,414.7,501.3,414.9,502.4z"/>
		</g>
		<g>
			<g>
				<path class="st4" d="M574.6,1257.8c-8.2,8.7-15.7,48.2-24.9,40.5c-66.4-55.5-128.7-293.7-26.4-498.6
					c86.4-173,116.8-275,127.3-322.3c2.2-10,15.9-11.3,20.1-2C716.2,578.9,873.3,940.8,574.6,1257.8z"/>
				<path class="st0" d="M561.5,1238.9c-0.3,0.1-0.6,0.1-0.9,0.1c-2.6,0.1-4.8-1.9-4.8-4.5c-0.1-2.9-8.9-296.5,88.1-547.6
					c0.9-2.4,3.7-3.6,6.1-2.7c2.4,0.9,3.6,3.7,2.7,6.1c-96.3,249.2-87.6,540.9-87.5,543.9C565.2,1236.4,563.6,1238.4,561.5,1238.9z"
					/>
			</g>
		</g>
		<g>
			<g>
				<polygon class="st5" points="825.3,1030.6 832.9,595.6 851.7,595.6 851.7,1042.2 				"/>
			</g>
			<g>
				<path class="st5" d="M943.3,431.1c-3.9-19.1-67.8,91.3-89.1,118.4c-21.2,27.2-4.7,35.7-4.7,35.7l2.8,2.6c0,0,0,0,0,0
					c8.4,1.6,17-1.7,21.1-9C893.1,543.9,946.4,446.7,943.3,431.1z"/>
				<path class="st5" d="M942.7,765.7c18.6,5.7-47.6-103.3-61.2-134.9c-13.6-31.7-28.9-21-28.9-21l-3.4,1.4c0,0,0,0,0,0
					c-6,5.9-6.9,15.5-2.4,22.6C868,667.8,927.5,761,942.7,765.7z"/>
				<path class="st5" d="M652.2,629.9c-16.4-10.6,109.8-29.8,142.8-39.7c33-9.9,34.7,8.7,34.7,8.7l1.2,3.5c0,0,0,0,0,0
					c0,8.4-7.5,15.2-15.9,16.4C775.3,624.4,665.5,638.6,652.2,629.9z"/>
				<g>
					<path class="st6" d="M862.8,605.2c-3.9,10.3-15.3,15.4-25.5,11.6c-10.3-3.9-15.4-15.3-11.6-25.5c3.9-10.3,15.3-15.4,25.5-11.6
						C861.5,583.5,866.6,595,862.8,605.2z"/>
					<g>
						<g>
							<path class="st5" d="M844.3,612.6c-1.7,0-3.4-0.3-5-0.9c-3.6-1.3-6.4-4-8-7.5c-1.6-3.5-1.7-7.3-0.4-10.9c1.3-3.6,4-6.4,7.5-8
								c3.5-1.6,7.3-1.7,10.9-0.4c7.4,2.8,11.1,11,8.3,18.4l0,0C855.5,609.1,850,612.6,844.3,612.6z M844.3,586.3
								c-1.7,0-3.4,0.4-5,1.1c-2.9,1.3-5.2,3.7-6.3,6.7c-1.1,3-1,6.3,0.3,9.2c1.3,2.9,3.7,5.2,6.7,6.3c6.2,2.3,13.2-0.8,15.5-7l0,0
								c2.3-6.2-0.8-13.2-7-15.5C847.1,586.5,845.7,586.3,844.3,586.3z"/>
						</g>
					</g>
				</g>
			</g>
		</g>
		<g>
			<g>
				<polygon class="st5" points="1106.1,863.7 1113.5,513.7 1134.7,513.7 1134.7,872 				"/>
				<linearGradient id="SVGID_1_" gradientUnits="userSpaceOnUse" x1="1127.7897" y1="691.5128" x2="1106.5779" y2="1166.6456">
					<stop  offset="0" style="stop-color:#48494B"/>
					<stop  offset="1" style="stop-color:#48494B"/>
				</linearGradient>
				<path class="st7" d="M1144.2,871.8c0,5.5-2.6,9.5-5.9,9.5h-37.2c-3.2,0-5.9-4-5.9-9.5l0,0c0-5.5,2.6-9.5,5.9-9.5h37.2
					C1141.6,862.2,1144.2,866.2,1144.2,871.8L1144.2,871.8z"/>
			</g>
			<g>
				<path class="st5" d="M1230.4,337.3c-4.1-20.2-71.8,96.6-94.3,125.4c-22.5,28.7-4.9,37.8-4.9,37.8l2.9,2.8c0,0,0,0,0,0
					c8.9,1.7,18-1.8,22.3-9.6C1177.2,456.7,1233.7,353.8,1230.4,337.3z"/>
				<path class="st5" d="M1229.8,691.4c19.7,6.1-50.4-109.3-64.8-142.8c-14.4-33.5-30.5-22.2-30.5-22.2l-3.6,1.5c0,0,0,0,0,0
					c-6.3,6.3-7.3,16.4-2.5,23.9C1150.7,587.8,1213.7,686.4,1229.8,691.4z"/>
				<path class="st5" d="M922.3,547.8c-17.3-11.2,116.2-31.5,151.1-42c35-10.4,36.2,9.2,36.2,9.2l0.8,3.8c0,0,0,0,0,0
					c0,8.9-7.5,16.1-16.3,17.3C1052,541.9,936.4,556.9,922.3,547.8z"/>
				<g>
					<path class="st6" d="M1145.2,521.6c-4.1,10.8-16.2,16.3-27,12.2c-10.8-4.1-16.3-16.2-12.2-27c4.1-10.8,16.2-16.3,27-12.2
						C1143.8,498.6,1149.3,510.8,1145.2,521.6z"/>
					<g>
						<g>
							<path class="st5" d="M1125.6,529.3c-1.8,0-3.5-0.3-5.3-1c-3.8-1.4-6.7-4.2-8.4-7.9c-1.7-3.7-1.8-7.7-0.4-11.5
								c1.4-3.8,4.2-6.7,7.9-8.4c3.7-1.7,7.7-1.8,11.5-0.4c3.8,1.4,6.7,4.2,8.4,7.9c1.7,3.7,1.8,7.7,0.4,11.5
								C1137.4,525.6,1131.6,529.3,1125.6,529.3z M1125.6,501.5c-1.8,0-3.6,0.4-5.3,1.1c-3.1,1.4-5.5,4-6.7,7.2
								c-1.2,3.2-1.1,6.7,0.3,9.8c1.4,3.1,4,5.5,7.2,6.7c6.6,2.5,14-0.9,16.5-7.5c1.2-3.2,1.1-6.7-0.3-9.8c-1.4-3.1-4-5.5-7.2-6.7
								C1128.6,501.8,1127.1,501.5,1125.6,501.5z"/>
						</g>
					</g>
				</g>
			</g>
		</g>
		<g>
			
				<ellipse transform="matrix(4.385851e-02 -0.999 0.999 4.385851e-02 -114.1979 2533.3408)" class="st8" cx="1266.4" cy="1326.3" rx="669.1" ry="722.2"/>
			<g class="st9">
				<ellipse class="st3" cx="1227.3" cy="1278.1" rx="566.7" ry="535.3"/>
			</g>
			<g class="st10">
				<path class="st0" d="M1450.9,1329.6c-0.2,118-8.3,236.2-29.1,352.6c-5.3,29.1-11.4,58-18.6,86.6c-7.3,28.6-15.7,57-26,84.8
					c-10.4,27.7-22.5,55-38.8,79.9c-8.2,12.4-17.6,24.2-29.1,34c-5.8,4.8-12.1,9.1-19.1,12.3c-7,3.1-14.6,5.1-22.3,5.2
					c-7.7,0.2-15.4-1.3-22.5-4.1c-7.1-2.8-13.6-6.9-19.5-11.6c-11.8-9.5-21.4-21.2-29.8-33.5c-16.7-24.8-28.9-52-39.4-79.6
					c-10.4-27.7-18.9-56.1-26.3-84.7c-7.3-28.6-13.5-57.5-18.8-86.6c-10.6-58.1-17.8-116.8-22.7-175.6
					c-4.8-58.8-7.3-117.9-7.6-176.9c-0.1-29.5,0.7-59,1.7-88.5c1.1-29.5,2.7-59,4.9-88.4c4.4-58.9,10.9-117.6,20.6-175.8
					c4.9-29.1,10.5-58.1,17.4-86.8c6.8-28.7,14.8-57.2,24.6-85.1c5-13.9,10.4-27.7,16.6-41.2c6.2-13.5,13.1-26.6,21.2-39
					c8.1-12.4,17.5-24.2,29.1-33.7c5.8-4.7,12.2-8.8,19.3-11.5c7-2.8,14.6-4.2,22.1-3.9c7.6,0.2,15,2.1,21.9,5.1
					c6.9,3,13.2,7.2,19,11.9c11.6,9.4,21.2,21,29.8,33.1c17,24.4,29.7,51.3,40.8,78.7c11,27.5,20.1,55.6,28,84.1
					c7.9,28.5,14.5,57.3,20.3,86.2C1441.3,1093.3,1450.6,1211.5,1450.9,1329.6z M1442.2,1329.6c0.1-58.8-2.1-117.6-7-176.2
					c-4.8-58.6-12.1-117-23-174.8c-5.4-28.9-11.8-57.6-19.3-86c-7.6-28.4-16.3-56.5-26.9-83.9c-10.7-27.3-23.1-54.1-39.5-78.3
					c-8.3-12-17.6-23.5-28.8-32.7c-5.6-4.6-11.7-8.7-18.2-11.7c-6.6-3-13.6-4.9-20.8-5.1c-7.2-0.2-14.4,1.2-21,4
					c-6.7,2.7-12.8,6.7-18.4,11.3c-11.2,9.3-20.2,21-28.1,33.2c-7.9,12.3-14.5,25.4-20.5,38.8c-6,13.4-11.2,27.1-16,41
					c-9.5,27.8-17.1,56.2-23.6,84.9c-6.5,28.7-11.8,57.6-16.3,86.6c-9,58.1-14.9,116.7-18.6,175.4c-3.7,58.7-5,117.5-4.9,176.3
					c-0.2,58.8,1.8,117.6,6.2,176.2c4.4,58.6,11.2,117.1,21.2,175c5.1,28.9,11,57.7,18,86.2c7.1,28.5,15.3,56.7,25.5,84.2
					c10.2,27.4,22.1,54.4,38.2,78.8c8.1,12.1,17.3,23.5,28.5,32.6c5.6,4.5,11.7,8.4,18.2,11.1c6.5,2.7,13.6,4.2,20.6,3.9
					c7-0.2,14-2,20.4-5c6.4-3,12.4-7.1,17.8-11.7c10.9-9.4,19.9-21,27.9-33.1c15.8-24.5,27.6-51.6,37.6-79.1
					c10-27.6,18.1-55.8,25.2-84.3c7-28.5,12.8-57.3,17.8-86.3c10-57.9,16.7-116.4,21.1-175
					C1440.1,1447.2,1442.2,1388.4,1442.2,1329.6z"/>
				<path class="st0" d="M1748.6,1329.6c-0.4,76-10.2,152-30.5,225.3c-20.7,73.1-51.9,143.4-94.3,206.6
					c-21.2,31.5-45.2,61.2-72,88.2c-26.8,26.9-56.4,51.1-88.6,71.3c-32.2,20.2-67,36.3-103.4,47.3c-36.4,11-74.4,16.7-112.4,16.7
					c-38,0-76-5.7-112.4-16.7c-36.4-10.9-71.2-27-103.5-47.2c-32.2-20.2-61.9-44.4-88.7-71.3c-26.9-26.9-50.9-56.6-72.1-88.1
					c-42.4-63.2-73.7-133.5-94.5-206.7c-10.2-36.6-17.8-74-22.9-111.7c-5-37.7-7.5-75.7-7.7-113.8c0.2-38,2.7-76.1,7.8-113.8
					c5.1-37.7,12.7-75,23-111.7c20.8-73.1,52.2-143.4,94.6-206.5c21.2-31.5,45.3-61.2,72.1-88c26.8-26.9,56.5-51,88.7-71.2
					c32.2-20.1,67-36.1,103.4-47c36.3-11,74.3-16.7,112.3-16.7c38,0.1,75.9,5.8,112.2,16.8c36.4,11,71.1,27,103.3,47.1
					c32.2,20.2,61.8,44.3,88.6,71.2c26.8,26.9,50.8,56.6,72,88.1c42.4,63.1,73.6,133.4,94.4,206.5
					C1738.3,1177.6,1748.1,1253.6,1748.6,1329.6z M1738.6,1329.6c-0.1-75.1-9.5-150.3-29.3-222.9c-19.9-72.4-49.9-142.3-91.3-205.2
					c-20.6-31.4-44.1-61-70.4-87.9c-26.3-26.9-55.3-51.2-87-71.4c-31.8-20.1-66.1-36.3-102.1-47.2c-36-10.9-73.5-16.7-111.1-16.8
					c-37.6,0.2-75.2,5.9-111.1,16.9c-36,11-70.3,27.2-102,47.3c-31.7,20.2-60.7,44.5-86.9,71.4c-26.2,26.9-49.6,56.5-70.2,87.9
					c-41.2,62.9-71.2,132.7-91,205.1c-9.9,36.2-17,73.2-21.9,110.4c-4.9,37.2-7.3,74.8-7.3,112.3c0.1,37.5,2.5,75.1,7.4,112.3
					c4.9,37.2,12.1,74.1,22,110.4c19.9,72.3,49.9,142.2,91.1,205c20.6,31.4,44,60.9,70.2,87.8c26.2,26.8,55.2,51.1,86.9,71.3
					c31.7,20.1,66,36.1,101.9,47.1c35.9,11,73.4,16.8,110.9,17c37.6-0.2,75.1-5.9,111-16.9c35.9-10.9,70.2-27,102-47
					c31.7-20.1,60.7-44.4,87-71.2c26.3-26.9,49.7-56.4,70.4-87.8c41.3-62.8,71.4-132.7,91.4-205
					C1729,1479.9,1738.4,1404.7,1738.6,1329.6z"/>
				<path class="st0" d="M662.5,1070.2L813,1069l150.5-0.7l301-0.6l301,0.6l150.5,0.8l150.5,1.3c0.2,0,0.4,0.2,0.4,0.4
					c0,0.2-0.2,0.4-0.4,0.4l-150.5,1.3l-150.5,0.8l-301,0.6l-301-0.6l-150.5-0.7l-150.5-1.2c-0.4,0-0.7-0.3-0.7-0.7
					C661.9,1070.5,662.2,1070.2,662.5,1070.2z"/>
				<path class="st0" d="M837.1,818.1c35.6-0.6,71.2-0.8,106.9-1.2l106.9-0.7c35.6-0.3,71.2-0.3,106.9-0.4l106.9-0.2l213.7,0.6
					l106.9,0.8c35.6,0.4,71.2,0.7,106.9,1.3c0.2,0,0.4,0.2,0.4,0.4c0,0.2-0.2,0.4-0.4,0.4c-35.6,0.6-71.2,0.9-106.9,1.3l-106.9,0.8
					l-213.7,0.6l-106.9-0.2c-35.6-0.1-71.2-0.1-106.9-0.4L944,820.6c-35.6-0.4-71.2-0.7-106.9-1.2c-0.4,0-0.7-0.3-0.6-0.7
					C836.5,818.4,836.8,818.1,837.1,818.1z"/>
				<path class="st0" d="M610.2,1322.3l163.6-1.2l163.6-0.7l327.2-0.6l327.2,0.6l163.6,0.8l163.6,1.3c0.2,0,0.4,0.2,0.4,0.4
					c0,0.2-0.2,0.4-0.4,0.4l-163.6,1.3l-163.6,0.8l-327.2,0.6l-327.2-0.6l-163.6-0.7l-163.6-1.2c-0.4,0-0.7-0.3-0.7-0.7
					C609.6,1322.6,609.8,1322.3,610.2,1322.3z"/>
				<path class="st0" d="M662.5,1574.4l150.5-1.2l150.5-0.7l301-0.6l301,0.6l150.5,0.8l150.5,1.3c0.2,0,0.4,0.2,0.4,0.4
					c0,0.2-0.2,0.4-0.4,0.4l-150.5,1.3l-150.5,0.8l-301,0.6l-301-0.6l-150.5-0.7l-150.5-1.2c-0.4,0-0.7-0.3-0.7-0.7
					C661.9,1574.7,662.2,1574.4,662.5,1574.4z"/>
				<path class="st0" d="M1713.6,1829.5H858.7c-1.3,0-2.3-1-2.3-2.3c0-1.3,1-2.3,2.3-2.3h854.9c1.3,0,2.3,1,2.3,2.3
					C1715.9,1828.4,1714.8,1829.5,1713.6,1829.5z"/>
			</g>
		</g>
		<g>
			<path class="st11" d="M2141.2,735.6L1399,732c-8.9-0.1-16.2,9.8-16.1,22l1.6,293.6c0.1,12.2,7.5,22,16.5,21.6l738-15.8
				c8.6-0.4,15.4-9.8,15.6-21.5l2.6-274.3C2157.3,745.6,2150.1,735.7,2141.2,735.6z"/>
			<path class="st0" d="M1400.6,1050.5c-1.4,0-2.4-1.3-2.4-3l-1.6-293.6c0-0.8,0.2-1.4,0.6-2c0.6-0.8,1.3-1,1.8-1l742.2,3.6
				c0.5,0,1.2,0.2,1.8,1c0.4,0.6,0.6,1.2,0.6,2l-2.6,274.3c0,1.6-1,2.9-2.4,2.9h0L1400.6,1050.5z M1398.9,752.8c0,0-0.1,0-0.3,0.2
				c-0.2,0.2-0.3,0.5-0.2,0.9l1.6,293.6c0,0.7,0.3,1.1,0.5,1.1l738-15.8c0.2,0,0.5-0.4,0.5-1.1l2.6-274.3c0-0.4-0.1-0.6-0.2-0.9
				c-0.2-0.2-0.2-0.2-0.3-0.2L1398.9,752.8z"/>
			<g>
				<circle class="st0" cx="1530.6" cy="862.3" r="76.8"/>
				<circle class="st0" cx="1720.9" cy="862.3" r="76.8"/>
				<circle class="st0" cx="1911.9" cy="864.8" r="76.8"/>
				<g>
					<path class="st12" d="M1576.3,846c2.4,5.8,3.7,12.1,3.7,18.8c0,27.3-22.1,49.4-49.4,49.4c-27.3,0-49.4-22.1-49.4-49.4
						c0-27.3,22.1-49.4,49.4-49.4c0.8,0,1.7,0,2.5,0.1V803c-0.8,0-1.7-0.1-2.5-0.1c-34.2,0-61.9,27.7-61.9,61.9
						c0,34.2,27.7,61.9,61.9,61.9c34.2,0,61.9-27.7,61.9-61.9c0-8.4-1.7-16.4-4.7-23.7L1576.3,846z"/>
					<path class="st12" d="M1747.1,906.6c-7.6,4.8-16.6,7.6-26.3,7.6c-27.3,0-49.4-22.1-49.4-49.4c0-27.3,22.1-49.4,49.4-49.4
						c0.8,0,1.7,0,2.5,0.1V803c-0.8,0-1.7-0.1-2.5-0.1c-34.2,0-61.9,27.7-61.9,61.9c0,34.2,27.7,61.9,61.9,61.9
						c11.9,0,23.1-3.4,32.5-9.2L1747.1,906.6z"/>
					<path class="st12" d="M1953.8,892.6c-8.9,13-23.8,21.6-40.8,21.6c-27.3,0-49.4-22.1-49.4-49.4c0-27.3,22.1-49.4,49.4-49.4
						c0.8,0,1.7,0,2.5,0.1V803c-0.8,0-1.7-0.1-2.5-0.1c-34.2,0-61.9,27.7-61.9,61.9c0,34.2,27.7,61.9,61.9,61.9
						c21.1,0,39.8-10.6,50.9-26.8L1953.8,892.6z"/>
				</g>
				<g>
					<path class="st13" d="M1593.8,971.7h-125.2c-7.9,0-14.2,6.4-14.2,14.2c0,7.9,6.4,14.2,14.2,14.2h125.2
						c7.9,0,14.2-6.4,14.2-14.2C1608,978,1601.6,971.7,1593.8,971.7z"/>
					<path class="st13" d="M1784.8,971.7h-125.2c-7.9,0-14.2,6.4-14.2,14.2c0,7.9,6.4,14.2,14.2,14.2h125.2
						c7.9,0,14.2-6.4,14.2-14.2C1799,978,1792.6,971.7,1784.8,971.7z"/>
					<path class="st13" d="M1849.3,1000.1h125.2c7.9,0,14.2-6.4,14.2-14.2c0-7.9-6.4-14.2-14.2-14.2h-125.2
						c-7.9,0-14.2,6.4-14.2,14.2C1835.1,993.8,1841.4,1000.1,1849.3,1000.1z"/>
				</g>
			</g>
		</g>
		<g>
			<linearGradient id="SVGID_2_" gradientUnits="userSpaceOnUse" x1="1682.4884" y1="1457.1606" x2="1570.4341" y2="1405.2836">
				<stop  offset="0" style="stop-color:#FFFFFF"/>
				<stop  offset="1" style="stop-color:#EFEFF4"/>
			</linearGradient>
			<path class="st14" d="M1726.8,1493.1c0,0,42.7,98.6,69,85.5c26.3-13.1,46-121.6,46-121.6S1759.7,1437.2,1726.8,1493.1z"/>
			<path class="st6" d="M1875.6,2105.1c0,0,3.6,20.2,5.3,40.2c0.7,7.8-5.3,14.6-13.2,14.9c-26.7,1.1-83.7,3.3-104.2,2.4
				c-3.1-0.1-5.1-3.3-3.9-6.1l0,0c1-2.4,2.8-4.3,5.1-5.4l94.2-43.3L1875.6,2105.1z"/>
			<linearGradient id="SVGID_3_" gradientUnits="userSpaceOnUse" x1="1899.2518" y1="2089.446" x2="1890.4326" y2="2093.0774">
				<stop  offset="0" style="stop-color:#FFFFFF"/>
				<stop  offset="1" style="stop-color:#EFEFF4"/>
			</linearGradient>
			<path class="st15" d="M1878.5,2093.2l-2.9,24.2c0,0-16.5,7.7-27.8-1l6.8-27L1878.5,2093.2z"/>
			<path class="st6" d="M1876.4,1638.4c1.2,6.3,6.7,315.3-26.4,453.7c-0.5,2.3,0.6,4.6,2.8,5.5c5.1,2.1,15,5.1,26.9,5.5
				c3.7,0.1,7-2.3,8-5.8c9.4-32.1,54.7-193.1,60.6-346.8c6.6-171.8,0-5.8,0-5.8l-3.9-106.2L1876.4,1638.4z"/>
			<path class="st6" d="M1984,2115.7c0,0,5.7,10.2,11.2,37.3c1,4.9-2.4,9.6-7.4,10.1c-8.8,0.9-22.4,2-33.2,1.9c-5,0-8.9-4.4-8.3-9.4
				c1.2-9.9,4.9-26.2,16.5-38.8L1984,2115.7z"/>
			<linearGradient id="SVGID_4_" gradientUnits="userSpaceOnUse" x1="2026.6023" y1="2103.4661" x2="2004.8138" y2="2103.4661">
				<stop  offset="0" style="stop-color:#FFFFFF"/>
				<stop  offset="1" style="stop-color:#EFEFF4"/>
			</linearGradient>
			<path class="st16" d="M1989,2084.6l-6.7,36.6c0,0-6.6,4.9-19.7,1.4l3.2-39.4L1989,2084.6z"/>
			<path class="st6" d="M2007.1,1647.9c27,163-5.9,402.9-16.9,449.8c-0.7,2.9-3,5.1-5.9,5.6c-4.9,0.8-13.1,1.5-21.1-0.8
				c-2.8-0.8-4.7-3.3-4.8-6.2c-1.5-38,1.2-271-24-363.1c-1.3-4.7-4.1-8.7-8.1-11.5l-48.8-34.7l-3.7-56.1L2007.1,1647.9z"/>
			<g>
				<path class="st17" d="M1832,1345.2c98.6-9.9,173.2,15.1,173.2,15.1c24.1,140.8,4.2,303.2,4.2,303.2
					c-62.7,16.4-133.3-10-133.3-10c-10.4-58.8-59-224.4-59-224.4C1777.5,1424.1,1807.2,1347.7,1832,1345.2z"/>
			</g>
			<path class="st17" d="M1974.2,1438.7l31-78.4c0,0,75.6,51.4,88,116.5c-14.3,1.1-40.3,4.8-65.7,17.6
				C2022,1463.7,1974.2,1438.7,1974.2,1438.7z"/>
			<linearGradient id="SVGID_5_" gradientUnits="userSpaceOnUse" x1="2167.1765" y1="1439.2025" x2="2283.3816" y2="1377.9873">
				<stop  offset="0" style="stop-color:#FFFFFF"/>
				<stop  offset="1" style="stop-color:#EFEFF4"/>
			</linearGradient>
			<path class="st18" d="M1901.5,1512.4c0,0,84.9,48,113.5,7c5.9-8.5,13.3-19.7,11.8-27.8c25.4-12.8,49.6-13.8,63.9-14.8
				c3.7,19.6-2.3,40.5-13.8,61.6c-50.2,91.8-186.6-5.1-186.6-5.1L1901.5,1512.4z"/>
			<g>
				<path class="st6" d="M1911.7,1573.1l-46.3-161.8c-0.5-1.8-2.1-3.2-4-3.4c-8.4-1-32.7-3.7-60.8-6.1c-33.8-2.9-73.1-5.2-96.6-3.2
					c-3.3,0.3-5.4,3.8-3.9,6.8c13.3,27,68.3,136.9,95.7,172.8c0.9,1.2,2.3,1.9,3.8,1.9l107.5-1
					C1910.4,1579.1,1912.6,1576.1,1911.7,1573.1z"/>
				<path class="st5" d="M1795.8,1387.8l-33.6-5.6c-1.8-0.3-3.3,1.4-2.7,3.1l3.3,10.1c0.3,0.9,1.1,1.5,2,1.6l32.3,4.3
					c1.7,0.2,3.1-1.3,2.7-2.9l-2.1-8.8C1797.6,1388.7,1796.8,1388,1795.8,1387.8z"/>
				<path class="st5" d="M1821,1416.2l-2.8-14.4c-0.3-1.4-1.5-2.5-2.9-2.7l-67.8-6.9c-2.3-0.2-4.1,1.9-3.6,4.1l4.3,18
					c0.3,1.4,1.6,2.5,3.1,2.5l66.3,3.3C1819.7,1420.3,1821.4,1418.4,1821,1416.2z"/>
				<linearGradient id="SVGID_6_" gradientUnits="userSpaceOnUse" x1="2132.8613" y1="1374.061" x2="2249.0664" y2="1312.8458">
					<stop  offset="0" style="stop-color:#FFFFFF"/>
					<stop  offset="1" style="stop-color:#EFEFF4"/>
				</linearGradient>
				<path class="st19" d="M1900.5,1534c0,0,6.5-26.5,3.9-35.9c-2.6-9.4-7.6-21.5-24.5-18.8c-16.8,2.7-36.6,9.8-36.6,9.8
					s1,12.3,13.8,8.3l-7.9,6.1c0,0,1.1,9.8,11.9,4.6l-7.4,8.1c0,0,4.6,8.1,12.6,2.9C1874.2,1513.9,1878,1537.2,1900.5,1534z"/>
				<linearGradient id="SVGID_7_" gradientUnits="userSpaceOnUse" x1="1691.559" y1="1437.5677" x2="1579.5042" y2="1385.6906">
					<stop  offset="0" style="stop-color:#FFFFFF"/>
					<stop  offset="1" style="stop-color:#EFEFF4"/>
				</linearGradient>
				<path class="st20" d="M1728.3,1494.5c0,0-19.6-19.1-22.4-28.4c-2.8-9.4-5-22.3,10.7-28.9c15.7-6.7,36.2-11.2,36.2-11.2
					s5.7,10.9-7.3,14.4l10,1c0,0,4.3,8.9-7.7,10.2l10.6,3c0,0,0.4,9.3-9.1,9.1C1739.9,1463.5,1749.1,1485.3,1728.3,1494.5z"/>
			</g>
			<linearGradient id="SVGID_8_" gradientUnits="userSpaceOnUse" x1="1904.884" y1="1375.3555" x2="1864.9385" y2="1224.3925">
				<stop  offset="0" style="stop-color:#FFFFFF"/>
				<stop  offset="1" style="stop-color:#EFEFF4"/>
			</linearGradient>
			<path class="st21" d="M1907.1,1279.5l25.8,74.5c0.4,1.2-0.1,2.6-1.2,3.2c-7,3.9-32.3,15.1-62.8-4.2c-3.2-2-5.3-5.3-5.8-9
				l-8.3-64.5H1907.1z"/>
			<g>
				<linearGradient id="SVGID_9_" gradientUnits="userSpaceOnUse" x1="1950.4543" y1="1198.3451" x2="2014.2633" y2="1156.3245">
					<stop  offset="0" style="stop-color:#FFFFFF"/>
					<stop  offset="1" style="stop-color:#EFEFF4"/>
				</linearGradient>
				<path class="st22" d="M1851.1,1210.5c0,0-28.3,53.2-24.7,74.7c3.6,21.5,38.7,20,69.3,2.5l21.4-57.5L1851.1,1210.5z"/>
				<path class="st6" d="M1894.3,1259.5c-1.2-0.6-1.7-2.1-1-3.2c2.3-3.5,6.5-10.5,7.9-16.7c0,0,5.1-3.3-12.9-7.6
					c-18-4.3-44.9-11-50.6-26.4c-5.5-15,9-52.6,32.1-22.6c0.9,1.1,2.6,1.2,3.5,0c3.8-4.9,13.7-15.2,27.6-9
					c12.9,5.8,14.4,15.3,14.2,20.1c-0.1,1.4,1.2,2.5,2.6,2.2c6.5-1.2,22.2-2.3,29.5,13.8c6,13.3,2.1,20.8-1.5,24.4
					c-1.2,1.2-0.7,3.1,0.9,3.6c4.3,1.3,9.8,5,9.3,15c-0.8,13.9-16.3,12.7-20.8,12.1c-0.7-0.1-1.5,0.1-1.9,0.7
					c-3.8,4.2-20.9,22-39.4,24.2c-1.6,0.2-2.8-1.4-2.3-2.9l8-23.3c0.4-1.1-0.1-2.3-1.2-2.7L1894.3,1259.5z"/>
				<linearGradient id="SVGID_10_" gradientUnits="userSpaceOnUse" x1="1966.3762" y1="1222.5232" x2="2030.1852" y2="1180.5026">
					<stop  offset="0" style="stop-color:#FFFFFF"/>
					<stop  offset="1" style="stop-color:#EFEFF4"/>
				</linearGradient>
				<path class="st23" d="M1891.1,1262.8c0,0,20.1-13.8,21.6-2.2c1.5,11.6-18.1,16.9-27.8,12.5L1891.1,1262.8z"/>
			</g>
		</g>
		<g>
			<g>
				<path class="st6" d="M1413.8,1819.8c-0.5-6-6.7-11.3-17.1-15.5c11.4-6.3,17.6-13,17.1-19.6c-1.6-19.9-64.7-31.1-140.9-24.9
					c-76.2,6.1-136.7,27.3-135.1,47.2c0.5,6,6.7,11.3,17.1,15.5c-11.4,6.3-17.6,13-17.1,19.6c0.5,6,6.7,11.3,17.1,15.5
					c-11.4,6.3-17.6,13-17.1,19.6c0.5,6,6.7,11.3,17.1,15.5c-11.4,6.3-17.6,13-17.1,19.6c0.7,8.8,13.5,15.9,34,20.6
					c-0.3,6.5-0.1,13.6,0.5,21.5c3,36.7,44.3,65.5,98.9,65.5c54.6,0,101.9-39.2,102.4-76.1c0.1-9-0.3-17-1.1-24
					c26.1-8.7,42-19.4,41.2-29.7c-0.5-6-6.7-11.3-17.1-15.5c11.4-6.3,17.6-13,17.1-19.6c-0.5-6-6.7-11.3-17.1-15.5
					C1408,1833.1,1414.3,1826.4,1413.8,1819.8z"/>
				<g>
					<path class="st8" d="M1237.6,1940.6c-22.6,0-43.3-1.7-60.5-4.9c-1-0.2-1.6-1.1-1.5-2.1c0.2-1,1.1-1.6,2.1-1.5
						c26.8,5.1,62.5,6.3,100.7,3.2c31.2-2.5,60.4-7.6,84.5-14.6c1-0.3,2,0.3,2.3,1.2c0.3,1-0.3,2-1.2,2.3
						c-24.3,7.1-53.7,12.2-85.2,14.7C1264.6,1940,1250.8,1940.6,1237.6,1940.6z"/>
					<path class="st8" d="M1238,1905.5c-29.4,0-55.7-2.8-74.2-8c-1-0.3-1.5-1.3-1.3-2.3c0.3-1,1.3-1.5,2.3-1.3
						c26.4,7.5,69,9.9,113.8,6.2c44.3-3.6,85.7-12.6,110.6-24.1c0.9-0.4,2,0,2.4,0.9c0.4,0.9,0,2-0.9,2.4
						c-25.3,11.7-67.1,20.8-111.9,24.4C1264.8,1905,1251.1,1905.5,1238,1905.5z"/>
					<path class="st8" d="M1237.6,1870.5c-31.8,0-59.5-3.2-78.2-9.4c-1-0.3-1.5-1.4-1.2-2.3c0.3-1,1.3-1.5,2.3-1.2
						c26,8.6,70.2,11.4,118,7.5c44.3-3.6,85.7-12.6,110.6-24.1c0.9-0.4,2,0,2.4,0.9c0.4,0.9,0,2-0.9,2.4
						c-25.3,11.7-67.1,20.8-111.9,24.4C1264.6,1870,1250.8,1870.5,1237.6,1870.5z"/>
					<path class="st8" d="M1237.8,1835.5c-25.2,0-48.1-2-65.9-6c-1-0.2-1.6-1.2-1.4-2.2c0.2-1,1.2-1.6,2.2-1.4
						c26.8,6,65.3,7.5,105.8,4.2c44-3.5,85.1-12.4,110.1-23.8c0.9-0.4,2,0,2.4,0.9c0.4,0.9,0,2-0.9,2.4
						c-25.3,11.5-66.9,20.6-111.3,24.1C1264.8,1834.9,1251,1835.5,1237.8,1835.5z"/>
				</g>
				<path class="st17" d="M1086.6,1643c-9.3-32.8-25-63.4-46.2-90.1c-45.4-57.2-119.4-173.5-128.5-332.2
					c-13.3-230.9,191.5-346.5,378.4-330.8c186.8,15.7,371.2,154.8,351,369.6c-12.4,132.2-86.4,232.4-141.5,290
					c-35,36.6-59.9,81.3-73.4,130.1c-16.5,59.7-55.9,134-149.4,138.6C1156.1,1824,1105.9,1711.2,1086.6,1643z"/>
				<path class="st24" d="M1308,1772.1l65.4-425.2c1.4-8.8,5.7-14.7,9.7-13.2c4,1.5,6.1,9.9,4.8,18.6c0,0.2-0.1,0.5-0.1,0.8
					l-74.5,421.3c-0.6,3.2-2.2,5.2-3.6,4.5C1308.2,1778.1,1307.5,1775.1,1308,1772.1z"/>
				<path class="st24" d="M1240.1,1775.4l-65.4-425.2c-1.4-8.8-5.7-14.7-9.7-13.2c-4,1.5-6.1,9.9-4.8,18.6c0,0.2,0.1,0.5,0.1,0.8
					l74.5,421.3c0.6,3.2,2.2,5.2,3.6,4.5C1239.9,1781.5,1240.6,1778.5,1240.1,1775.4z"/>
				<path class="st0" d="M1372.9,1310.3c-1.7-2.7-5.5-3.7-8.6-2.2l-36.4,17l-12.6-36c-0.7-1.9-2.2-3.5-4.4-4.5
					c-4.2-1.7-9.2-0.2-11.2,3.4l-0.1,0.1l-29.9,54.6l-27.8-77.7l0-0.1c-0.7-1.9-2.1-3.6-4.2-4.7c-4.7-2.5-10.8-1.3-13.7,2.7
					l-41.9,57.6c-1.7,2.4-1.1,5.5,1.5,7.3c2.8,1.9,6.8,1.4,8.9-1l36.9-41.1l33.2,73.9l0,0.1c0.5,1.2,1.5,2.2,2.9,2.9
					c3.1,1.5,7,0.5,8.7-2.2l32-51.4l12.1,26l0.1,0.2c0.1,0.2,0.2,0.4,0.3,0.6c1.7,2.7,5.5,3.7,8.6,2.2l43.2-20.2
					C1373.4,1316.3,1374.5,1313,1372.9,1310.3z"/>
				<path class="st25" d="M1501.3,1489.4c-0.6,0-1.3-0.2-1.9-0.6c-1.4-1-1.7-3-0.6-4.3c11.2-15.2,21.6-30.8,30.7-46.6
					c0.9-1.5,2.8-2,4.2-1.1c1.5,0.9,2,2.8,1.1,4.2c-9.2,16-19.7,31.8-31,47.2C1503.2,1489,1502.2,1489.4,1501.3,1489.4z"/>
				<path class="st25" d="M1555.1,1397.1c-0.4,0-0.8-0.1-1.2-0.3c-1.6-0.7-2.3-2.5-1.6-4.1c70-161.2,9.5-296.8,8.9-298.2
					c-0.7-1.6,0-3.4,1.5-4.1c1.6-0.7,3.4,0,4.1,1.5c0.6,1.4,15.9,35.2,22.6,89.7c6.2,50.2,5.7,128.1-31.4,213.6
					C1557.4,1396.4,1556.3,1397.1,1555.1,1397.1z"/>
			</g>
			<g>
				<g>
					<g>
						<path class="st26" d="M1457.1,1252.2c0,100.6-81.5,184.4-184.7,188.5c-1,0-2,0.1-3,0.1c-107,2.6-195.5-81-195.5-186.8
							c0-98.2,76.4-178.1,173.1-187.7c7.4-0.7,14.8-1,22.4-0.9C1374,1066.9,1457.1,1150.6,1457.1,1252.2z"/>
						<path class="st0" d="M1265.5,1420.7l-0.8,0c-1.2,0-2.2-1-2.2-2.2c0-1.2,1-2.2,2.2-2.2c0,0,0,0,0,0l0.7,0c1.3,0,2.5,0,3.8,0
							c4.3-0.1,8.6-0.3,12.8-0.8c1.2-0.1,2.3,0.8,2.4,2c0.1,1.2-0.8,2.3-2,2.4c-4.3,0.4-8.8,0.7-13.2,0.8
							C1268.1,1420.7,1266.8,1420.7,1265.5,1420.7z M1247.2,1419.7c-0.1,0-0.2,0-0.2,0c-5.9-0.6-11.8-1.6-17.6-2.8
							c-1.2-0.3-2-1.4-1.7-2.6c0.3-1.2,1.4-2,2.6-1.7c5.6,1.2,11.4,2.1,17.2,2.7c1.2,0.1,2.1,1.2,2,2.4
							C1249.3,1418.9,1248.3,1419.7,1247.2,1419.7z M1299.8,1417.3c-1,0-1.9-0.7-2.2-1.8c-0.2-1.2,0.5-2.4,1.7-2.6
							c5.7-1.1,11.3-2.6,16.9-4.3c1.2-0.4,2.4,0.3,2.8,1.4c0.4,1.2-0.3,2.4-1.4,2.8c-5.7,1.8-11.5,3.3-17.3,4.4
							C1300.1,1417.3,1300,1417.3,1299.8,1417.3z M1212.8,1412.4c-0.2,0-0.5,0-0.7-0.1c-5.6-1.8-11.3-4-16.7-6.4
							c-1.1-0.5-1.6-1.8-1.1-2.9c0.5-1.1,1.8-1.6,2.9-1.1c5.3,2.3,10.8,4.4,16.3,6.2c1.2,0.4,1.8,1.6,1.4,2.8
							C1214.6,1411.9,1213.7,1412.4,1212.8,1412.4z M1333.4,1406.8c-0.9,0-1.7-0.5-2-1.3c-0.5-1.1,0-2.4,1.2-2.9
							c5.3-2.3,10.6-4.9,15.6-7.7c1.1-0.6,2.4-0.2,3,0.8c0.6,1.1,0.2,2.4-0.9,3c-5.2,2.9-10.6,5.5-16,7.9
							C1334,1406.8,1333.7,1406.8,1333.4,1406.8z M1180.6,1398.2c-0.4,0-0.7-0.1-1.1-0.3c-5.1-3-10.2-6.2-15-9.7
							c-1-0.7-1.2-2.1-0.5-3.1c0.7-1,2.1-1.2,3.1-0.5c4.7,3.4,9.6,6.6,14.6,9.4c1.1,0.6,1.4,2,0.8,3
							C1182.1,1397.8,1181.3,1398.2,1180.6,1398.2z M1364.2,1389.7c-0.7,0-1.4-0.3-1.8-0.9c-0.7-1-0.5-2.4,0.5-3.1
							c4.7-3.3,9.3-6.9,13.7-10.7c0.9-0.8,2.3-0.7,3.1,0.2c0.8,0.9,0.7,2.3-0.2,3.1c-4.5,3.9-9.2,7.6-14.1,11
							C1365.1,1389.5,1364.6,1389.7,1364.2,1389.7z M1152,1377.6c-0.5,0-1.1-0.2-1.5-0.6c-4.4-4-8.7-8.2-12.6-12.6
							c-0.8-0.9-0.7-2.3,0.2-3.1c0.9-0.8,2.3-0.7,3.1,0.2c3.9,4.3,8,8.4,12.3,12.3c0.9,0.8,1,2.2,0.2,3.1
							C1153.2,1377.3,1152.6,1377.6,1152,1377.6z M1390.7,1366.5c-0.5,0-1.1-0.2-1.5-0.6c-0.9-0.8-0.9-2.2-0.1-3.1
							c3.9-4.2,7.7-8.7,11.2-13.3c0.7-1,2.1-1.2,3.1-0.4c1,0.7,1.2,2.1,0.4,3.1c-3.6,4.7-7.4,9.3-11.5,13.7
							C1391.9,1366.3,1391.3,1366.5,1390.7,1366.5z M1128.5,1351.4c-0.7,0-1.4-0.3-1.8-0.9c-3.5-4.8-6.8-9.9-9.7-15
							c-0.6-1.1-0.2-2.4,0.8-3c1.1-0.6,2.4-0.2,3,0.8c2.9,5,6,9.9,9.4,14.6c0.7,1,0.5,2.4-0.5,3.1
							C1129.4,1351.3,1128.9,1351.4,1128.5,1351.4z M1411.9,1338.4c-0.4,0-0.8-0.1-1.1-0.3c-1-0.6-1.4-2-0.8-3
							c3-5,5.7-10.1,8.1-15.4c0.5-1.1,1.8-1.6,2.9-1.1c1.1,0.5,1.6,1.8,1.1,2.9c-2.5,5.4-5.3,10.7-8.4,15.8
							C1413.4,1338,1412.7,1338.4,1411.9,1338.4z M1111,1320.9c-0.9,0-1.7-0.5-2-1.3c-2.4-5.4-4.5-11.1-6.2-16.7
							c-0.4-1.2,0.3-2.4,1.5-2.8c1.2-0.4,2.4,0.3,2.8,1.5c1.7,5.5,3.7,11,6.1,16.3c0.5,1.1,0,2.4-1.1,2.9
							C1111.6,1320.8,1111.3,1320.9,1111,1320.9z M1426.7,1306.5c-0.2,0-0.5,0-0.7-0.1c-1.2-0.4-1.8-1.6-1.4-2.8
							c1.8-5.5,3.4-11.1,4.7-16.8c0.3-1.2,1.4-1.9,2.6-1.7c1.2,0.3,1.9,1.4,1.7,2.6c-1.3,5.8-2.9,11.6-4.8,17.2
							C1428.5,1305.9,1427.6,1306.5,1426.7,1306.5z M1100.6,1287.2c-1,0-2-0.7-2.2-1.8c-1.1-5.8-2-11.8-2.4-17.7
							c-0.1-1.2,0.8-2.3,2-2.4c1.3-0.1,2.3,0.8,2.4,2c0.5,5.8,1.3,11.6,2.4,17.2c0.2,1.2-0.5,2.4-1.7,2.6
							C1100.8,1287.2,1100.7,1287.2,1100.6,1287.2z M1434.3,1272.1c-0.1,0-0.2,0-0.2,0c-1.2-0.1-2.1-1.2-2-2.4
							c0.6-5.7,0.9-11.6,0.9-17.4c0-1.2,1-2.2,2.2-2.2s2.2,1,2.2,2.2c0,6-0.3,12-1,17.8C1436.3,1271.3,1435.4,1272.1,1434.3,1272.1z
							 M1097.6,1252.2C1097.6,1252.2,1097.6,1252.2,1097.6,1252.2c-1.3,0-2.2-1-2.2-2.3c0.1-5.9,0.6-11.9,1.4-17.8
							c0.2-1.2,1.3-2.1,2.5-1.9c1.2,0.2,2.1,1.3,1.9,2.5c-0.7,5.7-1.2,11.5-1.3,17.3C1099.8,1251.2,1098.8,1252.2,1097.6,1252.2z
							 M1434.9,1244.6c-1.2,0-2.1-0.9-2.2-2.1c-0.4-5.8-1-11.6-2-17.3c-0.2-1.2,0.6-2.3,1.8-2.5c1.2-0.2,2.3,0.6,2.5,1.8
							c1,5.8,1.7,11.8,2.1,17.7c0.1,1.2-0.9,2.3-2.1,2.3C1435,1244.6,1435,1244.6,1434.9,1244.6z M1102.2,1217.3
							c-0.2,0-0.3,0-0.5-0.1c-1.2-0.3-1.9-1.5-1.6-2.7c1.4-5.8,3.1-11.5,5.2-17.1c0.4-1.1,1.7-1.7,2.8-1.3c1.1,0.4,1.7,1.7,1.3,2.8
							c-2,5.4-3.7,11-5,16.6C1104.1,1216.6,1103.2,1217.3,1102.2,1217.3z M1429,1209.9c-1,0-1.8-0.6-2.1-1.6
							c-1.6-5.5-3.5-11.1-5.7-16.4c-0.5-1.1,0.1-2.4,1.2-2.9c1.1-0.5,2.4,0.1,2.9,1.2c2.3,5.5,4.2,11.2,5.9,16.9
							c0.3,1.2-0.3,2.4-1.5,2.7C1429.4,1209.9,1429.2,1209.9,1429,1209.9z M1114.2,1184.2c-0.3,0-0.7-0.1-1-0.2
							c-1.1-0.5-1.5-1.9-1-2.9c2.6-5.3,5.5-10.6,8.7-15.6c0.7-1,2-1.3,3-0.7c1,0.6,1.3,2,0.7,3c-3.1,4.9-5.9,10-8.5,15.2
							C1115.8,1183.7,1115,1184.2,1114.2,1184.2z M1415.6,1177.3c-0.8,0-1.5-0.4-1.9-1.2c-2.7-5.1-5.8-10.1-9.1-14.8
							c-0.7-1-0.4-2.4,0.6-3.1c1-0.7,2.4-0.4,3.1,0.6c3.4,4.9,6.5,10,9.3,15.2c0.6,1.1,0.2,2.4-0.9,3
							C1416.4,1177.2,1416,1177.3,1415.6,1177.3z M1133,1154.4c-0.5,0-1-0.2-1.4-0.5c-1-0.8-1.1-2.1-0.4-3.1
							c3.7-4.6,7.6-9.2,11.8-13.4c0.9-0.9,2.2-0.9,3.1,0c0.9,0.9,0.9,2.2,0,3.1c-4,4.1-7.9,8.5-11.5,13.1
							C1134.2,1154.1,1133.6,1154.4,1133,1154.4z M1395.7,1148.3c-0.6,0-1.2-0.3-1.7-0.8c-3.8-4.4-7.8-8.6-12-12.6
							c-0.9-0.8-0.9-2.2-0.1-3.1c0.8-0.9,2.2-0.9,3.1-0.1c4.3,4.1,8.5,8.4,12.3,12.9c0.8,0.9,0.7,2.3-0.2,3.1
							C1396.7,1148.2,1396.2,1148.3,1395.7,1148.3z M1157.6,1129.2c-0.6,0-1.3-0.3-1.7-0.8c-0.8-0.9-0.6-2.3,0.3-3.1
							c4.6-3.8,9.4-7.4,14.3-10.7c1-0.7,2.4-0.4,3.1,0.6c0.7,1,0.4,2.4-0.6,3.1c-4.8,3.2-9.5,6.7-13.9,10.4
							C1158.5,1129,1158,1129.2,1157.6,1129.2z M1370,1124.2c-0.5,0-0.9-0.1-1.3-0.4c-4.6-3.5-9.4-6.8-14.4-9.8c-1-0.6-1.4-2-0.7-3
							c0.6-1,2-1.4,3-0.7c5.1,3.1,10,6.5,14.8,10c1,0.7,1.2,2.1,0.4,3.1C1371.3,1123.9,1370.7,1124.2,1370,1124.2z M1186.8,1109.6
							c-0.8,0-1.6-0.4-2-1.2c-0.6-1.1-0.2-2.4,0.9-3c5.2-2.8,10.7-5.3,16.2-7.5c1.1-0.5,2.4,0.1,2.9,1.2c0.5,1.1-0.1,2.4-1.2,2.9
							c-5.4,2.2-10.7,4.6-15.8,7.3C1187.5,1109.6,1187.2,1109.6,1186.8,1109.6z M1339.9,1106c-0.3,0-0.6-0.1-0.9-0.2
							c-5.2-2.5-10.6-4.7-16.1-6.6c-1.1-0.4-1.8-1.7-1.4-2.8c0.4-1.2,1.7-1.8,2.8-1.4c5.6,2,11.2,4.2,16.5,6.8
							c1.1,0.5,1.6,1.8,1.1,2.9C1341.5,1105.5,1340.7,1106,1339.9,1106z M1219.5,1096.5c-1,0-1.8-0.6-2.1-1.6
							c-0.3-1.2,0.3-2.4,1.5-2.7c5.7-1.6,11.5-3,17.4-4c1.2-0.2,2.3,0.6,2.6,1.8c0.2,1.2-0.6,2.3-1.8,2.6c-5.7,1-11.4,2.3-16.9,3.9
							C1219.9,1096.5,1219.7,1096.5,1219.5,1096.5z M1306.7,1094.4c-0.2,0-0.3,0-0.5-0.1c-5.6-1.3-11.4-2.4-17.1-3.1
							c-1.2-0.2-2.1-1.3-1.9-2.5c0.2-1.2,1.2-2.1,2.5-1.9c5.9,0.8,11.8,1.8,17.6,3.2c1.2,0.3,1.9,1.5,1.6,2.7
							C1308.6,1093.7,1307.7,1094.4,1306.7,1094.4z M1254.1,1090.3c-1.1,0-2.1-0.9-2.2-2c-0.1-1.2,0.8-2.3,2-2.4
							c4.3-0.3,8.8-0.5,13.1-0.5c0.7,0,1.6,0,2.4,0c0.8,0,1.6,0,2.4,0c1.2,0,2.2,1,2.1,2.3c0,1.2-1.1,2.2-2.3,2.1
							c-0.8,0-1.5,0-2.3,0c-0.8,0-1.5,0-2.3,0c-4.3,0-8.6,0.2-12.8,0.5C1254.2,1090.3,1254.2,1090.3,1254.1,1090.3z"/>
					</g>
				</g>
				<path class="st0" d="M1366,1152.6c-20.5,28.3-72.4,29.1-145.6,41.7c-56.2,9.7-65.5,70.4-66.8,98c2.1,0,4.3-0.2,6.5-0.3
					c8.5-0.8,17.8-3.3,26.7-7.9c4.5-2.2,8.8-5.2,13.1-8.3c2.1-1.7,4.2-3.4,6.3-5.1l6-5.8c4.5-4.2,9-8.8,13.5-12.9
					c4.4-4.2,9.4-8.2,14.2-12c4.7-3.9,9.6-7.2,14.3-10.3c4.6-3.1,9.4-5.7,13.9-7.9c4.3-2.4,9-3.7,12.7-5.1c4.1-1.1,7.5-1.9,10.6-2
					c3-0.3,5.3,0,6.9,0.4c1.5,0.3,2.3,0.5,2.3,0.5s-0.8,0.3-2.2,0.9c-0.7,0.3-1.5,0.6-2.5,1.1c-0.9,0.6-2,1.2-3.1,1.9
					c-2.3,1.2-4.7,3.6-7.6,5.7c-2.7,2.7-5.8,5.1-8.9,8.6c-3.2,3.2-6.7,6.6-10.2,10.6c-3.6,3.8-7.4,7.7-11.2,12
					c-3.9,4.2-8,8.5-12.1,12.9c-4.2,4.5-8.5,9-13,13.5l-7.7,7c-2.8,2.2-5.7,4.1-8.6,6.1c-5.9,3.7-12.2,6.9-18.7,8.9
					c-6.4,2.2-13,3.2-19.2,3.4c-6.2,0.2-12-0.6-17.1-1.7c-1.9-0.5-3.6-1.1-5.3-1.6c0,0.8,0.1,1.2,0.1,1.2l12.6,14.2
					C1307.8,1420.2,1388.8,1251.8,1366,1152.6z"/>
			</g>
		</g>
		<g>
			<path class="st4" d="M1185.7,1582.3l-790.4-3.8c-9.5-0.1-17.3,10.4-17.2,23.4l1.8,312.7c0.1,13,8,23.4,17.6,23l785.9-16.8
				c9.1-0.4,16.4-10.5,16.6-22.9l2.8-292.1C1202.7,1593,1195.1,1582.4,1185.7,1582.3z"/>
			<path class="st0" d="M396.9,1917.7c-1.5,0-2.6-1.4-2.6-3.1l-1.8-312.7c0-0.8,0.2-1.5,0.7-2.1c0.6-0.9,1.4-1.1,2-1.1l790.4,3.8
				c0.5,0,1.3,0.2,1.9,1.1c0.4,0.6,0.7,1.3,0.6,2.1l-2.8,292.1c0,1.7-1.1,3.1-2.5,3.1h0L396.9,1917.7z M395.2,1600.6
				c0,0-0.1,0-0.3,0.2c-0.2,0.2-0.3,0.6-0.3,0.9l1.8,312.7c0,0.7,0.4,1.1,0.6,1.1l785.9-16.8c0.2,0,0.5-0.5,0.5-1.1l2.8-292.1
				c0-0.4-0.1-0.7-0.3-0.9c-0.2-0.2-0.3-0.2-0.3-0.2L395.2,1600.6z"/>
			<g class="st27">
				<rect x="427.3" y="1743.9" class="st0" width="38.5" height="147"/>
				<rect x="491.6" y="1794.4" class="st0" width="38.5" height="96.5"/>
				<rect x="555.9" y="1669.6" class="st0" width="38.5" height="221.3"/>
				<rect x="620.1" y="1837.7" class="st0" width="38.5" height="53.2"/>
				<rect x="684.4" y="1699.2" class="st0" width="38.5" height="191.7"/>
				<rect x="748.7" y="1732.4" class="st0" width="38.5" height="158.5"/>
				<rect x="813" y="1768.5" class="st0" width="38.5" height="122.4"/>
				<rect x="877.2" y="1624.9" class="st0" width="38.5" height="266.1"/>
				<rect x="941.5" y="1653" class="st0" width="38.5" height="237.9"/>
				<rect x="1005.8" y="1695.6" class="st0" width="38.5" height="195.3"/>
				<rect x="1070" y="1842.7" class="st0" width="38.5" height="48.2"/>
				<rect x="1134.3" y="1749" class="st0" width="38.5" height="141.9"/>
			</g>
		</g>
	</g>
</g>
</svg>
