<?xml version="1.0" encoding="utf-8"?>
<!-- Generator: Adobe Illustrator 27.5.0, SVG Export Plug-In . SVG Version: 6.00 Build 0)  -->
<svg version="1.1" xmlns="http://www.w3.org/2000/svg" xmlns:xlink="http://www.w3.org/1999/xlink" x="0px" y="0px"
	 viewBox="0 0 500 500" style="enable-background:new 0 0 500 500;" xml:space="preserve">
<g id="Floor">
	<ellipse id="Floor_1_" style="fill:#F5F5F5;" cx="250" cy="347.807" rx="230.434" ry="133.019"/>
</g>
<g id="Shadows">
	<ellipse id="Shadow_5_" style="fill:#E0E0E0;" cx="423.78" cy="316.03" rx="38.265" ry="22.089"/>
	<path id="Shadow_8_" style="fill:#E0E0E0;" d="M175.849,424.828c-6.034,3.075,9.21,13.812,16.751,9.671l132.121-77.364
		l15.859-16.733c0.745-0.786-0.037-2.05-1.073-1.734l-30.597,9.339L175.849,424.828z"/>
	<path id="Shadow_3_" style="fill:#E0E0E0;" d="M87.909,421.572l-39.471-22.787c-1.17-0.675-1.17-1.77,0-2.445L334.245,231.33
		c1.17-0.675,3.066-0.675,4.235,0l39.469,22.788c1.17,0.675,1.17,1.77,0,2.445L92.145,421.572
		C90.975,422.247,89.079,422.247,87.909,421.572z"/>
	<path id="Shadow_28_" style="fill:#E0E0E0;" d="M105.103,412.21l7.683,4.436c1.17,0.675,3.066,0.675,4.235,0l241.939-139.684
		c1.17-0.675,1.176-1.781,0.015-2.47l-7.552-4.479c-1.162-0.689-3.051-0.7-4.221-0.025l-242.1,139.776
		C103.934,410.44,103.934,411.535,105.103,412.21z"/>
</g>
<g id="Plant">
	<g id="Plants_6_">
		<g id="XMLID_5127_">
			<g id="XMLID_5132_">
				<path id="XMLID_5135_" style="fill:#27DEBF;" d="M80.001,378.269c0,0,0.275-14.501-5.357-26.532
					c-5.632-12.031-14.476-20.249-23.49-22.18c-9.014-1.931-17.486,5.472-8.504,12.523c8.982,7.051,25.519,15.227,30.627,37.813
					L80.001,378.269z"/>
			</g>
			<g id="XMLID_5130_" style="opacity:0.15;">
				<path id="XMLID_5131_" d="M80.001,378.269c0,0,0.275-14.501-5.357-26.532c-5.632-12.031-14.476-20.249-23.49-22.18
					c-9.014-1.931-17.486,5.472-8.504,12.523c8.982,7.051,25.519,15.227,30.627,37.813L80.001,378.269z"/>
			</g>
			<g id="XMLID_5128_">
				<path id="XMLID_5129_" style="fill:#FFFFFF;" d="M77.823,374.204c0.034-0.002,0.067-0.006,0.1-0.016
					c0.263-0.068,0.42-0.336,0.352-0.598c-6.466-24.954-23.454-37.273-31.534-40.3c-0.252-0.097-0.536,0.034-0.632,0.287
					c-0.095,0.254,0.033,0.537,0.288,0.632c7.914,2.965,24.563,15.065,30.928,39.627C77.385,374.066,77.596,374.215,77.823,374.204z
					"/>
			</g>
		</g>
		<g id="XMLID_353_">
			<g id="XMLID_5122_">
				<g id="XMLID_5125_">
					<path id="XMLID_5126_" style="fill:#27DEBF;" d="M33.415,363.816c0.525,1.863,2.306,3.05,3.983,4.023
						c1.668,0.964,3.496,2.019,4.219,3.813c1.457,3.623-2.399,7.871-0.788,11.427c0.677,1.491,2.196,2.444,3.75,2.959
						c1.29,0.438,2.64,0.63,3.968,0.937c0.648,0.079,1.296,0.124,1.932,0.126c1.883-0.003,3.897,0.198,5.451,1.385
						c2.444,1.876,2.779,5.351,4.022,8.172c1.491,3.378,4.623,5.899,8.149,6.905c2.959,0.832,7.576,0.805,8.546-0.417
						c0.738-0.929-0.589-4.24-0.458-5.419c0.336-3.024,0.385-6.08,0.148-9.114c-0.115-1.477-0.212-2.68,0.01-4.15
						c0.232-1.539,0.454-3.08,0.665-4.622c0.228-1.67,0.807-2.922,0.448-4.687c-0.342-1.683-1.158-3.258-1.977-4.751
						c-0.814-1.484-1.641-2.96-2.482-4.429c-0.991-1.733-2.015-3.473-3.402-4.909c-2.407-2.492-5.88-3.918-9.343-3.839
						c-2.871,0.066-5.84,1.248-8.711,0.7c-2.793-0.533-5.439-1.681-8.337-1.893c-3.032-0.222-6.277,0.61-8.359,2.941
						C33.679,360.283,32.94,362.125,33.415,363.816z"/>
				</g>
			</g>
			<g id="XMLID_5120_">
				<path id="XMLID_5121_" style="fill:#FFFFFF;" d="M75.245,395.311c0.012,0,0.024-0.002,0.036-0.003
					c0.238-0.028,0.41-0.245,0.381-0.484c-3.22-27.208-30.286-34.96-36.812-35.422c-0.236-0.015-0.447,0.164-0.465,0.404
					c-0.017,0.24,0.164,0.448,0.404,0.465c6.384,0.451,32.858,8.035,36.01,34.655C74.823,395.155,75.02,395.32,75.245,395.311z"/>
			</g>
			<g id="XMLID_465_">
				<path id="XMLID_5072_" style="fill:#FFFFFF;" d="M46.476,377.627c0.086-0.003,0.172-0.032,0.245-0.088
					c0.079-0.06,8.117-5.991,19.549-2.594c0.231,0.065,0.474-0.063,0.542-0.293c0.069-0.231-0.063-0.474-0.293-0.542
					c-11.874-3.525-20.24,2.672-20.324,2.735c-0.192,0.145-0.229,0.418-0.085,0.61C46.2,377.572,46.338,377.632,46.476,377.627z"/>
			</g>
		</g>
	</g>
</g>
<g id="Clouds">
	<g id="Clouds_11_">
		<g>
			<g id="XMLID_16_">
				<path style="fill:#EBEBEB;" d="M170.535,90.484l-7.56,4.623c0.013-0.309,0.014-0.614-0.011-0.911l-0.169-1.981
					c-0.301-3.526-3.281-4.711-6.656-2.647c-1.367,0.836-2.584,2.079-3.534,3.493c-0.956-4.384-5.114-5.693-9.784-2.837
					c-5.05,3.088-8.778,9.867-8.328,15.142l0.253,2.964c0.117,1.366,0.507,2.492,1.102,3.365l-6.279,3.84
					c-1.872,1.145-3.254,3.658-3.088,5.614c0.167,1.956,1.82,2.613,3.692,1.468l40.966-25.05c1.872-1.145,3.255-3.658,3.088-5.614
					C174.06,89.997,172.407,89.339,170.535,90.484z"/>
			</g>
		</g>
	</g>
	<g id="Clouds_1_">
		<g>
			<g id="XMLID_15_">
				<path style="fill:#EBEBEB;" d="M133.783,66.824L122.03,74.01c0.02-0.48,0.022-0.955-0.017-1.416l-0.263-3.08
					c-0.468-5.481-5.101-7.324-10.349-4.115c-2.125,1.299-4.017,3.232-5.494,5.431c-1.487-6.816-7.95-8.85-15.21-4.411
					C82.846,71.22,77.049,81.76,77.75,89.96l0.393,4.608c0.181,2.124,0.788,3.874,1.713,5.231l-9.763,5.97
					c-2.911,1.78-5.06,5.688-4.8,8.728c0.26,3.04,2.83,4.063,5.74,2.283l63.689-38.945c2.911-1.78,5.06-5.688,4.8-8.728
					C139.264,66.066,136.694,65.044,133.783,66.824z"/>
			</g>
		</g>
	</g>
</g>
<g id="Device">
	<g id="Device_1_">
		<path id="XMLID_279_" style="fill:#27DEBF;" d="M363.257,32.644c-1.685-0.898-3.853-0.773-6.228,0.594L94.382,184.831
			c-2.583,1.491-4.93,4.198-6.684,7.402l-9.567-5.525c2.096-3.983,5.063-5.333,7.645-6.839L348.409,28.275
			c2.486-1.422,4.737-1.491,6.449-0.456v-0.014L363.257,32.644z"/>
		<path id="XMLID_275_" style="opacity:0.15;" d="M363.257,32.644c-1.685-0.898-3.853-0.773-6.228,0.594L94.382,184.831
			c-2.583,1.491-4.93,4.198-6.684,7.402l-9.567-5.525c2.096-3.983,5.063-5.333,7.645-6.839L348.409,28.275
			c2.486-1.422,4.737-1.491,6.449-0.456v-0.014L363.257,32.644z"/>
		<path id="XMLID_276_" style="fill:#27DEBF;" d="M79.438,407.111v-0.014c-2.099-1.174-3.425-3.95-3.425-7.899V198.513
			c0-4.489,0.313-8.501,2.118-11.805l9.567,5.525c-0.249,0.456-0.483,0.925-0.718,1.409c-0.18,0.387-0.345,0.773-0.497,1.16
			c-0.028,0.055-0.055,0.124-0.069,0.179c-0.193,0.442-0.359,0.898-0.511,1.353c-0.166,0.469-0.317,0.953-0.442,1.422
			c-0.11,0.359-0.193,0.718-0.263,1.077c-0.373,1.547-0.566,3.121-0.566,4.64V404.16c0,3.991,1.353,6.794,3.48,7.954L79.438,407.111
			z"/>
		<path id="XMLID_277_" style="opacity:0.5;" d="M79.438,407.111v-0.014c-2.099-1.174-3.425-3.95-3.425-7.899V198.513
			c0-4.489,0.313-8.501,2.118-11.805l9.567,5.525c-0.249,0.456-0.483,0.925-0.718,1.409c-0.18,0.387-0.345,0.773-0.497,1.16
			c-0.028,0.055-0.055,0.124-0.069,0.179c-0.193,0.442-0.359,0.898-0.511,1.353c-0.166,0.469-0.317,0.953-0.442,1.422
			c-0.11,0.359-0.193,0.718-0.263,1.077c-0.373,1.547-0.566,3.121-0.566,4.64V404.16c0,3.991,1.353,6.794,3.48,7.954L79.438,407.111
			z"/>
		<path id="XMLID_7049_" style="fill:#27DEBF;" d="M357.024,33.25L92.236,185.875c-5.389,3.111-7.608,8.458-7.608,15.643v202.651
			c0,7.185,4.369,10.488,9.758,7.377l262.638-151.583c5.389-3.111,9.757-11.458,9.757-18.644V40.627
			C366.781,33.442,362.412,30.139,357.024,33.25z"/>
		<path id="XMLID_274_" style="opacity:0.3;" d="M357.024,33.25L92.236,185.875c-5.389,3.111-7.608,8.458-7.608,15.643v202.651
			c0,7.185,4.369,10.488,9.758,7.377l262.638-151.583c5.389-3.111,9.757-11.458,9.757-18.644V40.627
			C366.781,33.442,362.412,30.139,357.024,33.25z"/>
		<path id="XMLID_7048_" style="fill:#37474F;" d="M343.944,258.163l-236.479,136.48c-2.793,1.612-5.056-0.099-5.056-3.823V196.279
			c0-3.723,2.264-8.049,5.056-9.662l236.479-136.48c2.793-1.612,5.056,0.099,5.056,3.823v194.541
			C349,252.225,346.736,256.551,343.944,258.163z"/>
		<path style="fill:#455A64;" d="M102.409,196.279V390.82c0,0.149,0.009,0.288,0.017,0.431l234.989-135.62
			c2.793-1.612,5.057-5.938,5.057-9.662V51.428c0-0.149-0.009-0.288-0.017-0.43l-234.989,135.62
			C104.672,188.23,102.409,192.556,102.409,196.279z"/>
		<path id="XMLID_7045_" style="fill:#263238;" d="M96.062,304.783c0,1.873-1.139,4.049-2.543,4.86
			c-1.405,0.811-2.544-0.05-2.544-1.923c0-1.873,1.139-4.049,2.544-4.86C94.923,302.049,96.062,302.91,96.062,304.783z"/>
		<path id="XMLID_7042_" style="fill:#263238;" d="M93.518,272.202L93.518,272.202c-1.092,0.63-1.978,2.322-1.978,3.778v17.319
			c0,1.456,0.885,2.125,1.978,1.495l0,0c1.092-0.631,1.977-2.322,1.977-3.778v-17.319C95.496,272.24,94.61,271.571,93.518,272.202z"
			/>
	</g>
</g>
<g id="Window">
	<g id="Window_6_">
		<path id="XMLID_5006_" style="fill:#27DEBF;" d="M113.776,225.858c-1.321-0.763-2.391-2.699-2.391-4.325l-0.004-19.906
			c0-1.626,1.145-3.604,2.553-4.417L349.822,60.936c1.408-0.813,3.621-0.854,4.942-0.091c1.321,0.763,2.392,2.699,2.387,4.324
			l0.002,19.908c0.005,1.627-1.137,3.602-2.546,4.416l-235.89,136.274C117.308,226.579,115.097,226.621,113.776,225.858z"/>
		<path id="XMLID_5005_" style="opacity:0.4;fill:#FFFFFF;" d="M357.127,64.754c-0.177-1.319-1.248-1.802-2.52-1.06L118.716,199.969
			c-0.695,0.412-1.331,1.107-1.802,1.908l-4.782-2.768c0.471-0.801,1.095-1.486,1.802-1.898L349.825,60.938
			c1.402-0.813,3.616-0.86,4.935-0.094C355.973,61.551,356.974,63.223,357.127,64.754z"/>
		<path id="XMLID_5004_" style="fill:#F0F0F0;" d="M118.717,412.125c-0.035,0.012-0.647,0.473-2.003,0.607
			c-1.05,0.104-2.143-0.055-2.932-0.515c-1.331-0.766-2.391-2.697-2.391-4.322l-0.012-176.068l4.793,2.768v176.056
			c0,1.154,0.58,1.821,1.416,1.821C117.706,412.472,118.162,412.436,118.717,412.125z"/>
		<path id="XMLID_5003_" style="opacity:0.1;" d="M116.914,201.877c-0.459,0.789-0.742,1.696-0.742,2.509v30.209l-4.793-2.768
			l0.002-30.2c0-0.106,0.004-0.201,0.013-0.308c0.02-0.239,0.051-0.42,0.098-0.632c0.13-0.53,0.348-1.093,0.64-1.578
			L116.914,201.877z"/>
		<path id="XMLID_5002_" style="fill:#27DEBF;" d="M357.151,65.167l0.002,13.627L195.258,172.35
			c-1.402,0.813-2.544,0.153-2.544-1.472v-5.159c0-1.625-1.142-2.285-2.556-1.472l-61.867,35.721
			c-1.413,0.813-2.556,2.791-2.556,4.417v5.159c0,1.625-1.142,3.604-2.544,4.417l-7.02,4.051v-13.627
			c0-1.625,1.143-3.604,2.544-4.417L354.607,63.694C356.008,62.882,357.151,63.541,357.151,65.167z"/>
		<g id="XMLID_5000_">
			<g id="XMLID_5001_">
				<path style="fill:#FAFAFA;" d="M117.583,411.87c-0.73,0-0.809-0.853-0.809-1.219V218.36l6.718-3.878
					c0.826-0.479,1.493-2.602,2.818-7.332c0.696-2.484,1.748-6.24,2.293-6.668l60.746-35.072c0.477,0.236,1.632,2.269,2.329,3.495
					c1.488,2.618,2.378,4.099,3.391,4.099c0.174,0,0.34-0.044,0.491-0.132l160.99-93.035v191.595c0,1.414-1.027,3.198-2.243,3.897
					L118.416,411.603C118.114,411.778,117.827,411.87,117.583,411.87z"/>
				<path style="fill:#E0E0E0;" d="M355.948,80.88v14.496v176.056c0,1.203-0.907,2.78-1.944,3.376L118.113,411.083
					c-0.288,0.167-0.466,0.185-0.53,0.185c-0.205,0-0.207-0.611-0.207-0.617V218.707l6.419-3.705
					c1.026-0.595,1.663-2.581,3.094-7.688c0.634-2.265,1.586-5.66,2.1-6.358l60.262-34.794c0.519,0.608,1.364,2.095,1.902,3.041
					c1.644,2.894,2.565,4.404,3.915,4.404c0.278,0,0.553-0.074,0.792-0.213L355.948,80.88 M189.724,165.889h0.005H189.724
					 M129.026,200.911h0.005H129.026 M357.153,78.793L195.258,172.35c-0.06,0.035-0.123,0.051-0.19,0.051
					c-1.425,0-4.319-7.608-5.754-7.608c-0.067,0-0.131,0.017-0.191,0.051l-60.833,35.124c-1.413,0.813-3.698,13.179-5.1,13.992
					l-7.02,4.052v192.639c0,1.154,0.576,1.821,1.411,1.821c0.342,0,0.727-0.112,1.134-0.348l235.89-136.273
					c1.413-0.813,2.546-2.794,2.546-4.419V95.376V78.793L357.153,78.793z"/>
			</g>
		</g>
		<g id="XMLID_973_">
			<path id="XMLID_976_" style="fill:#FFFFFF;" d="M345.196,73.712c1.772-1.023,3.209-0.194,3.209,1.853
				c0,2.046-1.437,4.534-3.209,5.557c-1.772,1.023-3.209,0.194-3.209-1.852C341.987,77.224,343.423,74.735,345.196,73.712z"/>
			<path id="XMLID_975_" style="fill:#FFFFFF;" d="M333.644,80.373c1.772-1.023,3.209-0.194,3.209,1.853s-1.437,4.535-3.209,5.558
				c-1.772,1.023-3.209,0.194-3.209-1.853C330.435,83.884,331.871,81.396,333.644,80.373z"/>
			<path id="XMLID_974_" style="fill:#FFFFFF;" d="M322.091,87.033c1.772-1.023,3.209-0.194,3.209,1.853s-1.437,4.534-3.209,5.558
				c-1.772,1.023-3.209,0.194-3.209-1.853C318.883,90.544,320.319,88.056,322.091,87.033z"/>
		</g>
		<g>
			<path id="XMLID_972_" style="fill:#E6E6E6;" d="M357.153,78.793v16.583L116.172,234.595v-16.583l5.242-3.036
				c1.401-0.813,1.873-2.048,2.544-4.417l1.777-6.174c0.561-2.143,1.143-3.604,2.556-4.417l60.833-35.124
				c1.413-0.813,2.516-0.902,3.591,0.875l2.181,3.958c0.8,1.382,1.2,2.195,2.602,1.383L357.153,78.793z"/>
			<polygon id="XMLID_959_" style="fill:#E0E0E0;" points="116.172,218.012 116.172,234.595 111.379,231.827 111.379,215.256 			"/>
		</g>
		<g>
			<path id="XMLID_957_" style="opacity:0.5;fill:#455A64;" d="M127.869,219.208l-4.003,2.311l1.526-2.935
				c0.134-0.258,0.148-0.579,0.03-0.717c-0.117-0.14-0.321-0.041-0.454,0.215l-2.172,4.177c-0.003,0.005-0.004,0.011-0.006,0.016
				c-0.024,0.048-0.042,0.101-0.058,0.154c-0.005,0.017-0.013,0.033-0.018,0.051c-0.018,0.071-0.028,0.144-0.028,0.216
				s0.01,0.132,0.028,0.183c0.004,0.013,0.012,0.019,0.018,0.03c0.016,0.035,0.034,0.067,0.058,0.087
				c0.003,0.002,0.003,0.007,0.006,0.009l2.172,1.669c0.061,0.047,0.136,0.044,0.212,0c0.089-0.052,0.179-0.16,0.242-0.309
				c0.118-0.274,0.104-0.579-0.03-0.682l-1.526-1.173l4.003-2.311c0.178-0.103,0.322-0.408,0.322-0.682
				C128.191,219.243,128.047,219.105,127.869,219.208z"/>
			<path id="XMLID_956_" style="opacity:0.5;fill:#455A64;" d="M131.212,217.277l4.003-2.311l-1.526-1.173
				c-0.134-0.103-0.148-0.408-0.03-0.682c0.117-0.275,0.321-0.411,0.454-0.309l2.172,1.67c0.003,0.002,0.004,0.007,0.006,0.009
				c0.024,0.02,0.042,0.052,0.058,0.087c0.005,0.011,0.014,0.018,0.018,0.03c0.018,0.051,0.028,0.112,0.028,0.183
				c0,0.071-0.011,0.144-0.028,0.216c-0.004,0.018-0.012,0.034-0.018,0.051c-0.016,0.054-0.034,0.106-0.058,0.154
				c-0.003,0.005-0.003,0.011-0.006,0.016l-2.172,4.177c-0.061,0.118-0.137,0.201-0.212,0.245c-0.089,0.052-0.179,0.046-0.242-0.03
				c-0.118-0.138-0.104-0.46,0.03-0.717l1.526-2.935l-4.003,2.311c-0.178,0.103-0.322-0.036-0.322-0.31
				C130.89,217.685,131.034,217.38,131.212,217.277z"/>
			<path id="XMLID_955_" style="opacity:0.5;fill:#455A64;" d="M144.344,205.75c-0.025-0.242-0.235-0.21-0.342,0.051l-0.549,1.341
				c-0.934-0.102-2.068,0.811-2.833,2.431c-0.991,2.099-0.991,4.582,0,5.537c0.496,0.477,1.147,0.483,1.798,0.106
				c0.651-0.376,1.302-1.133,1.798-2.182c0.126-0.266,0.126-0.58,0-0.701c-0.126-0.121-0.33-0.003-0.456,0.263
				c-0.74,1.565-1.945,2.263-2.685,1.55c-0.74-0.712-0.74-2.567,0-4.134c0.527-1.115,1.284-1.775,1.946-1.815l-0.413,1.011
				c-0.107,0.262-0.009,0.507,0.159,0.397l1.632-1.066c0.115-0.075,0.199-0.283,0.183-0.448L144.344,205.75z"/>
			<path id="XMLID_954_" style="opacity:0.5;fill:#455A64;" d="M187.368,172.414l1.459-3.089c0.173-0.365,0.173-0.795,0-0.962
				c-0.173-0.166-0.452-0.005-0.625,0.361l-1.459,3.089l-1.459-1.404c-0.173-0.166-0.452-0.005-0.625,0.361
				c-0.173,0.365-0.173,0.796,0,0.962l1.459,1.404l-1.459,3.089c-0.173,0.365-0.173,0.796,0,0.962
				c0.086,0.083,0.199,0.084,0.312,0.019c0.113-0.065,0.226-0.197,0.312-0.379l1.459-3.089l1.459,1.404
				c0.086,0.083,0.199,0.084,0.312,0.019c0.113-0.065,0.226-0.197,0.312-0.379c0.173-0.365,0.173-0.796,0-0.961L187.368,172.414z"/>
			<path id="XMLID_953_" style="fill:#FAFAFA;" d="M149.656,209.547v-5.16c0-1.626,1.142-3.604,2.55-4.417L340.254,91.377
				c1.408-0.813,2.55-0.154,2.55,1.472l0,5.16c0,1.626-1.142,3.604-2.55,4.417L152.206,211.02
				C150.798,211.833,149.656,211.174,149.656,209.547z"/>
			<path id="XMLID_952_" style="fill:none;stroke:#E0E0E0;stroke-width:0.9031;stroke-miterlimit:10;" d="M338.767,94.103
				l0.67,1.423c0.042,0.09,0.124,0.122,0.218,0.085l1.498-0.574c0.238-0.091,0.333,0.244,0.161,0.567l-1.084,2.034
				c-0.068,0.128-0.099,0.274-0.083,0.39l0.256,1.841c0.041,0.292-0.208,0.677-0.421,0.65l-1.339-0.166
				c-0.085-0.01-0.185,0.048-0.27,0.156l-1.339,1.712c-0.213,0.272-0.461,0.175-0.421-0.165l0.256-2.136
				c0.016-0.135-0.015-0.245-0.083-0.294l-1.084-0.783c-0.172-0.124-0.077-0.569,0.161-0.752l1.497-1.155
				c0.094-0.073,0.176-0.199,0.219-0.338l0.67-2.196C338.353,94.055,338.66,93.878,338.767,94.103z"/>
			<g id="XMLID_931_" style="opacity:0.5;">
				<g id="XMLID_944_">
					<path id="XMLID_945_" style="fill:#455A64;" d="M345.81,90.747c-0.306,0-0.603-0.158-0.766-0.442
						c-0.244-0.423-0.099-0.963,0.323-1.207l7.176-4.144c0.424-0.244,0.963-0.099,1.207,0.323c0.244,0.423,0.099,0.963-0.323,1.207
						l-7.176,4.143C346.112,90.709,345.96,90.747,345.81,90.747z"/>
				</g>
				<g id="XMLID_936_">
					<path id="XMLID_937_" style="fill:#455A64;" d="M345.81,94.892c-0.306,0-0.603-0.158-0.766-0.442
						c-0.244-0.423-0.099-0.963,0.323-1.207l7.176-4.143c0.424-0.246,0.963-0.099,1.207,0.323c0.244,0.423,0.099,0.963-0.323,1.207
						l-7.176,4.144C346.112,94.854,345.96,94.892,345.81,94.892z"/>
				</g>
				<g id="XMLID_932_">
					<path id="XMLID_933_" style="fill:#455A64;" d="M345.81,99.037c-0.306,0-0.603-0.158-0.766-0.442
						c-0.244-0.423-0.099-0.963,0.323-1.207l7.176-4.144c0.424-0.246,0.963-0.099,1.207,0.323c0.244,0.423,0.099,0.963-0.323,1.207
						l-7.176,4.143C346.112,98.999,345.96,99.037,345.81,99.037z"/>
				</g>
			</g>
		</g>
		<g>
			<polygon style="fill:#455A64;" points="116.172,234.595 116.162,251.155 357.122,111.968 357.153,95.376 			"/>
			<polygon style="fill:#37474F;" points="111.379,248.387 116.172,251.155 116.172,234.595 111.379,231.827 			"/>
			<g>
				<g id="XMLID_541_">
					<g id="XMLID_542_">
						<path id="XMLID_929_" style="fill:#FAFAFA;" d="M146.047,224.035l0.001,3.202c0,0.655,0.464,0.922,1.031,0.595l40.069-23.15
							l0-5.583l-40.069,23.15C146.511,222.577,146.047,223.38,146.047,224.035z"/>
						<path id="XMLID_928_" style="fill:#27DEBF;" d="M192.563,195.972c0.569-0.329,1.031-0.062,1.031,0.595v3.202
							c0,0.657-0.461,1.457-1.031,1.785l-5.416,3.127l0-5.583L192.563,195.972z"/>
						<path id="XMLID_543_" style="fill:#FAFAFA;" d="M192.163,200.363l-0.604-0.188c0.062-0.256,0.097-0.52,0.097-0.778
							c0-0.618-0.201-1.088-0.551-1.29c-0.26-0.15-0.573-0.135-0.88,0.043c-0.677,0.391-1.207,1.494-1.207,2.512
							c0,0.618,0.201,1.088,0.551,1.29c0.119,0.068,0.248,0.102,0.383,0.102c0.161,0,0.33-0.049,0.497-0.145
							c0.407-0.235,0.758-0.729,0.976-1.306l0.605,0.189c0.022,0.007,0.045,0.01,0.067,0.01c0.096,0,0.184-0.061,0.214-0.158
							C192.347,200.526,192.281,200.4,192.163,200.363z M190.224,201.521c-0.168,0.097-0.313,0.112-0.432,0.043
							c-0.201-0.116-0.327-0.462-0.327-0.902c0-0.844,0.45-1.816,0.983-2.124c0.098-0.056,0.189-0.085,0.271-0.085
							c0.058,0,0.112,0.014,0.161,0.043c0.201,0.117,0.327,0.462,0.327,0.902C191.207,200.24,190.757,201.213,190.224,201.521z"/>
					</g>
				</g>
				<path style="fill:#FAFAFA;" d="M139.057,226.897l-2.739,1.581c-0.563,0.325-1.02,1.116-1.02,1.767v3.169
					c0,0.651,0.457,0.914,1.02,0.589l2.738-1.581c0.563-0.325,1.02-1.116,1.02-1.767l0-3.169
					C140.077,226.836,139.62,226.572,139.057,226.897z"/>
				<g>
					<g id="XMLID_470_">
						<path id="XMLID_540_" style="fill:#27DEBF;" d="M208.291,185.504c-2.018,1.166-3.655,4-3.655,6.331
							c0,2.331,1.637,3.276,3.655,2.11c2.018-1.166,3.657-4,3.655-6.332C211.944,185.284,210.307,184.339,208.291,185.504z"/>
						<g id="XMLID_471_">
							<g id="XMLID_526_">
								<path id="XMLID_529_" style="fill:#FFFFFF;" d="M207.864,189.222c-0.117,0-0.226-0.028-0.324-0.085
									c-0.227-0.131-0.352-0.391-0.352-0.731c0-0.623,0.423-1.355,0.963-1.667v-0.001c0.294-0.17,0.58-0.191,0.809-0.06
									c0.227,0.131,0.352,0.391,0.352,0.731c0,0.623-0.423,1.355-0.962,1.667C208.182,189.173,208.017,189.222,207.864,189.222z"
									/>
							</g>
							<g id="XMLID_492_">
								<path id="XMLID_522_" style="fill:#FFFFFF;" d="M209.734,189.465c-0.359-0.208-0.816-0.173-1.287,0.099l-0.531,0.305
									c-0.922,0.534-1.644,1.785-1.644,2.85v0.376c0.521,0.289,1.231,0.24,2.018-0.214c0.785-0.452,1.498-1.226,2.018-2.114
									v-0.091C210.309,190.116,210.101,189.676,209.734,189.465z"/>
							</g>
						</g>
					</g>
					<path style="fill:#E0E0E0;" d="M216.653,182.669l25.033-14.453c1.014-0.585,1.836-0.141,1.836,0.992
						c0,1.133-0.822,2.526-1.836,3.112l-25.032,14.453c-1.014,0.585-1.836,0.141-1.837-0.992
						C214.817,184.648,215.639,183.255,216.653,182.669z"/>
					<path style="fill:#E0E0E0;" d="M254.863,160.642l15.527-9.052c1.014-0.585,1.836-0.141,1.836,0.992
						c0,1.133-0.822,2.526-1.835,3.112l-15.527,9.052c-1.014,0.585-1.836,0.141-1.837-0.992
						C253.027,162.62,253.848,161.227,254.863,160.642z"/>
					<path style="fill:#E0E0E0;" d="M283.599,144.13l10.712-6.223c1.014-0.585,1.836-0.141,1.836,0.992
						c0,1.133-0.821,2.527-1.835,3.112l-10.712,6.222c-1.014,0.585-1.836,0.141-1.836-0.992
						C281.763,146.109,282.585,144.716,283.599,144.13z"/>
					<g>
						<path style="fill:#263238;" d="M248.306,169.719c-0.244,0-0.442-0.198-0.442-0.442v-5.524c0-0.244,0.198-0.442,0.442-0.442
							c0.244,0,0.442,0.198,0.442,0.442v5.524C248.748,169.521,248.55,169.719,248.306,169.719z"/>
					</g>
					<g>
						<path style="fill:#263238;" d="M277.011,153.147c-0.244,0-0.442-0.198-0.442-0.442v-5.524c0-0.244,0.198-0.442,0.442-0.442
							c0.244,0,0.442,0.198,0.442,0.442v5.524C277.452,152.949,277.254,153.147,277.011,153.147z"/>
						<path style="fill:#263238;" d="M300.931,139.336c-0.244,0-0.442-0.198-0.442-0.442v-5.524c0-0.244,0.198-0.442,0.442-0.442
							c0.244,0,0.442,0.198,0.442,0.442v5.524C301.372,139.138,301.174,139.336,300.931,139.336z"/>
					</g>
				</g>
				<g>
					<g id="XMLID_432_">
						<path id="XMLID_469_" style="fill:#27DEBF;" d="M310.133,130.816V129.8c0-1.159-0.705-1.692-1.574-1.19l0,0
							c-0.869,0.502-1.574,1.848-1.574,3.007v0.908c0,0.571-0.198,1.22-0.53,1.773c-0.001,0.001-0.002,0.003-0.002,0.004
							c-0.079,0.142-0.129,0.31-0.129,0.464l0,0c0,0.292,0.178,0.426,0.396,0.3l3.676-2.122c0.219-0.126,0.396-0.466,0.396-0.758
							l0,0c0-0.146-0.044-0.253-0.116-0.307c-0.002-0.001-0.004-0.002-0.006-0.004C310.347,131.73,310.133,131.363,310.133,130.816z
							"/>
						<path id="XMLID_463_" style="fill:#27DEBF;" d="M309.315,133.883c0,0.556-0.338,1.203-0.756,1.444
							c-0.417,0.241-0.755-0.015-0.755-0.571L309.315,133.883z"/>
					</g>
					<g>
						<g id="XMLID_393_">
							<g id="XMLID_409_">
								<path id="XMLID_449_" style="fill:#27DEBF;" d="M316.857,126.364c-0.132,0-0.255-0.032-0.366-0.095
									c-0.256-0.148-0.397-0.441-0.397-0.825c0-0.703,0.477-1.53,1.086-1.881v-0.001c0.331-0.192,0.655-0.216,0.913-0.068
									c0.256,0.148,0.398,0.441,0.398,0.826c0,0.703-0.477,1.53-1.086,1.881C317.216,126.309,317.03,126.364,316.857,126.364z"/>
							</g>
							<g id="XMLID_395_">
								<path id="XMLID_402_" style="fill:#27DEBF;" d="M318.968,126.638c-0.405-0.235-0.921-0.195-1.452,0.112l-0.599,0.344
									c-1.04,0.602-1.856,2.015-1.856,3.217v0.424c0.587,0.327,1.39,0.271,2.278-0.241c0.886-0.51,1.69-1.383,2.278-2.386v-0.103
									C319.617,127.374,319.382,126.877,318.968,126.638z"/>
							</g>
						</g>
						<g id="XMLID_343_">
							<g id="XMLID_386_">
								<path id="XMLID_388_" style="fill:#27DEBF;" d="M319.774,123.637c-0.132,0-0.255-0.031-0.366-0.095
									c-0.256-0.148-0.397-0.441-0.397-0.825c0-0.703,0.477-1.53,1.086-1.881v-0.001c0.331-0.192,0.655-0.216,0.913-0.068
									c0.256,0.148,0.398,0.441,0.398,0.825c0,0.703-0.477,1.529-1.086,1.881C320.133,123.582,319.947,123.637,319.774,123.637z"
									/>
							</g>
							<g id="XMLID_350_">
								<path id="XMLID_375_" style="fill:#27DEBF;" d="M321.889,123.913c-0.412-0.236-0.919-0.2-1.46,0.106l-0.589,0.353
									c-0.648,0.365-1.201,1.048-1.519,1.79c0.471-0.224,0.93-0.236,1.284-0.024c0.412,0.236,0.648,0.73,0.648,1.366v0.094v0.165
									c0.895-0.506,1.696-1.378,2.285-2.379v-0.106C322.536,124.644,322.301,124.149,321.889,123.913z"/>
							</g>
						</g>
					</g>
					<path style="fill:#27DEBF;" d="M329.161,116.375c-1.654,0.955-2.995,3.285-2.995,5.204c0,0.824,0.258,1.423,0.671,1.78
						l-0.375,1.776c-0.048,0.227,0.103,0.321,0.247,0.153l1.348-1.576c0.342-0.039,0.714-0.161,1.105-0.387
						c1.654-0.955,2.995-3.285,2.995-5.204C332.156,116.202,330.815,115.42,329.161,116.375z"/>
					<g>
						<path style="fill:#27DEBF;" d="M343.564,107.989c0.263-0.152,0.51-0.239,0.742-0.26c0.234-0.022,0.435,0.017,0.606,0.116
							c0.171,0.1,0.305,0.256,0.403,0.471c0.099,0.214,0.148,0.483,0.148,0.808c0,0.26-0.028,0.504-0.084,0.731
							c-0.057,0.227-0.128,0.445-0.214,0.654c-0.087,0.209-0.182,0.407-0.286,0.592c-0.102,0.186-0.203,0.368-0.299,0.547
							c-0.096,0.178-0.183,0.357-0.26,0.535c-0.078,0.178-0.131,0.355-0.159,0.53c-0.014,0.088-0.037,0.169-0.067,0.245
							c-0.031,0.076-0.072,0.127-0.122,0.157l-0.858,0.496c-0.053,0.03-0.098,0.027-0.134-0.009
							c-0.038-0.037-0.056-0.094-0.056-0.174c0-0.238,0.032-0.469,0.094-0.694c0.064-0.224,0.142-0.441,0.235-0.65
							c0.095-0.209,0.197-0.411,0.307-0.604c0.11-0.194,0.212-0.377,0.305-0.551c0.095-0.173,0.173-0.339,0.237-0.499
							c0.063-0.16,0.095-0.311,0.095-0.455c0-0.209-0.052-0.344-0.156-0.404c-0.102-0.059-0.261-0.027-0.478,0.097
							c-0.211,0.122-0.362,0.258-0.454,0.409c-0.092,0.15-0.159,0.295-0.2,0.435c-0.043,0.14-0.079,0.268-0.11,0.383
							c-0.031,0.115-0.09,0.198-0.179,0.249l-0.86,0.496c-0.041,0.024-0.078,0.024-0.108-0.002
							c-0.031-0.026-0.046-0.074-0.046-0.147c0.005-0.255,0.052-0.547,0.14-0.877c0.09-0.329,0.217-0.66,0.383-0.99
							c0.168-0.331,0.371-0.642,0.609-0.931C342.981,108.402,343.254,108.168,343.564,107.989z M344.176,115.034
							c0,0.079-0.018,0.159-0.057,0.238c-0.037,0.079-0.082,0.134-0.133,0.164l-0.887,0.512c-0.052,0.03-0.096,0.026-0.133-0.01
							c-0.038-0.036-0.057-0.094-0.057-0.173v-1.094c0-0.079,0.018-0.159,0.057-0.239c0.037-0.079,0.081-0.134,0.133-0.163
							l0.887-0.512c0.05-0.03,0.096-0.027,0.133,0.009c0.038,0.036,0.057,0.094,0.057,0.173V115.034z"/>
					</g>
				</g>
			</g>
		</g>
		<g>
			<g>
				<path style="fill:#E0E0E0;" d="M135.591,262.783l12.277-7.055c0.588-0.339,1.064-0.101,1.064,0.533
					c0,0.633-0.476,1.422-1.064,1.761l-12.277,7.055c-0.588,0.339-1.064,0.101-1.064-0.533S135.003,263.122,135.591,262.783z"/>
				<path style="fill:#27DEBF;" d="M130.554,263.975c1.372-0.792,2.483-0.15,2.483,1.434c0,1.584-1.112,3.509-2.483,4.301
					c-1.372,0.792-2.483,0.15-2.483-1.434C128.07,266.693,129.182,264.767,130.554,263.975z"/>
				<path style="opacity:0.1;" d="M130.554,263.975c1.372-0.792,2.483-0.15,2.483,1.434c0,1.584-1.112,3.509-2.483,4.301
					c-1.372,0.792-2.483,0.15-2.483-1.434C128.07,266.693,129.182,264.767,130.554,263.975z"/>
			</g>
			<g>
				<path style="fill:#E0E0E0;" d="M135.591,271.952l12.277-7.055c0.588-0.339,1.064-0.101,1.064,0.533s-0.476,1.422-1.064,1.761
					l-12.277,7.055c-0.588,0.339-1.064,0.101-1.064-0.533C134.527,273.079,135.003,272.291,135.591,271.952z"/>
				<path style="fill:#27DEBF;" d="M130.554,273.144c1.372-0.792,2.483-0.15,2.483,1.434c0,1.584-1.112,3.509-2.483,4.301
					c-1.372,0.792-2.483,0.15-2.483-1.434C128.07,275.862,129.182,273.936,130.554,273.144z"/>
				<path style="opacity:0.15;" d="M130.554,273.144c1.372-0.792,2.483-0.15,2.483,1.434c0,1.584-1.112,3.509-2.483,4.301
					c-1.372,0.792-2.483,0.15-2.483-1.434C128.07,275.862,129.182,273.936,130.554,273.144z"/>
			</g>
			<g>
				<path style="fill:#E0E0E0;" d="M135.591,281.121l12.277-7.055c0.588-0.339,1.064-0.101,1.064,0.533
					c0,0.633-0.476,1.422-1.064,1.761l-12.277,7.055c-0.588,0.339-1.064,0.101-1.064-0.533S135.003,281.46,135.591,281.121z"/>
				<path style="fill:#27DEBF;" d="M130.554,282.313c1.372-0.792,2.483-0.15,2.483,1.434c0,1.584-1.112,3.509-2.483,4.301
					c-1.372,0.792-2.483,0.15-2.483-1.434C128.07,285.03,129.182,283.105,130.554,282.313z"/>
				<path style="opacity:0.2;" d="M130.554,282.313c1.372-0.792,2.483-0.15,2.483,1.434c0,1.584-1.112,3.509-2.483,4.301
					c-1.372,0.792-2.483,0.15-2.483-1.434C128.07,285.03,129.182,283.105,130.554,282.313z"/>
			</g>
			<g>
				<path style="fill:#E0E0E0;" d="M135.591,290.29l12.277-7.055c0.588-0.339,1.064-0.101,1.064,0.533
					c0,0.633-0.476,1.422-1.064,1.761l-12.277,7.055c-0.588,0.339-1.064,0.101-1.064-0.533S135.003,290.629,135.591,290.29z"/>
				<path style="fill:#27DEBF;" d="M130.554,291.482c1.372-0.792,2.483-0.15,2.483,1.434c0,1.584-1.112,3.509-2.483,4.301
					c-1.372,0.792-2.483,0.15-2.483-1.434S129.182,292.274,130.554,291.482z"/>
				<path style="opacity:0.25;" d="M130.554,291.482c1.372-0.792,2.483-0.15,2.483,1.434c0,1.584-1.112,3.509-2.483,4.301
					c-1.372,0.792-2.483,0.15-2.483-1.434S129.182,292.274,130.554,291.482z"/>
			</g>
			<g>
				<path style="fill:#E0E0E0;" d="M135.591,299.458l12.277-7.055c0.588-0.339,1.064-0.101,1.064,0.533
					c0,0.634-0.476,1.422-1.064,1.761l-12.277,7.055c-0.588,0.339-1.064,0.101-1.064-0.533
					C134.527,300.586,135.003,299.798,135.591,299.458z"/>
				<path style="fill:#27DEBF;" d="M130.554,300.651c1.372-0.792,2.483-0.15,2.483,1.434c0,1.584-1.112,3.509-2.483,4.301
					c-1.372,0.792-2.483,0.15-2.483-1.434C128.07,303.368,129.182,301.442,130.554,300.651z"/>
				<path style="opacity:0.3;" d="M130.554,300.651c1.372-0.792,2.483-0.15,2.483,1.434c0,1.584-1.112,3.509-2.483,4.301
					c-1.372,0.792-2.483,0.15-2.483-1.434C128.07,303.368,129.182,301.442,130.554,300.651z"/>
			</g>
			<g>
				<path style="fill:#E0E0E0;" d="M135.591,249.026l17.738-10.241c0.588-0.339,1.064-0.101,1.064,0.533
					c0,0.634-0.476,1.422-1.064,1.761l-17.738,10.241c-0.588,0.339-1.064,0.101-1.064-0.533
					C134.527,250.153,135.003,249.365,135.591,249.026z"/>
				<g>
					<path style="fill:#27DEBF;" d="M130.554,250.218c1.372-0.792,2.483-0.15,2.483,1.434c0,1.584-1.112,3.509-2.483,4.301
						c-1.372,0.792-2.483,0.15-2.483-1.434C128.07,252.936,129.182,251.01,130.554,250.218z"/>
					<path style="fill:#FFFFFF;" d="M131.249,251.506c0,0.47-0.322,1.036-0.719,1.265c-0.397,0.229-0.719,0.034-0.719-0.435
						c0-0.47,0.322-1.036,0.719-1.266C130.927,250.842,131.249,251.037,131.249,251.506z"/>
					<path style="fill:#FFFFFF;" d="M131.872,253.9v0.01c-0.35,0.585-0.821,1.095-1.346,1.398c-0.518,0.299-0.996,0.337-1.339,0.152
						v-0.01c0.007-0.885,0.599-1.921,1.339-2.348C131.267,252.675,131.865,253.024,131.872,253.9z"/>
				</g>
			</g>
		</g>
		<g>
			<path style="fill:#E0E0E0;" d="M158.366,379.734c-0.27,0-0.489-0.219-0.489-0.489v-146.81c0-0.27,0.219-0.489,0.489-0.489
				c0.27,0,0.489,0.219,0.489,0.489v146.81C158.855,379.516,158.636,379.734,158.366,379.734z"/>
		</g>
	</g>
</g>
<g id="Status_2_">
	<g id="Status_1_">
		<path style="fill:#F0F0F0;" d="M168.43,231.213l174.556-100.78c1.17-0.675,2.118-0.128,2.118,1.223l0,36.4
			c0,1.35-0.948,2.993-2.118,3.668L168.43,272.503c-1.17,0.675-2.118,0.128-2.118-1.223l0-36.4
			C166.312,233.53,167.26,231.888,168.43,231.213z"/>
		<path style="fill:#37474F;" d="M177.809,261.166c0,0.138-0.154,0.461-0.309,0.551c0,0,0.047,0.097,0.047,0.262
			c0.001,0.199-0.166,0.496-0.405,0.634c-0.239,0.137-1.824,1.055-1.824,1.055l-0.002-2.381c0,0,0,0,0-0.001
			c0.021-0.046,0.502-1.145,0.547-1.309c0.048-0.164,0-0.743,0-0.853c0-0.089,0.296-0.304,0.485-0.216c0.001,0,0.002,0,0.003,0.001
			h0.001c0.044,0.023,0.081,0.06,0.107,0.118c0.056,0.124,0.092,0.249,0.11,0.38c0.029,0.204,0.013,0.423-0.037,0.678l1.103-0.637
			c0.091-0.054,0.163-0.055,0.214-0.029c0.079,0.04,0.114,0.146,0.114,0.237c0.002,0.215-0.117,0.401-0.177,0.476
			c0,0,0.219-0.065,0.219,0.23c0,0.167-0.1,0.404-0.268,0.541C177.737,260.905,177.809,260.96,177.809,261.166z"/>
		<path style="fill:#37474F;" d="M175.055,263.516v0.504c0,0.066-0.046,0.148-0.105,0.181l-0.586,0.339c0,0-0.001,0-0.001,0.001
			c-0.029,0.016-0.066,0.025-0.105,0.025v-2.737l0.482-0.277v-0.001l0.284-0.163c0.018,0.033,0.03,0.07,0.03,0.103L175.055,263.516z
			"/>
		<path style="fill:#37474F;" d="M181.203,257.202l12.277-7.055c0.588-0.339,1.064-0.101,1.064,0.533s-0.476,1.422-1.064,1.761
			l-12.277,7.055c-0.588,0.339-1.064,0.101-1.064-0.533C180.139,258.33,180.615,257.541,181.203,257.202z"/>
		<path style="fill:#37474F;" d="M243.878,220.745l12.277-7.055c0.588-0.339,1.064-0.101,1.064,0.533
			c0,0.633-0.476,1.422-1.064,1.761l-12.277,7.055c-0.588,0.339-1.064,0.101-1.064-0.533
			C242.815,221.873,243.291,221.084,243.878,220.745z"/>
		<path style="fill:#37474F;" d="M239.464,223.015c0-0.405-0.285-0.569-0.635-0.367l-3.864,2.231
			c-0.351,0.203-0.635,0.695-0.635,1.1v2.647c0,0.405,0.285,0.571,0.637,0.37l1.071-0.611l-0.036,0.916
			c-0.002,0.061,0.074,0.09,0.113,0.043l1.578-1.904l1.136-0.648c0.352-0.201,0.637-0.692,0.637-1.097L239.464,223.015z"/>
		<path style="fill:#37474F;" d="M319.909,176.976l12.277-7.055c0.588-0.339,1.064-0.101,1.064,0.533
			c0,0.634-0.476,1.422-1.064,1.761l-12.277,7.055c-0.588,0.339-1.064,0.101-1.064-0.533
			C318.845,178.103,319.322,177.315,319.909,176.976z"/>
		<path style="fill:#37474F;" d="M315.978,180.404l-2.98-0.928v1.584c-0.625,0.408-1.849,0.732-2.945,2.37
			c-1.642,2.454-0.453,3.852,0.102,3.955c0,0-0.871-0.597,0.088-2.351c0.479-0.876,1.726-1.735,2.755-2.066l0,1.806L315.978,180.404
			z"/>
		<g>
			<path style="fill:#27DEBF;" d="M191.965,234.005c0,4.049-1.662,8.609-4.243,12.39c-0.258,0.38-0.525,0.756-0.806,1.118
				c-0.937,1.236-1.979,2.368-3.088,3.338c-0.874,0.765-1.789,1.436-2.735,1.979c-1.096,0.634-2.151,1.06-3.147,1.286
				c-0.729,0.163-1.426,0.226-2.083,0.186c-0.797-0.045-1.531-0.236-2.192-0.571c-2.119-1.064-3.446-3.559-3.446-7.173
				c0-6.933,4.868-15.366,10.869-18.83C187.097,224.26,191.965,227.072,191.965,234.005z"/>
			<path style="opacity:0.4;" d="M191.965,234.005c0,4.049-1.662,8.609-4.243,12.39c-0.258,0.38-0.525,0.756-0.806,1.118
				c-0.937,1.236-1.979,2.368-3.088,3.338c-0.874,0.765-1.789,1.436-2.735,1.979c-1.096,0.634-2.151,1.06-3.147,1.286
				c-0.729,0.163-1.426,0.226-2.083,0.186c-0.797-0.045-1.531-0.236-2.192-0.571c-2.119-1.064-3.446-3.559-3.446-7.173
				c0-6.933,4.868-15.366,10.869-18.83C187.097,224.26,191.965,227.072,191.965,234.005z"/>
			<g id="XMLID_978_">
				<g id="XMLID_979_">
					<g id="XMLID_981_">
						<g id="XMLID_5025_">
							<g id="XMLID_5030_">
								<path id="XMLID_5033_" style="fill:#263238;" d="M184.482,247.209c-0.313,1.009-0.775,1.953-1.466,2.756
									c-0.651,0.756-1.45,1.263-2.326,1.717c-0.884,0.459-1.952,0.477-2.946,0.405c-0.878-0.064-1.76-0.301-2.479-0.81
									c-0.718-0.508-1.255-1.311-1.319-2.189c-0.064-0.891,0.362-1.77,0.992-2.403c-1.038-0.551-1.537-1.939-1.088-3.025
									c0.277-0.67,0.837-1.173,1.326-1.708c0.933-1.023,1.218-2.104,1.371-3.438c0.11-0.955,0.176-1.923,0.445-2.846
									c0.139-0.475,0.336-0.936,0.606-1.351c0.37-0.566,0.78-0.968,1.278-1.415c0.529-0.474,1.246-0.898,1.866-1.243
									c1.214-0.675,2.633-1.144,4.037-1.027c0.965,0.08,1.93,0.521,2.487,1.312c0.558,0.791,0.62,1.949,0.019,2.708
									c0.503,0.054,0.915,0.468,1.086,0.945s0.137,1.002,0.037,1.498c-0.221,1.103-0.76,2.141-1.534,2.956
									c-0.424,0.446-0.921,0.834-1.237,1.361c-0.419,0.7-0.465,1.552-0.521,2.365
									C185.029,245.079,184.868,245.967,184.482,247.209z"/>
								<path id="XMLID_5032_" style="fill:#263238;" d="M177.117,235.564l-1.703-0.837c0.242-0.352,0.819-0.45,1.289-0.219
									C177.173,234.738,177.358,235.211,177.117,235.564z"/>
								<path id="XMLID_5031_" style="fill:#263238;" d="M177.18,235.257l-0.894-1.674c0.402-0.145,0.928,0.112,1.175,0.575
									C177.708,234.62,177.582,235.112,177.18,235.257z"/>
							</g>
							<path style="fill:#B16668;" d="M187.722,246.395c-0.258,0.38-0.525,0.756-0.806,1.118c-0.937,1.236-1.979,2.368-3.088,3.338
								c-0.172-0.498-0.326-0.946-0.453-1.35c-0.091-0.299-0.168-0.575-0.222-0.833c-0.272-1.155-0.186-1.938,0.476-2.69
								c0.118-0.14,0.263-0.281,0.426-0.421c0.004-0.005,0.004-0.005,0.009-0.009c0.312-0.122,0.611-0.204,0.888-0.258
								C186.195,245.05,187.106,245.453,187.722,246.395z"/>
							<g id="XMLID_5026_">
								<path style="fill:#27DEBF;" d="M186.915,247.514c-0.937,1.236-1.979,2.368-3.088,3.338
									c-0.874,0.765-1.789,1.436-2.735,1.979c-1.096,0.634-2.151,1.06-3.147,1.286c-0.729,0.163-1.426,0.226-2.083,0.186
									c-0.122-0.824-0.081-1.725,0.163-2.613c0.045-0.186,0.104-0.371,0.172-0.552c0.67-1.811,1.685-3.559,2.033-3.736
									l1.327-0.485l0.177-0.063l3.618-1.096l0.543-0.163c0.05-0.018,0.104-0.032,0.159-0.036c0.231-0.036,0.512,0.023,0.815,0.159
									C185.521,246.006,186.277,246.654,186.915,247.514z"/>
							</g>
						</g>
						<g id="XMLID_4869_">
							<g id="XMLID_5023_">
								<path id="XMLID_5024_" style="fill:#B16668;" d="M185.572,233.33c0.632,0.258,1.418,1.874,1.355,5.73
									c-0.053,3.268-0.963,4.32-1.421,4.676c-0.458,0.357-1.342,0.457-2.203,0.526l0.049,1.51c0,0,1.45,0.981,1.378,1.896
									c-0.071,0.915-1.151,1.243-2.992,0.807c-1.061-0.251-1.645-0.798-1.845-0.99c-0.03-0.029-0.253-0.281-0.34-0.44
									l-0.003-4.156c0,0-0.504,0.705-1.365,0.074c-0.711-0.521-0.954-1.661-0.404-2.458c0.549-0.797,1.57-0.899,1.965-0.084
									c0,0,1.371-0.316,3.193-1.972C184.762,236.796,185.456,234.623,185.572,233.33z"/>
							</g>
							<g id="XMLID_4914_">
								<g id="XMLID_5010_">
									<path id="XMLID_5022_" style="fill:#263238;" d="M183.674,238.928c0.011,0.231-0.138,0.471-0.334,0.535
										c-0.195,0.064-0.363-0.072-0.374-0.303c-0.011-0.231,0.138-0.471,0.334-0.535
										C183.495,238.561,183.663,238.697,183.674,238.928z"/>
								</g>
								<g id="XMLID_5007_">
									<path id="XMLID_5009_" style="fill:#9A4A4D;" d="M183.414,241.507l1.294,0.123c-0.106,0.456-0.481,0.798-0.838,0.764
										C183.513,242.36,183.309,241.963,183.414,241.507z"/>
								</g>
								<g id="XMLID_4998_">
									<path id="XMLID_4999_" style="fill:#263238;" d="M186.364,237.07l-0.781-0.222c0.071-0.293,0.304-0.48,0.52-0.419
										C186.318,236.491,186.435,236.778,186.364,237.07z"/>
								</g>
								<g id="XMLID_4991_">
									<path id="XMLID_4994_" style="fill:#263238;" d="M186.354,238.059c0.011,0.231-0.138,0.471-0.334,0.535
										c-0.195,0.064-0.363-0.072-0.374-0.303c-0.011-0.232,0.138-0.471,0.334-0.535
										C186.176,237.691,186.343,237.827,186.354,238.059z"/>
								</g>
								<g id="XMLID_4940_">
									<polygon id="XMLID_4988_" style="fill:#9A4A4D;" points="184.719,238.056 184.708,240.726 185.829,240.018 									"/>
								</g>
								<g id="XMLID_4936_">
									<path id="XMLID_4939_" style="fill:#9A4A4D;" d="M183.304,244.263c-0.907,0.11-2.773,0.001-3.066-0.77
										c0,0,0.099,0.508,0.657,0.907c0.559,0.398,2.425,0.518,2.425,0.518L183.304,244.263z"/>
								</g>
							</g>
						</g>
						<g id="XMLID_982_">
							<g id="XMLID_985_">
								<path style="fill:#B16668;" d="M178.624,252.12c-0.163,0.679-0.389,1.363-0.679,1.997c-0.729,0.163-1.426,0.226-2.083,0.186
									c-0.797-0.045-1.531-0.236-2.192-0.571c0.335-1.191,0.666-2.169,1.019-2.98c0.525-1.214,1.101-2.042,1.802-2.595
									c0.697-0.553,1.739-0.756,1.739-0.756c0.312,0.122,0.593,0.833,0.657,1.277C179.018,249.602,178.927,250.856,178.624,252.12
									z"/>
							</g>
						</g>
					</g>
				</g>
			</g>
		</g>
		<path style="fill:#27DEBF;" d="M331.115,141.872l-126.916,73.277c-1.18,0.679-2.136,2.334-2.136,3.695l0.007,8.707
			c-0.413,2.477-2.229,5.868-6.095,7.346c-0.236,0.09-0.207,0.435,0.041,0.484c1.209,0.241,3.576,0.439,6.054-0.811v2.282
			c0,1.361,0.956,1.913,2.135,1.232l126.844-73.233c1.179-0.681,2.138-2.336,2.142-3.697l0.052-18.048
			C333.247,141.745,332.294,141.192,331.115,141.872z"/>
		<path style="fill:#455A64;" d="M207.107,218.058l17.738-10.241c0.588-0.339,1.064-0.101,1.064,0.533
			c0,0.633-0.476,1.422-1.064,1.761l-17.738,10.241c-0.588,0.339-1.064,0.101-1.064-0.533
			C206.043,219.186,206.52,218.397,207.107,218.058z"/>
		<path style="fill:#455A64;" d="M211.081,221.313l114.157-65.909c0.588-0.339,1.064-0.101,1.064,0.533s-0.476,1.422-1.064,1.761
			L211.08,223.607c-0.588,0.339-1.064,0.101-1.064-0.533C210.017,222.441,210.493,221.653,211.081,221.313z"/>
		<path style="fill:#455A64;" d="M211.081,226.898l78.681-45.436c0.588-0.339,1.064-0.101,1.064,0.533
			c0,0.633-0.476,1.422-1.064,1.761l-78.681,45.436c-0.588,0.339-1.064,0.101-1.064-0.533
			C210.017,228.026,210.493,227.237,211.081,226.898z"/>
	</g>
	<g id="Status">
		<path style="fill:#E0E0E0;" d="M168.43,332.12l174.556-100.78c1.17-0.675,2.118-0.128,2.118,1.223l0,36.4
			c0,1.35-0.948,2.993-2.118,3.668L168.43,373.41c-1.17,0.675-2.118,0.128-2.118-1.223l0-36.4
			C166.312,334.437,167.26,332.795,168.43,332.12z"/>
		<path style="fill:#F0F0F0;" d="M168.43,332.12l174.556-100.78c1.17-0.675,2.118-0.128,2.118,1.223l0,36.4
			c0,1.35-0.948,2.993-2.118,3.668L168.43,373.41c-1.17,0.675-2.118,0.128-2.118-1.223l0-36.4
			C166.312,334.437,167.26,332.795,168.43,332.12z"/>
		<path style="fill:#37474F;" d="M177.809,362.073c0,0.138-0.154,0.461-0.309,0.551c0,0,0.047,0.097,0.047,0.262
			c0.001,0.199-0.166,0.496-0.405,0.634c-0.239,0.137-1.824,1.055-1.824,1.055l-0.002-2.381c0,0,0,0,0-0.001
			c0.021-0.046,0.502-1.145,0.547-1.309c0.048-0.164,0-0.743,0-0.853c0-0.089,0.296-0.304,0.485-0.216c0.001,0,0.002,0,0.003,0.001
			h0.001c0.044,0.022,0.081,0.06,0.107,0.118c0.056,0.124,0.092,0.249,0.11,0.38c0.029,0.204,0.013,0.423-0.037,0.678l1.103-0.637
			c0.091-0.054,0.163-0.055,0.214-0.029c0.079,0.04,0.114,0.146,0.114,0.237c0.002,0.215-0.117,0.401-0.177,0.476
			c0,0,0.219-0.065,0.219,0.229c0,0.167-0.1,0.404-0.268,0.541C177.737,361.812,177.809,361.867,177.809,362.073z"/>
		<path style="fill:#37474F;" d="M175.055,364.424v0.504c0,0.066-0.046,0.148-0.105,0.181l-0.586,0.339c0,0-0.001,0-0.001,0.001
			c-0.029,0.016-0.066,0.025-0.105,0.025v-2.737l0.482-0.277v-0.001l0.284-0.163c0.018,0.033,0.03,0.07,0.03,0.103L175.055,364.424z
			"/>
		<path style="fill:#37474F;" d="M181.203,358.109l12.277-7.055c0.588-0.339,1.064-0.101,1.064,0.533s-0.476,1.422-1.064,1.761
			l-12.277,7.055c-0.588,0.339-1.064,0.101-1.064-0.533C180.139,359.237,180.615,358.449,181.203,358.109z"/>
		<path style="fill:#37474F;" d="M243.878,321.652l12.277-7.055c0.588-0.339,1.064-0.101,1.064,0.533
			c0,0.633-0.476,1.422-1.064,1.761l-12.277,7.055c-0.588,0.339-1.064,0.101-1.064-0.533
			C242.815,322.78,243.291,321.991,243.878,321.652z"/>
		<path style="fill:#37474F;" d="M239.464,323.923c0-0.405-0.285-0.569-0.635-0.367l-3.864,2.231
			c-0.351,0.203-0.635,0.695-0.635,1.1v2.647c0,0.405,0.285,0.571,0.637,0.37l1.071-0.611l-0.036,0.916
			c-0.002,0.061,0.074,0.09,0.113,0.043l1.578-1.904l1.136-0.648c0.352-0.201,0.637-0.692,0.637-1.097L239.464,323.923z"/>
		<path style="fill:#37474F;" d="M319.909,277.883l12.277-7.055c0.588-0.339,1.064-0.101,1.064,0.533
			c0,0.633-0.476,1.422-1.064,1.761l-12.277,7.055c-0.588,0.339-1.064,0.101-1.064-0.533
			C318.845,279.011,319.322,278.222,319.909,277.883z"/>
		<path style="fill:#37474F;" d="M315.978,281.312l-2.98-0.928v1.584c-0.625,0.408-1.849,0.732-2.945,2.37
			c-1.642,2.454-0.453,3.852,0.102,3.955c0,0-0.871-0.597,0.088-2.352c0.479-0.876,1.726-1.735,2.755-2.066l0,1.806L315.978,281.312
			z"/>
		<g>
			<path style="fill:#27DEBF;" d="M191.961,334.908c0,4.37-1.934,9.338-4.873,13.278c-0.018,0.027-0.041,0.059-0.063,0.086
				c-0.358,0.48-0.729,0.942-1.123,1.386c-0.634,0.734-1.309,1.422-2.015,2.042c-0.367,0.326-0.747,0.638-1.128,0.924
				c-0.548,0.412-1.105,0.788-1.671,1.114c-1.635,0.942-3.184,1.422-4.574,1.481c-0.077,0-0.149,0.004-0.226,0.004
				c-0.312,0-0.616-0.018-0.91-0.059c-1.277-0.172-2.382-0.747-3.233-1.68c-0.032-0.032-0.059-0.068-0.091-0.1
				c-1.159-1.327-1.834-3.338-1.834-5.923c0-6.933,4.868-15.361,10.869-18.83C187.093,325.167,191.961,327.975,191.961,334.908z"/>
			<path style="opacity:0.4;" d="M191.961,334.908c0,4.37-1.934,9.338-4.873,13.278c-0.018,0.027-0.041,0.059-0.063,0.086
				c-0.358,0.48-0.729,0.942-1.123,1.386c-0.634,0.734-1.309,1.422-2.015,2.042c-0.367,0.326-0.747,0.638-1.128,0.924
				c-0.548,0.412-1.105,0.788-1.671,1.114c-1.635,0.942-3.184,1.422-4.574,1.481c-0.077,0-0.149,0.004-0.226,0.004
				c-0.312,0-0.616-0.018-0.91-0.059c-1.277-0.172-2.382-0.747-3.233-1.68c-0.032-0.032-0.059-0.068-0.091-0.1
				c-1.159-1.327-1.834-3.338-1.834-5.923c0-6.933,4.868-15.361,10.869-18.83C187.093,325.167,191.961,327.975,191.961,334.908z"/>
			<g id="XMLID_5145_">
				<g id="XMLID_5147_">
					<g id="XMLID_5151_">
						<path style="fill:#FFA8A7;" d="M182.913,347.362c-0.018,0.004-0.032,0.004-0.041,0.009c-0.023,0.004-0.036,0.009-0.036,0.009
							c-0.005,0.004-0.005,0.009-0.005,0.009c-0.004,0-0.004,0-0.004,0c-0.041,0.036-0.077,0.072-0.113,0.109
							c-0.987,0.996-1.069,1.925-0.607,3.397c0.158,0.503,0.38,1.073,0.652,1.73c0.38-0.285,0.761-0.598,1.128-0.924
							c0.706-0.62,1.381-1.309,2.015-2.042c0.394-0.444,0.765-0.906,1.123-1.386C186.196,347.208,184.932,346.968,182.913,347.362z"
							/>
						<path style="fill:#455A64;" d="M187.088,348.186c-0.018,0.027-0.041,0.059-0.063,0.086c-0.358,0.48-0.729,0.942-1.123,1.386
							c-0.634,0.734-1.309,1.422-2.015,2.042l-0.362-1.49l-0.593-2.441l-0.091-0.38h-0.005v-0.009c0,0,0.014-0.005,0.036-0.009
							c0.009-0.005,0.023-0.005,0.041-0.009c0.313-0.086,1.553-0.38,2.699-0.127C186.137,347.349,186.649,347.643,187.088,348.186z"
							/>
						<g id="XMLID_5175_">
							<g id="XMLID_5177_">
								<path id="XMLID_5178_" style="fill:#263238;" d="M177.961,346.531c-0.81-0.045-3.58-2.325-3.58-5.91
									c0-0.684,0.082-1.368,0.241-2.033c0.18-0.756,0.431-1.301,0.8-1.985c0.363-0.672,0.879-1.366,1.451-1.871
									c1.121-0.989,2.404-1.78,3.736-2.451c0.724-0.365,1.477-0.701,2.28-0.818c0.803-0.117,1.669,0.006,2.32,0.488
									c0.398,0.295,0.695,0.736,0.809,1.219c0.082,0.348,0.115,0.924-0.043,1.255c0.192-0.057,0.608,0.259,0.73,0.409
									c0.178,0.217,0.325,0.523,0.354,0.804c0.066,0.645-0.277,1.265-0.7,1.756c0.441,0.897,0.279,2.055-0.39,2.797
									c-0.747,0.828-1.963,1.087-2.748,1.879c-0.647,0.652-0.918,1.576-1.283,2.419c-0.303,0.7-0.82,1.665-1.673,1.807
									c-0.449,0.075-0.943,0.063-1.406,0.122C178.56,346.455,178.26,346.493,177.961,346.531z"/>
							</g>
						</g>
						<g id="XMLID_5169_">
							<g id="XMLID_5170_">
								<path style="fill:#27DEBF;" d="M185.901,349.658c-0.634,0.734-1.309,1.422-2.015,2.042
									c-0.367,0.326-0.747,0.638-1.128,0.924c-0.548,0.412-1.105,0.788-1.671,1.114c-1.635,0.942-3.184,1.422-4.574,1.481
									c-0.077,0-0.149,0.004-0.226,0.004c-0.312,0-0.616-0.018-0.91-0.059c0.512-1.571,0.792-3.768-0.706-5.38l-0.004-0.005h0.004
									c0.453-0.349,4.275-1.764,4.275-1.764l3.681-0.614c0.059-0.014,0.122-0.023,0.199-0.014c0,0,0,0,0.004,0h0.009
									C183.461,347.435,184.629,348.177,185.901,349.658z"/>
							</g>
						</g>
						<g id="XMLID_5166_">
							<g id="XMLID_5167_">
								<path id="XMLID_5168_" style="fill:#FFA8A7;" d="M184.243,334.523c0.654,0.271,1.461,1.953,1.382,5.953
									c-0.068,3.391-1.014,4.478-1.49,4.845c-0.475,0.368-1.392,0.467-2.284,0.534v1.571c0,0,1.232,1.322,1.154,2.271
									c-0.077,0.949-1.779,1.624-2.932,1.026c-1.153-0.598-2.124-2.105-2.124-2.105l0.02-4.207c0,0-0.525,0.729-1.414,0.069
									c-0.734-0.545-0.982-1.728-0.409-2.552c0.572-0.824,1.63-0.925,2.035-0.077c0,0,0.496-1.721,2.548-3.046
									C182.586,337.609,183.594,336.533,184.243,334.523z"/>
							</g>
						</g>
						<g id="XMLID_5158_">
							<path id="XMLID_5165_" style="fill:#263238;" d="M182.363,340.503c0.011,0.24-0.145,0.488-0.348,0.553
								c-0.203,0.065-0.375-0.076-0.386-0.317c-0.011-0.24,0.145-0.488,0.348-0.553C182.18,340.121,182.353,340.263,182.363,340.503
								z"/>
							<path id="XMLID_5164_" style="fill:#B16668;" d="M182.206,343.147l1.383,0.139c-0.115,0.488-0.518,0.852-0.899,0.814
								C182.308,344.062,182.091,343.635,182.206,343.147z"/>
							<path id="XMLID_5163_" style="fill:#263238;" d="M185.375,338.393l-0.743-0.396c0.136-0.281,0.412-0.421,0.617-0.312
								C185.454,337.795,185.51,338.112,185.375,338.393z"/>
							<path id="XMLID_5162_" style="fill:#263238;" d="M181.294,339.801l0.743-0.794c-0.136-0.209-0.412-0.2-0.617,0.019
								C181.215,339.245,181.159,339.592,181.294,339.801z"/>
							<path id="XMLID_5161_" style="fill:#263238;" d="M185.204,339.435c0.011,0.24-0.145,0.488-0.348,0.553
								c-0.203,0.065-0.375-0.076-0.386-0.316c-0.011-0.24,0.145-0.488,0.348-0.553C185.02,339.053,185.193,339.195,185.204,339.435
								z"/>
							<polygon id="XMLID_5160_" style="fill:#F28F8F;" points="183.471,339.656 183.529,342.194 184.693,341.466 							"/>
							<path id="XMLID_5159_" style="fill:#F28F8F;" d="M181.851,345.856c-0.939,0.109-2.872-0.014-3.173-0.815
								c0,0,0.1,0.528,0.678,0.944c0.577,0.417,2.495,0.546,2.495,0.546V345.856z"/>
						</g>
						<g id="XMLID_5154_">
							<g id="XMLID_5156_">
								<path style="fill:#FFA8A7;" d="M176.287,355.224c-0.312,0-0.616-0.018-0.91-0.059c-1.277-0.172-2.382-0.747-3.233-1.68
									c0.756-1.839,1.562-3.021,2.495-3.682c0.009-0.009,0.018-0.018,0.027-0.023h0.004c1.223,0.127,1.594,1.753,1.721,2.686
									C176.505,353.267,176.473,354.223,176.287,355.224z"/>
							</g>
						</g>
						<path style="fill:#455A64;" d="M176.514,355.219c-0.077,0-0.149,0.004-0.226,0.004c-0.312,0-0.616-0.018-0.91-0.059
							c-1.277-0.172-2.382-0.747-3.233-1.68c-0.032-0.032-0.059-0.068-0.091-0.1c0.041-0.104,0.081-0.199,0.122-0.294
							c0.788-1.834,1.617-2.826,2.464-3.288c0.014-0.009,0.022-0.014,0.032-0.018v-0.005c0.136-0.068,0.267-0.127,0.403-0.172
							C176.939,350.564,176.858,353.335,176.514,355.219z"/>
					</g>
				</g>
			</g>
			<path style="fill:#F28F8F;" d="M182.69,344.1c0.116,0.012,0.232-0.017,0.343-0.072c-0.038-0.338-0.321-0.602-0.669-0.602
				c-0.065,0-0.126,0.012-0.185,0.029C182.197,343.803,182.392,344.07,182.69,344.1z"/>
		</g>
		<path style="fill:#27DEBF;" d="M331.115,242.965l-126.908,73.118c-1.18,0.68-2.136,2.334-2.136,3.695v8.866
			c-0.413,2.477-2.229,5.868-6.095,7.346c-0.236,0.09-0.207,0.435,0.041,0.484c1.209,0.241,3.576,0.439,6.054-0.811v2.121
			c0,1.361,0.956,1.913,2.135,1.232l126.844-73.073c1.179-0.681,2.138-2.336,2.142-3.697l0.052-18.048
			C333.247,242.838,332.294,242.285,331.115,242.965z"/>
		<path style="fill:#455A64;" d="M207.107,319.11l17.738-10.241c0.588-0.339,1.064-0.101,1.064,0.533s-0.476,1.422-1.064,1.761
			l-17.738,10.241c-0.588,0.339-1.064,0.101-1.064-0.533S206.52,319.449,207.107,319.11z"/>
		<path style="fill:#455A64;" d="M211.081,322.366l114.157-65.909c0.588-0.339,1.064-0.101,1.064,0.533
			c0,0.633-0.476,1.422-1.064,1.761L211.08,324.66c-0.588,0.339-1.064,0.101-1.064-0.533
			C210.017,323.493,210.493,322.705,211.081,322.366z"/>
		<path style="fill:#455A64;" d="M211.081,327.951l98.909-57.123c0.588-0.339,1.064-0.101,1.064,0.533
			c0,0.633-0.476,1.422-1.064,1.761l-98.909,57.122c-0.588,0.339-1.064,0.101-1.064-0.533
			C210.017,329.078,210.493,328.29,211.081,327.951z"/>
	</g>
</g>
<g id="Pencil">
	<g id="Pencil_10_">
		<g id="XMLID_5266_">
			<g id="XMLID_5268_">
				<path id="XMLID_5276_" style="fill:#FFA8A7;" d="M310.125,336.234l28.148-5.513c0.819-0.16,1.375,0.809,0.822,1.434
					l-19.096,21.624L310.125,336.234z"/>
				<path id="XMLID_5275_" style="fill:#263238;" d="M339.095,332.154c0.553-0.625-0.003-1.594-0.822-1.434l-5.495,1.076l0,0
					c1.539,0.954,2.416,2.688,2.272,4.493l-0.04,0.491L339.095,332.154z"/>
				<path id="XMLID_5274_" style="fill:#27DEBF;" d="M215.036,413.973l2.302-1.323l2.785-1.584l99.875-57.284
					c1.043-3.058,0.536-6.406-0.784-9.336c-1.996-4.468-5.873-7.994-9.084-8.2l-99.812,57.252l-5.312,3.048
					C208.554,394.763,218.571,412.137,215.036,413.973z"/>
				<path id="XMLID_5273_" style="fill:#EBEBEB;" d="M223.82,408.972l5.137-2.959c1.518-0.807,0.648-4.533-1.128-8.388
					c-2.346-5.126-6.967-10.088-8.98-9.02l-3.791,2.174l-1.342,0.801c2.013-1.068,6.638,3.893,8.985,9.019
					c1.697,3.695,2.557,7.29,1.271,8.267l-0.016,0.01C223.921,408.919,223.877,408.946,223.82,408.972z"/>
				<path id="XMLID_5272_" style="fill:#27DEBF;" d="M225.095,408.222c3.528-1.87-6.574-19.267-10.103-17.396l-5.152,2.945
					c3.529-1.87,13.629,15.525,10.101,17.395L225.095,408.222z"/>
				<path id="XMLID_5271_" style="fill:#EBEBEB;" d="M215.036,413.973l5.088-2.907c3.477-1.81-6.129-18.679-9.806-17.568
					c-0.067,0.011-0.139,0.046-0.211,0.081l-5.101,2.967C208.554,394.763,218.571,412.137,215.036,413.973z"/>
				<path id="XMLID_5270_" style="opacity:0.15;" d="M339.224,331.207l-0.951-0.486l-20.426,11.171l-105.61,60.599
					c-0.197-0.316-0.359-0.336-0.492-0.118c3.002,4.679,5.269,10.573,3.291,11.601l2.302-1.323l2.785-1.584l99.875-57.284l0-0.004
					l19.096-21.624C339.352,331.862,339.362,331.499,339.224,331.207z"/>
				<path id="XMLID_5269_" style="fill:#F28F8F;" d="M193.459,426.318l21.576-12.345c1.513-0.784,0.674-4.476-1.068-8.31
					c-2.331-5.136-6.933-10.142-8.962-9.117c-0.012-0.003-0.012-0.003-0.027,0.007l-21.643,12.394
					c-4.298,2.481-0.345,11.819,4.45,15.989C189.568,426.509,191.564,427.208,193.459,426.318z"/>
			</g>
			<path id="XMLID_5267_" style="opacity:0.1;" d="M194.746,419.626c-1.238-4.864-5.178-9.633-8.801-10.652
				c-1.329-0.375-2.429-0.187-3.23,0.434c-3.246,3.013,0.532,11.58,5.07,15.527c1.748,1.543,3.7,2.235,5.562,1.423
				C194.963,425.413,195.586,422.923,194.746,419.626z"/>
		</g>
	</g>
</g>
<g id="Character">
	<g id="Character_22_">
		<g id="XMLID_5069_">
			<g id="Arm">
				<path id="XMLID_5124_" style="fill:#B16668;" d="M418.32,169.685l-18.668,0.537c-0.69-0.59-4.345-4.238-4.345-4.238
					s-10.746-1.377-10.811-0.988c-0.065,0.39,9.499,12.005,10.551,13.153c0.582,0.635,2.242,1.719,3.636,1.802
					c2.781,0.167,18.049,0.314,18.049,0.314L418.32,169.685z"/>
				<path style="fill:#27DEBF;" d="M419.245,169.685c-1.493-0.412-19.257,0.282-19.257,0.282l-4.557-4.301
					c0,0-2.586-0.471-6.479-0.834c-3.894-0.363-5.169,0-5.169,0s8.648,10.798,9.982,12.577c1.334,1.778,2.177,2.856,5.154,2.975
					c3.769,0.152,18.536,0.24,18.536,0.24L419.245,169.685z"/>
			</g>
		</g>
		<g id="XMLID_317_">
			<g id="Character_9_">
				<g id="XMLID_329_">
					<g id="Botom_4_">
						<g id="XMLID_5039_">
							<g id="XMLID_5040_">
								<path id="XMLID_5064_" style="fill:#FFA8A7;" d="M444.252,314.889c-1.993,1.147-4.236,1.126-6.674,0.199l-1.618-13.093
									l8.434-1.94L444.252,314.889z"/>
								<path id="XMLID_5062_" style="fill:#FFA8A7;" d="M419.467,307.773c-1.6,3.749-3.94,2.525-7.49,0.26l-0.236-12.932
									l9.192-0.629L419.467,307.773z"/>
								<g>
									<path id="XMLID_5059_" style="fill:#263238;" d="M429.962,327.003c-0.217,0.216-0.126,1.847,0.132,2.225
										c0.276,0.406,1.72,1.647,4.464,1.761c2.621,0.109,4.946-0.313,6.452-1.334c1.506-1.021,2.218-2.118,2.318-3.612
										s-0.108-2.927,0.568-4.095c0.624-1.078,1.469-2.136,1.68-2.717c0.458-1.264,0.092-3.202,0.092-3.202L429.962,327.003z"/>
									<path id="XMLID_5058_" style="fill:#455A64;" d="M436.625,314.536c-0.028,0.554-0.105,1.106-0.27,1.666
										c-0.345,1.167-0.889,2.271-1.504,3.325c-0.317,0.543-0.653,1.076-1.045,1.571c-0.763,0.965-1.723,1.767-2.533,2.695
										c-0.811,0.928-1.49,2.044-1.519,3.259c-0.05,2.055,2.197,2.686,3.92,2.94c1.84,0.271,3.791,0.115,5.562-0.445
										c1.971-0.624,3.359-2.207,3.63-4.199c0.078-0.572,0.025-1.154,0.076-1.729c0.115-1.312,0.756-2.527,1.489-3.636
										c0.425-0.644,0.889-1.274,1.166-1.99c0.497-1.286,0.026-2.702-0.354-3.956c-0.328-1.084-0.579-2.387-0.96-2.272
										c0.005,0.22-0.007,0.701-0.007,0.701c-0.119,0.242-0.397,0.41-0.468,0.689c-0.074,0.291-0.161,0.58-0.286,0.854
										c-0.192,0.418-0.481,0.804-0.88,1.032c-0.049-0.774-0.097-1.547-0.146-2.321c-0.015-0.24-0.038-0.499-0.199-0.677
										c-0.163-0.181-0.423-0.228-0.664-0.265c-1.457-0.226-2.941-0.453-4.399-0.233c-0.219,0.033-0.459,0.091-0.582,0.275
										c-0.1,0.151-0.093,0.346-0.082,0.527C436.614,313.093,436.661,313.816,436.625,314.536z"/>
									<path id="XMLID_5056_" style="fill:#F5F5F5;" d="M434.587,319.966c0.747-0.595,2.458-0.654,3.397-0.581
										c1.176,0.091,2.137,0.473,2.688,0.855c0.244,0.169,0.577,0.129,0.781-0.085l0,0c0.246-0.257,0.21-0.667-0.084-0.87
										c-0.584-0.403-1.635-0.964-3.026-1.02c-2.308-0.094-2.972,0.321-2.972,0.321S434.341,319.292,434.587,319.966z"/>
									<path id="XMLID_5053_" style="fill:#F5F5F5;" d="M432.893,322.12c0.944-0.596,2.828-0.571,3.767-0.498
										c1.176,0.091,2.066,0.526,2.616,0.907c0.244,0.169,0.577,0.129,0.781-0.085l0,0c0.246-0.257,0.21-0.667-0.084-0.87
										c-0.584-0.403-1.702-1.05-3.094-1.106c-2.308-0.094-2.894,0.395-2.894,0.395S433.026,321.267,432.893,322.12z"/>
									<path id="XMLID_5052_" style="fill:#F5F5F5;" d="M439.194,316.032c-1.596-0.117-2.266,0.081-2.888,0.329
										c-0.399,0.239-0.647,0.889-0.381,1.043c0.504-0.3,1.424-0.445,2.556-0.429c0.76,0.011,1.725,0.29,2.511,0.61
										c0.2,0.081,0.437,0.197,0.644,0.304c0.28,0.145,0.627,0.026,0.751-0.258l0,0c0.105-0.241,0.013-0.521-0.219-0.652
										C441.601,316.66,440.484,316.127,439.194,316.032z"/>
								</g>
								<g>
									<path id="XMLID_5051_" style="fill:#263238;" d="M397.929,316.368c-0.201,0.456-0.114,1.296,0.157,1.823
										c0.271,0.527,3.108,2.017,6.864,1.651c3.756-0.366,6.296-1.959,7.703-2.952c1.407-0.993,2.895-1.215,4.756-1.377
										c1.861-0.162,4.28-1.164,4.663-2.048c0.383-0.884-0.132-2.371-0.132-2.371L397.929,316.368z"/>
									<path id="XMLID_5050_" style="fill:#455A64;" d="M412.802,304.833c-0.329-0.11-0.658-0.219-0.987-0.329
										c-0.181-0.06-0.382-0.12-0.558-0.048c-0.238,0.098-0.324,0.385-0.38,0.635c-0.116,0.513-0.15,1.174-0.362,1.647
										c-0.193,0.43-0.681,0.833-1.023,1.14c-0.89,0.8-1.921,1.436-2.954,2.032c-1.21,0.698-2.399,1.246-3.652,1.855
										c-1.277,0.621-2.986,1.028-3.979,1.741c-1.448,1.039-1.564,3.546,0.148,4.484c1.477,0.809,5.324,1.619,9.297,0.365
										c2.164-0.683,4.517-3.087,7.375-3.396c1.817-0.197,5.247-0.811,6.378-2.229c0.415-0.626-0.221-2.554-0.747-4.219
										c-0.573-1.817-0.864-4.754-1.466-4.575c-0.1,0.974-0.533,1.056-0.838,1.577c-0.269,0.46-0.413,0.98-0.611,1.475
										c-0.198,0.495-0.469,0.987-0.913,1.282c-0.444,0.295-1.095,0.331-1.478-0.04c-0.553-0.537-0.265-1.52-0.675-2.173
										c-0.278-0.443-0.813-0.638-1.31-0.803C413.645,305.114,413.224,304.973,412.802,304.833z"/>
									<path id="XMLID_5046_" style="fill:#F5F5F5;" d="M408.208,308.87c0,0,0.241-0.707,1.318-0.94
										c0.824-0.179,2.306,0.388,3.239,1.111c0.382,0.296,0.351,0.88-0.065,1.126l0,0c-0.247,0.146-0.556,0.119-0.779-0.063
										C411.31,309.602,409.944,308.698,408.208,308.87z"/>
									<path id="XMLID_5045_" style="fill:#F5F5F5;" d="M405.682,310.385c0,0,0.51-0.853,1.57-0.869c0,0,2.166-0.002,3.543,1.207
										c0.351,0.308,0.344,0.851-0.059,1.088l0,0c-0.24,0.141-0.537,0.114-0.75-0.064
										C409.366,311.226,408.122,310.129,405.682,310.385z"/>
									<path id="XMLID_5042_" style="fill:#F5F5F5;" d="M402.885,311.766c0,0,0.574-0.775,1.633-0.791
										c0,0,2.019,0.015,3.395,1.224c0.351,0.309,0.344,0.851-0.059,1.088l0,0c-0.24,0.141-0.537,0.114-0.75-0.064
										C406.485,312.702,405.325,311.51,402.885,311.766z"/>
								</g>
								<path id="XMLID_5041_" style="fill:#37474F;" d="M441.166,213.858c0.901,14.353,2.359,50.272,2.359,50.272
									c0.205,1.783,0.864,7.047,1.189,13.481c0.472,9.33-0.267,29.926-0.267,29.926s-3.83,2.211-7.965,0.63
									c0,0-5.308-30.351-7.006-39.513c-1.492-8.05-4.4-27.468-4.4-27.468l-1.36,23.871c0,0,0.465,6.586-0.316,12.831
									c-0.532,4.254-2.968,22.73-2.968,22.73s-4.197,1.29-8.69-0.08c0,0-1.267-30.979-1.459-34.899
									c-0.219-4.469-1.153-54.666-1.153-54.666L441.166,213.858z"/>
								<path style="fill:#263238;" d="M425.076,241.186l-2.475-11.709c0,0-5.905-0.34-9.256-3.527c0,0,0.675,3.202,8.138,4.914
									l2.478,11.849l0.246,11.017L425.076,241.186z"/>
							</g>
						</g>
					</g>
					<g id="XMLID_330_">
						<path id="XMLID_5038_" style="fill:#455A64;" d="M438.458,171.144c2.821,0.501,3.007,1.899,3.624,4.697
							c0.307,1.39,0.99,4.375,0.719,6.877l-2.1,16.541l0.721,19.051c-4.54,4.939-22.695,6.524-32.61-0.717
							c0,0,0.108-31.297,0.565-36.32c0.799-8.775,4.779-11.894,10.617-11.874l9.989,0.85L438.458,171.144z"/>
						<g id="XMLID_337_">
							<path id="XMLID_5034_" style="fill:#263238;" d="M427.903,148.962c-0.017,4.897-4,8.853-8.897,8.836
								c-4.897-0.017-8.853-4-8.836-8.897c0.017-4.897,4-8.853,8.897-8.836C423.964,140.082,427.92,144.066,427.903,148.962z"/>
							<g id="XMLID_5008_">
								<path style="fill:#263238;" d="M430.678,150.695l1.894-5.082c0,0,1.548-0.26,2.75,0.978
									c1.178,1.213,0.505,4.996-0.981,8.699c0,0-1.46,6.745-2.04,7.852c-0.58,1.107-1.772,1.418-1.772,1.418L430.678,150.695z"/>
								<path id="XMLID_5029_" style="fill:#FFA8A7;" d="M430.822,155.589c0.542,0.326,1.319-0.714,1.991-1.412
									c0.672-0.698,2.86-1.647,3.942,0.653c1.102,2.344-0.981,5.429-2.703,5.963c-2.967,0.92-3.406-0.983-3.406-0.983
									l-0.263,10.691c0,0-1.957,4.742-7.215,5.436c-5.258,0.694-4.161-3.635-2.427-5.752l0.02-3.254c0,0-2.687,0.398-3.997,0.191
									c-2.179-0.345-3.544-2.069-4.197-4.431c-1.049-3.794-1.442-6.855-0.515-14.305c1.016-8.166,10.518-8.219,15.638-4.971
									C432.81,146.663,430.822,155.589,430.822,155.589z"/>
								<path id="XMLID_5028_" style="fill:#263238;" d="M430.766,156.307c0.858-0.247,1.482-1.619,2.047-2.129
									c0.939-0.848-0.242-8.565-0.242-8.565s0.906-1.914-0.89-3.904c-1.277-1.416-3.42-1.58-7.077-2.167
									c-1.804-0.29-3.932-0.432-5.721-0.765c-2.183-0.406-3.574-0.827-5.319-1.7c-0.319-0.159-0.666-0.335-1.015-0.264
									c-0.282,0.058-0.513,0.277-0.639,0.536c-0.126,0.259-0.157,0.555-0.148,0.842c0.009,0.303,0.062,0.604,0.154,0.892
									c0.055,0.171,0.407,0.691,0.332,0.841c-0.185,0.372-1.592-0.254-1.873-0.338c-0.068-0.02-0.143-0.04-0.207-0.01
									c-0.054,0.025-0.087,0.079-0.114,0.131c-0.454,0.882-0.289,2.113,0.162,2.965c1.04,1.966,3.016,3.444,5.036,4.283
									c2.156,0.895,4.543,1.224,6.862,0.956c0.997-0.115,1.981-0.341,2.925-0.68c-0.045,0.016,0.58,0.93,0.644,1.005
									c0.274,0.319,0.594,0.599,0.946,0.829c0.346,0.226,0.737,0.426,1.139,0.53c0.418,0.109,0.816,0.055,1.049,0.506
									c0.148,0.287,0.161,0.621,0.17,0.944c0.028,0.945,0.056,1.89,0.084,2.835c0.014,0.48,0.03,0.969,0.192,1.421
									c0.162,0.452,0.496,0.869,0.957,1.005C430.414,156.361,430.595,156.357,430.766,156.307z"/>
								<path id="XMLID_5027_" style="fill:#F28F8F;" d="M420.76,166.932c0,0,4.869-0.964,6.574-1.862
									c1.141-0.601,2.082-1.647,2.36-2.319c0,0-0.324,1.443-1.345,2.74c-1.25,1.586-7.592,2.736-7.592,2.736L420.76,166.932z"/>
							</g>
							<g id="XMLID_339_">
								<path id="XMLID_986_" style="fill:#263238;" d="M421.48,154.116c-0.002,0.56,0.433,1.013,0.972,1.014
									c0.539,0,0.977-0.453,0.979-1.013c0.002-0.559-0.433-1.013-0.972-1.014C421.92,153.104,421.482,153.557,421.48,154.116z"/>
								<path id="XMLID_980_" style="fill:#263238;" d="M422.645,151.112l2.16,1.401c0.377-0.622,0.2-1.441-0.397-1.827
									C423.811,150.299,423.022,150.49,422.645,151.112z"/>
								<g>
									<path id="XMLID_977_" style="fill:#B16668;" d="M423.105,160.047l-3.431,1.467c0.444,0.957,1.457,1.434,2.519,0.999
										C423.147,162.123,423.549,161.004,423.105,160.047z"/>
									<path style="fill:#F28F8F;" d="M422.193,162.513c0.596-0.244,0.977-0.772,1.07-1.368c-0.191-0.077-0.399-0.122-0.618-0.122
										c-0.895,0-1.62,0.713-1.647,1.602C421.368,162.71,421.776,162.684,422.193,162.513z"/>
								</g>
								<path id="XMLID_342_" style="fill:#263238;" d="M412.804,151.706l2.053-1.245c-0.325-0.585-1.049-0.779-1.615-0.436
									C412.675,150.369,412.479,151.121,412.804,151.706z"/>
								<path id="XMLID_341_" style="fill:#263238;" d="M413.588,153.708c-0.002,0.56,0.433,1.013,0.972,1.014
									c0.538,0,0.977-0.453,0.979-1.013c0.002-0.559-0.433-1.013-0.972-1.014C414.028,152.695,413.59,153.148,413.588,153.708z"/>
								<polygon id="XMLID_340_" style="fill:#F28F8F;" points="418.472,153.147 418.317,159.425 415.011,158.407 								"/>
							</g>
						</g>
					</g>
				</g>
			</g>
		</g>
		<g>
			<path style="fill:#E0E0E0;" d="M395.389,155.46c0-0.663-0.229-1.132-0.6-1.359c-0.385-0.235-3.734-2.158-4.114-2.38
				c-0.384-0.225-0.916-0.195-1.503,0.145l-174.556,100.78c-1.17,0.675-2.118,2.317-2.118,3.668l0,36.4
				c0,0.647,0.218,1.11,0.573,1.342c0.386,0.252,3.763,2.179,4.146,2.401c0.383,0.221,0.913,0.189,1.497-0.148l174.556-100.78
				c1.17-0.675,2.118-2.317,2.118-3.668V155.46z"/>
			<path style="fill:#F0F0F0;" d="M218.715,255.017l174.556-100.78c1.17-0.675,2.118-0.128,2.118,1.223l0,36.4
				c0,1.35-0.948,2.993-2.118,3.668l-174.556,100.78c-1.17,0.675-2.118,0.128-2.118-1.223l0-36.4
				C216.597,257.335,217.545,255.693,218.715,255.017z"/>
			<path style="fill:#37474F;" d="M228.095,284.971c0,0.138-0.154,0.461-0.309,0.551c0,0,0.047,0.097,0.047,0.262
				c0.001,0.199-0.166,0.496-0.405,0.633c-0.239,0.137-1.824,1.055-1.824,1.055l-0.002-2.381c0,0,0,0,0-0.001
				c0.021-0.046,0.502-1.145,0.547-1.309c0.048-0.164,0-0.743,0-0.853c0-0.089,0.296-0.304,0.485-0.216c0.001,0,0.002,0,0.003,0.001
				h0.001c0.044,0.023,0.081,0.06,0.107,0.118c0.056,0.124,0.092,0.249,0.11,0.38c0.029,0.204,0.014,0.423-0.037,0.678l1.103-0.637
				c0.091-0.054,0.163-0.055,0.214-0.029c0.079,0.04,0.114,0.146,0.114,0.237c0.002,0.215-0.117,0.401-0.177,0.476
				c0,0,0.219-0.065,0.219,0.23c0,0.167-0.1,0.404-0.268,0.541C228.023,284.71,228.095,284.765,228.095,284.971z"/>
			<path style="fill:#37474F;" d="M225.34,287.321v0.504c0,0.066-0.046,0.149-0.105,0.181l-0.586,0.339c0,0-0.001,0-0.001,0.001
				c-0.029,0.016-0.066,0.025-0.105,0.025v-2.737l0.482-0.277v-0.001l0.284-0.163c0.018,0.033,0.03,0.07,0.03,0.104L225.34,287.321z
				"/>
			<path style="fill:#37474F;" d="M231.488,281.007l12.277-7.055c0.588-0.339,1.064-0.101,1.064,0.533
				c0,0.633-0.476,1.422-1.064,1.761l-12.277,7.055c-0.588,0.339-1.064,0.101-1.064-0.533
				C230.424,282.135,230.9,281.346,231.488,281.007z"/>
			<path style="fill:#37474F;" d="M294.164,244.55l12.277-7.055c0.588-0.339,1.064-0.101,1.064,0.533
				c0,0.633-0.476,1.422-1.064,1.761l-12.277,7.055c-0.588,0.339-1.064,0.101-1.064-0.533
				C293.1,245.677,293.576,244.889,294.164,244.55z"/>
			<path style="fill:#37474F;" d="M289.75,246.82c0-0.405-0.285-0.569-0.635-0.367l-3.864,2.231c-0.351,0.203-0.635,0.695-0.635,1.1
				v2.647c0,0.405,0.285,0.571,0.637,0.37l1.071-0.611l-0.036,0.916c-0.002,0.061,0.074,0.09,0.113,0.043l1.578-1.904l1.136-0.648
				c0.352-0.201,0.637-0.692,0.637-1.097L289.75,246.82z"/>
			<path style="fill:#37474F;" d="M370.195,200.78l12.277-7.055c0.588-0.339,1.064-0.101,1.064,0.533
				c0,0.633-0.476,1.422-1.064,1.761l-12.277,7.055c-0.588,0.339-1.064,0.101-1.064-0.533
				C369.131,201.908,369.607,201.12,370.195,200.78z"/>
			<path style="fill:#37474F;" d="M366.263,204.209l-2.98-0.928v1.584c-0.625,0.408-1.849,0.732-2.945,2.371
				c-1.642,2.454-0.453,3.852,0.102,3.955c0,0-0.871-0.597,0.088-2.351c0.479-0.876,1.726-1.735,2.755-2.066l0,1.806
				L366.263,204.209z"/>
			<g>
				<path style="fill:#27DEBF;" d="M242.246,257.806c0,4.008-1.626,8.514-4.162,12.272c-0.068,0.104-0.136,0.208-0.208,0.313
					c-0.213,0.303-0.426,0.598-0.652,0.888c-0.679,0.901-1.417,1.748-2.192,2.509c-0.254,0.254-0.507,0.498-0.77,0.725
					c-0.919,0.829-1.888,1.544-2.889,2.124c-1.417,0.815-2.771,1.286-4.012,1.436h-0.005c-0.118,0.014-0.235,0.023-0.353,0.032
					c-0.797,0.054-1.549-0.027-2.233-0.236c-0.625-0.19-1.196-0.489-1.703-0.892c-0.032-0.023-0.063-0.05-0.095-0.077
					c-1.544-1.277-2.468-3.514-2.468-6.539c0-6.933,4.868-15.361,10.869-18.825C237.378,248.065,242.246,250.877,242.246,257.806z"
					/>
				<path style="opacity:0.4;" d="M242.246,257.806c0,4.008-1.626,8.514-4.162,12.272c-0.068,0.104-0.136,0.208-0.208,0.313
					c-0.213,0.303-0.426,0.598-0.652,0.888c-0.679,0.901-1.417,1.748-2.192,2.509c-0.254,0.254-0.507,0.498-0.77,0.725
					c-0.919,0.829-1.888,1.544-2.889,2.124c-1.417,0.815-2.771,1.286-4.012,1.436h-0.005c-0.118,0.014-0.235,0.023-0.353,0.032
					c-0.797,0.054-1.549-0.027-2.233-0.236c-0.625-0.19-1.196-0.489-1.703-0.892c-0.032-0.023-0.063-0.05-0.095-0.077
					c-1.544-1.277-2.468-3.514-2.468-6.539c0-6.933,4.868-15.361,10.869-18.825C237.378,248.065,242.246,250.877,242.246,257.806z"
					/>
				<g id="XMLID_5060_">
					<g id="XMLID_5061_">
						<g id="XMLID_5063_">
							<g id="XMLID_5076_">
								<g id="Character_boy_9_">
									<path style="fill:#FFA8A7;" d="M237.876,270.391c-0.213,0.303-0.426,0.598-0.652,0.888
										c-0.679,0.901-1.417,1.748-2.192,2.509c-0.385-2.391,0.471-3.94,0.543-4.076c0.009-0.004,0.009-0.009,0.009-0.009
										S236.694,269.358,237.876,270.391z"/>
									<g id="XMLID_5123_">
										<path style="fill:#27DEBF;" d="M235.689,269.059c-0.607-0.036-1.381,0.131-2.006,0.313c0,0-0.005,0.004-0.009,0.004
											c-0.005,0-0.005,0-0.009,0c-0.285,0.081-0.539,0.168-0.734,0.236c-0.231,0.081-0.376,0.14-0.376,0.14l0.616,1.712
											l1.091,3.048c0.263-0.226,0.516-0.471,0.77-0.725c0.774-0.761,1.513-1.608,2.192-2.509
											c0.226-0.29,0.439-0.584,0.652-0.888c0.073-0.104,0.14-0.208,0.208-0.313
											C237.383,269.335,236.631,269.123,235.689,269.059z"/>
									</g>
									<g id="Character_boy_10_">
										<g id="XMLID_5089_">
											<path style="fill:#455A64;" d="M237.224,271.278c-0.679,0.901-1.417,1.748-2.192,2.509
												c-0.254,0.254-0.507,0.498-0.77,0.725c-0.919,0.829-1.888,1.544-2.889,2.124c-1.417,0.815-2.771,1.286-4.012,1.436
												h-0.005c-0.118,0.014-0.235,0.023-0.353,0.032c-0.797,0.054-1.549-0.027-2.233-0.236
												c0.009-1.173,0.195-2.097,0.403-2.776c0.208-0.657,0.58-1.264,1.055-1.721c0.091-0.095,0.19-0.181,0.29-0.258
												l0.512-0.335c0.005-0.005,0.014-0.009,0.018-0.009c0.005-0.005,0.009-0.005,0.009-0.005l1.639-1.064l0.362-0.236
												l2.532-1.426c0.448-0.254,0.901-0.435,1.34-0.539c0.249-0.068,0.498-0.104,0.734-0.122c0.005,0,0.005,0,0.009,0
												c0.005,0,0.009-0.004,0.009-0.004c0.684-0.05,1.327,0.068,1.893,0.34C236.255,270.028,236.826,270.563,237.224,271.278z"
												/>
											<g id="XMLID_5090_">
												<g id="XMLID_5107_">
													<path id="XMLID_5119_" style="fill:#263238;" d="M228.976,260.376c0,2.695,1.892,4.372,4.226,3.747
														c2.334-0.625,4.226-3.317,4.226-6.012c0-2.695-2.015-2.696-4.349-2.07
														C230.745,256.666,228.976,257.681,228.976,260.376z"/>
													<path id="XMLID_5118_" style="fill:#263238;" d="M227.057,264.378c0,0,0.623,3.211,0.872,3.699
														c0.25,0.488,0.766,0.508,0.766,0.508l-0.044-2.364L227.057,264.378z"/>
													<path id="XMLID_5117_" style="fill:#263238;" d="M227.839,259.33c0,0-0.671,0.047-1.193,0.804
														c-0.512,0.742-0.226,2.56,0.412,4.244l1.173-0.159L227.839,259.33z"/>
													<path id="XMLID_5114_" style="fill:#FFA8A7;" d="M228.582,264.126c-0.235,0.225-0.571-0.207-0.861-0.479
														c-0.29-0.273-1.237-0.498-1.709,0.778c-0.481,1.3,0.417,2.606,1.162,2.677c1.284,0.121,1.477-0.882,1.477-0.882
														l0.044,5.482c2.155,2.285,5.931-0.409,4.233-1.42l-0.004-1.627c0,0,1.164-0.108,1.732-0.361
														c0.945-0.422,1.539-1.442,1.825-2.699c0.46-2.02,0.635-3.598,0.244-7.223c-0.428-3.973-4.545-2.912-6.769-0.701
														C227.734,259.884,228.582,264.126,228.582,264.126z"/>
													<path id="XMLID_5113_" style="fill:#263238;" d="M228.538,264.45c-0.178,0.065-0.334-0.035-0.407-0.201
														c-0.105-0.24-0.188-0.428-0.41-0.602c-0.406-0.317,0.118-4.317,0.118-4.317c-0.393-0.862,0.112-1.927,0.655-2.603
														c0.136-0.17,0.289-0.274,0.449-0.413c0.185-0.16,0.318-0.376,0.505-0.54c0.396-0.348,0.871-0.595,1.358-0.79
														c0.749-0.299,1.54-0.492,2.264-0.847c0.914-0.45,1.717-1.159,2.709-1.39c0.381-0.089,0.821-0.088,1.116,0.168
														c0.318,0.277,0.359,0.774,0.211,1.169c-0.148,0.395-0.447,0.711-0.738,1.015c0.496,0.257,0.994,0.686,0.992,1.245
														c-0.002,0.5-0.324,1.159-0.728,1.454c-1.675,1.223-4.001,1.371-5.997,0.808c0.052,0.777-0.211,1.488-0.76,2.05
														c-0.185,0.19-0.402,0.363-0.506,0.607c-0.085,0.199-0.083,0.422-0.09,0.638c-0.022,0.682-0.14,1.362-0.35,2.011
														c-0.062,0.193-0.144,0.397-0.317,0.502C228.587,264.429,228.563,264.441,228.538,264.45z"/>
													<path id="XMLID_5111_" style="fill:#263238;" d="M227.841,259.63l-1.422-0.5c0.202-0.524,0.684-0.838,1.076-0.699
														C227.888,258.568,228.043,259.105,227.841,259.63z"/>
													<path id="XMLID_5109_" style="fill:#F28F8F;" d="M232.925,268.655c0,0-2.109,0.074-2.846-0.181
														c-0.493-0.171-0.9-0.587-1.019-0.891c0,0,0.138,0.685,0.579,1.218c0.539,0.651,3.286,0.501,3.286,0.501V268.655z"/>
												</g>
												<g id="XMLID_5092_">
													<path id="XMLID_5105_" style="fill:#263238;" d="M232.418,262.489c0,0.28-0.189,0.557-0.423,0.619
														c-0.233,0.062-0.423-0.115-0.423-0.395c0-0.28,0.189-0.557,0.423-0.619
														C232.229,262.033,232.418,262.209,232.418,262.489z"/>
													<path id="XMLID_5104_" style="fill:#263238;" d="M231.74,260.651l-0.904,0.818c-0.133-0.264-0.039-0.662,0.211-0.888
														C231.296,260.356,231.607,260.387,231.74,260.651z"/>
													<path id="XMLID_5103_" style="fill:#B16668;" d="M232.443,265.532l1.587,0.262c-0.157,0.568-0.64,0.969-1.078,0.896
														C232.514,266.618,232.286,266.099,232.443,265.532z"/>
													<path style="fill:#F28F8F;" d="M232.639,265.848c-0.085,0-0.165,0.016-0.242,0.039
														c0.001,0.414,0.212,0.747,0.556,0.804c0.176,0.029,0.358-0.021,0.524-0.124
														C233.413,266.16,233.064,265.848,232.639,265.848z"/>
													<path id="XMLID_5100_" style="fill:#263238;" d="M236.295,259.86l-0.824-0.512c0.168-0.318,0.489-0.46,0.717-0.319
														C236.415,259.17,236.463,259.542,236.295,259.86z"/>
													<path id="XMLID_5098_" style="fill:#263238;" d="M235.933,261.409c0,0.28-0.189,0.557-0.423,0.619
														c-0.233,0.062-0.423-0.115-0.423-0.395c0-0.28,0.189-0.557,0.423-0.619
														C235.743,260.952,235.933,261.129,235.933,261.409z"/>
													<polygon id="XMLID_5093_" style="fill:#F28F8F;" points="233.844,261.577 233.893,264.522 235.408,263.731 
																											"/>
												</g>
											</g>
										</g>
									</g>
								</g>
							</g>
							<g id="XMLID_5071_">
								<path style="fill:#FFA8A7;" d="M227.003,278.103c-0.797,0.054-1.549-0.027-2.233-0.236c-0.625-0.19-1.196-0.489-1.703-0.892
									c0.856-1.988,1.902-3.07,3.147-3.614c0.005,0.005,0.009,0.009,0.014,0.009C226.967,273.946,227.293,275.988,227.003,278.103
									z"/>
							</g>
							<path style="fill:#27DEBF;" d="M223.068,276.975c0.507,0.403,1.078,0.702,1.703,0.892c0.684,0.208,1.436,0.29,2.233,0.236
								c0.118-0.009,0.236-0.018,0.353-0.032h0.005c0.104-0.693,0.181-1.313,0.208-1.793c0.149-2.781-0.512-3.514-0.512-3.514
								s-0.005,0-0.009,0.005c-0.005,0-0.014,0.005-0.018,0.009c-0.267,0.095-2.205,0.865-3.224,2.513
								c-0.285,0.457-0.562,0.987-0.833,1.608L223.068,276.975z"/>
						</g>
					</g>
				</g>
			</g>
			<path style="fill:#27DEBF;" d="M381.4,165.816l-126.908,73.118c-1.18,0.68-2.136,2.334-2.136,3.695v8.866
				c-0.413,2.477-2.229,5.868-6.095,7.346c-0.236,0.09-0.207,0.435,0.041,0.484c1.209,0.241,3.576,0.439,6.054-0.811v2.147
				c0,1.361,0.956,1.913,2.135,1.232l126.844-73.099c1.179-0.681,2.138-2.336,2.142-3.697l0.052-18.048
				C383.533,165.69,382.579,165.137,381.4,165.816z"/>
			<path style="fill:#455A64;" d="M257.393,241.935l17.738-10.241c0.588-0.339,1.064-0.101,1.064,0.533
				c0,0.634-0.476,1.422-1.064,1.761l-17.738,10.241c-0.588,0.339-1.064,0.101-1.064-0.533
				C256.329,243.063,256.805,242.274,257.393,241.935z"/>
			<path style="fill:#455A64;" d="M261.366,245.191l114.157-65.909c0.588-0.339,1.064-0.101,1.064,0.533s-0.476,1.422-1.064,1.761
				l-114.157,65.909c-0.588,0.339-1.064,0.101-1.064-0.533C260.302,246.319,260.778,245.53,261.366,245.191z"/>
			<path style="fill:#455A64;" d="M261.366,250.776l56.015-32.295c0.588-0.339,1.064-0.101,1.064,0.533
				c0,0.634-0.476,1.422-1.064,1.761l-56.015,32.295c-0.588,0.339-1.064,0.101-1.064-0.533
				C260.302,251.903,260.778,251.115,261.366,250.776z"/>
		</g>
		<path id="XMLID_30691_" style="fill:#FFA8A7;" d="M385.156,153.674c0.728,0.1,2.79,0.679,3.476,0.923
			c1.748,0.622,2.355,1.582,2.866,3.232c0.242,0.781,0.234,1.738,0.129,2.547c-0.03,0.229-0.139,0.526-0.346,0.769
			c-0.283,0.332-0.619,0.605-1.002,0.813c-1.588,0.865-2.824,1.413-4.265,0.295c-0.895-0.695-1.729-1.49-2.676-2.117
			c-0.701-0.464-1.53-0.713-2.387-0.969c-0.974-0.292-1.962-0.356-2.979-0.401c-0.661-0.03-1.623,0.501-2.182,0.824
			c-0.356-0.917-0.28-1.759,0.439-2.417c1.335-1.221,3.436-3.003,5.019-3.496C382.629,153.244,383.717,153.475,385.156,153.674z"/>
		<g>
			<path id="XMLID_324_" style="fill:#FFA8A7;" d="M438.075,171.269l-13.329,24.961c0,0-20.231,0.302-25.576-1.065
				c-1.821-0.466-1.426-1.462-2.037-3.492c-0.611-2.03-1.704-1.726-1.704-1.726l-0.17,2.692c-0.089,1.404-1.673,1.955-2.721,2.521
				c-1.424,0.769-3.03,1.128-4.618,1.368c-1.889,0.286-3.81,0.421-5.646,0.947c-0.38,0.109-0.863,0.221-1.048,0.61
				c-0.123,0.257-0.096,0.579,0.067,0.813c0.191,0.275,0.532,0.407,0.752,0.66c0.301,0.347,0.322,0.845,0.417,1.294
				c0.281,1.332,1.313,2.329,2.59,2.72c2.836,0.868,5.819,0.237,8.688-0.072c2.77-0.298,4.704-0.617,7.421-0.254
				c2.88,0.385,6.334,0.904,9.543,1.455c3.745,0.642,8.814,1.619,13.579,1.807c3.907,0.155,4.299-0.167,6.632-3.433
				c1.625-2.274,5.364-8.248,8.55-13.535c3.28-5.444,4.491-8.918,4.586-12.5C444.1,175.218,442.788,171.975,438.075,171.269z"/>
			<path style="fill:#27DEBF;" d="M437.339,171.026c3.498,0.243,4.412,0.865,5.762,2.173c1.35,1.308,2.475,3.428-0.06,10.431
				c-2.535,7.002-11.496,20.552-12.775,22.149c-1.071,1.336-4.316,1.257-9.991,0.592c-3.48-0.407-6.922-1.168-6.922-1.168
				s1.85-4.555,0.482-8.996l10.656-0.245l7.385-15.961C431.874,180.002,434.529,173.757,437.339,171.026z"/>
		</g>
	</g>
</g>
</svg>
