<?xml version="1.0" encoding="utf-8"?>
<!-- Generator: Adobe Illustrator 23.0.5, SVG Export Plug-In . SVG Version: 6.00 Build 0)  -->
<svg version="1.1" id="Layer" xmlns="http://www.w3.org/2000/svg" xmlns:xlink="http://www.w3.org/1999/xlink" x="0px" y="0px"
	 viewBox="0 0 500 500" style="enable-background:new 0 0 500 500;" xml:space="preserve">
<style type="text/css">
	.st0{fill:#F2F2F2;}
	.st1{fill:#999999;}
	.st2{fill:#E6E6E6;}
	.st3{fill:#CCCCCC;}
	.st4{fill:#333333;}
	.st5{fill:#80C5FF;}
	.st6{fill:#57B2FF;}
	.st7{fill:#B3B3B3;}
	.st8{fill:#666666;}
	.st9{enable-background:new    ;}
	.st10{fill:#BFBFBF;}
	.st11{fill:#8482FF;}
	.st12{fill:#4D4BB7;}
	.st13{fill:#FFFFFF;}
	.st14{fill:#FFB78C;}
	.st15{fill:#424242;}
	.st16{fill:#D9D9D9;}
	.st17{fill:#FFE5CC;}
	.st18{fill:#733118;}
	.st19{fill:#4D4D4D;}
	.st20{fill:#FFD166;}
	.st21{fill:#FFAD66;}
	.st22{fill-rule:evenodd;clip-rule:evenodd;fill:#231F20;}
	.st23{fill:#737373;}
	.st24{fill:#1F2125;}
	.st25{fill:#C4C4C4;}
	.st26{fill:#9996FF;}
	.st27{fill:#6865F7;}
</style>
<g>
	<g>
		
			<ellipse transform="matrix(5.422280e-03 -1 1 5.422280e-03 -224.0726 588.9106)" class="st0" cx="184" cy="407.1" rx="28.1" ry="48.7"/>
		<g>
			<g>
				<path class="st0" d="M351.3,414.7l-107.9-62.3c-2.3-1.3-2-3.7,0.6-5.2l6.1-3.5c2.7-1.5,6.7-1.7,9-0.4l107.9,62.3
					c2.3,1.3,2,3.7-0.6,5.2l-6.1,3.5C357.6,415.9,353.6,416,351.3,414.7z"/>
				<path class="st1" d="M361.9,108.6l-99.3-57.3c-1.9-1.1-3.5-1.1-4.9-0.4l-9.8,5.7l11.5,9l2.8-0.7v235.4c0,5.5,3.4,11.9,7.5,14.3
					l87.1,63.7v3.9l10.1-5.9l0,0c1.5-1,2.4-3,2.4-5.9V123C369.4,117.4,366,111,361.9,108.6z"/>
				<path class="st2" d="M346.7,129.7v-11.1l-9.8,7.3L294.2,108l-32-23.3V64.9l-2.8,0.7l-11.5-9l9.8-5.7c1.3-0.7,3-0.7,4.9,0.4
					l99.3,57.4c2.7,1.6,5.1,4.9,6.4,8.5L346.7,129.7z"/>
				<g>
					<path class="st3" d="M352,381.8l-99.3-57.3c-4.1-2.4-7.5-8.8-7.5-14.3V62.7c0-5.5,3.4-8.1,7.5-5.7l99.3,57.3
						c4.1,2.4,7.5,8.8,7.5,14.3v247.4C359.5,381.6,356.2,384.2,352,381.8z"/>
					<path class="st4" d="M247.4,311.6V63.8c0-4,2.4-5.9,5.5-4.1l99,57.2c3,1.7,5.5,6.4,5.5,10.4V375c0,4-2.4,5.9-5.5,4.1l-99-57.2
						C249.8,320.3,247.4,315.6,247.4,311.6z"/>
					<path class="st5" d="M354.4,129.9v240c0,3.6-2.5,5-5.6,3.2l-92.9-53.6c-3.1-1.8-5.6-6.1-5.6-9.7v-240c0-3.6,2.5-5,5.6-3.2
						l17,9.8c0.7,0.4,1.3,1.3,1.5,2.2l0.8,3.6c0.6,3.4,3.3,7.3,6.4,9.1l41.4,23.9c3.2,1.8,5.9,1.1,6.4-1.6l0.8-2.7
						c0.2-0.7,0.8-0.8,1.5-0.4l17,9.8C351.9,122,354.4,126.3,354.4,129.9z"/>
					<g>
						<path class="st6" d="M333.6,189.5c1.6,0.9,2.9,3.2,2.9,5.1l0,10.2c0,1.9-1.3,2.6-3,1.7L274,172c-1.6-0.9-2.9-3.2-2.9-5.1
							l0-10.2c0-1.9,1.3-2.6,3-1.7L333.6,189.5z"/>
					</g>
					<g>
						<path class="st6" d="M333.6,225c1.6,0.9,2.9,3.2,2.9,5.1l0,10.2c0,1.9-1.3,2.6-3,1.7L274,207.5c-1.6-0.9-2.9-3.2-2.9-5.1
							l0-10.2c0-1.9,1.3-2.6,3-1.7L333.6,225z"/>
					</g>
					<g>
						<polygon class="st7" points="250.3,217.9 250.3,235.1 245.2,232.1 245.2,215 						"/>
						<path class="st6" d="M336.5,272.2l0,8.1c0,2.5-1.8,3.5-4,2.3l-82.2-47.5v-17.2l82.3,47.5C334.8,266.7,336.5,269.7,336.5,272.2
							z"/>
					</g>
					<g>
						<path class="st6" d="M288.7,285.5c1.6,0.9,2.8,3.1,2.8,4.9l-0.1,27.8c0,1.8-1.3,2.5-2.9,1.6l-24.2-14
							c-1.6-0.9-2.8-3.1-2.8-4.9l0.1-27.8c0-1.8,1.3-2.5,2.8-1.6L288.7,285.5z"/>
					</g>
					<g>
						<path class="st6" d="M333.7,311.4c1.6,0.9,2.8,3.1,2.8,4.9l-0.1,27.8c0,1.8-1.3,2.5-2.8,1.6l-24.2-14
							c-1.6-0.9-2.8-3.1-2.8-4.9l0.1-27.8c0-1.8,1.3-2.5,2.9-1.6L333.7,311.4z"/>
					</g>
					<g>
						<path class="st6" d="M332,133.9c2.5,1.5,4.6,5,4.6,7.9l-0.1,23.8c0,2.9-2.1,4.1-4.6,2.6l-68.8-39.7c-2.5-1.5-4.6-5-4.6-7.9
							l0.1-23.8c0-2.9,2.1-4.1,4.6-2.6L332,133.9z"/>
					</g>
					<g>
						<polygon class="st7" points="250.3,143.5 250.3,190.2 245.2,187.2 245.2,140.5 						"/>
						<path class="st6" d="M257.9,152.4l-0.1,37.5c0,2.5-1.8,3.5-4,2.2l-3.5-2v-46.7l3.7,2.1C256.2,146.9,257.9,149.9,257.9,152.4z"
							/>
					</g>
					<g>
						<path class="st8" d="M285.4,87.7c0,1.9-1.3,2.7-3,1.7c-1.7-1-3-3.3-3-5.2c0-1.9,1.3-2.7,3-1.7
							C284.1,83.5,285.4,85.8,285.4,87.7z"/>
						<path class="st4" d="M284.1,86.9c0,1-0.7,1.5-1.7,0.9c-0.9-0.5-1.7-1.8-1.7-2.8c0-1,0.7-1.5,1.7-0.9
							C283.3,84.6,284.1,85.9,284.1,86.9z"/>
					</g>
					<path d="M316.8,101.6l-29.5-17c-0.5-0.3-0.9-1-0.9-1.7v-1.2c0-0.6,0.4-0.9,0.9-0.7l29.5,17c0.5,0.3,0.9,1,0.9,1.7v1.2
						C317.7,101.6,317.3,101.9,316.8,101.6z"/>
				</g>
				<g>
					<g class="st9">
						<path class="st2" d="M366.6,161.1c-0.6-0.3-1.4-0.3-2.3,0.2c-1.8,1-3.2,3.5-3.2,5.6l0.1,29.4c0,1,0.4,1.7,0.9,2.1l1.8,1
							c-0.6-0.3-0.9-1.1-0.9-2.1l-0.1-29.4c0-2,1.4-4.5,3.2-5.6c0.9-0.5,1.7-0.6,2.3-0.2L366.6,161.1z"/>
						<g>
							<path class="st10" d="M366.1,162.4c1.8-1,3.2-0.2,3.2,1.8l0.1,29.4c0,2-1.4,4.5-3.2,5.6c-1.8,1-3.2,0.2-3.2-1.8l-0.1-29.4
								C362.9,165.9,364.3,163.4,366.1,162.4z"/>
						</g>
						<g>
							<path class="st3" d="M366.6,165.7c1.5-0.8,2.6-0.2,2.6,1.5l0.1,24.1c0,1.7-1.2,3.7-2.6,4.6c-1.5,0.8-2.6,0.2-2.6-1.5
								l-0.1-24.1C364,168.5,365.2,166.5,366.6,165.7z"/>
						</g>
					</g>
				</g>
			</g>
			<g>
				<g class="st9">
					<path class="st11" d="M242.1,84.9l-24.2-14c-0.8-0.5-1.5-0.5-2-0.2l-4.6,2.6c0.5-0.3,1.2-0.3,2,0.2l24.2,14
						c1.6,0.9,2.8,3.1,2.8,4.9l-0.1,27.8c0,0.9-0.3,1.5-0.8,1.8l4.6-2.6c0.5-0.3,0.8-0.9,0.8-1.8l0.1-27.8
						C244.9,88,243.7,85.8,242.1,84.9z"/>
					<g>
						<path class="st12" d="M237.6,87.6c1.6,0.9,2.8,3.1,2.8,4.9l-0.1,27.8c0,1.8-1.3,2.5-2.9,1.6l-24.2-14
							c-1.6-0.9-2.8-3.1-2.8-4.9l0.1-27.8c0-1.8,1.3-2.5,2.8-1.6L237.6,87.6z"/>
					</g>
					<g>
						<g>
							<path class="st13" d="M223.7,99.2l-2.3,6.1l-9.5-5.5l5.9-8.3c0.8-1.2,2.9,0,3.7,2.1L223.7,99.2z"/>
							<polygon class="st2" points="227.4,108.8 221.4,105.3 223.7,99.2 							"/>
							<path class="st13" d="M236.9,114.3l-9.5-5.5l-3.7-9.6l2.9-7.7c0.9-2.3,4.3-0.3,5.2,3L236.9,114.3z"/>
						</g>
						<path class="st2" d="M223.7,88.3c0,1.3-0.9,1.9-2.1,1.2c-1.2-0.7-2.1-2.3-2.1-3.7c0-1.3,0.9-1.9,2.1-1.2
							C222.8,85.4,223.7,87,223.7,88.3z"/>
					</g>
				</g>
			</g>
			<g>
				<g class="st9">
					<path class="st11" d="M331.3,190.9l-59.6-34.4c-0.8-0.5-1.6-0.5-2.1-0.2l-4.6,2.6c0.5-0.3,1.3-0.3,2.1,0.2l59.6,34.4
						c1.6,0.9,2.9,3.2,2.9,5.1l0,10.2c0,0.9-0.3,1.6-0.9,1.9l4.6-2.6c0.5-0.3,0.9-1,0.9-1.9l0-10.2
						C334.2,194.1,332.9,191.8,331.3,190.9z"/>
					<g>
						<path class="st12" d="M326.7,193.5c1.6,0.9,2.9,3.2,2.9,5.1l0,10.2c0,1.9-1.3,2.6-3,1.7l-59.6-34.4c-1.6-0.9-2.9-3.2-2.9-5.1
							l0-10.2c0-1.9,1.3-2.6,3-1.7L326.7,193.5z"/>
					</g>
					<path class="st13" d="M324.7,199.7L270.1,168c-0.6-0.4-1.1,0-1.1,0.9l0,0c0,0.8,0.5,1.8,1.1,2.2l54.6,31.7
						c0.6,0.4,1.1,0,1.1-0.9l0,0C325.9,201.1,325.4,200.1,324.7,199.7z"/>
				</g>
			</g>
			<g>
				<g class="st9">
					<path class="st11" d="M331.3,226.4L271.7,192c-0.8-0.5-1.6-0.5-2.1-0.2l-4.6,2.6c0.5-0.3,1.3-0.3,2.1,0.2l59.6,34.4
						c1.6,0.9,2.9,3.2,2.9,5.1l0,10.2c0,0.9-0.3,1.6-0.9,1.9l4.6-2.6c0.5-0.3,0.9-1,0.9-1.9l0-10.2
						C334.2,229.6,332.9,227.4,331.3,226.4z"/>
					<g>
						<path class="st12" d="M326.7,229.1c1.6,0.9,2.9,3.2,2.9,5.1l0,10.2c0,1.9-1.3,2.6-3,1.7l-59.6-34.4c-1.6-0.9-2.9-3.2-2.9-5.1
							l0-10.2c0-1.9,1.3-2.6,3-1.7L326.7,229.1z"/>
					</g>
					<path class="st13" d="M324.7,234.7L270.1,203c-0.6-0.4-1.1,0-1.1,0.9l0,0c0,0.8,0.5,1.8,1.1,2.2l54.6,31.7
						c0.6,0.4,1.1,0,1.1-0.9l0,0C325.9,236,325.4,235.1,324.7,234.7z"/>
				</g>
			</g>
			<g>
				<g class="st9">
					<path class="st11" d="M242.1,261.4l-24.2-14c-0.8-0.5-1.5-0.5-2-0.2l-4.6,2.6c0.5-0.3,1.2-0.3,2,0.2l24.2,14
						c1.6,0.9,2.8,3.1,2.8,4.9l-0.1,27.8c0,0.9-0.3,1.5-0.8,1.8l4.6-2.6c0.5-0.3,0.8-0.9,0.8-1.8l0.1-27.8
						C244.9,264.5,243.7,262.3,242.1,261.4z"/>
					<g>
						<path class="st12" d="M237.6,264.1c1.6,0.9,2.8,3.1,2.8,4.9l-0.1,27.8c0,1.8-1.3,2.5-2.9,1.6l-24.2-14
							c-1.6-0.9-2.8-3.1-2.8-4.9l0.1-27.8c0-1.8,1.3-2.5,2.8-1.6L237.6,264.1z"/>
					</g>
					<g>
						<path class="st13" d="M236.8,273.5L236.8,273.5l-11.5,1l-11.7-14.4l0,0c0-0.5,0.3-0.6,0.7-0.4l21.8,12.6
							C236.4,272.5,236.8,273.1,236.8,273.5z"/>
						<path class="st13" d="M225.2,275.4l11.5-1v14.1c0,0.5-0.3,0.6-0.7,0.4l-21.8-12.6c-0.4-0.2-0.7-0.8-0.7-1.2V261l11.5,14.2
							L225.2,275.4z"/>
					</g>
				</g>
			</g>
			<g>
				<g class="st9">
					<path class="st11" d="M330.3,266.8l-107.8-62.3c-1.1-0.6-2.1-0.7-2.8-0.3l-4.6,2.6c0.7-0.4,1.7-0.4,2.8,0.3l107.8,62.3
						c2.2,1.3,3.9,4.3,3.9,6.8l0,8.1c0,1.2-0.4,2.1-1.2,2.5l4.6-2.6c0.7-0.4,1.1-1.3,1.2-2.5l0-8.1
						C334.2,271.1,332.4,268.1,330.3,266.8z"/>
					<g>
						<path class="st12" d="M325.7,269.5c2.2,1.3,3.9,4.3,3.9,6.8l0,8.1c0,2.5-1.8,3.5-4,2.3l-107.8-62.3c-2.2-1.3-3.9-4.3-3.9-6.8
							l0-8.1c0-2.5,1.8-3.5,4-2.3L325.7,269.5z"/>
					</g>
					<path class="st13" d="M322.9,275.6l-103.8-60.3c-0.6-0.4-1.1,0-1.1,0.9l0,0c0,0.8,0.5,1.8,1.1,2.2l103.8,60.3
						c0.6,0.4,1.1,0,1.1-0.9l0,0C324,276.9,323.5,275.9,322.9,275.6z"/>
				</g>
			</g>
			<g>
				<g class="st9">
					<path class="st11" d="M286.4,286.9l-24.2-14c-0.8-0.5-1.5-0.5-2-0.2l-4.6,2.6c0.5-0.3,1.2-0.3,2,0.2l24.2,14
						c1.6,0.9,2.8,3.1,2.8,4.9l-0.1,27.8c0,0.9-0.3,1.5-0.8,1.8l4.6-2.6c0.5-0.3,0.8-0.9,0.8-1.8l0.1-27.8
						C289.2,290,287.9,287.8,286.4,286.9z"/>
					<g>
						<path class="st12" d="M281.8,289.6c1.6,0.9,2.8,3.1,2.8,4.9l-0.1,27.8c0,1.8-1.3,2.5-2.9,1.6l-24.2-14
							c-1.6-0.9-2.8-3.1-2.8-4.9l0.1-27.8c0-1.8,1.3-2.5,2.8-1.6L281.8,289.6z"/>
					</g>
					<g>
						<g>
							<path class="st13" d="M279.6,314.6l-20-11.6c-1.2-0.7-2.2-2.4-2.2-3.8v-11c0-1.4,1-1.9,2.2-1.2l20,11.6
								c1.2,0.7,2.2,2.4,2.2,3.8v11C281.8,314.7,280.8,315.3,279.6,314.6z M259.6,288c-0.7-0.4-1.3-0.1-1.3,0.7v11
								c0,0.8,0.6,1.8,1.3,2.2l20,11.6c0.7,0.4,1.3,0.1,1.3-0.7v-11c0-0.8-0.6-1.8-1.3-2.2L259.6,288z"/>
						</g>
						<g>
							<path class="st13" d="M269.6,307c-2.9-1.7-5.3-5.8-5.3-9.2c0-3.4,2.4-4.7,5.3-3c2.9,1.7,5.3,5.8,5.3,9.2
								C274.9,307.3,272.6,308.7,269.6,307z M269.6,295.8c-2.4-1.4-4.4-0.3-4.4,2.5c0,2.8,2,6.2,4.4,7.6c2.4,1.4,4.4,0.3,4.4-2.5
								C274,300.7,272,297.2,269.6,295.8z"/>
						</g>
						<g>
							<path class="st13" d="M275.9,297.3l-12.6-7.3v-2.6c0-0.9,0.6-1.3,1.4-0.8l9.8,5.6c0.8,0.5,1.4,1.6,1.4,2.5V297.3z
								 M264.2,289.4l10.8,6.2v-1.6c0-0.3-0.2-0.7-0.5-0.9l-9.8-5.6c-0.3-0.2-0.5,0-0.5,0.3V289.4z"/>
						</g>
					</g>
				</g>
			</g>
			<g>
				<g class="st9">
					<path class="st11" d="M331.4,312.8l-24.2-14c-0.8-0.5-1.5-0.5-2-0.2l-4.6,2.6c0.5-0.3,1.2-0.3,2,0.2l24.2,14
						c1.6,0.9,2.8,3.1,2.8,4.9l-0.1,27.8c0,0.9-0.3,1.5-0.8,1.8l4.6-2.6c0.5-0.3,0.8-0.9,0.8-1.8l0.1-27.8
						C334.2,315.9,332.9,313.8,331.4,312.8z"/>
					<g>
						<path class="st12" d="M326.8,315.5c1.6,0.9,2.8,3.1,2.8,4.9l-0.1,27.8c0,1.8-1.3,2.5-2.8,1.6l-24.2-14
							c-1.6-0.9-2.8-3.1-2.8-4.9l0.1-27.8c0-1.8,1.3-2.5,2.9-1.6L326.8,315.5z"/>
					</g>
					<path class="st13" d="M314.7,314.9c-5.5-3.2-10-1.5-10,3.7c0,3.4,1.9,7.5,4.7,10.8c-0.1,0.9-0.7,2.8-3.2,1.3c0,0,3.5,3.9,6.8,2
						c0.6,0.4,1.1,0.8,1.7,1.2c5.5,3.2,10,1.5,10-3.7C324.8,324.9,320.3,318.1,314.7,314.9z"/>
				</g>
			</g>
			<g>
				<g class="st9">
					<path class="st11" d="M329.6,135.3l-68.8-39.7c-1.3-0.7-2.4-0.8-3.3-0.3L253,98c0.8-0.5,2-0.4,3.3,0.3l68.8,39.7
						c2.5,1.5,4.6,5,4.6,7.9l-0.1,23.8c0,1.4-0.5,2.5-1.3,2.9l4.6-2.6c0.8-0.5,1.3-1.5,1.3-2.9l0.1-23.8
						C334.2,140.3,332.2,136.8,329.6,135.3z"/>
					<g>
						<path class="st12" d="M325.1,138c2.5,1.5,4.6,5,4.6,7.9l-0.1,23.8c0,2.9-2.1,4.1-4.6,2.6l-68.8-39.7c-2.5-1.5-4.6-5-4.6-7.9
							l0.1-23.8c0-2.9,2.1-4.1,4.6-2.6L325.1,138z"/>
					</g>
					<g>
						<path class="st13" d="M323.3,143.7l-64.9-37.6c-0.6-0.4-1.1,0-1.1,0.9l0,0c0,0.8,0.5,1.8,1.1,2.2l64.9,37.6
							c0.6,0.4,1.1,0,1.1-0.9l0,0C324.5,145,324,144.1,323.3,143.7z"/>
						<path class="st13" d="M323.3,152.7l-64.9-37.6c-0.6-0.4-1.1,0-1.1,0.9l0,0c0,0.8,0.5,1.8,1.1,2.2l64.9,37.6
							c0.6,0.4,1.1,0,1.1-0.9l0,0C324.5,154,324,153.1,323.3,152.7z"/>
						<path class="st13" d="M323.3,161.7l-64.9-37.6c-0.6-0.4-1.1,0-1.1,0.9l0,0c0,0.8,0.5,1.8,1.1,2.2l64.9,37.6
							c0.6,0.4,1.1,0,1.1-0.9l0,0C324.5,163,324,162.1,323.3,161.7z"/>
					</g>
				</g>
			</g>
		</g>
		<g>
			<g>
				<path class="st14" d="M218.4,144.6c-0.1-0.2-0.2-0.4-0.2-0.6c0-0.2,0-0.5,0-0.7c0-0.5-0.2-1-0.7-1.4c-0.2-0.1-0.4-0.2-0.5-0.4
					c-0.1-0.1-0.2-0.3-0.3-0.5c-0.5-0.8-1.6-1-2.6-0.9c-2,0.2-3.9,1-5.6,1.9c-2.4,1.3-4.5,3.1-6,5.3c-0.6,0.9-1.1,1.8-1.4,2.8
					c-0.3,0.9-0.6,1.8-0.9,2.6c-0.2,0.6-0.4,1.2-0.5,1.8c-0.1,0.3-0.1,0.6-0.1,0.9c0,0.3,0,0.5-0.1,0.8
					c-0.2,0.3-18.6,23.3-19.9,24.9c-1.2,1.4-2.1,3.2-3.4,4.4c-2.8,2.6-6.4,4.4-9.8,6.1c-2.8,1.3-7.6,2.6-6.4,6.8
					c0.4,1.2,1.4,2.2,2.3,3.1c1.5,1.6,2.7,3.5,3.6,5.5c0.1,0.1,0.1,0.3,0.2,0.3c0.2,0.1,0.4,0,0.5-0.1c4.8-2.6,18-11.8,20.2-13.2
					c0-0.1,0-0.1,0-0.2c0.7-0.3,1.2-1,1.7-1.6c1.6-2.2,3.1-4.4,4.6-6.7c1.4-2.3,2.8-4.7,4.1-7c1.3-2.4,2.5-4.8,3.7-7.3
					c1.2-2.4,4-8.4,4.2-8.8c0.2-0.4,0.3-0.9,0.7-1.1c0.3-0.1,0.6-0.1,0.8-0.3c0.3-0.2,0.6-0.4,0.8-0.6c2.7-2.5,4.2-6,6.3-8.9
					c0.4-0.5,0.8-1.1,1.3-1.5c1-0.8,2.3-1.2,2.9-2.2c0.3-0.4,0.4-0.9,0.5-1.4C218.4,145.8,218.6,145.2,218.4,144.6z"/>
				<path class="st12" d="M147.5,413.7c0.1,1.7,0.7,3.2,1.9,4.1c0.7,0.5,1.6,0.7,2.5,0.7c2.4,0.1,4.9-0.8,6.8-2.3
					c2.1-1.8,3.4-4.4,5.6-6c1.2-0.9,2.6-1.4,3.9-2c3.3-1.5,6.4-3.5,9.1-5.9c0.6-0.5,1.3-1.2,1.6-1.9c0.5-1.2,0-2.6-1.1-3.2
					c-0.7-0.4-1.4-0.6-2.2-0.7c-2.7-0.5-5.5-0.3-8.2-0.1c-3.5,0.3-7,0.8-10.3,2c-1.4,0.5-2.8,1.2-4,2.1c-0.5,0.3-1.2,1.2-1.7,1.3
					c-0.2,0-1.5-0.4-1.5-0.5c-0.8,2.4-1.5,4.9-2,7.4C147.7,409.9,147.4,411.9,147.5,413.7z"/>
				<path class="st4" d="M172.8,284.4c-0.1-0.9-0.6-1.8-1.1-2.7c-3-5.7-4.4-12.1-6.6-18.2c-1.1-2.9-2.3-5.8-4-8.4
					c-1-1.5-3.8-5.7-6.2-4.8c-0.3,0.1-0.6,0.4-0.9,0.6c-4.4,4.3-8.1,9.3-10.8,14.8c-2.8,5.6-4.1,11-4.1,17.3c0,4.7,0.7,9.3,2.2,13.8
					c0.5,1.6,1.1,3.1,1.4,4.7c0.3,1.7,0.4,3.5,0.4,5.2c0.1,6.8,0.1,13.6,0.2,20.3c0,3.1,0,6.2,0.3,9.3c0.2,3.1,0.3,6.4-0.6,9.4
					c-0.9,3.2-1.5,6.4-1.9,9.7c-1,8.6,0.8,17.2,2.6,25.6c1.6,7.6,3.2,15.2,4.9,22.8c0.1,0.4,0.2,0.9,0.5,1.2
					c0.3,0.3,0.6,0.4,0.9,0.5c2.1,0.6,4.4,0.2,6.3-0.6c2-0.9,3.7-2.2,5.3-3.7c0.4-0.4,0.9-0.8,1.1-1.3c0.6-1.3,0-2.8-0.5-4.1
					c-4.8-11.8-4.5-25.2-1.5-37.6c1-4.2,2.3-8.4,2.9-12.8c0-0.3,0.1-0.7,0.1-1c0,0,0,0,0-0.1c4.6-19.1,7-38.7,9.1-58.3
					C172.8,285.6,172.9,285,172.8,284.4z"/>
				<path class="st11" d="M207.9,394.2c-2.8-0.1-5.6-0.1-8.3,0.2c-2.1,0.3-4.4,1-6,2.4c-1.1,1-1.9,2.2-2.7,3.4
					c-2.1,3.3-5.9,11.2-0.4,13.4c1,0.4,2,0.4,3,0.2c3.5-0.5,6.5-2.9,10-3.5c1.3-0.2,2.6-0.2,3.9-0.2c4.7-0.1,9.5-1,13.5-3.6
					c1.9-1.2,3.2-3,3.7-5.2c0.7-3-1.1-4.9-3.9-5.5C216.6,394.9,212.3,394.4,207.9,394.2z"/>
				<path class="st15" d="M203.4,392.1c-2.8-9.3-4.2-19.1-4.2-28.8c0-7.8-1-16,0-23.7c1-7.8,0.4-16.3-1-24
					c-2.2-12.5-7.7-24.3-8.8-36.9c-0.4-4.8-0.2-9.6-1-14.3c-5.6,2.9-12.3,3.7-18.5,2.3c-3.2-0.8-6.3-2.1-9.3-3.2
					c-1.3-0.5-2.7-0.7-4-1.1c-1.2-0.4-1.9-1.1-2.9-1.9c-4.9,5.9-7.8,13.4-8.1,21c-0.3,5.8,0.9,11.7,3.4,16.9
					c2.6,5.5,6.8,9.4,11.3,13.3c4.4,3.8,8.9,7.5,12.1,12.4c2.7,4.2,4.2,9.6,5.5,14.3c1.5,5.4,2.7,10.9,2.9,16.6
					c0.2,5.2-0.5,10,0.4,15.2c0.4,2.4,1,4.7,1.7,7c2.7,8.3,7.4,16.3,7.1,25c0,0.4,0,0.8,0.2,1.1c0.2,0.2,0.5,0.3,0.7,0.4
					c3.6,1.2,7.5-0.4,10.5-2.7c1-0.8,2-1.7,2.5-2.9C204.6,396.2,203.9,394.1,203.4,392.1z"/>
				<path class="st16" d="M139.2,197.2c-1.1,5.7-0.5,12,0.6,17.4c1.6,7.8,3.8,15.5,6.7,23c1.2,3,2.4,6.1,2.7,9.4
					c0.5,5.7-2.3,11.1-5,16.2c-0.3,0.5-0.5,1-0.5,1.5c0,0.4,0.3,0.8,0.5,1.2c3.3,4.7,8.3,8,13.6,9.9c5.4,1.9,11.2,2.5,16.9,2.4
					c4.9-0.1,9.8-0.6,14.2-2.8c0.2-7.1,0.5-14.2,0.4-21.4c-0.1-6.7-1.7-13.7-0.1-20.4c0.6-2.4,1.6-4.7,2.2-7
					c0.7-2.5,0.9-5.2,0.7-7.8c-0.2-2.1-0.8-4.5-2.6-5.6c-0.6-0.3-1.2-0.5-1.8-0.8c-2.8-1.5-3.5-5.4-6.2-7.1c-1-0.6-2.1-0.8-3.2-1.1
					c-11.8-3.3-20.7-17.8-33.9-15.7c-0.7,0.1-1.4,0.2-2,0.6c-0.6,0.4-1,1.1-1.4,1.8C140.2,192.9,139.6,195,139.2,197.2z"/>
				<path class="st14" d="M145,192.6c-0.2,0.3-0.3,0.7-0.4,1c-0.8,2.5,1.5,4.2,3.5,5.3c3.1,1.7,6.8,2.5,10.4,2.5
					c2.2,0,4.3-0.3,6.5-0.7c0.8-0.2,1.4-0.2,1.8-0.9c0.5-0.9,0.5-1.9,0.6-2.9c0.1-2.2,0.2-4.3,0.2-6.5c0.1-3.4,0.2-6.7,0.3-10.1
					c0-1.4-1.9-1-3-1.2c-1.5-0.2-3.1-0.4-4.6-0.7c-3-0.6-6-1.4-8.7-2.8c-0.7-0.4-1.9-1.3-2.7-1.3c-1-0.1-1,1.3-1.1,2.1
					c-0.3,2.3-0.3,4.6-0.3,6.9c-0.1,2.7-0.4,5.5-1.6,7.9C145.5,191.7,145.2,192.2,145,192.6z"/>
				<path class="st17" d="M173.5,159.1c0.3,0.5,0.6,1,0.7,1.6c0.1,0.5-0.1,1.1-0.1,1.6c0,1.9,1.9,3.2,3.4,4.4
					c0.6,0.5,1.2,1.1,1.1,1.8c0,0.3-0.2,0.6-0.3,0.8c-1.1,2.1-1.1,4.5-1,6.9c0.1,1.5,1.2,5.4-0.3,6.4c-1.8,1.1-3.7,2-5.7,2.6
					c-1.2,0.4-2.6,0.6-3.7,0c-1-0.6-1.6-1.7-2.5-2.4c-1-0.9-2.5,0.4-3.6,0.8c-1.5,0.5-3,0.8-4.6,0.9c-3,0.2-6.1-0.2-8.9-1.3
					c-1.8-0.7-3.5-1.6-4.9-2.9c-1.6-1.5-2.7-3.3-3.8-5.2c-1.4-2.5-2.8-5.2-3.1-8c-0.3-3,0.6-6.1,2-8.7c1.4-2.6,3.2-4.6,5.6-6.4
					c4.3-3.3,10.1-4,15.6-4c2,0,3.6,0.2,5.5,0.9c1.9,0.8,3.5,2.1,4.3,4C170.2,155.1,172.2,157,173.5,159.1z"/>
				<path class="st18" d="M161.6,173.3c0.7-1.1,1.7-1.9,3.1-2.7c2.9-1.6,3.4-5.1,3.7-8c0.5-3.7,0.4-7.9-0.9-11.4
					c-1.2-3.2-5.2-4.5-8.3-4.9c-3.8-0.5-7.7,0-11.3,1.4c-5.3,2.1-9.7,7.1-12.1,12.2c-2.9,6.2-3,12.5-2.5,19.2
					c0.2,2.2,0.2,3.8,1.8,5.6c1,1.1,2.2,1.9,3.4,2.6c6.8,3.9,15.4,4.6,22.8,1.9c1.1-0.4,2.2-0.9,3.1-1.6c2.2-1.9,1.9-4.5,0.1-6.6
					c-0.9-1.1-2.5-1.2-3.2-2.5c-0.3-0.6-0.4-1.4-0.4-2.1C160.9,175.1,161.1,174.1,161.6,173.3z"/>
				<g>
					<g class="st9">
						<path class="st11" d="M251.6,147L216.9,127c-1.1-0.6-2.1-0.7-2.8-0.3l-4.6,2.6c0.7-0.4,1.7-0.4,2.8,0.3l34.8,20.1
							c2.2,1.3,3.9,4.3,3.9,6.8l-0.1,37.5c0,1.2-0.4,2.1-1.2,2.5l4.6-2.6c0.7-0.4,1.1-1.3,1.2-2.5l0.1-37.5
							C255.6,151.4,253.8,148.3,251.6,147z"/>
						<g>
							<path class="st12" d="M247.1,149.7c2.2,1.3,3.9,4.3,3.9,6.8l-0.1,37.5c0,2.5-1.8,3.5-4,2.3l-34.8-20.1
								c-2.2-1.3-3.9-4.3-3.9-6.8l0.1-37.5c0-2.5,1.8-3.5,4-2.3L247.1,149.7z"/>
						</g>
						<path class="st13" d="M228.4,150.4c-6.1-3.5-11.1-0.7-11.1,6.3c0,7,5,15.6,11.1,19.1c6.1,3.5,11.1,0.7,11.1-6.3
							C239.5,162.4,234.6,153.9,228.4,150.4z M225.7,167.4v-11.4l8.6,10.7L225.7,167.4z"/>
					</g>
				</g>
				<path class="st17" d="M193.3,229.9c11,0.9,22,0.1,33-0.8c0.1,0,0.1,0,0.2,0c2.8-0.3,3.4-2.6,4.5-4.8c1-1.9,1.8-3.9,2.7-5.9
					c4.6-10.8,8.6-21.7,12.1-32.9c0.6-1,1.7-1.7,2.6-2.4c3.8-3,6.9-7,9-11.4c0.7-1.4,1.2-3.1,0.5-4.5c-0.2-0.4-0.6-0.8-0.7-1.2
					c-0.2-0.5-0.1-1.1-0.3-1.7c-0.4-1.2-1.8-1.9-2.4-3c-0.2-0.5-0.4-1-0.9-1.2c-0.4-0.2-0.9,0.1-1.1,0.4c-0.3,0.3-0.4,0.7-0.6,1.1
					c-0.9,2.3-2.7,4.2-4.9,5.3c-0.4,0.2-1,0.4-1.3,0.1c0.7-1.1,1.2-2.3,1.5-3.5c0.2-0.7,0.3-1.5,0-2.2c-0.3-0.7-1.1-1.2-1.8-0.8
					c-0.7,0.3-0.8,1.2-1,1.9c-0.3,1.2-0.8,2.3-1.4,3.3c-0.7,1-1.6,1.9-2.3,3c-0.6,0.9-1,1.9-1.3,2.9c-0.5,1.8-0.7,3.8-0.8,5.7
					c0,1-0.2,2.1-0.4,3.1c0,0.1-0.1,0.2-0.1,0.3c-1.1,3.2-16.5,32.2-18.8,35.6c-0.7,0-1.3,0-1.9-0.1c-7.3-0.8-14.6-2-21.3-5
					c-3.4-1.5-6.6-3.5-10.1-4.5c-3.6-1.1-7.7-1.1-10.7,1.1c-2.4,1.8-3.6,4.6-4.2,7.4c-2.2,10.9,11.6,13.6,19.4,14.6
					C191.4,229.7,192.3,229.8,193.3,229.9z"/>
				<path class="st0" d="M205,221.1c0,3.8-0.9,7.4-2.7,10.7c-0.6,1.2-1.3,1.6-2.7,1.6c-1,0-2-0.1-3-0.3c-5.6-0.8-11.2-2-16.6-3.7
					c-2.6-0.8-4.8-1.4-7.1-2.9c-1.3-0.8-2.4-1.9-3.1-3.2c-1.3-2.1-1.7-4.6-1.3-7.1c0.8-4.4,3.8-8.4,8-10.1c0.5-0.2,1.1-0.4,1.7-0.5
					c1.2-0.2,2.4-0.1,3.7,0c3.4,0.5,6.8,1.7,10,2.9c3.5,1.2,7,2.5,10.4,3.8c1.5,0.6,1.6,1.9,2,3.3C204.8,217.4,205,219.2,205,221.1z
					"/>
				<path class="st17" d="M205.3,144.9c-1,0.6-2,1.1-2.7,2c-1.1,1.3-1.3,3.1-1.1,4.7c0.1,0.7,0.3,1.4,0.7,2s1.1,1,1.8,1
					c0.7-0.1,1.2-0.5,1.7-1.1c0.4-0.6,0.8-1.2,1-1.9c0.4-1.4,0.3-2.9,1.1-4.1c0.4-0.5,0.9-0.9,1.4-1.4c0.6-0.5,1.2-1.1,1.7-1.8
					c0.3-0.5,0.6-1,0.7-1.6c0.1-0.6,0-1.2-0.3-1.7c-0.9-1.4-2,0.6-2.6,1.2C207.6,143.2,206.5,144.1,205.3,144.9z"/>
			</g>
		</g>
	</g>
	<g>
		<g>
			<path class="st14" d="M351.9,269.7c6.5,1.5,12.9,3,19.4,4.6c3.9,0.9,7.8,1.8,11.4,3.4c3.7,1.6,7.1,3.8,9.5,7
				c0.1,0.2,0.3,0.4,0.1,0.6c-0.1,0.1-0.2,0.2-0.4,0.2c-5,1-10.1,2-15.2,1.6c-3.9-0.4-7.7-1.6-11.3-3.1c-4-1.7-8-3.7-11.7-6
				c-3-1.8-5.9-4-7.5-7c-0.2-0.4-0.4-0.8-0.3-1.2c0.1-0.3,0.4-0.6,0.7-0.8c0.8-0.5,1.6-1.1,2.5-0.5
				C350,269.1,350.9,269.4,351.9,269.7z"/>
			<path class="st17" d="M432.7,311.2c0,8.9-6.3,19.7-14,24.2c-3.9,2.3-7.5,2.5-10,0.9c-0.1,0-0.1,0-0.2-0.1
				c-4.6-2.8-10-4.3-15.2-5.2c-7.3-1.2-14.9-1.2-22.3-1.8c-3.2-0.2-6.4-0.6-9.4-1.8c-3.4-1.3-6.3-3.6-9.1-6c-2.4-2.1-4.7-4.3-7-6.5
				c-6.8-6.5-13.6-13.1-20.5-19.6c-0.8-0.8-1.7-1.6-2.2-2.5c-0.6-0.9-0.2-2.1,0.2-3c0.5-0.9,1.3-1.6,2-2.3c0,0,0.1-0.1,0.1-0.1
				c0.1-0.1,0.2-0.3,0.1-0.4c0-0.1-0.1-0.1-0.2-0.2c0,0-0.1-0.1-0.1-0.1c0,0,0,0,0,0c-1.6-1.3-3.2-2.6-4.8-3.9c-1-0.8-2-1.7-2.3-2.9
				c-0.3-1.1,0.2-2.3,1.1-3.1c0.4-0.4,0.9-0.7,1.4-0.8c0.2-0.1,0.4-0.1,0.6-0.1c0.4,0,0.7,0.1,1.1,0c-0.8-0.6-1.6-1.1-2.4-1.7
				c0,0,0,0,0,0c-0.7-0.6-1.5-1.1-2.2-1.6c-0.8-0.6-1.6-1.5-1.6-2.5c-0.1-1.6,1-3.1,2.3-3.7c1.9-0.9,4.4-0.1,6.1,1
				c0.2,0.1,0.4,0.3,0.6,0.4c-0.2-0.1-0.3-0.6-0.5-0.8c-0.2-0.3-0.4-0.6-0.7-0.9c-0.1-0.2-0.2-0.3-0.4-0.5c-0.4-0.4-0.7-0.9-1-1.4
				c-0.7-1.2-1.3-2.7-0.5-4c0.7-1,1.9-1.5,3.1-1.5c1.4,0,2.7,0.4,4,0.8c4.6,1.5,9.2,3.3,13.6,5.3c2,0.9,4.1,1.9,5.9,3.1
				c2,1.3,3.6,2.8,5.4,4.3c5.8,4.7,13.1,7.5,20.5,7.9c3.6,0.2,7.2-0.1,10.7,0.5c3.6,0.7,7,2.3,10.2,3.9c5.4,2.7,21.6,11.5,32.1,17.1
				c0.5,0.3,1,0.5,1.5,0.8C431.3,304.1,432.7,307.1,432.7,311.2z"/>
			<path class="st14" d="M432.7,311.2c0,8.9-6.3,19.7-14,24.2c-3.9,2.3-7.5,2.5-10,0.9c-0.1,0-0.1,0-0.2-0.1
				c-2.4-1.5-3.8-4.6-3.8-8.8c0-8.9,6.3-19.7,14-24.2c3.4-2,6.5-2.4,8.9-1.5c0.5,0.2,1,0.5,1.5,0.8
				C431.3,304.1,432.7,307.1,432.7,311.2z"/>
			<path class="st14" d="M322.5,260.4c-0.5,0.6-0.7,1.4-0.7,2.2c0,0.3,0,0.6,0.1,0.9c0.1,0.3,0.3,0.6,0.5,0.8c1,1.3,2.3,2.3,3.6,3.2
				c0.9-1.3,1.1-3,1.2-4.6c0-0.1,0-0.2,0-0.3c0-0.1-0.1-0.2-0.2-0.3c-0.5-0.6-1-1.3-1.5-1.9c-0.4-0.5-0.7-0.9-1.4-0.8
				C323.5,259.6,322.9,259.9,322.5,260.4z"/>
			<path class="st14" d="M316.1,269.7c-0.1,0.6-0.1,1.2,0,1.8c0,0.3,0.1,0.7,0.3,0.9c0.1,0.2,0.3,0.3,0.5,0.4c1.5,0.8,3,1.5,4.7,1.9
				c0.4-1.2,0.5-2.5,0.5-3.8c0-0.2,0-0.4-0.1-0.5c0-0.1-0.1-0.2-0.2-0.3c-0.8-1-2-1.7-3.2-2c-0.6-0.2-1-0.3-1.5,0.1
				C316.6,268.5,316.2,269.1,316.1,269.7z"/>
			<path class="st14" d="M318.3,279.9c-0.1,0.5-0.3,1-0.1,1.5c0.1,0.3,0.3,0.5,0.6,0.8c1.3,1.3,2.9,2.5,4.6,3.3
				c0.1-0.8,0.2-1.7,0.2-2.5c-0.1-0.8-0.3-1.7-0.8-2.3c-0.6-0.8-1.6-1.3-2.5-1.6c-0.3-0.1-0.9-0.5-1.3-0.3
				C318.6,278.8,318.4,279.5,318.3,279.9z"/>
			<path class="st14" d="M323.6,293.3c1.1,0.7,2.1,1.5,3.2,2.2c0.1,0,0.1,0.1,0.2,0c0.1,0,0.1-0.1,0.1-0.2c0.1-0.8,0.1-1.7-0.2-2.5
				c-0.3-0.6-0.8-1.1-1.3-1.6c-0.5-0.4-1-1-1.7-1.2c-1.1-0.3-2,0.7-1.6,1.8C322.4,292.5,323.1,292.9,323.6,293.3z"/>
			<path class="st14" d="M355.9,318.5c-3.6-1.5-6.4-4.4-9.1-7.2c-4.3-4.4-8.5-8.7-12.8-13.1c-1.6-1.6-3.2-3.3-4.6-5.1
				c-1.5-1.9-2.6-3.8-4.3-5.4c0.1-0.1,0.2-0.3,0.1-0.4c0-0.1-0.1-0.1-0.2-0.2c0,0-0.1-0.1-0.1-0.1c2,1.2,3.7,3.1,5.2,4.8
				c3.9,4.5,7.6,9.1,11.8,13.2C346.6,309.6,351.8,313.6,355.9,318.5z"/>
			<path class="st14" d="M353.3,306.5c-4.1-3-7.4-6.7-10.8-10.4c-2.9-3.2-5.7-6.3-8.5-9.5c-1.2-1.4-2.4-2.7-3.8-3.9
				c-1.3-1.1-2.7-2.1-4.1-3.1c-1.6-1.1-3.1-2.3-4.7-3.2c-0.1-0.1-0.2-0.1-0.3-0.2c0.4,0,0.7,0.1,1.1,0c-0.8-0.6-1.6-1.1-2.4-1.7
				c3.8,1.8,7.3,4.6,10.3,7.4c1.6,1.5,3,3.1,4.5,4.6C340.7,293.2,347,299.9,353.3,306.5z"/>
			<path class="st14" d="M355,292.5c-2.3-1.2-4.1-3-5.9-4.7c-5.8-5.5-12-10.6-18.6-15.3c-2-1.4-4.2-2.9-5.9-4.6
				c-0.1-0.1-0.2-0.2-0.2-0.3c0.2,0.1,0.4,0.3,0.6,0.4c-0.2-0.1-0.3-0.6-0.5-0.8c-0.2-0.3-0.4-0.6-0.6-0.9c-0.1-0.2-0.2-0.3-0.4-0.5
				c0.6,0.4,1.2,0.8,1.8,1.2c5.5,3.8,10.4,8.2,15.4,12.6c1.8,1.6,3.6,3.2,5.4,4.8C349,287.1,352,289.8,355,292.5z"/>
			<path class="st14" d="M364.5,293.8c0.6,0.1,1.1,0.1,1.7,0c0.3,0,0.6-0.1,0.8-0.2c0.2-0.1,0.3-0.4,0.4-0.6
				c0.3-0.7,0.2-1.6-0.1-2.3c-0.8-1.9-3.8-4.7-5.6-2.3C360.1,290.5,362.2,293.5,364.5,293.8z"/>
			<path class="st14" d="M360.4,309.7c0.3,0,0.7,0,1-0.1c0.7-0.2,1.1-1.1,1.1-1.8c-0.2-2.4-4.4-3.6-6.1-2
				C354.2,307.8,358.9,309.5,360.4,309.7z"/>
			<path class="st14" d="M360.5,319.8c1.1-0.5-1.1-5.9-3.5-3.8c-0.6,0.5-1.1,1.4-0.7,2.2C356.8,319,359.5,320.2,360.5,319.8z"/>
			<path class="st14" d="M360.1,324.9c0.1-0.1,0.1-0.2,0.1-0.3c0-1.3-2.9-3.5-3.5-1.7c-0.1,0.5,0.1,1.3,0.5,1.6
				C357.7,325,359.7,325.4,360.1,324.9z"/>
		</g>
	</g>
	<g>
		<g class="st9">
			<path class="st19" d="M416.2,87.4c-5.7-3.3-10.9-3.6-14.6-1.4l-5.9,3.4c3.7-2.2,8.9-1.9,14.6,1.4c11.3,6.5,20.5,22.4,20.4,35.4
				c0,6.5-2.3,11-6,13.1l5.9-3.4c3.7-2.1,6-6.7,6-13.1C436.6,109.8,427.5,93.9,416.2,87.4z"/>
			<g>
				<path d="M410.3,90.8c11.3,6.5,20.5,22.4,20.4,35.4c0,13-9.2,18.2-20.6,11.7c-11.3-6.5-20.5-22.4-20.4-35.4
					C389.8,89.5,399,84.3,410.3,90.8z"/>
			</g>
			<path class="st13" d="M410.8,100.3c-7.1-4.1-12.9-0.8-12.9,7.3c0,8.2,5.8,18.1,12.9,22.2c7.1,4.1,12.9,0.8,12.9-7.3
				C423.7,114.4,418,104.5,410.8,100.3z M407.7,120.1v-13.3l10,12.4L407.7,120.1z"/>
		</g>
		<g class="st9">
			<path class="st20" d="M426,156.3l-19.3-11.1c-3-1.7-5.8-1.9-7.7-0.8l-5.9,3.4c2-1.1,4.7-1,7.7,0.8l19.3,11.1
				c6,3.5,10.8,11.9,10.8,18.8l-0.1,22.1c0,3.4-1.2,5.8-3.2,7l5.9-3.4c2-1.1,3.2-3.5,3.2-7l0.1-22.1
				C436.8,168.1,432,159.7,426,156.3z"/>
			<g>
				<path class="st21" d="M420.1,159.7c6,3.5,10.8,11.9,10.8,18.8l-0.1,22.1c0,6.9-4.9,9.7-10.9,6.2l-19.3-11.1
					c-6-3.5-10.9-11.9-10.8-18.8l0.1-22.1c0-6.9,4.9-9.7,10.9-6.2L420.1,159.7z"/>
			</g>
			<path class="st13" d="M410.8,163.3c-7.1-4.1-12.9-0.8-12.9,7.3c0,8.2,5.8,18.1,12.9,22.2c7.1,4.1,12.9,0.8,12.9-7.3
				C423.7,177.3,418,167.4,410.8,163.3z M407.7,183v-13.3l10,12.4L407.7,183z"/>
		</g>
		<g class="st9">
			<path class="st11" d="M434.5,229.2l-36.1-20.8c-0.7-0.4-1.3-0.4-1.8-0.2l-5.9,3.4c0.5-0.3,1.1-0.2,1.8,0.2l36.1,20.8
				c1.4,0.8,2.5,2.7,2.5,4.3l-0.1,41.4c0,0.8-0.3,1.3-0.7,1.6l5.9-3.4c0.4-0.3,0.7-0.8,0.7-1.6l0.1-41.4
				C437,231.9,435.9,230,434.5,229.2z"/>
			<g>
				<path class="st12" d="M428.7,232.6c1.4,0.8,2.5,2.7,2.5,4.3l-0.1,41.4c0,1.6-1.1,2.2-2.5,1.4l-36.1-20.8
					c-1.4-0.8-2.5-2.7-2.5-4.2l0.1-41.4c0-1.6,1.1-2.2,2.5-1.4L428.7,232.6z"/>
			</g>
			<path class="st13" d="M410.8,230.9c-7.1-4.1-12.9-0.8-12.9,7.3c0,8.2,5.8,18.1,12.9,22.2c7.1,4.1,12.9,0.8,12.9-7.3
				C423.7,245,418,235,410.8,230.9z M407.7,250.7v-13.3l10,12.4L407.7,250.7z"/>
		</g>
	</g>
	<g>
		<g>
			<polygon class="st22" points="424.6,283.1 424.6,280.4 420.8,278.2 420.8,280.9 			"/>
			<polygon class="st22" points="431.4,287 431.4,284.3 427.6,282.1 427.6,284.9 			"/>
			<path class="st22" d="M438.6,291.2l-1.2-3.4l-3.3-1.9l0.4,3C435.9,289.6,437.2,290.4,438.6,291.2z"/>
		</g>
		<g>
			<polygon class="st22" points="404.1,271.3 404.1,268.6 400.3,266.4 400.3,269.1 			"/>
			<polygon class="st22" points="410.9,275.2 410.9,272.5 407.1,270.3 407.1,273 			"/>
			<polygon class="st22" points="417.7,279.1 417.7,276.4 413.9,274.2 413.9,277 			"/>
		</g>
		<g>
			<path class="st22" d="M385.3,255.1l2.3-0.4l0-3.8l-2.4-0.5C385.2,252,385.2,253.5,385.3,255.1z"/>
			<path class="st22" d="M390,263l1.4-1.8c-1.1-0.6-2.2-1.9-2.9-3.2l-2,1C387.4,260.7,388.7,262.2,390,263z"/>
			<polygon class="st22" points="397.2,267.3 397.3,264.7 394,262.7 393.1,265 			"/>
		</g>
		<g>
			<polygon class="st22" points="385.2,231 387.5,232.3 387.5,228 385.2,226.6 			"/>
			<polygon class="st22" points="385.2,238.8 387.5,240.2 387.5,235.8 385.2,234.4 			"/>
			<polygon class="st22" points="385.2,246.6 387.5,247.8 387.5,243.6 385.2,242.2 			"/>
		</g>
		<g>
			<polygon class="st22" points="385.2,207.5 387.5,208.9 387.5,204.9 385.2,202.9 			"/>
			<polygon class="st22" points="385.2,215.3 387.5,216.7 387.5,212.3 385.2,210.9 			"/>
			<polygon class="st22" points="385.2,223.1 387.5,224.5 387.5,220.1 385.2,218.7 			"/>
		</g>
		<g>
			<polygon class="st22" points="395.2,197.5 395.7,200.5 399.2,202.5 399.2,199.7 			"/>
			<path class="st22" d="M388.1,194l1.7,3.5c1,0,2.2,0.9,3.3,1.5l-1.1-3.3C390.7,194.9,389.3,194,388.1,194z"/>
			<path class="st22" d="M385.2,199.2l2.3,2.7c0-0.6,0-1.3,0-1.9c0-0.6,0.2-1.1,0.4-1.6l-2.1-3.3c-0.3,0.5-0.5,1.1-0.6,1.8
				C385.2,197.7,385.2,198.4,385.2,199.2z"/>
		</g>
		<g>
			<polygon class="st22" points="415.9,209.4 415.9,212.1 419.7,214.3 419.7,211.6 			"/>
			<polygon class="st22" points="409.1,205.4 409.1,208.2 412.9,210.4 412.9,207.6 			"/>
			<polygon class="st22" points="402.3,201.5 402.3,204.2 406.1,206.4 406.1,203.7 			"/>
		</g>
		<g>
			<path class="st22" d="M436.6,221.4l-0.8,2.3c1.1,0.6,2.2,1.3,3.3,1.9l1.5-1.7C439.3,222.9,438,222.2,436.6,221.4z"/>
			<polygon class="st22" points="429.5,217.3 429.5,220 433.2,222.1 433.4,219.5 			"/>
			<polygon class="st22" points="422.7,213.3 422.7,216.1 426.5,218.3 426.5,215.5 			"/>
		</g>
		<g>
			<polygon class="st22" points="445.1,243.9 442.7,242.5 442.7,246.8 445.1,248.2 			"/>
			<polygon class="st22" points="445,235.7 442.7,235.3 442.7,239.1 445.1,240.4 			"/>
			<path class="st22" d="M443.5,227.1l-2,1.1c0.8,1.3,1.2,2.9,1.2,4.1l2.3-0.3C445,230.5,444.4,228.7,443.5,227.1z"/>
		</g>
		<g>
			<polygon class="st22" points="445.1,267.3 442.7,266 442.7,270.3 445.1,271.7 			"/>
			<polygon class="st22" points="445.1,259.5 442.7,258.1 442.7,262.5 445.1,263.9 			"/>
			<polygon class="st22" points="445.1,251.7 442.7,250.4 442.7,254.7 445.1,256.1 			"/>
		</g>
		<g>
			<path class="st22" d="M444.5,291.1l-2.2-3.2c-0.4,0.9-1.3,1.4-2.3,1.2l1.7,3.5C443,292.7,444,292.2,444.5,291.1z"/>
			<path class="st22" d="M445.1,283.2l-2.4-1.9v3.8l2.3,2.7C445.1,286.3,445.1,284.8,445.1,283.2z"/>
			<polygon class="st22" points="445.1,275.2 442.7,273.8 442.7,278.2 445.1,279.6 			"/>
		</g>
	</g>
	<g>
		<g class="st9">
			<g>
				<path class="st20" d="M110.2,197.6l3.8,2.2c-4.2,2.3-7,2.4-8.8,1.3l-3.8-2.2C103.2,199.9,106,199.8,110.2,197.6z"/>
				<path class="st20" d="M93.3,205.3l-3.8-2.2c-2.4-1.4-4.8-3.8-7-7.4l3.8,2.2C88.5,201.6,90.9,204,93.3,205.3z"/>
				<path class="st20" d="M70.3,159.2l37.7-21.8c1.6-0.9,3-1,4.1-0.4l3.8,2.2c-1-0.6-2.5-0.5-4.1,0.4l-37.7,21.8
					c-3.2,1.8-5.7,6.2-5.7,9.9l0.1,30.3c0,1.8,0.6,3.1,1.7,3.7l-3.8-2.2c-1-0.6-1.7-1.9-1.7-3.7l-0.1-30.3
					C64.6,165.4,67.2,161,70.3,159.2z"/>
			</g>
			<g>
				<path class="st21" d="M74.1,161.4c-3.2,1.8-5.7,6.2-5.7,9.9l0.1,30.3c0,3.6,2.6,5.1,5.7,3.3l12-6.9c7.2,11.9,15.9,9.9,21.7,6.6
					c3.6-2.1,5.9-4.6,6.1-4.8c-13,7-12.4-6.8-12-11l9.9-5.7c3.2-1.8,5.7-6.2,5.7-9.9l-0.1-30.3c0-3.6-2.6-5.1-5.7-3.3L74.1,161.4z"
					/>
			</g>
			<g>
				<path class="st13" d="M74.9,185.3c0-0.4-0.1-0.8-0.1-1.3c0-0.4,0-0.9,0.1-1.4l-1.6,0.3c-0.2,0-0.4-0.2-0.3-0.5l0.9-3.6
					c0.1-0.3,0.2-0.5,0.4-0.6c0,0,0.1,0,0.1-0.1l1.6-0.3c0.4-1,0.8-2,1.4-2.9l-1-1c-0.2-0.2-0.1-0.5,0.1-0.8l2.3-3.2
					c0.1-0.1,0.2-0.2,0.3-0.3c0.1-0.1,0.3-0.1,0.4,0l1,1c0.7-0.8,1.4-1.5,2.2-2.1l0-2c0-0.3,0.2-0.7,0.5-0.8l2.8-1.6
					c0.3-0.1,0.5,0,0.5,0.3l0,2c0.8-0.3,1.5-0.4,2.2-0.5l1-2.2c0.1-0.2,0.2-0.4,0.4-0.4c0.1-0.1,0.2-0.1,0.3-0.1l2.3,0.6
					c0.2,0.1,0.3,0.4,0.1,0.7l-1,2.2c0.5,0.3,1,0.8,1.4,1.4l1.6-1.6c0,0,0.1-0.1,0.1-0.1c0.2-0.1,0.4-0.1,0.4,0.1l0.9,2.6
					c0.1,0.2-0.1,0.6-0.3,0.8l-1.6,1.6c0,0.4,0.1,0.8,0.1,1.3c0,0.5,0,0.9-0.1,1.4l1.6-0.3c0.2,0,0.4,0.2,0.3,0.5l-0.9,3.6
					c-0.1,0.3-0.2,0.5-0.4,0.6c0,0-0.1,0-0.1,0.1l-1.6,0.3c-0.4,1-0.8,2-1.4,2.9l1,1c0.2,0.2,0.1,0.5-0.1,0.8l-2.3,3.2
					c-0.1,0.1-0.2,0.2-0.3,0.3c-0.1,0.1-0.3,0.1-0.4,0l-1-1c-0.7,0.8-1.4,1.5-2.2,2.1l0,2c0,0.3-0.2,0.7-0.5,0.8l-2.8,1.6
					c-0.3,0.1-0.5,0-0.5-0.3l0-2c-0.8,0.3-1.5,0.4-2.2,0.4l-1,2.2c-0.1,0.2-0.2,0.4-0.4,0.4c-0.1,0.1-0.2,0.1-0.3,0.1l-2.3-0.6
					c-0.2-0.1-0.3-0.4-0.1-0.7l1-2.2c-0.5-0.4-1-0.8-1.4-1.4l-1.6,1.6c0,0-0.1,0.1-0.1,0.1c-0.2,0.1-0.4,0.1-0.4-0.1l-0.9-2.6
					c-0.1-0.2,0.1-0.6,0.3-0.8L74.9,185.3z M84.6,186.2c3.8-2.2,6.8-7.4,6.8-11.8c0-4.3-3.1-6.1-6.8-3.9c-3.8,2.2-6.8,7.4-6.8,11.8
					C77.7,186.6,80.8,188.4,84.6,186.2L84.6,186.2z"/>
			</g>
			<g>
				<path class="st13" d="M98.1,169.9c0.1-0.7,0.3-1.4,0.5-2.1l-1-0.3c-0.1,0-0.2-0.3-0.1-0.5l1.2-2.6c0.1-0.1,0.2-0.3,0.3-0.3
					c0.1,0,0.1-0.1,0.2,0l1,0.3c0.4-0.7,0.9-1.3,1.3-1.9l-0.4-1.1c-0.1-0.2,0-0.4,0.2-0.6l1.9-1.8c0,0,0.1-0.1,0.1-0.1
					c0.1-0.1,0.3-0.1,0.3,0.1l0.4,1.1c0.3-0.2,0.5-0.4,0.8-0.5c0.3-0.2,0.6-0.3,0.8-0.4l0.4-1.6c0-0.2,0.2-0.4,0.3-0.4
					c0,0,0.1,0,0.1,0l1.9-0.4c0.2,0,0.3,0.1,0.2,0.4l-0.4,1.6c0.5,0,0.9,0.2,1.3,0.3l1-1.4c0.1-0.1,0.1-0.1,0.2-0.2
					c0.1-0.1,0.2-0.1,0.3,0l1.2,1.2c0.1,0.1,0.1,0.4-0.1,0.6l-1,1.4c0.2,0.4,0.4,0.9,0.5,1.5l1.2-0.7c0.2-0.1,0.3,0,0.3,0.2l0,2.3
					c0,0.2-0.1,0.5-0.3,0.6l-1.2,0.7c-0.1,0.7-0.3,1.4-0.5,2.1l1,0.3c0.1,0,0.2,0.3,0.1,0.5l-1.2,2.6c-0.1,0.1-0.2,0.3-0.3,0.3
					c-0.1,0-0.1,0.1-0.2,0l-1-0.3c-0.4,0.7-0.9,1.3-1.3,1.9l0.4,1.1c0.1,0.2,0,0.4-0.2,0.6l-1.9,1.8c0,0-0.1,0.1-0.1,0.1
					c-0.1,0.1-0.3,0.1-0.3-0.1l-0.4-1.1c-0.3,0.2-0.5,0.4-0.8,0.5c-0.3,0.2-0.6,0.3-0.8,0.4l-0.4,1.6c0,0.2-0.2,0.4-0.3,0.4
					c0,0-0.1,0-0.1,0l-1.9,0.4c-0.2,0-0.3-0.1-0.2-0.4l0.4-1.6c-0.5,0-0.9-0.2-1.3-0.3l-1,1.4c-0.1,0.1-0.1,0.1-0.2,0.2
					c-0.1,0.1-0.2,0.1-0.3,0l-1.2-1.2c-0.1-0.1-0.1-0.4,0.1-0.6l1-1.4c-0.2-0.4-0.4-0.9-0.5-1.5l-1.2,0.7c-0.2,0.1-0.3,0-0.3-0.2
					l0-2.3c0-0.2,0.1-0.5,0.3-0.6L98.1,169.9z M104.9,173.1c2.7-1.6,4.9-5.3,4.9-8.4c0-3.1-2.2-4.3-4.9-2.8
					c-2.7,1.6-4.9,5.3-4.9,8.4C100.1,173.4,102.2,174.6,104.9,173.1L104.9,173.1z"/>
			</g>
		</g>
	</g>
	<g>
		<path class="st0" d="M82.8,319.4l-41.3-23.8c-0.8-0.5-0.7-1.3,0.2-1.8l40.5-23.4c0.9-0.5,2.3-0.6,3.1-0.1l41.3,23.8
			c0.8,0.5,0.7,1.3-0.2,1.8l-40.5,23.4C85,319.8,83.6,319.9,82.8,319.4z"/>
		<g>
			<polygon class="st0" points="84.4,296.6 44.9,273.9 84.1,251.2 123.6,274 			"/>
			<polygon class="st2" points="84.4,294.2 49.2,273.9 84.1,253.7 119.3,274 			"/>
			<polygon class="st10" points="84.4,316.7 84.4,296.6 123.6,274 123.6,294 			"/>
			<polygon class="st2" points="44.9,273.9 44.9,293.9 84.4,316.7 84.4,296.6 			"/>
		</g>
		<g>
			<g>
				<g class="st9">
					<g>
						<polygon class="st19" points="57.8,278.8 55,277.2 54.5,270.8 53.6,257.1 56.3,258.4 57.1,269.3 						"/>
					</g>
					<g>
						<polygon class="st23" points="56.3,258.4 53.6,257.1 88,237.2 90.7,238.6 						"/>
					</g>
					<g>
						<polygon class="st24" points="93.7,279.6 78.8,288.2 76.4,289.6 76.3,289.7 76.2,289.5 74.8,288.6 72,287 70.5,286.2 
							67.7,284.6 66.3,283.7 63.5,282.1 62.1,281.3 59.3,279.7 57.8,278.8 57.1,269.3 56.3,258.4 90.7,238.6 90.9,240.5 91.1,243.3 
							91.2,245.3 91.2,245.3 91.4,248.1 91.6,250.1 91.8,252.9 91.9,254.9 92.1,257.7 92.2,258.4 92.2,259.6 92.5,262.5 						"/>
					</g>
				</g>
			</g>
			<g>
				<g class="st9">
					<g>
						<polygon class="st19" points="62.1,281.3 59.3,279.7 58.4,268.6 57.8,259.6 60.6,261 61,267.1 						"/>
					</g>
					<g>
						<polygon class="st23" points="60.6,261 57.8,259.6 92.2,239.8 95,241.1 						"/>
					</g>
					<g>
						<polygon class="st24" points="98,282.2 80.8,292.1 79,291.1 76.4,289.6 76.3,289.7 76.2,289.5 74.8,288.6 72,287 70.5,286.2 
							67.7,284.6 66.3,283.7 63.5,282.1 62.1,281.3 61,267.1 60.6,261 91.1,243.3 95,241.1 95.1,243.1 95.3,245.9 95.5,247.8 
							95.7,250.7 95.8,252.6 96,255.4 96.1,257.4 96.1,257.4 96.4,260.2 96.4,260.2 96.4,260.8 						"/>
					</g>
				</g>
			</g>
			<g>
				<g class="st9">
					<g>
						<polygon class="st19" points="66.3,283.7 63.5,282.1 62.3,266.3 62.1,262.1 64.8,263.5 64.9,264.8 						"/>
					</g>
					<g>
						<polygon class="st23" points="64.8,263.5 62,262.1 96.4,242.3 99.2,243.6 						"/>
					</g>
					<g>
						<polygon class="st24" points="102.1,283.9 84.4,294.2 80.8,292.1 79,291.1 76.4,289.6 76.3,289.7 76.2,289.5 74.8,288.6 
							72,287 70.5,286.2 67.7,284.6 66.3,283.7 64.9,264.8 64.8,263.5 91.4,248.1 99.2,243.6 99.4,245.6 99.6,248.4 99.7,250.3 
							99.7,250.4 99.9,253.2 100,255.1 100.3,257.9 100.6,263.2 						"/>
					</g>
				</g>
			</g>
			<g>
				<g class="st9">
					<g>
						<polygon class="st19" points="70.5,286.2 67.7,284.6 66.3,264.7 69.1,266 						"/>
					</g>
					<g>
						<polygon class="st23" points="69.1,266 66.3,264.7 100.7,244.8 103.5,246.1 						"/>
					</g>
					<g>
						<polygon class="st24" points="106,281.6 102.1,283.9 84.4,294.2 80.8,292.1 79,291.1 76.4,289.6 76.3,289.7 76.2,289.5 
							74.8,288.6 72,287 70.5,286.2 69.1,266 87.2,255.5 91.8,252.9 95.7,250.7 99.6,248.4 103.5,246.2 103.6,248.1 103.8,250.9 
							104,252.9 104.2,255.7 104.9,265.7 						"/>
					</g>
				</g>
			</g>
			<g>
				<g class="st9">
					<g>
						<polygon class="st19" points="74.8,288.6 72,287 70.5,267.2 73.3,268.5 						"/>
					</g>
					<g>
						<polygon class="st23" points="73.3,268.5 70.5,267.2 104.9,247.3 107.7,248.7 						"/>
					</g>
					<g>
						<polygon class="st24" points="109.9,279.4 106,281.6 102.1,283.9 84.4,294.2 80.8,292.1 79,291.1 76.4,289.6 76.3,289.7 
							76.2,289.5 74.8,288.6 73.3,268.5 91.5,258 92.1,257.7 96,255.4 99.9,253.2 103.8,250.9 107.7,248.7 107.8,250.6 108.1,253.4 
							108.1,253.5 109.1,268.1 						"/>
					</g>
				</g>
			</g>
			<g>
				<g class="st9">
					<g>
						<polygon class="st19" points="79,291.1 76.4,289.6 76.3,289.7 76.2,289.5 74.8,269.7 77.6,271.1 78.8,288.2 						"/>
					</g>
					<g>
						<polygon class="st23" points="77.6,271.1 74.8,269.7 109.2,249.9 112,251.2 						"/>
					</g>
					<g>
						<polygon class="st24" points="113.8,277.1 109.9,279.4 106,281.6 102.1,283.9 84.4,294.2 80.8,292.1 79,291.1 78.8,288.2 
							77.6,271.1 92.5,262.5 95.9,260.5 96.4,260.2 99.8,258.2 100.3,257.9 104.2,255.7 108.1,253.5 112,251.2 113.4,270.6 						
							"/>
					</g>
					<g>
						<path class="st0" d="M87.3,283.5l5,0.5v2.2l-8.4-0.7l8.4-10.4v2.2L87.3,283.5z"/>
						<path class="st0" d="M96,287l-1.6,0.9c1.6-5.8,2.8-10.2,3.6-13.1l1.8-6.6l1.6-0.9L96,287z"/>
						<path class="st0" d="M108.1,271.4l-5-0.5v-2.2l8.4,0.7l-8.4,10.4v-2.2L108.1,271.4z"/>
					</g>
				</g>
			</g>
		</g>
	</g>
	<g>
		<path class="st0" d="M280.9,459.2c-9.6,5.5-25.1,5.5-34.7-0.1c-9.6-5.6-9.7-14.5-0.1-20.1c9.6-5.5,25.1-5.5,34.7,0.1
			C290.4,444.7,290.4,453.6,280.9,459.2z"/>
		
			<ellipse transform="matrix(5.419301e-03 -1 1 5.419301e-03 -185.5123 708.5548)" class="st25" cx="263.4" cy="447.5" rx="12.1" ry="20.9"/>
		<path class="st16" d="M283.7,408.1h-40.4V446c-0.1,3.1,1.9,6.2,6,8.5c7.9,4.6,20.7,4.6,28.6,0.1c4.1-2.4,6-5.5,5.9-8.6
			L283.7,408.1z"/>
		<g>
			
				<ellipse transform="matrix(5.419244e-03 -1 1 5.419244e-03 -146.7424 669.9946)" class="st0" cx="263.4" cy="408.8" rx="12.1" ry="20.9"/>
			<path class="st20" d="M267.8,420.6C267.8,420.6,267.8,420.6,267.8,420.6c-6.7,0.8-13.9-0.3-19.1-3.3c-0.9-0.5-1.8-1.1-2.5-1.7
				l3.6-2l17.3,4.4L267.8,420.6z"/>
			<path class="st1" d="M279.9,412.5c-0.9,1.3-2.2,2.5-4,3.5c-6.9,4-18,4-25,0c-1.8-1.1-3.2-2.3-4-3.6c-2.4-3.6-1.1-7.9,4-10.8
				c6.9-4,18-4,25,0C281,404.5,282.4,408.8,279.9,412.5z"/>
			<path class="st21" d="M279.9,412.5c-0.9,1.3-2.2,2.5-4,3.5c-6.9,4-18,4-25,0c-1.8-1.1-3.2-2.3-4-3.6c0.9-1.3,2.2-2.5,4-3.5
				c6.9-4,18-4,25,0C277.7,409.9,279.1,411.2,279.9,412.5z"/>
			<path class="st16" d="M250.9,403.4c6.9-4,18.1-3.9,25,0c3.1,1.8,4.8,4,5.1,6.3c0.5-2.9-1.2-5.9-5.1-8.2c-6.9-4-18.1-4-25,0
				c-3.8,2.2-5.5,5.2-5.1,8.1C246.2,407.4,247.9,405.1,250.9,403.4z"/>
		</g>
		<path class="st21" d="M267.3,456.4c0,0-0.1,0-0.1,0c-0.4,0-0.8-0.2-1-0.5c-0.8-0.8-1.1-2.1-1.9-3c-0.7-0.7-1.6-1.1-2.3-1.8
			c-0.5-0.5-0.8-1.2-1.3-1.7c-0.5-0.5-1.3-0.9-1.9-0.5c-0.4,0.3-0.8,0.9-1.3,0.8c-0.1,0-0.3-0.1-0.4-0.2c-0.8-0.7-1.1-1.7-1.2-2.8
			c-0.1-1,0.1-2.1,0.1-3.1c0-0.5-0.1-1-0.2-1.5c-0.4-1.1-1.6-1.8-2.1-2.9c-0.3-0.6-0.3-1.3-0.8-1.7c-0.5-0.4-1.1-0.4-1.7-0.3
			c-0.2,0-0.3,0-0.4,0.1c-0.2,0.1-0.2,0.3-0.3,0.5c-0.8,3.9,0,8.1-1.6,11.8c-0.3,0.6-0.7,1.3-1.3,1.4c-0.3,0.1-0.6,0-0.8-0.1
			c-0.8-0.4-0.4-1.9-0.4-2.7v-32.8c0.7,0.6,1.5,1.2,2.5,1.7c5.2,3,12.5,4.1,19.1,3.3v31C267.8,452.5,268.3,456.2,267.3,456.4z"/>
	</g>
	<g>
		
			<ellipse transform="matrix(5.422004e-03 -1 1 5.422004e-03 -108.6451 739.6698)" class="st0" cx="317.5" cy="424.5" rx="14.2" ry="24.6"/>
		
			<ellipse transform="matrix(5.422155e-03 -1 1 5.422155e-03 -107.0811 738.1141)" class="st25" cx="317.5" cy="422.9" rx="12.1" ry="20.9"/>
		<path class="st16" d="M337.7,383.4h-40.4v37.9c-0.1,3.1,1.9,6.2,6,8.5c7.9,4.6,20.7,4.6,28.6,0.1c4.1-2.4,6-5.5,5.9-8.6
			L337.7,383.4z"/>
		<g>
			
				<ellipse transform="matrix(5.422196e-03 -1 1 5.422196e-03 -68.3114 699.5539)" class="st0" cx="317.5" cy="384.1" rx="12.1" ry="20.9"/>
			<path class="st11" d="M321.9,396C321.9,396,321.9,396,321.9,396c-6.7,0.8-13.9-0.3-19.1-3.3c-0.9-0.5-1.8-1.1-2.5-1.7l3.6-2
				l17.3,4.4L321.9,396z"/>
			<path class="st1" d="M334,387.8c-0.9,1.3-2.2,2.5-4,3.5c-6.9,4-18,4-25,0c-1.8-1.1-3.2-2.3-4-3.6c-2.4-3.6-1.1-7.9,4-10.8
				c6.9-4,18-4,25,0C335.1,379.9,336.4,384.2,334,387.8z"/>
			<path class="st12" d="M334,387.8c-0.9,1.3-2.2,2.5-4,3.5c-6.9,4-18,4-25,0c-1.8-1.1-3.2-2.3-4-3.6c0.9-1.3,2.2-2.5,4-3.5
				c6.9-4,18-4,25,0C331.8,385.3,333.1,386.5,334,387.8z"/>
			<path class="st16" d="M305,378.8c6.9-4,18.1-3.9,25,0c3.1,1.8,4.8,4,5.1,6.3c0.5-2.9-1.2-5.9-5.1-8.2c-6.9-4-18.1-4-25,0
				c-3.8,2.2-5.5,5.2-5.1,8.1C300.3,382.7,302,380.5,305,378.8z"/>
		</g>
		<path class="st12" d="M321.4,431.8c0,0-0.1,0-0.1,0c-0.4,0-0.8-0.2-1-0.5c-0.8-0.8-1.1-2.1-1.9-3c-0.7-0.7-1.6-1.1-2.3-1.8
			c-0.5-0.5-0.8-1.2-1.3-1.7c-0.5-0.5-1.3-0.9-1.9-0.5c-0.4,0.3-0.8,0.9-1.3,0.8c-0.1,0-0.3-0.1-0.4-0.2c-0.8-0.7-1.1-1.7-1.2-2.8
			c-0.1-1,0.1-2.1,0.1-3.1c0-0.5-0.1-1-0.2-1.5c-0.4-1.1-1.6-1.8-2.1-2.9c-0.3-0.6-0.3-1.3-0.8-1.7c-0.5-0.4-1.1-0.4-1.7-0.3
			c-0.2,0-0.3,0-0.4,0.1c-0.2,0.1-0.2,0.3-0.3,0.5c-0.8,3.9,0,8.1-1.6,11.8c-0.3,0.6-0.7,1.3-1.3,1.4c-0.3,0.1-0.6,0-0.8-0.1
			c-0.8-0.4-0.4-1.9-0.4-2.7v-32.8c0.7,0.6,1.5,1.2,2.5,1.7c5.2,3,12.5,4.1,19.1,3.3v31C321.9,427.8,322.4,431.6,321.4,431.8z"/>
	</g>
	<g>
		<path class="st0" d="M431.5,421.9c-9.6,5.5-25.1,5.5-34.7-0.1c-9.6-5.6-9.7-14.5-0.1-20.1c9.6-5.5,25.1-5.5,34.7,0.1
			C441,407.4,441.1,416.4,431.5,421.9z"/>
		<path class="st25" d="M429,418.9c-8.1,4.7-21.4,4.7-29.6-0.1c-8.2-4.7-8.2-12.4-0.1-17.1c8.1-4.7,21.4-4.7,29.6,0.1
			S437.1,414.2,429,418.9z"/>
		<path class="st16" d="M434.3,370.9h-40.4v37.9c-0.1,3.1,1.9,6.2,6,8.5c7.9,4.6,20.7,4.6,28.6,0.1c4.1-2.4,6-5.5,5.9-8.6
			L434.3,370.9z"/>
		<g>
			
				<ellipse transform="matrix(5.421769e-03 -1 1 5.421769e-03 40.3242 783.6282)" class="st0" cx="414.1" cy="371.5" rx="12.1" ry="20.9"/>
			<path class="st23" d="M418.5,383.4C418.5,383.4,418.5,383.4,418.5,383.4c-6.7,0.8-13.9-0.3-19.1-3.3c-0.9-0.5-1.8-1.1-2.5-1.7
				l3.6-2l17.3,4.4L418.5,383.4z"/>
			<path class="st1" d="M430.6,375.2c-0.9,1.3-2.2,2.5-4,3.5c-6.9,4-18,4-25,0c-1.8-1.1-3.2-2.3-4-3.6c-2.4-3.6-1.1-7.9,4-10.8
				c6.9-4,18-4,25,0C431.7,367.3,433,371.6,430.6,375.2z"/>
			<path class="st24" d="M430.6,375.2c-0.9,1.3-2.2,2.5-4,3.5c-6.9,4-18,4-25,0c-1.8-1.1-3.2-2.3-4-3.6c0.9-1.3,2.2-2.5,4-3.5
				c6.9-4,18-4,25,0C428.4,372.7,429.7,373.9,430.6,375.2z"/>
			<path class="st16" d="M401.6,366.2c6.9-4,18.1-3.9,25,0c3.1,1.8,4.8,4,5.1,6.3c0.5-2.9-1.2-5.9-5.1-8.2c-6.9-4-18.1-4-25,0
				c-3.8,2.2-5.5,5.2-5.1,8.1C396.9,370.1,398.6,367.9,401.6,366.2z"/>
		</g>
		<path class="st24" d="M418,419.2c0,0-0.1,0-0.1,0c-0.4,0-0.8-0.2-1-0.5c-0.8-0.8-1.1-2.1-1.9-3c-0.7-0.7-1.6-1.1-2.3-1.8
			c-0.5-0.5-0.8-1.2-1.3-1.7c-0.5-0.5-1.3-0.9-1.9-0.5c-0.4,0.3-0.8,0.9-1.3,0.8c-0.1,0-0.3-0.1-0.4-0.2c-0.8-0.7-1.1-1.7-1.2-2.8
			c-0.1-1,0.1-2.1,0.1-3.1c0-0.5-0.1-1-0.2-1.5c-0.4-1.1-1.6-1.8-2.1-2.9c-0.3-0.6-0.3-1.3-0.8-1.7c-0.5-0.4-1.1-0.4-1.7-0.3
			c-0.2,0-0.3,0-0.4,0.1c-0.2,0.1-0.2,0.3-0.3,0.5c-0.8,3.9,0,8.1-1.6,11.8c-0.3,0.6-0.7,1.3-1.3,1.4c-0.3,0.1-0.6,0-0.8-0.1
			c-0.8-0.4-0.4-1.9-0.4-2.7v-32.8c0.7,0.6,1.5,1.2,2.5,1.7c5.2,3,12.5,4.1,19.1,3.3v31C418.5,415.3,419,419,418,419.2z"/>
	</g>
	<g>
		<g>
			<path class="st0" d="M91.9,399.4c-1.3,0.8-3.4,0.8-4.7,0l-34.4-20c-1.3-0.7-1.3-2,0-2.7l34.6-20c1.3-0.7,3.4-0.8,4.7,0l34.4,20
				c1.3,0.8,1.3,2,0,2.7L91.9,399.4z"/>
		</g>
		<path class="st21" d="M91.7,396.3l31.4-18.1c0.6-0.3,0.9-0.8,0.9-1.3l0-3.2c0,0.5-0.3,0.9-0.9,1.3l-31.4,18.1
			c-1.2,0.7-3.1,0.7-4.3,0L56.2,375c-0.6-0.3-0.9-0.8-0.9-1.2l0,3.2c0,0.4,0.3,0.9,0.9,1.2l31.2,18.1C88.6,397,90.5,397,91.7,396.3z
			"/>
		<g>
			<path class="st20" d="M91.7,393.2c-1.2,0.7-3.1,0.7-4.3,0L56.2,375c-1.2-0.7-1.2-1.8,0-2.5l31.4-18.1c1.2-0.7,3.1-0.7,4.3,0
				l31.2,18.1c1.2,0.7,1.2,1.8,0,2.5L91.7,393.2z"/>
		</g>
		<g>
			<path class="st13" d="M95.6,367.7c3.5-0.9,6.6-1.3,9.6-1.3l1,2c-2.8,0.1-5.7,0.6-8.6,1.4c-3,0.8-5.8,1.9-8.4,3.5
				c-2.6,1.5-4.7,3.2-6,4.9c-1.4,1.7-2.1,3.4-2.3,5l-3.5-0.6c0.1-1.7,0.9-3.5,2.4-5.5c1.5-2,3.7-3.8,6.5-5.5
				C88.9,369.8,92.1,368.5,95.6,367.7z"/>
		</g>
	</g>
	<g>
		<g>
			<g class="st9">
				<g>
					<path d="M151.6,125.2l-7.3,4.2c0,0,0,0,0.1-0.1L151.6,125.2C151.6,125.2,151.6,125.2,151.6,125.2z"/>
				</g>
				<g>
					<path d="M134.7,109.1l7.3-4.2c0.1,0,0.2-0.1,0.3,0L135,109C134.9,109,134.8,109,134.7,109.1z"/>
				</g>
				<g>
					<polygon points="145.9,127.9 153.2,123.6 151.7,125.2 144.4,129.4 					"/>
				</g>
				<g>
					<polygon points="135,109 142.3,104.8 144.8,105.3 137.5,109.5 					"/>
				</g>
				<g>
					<path d="M162.1,133.6l-7.3,4.2c0.1-0.1,0.2-0.2,0.2-0.5l7.3-4.2C162.3,133.4,162.2,133.5,162.1,133.6z"/>
				</g>
				<g>
					<polygon points="155,134.4 162.3,130.2 162.3,133.2 155,137.4 					"/>
				</g>
				<g>
					<path d="M136.1,97.6l7.3-4.2c0.1-0.1,0.3-0.1,0.5,0c0.1,0,0.1,0.1,0.2,0.2l-7.3,4.2c-0.1-0.1-0.1-0.1-0.2-0.2
						C136.4,97.6,136.2,97.5,136.1,97.6z"/>
				</g>
				<g>
					<polygon points="136.8,97.8 144.1,93.6 146.6,96 139.3,100.2 					"/>
				</g>
				<g>
					<path d="M144.9,103.3l7.3-4.2c-1.9,1.1-3,3.4-3,6.7c0,6.6,4.6,14.6,10.4,17.9l-7.3,4.2c-5.7-3.3-10.4-11.3-10.4-17.9
						C141.8,106.7,143,104.4,144.9,103.3z"/>
				</g>
				<g>
					<path d="M166.8,124.4l-7.3,4.2c-1.9,1.1-4.5,0.9-7.4-0.7l7.3-4.2C162.3,125.4,165,125.5,166.8,124.4z"/>
				</g>
				<g>
					<path d="M171.8,134l-7.3,4.2c0.2-0.1,0.3-0.6,0.1-1l7.3-4.2C172.1,133.4,172,133.8,171.8,134z"/>
				</g>
				<g>
					<polygon points="163.1,133.9 170.3,129.6 171.9,133 164.6,137.2 					"/>
				</g>
				<g>
					<path d="M165.2,131.8l7.3-4.2c-0.6,0.9-1.3,1.5-2.1,2.1l-7.3,4.2C163.9,133.3,164.6,132.6,165.2,131.8z"/>
				</g>
				<g>
					<polygon points="144.5,93.6 151.8,89.4 153.3,92.7 146,96.9 					"/>
				</g>
				<path class="st8" d="M151.2,88.7c-0.1-0.1-0.3-0.1-0.4-0.1l-3.5,0.9c0,0-0.1,0-0.1,0l-7.3,4.2c0,0,0.1,0,0.1,0l3.5-0.9
					c0.1,0,0.3,0,0.4,0.1c0.2,0.1,0.4,0.4,0.6,0.7l7.3-4.2C151.6,89.1,151.4,88.8,151.2,88.7z"/>
				<g>
					<path d="M175.6,130.1l-7.3,4.2c0.1,0,0.1-0.1,0.2-0.2l7.3-4.2C175.8,130,175.7,130.1,175.6,130.1z"/>
				</g>
				<g>
					<path d="M146,96.9l7.3-4.2c1.1,0,2.2,0.3,3.4,0.7l-7.3,4.2C148.2,97.2,147.1,97,146,96.9z"/>
				</g>
				<g>
					<polygon points="169.9,130.2 177.2,126 175.8,129.9 168.5,134.1 					"/>
				</g>
				<path class="st8" d="M176.7,124.7l-2.5-2.4l-7.3,4.2l2.5,2.4c0.4,0.4,0.6,0.9,0.5,1.3l7.3-4.2
					C177.3,125.6,177.1,125,176.7,124.7z"/>
				<g>
					<path d="M166.9,122.5l7.3-4.2c0.1,0.7,0.1,1.4,0.1,2.1c0,0.7,0,1.4-0.1,2l-7.3,4.2c0.1-0.6,0.1-1.3,0.1-2
						C167.1,123.9,167,123.2,166.9,122.5z"/>
				</g>
				<g>
					<path d="M155.1,100.9l7.3-4.2c1.2,0.9,2.3,2,3.4,3.2l-7.3,4.2C157.4,103,156.3,101.9,155.1,100.9z"/>
				</g>
				<g>
					<polygon points="155.1,97.9 162.4,93.7 162.4,96.7 155.1,100.9 					"/>
				</g>
				<path class="st8" d="M161.7,92.5l-4.3-2.5c-0.2-0.1-0.4-0.1-0.5,0l-7.3,4.2c0.1-0.1,0.3-0.1,0.5,0l4.3,2.5
					c0.4,0.2,0.7,0.8,0.7,1.2l7.3-4.2C162.4,93.2,162.1,92.7,161.7,92.5z"/>
				<g>
					<path d="M163.1,110.7l7.3-4.2c0.8,1.5,1.5,3,2.1,4.5l-7.3,4.2C164.6,113.6,163.9,112.1,163.1,110.7z"/>
				</g>
				<g>
					<path d="M177,118.7l-7.3,4.2c0.2-0.1,0.3-0.4,0.2-0.7l7.3-4.2C177.3,118.3,177.2,118.6,177,118.7z"/>
				</g>
				<g>
					<polygon points="168.6,116.7 175.9,112.5 177.2,118 169.9,122.2 					"/>
				</g>
				<path class="st8" d="M175.2,111.5c-0.1,0-0.1-0.1-0.2-0.1l-2.5-0.5l-7.3,4.2l2.5,0.5c0.1,0,0.1,0,0.2,0.1
					c0.3,0.2,0.6,0.5,0.7,0.9l7.3-4.2C175.8,112.1,175.5,111.7,175.2,111.5z"/>
				<g>
					<polygon points="164.7,109.1 172,104.9 170.4,106.5 163.1,110.7 					"/>
				</g>
				<g>
					<path class="st4" d="M169.4,128.9c0.4,0.4,0.6,0.9,0.5,1.3l-1.4,4c-0.1,0.3-0.4,0.3-0.7,0.2c-0.1,0-0.1-0.1-0.2-0.2l-2.5-2.4
						c-0.6,0.9-1.3,1.5-2.1,2.1l1.5,3.3c0.2,0.5,0.2,1-0.2,1l-3.5,0.9c-0.1,0-0.3,0-0.4-0.1c-0.2-0.1-0.4-0.4-0.6-0.7l-1.5-3.3
						c-1.1,0-2.2-0.3-3.4-0.7l0,3c0,0.5-0.3,0.6-0.7,0.4l-4.3-2.5c-0.4-0.2-0.7-0.8-0.7-1.2l0-3c-1.2-0.9-2.3-2-3.4-3.2l-1.6,1.6
						c-0.1,0.1-0.4,0.1-0.6,0c-0.1-0.1-0.3-0.2-0.4-0.4l-3.5-4.9c-0.3-0.4-0.4-1-0.2-1.2l1.6-1.5c-0.8-1.5-1.5-3-2.1-4.5l-2.5-0.5
						c-0.1,0-0.1,0-0.2-0.1c-0.3-0.2-0.6-0.6-0.7-0.9l-1.3-5.5c-0.1-0.5,0.1-0.8,0.5-0.8l2.5,0.5c-0.1-0.7-0.1-1.4-0.1-2.1
						c0-0.7,0-1.3,0.1-2l-2.5-2.4c-0.4-0.4-0.6-0.9-0.5-1.3l1.4-4c0.1-0.3,0.4-0.3,0.7-0.2c0.1,0,0.1,0.1,0.2,0.2l2.5,2.4
						c0.6-0.9,1.3-1.6,2.1-2.1l-1.5-3.3c-0.2-0.5-0.2-1,0.2-1l3.5-0.9c0.1,0,0.3,0,0.4,0.1c0.2,0.1,0.4,0.4,0.6,0.7l1.5,3.3
						c1.1,0,2.2,0.3,3.4,0.7l0-3c0-0.4,0.3-0.6,0.7-0.4l4.3,2.5c0.4,0.2,0.7,0.8,0.7,1.2l0,3c1.2,0.9,2.3,2,3.4,3.2l1.5-1.6
						c0.1-0.1,0.4-0.1,0.6,0c0.1,0.1,0.3,0.2,0.4,0.4l3.5,4.9c0.3,0.4,0.4,1,0.2,1.2l-1.6,1.5c0.8,1.5,1.5,3,2.1,4.5l2.5,0.5
						c0.1,0,0.1,0,0.2,0.1c0.3,0.2,0.6,0.5,0.7,0.9l1.3,5.5c0.1,0.5-0.1,0.8-0.5,0.8l-2.5-0.5c0.1,0.7,0.1,1.4,0.1,2.1
						c0,0.7,0,1.4-0.1,2L169.4,128.9z M152.2,127.9c5.7,3.3,10.4,0.7,10.4-5.9c0-6.6-4.6-14.6-10.4-17.9c-5.7-3.3-10.4-0.7-10.4,5.9
						C141.8,116.6,146.4,124.6,152.2,127.9L152.2,127.9z"/>
				</g>
				<path class="st8" d="M171.8,103.7l-3.5-4.9c-0.1-0.2-0.3-0.3-0.4-0.4c-0.2-0.1-0.4-0.1-0.5,0l-7.3,4.2c0.1-0.1,0.3-0.1,0.5,0
					c0.1,0.1,0.3,0.2,0.4,0.4l3.5,4.9c0.3,0.4,0.4,1,0.2,1.2l7.3-4.2C172.2,104.7,172.1,104.1,171.8,103.7z"/>
			</g>
		</g>
		<g>
			<g class="st9">
				<g>
					<path class="st12" d="M138.8,74.1l8.7-5c0,0,0,0,0.1,0L138.8,74.1C138.9,74.1,138.8,74.1,138.8,74.1z"/>
				</g>
				<g>
					<path class="st12" d="M158.5,84.9l-8.7,5c0.1,0,0.1-0.1,0.1-0.2l8.7-5C158.6,84.8,158.5,84.8,158.5,84.9z"/>
				</g>
				<g>
					<polygon class="st12" points="138.9,74.1 147.5,69 149.4,68.6 140.7,73.6 					"/>
				</g>
				<g>
					<polygon class="st12" points="150.6,87.7 159.3,82.6 158.6,84.7 149.9,89.7 					"/>
				</g>
				<g>
					<path class="st12" d="M137.1,62.8l8.7-5c0.1-0.1,0.3-0.1,0.4,0l-8.7,5C137.4,62.8,137.2,62.7,137.1,62.8z"/>
				</g>
				<g>
					<polygon class="st12" points="137.6,62.9 146.2,57.8 148.5,59.1 139.8,64.1 					"/>
				</g>
				<g>
					<path class="st12" d="M167.5,88.8l-8.7,5c0.2-0.1,0.2-0.3,0.1-0.6l8.7-5C167.7,88.5,167.7,88.7,167.5,88.8z"/>
				</g>
				<g>
					<polygon class="st12" points="158.3,90.4 167,85.3 167.7,88.2 159,93.2 					"/>
				</g>
				<g>
					<path class="st12" d="M167.1,79.9l-8.7,5c-1.6,0.9-3.8,0.8-6.3-0.6l8.7-5C163.3,80.7,165.5,80.8,167.1,79.9z"/>
				</g>
				<g>
					<path class="st12" d="M145.9,63.3l8.7-5c-1.6,0.9-2.6,2.9-2.6,5.7c0,5.6,3.9,12.5,8.8,15.3l-8.7,5c-4.9-2.8-8.8-9.7-8.8-15.3
						C143.3,66.2,144.3,64.2,145.9,63.3z"/>
				</g>
				<g>
					<path class="st26" d="M141,55.6l8.7-5c0.1-0.1,0.3,0,0.4,0c0.1,0.1,0.2,0.2,0.4,0.3l-8.7,5c-0.1-0.2-0.2-0.3-0.4-0.3
						C141.3,55.5,141.2,55.5,141,55.6z"/>
				</g>
				<g>
					<path class="st12" d="M172,87.6l-8.7,5c0,0,0,0,0.1,0L172,87.6C172,87.6,172,87.6,172,87.6z"/>
				</g>
				<g>
					<polygon class="st12" points="141.8,55.9 150.5,50.9 152.3,53.5 143.6,58.5 					"/>
				</g>
				<g>
					<path class="st12" d="M143.6,58.5l8.7-5c0.7-0.4,1.6-0.6,2.4-0.6l-8.7,5C145.2,57.9,144.4,58.1,143.6,58.5z"/>
				</g>
				<g>
					<polygon class="st12" points="165.6,90.4 174.2,85.4 172.1,87.6 163.4,92.6 					"/>
				</g>
				<path class="st26" d="M174.1,84.4l-1.8-2.6l-8.7,5l1.8,2.6c0.3,0.4,0.3,0.8,0.1,1l8.7-5C174.4,85.2,174.4,84.7,174.1,84.4z"/>
				<g>
					<path class="st12" d="M164.6,84.1l8.7-5c-0.2,1-0.5,2-0.9,2.8l-8.7,5C164.1,86,164.4,85.1,164.6,84.1z"/>
				</g>
				<g>
					<polygon class="st12" points="150,56 158.7,50.9 159.4,53.8 150.7,58.8 					"/>
				</g>
				<path class="st26" d="M158.1,50.1c-0.1,0-0.1-0.1-0.2-0.1l-3.5-0.7c-0.1,0-0.2,0-0.2,0l-8.7,5c0.1,0,0.1-0.1,0.2,0l3.5,0.7
					c0.1,0,0.1,0,0.2,0.1c0.3,0.1,0.5,0.5,0.6,0.8l8.7-5C158.6,50.6,158.4,50.3,158.1,50.1z"/>
				<g>
					<path class="st12" d="M175.9,80.4l-8.7,5c0.1-0.1,0.2-0.2,0.2-0.4l8.7-5C176.1,80.2,176,80.3,175.9,80.4z"/>
				</g>
				<g>
					<path class="st12" d="M150.7,58.8l8.7-5c0.5,0.2,1,0.5,1.5,0.8c0.5,0.3,1,0.6,1.5,1l-8.7,5c-0.5-0.4-1-0.7-1.5-1
						C151.7,59.3,151.2,59,150.7,58.8z"/>
				</g>
				<g>
					<path class="st12" d="M163.7,74.6l8.7-5c0.4,1.3,0.7,2.6,0.9,3.8l-8.7,5C164.4,77.2,164.1,75.9,163.7,74.6z"/>
				</g>
				<g>
					<polygon class="st12" points="167.4,80.8 176.1,75.8 176.1,80 167.4,85 					"/>
				</g>
				<path class="st26" d="M175.5,74.7l-2.2-1.3l-8.7,5l2.2,1.3c0.3,0.2,0.6,0.7,0.6,1l8.7-5C176.1,75.4,175.8,74.9,175.5,74.7z"/>
				<g>
					<path class="st12" d="M158.4,65l8.7-5c0.9,1.1,1.7,2.2,2.4,3.4l-8.7,5C160.1,67.2,159.3,66,158.4,65z"/>
				</g>
				<g>
					<polygon class="st12" points="159.1,62.9 167.7,57.9 167,59.9 158.4,65 					"/>
				</g>
				<path class="st26" d="M167.4,56.8l-3.5-3.3c-0.1-0.1-0.1-0.1-0.2-0.1c-0.2-0.1-0.3-0.1-0.4,0l-8.7,5c0.1-0.1,0.3-0.1,0.4,0
					c0.1,0,0.1,0.1,0.2,0.1l3.5,3.3c0.3,0.3,0.5,0.8,0.4,1.1l8.7-5C167.8,57.6,167.7,57.1,167.4,56.8z"/>
				<g>
					<polygon class="st12" points="160.8,68.4 169.5,63.4 171.3,62.9 162.6,68 					"/>
				</g>
				<g>
					<path class="st27" d="M166.8,79.8c0.3,0.2,0.6,0.7,0.6,1l0,4.2c0,0.4-0.3,0.5-0.6,0.3l-2.2-1.3c-0.2,1-0.5,2-0.9,2.8l1.8,2.6
						c0.3,0.4,0.3,0.8,0.1,1l-2.2,2.2c-0.1,0.1-0.3,0.1-0.5,0c-0.1-0.1-0.2-0.2-0.4-0.3l-1.8-2.6c-0.7,0.4-1.6,0.6-2.4,0.6l0.7,2.8
						c0.1,0.4-0.1,0.7-0.4,0.6l-3.5-0.7c-0.1,0-0.1,0-0.2-0.1c-0.3-0.1-0.5-0.5-0.6-0.8l-0.7-2.8c-0.5-0.2-1-0.5-1.5-0.8
						c-0.5-0.3-1-0.6-1.5-1l-0.7,2c-0.1,0.2-0.3,0.3-0.6,0.1c-0.1,0-0.1-0.1-0.2-0.1l-3.5-3.3c-0.3-0.3-0.5-0.8-0.4-1.1l0.7-2
						c-0.9-1.1-1.7-2.2-2.4-3.4l-1.8,0.5c-0.1,0-0.2,0-0.4-0.1c-0.2-0.1-0.4-0.3-0.5-0.6l-2.2-4.7c-0.2-0.4-0.1-0.8,0.1-0.9l1.8-0.5
						c-0.4-1.3-0.7-2.6-0.9-3.8l-2.2-1.3c-0.3-0.2-0.6-0.7-0.6-1l0-4.2c0-0.4,0.3-0.5,0.6-0.3l2.2,1.3c0.2-1,0.5-2,0.9-2.8l-1.8-2.6
						c-0.3-0.4-0.3-0.8-0.1-1l2.2-2.2c0.1-0.1,0.3-0.1,0.5,0c0.1,0.1,0.2,0.2,0.4,0.3l1.8,2.6c0.7-0.4,1.6-0.6,2.4-0.6l-0.7-2.8
						c-0.1-0.4,0.1-0.7,0.4-0.7l3.5,0.7c0.1,0,0.1,0,0.2,0.1c0.3,0.1,0.5,0.5,0.6,0.8l0.7,2.8c0.5,0.2,1,0.5,1.5,0.8
						c0.5,0.3,1,0.6,1.5,1l0.7-2c0.1-0.2,0.3-0.3,0.6-0.2c0.1,0,0.1,0.1,0.2,0.1l3.5,3.3c0.3,0.3,0.5,0.8,0.4,1.1l-0.7,2
						c0.9,1.1,1.7,2.2,2.4,3.4l1.8-0.5c0.1,0,0.2,0,0.4,0.1c0.2,0.1,0.4,0.3,0.5,0.6l2.2,4.7c0.2,0.4,0.1,0.8-0.1,0.9l-1.8,0.5
						c0.4,1.3,0.7,2.6,0.9,3.8L166.8,79.8z M152.2,84.3c4.9,2.8,8.9,0.6,8.9-5.1c0-5.6-3.9-12.5-8.8-15.3c-4.9-2.8-8.9-0.6-8.9,5.1
						C143.3,74.6,147.3,81.5,152.2,84.3L152.2,84.3z"/>
				</g>
				<path class="st26" d="M174.3,68.2l-2.2-4.7c-0.1-0.3-0.3-0.5-0.5-0.6c-0.1-0.1-0.2-0.1-0.4-0.1l-8.7,5c0.1,0,0.2,0,0.4,0.1
					c0.2,0.1,0.4,0.3,0.5,0.6l2.2,4.7c0.2,0.4,0.1,0.7-0.1,0.9l8.7-5C174.4,69,174.5,68.6,174.3,68.2z"/>
			</g>
		</g>
	</g>
</g>
</svg>
