<?xml version="1.0" encoding="utf-8"?>
<!-- Generator: Adobe Illustrator 23.0.5, SVG Export Plug-In . SVG Version: 6.00 Build 0)  -->
<svg version="1.1" xmlns="http://www.w3.org/2000/svg" xmlns:xlink="http://www.w3.org/1999/xlink" x="0px" y="0px"
	 viewBox="0 0 500 500" style="enable-background:new 0 0 500 500;" xml:space="preserve">
<style type="text/css">
	.st0{fill:#F5F5F5;}
	.st1{fill:#E6E6E6;}
	.st2{fill:#EBEBEB;}
	.st3{fill:#27DEBF;}
	.st4{fill:#FFFFFF;}
	.st5{fill:#455A64;}
	.st6{fill:#37474F;}
	.st7{fill:#E0E0E0;}
	.st8{opacity:0.5;}
	.st9{fill:#F0F0F0;}
	.st10{opacity:0.2;}
	.st11{fill:#263238;}
	.st12{fill:#FFA8A7;}
	.st13{opacity:0.1;}
	.st14{fill:#F28F8F;}
</style>
<g id="Floor">
	<path class="st0" d="M91,410.2c87.3,45.6,228.8,45.6,316.1,0c87.3-45.6,87.3-119.5,0-165.1c-87.3-45.6-228.8-45.6-316.1,0
		C3.7,290.6,3.7,364.6,91,410.2z"/>
</g>
<g id="Shadows">
	<path class="st1" d="M303.3,391.1l-206-118.9c-1.4-0.8-1.4-2.2,0-3L218,199.5c1.4-0.8,3.8-0.8,5.2,0l206,119c1.4,0.8,1.4,2.2,0,3
		l-120.7,69.7C307.1,391.9,304.8,391.9,303.3,391.1z"/>
	<ellipse class="st2" cx="94.7" cy="332.9" rx="54.4" ry="25.9"/>
</g>
<g id="Plant">
	<g id="XMLID_16391_">
		<g id="XMLID_16395_">
			<path class="st3" d="M260.5,219.6c2.5,0.1,6.7-3.2,7.4-7.3c0.6-4.1,1.9-7.3,7.7-9.5c5.8-2.2,9.1-3.2,10.9-8.3
				c1.9-5.1-1.1-10.8-1.8-15.1c-0.8-4.3,3.2-9.3,9-14.1s9.2-9.7,4-12.7c-5.2-3-11.6-1.7-17.3,1.9c-5.7,3.6-10.1,8.4-17,7.8
				c-6.9-0.6-10.8,2.3-12.2,7.8c-1.4,5.4,0.6,12.4-4.6,14.1v23.2L260.5,219.6z"/>
		</g>
		<g id="XMLID_16394_">
			<path class="st4" d="M250,209.2c0,0-0.1,0-0.1,0c-0.3-0.1-0.4-0.3-0.4-0.6c5.3-22.9,29.2-48.2,42.1-53.5c0.3-0.1,0.5,0,0.7,0.3
				c0.1,0.3,0,0.5-0.3,0.7c-12.7,5.2-36.3,30.2-41.5,52.8C250.4,209,250.2,209.2,250,209.2z"/>
		</g>
		<g id="XMLID_16393_">
			<path class="st4" d="M263.3,181.8c-0.2,0-0.5-0.2-0.5-0.4c-1-6.2-4-11-4.1-11c-0.1-0.2-0.1-0.5,0.2-0.7c0.2-0.1,0.5-0.1,0.7,0.2
				c0.1,0.2,3.2,5,4.2,11.4C263.8,181.5,263.7,181.8,263.3,181.8C263.4,181.8,263.3,181.8,263.3,181.8z"/>
		</g>
		<g id="XMLID_16392_">
			<path class="st4" d="M259.2,188.8c-0.2,0-0.4-0.1-0.5-0.4c-0.1-0.3,0.1-0.5,0.4-0.6c7.9-2.1,17.8-0.1,18.2,0
				c0.3,0.1,0.4,0.3,0.4,0.6c-0.1,0.3-0.3,0.4-0.6,0.4c-0.1,0-10.1-2-17.8,0C259.3,188.8,259.2,188.8,259.2,188.8z"/>
		</g>
	</g>
</g>
<g id="Clouds">
	<g id="XMLID_16493_">
		<g id="XMLID_16497_">
			<path class="st2" d="M347.5,85.1l3.8,1.5v-8.4c0-6.7,5.3-8.3,11.1-5l0,0c5.8,3.3,10.5,11.5,10.5,18.2v1.2c1.3-0.5,3-0.3,4.9,0.8
				l0,0c4.2,2.4,7.6,8.3,7.6,13.1v0.6l5.3,3.1c2.7,1.6,5,5.4,5,8.6s-2.2,4.5-5,2.9l-43.3-25c-2.7-1.6-5-5.4-5-8.6
				S344.8,83.5,347.5,85.1z"/>
		</g>
		<g id="XMLID_16494_">
			<path class="st2" d="M391,87.9l7,4c0-0.3-0.1-0.6-0.1-0.9v-2c0-3.6,2.5-5,5.6-3.2c1.3,0.7,2.4,1.9,3.3,3.2c0.5-4.5,4-6.2,8.3-3.7
				c4.6,2.7,8.4,9.2,8.4,14.6v3c0,1.4-0.3,2.6-0.7,3.5l5.8,3.3c1.7,1,3.1,3.4,3.1,5.4c0,2-1.4,2.8-3.1,1.8L391,95.1
				c-1.7-1-3.1-3.4-3.1-5.4C387.8,87.7,389.2,86.9,391,87.9z"/>
		</g>
	</g>
</g>
<g id="Signal">
	<g id="XMLID_16334_">
		<g id="XMLID_16330_">
			<g id="XMLID_16311_">
				<polygon class="st5" points="249.1,90.9 285.6,69.9 293.7,74.6 285.6,88.6 249.1,109.7 				"/>
			</g>
			<g id="XMLID_16326_">
				<polygon class="st6" points="285.6,69.9 281.5,67.5 245,88.6 249.1,90.9 				"/>
			</g>
			<g id="XMLID_16327_">
				<path class="st4" d="M254.4,100.4c-0.4,0.2-0.8,0.2-1,0.2c-0.1,0-0.1,0-0.1-0.1c0,0,0-0.1,0-0.1l0.3-0.7c0-0.1,0.1-0.1,0.1-0.1
					c0,0,0.1,0,0.1,0c0.2,0,0.5,0,0.8-0.1c0.3-0.1,0.6-0.2,0.9-0.4c0.4-0.2,0.7-0.5,1-0.8c0.2-0.3,0.3-0.6,0.3-0.9
					c0-0.2,0-0.3-0.1-0.4c-0.1-0.1-0.2-0.1-0.4-0.1c-0.2,0-0.4,0-0.8,0.1l-0.2,0c-0.4,0.1-0.7,0.1-1,0.1c-0.3,0-0.5-0.1-0.7-0.2
					c-0.2-0.1-0.3-0.4-0.3-0.7c0-0.6,0.2-1.1,0.7-1.7c0.4-0.6,1-1,1.7-1.4c0.4-0.2,0.8-0.4,1.1-0.5c0.3-0.1,0.6-0.1,0.8-0.1
					c0.1,0,0.1,0,0.1,0.1c0,0,0,0.1,0,0.1l-0.3,0.7c0,0.1-0.1,0.1-0.1,0.1c0,0-0.1,0-0.1,0c-0.4,0-0.9,0.1-1.5,0.5
					c-0.4,0.2-0.7,0.5-0.9,0.7c-0.2,0.3-0.3,0.5-0.3,0.9c0,0.2,0,0.3,0.1,0.4c0.1,0.1,0.2,0.1,0.4,0.1c0.2,0,0.4-0.1,0.8-0.1l0.2,0
					c0.5-0.1,0.8-0.1,1.1-0.1c0.3,0,0.5,0.1,0.6,0.2c0.1,0.1,0.2,0.4,0.2,0.8c0,0.5-0.2,1.1-0.6,1.6c-0.4,0.5-1,1-1.7,1.5
					C255.3,100,254.8,100.2,254.4,100.4z"/>
				<path class="st4" d="M259.6,96.7c-0.6-0.3-0.8-0.9-0.8-2c0-1.1,0.3-2,0.8-2.9c0.6-0.9,1.3-1.6,2.4-2.2c1-0.6,1.8-0.8,2.4-0.5
					c0.6,0.3,0.8,0.9,0.8,2c0,1.1-0.3,2-0.8,2.9c-0.6,0.9-1.3,1.6-2.4,2.2C260.9,96.8,260.2,96.9,259.6,96.7z M263.5,93.8
					c0.3-0.6,0.5-1.3,0.5-2.1c0-0.8-0.2-1.3-0.5-1.5c-0.3-0.2-0.8-0.1-1.5,0.2s-1.2,0.9-1.5,1.5c-0.3,0.6-0.5,1.3-0.5,2.1
					c0,0.8,0.2,1.3,0.5,1.5c0.3,0.2,0.8,0.1,1.5-0.2S263.1,94.4,263.5,93.8z"/>
				<path class="st4" d="M267.4,92.7c-0.4,0.1-0.8,0-1-0.2c-0.2-0.2-0.4-0.6-0.4-1.1v-3.8c0-0.1,0-0.2,0.1-0.3
					c0.1-0.1,0.1-0.2,0.3-0.2l0.5-0.3c0.1-0.1,0.2-0.1,0.3-0.1c0.1,0,0.1,0.1,0.1,0.2v3.8c0,0.5,0.1,0.8,0.4,0.9
					c0.3,0.1,0.7,0,1.2-0.3c0.5-0.3,0.9-0.7,1.2-1.1c0.3-0.4,0.4-0.9,0.4-1.4v-3.8c0-0.1,0-0.2,0.1-0.3c0.1-0.1,0.1-0.2,0.3-0.2
					l0.5-0.3c0.2-0.1,0.4-0.1,0.4,0.1v3.8c0,0.5-0.1,1-0.4,1.5c-0.2,0.5-0.6,1-1,1.4c-0.4,0.4-0.9,0.8-1.5,1.1
					C268.3,92.5,267.8,92.7,267.4,92.7z"/>
				<path class="st4" d="M274.5,88.7c-0.1,0-0.1-0.1-0.1-0.2v-5.1l-1.6,0.9c-0.1,0.1-0.2,0.1-0.3,0.1c0,0-0.1-0.1-0.1-0.2V84
					c0-0.1,0-0.2,0.1-0.3c0-0.1,0.1-0.2,0.3-0.2l4.5-2.6c0.1-0.1,0.2-0.1,0.3-0.1c0.1,0,0.1,0.1,0.1,0.2v0.3c0,0.1,0,0.2-0.1,0.3
					c0,0.1-0.1,0.2-0.3,0.2l-1.6,0.9v5.1c0,0.1,0,0.2-0.1,0.3c-0.1,0.1-0.1,0.2-0.3,0.2l-0.5,0.3C274.6,88.7,274.5,88.8,274.5,88.7z
					"/>
				<path class="st4" d="M278.4,86.5c-0.1,0-0.1-0.1-0.1-0.2v-5.7c0-0.1,0-0.2,0.1-0.3c0.1-0.1,0.1-0.2,0.3-0.2l0.5-0.3
					c0.1-0.1,0.2-0.1,0.3-0.1c0.1,0,0.1,0.1,0.1,0.2v2.4l3.1-1.8v-2.4c0-0.1,0-0.2,0.1-0.3c0.1-0.1,0.1-0.2,0.3-0.2l0.5-0.3
					c0.1-0.1,0.2-0.1,0.3-0.1c0.1,0,0.1,0.1,0.1,0.2v5.7c0,0.1,0,0.2-0.1,0.3c-0.1,0.1-0.1,0.2-0.3,0.2l-0.5,0.3
					c-0.1,0.1-0.2,0.1-0.3,0.1c-0.1,0-0.1-0.1-0.1-0.2v-2.4l-3.1,1.8v2.4c0,0.1,0,0.2-0.1,0.3c-0.1,0.1-0.1,0.2-0.3,0.2l-0.5,0.3
					C278.5,86.5,278.4,86.5,278.4,86.5z"/>
			</g>
		</g>
		<g id="XMLID_16331_">
			<g id="XMLID_16333_">
				<polygon class="st5" points="244.9,112 208.4,91 200.3,95.7 208.4,109.7 244.9,130.8 				"/>
			</g>
			<g id="XMLID_16332_">
				<polygon class="st6" points="208.4,91 212.5,88.6 249,109.7 244.9,112 				"/>
			</g>
			<g id="XMLID_16329_">
				<path class="st4" d="M211.9,106c-0.1-0.1-0.1-0.1-0.1-0.2l-1.7-6.9c0,0,0-0.1,0-0.1c0-0.1,0.1-0.1,0.2,0l0.9,0.5
					c0.1,0.1,0.2,0.1,0.2,0.2c0,0.1,0.1,0.1,0.1,0.2l1.1,4.7l1.3-2.9c0-0.1,0.1-0.1,0.1-0.1c0,0,0.1,0,0.2,0.1l0.5,0.3
					c0.1,0.1,0.2,0.1,0.2,0.2c0,0.1,0.1,0.1,0.1,0.2l1.3,4.4l1.1-3.5c0-0.1,0-0.1,0.1-0.1c0,0,0.1,0,0.2,0.1l0.9,0.5
					c0.1,0.1,0.2,0.2,0.2,0.3c0,0,0,0.1,0,0.1l-1.7,4.9c0,0.1-0.1,0.1-0.1,0.1c-0.1,0-0.1,0-0.2-0.1l-0.6-0.3
					c-0.1-0.1-0.2-0.1-0.2-0.2c-0.1-0.1-0.1-0.1-0.1-0.3l-1.3-4.5l-1.3,3c0,0.1-0.1,0.1-0.1,0.1c-0.1,0-0.1,0-0.2-0.1l-0.6-0.3
					C212,106.1,211.9,106,211.9,106z"/>
				<path class="st4" d="M219.9,110.5c-0.1-0.1-0.1-0.2-0.1-0.3v-5.7c0-0.1,0-0.2,0.1-0.2c0.1,0,0.2,0,0.3,0.1l4.5,2.6
					c0.1,0.1,0.2,0.2,0.3,0.2c0.1,0.1,0.1,0.2,0.1,0.3v0.3c0,0.1,0,0.2-0.1,0.2c-0.1,0-0.2,0-0.3-0.1l-3.5-2v1.8l2.5,1.5
					c0.1,0.1,0.2,0.2,0.3,0.2c0.1,0.1,0.1,0.2,0.1,0.3v0.2c0,0.1,0,0.2-0.1,0.2c-0.1,0-0.2,0-0.3-0.1l-2.5-1.5v1.8l3.5,2
					c0.1,0.1,0.2,0.2,0.3,0.3c0.1,0.1,0.1,0.2,0.1,0.3v0.3c0,0.1,0,0.2-0.1,0.2c-0.1,0-0.2,0-0.3-0.1l-4.5-2.6
					C220,110.7,219.9,110.6,219.9,110.5z"/>
				<path class="st4" d="M227.1,114.8c-0.5-0.4-0.9-0.7-1.2-1.1c-0.1-0.1-0.1-0.2-0.1-0.2c0,0,0-0.1,0-0.1l0.4-0.3c0,0,0.1,0,0.1,0
					c0,0,0.1,0.1,0.1,0.1c0.3,0.3,0.6,0.6,0.9,0.9c0.4,0.3,0.7,0.5,1.1,0.7c0.5,0.3,0.9,0.4,1.1,0.4c0.2,0,0.4-0.2,0.4-0.5
					c0-0.2,0-0.4-0.1-0.5c-0.1-0.2-0.2-0.3-0.4-0.5c-0.2-0.2-0.5-0.5-0.9-0.8l-0.2-0.2c-0.5-0.4-0.9-0.8-1.2-1.1
					c-0.3-0.3-0.6-0.7-0.8-1c-0.2-0.4-0.3-0.7-0.3-1.1c0-0.6,0.3-0.9,0.8-0.9c0.5,0,1.2,0.2,2,0.7c0.5,0.3,0.9,0.6,1.3,0.9
					c0.4,0.3,0.7,0.6,0.9,0.9c0.1,0.1,0.1,0.2,0.1,0.2c0,0,0,0.1,0,0.1l-0.3,0.3c0,0-0.1,0-0.1,0c0,0-0.1-0.1-0.1-0.1
					c-0.5-0.5-1-1-1.7-1.4c-0.5-0.3-0.8-0.4-1-0.4c-0.2,0-0.3,0.2-0.3,0.5c0,0.2,0,0.4,0.1,0.5c0.1,0.2,0.2,0.4,0.4,0.5
					c0.2,0.2,0.5,0.5,0.9,0.9l0.3,0.2c0.5,0.5,0.9,0.9,1.2,1.2c0.3,0.3,0.5,0.6,0.7,1c0.2,0.3,0.2,0.7,0.2,1c0,0.5-0.2,0.8-0.7,0.9
					c-0.5,0-1.1-0.2-2-0.7C228.1,115.5,227.6,115.2,227.1,114.8z"/>
				<path class="st4" d="M234,118.7c-0.1-0.1-0.1-0.2-0.1-0.3v-5.1l-1.9-1.1c-0.1-0.1-0.2-0.2-0.3-0.2c-0.1-0.1-0.1-0.2-0.1-0.3
					v-0.3c0-0.1,0-0.2,0.1-0.2c0.1,0,0.2,0,0.3,0.1l5.2,3c0.1,0.1,0.2,0.2,0.3,0.3c0.1,0.1,0.1,0.2,0.1,0.3v0.3c0,0.1,0,0.2-0.1,0.2
					c-0.1,0-0.2,0-0.3-0.1l-1.9-1.1v5.1c0,0.1,0,0.2-0.1,0.2c-0.1,0-0.2,0-0.3-0.1l-0.6-0.3C234.2,118.9,234.1,118.8,234,118.7z"/>
			</g>
		</g>
		<g id="XMLID_16328_">
			<path class="st5" d="M249.1,71.5c0-0.6-0.4-1.2-1.2-1.6c-1.6-0.9-4.2-0.9-5.9,0c-0.8,0.5-1.2,1-1.2,1.6h0v220.2h8.3L249.1,71.5
				L249.1,71.5z"/>
		</g>
	</g>
</g>
<g id="Map">
	<g>
		<g id="XMLID_15771_">
			<path class="st5" d="M322.2,237.8l-48.8-14.1l-50.5-42.6c-1.3-1.1-3.5-1.3-4.9-0.4L97.3,250.4c-1.4,0.8-1.6,2.4-0.3,3.4
				l50.5,42.6l48.8,14.1l52.8,44.6l54,17.8c1.6,0.5,4,0.3,5.4-0.6l5.5-3.2l115.2-66.5c1.4-0.8,1.3-1.9-0.3-2.4l-54-17.8L322.2,237.8
				z"/>
		</g>
		<g id="XMLID_15774_">
			<polygon class="st5" points="273.4,223.8 147.5,296.5 196.2,310.5 322.2,237.8 			"/>
		</g>
		<g id="XMLID_15772_">
			<path class="st5" d="M249,355.1l54,17.8c1.6,0.5,4,0.3,5.4-0.6l120.7-69.7c1.4-0.8,1.3-1.9-0.3-2.4l-54-17.8L249,355.1z"/>
		</g>
		<g id="XMLID_15524_">
			<g id="XMLID_15768_">
				<polygon class="st7" points="265.3,228.4 219.1,189.5 109.4,252.8 155.6,291.8 				"/>
			</g>
			<g id="XMLID_15769_">
				<polygon class="st7" points="314,242.5 204.4,305.8 155.6,291.8 265.3,228.4 				"/>
			</g>
			<g id="XMLID_16258_" class="st8">
				<polygon class="st7" points="314,242.5 204.4,305.8 155.6,291.8 265.3,228.4 				"/>
			</g>
			<g id="XMLID_15778_">
				<polygon class="st7" points="366.8,287.1 257.2,350.4 204.4,305.8 314,242.5 				"/>
			</g>
			<g id="XMLID_15781_">
				<polygon class="st7" points="413.4,302.4 303.7,365.7 257.2,350.4 366.8,287.1 				"/>
			</g>
			<g id="XMLID_16265_" class="st8">
				<polygon class="st7" points="413.4,302.4 303.7,365.7 257.2,350.4 366.8,287.1 				"/>
			</g>
		</g>
		<g id="XMLID_15827_">
			<g id="XMLID_15536_">
				<polygon class="st9" points="136.2,275.3 151.6,266 127.2,242.5 109.4,252.8 				"/>
			</g>
			<g id="XMLID_15822_">
				<g id="XMLID_15678_">
					<polygon class="st9" points="155.6,263.6 131.2,240.2 167.8,219 192.2,242.5 					"/>
				</g>
				<g id="XMLID_15737_">
					<polygon class="st9" points="171.9,216.7 196.2,240.2 208.4,233.1 204.4,198 					"/>
				</g>
				<g id="XMLID_15739_">
					<polygon class="st9" points="212.5,230.8 208.4,195.6 219.1,189.5 258.7,222.9 					"/>
				</g>
				<g id="XMLID_15762_">
					<polygon class="st9" points="169.8,283.6 157.7,271.8 142.4,280.6 155.6,291.8 					"/>
				</g>
				<g id="XMLID_15763_">
					<polygon class="st9" points="161.7,269.5 173.9,281.2 210.4,260.1 198.3,248.4 					"/>
				</g>
				<g id="XMLID_15783_">
					<polygon class="st9" points="214.5,257.8 202.3,246 213.5,239.6 236.9,235.5 236.9,244.9 					"/>
				</g>
				<g id="XMLID_15786_">
					<polygon class="st9" points="240.9,242.5 240.9,234.8 260.2,231.4 					"/>
				</g>
			</g>
		</g>
		<g id="XMLID_15826_">
			<g id="XMLID_15749_">
				<path class="st1" d="M261.2,249.5c-4.5-1.3-10.9-0.8-14.2,1.2c-3.4,1.9-2.5,4.6,2,5.9c4.5,1.3,10.9,0.8,14.2-1.2
					C266.6,253.5,265.7,250.8,261.2,249.5z"/>
			</g>
			<g id="XMLID_15821_">
				<g id="XMLID_16031_">
					<path class="st1" d="M248,247c-0.9,0.3-1.8,0.7-2.5,1.1c-3.5,2-3.6,4.7-3.5,5.8c0.1,0.5,0.2,1.1,0.6,1.8l-9.8,5.6l-18.3-3.5
						l22.3-12.9L248,247z"/>
				</g>
				<g id="XMLID_15784_">
					<polygon class="st1" points="240.9,242.5 253.5,244.7 259.9,245.6 281.5,233.1 265.3,228.4 					"/>
				</g>
				<g id="XMLID_16028_">
					<path class="st1" d="M314,242.5l-30.5,17.6l-18.2-2.5c2.9-2,3-4.4,2.9-5.4c-0.1-0.5-0.2-1.1-0.6-1.8l24.7-14.3L314,242.5z"/>
				</g>
				<g id="XMLID_15967_">
					<path class="st1" d="M279.9,262.2l-14.6,8.4l-24.4-4.7l10.2-5.8c0,0,0.1,0,0.1,0c0,0,0,0,0,0c1.1,0.1,2.3,0.2,3.4,0.2
						c2.5,0,4.9-0.3,7-1h0L279.9,262.2z"/>
				</g>
				<g id="XMLID_882_">
					<g id="XMLID_889_">
						<polygon class="st1" points="210.4,260.1 173.9,281.2 192.2,284.7 228.7,263.6 						"/>
					</g>
					<g id="XMLID_891_">
						<polygon class="st1" points="265.3,270.7 240.9,266 204.4,287.1 228.7,291.8 						"/>
					</g>
					<g id="XMLID_881_">
						<g id="XMLID_890_">
							<polygon class="st1" points="169.8,283.6 155.6,291.8 171.9,296.5 188.1,287.1 							"/>
						</g>
						<g id="XMLID_894_">
							<polygon class="st1" points="224.7,294.1 200.3,289.4 182.7,299.6 204.4,305.8 							"/>
						</g>
					</g>
				</g>
			</g>
		</g>
		<g id="XMLID_15825_">
			<g id="XMLID_896_">
				<polygon class="st9" points="289.7,270.7 303.2,295.7 338.4,275.3 305.9,261.3 				"/>
			</g>
			<g id="XMLID_15794_">
				<g id="XMLID_892_">
					<polygon class="st9" points="224.7,294.1 228.7,301.1 227.5,325.3 204.4,305.8 					"/>
				</g>
				<g id="XMLID_893_">
					<polygon class="st9" points="228.7,291.8 232.8,298.8 283.7,269.4 279.9,262.2 					"/>
				</g>
				<g id="XMLID_895_">
					<polygon class="st9" points="283.5,260.1 287.6,267.1 320.6,248.1 314,242.5 					"/>
				</g>
				<g id="XMLID_897_">
					<polygon class="st9" points="285.6,273 234.8,302.3 233.5,330.4 237.4,333.7 299.2,298 					"/>
				</g>
				<g id="XMLID_14700_">
					<polygon class="st9" points="310,258.9 323.9,250.9 347,270.4 342.5,273 					"/>
				</g>
				<g id="XMLID_14725_">
					<polygon class="st9" points="244,339.3 261.2,329.3 269.4,343.4 257.2,350.4 					"/>
				</g>
				<g id="XMLID_14731_">
					
						<rect x="268.1" y="321.2" transform="matrix(0.866 -0.5 0.5 0.866 -127.4681 182.8582)" class="st9" width="18.8" height="16.2"/>
				</g>
				<g id="XMLID_14733_">
					<polygon class="st9" points="285.6,315.2 303.1,305.1 310.9,319.4 293.7,329.3 					"/>
				</g>
				<g id="XMLID_14735_">
					<polygon class="st9" points="314.9,317.1 307.1,302.8 342.5,282.4 360.2,281.5 366.8,287.1 					"/>
				</g>
				<g id="XMLID_14734_">
					<polygon class="st9" points="350.3,273.1 342.5,277.7 355.1,277.2 					"/>
				</g>
			</g>
		</g>
		<g id="XMLID_15823_">
			<g id="XMLID_15407_">
				<path class="st1" d="M334.6,324.7c-4.5-1.3-10.9-0.8-14.2,1.2s-2.5,4.6,2,5.9c4.5,1.3,10.9,0.8,14.2-1.2
					C340,328.7,339.1,326,334.6,324.7z"/>
			</g>
			<g id="XMLID_15790_">
				<g id="XMLID_14732_">
					<polygon class="st1" points="269.4,343.4 285.6,348 272.7,355.5 257.2,350.4 					"/>
				</g>
				<g id="XMLID_15411_">
					<polygon class="st1" points="273.4,341 289.7,345.7 305.9,336.3 289.7,331.6 					"/>
				</g>
				<g id="XMLID_15412_">
					<path class="st1" d="M293.7,329.3L310,334l5.4-3.1c0,0-2.6-5.7,5-8.1l-9.5-3.3L293.7,329.3z"/>
				</g>
				<g id="XMLID_15413_">
					<path class="st1" d="M314.9,317.1l10,3.6c0,0,3.2-0.5,8.1,0l29.8-17.2l-16.2-4.7L314.9,317.1z"/>
				</g>
				<g id="XMLID_15432_">
					<polygon class="st1" points="350.6,296.5 366.8,301.1 382.4,292.2 366.8,287.1 					"/>
				</g>
				<g id="XMLID_15433_">
					<polygon class="st1" points="392.7,295.6 366.8,310.5 387.2,317.6 413.4,302.4 					"/>
				</g>
				<g id="XMLID_15748_">
					<path class="st1" d="M362.8,312.9l-21.4,12.3c0,0,2.6,4.1-0.7,7.3l14,3.8l28.4-16.4l-19.8-6.8"/>
				</g>
				<g id="XMLID_15789_">
					<path class="st1" d="M350.6,338.7l-14.4-3.6c0,0-7,2.7-12.8,0.6L301.9,348l-4.1,15.7l5.9,1.9L350.6,338.7z"/>
				</g>
				<g id="XMLID_15793_">
					<polygon class="st1" points="297.8,350.4 294.4,362.7 283,358.9 					"/>
				</g>
			</g>
		</g>
		<g id="XMLID_31_">
			<path class="st3" d="M279.9,312.9c-0.3,0-0.7-0.2-0.9-0.5c-0.3-0.5-0.1-1.1,0.4-1.4l21.4-12.6l-19.8-36.2l-18.7-2.9
				c-0.4-0.1-0.7-0.4-0.8-0.8c-0.1-0.4,0.1-0.8,0.5-1c2.8-1.7,4.2-3.3,4-4.6c-0.1-1.3-1.7-2.6-4.3-3.6c-3.8-1.5-11.8-1-15.2,1.7
				c-3,2.3-1.2,5.1-1.1,5.2c0.2,0.2,0.2,0.5,0.1,0.8c-0.1,0.3-0.2,0.5-0.5,0.6l-10.3,6.2c-0.2,0.1-0.5,0.2-0.7,0.1l-21.6-3.9
				c-0.2,0-0.4-0.1-0.5-0.3l-21.8-22c-0.4-0.4-0.4-1,0-1.4c0.4-0.4,1-0.4,1.4,0L213,258l21,3.8l9.2-5.5c-0.7-1.8-0.9-4.7,2-7
				c4-3.1,12.8-3.6,17.2-2c2,0.8,5.3,2.5,5.6,5.3c0.2,1.7-0.8,3.4-2.9,5.1l16.7,2.6c0.3,0,0.6,0.2,0.7,0.5l20.6,37.5
				c0.3,0.5,0.1,1.1-0.4,1.3l-22.2,13.1C280.2,312.9,280,312.9,279.9,312.9z"/>
		</g>
	</g>
	<g>
		<g>
			<g id="XMLID_16157_">
				<path class="st3" d="M197.2,206.4l-3.4-2l0,0c-1.6-1.1-3.9-1-6.4,0.4c-5,2.9-9,10.2-9,16.3v1.4c0,6.1,8.2,12.8,8.2,12.8l3.4,1.9
					c0,0-2-2.3-1.8-2.8c2.2-4.5,8.2-17.3,8.2-22.3v-1.4c0-1.1-0.1-2.1-0.4-3l0.4,0.2L197.2,206.4z M187.4,220.5
					c-2.5,1.4-4.5,0.3-4.5-2.6c1.3-0.2,4.7-6,4.5-7.8c2.5-1.4,4.5-0.3,4.5,2.6C191.9,215.6,189.9,219.1,187.4,220.5z"/>
			</g>
			<g id="XMLID_16272_">
				<path class="st3" d="M197.2,206.4l-3.4-2l0,0c-1.6-1.1-3.9-1-6.4,0.4c-5,2.9-9,10.2-9,16.3v1.4c0,6.1,8.2,12.8,8.2,12.8l3.4,1.9
					c0,0-2-2.3-1.8-2.8c2.2-4.5,8.2-17.3,8.2-22.3v-1.4c0-1.1-0.1-2.1-0.4-3l0.4,0.2L197.2,206.4z M187.4,220.5
					c-2.5,1.4-4.5,0.3-4.5-2.6c1.3-0.2,4.7-6,4.5-7.8c2.5-1.4,4.5-0.3,4.5,2.6C191.9,215.6,189.9,219.1,187.4,220.5z"/>
			</g>
			<g id="XMLID_1_" class="st10">
				<path d="M197.2,206.4l-3.4-2l0,0c-1.6-1.1-3.9-1-6.4,0.4c-5,2.9-9,10.2-9,16.3v1.4c0,6.1,8.2,12.8,8.2,12.8l3.4,1.9
					c0,0-2-2.3-1.8-2.8c2.2-4.5,8.2-17.3,8.2-22.3v-1.4c0-1.1-0.1-2.1-0.4-3l0.4,0.2L197.2,206.4z M187.4,220.5
					c-2.5,1.4-4.5,0.3-4.5-2.6c1.3-0.2,4.7-6,4.5-7.8c2.5-1.4,4.5-0.3,4.5,2.6C191.9,215.6,189.9,219.1,187.4,220.5z"/>
			</g>
		</g>
		<g id="XMLID_16095_">
			<path class="st3" d="M200,212.9c0-6.1-4-8.8-9-5.9c-5,2.9-9,10.2-9,16.3v1.4c0,4.7,5.3,10.2,7.8,12.5c0.6,0.6,1.6,0.4,1.9-0.4
				c2.1-4.3,8.3-17.4,8.3-22.5V212.9z M191,222.6c-2.5,1.4-4.5,0.3-4.5-2.6c0-2.9,2-6.4,4.5-7.8c2.5-1.4,4.5-0.3,4.5,2.6
				C195.5,217.6,193.5,221.1,191,222.6z"/>
		</g>
	</g>
	<g>
		<g>
			<g id="XMLID_13_">
				<path class="st3" d="M286.2,282.4l-3.4-2l0,0c-1.6-1.1-3.9-1-6.4,0.4c-5,2.9-9,10.2-9,16.3v1.4c0,6.1,8.2,12.8,8.2,12.8l3.4,1.9
					c0,0-2-2.3-1.8-2.8c2.2-4.5,8.2-17.3,8.2-22.3v-1.4c0-1.1-0.1-2.1-0.4-3l0.4,0.2L286.2,282.4z M276.4,296.5
					c-2.5,1.4-4.5,0.3-4.5-2.6c1.3-0.2,4.7-6,4.5-7.8c2.5-1.4,4.5-0.3,4.5,2.6C280.9,291.6,278.9,295.1,276.4,296.5z"/>
			</g>
			<g id="XMLID_10_">
				<path class="st3" d="M286.2,282.4l-3.4-2l0,0c-1.6-1.1-3.9-1-6.4,0.4c-5,2.9-9,10.2-9,16.3v1.4c0,6.1,8.2,12.8,8.2,12.8l3.4,1.9
					c0,0-2-2.3-1.8-2.8c2.2-4.5,8.2-17.3,8.2-22.3v-1.4c0-1.1-0.1-2.1-0.4-3l0.4,0.2L286.2,282.4z M276.4,296.5
					c-2.5,1.4-4.5,0.3-4.5-2.6c1.3-0.2,4.7-6,4.5-7.8c2.5-1.4,4.5-0.3,4.5,2.6C280.9,291.6,278.9,295.1,276.4,296.5z"/>
			</g>
			<g id="XMLID_7_" class="st10">
				<path d="M286.2,282.4l-3.4-2l0,0c-1.6-1.1-3.9-1-6.4,0.4c-5,2.9-9,10.2-9,16.3v1.4c0,6.1,8.2,12.8,8.2,12.8l3.4,1.9
					c0,0-2-2.3-1.8-2.8c2.2-4.5,8.2-17.3,8.2-22.3v-1.4c0-1.1-0.1-2.1-0.4-3l0.4,0.2L286.2,282.4z M276.4,296.5
					c-2.5,1.4-4.5,0.3-4.5-2.6c1.3-0.2,4.7-6,4.5-7.8c2.5-1.4,4.5-0.3,4.5,2.6C280.9,291.6,278.9,295.1,276.4,296.5z"/>
			</g>
		</g>
		<g id="XMLID_4_">
			<path class="st3" d="M289,288.9c0-6.1-4-8.8-9-5.9s-9,10.2-9,16.3v1.4c0,4.7,5.3,10.2,7.8,12.5c0.6,0.6,1.6,0.4,1.9-0.4
				c2.1-4.3,8.3-17.4,8.3-22.5V288.9z M280,298.6c-2.5,1.4-4.5,0.3-4.5-2.6c0-2.9,2-6.4,4.5-7.8c2.5-1.4,4.5-0.3,4.5,2.6
				C284.5,293.6,282.5,297.1,280,298.6z"/>
		</g>
	</g>
</g>
<g id="Locators_1_">
	<g id="XMLID_30_">
		<g id="XMLID_16337_">
			<g id="XMLID_16231_">
				<g id="XMLID_16234_">
					<g id="XMLID_16262_">
						<g id="XMLID_16263_">
							<path class="st11" d="M355.3,165.4c-0.1,0-0.1-0.1-0.2-0.1l-6.9-3.9c-1.5-1-3.4-1.6-5.4-1.6c-2.4,0-5.1,0.8-7.9,2.4
								c-10.3,5.9-18.6,21-18.6,33.7v2.9c0,12.7,17,26.4,17,26.4l6.9,3.9c0,0,0,0,0,0c-0.2-0.3-4.2-4.8-3.7-5.7
								c4.6-9.4,17-35.8,17-46.2v-2.9c0-2.3-0.3-4.4-0.8-6.2l0.8,0.5L355.3,165.4z M342.4,198.7c-4.6,2.6-8.4,1-9.2-3.5
								c-4.3,1.6-7.6-0.9-7.6-6.2c2.8-0.4,9.7-12.3,9.3-16.1c4.6-2.6,8.4-1,9.2,3.5c4.3-1.6,7.6,0.9,7.6,6.2
								C351.7,188.5,347.6,195.8,342.4,198.7z"/>
						</g>
					</g>
					<g id="XMLID_16235_">
						<g id="XMLID_16236_">
							<path class="st5" d="M355.3,165.4c-0.1,0-0.1-0.1-0.2-0.1c-3.3-1.9-7.8-1.6-12.7,1.2c-7.4,4.3-13.8,13.2-16.8,22.6
								c-1.2,3.7-1.9,7.5-1.9,11.1v2.9c0,9.8,11.1,21.1,16.1,25.8c0.1,0.1,0.2,0.2,0.4,0.3c0,0,0,0,0,0c1.2,0.8,2.9,0.3,3.6-1
								c4.4-9,17.2-36.1,17.2-46.6v-2.9C361,172.1,358.8,167.5,355.3,165.4z M333.2,195.2c-0.1-0.6-0.2-1.2-0.2-1.9
								c0-5.9,4.2-13.2,9.3-16.1c0.6-0.3,1.1-0.6,1.7-0.8c4.3-1.6,7.6,0.9,7.6,6.2c0,5.9-4.2,13.2-9.3,16.1
								C337.8,201.4,334,199.8,333.2,195.2z"/>
						</g>
						<g id="XMLID_16257_">
							<path class="st11" d="M345.5,174c-0.7,0.2-1.4,0.6-2.1,1c-6.2,3.6-11.3,12.3-11.3,19.5c0,0.8,0.1,1.6,0.2,2.3
								c1,5.5,5.5,7.4,11.1,4.2c6.2-3.6,11.3-12.3,11.3-19.5C354.7,175.1,350.7,172.1,345.5,174z"/>
						</g>
					</g>
				</g>
			</g>
			<g id="XMLID_16336_">
				<path class="st3" d="M344.2,176.8l1.9,4c0.1,0.3,0.3,0.3,0.6,0.2l4.2-1.6c0.7-0.3,0.9,0.7,0.5,1.6l-3.1,5.7
					c-0.2,0.4-0.3,0.8-0.2,1.1l0.7,5.2c0.1,0.8-0.6,1.9-1.2,1.8l-3.8-0.5c-0.2,0-0.5,0.1-0.8,0.4l-3.8,4.8c-0.6,0.8-1.3,0.5-1.2-0.5
					l0.7-6c0-0.4,0-0.7-0.2-0.8l-3.1-2.2c-0.5-0.4-0.2-1.6,0.5-2.1l4.2-3.3c0.3-0.2,0.5-0.6,0.6-1l1.9-6.2
					C343,176.7,343.9,176.2,344.2,176.8z"/>
			</g>
		</g>
		<g id="XMLID_16376_">
			<g id="XMLID_16339_">
				<g id="XMLID_16341_">
					<g id="XMLID_16342_">
						<g id="XMLID_16351_">
							<g id="XMLID_16352_">
								<path class="st11" d="M398.8,190.4c-0.1,0-0.1-0.1-0.2-0.1l-6.9-3.9c-1.5-1-3.4-1.6-5.4-1.6c-2.4,0-5.1,0.8-7.9,2.4
									c-10.3,5.9-18.6,21-18.6,33.7v2.9c0,12.7,17,26.4,17,26.4l6.9,3.9c0,0,0,0,0,0c-0.2-0.3-4.2-4.8-3.7-5.7
									c4.6-9.4,17-35.8,17-46.2v-2.9c0-2.3-0.3-4.4-0.8-6.2l0.8,0.5L398.8,190.4z M385.9,223.8c-4.6,2.6-8.4,1-9.2-3.5
									c-4.3,1.6-7.6-0.9-7.6-6.2c2.8-0.4,9.7-12.3,9.3-16.1c4.6-2.6,8.4-1,9.2,3.5c4.3-1.6,7.6,0.9,7.6,6.2
									C395.2,213.6,391.1,220.8,385.9,223.8z"/>
							</g>
						</g>
						<g id="XMLID_16343_">
							<g id="XMLID_16345_">
								<path class="st5" d="M398.8,190.4c-0.1,0-0.1-0.1-0.2-0.1c-3.3-1.9-7.8-1.6-12.7,1.2c-7.4,4.3-13.8,13.2-16.8,22.6
									c-1.2,3.7-1.9,7.5-1.9,11.1v2.9c0,9.8,11.1,21.1,16.1,25.8c0.1,0.1,0.2,0.2,0.4,0.3c0,0,0,0,0,0c1.2,0.8,2.9,0.3,3.6-1
									c4.4-9,17.2-36.1,17.2-46.6v-2.9C404.6,197.2,402.4,192.6,398.8,190.4z M376.8,220.3c-0.1-0.6-0.2-1.2-0.2-1.9
									c0-5.9,4.2-13.2,9.3-16.1c0.6-0.3,1.1-0.6,1.7-0.8c4.3-1.6,7.6,0.9,7.6,6.2c0,5.9-4.2,13.2-9.3,16.1
									C381.4,226.4,377.6,224.8,376.8,220.3z"/>
							</g>
							<g id="XMLID_16344_">
								<path class="st11" d="M389,199.1c-0.7,0.2-1.4,0.6-2.1,1c-6.2,3.6-11.3,12.3-11.3,19.5c0,0.8,0.1,1.6,0.2,2.3
									c1,5.5,5.5,7.4,11.1,4.2c6.2-3.6,11.3-12.3,11.3-19.5C398.2,200.2,394.2,197.2,389,199.1z"/>
							</g>
						</g>
					</g>
				</g>
			</g>
			<g id="XMLID_16363_">
				<polygon class="st3" points="396.3,206.4 387.4,204 378.5,216.7 380.9,215.3 380.9,222.7 386,219.8 386,215.6 388.8,214 
					388.8,218.2 394,215.2 394,207.8 				"/>
			</g>
		</g>
		<g id="XMLID_16338_">
			<g id="XMLID_16340_">
				<g id="XMLID_16356_">
					<g id="XMLID_16357_">
						<g id="XMLID_16365_">
							<g id="XMLID_16370_">
								<path class="st11" d="M442.3,215.3c-0.1,0-0.1-0.1-0.2-0.1l-6.9-3.9c-1.5-1-3.4-1.6-5.4-1.6c-2.4,0-5.1,0.8-7.9,2.4
									c-10.3,5.9-18.6,21-18.6,33.7v2.9c0,12.7,17,26.4,17,26.4l6.9,3.9c0,0,0,0,0,0c-0.2-0.3-4.2-4.8-3.7-5.7
									c4.6-9.4,17-35.8,17-46.1v-2.9c0-2.3-0.3-4.4-0.8-6.2l0.8,0.5L442.3,215.3z M429.4,248.7c-4.6,2.6-8.4,1.1-9.2-3.5
									c-4.3,1.6-7.6-0.9-7.6-6.2c2.8-0.4,9.7-12.3,9.3-16.1c4.6-2.6,8.4-1.1,9.2,3.5c4.3-1.6,7.6,0.9,7.6,6.2
									C438.8,238.5,434.6,245.7,429.4,248.7z"/>
							</g>
						</g>
						<g id="XMLID_16358_">
							<g id="XMLID_16360_">
								<path class="st5" d="M442.3,215.3c-0.1,0-0.1-0.1-0.2-0.1c-3.3-1.9-7.8-1.6-12.7,1.2c-7.4,4.3-13.8,13.2-16.8,22.6
									c-1.2,3.7-1.9,7.5-1.9,11.1v2.9c0,9.8,11.1,21.1,16.1,25.8c0.1,0.1,0.2,0.2,0.4,0.3c0,0,0,0,0,0c1.2,0.8,2.9,0.3,3.6-1
									c4.4-9,17.2-36.1,17.2-46.6v-2.9C448.1,222.1,445.9,217.5,442.3,215.3z M420.3,245.2c-0.1-0.6-0.2-1.2-0.2-1.9
									c0-5.9,4.2-13.2,9.3-16.1c0.6-0.3,1.1-0.6,1.7-0.8c4.3-1.6,7.6,0.9,7.6,6.2c0,5.9-4.2,13.2-9.3,16.1
									C424.9,251.3,421.1,249.7,420.3,245.2z"/>
							</g>
							<g id="XMLID_16359_">
								<path class="st11" d="M432.5,223.9c-0.7,0.2-1.4,0.6-2.1,1c-6.2,3.6-11.3,12.3-11.3,19.5c0,0.8,0.1,1.6,0.2,2.3
									c1,5.5,5.5,7.4,11.1,4.2c6.2-3.6,11.3-12.3,11.3-19.5C441.7,225,437.7,222,432.5,223.9z"/>
							</g>
						</g>
					</g>
				</g>
			</g>
			<g id="XMLID_16375_">
				<path class="st3" d="M430.4,229.6c2.1-1.2,3.9-0.2,3.9,2.2c0,2.5-1.7,5.5-3.9,6.7c-2.1,1.2-3.9,0.2-3.9-2.2
					C426.5,233.8,428.2,230.8,430.4,229.6z"/>
			</g>
			<g id="XMLID_16378_">
				<path class="st3" d="M423,252c2,0.9,4.6,0.6,7.4-1.1c2.9-1.6,5.4-4.4,7.4-7.5v-0.6c0-4-2.8-5.7-6.3-3.7l-2.2,1.3
					c-3.5,2-6.3,6.9-6.3,11V252z"/>
			</g>
		</g>
	</g>
</g>
<g id="Character">
	<g id="XMLID_16491_">
		<g id="XMLID_16431_">
			<g id="XMLID_16433_">
				<path class="st11" d="M89.6,156.1c-6.9,0.3-11.8,2-16.8,7c-3.7,3.7-11.5,25-8.1,42.3c2.6,13.3,16.9,20.2,28.9,14
					c9.5-4.8,11.3-19.8,11.1-28.6C104.3,182.1,89.6,156.1,89.6,156.1z"/>
			</g>
			<g id="XMLID_16432_">
				<path class="st6" d="M80.9,162.5c0,0-1.9-2.5-6.2-1.1c0,0-4.6,5.5-8.1,16c0,0-1.1,0-0.4-3c0.7-2.9,3.6-10,5.5-12.5
					c1.9-2.5,4.5-4.5,17-9.1c11-4,7.5,6,7.5,6L80.9,162.5z"/>
			</g>
		</g>
		<g id="XMLID_16423_">
			<g id="XMLID_16421_">
				<g id="XMLID_16462_">
					<path class="st11" d="M59.6,304.8c-1.5-0.8-2.4,1.1-3.7,2.6c-0.9,1-2.4,2.7-2.6,3.9c-0.3,1.8,1.3,4.6,3,6.1
						c1.8,1.5,3.8,2.6,4.5,6c0.6,3.4,1.9,5.4,5.4,6.9c3.8,1.6,8.9,1.1,10.7,0c2.1-1.3,0.2-2.8-2.7-6.9c-3.8-5.4-6.7-9.2-6.7-14.2
						L59.6,304.8z"/>
				</g>
				<g id="XMLID_16461_">
					<path class="st12" d="M62.6,300.4l-3.1,4.5c-1.3,2-0.9,4.7,1,6c0,0,0.1,0,0.1,0.1c1.9,1.2,4.4,0.7,5.9-0.9l4.8-5.3L62.6,300.4z
						"/>
				</g>
				<g id="XMLID_16460_">
					<path class="st6" d="M120.1,213.4c0.2,5.8-0.8,27.8-5,38.9c-3.9,10.3-7.5,15.9-8.8,18c-1.3,2.1-37.4,37.3-37.4,37.3
						s-6.1-0.4-7.1-6.4c0,0,14.8-25.2,18-30.3c3.2-5.2,14.6-13.1,14.6-13.1l-1-48.4L120.1,213.4z"/>
				</g>
				<g id="XMLID_16459_">
					
						<rect x="110" y="322.8" transform="matrix(-0.9751 0.2217 -0.2217 -0.9751 297.7969 623.6653)" class="st12" width="7.8" height="11.4"/>
				</g>
				<g id="XMLID_16458_">
					<path class="st6" d="M105.4,232.1c0,0,3-2.5,7-8c5.8-8.1,4.9-15.2,4.9-15.2h-2.4l-35.2,4.6c-0.6,3.3-1.3,8.8,0.4,17.3
						c3.1,15.6,15.6,42.2,15.6,42.2c-0.2,2.2-1.1,11.2,1,19.2c3.2,12.7,12.1,34.1,12.1,34.1s5.5,0.8,8.3-2.4c0,0-4.9-43.5-6.2-54.6
						C109.5,257.1,105.4,232.1,105.4,232.1z"/>
				</g>
				<g id="XMLID_16456_">
					<path class="st11" d="M118.1,329.5l-0.2-1.1c0.8,0.2,4.2,5.8,7.6,8.3c3.7,2.7,7,4.3,8.6,5.5c2.2,1.6-1,5-6.5,5.3
						c-2.4,0.1-5.3-0.2-7.5-1.3c-2.4-1.1-3.8-3.3-5.7-5.1c-1.3-1.3-3.3-2.3-4.4-3.9c-0.5-0.7-0.5-2.5-0.5-4.1c0-1.4,0.1-3,0.6-3
						c0,0.2,0.2,0.8,0.2,0.8c0.7,0.5,2.9,1.1,4.6,1C116.4,331.9,118.8,331.6,118.1,329.5z"/>
				</g>
				<g id="XMLID_16455_">
					<path class="st11" d="M109.9,261.8c0,0-3.7-26.2-4.6-29.7c0,0,6.5-2.5,8.5-4.7c0,0-1.4,3.2-6.1,6L109.9,261.8z"/>
				</g>
				<g id="XMLID_16424_">
					<path class="st11" d="M95.8,272.9c-1.6-2.2-5.5-11.9-5.5-11.9l4,12.6c-1,3.8-0.9,10-0.9,10l2.1-1.8
						C95.4,280.4,95.8,272.9,95.8,272.9z"/>
				</g>
				<g id="XMLID_16453_">
					<path class="st6" d="M85.5,257.1"/>
				</g>
			</g>
			<g id="XMLID_15745_">
				<g id="XMLID_16425_">
					<path class="st12" d="M116.2,202.5c-5.1-17.1-4-31.6-5-36.1l13.1,18.5c0,0,0.9,10.6,2.6,18.1c1.5,6.6,3.5,14.7,6,19.8
						c0.4,0.9,1.2,1.6,2.1,2c2.5,1,3.6,2.3,5.6,3.8c1.6,1.2,2.7,1.3,2.6,1.8c-0.1,0.6-0.9,1.7-2.6,1.5c-0.9-0.1-2-0.6-3.5-1.2
						c0,0,1.4,2.6,4.2,5.1c3.8,3.3,4.3,5.7-2,6.8c-4,0.7-7.6-1.2-12.1-9.5c-1.3-2.4-3.3-6.1-4.5-9.4
						C120,215.2,117.7,207.7,116.2,202.5z"/>
				</g>
				<g id="XMLID_16418_">
					<path class="st3" d="M106.7,158.8c6.2,0.1,12.3,1.4,14.3,8c2,6.4,4.7,25,4.7,25s-2.6,3.4-11.3,2.9L106.7,158.8z"/>
				</g>
				<g>
					<g id="XMLID_16_">
						<path class="st3" d="M106.7,158.8c6.2,0.1,12.3,1.4,14.3,8c2,6.4,4.7,25,4.7,25s-2.6,3.4-11.3,2.9L106.7,158.8z"/>
					</g>
					<g id="XMLID_17_" class="st13">
						<path d="M106.7,158.8c6.2,0.1,12.3,1.4,14.3,8c2,6.4,4.7,25,4.7,25s-2.6,3.4-11.3,2.9L106.7,158.8z"/>
					</g>
				</g>
				<g id="XMLID_16416_">
					<path class="st3" d="M94.1,159.1c-4.3,1-9.4,1.9-13.5,4c-2.9,1.4,1.3,25.6,1.3,25.6l-2,24.7c5.8,6.3,27.8,9.2,40.4,0
						c0,0,0-33.6,0-40c0-6.4-3.6-14.1-13.4-14.6L94.1,159.1z"/>
				</g>
				<g id="XMLID_16415_">
					<polygon class="st3" points="81.8,188.2 85.6,177.7 81.1,196.6 					"/>
					<polygon class="st10" points="81.8,188.2 85.6,177.7 81.1,196.6 					"/>
				</g>
				<g id="XMLID_15829_">
					<g id="XMLID_16046_">
						<g id="XMLID_16414_">
							<path class="st11" d="M87.2,136.9l2.7,10.7c0.6,2.3,2.7,3.9,5,3.9h3.2v-15L87.2,136.9z"/>
						</g>
						<g id="XMLID_16413_">
							
								<ellipse transform="matrix(0.9925 -0.1225 0.1225 0.9925 -15.4669 14.3659)" class="st11" cx="109.1" cy="132.9" rx="11.5" ry="11.5"/>
						</g>
						<g id="XMLID_16412_">
							<path class="st11" d="M91.3,126.4c0,0-2-0.3-3.6,1.3c-1.6,1.6-1.2,4.5,0,11.3l4.8,0.6L91.3,126.4z"/>
						</g>
						<g id="XMLID_16411_">
							<path class="st12" d="M93.6,139.5c-0.7,0.4-1.7-0.9-2.6-1.9c-0.9-0.9-3.8-2.2-5.2,0.8c-1.5,3.1,0.8,7.1,3,8
								c3.1,1.3,4.4-1.4,4.4-1.4l0.9,14c0,0,2.6,6.2,9.5,7.2c6.9,0.9,5.5-4.8,3.2-7.6l0-4.3c0,0,3.5,0.6,5.3,0.3
								c2.5-0.5,3.8-2.8,4.9-5.8c1.8-4.5,2.9-10.8,1.3-18.8c-2-10.6-13.8-10.9-20.5-6.6C91,127.8,93.6,139.5,93.6,139.5z"/>
						</g>
						<g id="XMLID_16410_">
							<path class="st11" d="M93.6,140.7c-0.4,0-1.7-2.3-2.6-3.1c-1.2-1.1,0.4-11.3,0.4-11.3c0.6-8.3,12.9-8.9,16.3-9.2
								c7.8-0.6,13,3.7,10.9,9.2c-1.4,2.5-4.3,3.1-7,3.5c-4.6,0.6-12.3-1.9-13.3-2c-1.3-0.2-1.6,1.1-2.3,4.6
								C95.3,135.5,94.8,140.7,93.6,140.7z"/>
						</g>
						<g id="XMLID_16409_">
							<path class="st11" d="M91.3,127.2l-4.3-2.3c0.6-1.2,2.1-1.7,3.3-1.1C91.4,124.4,91.9,126,91.3,127.2z"/>
						</g>
						<g id="XMLID_16049_">
							<path class="st14" d="M106.7,154.5c0,0-6.4-1.3-8.6-2.5c-1.5-0.8-2.7-2.2-3.1-3.1c0,0,0.4,1.9,1.8,3.6c1.6,2.1,10,3.6,10,3.6
								V154.5z"/>
						</g>
					</g>
					<g id="XMLID_15830_">
						<g id="XMLID_16045_">
							<path class="st11" d="M106.9,139.3c0,0.7-0.6,1.3-1.3,1.3c-0.7,0-1.3-0.6-1.3-1.3c0-0.7,0.6-1.3,1.3-1.3
								C106.4,138,106.9,138.6,106.9,139.3z"/>
						</g>
						<g id="XMLID_16042_">
							<path class="st11" d="M105.6,134.5l-2.7,1.5c-0.4-0.8-0.1-1.8,0.6-2.2C104.2,133.4,105.2,133.7,105.6,134.5z"/>
						</g>
						<g id="XMLID_16034_">
							<path class="st14" d="M106.1,147.9l2.9,1.1c-0.3,0.8-1.2,1.3-2,1C106.3,149.6,105.9,148.7,106.1,147.9z"/>
						</g>
						<g id="XMLID_16032_">
							<path class="st11" d="M117.7,135.5l-2.5-1.9c0.5-0.7,1.5-0.9,2.2-0.3C118.1,133.8,118.2,134.8,117.7,135.5z"/>
						</g>
						<g id="XMLID_16030_">
							<path class="st11" d="M116.9,138.6c0,0.7-0.6,1.3-1.3,1.3c-0.7,0-1.3-0.6-1.3-1.3c0-0.7,0.6-1.3,1.3-1.3
								C116.4,137.2,116.9,137.8,116.9,138.6z"/>
						</g>
						<g id="XMLID_16029_">
							<polygon class="st14" points="111.6,138.8 110.3,146.4 114.6,145.9 							"/>
						</g>
					</g>
				</g>
				<g id="XMLID_15787_">
					<path class="st6" d="M84.6,260.7"/>
				</g>
			</g>
		</g>
		<g id="XMLID_16430_">
			<path class="st6" d="M89.8,158.9c0,0,9.7,4.3,10.7,19.2c2.2,31.2-21.3,38.3-21.3,38.3c-2-3.9-0.4-9.2,1.3-13
				c0,0,12.4-7.2,11.7-23.1c-0.5-11.4-6.2-17.7-9-18.6C83.2,161.7,85.9,159.7,89.8,158.9z"/>
		</g>
		<g id="XMLID_16427_">
			<path class="st12" d="M71.6,217.3c4.2-1.5,5.2-2,10.5-6.3c5.4-4.3,9.8-9.9,14-15.6c0.5-0.7,1.1-1.3,1.7-1.8
				c0.6-0.6,1.8-1.6,2.9-3.2c1.9-2.8,1.9-4.6,2.1-8c0.2-3.4-0.4-6.7-1.4-10c-0.1-0.3-0.2-0.7-0.5-1c-0.2-0.3-0.6-0.5-1-0.4
				c-0.3,0.1-0.5,0.4-0.7,0.6c-1.2,1.8-2,3.8-3.2,5.6c-0.5,0.8-0.9,1.2-1.4,2c-0.1,0.1-1,1.1-1.2,0.6c-0.2-0.5,0.4-1.7,0.2-3.8
				c-0.2-2-0.8-2.9-1.4-3c-1-0.3-1,0.9-1.5,2.6c-0.5,2-1.3,3.7-1.2,6.6c0.1,2.6-0.3,3.7-0.9,6c-0.6,2.3-3.2,7.5-9.6,11.4
				c-1.4,0.9-1.9,1-1-2.4c2.1-8.9,4-13.9,6.1-18.5c2.6-5.9,4.4-10.4,2-12.7c-4.1-4.1-9.9-1.8-13.2,5.2c-3.7,8.1-5.8,14.2-7.3,29
				C65,206.7,64.4,219.8,71.6,217.3z"/>
		</g>
		<g id="XMLID_16426_">
			<path class="st3" d="M83.7,161.9c-4.9,0.2-8.1,2.2-11.4,8.6c-3.2,6.3-5.7,17.5-5.7,17.5s4.6,4.9,13.5,4.6c0,0,5.6-14.7,6.7-18.6
				C87.9,169.7,86.9,163.4,83.7,161.9z"/>
		</g>
	</g>
</g>
</svg>
