<?xml version="1.0" encoding="utf-8"?>
<!-- Generator: Adobe Illustrator 23.0.5, SVG Export Plug-In . SVG Version: 6.00 Build 0)  -->
<svg version="1.1" xmlns="http://www.w3.org/2000/svg" xmlns:xlink="http://www.w3.org/1999/xlink" x="0px" y="0px"
	 viewBox="0 0 800 800" style="enable-background:new 0 0 800 800;" xml:space="preserve">
<style type="text/css">
	.st0{fill:none;stroke:#FF9800;stroke-width:4;stroke-miterlimit:10;}
	.st1{fill:none;stroke:#AB47BC;stroke-width:4;stroke-miterlimit:10;}
	.st2{display:none;}
	.st3{display:inline;fill:none;stroke:#EC407A;stroke-width:8.1103;stroke-miterlimit:10;}
	.st4{display:inline;fill:none;stroke:#00C853;stroke-width:5.6177;stroke-miterlimit:10;}
	.st5{display:inline;fill:none;stroke:#00BCD4;stroke-width:4;stroke-miterlimit:10;}
	.st6{display:inline;fill:none;stroke:#AB47BC;stroke-width:9.462;stroke-miterlimit:10;}
	.st7{display:inline;fill:none;stroke:#FF9800;stroke-width:3;stroke-miterlimit:10;}
	.st8{clip-path:url(#SVGID_2_);}
	.st9{opacity:0.4;fill:#FFFFFF;}
	.st10{fill:#FFFFFF;}
	.st11{fill:#FF9800;}
	.st12{fill:#AB47BC;}
	.st13{fill:#00BCD4;}
	.st14{opacity:0.3;}
	.st15{fill:#EC407A;}
	.st16{fill:#61C600;}
	.st17{fill:none;stroke:#61C600;stroke-width:9;stroke-miterlimit:10;}
	.st18{fill:none;stroke:#AB47BC;stroke-width:7;stroke-miterlimit:10;}
	.st19{fill:none;stroke:#00BCD4;stroke-width:5.195;stroke-miterlimit:10;}
	.st20{fill:none;stroke:#EC407A;stroke-width:12;stroke-miterlimit:10;}
	.st21{fill:none;stroke:#00BCD4;stroke-width:10;stroke-miterlimit:10;}
	.st22{fill:none;stroke:#61C600;stroke-width:4.156;stroke-miterlimit:10;}
	.st23{fill:none;stroke:#EC407A;stroke-width:2;stroke-miterlimit:10;}
	.st24{fill:none;stroke:#FF9800;stroke-width:12;stroke-miterlimit:10;}
	.st25{fill:none;stroke:#00BCD4;stroke-width:4;stroke-miterlimit:10;}
	.st26{fill:none;stroke:#61C600;stroke-width:4;stroke-miterlimit:10;}
	.st27{opacity:0.4;fill:#BDBDBD;}
	.st28{opacity:0.8;fill:#FFFFFF;}
	.st29{opacity:0.9;fill:#FFFFFF;}
	.st30{opacity:0.6;fill:#FFFFFF;}
	.st31{opacity:0.5;fill:#FFFFFF;}
	.st32{opacity:0.3;fill:#FFFFFF;}
	.st33{opacity:0.2;fill:#FFFFFF;}
</style>
<g id="background">
	<path class="st0" d="M401.9,351.5h58.7c10,0,18.1-8.1,18.1-18.1V295"/>
	<line class="st1" x1="593.8" y1="336.8" x2="571.2" y2="354.9"/>
	<line class="st0" x1="690.3" y1="505" x2="656.7" y2="537.7"/>
</g>
<g id="objects">
	<g>
		<g>
			<g class="st2">
				<line class="st3" x1="0" y1="42" x2="192.2" y2="42"/>
				<line class="st4" x1="0" y1="52" x2="192.2" y2="52"/>
				<line class="st5" x1="0" y1="61" x2="192.2" y2="61"/>
				<line class="st6" x1="0" y1="72" x2="192.2" y2="72"/>
				<line class="st7" x1="0" y1="83" x2="192.2" y2="83"/>
			</g>
			<g class="st2">
				<line class="st3" x1="607.8" y1="42" x2="800" y2="42"/>
				<line class="st4" x1="607.8" y1="52" x2="800" y2="52"/>
				<line class="st5" x1="607.8" y1="61" x2="800" y2="61"/>
				<line class="st6" x1="607.8" y1="72" x2="800" y2="72"/>
				<line class="st7" x1="607.8" y1="83" x2="800" y2="83"/>
			</g>
		</g>
	</g>
	<g>
		<defs>
			<rect id="SVGID_1_" width="800" height="800"/>
		</defs>
		<clipPath id="SVGID_2_">
			<use xlink:href="#SVGID_1_"  style="overflow:visible;"/>
		</clipPath>
		<g class="st8">
			<rect class="st9" width="800" height="8.3"/>
			<circle class="st10" cx="139.1" cy="373.3" r="35"/>
			<circle class="st11" cx="401.1" cy="206.6" r="77"/>
			<circle class="st12" cx="571.2" cy="255.2" r="47.5"/>
			
				<ellipse transform="matrix(0.9196 -0.3928 0.3928 0.9196 -163.4274 272.3887)" class="st13" cx="583.9" cy="535.5" rx="42.5" ry="42.5"/>
			<g class="st14">
				<path class="st10" d="M583.9,493c-23.5,0-42.5,19-42.5,42.5c0,5.3,1,10.3,2.7,14.9l63.5-50.2C600.8,495.7,592.7,493,583.9,493z"
					/>
			</g>
			<g class="st14">
				<path class="st10" d="M571.2,207.7c-26.2,0-47.5,21.3-47.5,47.5c0,5.9,1.1,11.5,3,16.7l71-56.1
					C590.1,210.7,581,207.7,571.2,207.7z"/>
			</g>
			<circle class="st13" cx="240.6" cy="299.7" r="54"/>
			<g class="st14">
				<path class="st10" d="M240.6,245.7c-29.8,0-54,24.2-54,54c0,6.7,1.2,13.1,3.4,19l80.7-63.8C262.1,249.1,251.7,245.7,240.6,245.7
					z"/>
			</g>
			<circle class="st11" cx="656.7" cy="390.4" r="42.5"/>
			<g class="st14">
				<path class="st10" d="M656.7,347.9c-23.5,0-42.5,19-42.5,42.5c0,5.3,1,10.3,2.7,14.9l63.5-50.2
					C673.6,350.5,665.4,347.9,656.7,347.9z"/>
			</g>
			<circle class="st15" cx="313.1" cy="392.7" r="35"/>
			<g class="st14">
				<path class="st10" d="M313.1,357.7c-19.3,0-35,15.7-35,35c0,4.3,0.8,8.5,2.2,12.3l52.3-41.4C327,359.9,320.3,357.7,313.1,357.7z
					"/>
			</g>
			<circle class="st16" cx="503.1" cy="450" r="35"/>
			<g class="st14">
				<path class="st10" d="M503.1,415c-19.3,0-35,15.7-35,35c0,4.3,0.8,8.5,2.2,12.3l52.3-41.4C517.1,417.2,510.4,415,503.1,415z"/>
			</g>
			<circle class="st16" cx="186.2" cy="538.2" r="40.5"/>
			<g class="st14">
				<path class="st10" d="M186.2,497.7c-22.4,0-40.5,18.1-40.5,40.5c0,5,0.9,9.8,2.6,14.2l60.5-47.8
					C202.4,500.3,194.6,497.7,186.2,497.7z"/>
			</g>
			<circle class="st15" cx="264.2" cy="584.6" r="25.5"/>
			<g class="st14">
				<path class="st10" d="M264.2,559.1c-14.1,0-25.5,11.4-25.5,25.5c0,3.2,0.6,6.2,1.6,9l38.1-30.1
					C274.4,560.7,269.5,559.1,264.2,559.1z"/>
			</g>
			<g class="st14">
				<path class="st10" d="M401.1,129.6c-42.5,0-77,34.5-77,77c0,9.5,1.7,18.6,4.9,27.1l115-91C431.7,134.5,417,129.6,401.1,129.6z"
					/>
			</g>
			<path class="st12" d="M139.1,338.3c-19.3,0-35,15.7-35,35c0,19.3,15.7,35,35,35c19.3,0,35-15.7,35-35
				C174.1,354,158.4,338.3,139.1,338.3z M148.6,386.8c-1.7,1.9-4.2,3.1-7.5,3.4v5h-2.1H137v-4.9c-5.4-0.6-8.8-3.7-10.1-9.5l6.4-1.7
				c0.6,3.5,2.5,5.3,5.7,5.4c0.1,0,0.1,0,0.2,0c1.6,0,2.7-0.4,3.4-1.2c0.7-0.8,1.1-1.7,1.1-2.8c0-1.1-0.4-2-1.1-2.6
				c-0.6-0.5-1.8-1.1-3.6-1.8c-0.4-0.2-0.8-0.3-1.3-0.5c-2.3-0.8-4.1-1.6-5.3-2.3c-1.3-0.8-2.3-1.8-3.1-3.2c-0.8-1.4-1.2-3-1.2-4.9
				c0-2.4,0.7-4.6,2.1-6.5c1.4-1.9,3.7-3.1,6.7-3.6v-3.8h2.1h2.1v3.8c4.6,0.6,7.6,3.2,9,7.9l-5.7,2.3c-1.1-3.2-2.8-4.8-5.2-4.8
				c-0.1,0-0.1,0-0.2,0c-1.1,0-1.9,0.4-2.6,1.1c-0.7,0.7-1.1,1.6-1.1,2.6c0,1,0.3,1.8,1,2.4c0.5,0.4,1.4,0.9,2.6,1.4
				c0.5,0.2,1.1,0.4,1.7,0.7c2.5,0.9,4.4,1.7,5.8,2.5c1.4,0.8,2.5,1.9,3.4,3.3c0.8,1.4,1.3,3.1,1.3,4.9
				C151.2,382.5,150.4,384.9,148.6,386.8z"/>
			<g class="st14">
				<path class="st10" d="M138.8,339c-19.3,0-35,15.7-35,35c0,4.3,0.8,8.5,2.2,12.3l52.3-41.4C152.7,341.2,146,339,138.8,339z"/>
			</g>
			<g>
				<g>
					<g>
						<path class="st10" d="M582.2,524.7h-18.3c-1.3,0-2.4,1.1-2.4,2.4v3.5c0,1.3,1.1,2.4,2.4,2.4h18.3V524.7z"/>
					</g>
					<g>
						<path class="st10" d="M584.1,524.7v8.3h18.3c1.3,0,2.4-1.1,2.4-2.4v-3.5c0-1.3-1.1-2.4-2.4-2.4H584.1z"/>
					</g>
					<g>
						<path class="st10" d="M582.2,534.9h-16.7v17.4c0,1.3,1.1,2.4,2.4,2.4h14.2V534.9z"/>
					</g>
					<g>
						<path class="st10" d="M584.1,534.9v19.9h14.2c1.3,0,2.4-1.1,2.4-2.4v-17.4H584.1z"/>
					</g>
				</g>
				<g>
					<g>
						<path class="st10" d="M589.2,517.2c-3,0-5.5,5.6-5.5,5.6h10C593.8,519.7,592.2,517.2,589.2,517.2z"/>
					</g>
					<g>
						<path class="st10" d="M577.1,517.2c-3,0-4.5,2.5-4.5,5.6h10C582.6,522.8,580.1,517.2,577.1,517.2z"/>
					</g>
				</g>
			</g>
			<g>
				<g>
					<path class="st10" d="M502.4,471.3c10.7,0,19.4-8.7,19.4-19.4c0-3.3-0.8-6.4-2.3-9.1c-0.2,0-0.3,0-0.5,0c-0.1,0-0.2,0-0.3,0
						l-2.5-0.2l-1.8,1.8c1.4,2.2,2.1,4.8,2.1,7.5c0,7.9-6.4,14.3-14.3,14.3s-14.3-6.4-14.3-14.3c0-7.9,6.4-14.3,14.3-14.3
						c2.8,0,5.3,0.8,7.5,2.1l1.6-1.6l-0.2-2.8c0-0.2,0-0.5,0-0.7c-2.7-1.4-5.7-2.2-8.9-2.2c-10.7,0-19.4,8.7-19.4,19.4
						C483,462.6,491.7,471.3,502.4,471.3L502.4,471.3z M502.4,471.3"/>
					<path class="st10" d="M502.4,446.8c0.1,0,0.3,0,0.4,0l3.6-3.6l0.1-0.1c-1.2-0.6-2.6-0.9-4-0.9c-5.3,0-9.6,4.3-9.6,9.6
						c0,5.3,4.3,9.6,9.6,9.6c5.3,0,9.6-4.3,9.6-9.6c0-1.4-0.3-2.8-0.9-4l-0.1,0.1l-3.6,3.6c0,0.1,0,0.3,0,0.4c0,2.8-2.2,5-5,5
						c-2.8,0-5-2.3-5-5C497.4,449.1,499.6,446.8,502.4,446.8L502.4,446.8z M502.4,446.8"/>
					<path class="st10" d="M522.5,434.2l1.1-1.1c0.5-0.5,0.5-1.3,0-1.7l-0.7-0.7c-0.2-0.2-0.6-0.4-0.9-0.4c-0.3,0-0.6,0.1-0.9,0.4
						l-1.2,1.2l-0.2-3.2c0-0.2-0.2-0.4-0.4-0.4c-0.1,0-0.2,0-0.3,0.1l-4.7,4.7c-0.4,0.4-0.6,1-0.6,1.6l0,0.2l0.2,3l-1.7,1.7
						l-3.1,3.1l-0.1,0.1l-3,3l-1.3,1.3c-0.2,0.2-0.3,0.4-0.3,0.7l-0.1,1c0,0.6,0.4,1.1,1,1.1h0.1l1.1-0.1c0.3,0,0.5-0.1,0.7-0.3
						l9.3-9.3l2.7,0.2l0.1,0c0.1,0,0.1,0,0.2,0c0.5,0,1.1-0.2,1.5-0.6l4.7-4.7c0.2-0.2,0.1-0.7-0.3-0.7L522.5,434.2z M522.5,434.2"
						/>
				</g>
			</g>
			<g>
				<path class="st10" d="M592,235.1c-2.6-2.6-6.6-3-9.6-1.1c-0.8,0.5-0.9,1.5-0.3,2.1l8.8,8.8c0.6,0.6,1.7,0.5,2.1-0.3
					C595,241.7,594.6,237.7,592,235.1z"/>
				<path class="st10" d="M587.3,267.5c2.4-3.3,3.8-7.3,3.8-11.6c0-11-9-20-20-20c-0.1,0-0.1,0-0.2,0c-10.9,0.1-19.7,9-19.7,20
					c0,4.1,1.2,7.9,3.3,11l-3.4,6.8c-0.7,1.3-0.1,2.9,1.2,3.6c0.4,0.2,0.8,0.3,1.2,0.3c1,0,1.9-0.5,2.4-1.5l2.5-4.9
					c3.4,2.9,7.8,4.6,12.6,4.6c0.1,0,0.1,0,0.2,0c4.6,0,8.9-1.6,12.2-4.2l2.3,4.5c0.5,0.9,1.4,1.5,2.4,1.5c0.4,0,0.8-0.1,1.2-0.3
					c1.3-0.7,1.9-2.3,1.2-3.6L587.3,267.5z M571.1,270.4c-0.1,0-0.1,0-0.2,0c-7.9-0.1-14.4-6.6-14.4-14.6c0-8,6.4-14.5,14.4-14.6
					c0.1,0,0.1,0,0.2,0c8,0,14.6,6.5,14.6,14.6C585.7,263.9,579.1,270.4,571.1,270.4z"/>
				<path class="st10" d="M571.1,248.4c-0.1,0-0.1,0-0.2,0c-0.7,0.1-1.3,0.7-1.3,1.5v5.8l-6.2,7.3c-0.5,0.6-0.5,1.6,0.2,2.2
					c0.3,0.2,0.6,0.4,1,0.4c0.4,0,0.9-0.2,1.2-0.5l5.2-6.1l1.2-1.4c0.3-0.3,0.6-0.7,0.6-1.2V250
					C572.6,249.1,571.9,248.4,571.1,248.4z"/>
				<path class="st10" d="M550.3,235.1c-2.6,2.6-3,6.7-1,9.7c0.5,0.7,1.5,0.7,2.1,0.2l8.8-8.8c0.6-0.6,0.5-1.7-0.3-2.1
					C556.9,232.1,552.9,232.5,550.3,235.1z"/>
			</g>
			<g>
				<g>
					<path class="st17" d="M186.2,576.8v71.4c0,11.3,9.1,20.4,20.4,20.4h131.1c11.3,0,20.4,9.1,20.4,20.4V752"/>
				</g>
				<g>
					<path class="st0" d="M656.7,424.7v144.5c0,16.5-13.4,29.9-29.9,29.9h-274c-16.5,0-29.9,13.4-29.9,29.9V752"/>
				</g>
				<g>
					<path class="st18" d="M571.2,286.3v68.7c0,16.6-13.5,30.1-30.1,30.1h-69.8c-18.6,0-33.7,15.1-33.7,33.7V752"/>
				</g>
				<path class="st19" d="M470.9,752"/>
				<g>
					<path class="st1" d="M138.9,407.1v25.8c0,11,8.9,19.9,19.9,19.9h194c11,0,19.9,8.9,19.9,19.9V752"/>
				</g>
				<g>
					<path class="st20" d="M313.6,423.7v112.1c0,7.2,5.8,13,13,13l0,0c7.2,0,13,5.8,13,13V752"/>
				</g>
				<g>
					<path class="st19" d="M240.6,328.8v146.6c0,10.6,8.6,19.2,19.2,19.2h192c10.6,0,19.2,8.6,19.2,19.2V752"/>
				</g>
				<g>
					<path class="st21" d="M583.9,573.2v45c0,19.4-15.7,35.1-35.1,35.1h-92.9c-19.4,0-35.1,15.7-35.1,35.1V752"/>
				</g>
				<g>
					<path class="st22" d="M503.1,483.6v52.8c0,7.8-6.3,14.1-14.1,14.1h-20.6c-7.8,0-14.1,6.3-14.1,14.1V752"/>
				</g>
				<g>
					<path class="st23" d="M264.2,607.5v14.9c0,9.7,7.9,17.6,17.6,17.6l87.2-0.4c9.7,0,17.6,7.8,17.6,17.6V752"/>
				</g>
				<g>
					<line class="st24" x1="401.4" y1="269.7" x2="401.4" y2="752"/>
				</g>
			</g>
			<path class="st10" d="M213.2,300.6c1.6,1.6,7.4-1.2,9.3-0.4c2,0.8,4.1,1.2,6.1,1.2c2.1,0,4.2-0.4,6.1-1.2s3.8-2,5.4-3.6
				c1.6-1.6,2.8-3.4,3.6-5.4s1.2-4.1,1.2-6.1c0-2.1-0.4-4.2-1.2-6.1c-0.8-2-2-3.8-3.6-5.4c-1.6-1.6-3.4-2.8-5.4-3.6
				c-2-0.8-4.1-1.2-6.1-1.2c-2.1,0-4.2,0.4-6.1,1.2c-2,0.8-3.8,2-5.4,3.6c-1.6,1.6-2.8,3.4-3.6,5.4c-0.8,2-1.2,4.1-1.2,6.1
				c0,2.1,0.4,4.2,1.2,6.1C214.3,293.2,211.6,299,213.2,300.6z M233.8,285c0-1.6,1.3-2.9,2.9-2.9c1.6,0,2.9,1.3,2.9,2.9
				c0,1.6-1.3,2.9-2.9,2.9C235.1,287.9,233.8,286.6,233.8,285z M225.7,285c0-1.6,1.3-2.9,2.9-2.9c1.6,0,2.9,1.3,2.9,2.9
				c0,1.6-1.3,2.9-2.9,2.9C227,287.9,225.7,286.6,225.7,285z M217.7,285c0-1.6,1.3-2.9,2.9-2.9c1.6,0,2.9,1.3,2.9,2.9
				c0,1.6-1.3,2.9-2.9,2.9C219,287.9,217.7,286.6,217.7,285z"/>
			<path class="st10" d="M264.5,318.1c1-2.4,1.5-5.1,1.5-7.7c0-2.6-0.5-5.2-1.5-7.7c-1-2.5-2.5-4.8-4.4-6.8c-2-2-4.3-3.5-6.7-4.5
				c-2-0.8-4-1.3-6.1-1.4c-0.2,0.8-0.4,1.5-0.7,2.2c-1,2.4-2.4,4.6-4.2,6.4c-1.8,1.9-4,3.3-6.4,4.3c-2.3,1-4.8,1.4-7.3,1.4h-0.1
				c-0.8,0-1.6-0.1-2.4-0.2c-0.6,1.9-0.9,4-0.9,6c0,2.6,0.5,5.2,1.5,7.7c1,2.5,2.5,4.8,4.4,6.8c2,2,4.3,3.5,6.7,4.5
				c2.4,1,5.1,1.5,7.7,1.5s5.2-0.5,7.7-1.5c2.5-1,9.7,2.5,11.7,0.5C266.9,327.8,263.5,320.5,264.5,318.1z M235.7,313.9
				c-2,0-3.6-1.6-3.6-3.6c0-2,1.6-3.6,3.6-3.6c2,0,3.6,1.6,3.6,3.6C239.3,312.3,237.6,313.9,235.7,313.9z M245.7,313.9
				c-2,0-3.6-1.6-3.6-3.6c0-2,1.6-3.6,3.6-3.6c2,0,3.6,1.6,3.6,3.6C249.3,312.3,247.7,313.9,245.7,313.9z M255.7,313.9
				c-2,0-3.6-1.6-3.6-3.6c0-2,1.6-3.6,3.6-3.6c2,0,3.6,1.6,3.6,3.6C259.3,312.3,257.7,313.9,255.7,313.9z"/>
			<g>
				<path class="st10" d="M657.7,374.5c-0.7-0.7-1.9-0.7-2.7,0l-13.9,14c-0.3,0.3-0.5,0.8-0.5,1.3v20.2c0,1,0.8,1.9,1.9,1.9h4.9
					c1,0,1.9-0.8,1.9-1.9v-8.2c0-1,0.8-1.9,1.9-1.9h10.5c1,0,1.9,0.8,1.9,1.9v8.2c0,1,0.8,1.9,1.9,1.9h4.9c1,0,1.9-0.8,1.9-1.9
					v-20.2c0-0.5-0.2-1-0.5-1.3L657.7,374.5z"/>
				<path class="st10" d="M678,387.8l-9.6-9.7v-9.4c0-0.7-0.6-1.3-1.3-1.3c-0.7,0-1.3,0.6-1.3,1.3v6.8l-8.4-8.5
					c-0.5-0.5-1.4-0.5-1.9,0l-20.1,20.3c-0.5,0.5-0.6,1.2-0.2,1.8c0.5,0.7,1.5,0.7,2,0.2l17.8-18c0.8-0.8,2-0.8,2.8,0l18.4,18.5
					c0.3,0.3,0.6,0.4,0.9,0.4c0.4,0,0.7-0.2,1-0.5C678.6,389.1,678.5,388.3,678,387.8z"/>
			</g>
			<g>
				<path class="st10" d="M193.4,540.3c0,3.9-3.2,7.1-7.1,7.1c-3.9,0-7.1-3.2-7.1-7.1c0-3.9,3.2-7.1,7.1-7.1
					C190.2,533.2,193.4,536.3,193.4,540.3z"/>
				<g>
					<path class="st10" d="M206.6,526.4h-11.5l-1.4-3.5c-0.5-1.1-1.9-2.2-3.1-2.2h-8.8c-1.2,0-2.6,1.1-3.1,2.2l-1.4,3.5h-11.5
						c-1.2,0-3.1,0.8-3.1,2v25c0,1.2,1.9,2.4,3.1,2.4h40.8c1.2,0,3.2-1.2,3.2-2.4v-25C209.8,527.2,207.8,526.4,206.6,526.4z
						 M186.3,551.3c-6.1,0-11-4.9-11-11c0-6.1,4.9-11,11-11c6.1,0,11,4.9,11,11C197.3,546.4,192.4,551.3,186.3,551.3z M203.3,535.1
						c-1.6,0-2.9-1.3-2.9-2.9s1.3-2.9,2.9-2.9c1.6,0,2.9,1.3,2.9,2.9S205,535.1,203.3,535.1z"/>
				</g>
			</g>
			<path class="st10" d="M424.9,159.7h-46.1c-2.7,0-4.9,2.2-4.9,4.9v86.3c0,2.7,2.2,4.9,4.9,4.9h46.1c2.7,0,4.9-2.2,4.9-4.9v-86.3
				C429.8,161.9,427.6,159.7,424.9,159.7z M383.4,165c0-1,0.8-1.8,1.8-1.8h33.4c1,0,1.8,0.8,1.8,1.8v1.3c0,1-0.8,1.8-1.8,1.8h-33.4
				c-1,0-1.8-0.8-1.8-1.8V165z M402.7,251.2c-2.9,0-5.3-2.3-5.3-5.3c0-2.9,2.4-5.3,5.3-5.3c2.9,0,5.3,2.4,5.3,5.3
				C407.9,248.9,405.6,251.2,402.7,251.2z M424.7,237H379v-65.2h45.6V237z"/>
			<path class="st10" d="M278.3,577c0,0-0.4,0.1-1,0.2c-0.6,0.1-1.3,0.3-2,0.6c-0.4-0.6-0.9-1.2-1.4-1.8c-0.5-0.6-1.1-1.1-1.7-1.5
				c0.3-0.7,0.6-1.4,0.7-1.9c0.2-0.6,0.3-0.9,0.3-0.9c0.1-0.2,0.1-0.4,0-0.6c-0.1-0.2-0.3-0.4-0.5-0.5c0,0-0.1,0-0.2-0.1
				c-0.1-0.1-0.3-0.2-0.5-0.3c-0.2-0.1-0.5-0.2-0.7-0.4c-0.3-0.1-0.6-0.2-0.9-0.4c-0.3-0.1-0.6-0.2-0.9-0.3
				c-0.3-0.1-0.6-0.2-0.8-0.2c-0.2-0.1-0.4-0.1-0.6-0.1c-0.1,0-0.1,0-0.2,0c0,0-0.1,0-0.1,0c-0.3-0.1-0.5,0-0.7,0
				c-0.2,0.1-0.4,0.2-0.4,0.4c0,0-0.2,0.4-0.4,0.9c-0.2,0.5-0.5,1.2-0.8,1.9c-1.5-0.2-3,0-4.5,0.3c-0.4-0.7-0.8-1.3-1.1-1.8
				c-0.3-0.5-0.6-0.8-0.6-0.8c-0.1-0.2-0.3-0.3-0.5-0.3c-0.1,0-0.2,0-0.3,0c-0.1,0-0.3,0-0.4,0.1c0,0-0.1,0-0.2,0.1
				c-0.1,0-0.3,0.1-0.5,0.2c-0.2,0.1-0.5,0.2-0.7,0.3c-0.1,0.1-0.3,0.1-0.4,0.2c-0.1,0.1-0.3,0.2-0.4,0.2c-0.6,0.3-1.1,0.7-1.5,1
				c-0.2,0.1-0.4,0.3-0.5,0.3c-0.1,0.1-0.2,0.1-0.2,0.1c-0.2,0.2-0.4,0.4-0.4,0.6c-0.1,0.2-0.1,0.4,0.1,0.6c0,0,0.2,0.4,0.4,0.9
				c0.3,0.5,0.6,1.2,1,1.8c-1.1,1.1-1.9,2.4-2.6,3.7c-0.7-0.1-1.5-0.2-2.1-0.3c-0.6-0.1-1-0.1-1-0.1c-0.2,0-0.4,0-0.6,0.2
				c-0.1,0.1-0.2,0.2-0.2,0.3c-0.1,0.1-0.1,0.2-0.2,0.4c0,0,0,0.1-0.1,0.2c0,0.1-0.1,0.3-0.2,0.6c0,0.1-0.1,0.2-0.1,0.4
				c0,0.1-0.1,0.3-0.1,0.4c0,0.1-0.1,0.3-0.1,0.5c0,0.2-0.1,0.3-0.1,0.5c-0.1,0.3-0.1,0.6-0.1,0.9c0,0.3,0,0.6-0.1,0.8
				c0,0.2,0,0.4,0,0.6c0,0.1,0,0.2,0,0.2c0,0.5,0.3,1,0.7,1c0,0,0.4,0.1,1,0.2c0.3,0.1,0.6,0.1,1,0.2c0.3,0.1,0.7,0.1,1.1,0.2
				c0.2,1.5,0.6,3,1.3,4.3c-0.3,0.2-0.5,0.5-0.8,0.7c-0.3,0.3-0.5,0.5-0.7,0.7c-0.4,0.4-0.7,0.7-0.7,0.7c-0.1,0.1-0.2,0.3-0.2,0.5
				c0,0.2,0.1,0.5,0.2,0.7c0,0,0.2,0.3,0.5,0.6c0.1,0.2,0.3,0.4,0.5,0.6c0.2,0.2,0.4,0.5,0.6,0.7c0.2,0.2,0.4,0.5,0.7,0.7
				c0.2,0.2,0.4,0.4,0.6,0.6c0.4,0.3,0.6,0.5,0.6,0.5c0.2,0.2,0.5,0.3,0.7,0.3c0.2,0,0.4,0,0.5-0.2c0,0,0.3-0.2,0.8-0.6
				c0.2-0.2,0.5-0.4,0.8-0.6c0.3-0.2,0.5-0.5,0.8-0.7c1.3,0.8,2.7,1.4,4.2,1.7c0,0.4,0,0.7,0.1,1.1c0,0.4,0.1,0.7,0.1,1
				c0.1,0.6,0.1,1,0.1,1c0,0.4,0.4,0.7,1,0.8c0,0,0.1,0,0.2,0c0.1,0,0.3,0,0.6,0c0.2,0,0.5,0,0.8,0c0.3,0,0.6,0,0.9,0
				c0.2,0,0.3,0,0.5,0c0.2,0,0.3,0,0.5-0.1c0.1,0,0.3,0,0.4-0.1c0.1,0,0.3,0,0.4-0.1c0.2,0,0.4-0.1,0.6-0.1c0.1,0,0.2,0,0.2,0
				c0.1,0,0.3-0.1,0.4-0.1c0.1-0.1,0.2-0.1,0.3-0.2c0.2-0.2,0.2-0.4,0.2-0.5c0,0,0-0.4,0-1c0-0.6,0-1.3-0.1-2.1
				c1.4-0.5,2.7-1.3,3.9-2.3c0.6,0.4,1.2,0.8,1.7,1.1c0.5,0.3,0.9,0.5,0.9,0.5c0.1,0.1,0.3,0.1,0.6,0.1c0.2,0,0.4-0.2,0.6-0.4
				c0,0,0.1-0.1,0.1-0.2c0.1-0.1,0.2-0.2,0.4-0.4c0.3-0.4,0.7-0.9,1.1-1.4c0.1-0.1,0.2-0.3,0.3-0.4c0.1-0.1,0.2-0.3,0.2-0.4
				c0.2-0.3,0.3-0.5,0.4-0.7c0.1-0.2,0.2-0.4,0.3-0.5c0.1-0.1,0.1-0.2,0.1-0.2c0.1-0.1,0.1-0.2,0.1-0.4c0-0.1,0-0.2,0-0.4
				c0-0.2-0.1-0.4-0.3-0.5c0,0-0.3-0.3-0.8-0.6c-0.5-0.4-1.1-0.8-1.7-1.2c0.5-1.4,0.7-3,0.7-4.5c0.7-0.2,1.4-0.4,2-0.6
				c0.6-0.2,0.9-0.4,0.9-0.4c0.2,0,0.3-0.2,0.4-0.4c0.1-0.2,0.1-0.5,0.1-0.7c0,0,0,0,0-0.1c0,0,0-0.1,0-0.2c0-0.1-0.1-0.3-0.1-0.6
				c0-0.2-0.1-0.5-0.2-0.8c-0.1-0.3-0.2-0.6-0.2-0.9c-0.1-0.3-0.2-0.6-0.3-0.9c-0.1-0.3-0.2-0.5-0.3-0.8c-0.1-0.2-0.2-0.4-0.2-0.5
				c-0.1-0.1-0.1-0.2-0.1-0.2c-0.1-0.2-0.3-0.4-0.5-0.5C278.6,577,278.4,576.9,278.3,577z M270.2,591.7c-3.7,3.4-9.4,3.2-12.8-0.5
				c-3.4-3.7-3.2-9.4,0.5-12.8c3.7-3.4,9.4-3.2,12.8,0.5C274.1,582.6,273.9,588.4,270.2,591.7z"/>
			<g>
				<circle class="st10" cx="313.1" cy="380.8" r="10.4"/>
				<path class="st10" d="M322.8,389.3h-0.2c-2.3,2.7-5.7,4.4-9.6,4.4c-3.8,0-7.3-1.7-9.6-4.4h-0.2c-4.7,0-8.5,3.8-8.5,8.5v12.6h6.3
					v-7c0-0.5,0.4-0.9,0.9-0.9c0.5,0,0.9,0.4,0.9,0.9v7h20.3v-7c0-0.5,0.4-0.9,0.9-0.9c0.5,0,0.9,0.4,0.9,0.9v7h6.3v-12.6
					C331.4,393.1,327.5,389.3,322.8,389.3z"/>
			</g>
			<path class="st11" d="M477.7,304.7c0,0-19-5.3-14.8-20c4.2-14.7,25.5-28,25.5-28s9.5,23.4,8.6,32.3
				C495.3,307,477.7,304.7,477.7,304.7z"/>
			<path class="st13" d="M217.7,402.2c0,0,12.5-10.6,4.2-20.3c-8.3-9.6-29-12.2-29-12.2s1,21,4.7,27.4
				C205.2,410,217.7,402.2,217.7,402.2z"/>
			<path class="st16" d="M163.6,616.2c0,0,14.5-11.5,5.5-22.8c-9-11.2-32.3-14.9-32.3-14.9s0.3,23.7,4.3,31.1
				C149.2,624.6,163.6,616.2,163.6,616.2z"/>
			<path class="st12" d="M555.6,334.4c0,0,12-9.5,4.5-18.8c-7.4-9.2-26.7-12.3-26.7-12.3s0.2,19.6,3.5,25.6
				C543.7,341.3,555.6,334.4,555.6,334.4z"/>
			<path class="st11" d="M634.4,479.9c0,0,14.5-11.5,5.5-22.8c-9-11.2-32.3-14.9-32.3-14.9s0.3,23.7,4.3,31.1
				C620,488.3,634.4,479.9,634.4,479.9z"/>
			<path class="st11" d="M465,335.6c0,0,10.1-8.1,3.8-15.9c-6.3-7.8-22.6-10.4-22.6-10.4s0.2,16.6,3,21.8
				C454.9,341.5,465,335.6,465,335.6z"/>
			<path class="st12" d="M125.9,432.3c0,0,10.1-8.1,3.8-15.9c-6.3-7.8-22.6-10.4-22.6-10.4s0.2,16.6,3,21.8
				C115.8,438.2,125.9,432.3,125.9,432.3z"/>
			<path class="st11" d="M680.7,516.9c0,0-18.4-14.7-6.9-28.9c11.5-14.2,41-19,41-19s-0.4,30.2-5.5,39.5
				C699,527.5,680.7,516.9,680.7,516.9z"/>
			<path class="st16" d="M204,614.4c0,0-13-10.4-4.9-20.5c8.1-10.1,29.1-13.4,29.1-13.4s-0.3,21.4-3.9,28
				C217,622,204,614.4,204,614.4z"/>
			<path class="st11" d="M492.9,333.3c0,0-12-9.5-4.5-18.8c7.4-9.2,26.7-12.3,26.7-12.3s-0.2,19.6-3.5,25.6
				C504.8,340.2,492.9,333.3,492.9,333.3z"/>
			<path class="st12" d="M588.9,345.9c0,0-12.2-9.7-4.6-19.2c7.6-9.5,27.3-12.6,27.3-12.6s-0.3,20-3.6,26.3
				C601,353,588.9,345.9,588.9,345.9z"/>
			<line class="st25" x1="215" y1="396.3" x2="240.6" y2="420"/>
			<line class="st26" x1="158.3" y1="606.8" x2="186.2" y2="635.3"/>
			<line class="st0" x1="628.7" y1="470.3" x2="656.4" y2="505"/>
			<circle class="st27" cx="321.8" cy="324.1" r="16.4"/>
			<circle class="st27" cx="123.5" cy="482.3" r="22.5"/>
			
				<ellipse transform="matrix(0.7071 -0.7071 0.7071 0.7071 -37.7099 546.3378)" class="st27" cx="640.6" cy="318.7" rx="16.4" ry="16.4"/>
			<circle class="st27" cx="574.5" cy="450" r="20.5"/>
			<circle class="st27" cx="166.3" cy="474.3" r="8"/>
			<circle class="st27" cx="634.9" cy="280.8" r="8"/>
			<circle class="st27" cx="495.4" cy="579.6" r="8"/>
			<circle class="st27" cx="489.8" cy="676" r="8"/>
			<circle class="st27" cx="289.7" cy="517.2" r="8"/>
			<circle class="st27" cx="123.5" cy="525.1" r="4.5"/>
			<circle class="st27" cx="228.6" cy="224.4" r="4.5"/>
			<circle class="st27" cx="504.4" cy="228.9" r="4.5"/>
			<circle class="st27" cx="672.1" cy="584.6" r="4.5"/>
			<circle class="st27" cx="680.4" cy="324.1" r="4.5"/>
			<circle class="st27" cx="311.7" cy="151.9" r="4.5"/>
			<circle class="st27" cx="264.2" cy="529.6" r="4.5"/>
			<circle class="st27" cx="259.7" cy="429.5" r="4.5"/>
			<circle class="st27" cx="355.7" cy="314.1" r="4.5"/>
			<circle class="st27" cx="290.9" cy="700.5" r="16.4"/>
			<circle class="st27" cx="690.3" cy="552.5" r="16.4"/>
			<circle class="st27" cx="272.2" cy="195.1" r="27"/>
			<circle class="st28" cx="253.6" cy="176.1" r="14.5"/>
			<circle class="st9" cx="479.7" cy="190.6" r="32.5"/>
			<circle class="st28" cx="541.4" cy="123.4" r="24"/>
			<circle class="st29" cx="667.6" cy="161.6" r="41.5"/>
			<circle class="st9" cx="20.3" cy="165.9" r="53"/>
			<circle class="st9" cx="162.9" cy="800" r="38.5"/>
			<circle class="st9" cx="770.3" cy="537.7" r="38.5"/>
			<circle class="st30" cx="571.4" cy="684" r="17"/>
			<circle class="st29" cx="640.6" cy="662.6" r="37.5"/>
			<circle class="st28" cx="166.3" cy="207.7" r="28"/>
			<circle class="st31" cx="314.4" cy="684" r="28"/>
			<circle class="st31" cx="227.8" cy="366.6" r="28"/>
			<circle class="st32" cx="600.8" cy="442.3" r="28"/>
			<circle class="st28" cx="136.7" cy="285" r="35"/>
			<circle class="st28" cx="699.9" cy="370.4" r="20"/>
			<circle class="st33" cx="330" cy="182.4" r="23.5"/>
			<circle class="st30" cx="292.2" cy="280.8" r="21.5"/>
			<circle class="st32" cx="618.7" cy="248.4" r="17"/>
			<circle class="st32" cx="397.8" cy="126.4" r="17"/>
			<circle class="st9" cx="714.8" cy="497.7" r="17"/>
			<circle class="st9" cx="103.8" cy="480.7" r="17"/>
			<circle class="st9" cx="136.7" cy="601.6" r="17"/>
		</g>
	</g>
</g>
</svg>
