<?xml version="1.0" encoding="iso-8859-1"?>
<!-- Generator: Adobe Illustrator 17.0.0, SVG Export Plug-In . SVG Version: 6.00 Build 0)  -->
<!DOCTYPE svg PUBLIC "-//W3C//DTD SVG 1.1//EN" "http://www.w3.org/Graphics/SVG/1.1/DTD/svg11.dtd">
<svg version="1.1" id="Capa_1" xmlns="http://www.w3.org/2000/svg" xmlns:xlink="http://www.w3.org/1999/xlink" x="0px" y="0px"
	 width="376.842px" height="289.052px" viewBox="0 0 376.842 289.052" style="enable-background:new 0 0 376.842 289.052;"
	 xml:space="preserve">
<g>
	<g>
		<g>
			<g>
				<path style="fill:#975415;" d="M70.158,206.131c0,4.418-3.581,8-8,8H23.984c-4.418,0-8-3.582-8-8v-5.341c0-4.418,3.582-8,8-8
					h38.174c4.419,0,8,3.582,8,8V206.131z"/>
				<g>
					<path style="fill:#F7A954;" d="M60.457,212.122H56.03v-1h4.427c0.182,0,0.361-0.006,0.54-0.018l0.066,0.998
						C60.863,212.116,60.661,212.122,60.457,212.122z M51.03,212.122h-5v-1h5V212.122z M41.03,212.122h-5v-1h5V212.122z
						 M31.03,212.122h-5v-1h5V212.122z M20.999,210.786c-1.638-1.055-2.707-2.585-3.012-4.309l0.984-0.174
						c0.256,1.447,1.168,2.74,2.568,3.642L20.999,210.786z M65.934,210.202l-0.646-0.764c1.261-1.064,1.955-2.472,1.955-3.963
						l1-0.042v0.042C68.244,207.266,67.423,208.945,65.934,210.202z M17.899,201.394v-0.021c0-1.782,0.813-3.456,2.292-4.712
						l0.647,0.762c-1.251,1.063-1.939,2.466-1.939,3.95L17.899,201.394z M67.168,200.528c-0.261-1.445-1.178-2.736-2.582-3.635
						l0.539-0.842c1.641,1.049,2.716,2.576,3.027,4.299L67.168,200.528z M25.126,195.746l-0.069-0.998
						c0.208-0.015,0.418-0.021,0.63-0.021h4.404v1h-4.404C25.498,195.726,25.311,195.733,25.126,195.746z M60.09,195.726h-5v-1h5
						V195.726z M50.09,195.726h-5v-1h5V195.726z M40.091,195.726h-5v-1h5V195.726z"/>
				</g>
				<circle style="fill:#222328;" cx="26.639" cy="203.424" r="6.5"/>
			</g>
			<g>
				<path style="fill:#A86116;" d="M340.144,256.058c0,4.167-3.379,7.547-7.546,7.547H61.914c-4.167,0-7.545-3.38-7.545-7.547
					V143.119c0-4.167,3.378-7.545,7.545-7.545h270.685c4.167,0,7.546,3.378,7.546,7.545V256.058z"/>
				<path style="fill:#A86116;" d="M332.598,135.574H201.837v128.031h130.762c4.167,0,7.546-3.38,7.546-7.547V143.119
					C340.144,138.952,336.765,135.574,332.598,135.574z"/>
				<path style="fill:#B56716;" d="M197.073,135.574H61.914c-4.167,0-7.545,3.378-7.545,7.545v112.939
					c0,4.167,3.378,7.547,7.545,7.547h135.159V135.574z"/>
				<g>
					<path style="fill:#623310;" d="M333.658,150.234c0,1.845-1.496,3.341-3.342,3.341H64.783c-1.846,0-3.342-1.496-3.342-3.341l0,0
						c0-1.846,1.496-3.342,3.342-3.342h265.533C332.162,146.892,333.658,148.388,333.658,150.234L333.658,150.234z"/>
				</g>
				<g>
					
						<rect x="61.099" y="66.33" transform="matrix(-0.2549 0.967 -0.967 -0.2549 297.3507 -13.841)" style="fill:#43AD4B;" width="185.818" height="82.615"/>
					<path style="fill:#B5D7A6;" d="M165.351,184.461c0.076,0.02,0.149,0.045,0.224,0.064L201.92,46.668
						c-0.076-0.017-0.15-0.034-0.227-0.053c-6.535-1.723-10.436-8.417-8.713-14.952c0.021-0.076,0.045-0.149,0.064-0.224
						l-35.658-9.401c-0.019,0.075-0.035,0.15-0.054,0.226c-1.723,6.535-8.417,10.436-14.953,8.712l-36.343,137.846
						c6.536,1.725,10.436,8.418,8.713,14.955l35.648,9.398C152.121,186.639,158.816,182.739,165.351,184.461z"/>
					<g>
						<circle style="fill:#43AD4B;" cx="154.008" cy="107.637" r="23.724"/>
						<circle style="fill:#6AB655;" cx="139.771" cy="161.635" r="11.707"/>
						<circle style="fill:#43AD4B;" cx="168.424" cy="52.956" r="11.707"/>
						<path style="fill:#B5D7A6;" d="M156.034,108.977c1.755-3.939,3.432-4.535,5.957-3.871l0.237,0.063
							c2.405,0.635,3.599,2.668,2.946,5.145l-0.08,0.301c-0.82,3.111-3.206,3.844-7.822,2.627l-1.182,4.482l0.908,0.24
							c6.104,1.609,10.047,0.402,12.018-4.119l3.37,0.889l1.11-4.209l-3.401-0.896c0.37-4.547-2.214-7.871-6.936-9.115l-0.394-0.104
							c-5.089-1.342-8.324,0.523-10.73,5.975c-1.681,3.814-3.437,4.713-6.12,4.004l-0.237-0.063
							c-2.563-0.676-3.915-2.748-3.173-5.561l0.079-0.301c0.741-2.809,3.085-4.018,7.462-2.863l1.182-4.484l-0.393-0.104
							c-6.176-1.627-10.215-0.094-12.19,4.324l-3.016-0.795l-1.11,4.209l3.016,0.795c-0.456,4.713,2.102,8.09,7.132,9.416
							l0.434,0.115C150.505,116.501,153.627,114.426,156.034,108.977z"/>
					</g>
				</g>
				
					<line style="fill:none;stroke:#F7A954;stroke-miterlimit:10;stroke-dasharray:5;" x1="192.072" y1="192.157" x2="192.072" y2="263.605"/>
				<g>
					<polygon style="fill:#B6B6B5;" points="105.716,204.919 114.299,204.919 163.264,195.907 132.328,27.835 127.885,44.686 					
						"/>
					
						<rect x="10.912" y="70.702" transform="matrix(0.181 0.9835 -0.9835 0.181 195.1856 -10.372)" style="fill:#43AD4B;" width="185.818" height="82.615"/>
					<path style="fill:#B5D7A6;" d="M146.795,176.693c0.076-0.014,0.153-0.023,0.23-0.035L121.215,36.445
						c-0.076,0.016-0.151,0.033-0.228,0.047c-6.646,1.224-13.026-3.173-14.25-9.819c-0.014-0.076-0.023-0.153-0.037-0.229
						L70.433,33.12c0.015,0.075,0.033,0.15,0.047,0.227c1.224,6.646-3.173,13.026-9.819,14.25l25.806,140.201
						c6.648-1.224,13.027,3.174,14.251,9.82l36.257-6.674C135.751,184.297,140.147,177.917,146.795,176.693z"/>
					<g>
						<circle style="fill:#43AD4B;" cx="103.82" cy="112.01" r="23.724"/>
						<circle style="fill:#6AB655;" cx="113.93" cy="166.931" r="11.708"/>
						<circle style="fill:#43AD4B;" cx="93.584" cy="56.395" r="11.707"/>
						<path style="fill:#B5D7A6;" d="M106.224,112.36c-0.089-4.313,1.175-5.566,3.742-6.038l0.241-0.044
							c2.447-0.451,4.393,0.88,4.856,3.399l0.057,0.306c0.582,3.164-1.267,4.842-5.961,5.707l0.84,4.56l0.923-0.17
							c6.21-1.144,9.263-3.911,9.121-8.844l3.429-0.631l-0.788-4.28l-3.46,0.637c-1.602-4.271-5.354-6.178-10.156-5.293l-0.4,0.072
							c-5.177,0.953-7.309,4.02-7.166,9.975c0.104,4.168-1.104,5.727-3.832,6.229l-0.241,0.045c-2.606,0.479-4.713-0.82-5.239-3.68
							l-0.057-0.307c-0.526-2.858,1.081-4.948,5.533-5.768l-0.839-4.562l-0.401,0.073c-6.281,1.156-9.282,4.266-9.188,9.103
							l-3.067,0.565l0.788,4.279l3.067-0.564c1.594,4.459,5.347,6.427,10.463,5.485l0.441-0.081
							C104.426,121.522,106.367,118.315,106.224,112.36z"/>
					</g>
				</g>
				<g>
					<g>
						<path style="fill:#B6B6B5;" d="M193.205,186.003c0.311,1.979-1.041,3.835-3.021,4.145L70.571,208.94
							c-1.979,0.313-3.835-1.041-4.144-3.02l-10.902-69.389c-0.313-1.98,1.041-3.834,3.021-4.145l119.611-18.792
							c1.978-0.312,3.834,1.041,4.146,3.02L193.205,186.003z"/>
						<path style="fill:#F4F4F4;" d="M191.075,185.324c0.31,1.98-1.041,3.835-3.023,4.146L68.441,208.26
							c-1.979,0.314-3.835-1.041-4.145-3.02l-10.903-69.389c-0.312-1.98,1.041-3.834,3.021-4.145l119.611-18.792
							c1.977-0.312,3.835,1.041,4.146,3.02L191.075,185.324z"/>
						<g>
							<path style="fill:#EA5344;" d="M154.983,178.53c-0.438-2.791,0.359-5.482,1.976-7.542c-1.976-1.335-4.435-1.961-6.975-1.563
								c-5.328,0.838-8.972,5.838-8.134,11.169c0.837,5.329,5.835,8.971,11.167,8.134c2.54-0.399,4.689-1.751,6.16-3.625
								C157.008,183.637,155.422,181.32,154.983,178.53z"/>
							<path style="fill:#FDC427;" d="M164.788,167.099c-2.541,0.4-4.688,1.751-6.159,3.625c-1.615,2.06-2.413,4.753-1.976,7.541
								c0.44,2.792,2.024,5.11,4.193,6.574c1.976,1.334,4.435,1.962,6.975,1.562c5.329-0.837,8.971-5.836,8.134-11.166
								C175.117,169.904,170.119,166.263,164.788,167.099z"/>
						</g>
					</g>
					<g>
						<g>
							
								<rect x="104.155" y="148.576" transform="matrix(0.9879 -0.1552 0.1552 0.9879 -21.4587 23.1915)" style="fill:#A1A0A0;" width="67.268" height="0.882"/>
						</g>
						<g>
							
								<rect x="103.205" y="140.33" transform="matrix(0.9879 -0.1552 0.1552 0.9879 -20.532 22.9704)" style="fill:#A1A0A0;" width="67.269" height="5.29"/>
						</g>
						<g>
							
								<rect x="74.11" y="175.179" transform="matrix(0.9879 -0.1552 0.1552 0.9879 -26.1618 16.2428)" style="fill:#A1A0A0;" width="33.604" height="0.882"/>
						</g>
						<g>
							
								<rect x="74.793" y="179.534" transform="matrix(0.9879 -0.1552 0.1552 0.9879 -26.8238 16.3976)" style="fill:#A1A0A0;" width="33.606" height="0.882"/>
						</g>
						<g>
							
								<rect x="75.478" y="183.887" transform="matrix(0.9879 -0.1552 0.1552 0.9879 -27.4907 16.5563)" style="fill:#A1A0A0;" width="33.605" height="0.881"/>
						</g>
						<g>
							
								<rect x="76.043" y="186.729" transform="matrix(0.9879 -0.1552 0.1552 0.9879 -27.8 18.1855)" style="fill:#A1A0A0;" width="53.092" height="0.881"/>
						</g>
						<g>
							
								<rect x="76.727" y="191.082" transform="matrix(0.9879 -0.1552 0.1552 0.9879 -28.4711 18.3472)" style="fill:#A1A0A0;" width="53.091" height="0.881"/>
						</g>
					</g>
				</g>
				<path style="fill:#C1691B;" d="M54.369,192.157v63.901c0,4.167,3.378,7.547,7.545,7.547h135.159v-71.448H54.369z"/>
				<g>
					<rect x="116.397" y="258.782" style="fill:#F7A954;" width="3.557" height="0.715"/>
					<rect x="151.965" y="258.782" style="fill:#F7A954;" width="3.557" height="0.715"/>
					<rect x="159.079" y="258.782" style="fill:#F7A954;" width="3.557" height="0.715"/>
					<rect x="144.851" y="258.782" style="fill:#F7A954;" width="3.557" height="0.715"/>
					<rect x="130.624" y="258.782" style="fill:#F7A954;" width="3.558" height="0.715"/>
					<rect x="123.51" y="258.782" style="fill:#F7A954;" width="3.557" height="0.715"/>
					<rect x="166.192" y="258.782" style="fill:#F7A954;" width="3.558" height="0.715"/>
					<rect x="137.738" y="258.782" style="fill:#F7A954;" width="3.557" height="0.715"/>
					<rect x="194.647" y="258.782" style="fill:#F7A954;" width="3.557" height="0.715"/>
					<rect x="201.76" y="258.782" style="fill:#F7A954;" width="3.558" height="0.715"/>
					<rect x="208.876" y="258.782" style="fill:#F7A954;" width="3.556" height="0.715"/>
					<rect x="187.534" y="258.782" style="fill:#F7A954;" width="3.557" height="0.715"/>
					<rect x="173.306" y="258.782" style="fill:#F7A954;" width="3.557" height="0.715"/>
					<rect x="180.42" y="258.782" style="fill:#F7A954;" width="3.557" height="0.715"/>
					<rect x="58.226" y="200.053" style="fill:#F7A954;" width="0.714" height="3.557"/>
					<rect x="58.226" y="228.508" style="fill:#F7A954;" width="0.714" height="3.556"/>
					<rect x="58.226" y="185.826" style="fill:#F7A954;" width="0.714" height="3.557"/>
					<rect x="58.226" y="192.94" style="fill:#F7A954;" width="0.714" height="3.556"/>
					<rect x="58.226" y="214.281" style="fill:#F7A954;" width="0.714" height="3.556"/>
					<rect x="58.226" y="221.394" style="fill:#F7A954;" width="0.714" height="3.557"/>
					<rect x="58.226" y="207.167" style="fill:#F7A954;" width="0.714" height="3.557"/>
					<rect x="58.226" y="178.712" style="fill:#F7A954;" width="0.714" height="3.556"/>
					<rect x="58.226" y="171.598" style="fill:#F7A954;" width="0.714" height="3.557"/>
					<rect x="87.942" y="258.782" style="fill:#F7A954;" width="3.557" height="0.715"/>
					<rect x="80.829" y="258.782" style="fill:#F7A954;" width="3.557" height="0.715"/>
					<rect x="73.714" y="258.782" style="fill:#F7A954;" width="3.558" height="0.715"/>
					<rect x="109.283" y="258.782" style="fill:#F7A954;" width="3.557" height="0.715"/>
					<rect x="58.226" y="235.622" style="fill:#F7A954;" width="0.714" height="3.557"/>
					<rect x="102.17" y="258.782" style="fill:#F7A954;" width="3.557" height="0.715"/>
					<rect x="95.055" y="258.782" style="fill:#F7A954;" width="3.558" height="0.715"/>
					<path style="fill:#F7A954;" d="M58.94,249.849h-0.714v2.247c0,0.46,0.044,0.92,0.131,1.369l0.701-0.137
						c-0.078-0.403-0.118-0.818-0.118-1.232V249.849z"/>
					<rect x="58.226" y="242.735" style="fill:#F7A954;" width="0.714" height="3.557"/>
					<rect x="66.601" y="258.782" style="fill:#F7A954;" width="3.557" height="0.715"/>
					<path style="fill:#F7A954;" d="M60.517,256.328l-0.544,0.464c0.803,0.94,1.843,1.682,3.007,2.146l0.265-0.664
						C62.187,257.852,61.245,257.179,60.517,256.328z"/>
					<path style="fill:#F7A954;" d="M335.297,255.314l0.619,0.356c0.625-1.088,0.956-2.324,0.956-3.574v-0.03l-0.714,0.03
						C336.159,253.221,335.86,254.333,335.297,255.314z"/>
					<rect x="336.159" y="230.724" style="fill:#F7A954;" width="0.714" height="3.558"/>
					<path style="fill:#F7A954;" d="M329.778,258.757l0.057,0.712c1.244-0.102,2.457-0.499,3.508-1.15l-0.377-0.606
						C332.011,258.304,330.909,258.665,329.778,258.757z"/>
					<rect x="324.925" y="139.286" style="fill:#F7A954;" width="3.558" height="0.714"/>
					<rect x="336.159" y="237.838" style="fill:#F7A954;" width="0.714" height="3.558"/>
					<rect x="336.159" y="244.952" style="fill:#F7A954;" width="0.714" height="3.558"/>
					<path style="fill:#F7A954;" d="M332.103,139.839l-0.263,0.664c1.058,0.418,2.002,1.089,2.732,1.939l0.542-0.466
						C334.309,141.04,333.267,140.3,332.103,139.839z"/>
					<rect x="310.698" y="139.286" style="fill:#F7A954;" width="3.558" height="0.714"/>
					<rect x="322.693" y="258.782" style="fill:#F7A954;" width="3.558" height="0.715"/>
					<rect x="308.467" y="258.782" style="fill:#F7A954;" width="3.557" height="0.715"/>
					<rect x="317.812" y="139.286" style="fill:#F7A954;" width="3.557" height="0.714"/>
					<rect x="315.58" y="258.782" style="fill:#F7A954;" width="3.558" height="0.715"/>
					<rect x="336.159" y="166.702" style="fill:#F7A954;" width="0.714" height="3.557"/>
					<rect x="336.159" y="159.588" style="fill:#F7A954;" width="0.714" height="3.557"/>
					<rect x="303.585" y="139.286" style="fill:#F7A954;" width="3.557" height="0.714"/>
					<rect x="336.159" y="173.816" style="fill:#F7A954;" width="0.714" height="3.557"/>
					<path style="fill:#F7A954;" d="M336.738,145.301l-0.7,0.137c0.08,0.409,0.121,0.829,0.121,1.247v2.232h0.714v-2.232
						C336.873,146.221,336.828,145.754,336.738,145.301z"/>
					<rect x="336.159" y="180.929" style="fill:#F7A954;" width="0.714" height="3.557"/>
					<rect x="336.159" y="152.474" style="fill:#F7A954;" width="0.714" height="3.558"/>
					<rect x="336.159" y="209.383" style="fill:#F7A954;" width="0.714" height="3.558"/>
					<rect x="336.159" y="216.497" style="fill:#F7A954;" width="0.714" height="3.557"/>
					<rect x="336.159" y="223.611" style="fill:#F7A954;" width="0.714" height="3.558"/>
					<rect x="336.159" y="195.157" style="fill:#F7A954;" width="0.714" height="3.557"/>
					<rect x="336.159" y="188.043" style="fill:#F7A954;" width="0.714" height="3.558"/>
					<rect x="336.159" y="202.27" style="fill:#F7A954;" width="0.714" height="3.557"/>
					<rect x="265.784" y="258.782" style="fill:#F7A954;" width="3.558" height="0.715"/>
					<rect x="244.444" y="258.782" style="fill:#F7A954;" width="3.556" height="0.715"/>
					<rect x="240.895" y="139.286" style="fill:#F7A954;" width="2.223" height="0.714"/>
					<rect x="246.675" y="139.286" style="fill:#F7A954;" width="3.557" height="0.714"/>
					<rect x="251.557" y="258.782" style="fill:#F7A954;" width="3.557" height="0.715"/>
					<rect x="237.329" y="258.782" style="fill:#F7A954;" width="3.558" height="0.715"/>
					<rect x="253.789" y="139.286" style="fill:#F7A954;" width="3.558" height="0.714"/>
					<rect x="258.671" y="258.782" style="fill:#F7A954;" width="3.557" height="0.715"/>
					<rect x="223.102" y="258.782" style="fill:#F7A954;" width="3.557" height="0.715"/>
					<rect x="230.215" y="258.782" style="fill:#F7A954;" width="3.558" height="0.715"/>
					<rect x="296.471" y="139.286" style="fill:#F7A954;" width="3.557" height="0.714"/>
					<rect x="289.357" y="139.286" style="fill:#F7A954;" width="3.558" height="0.714"/>
					<rect x="287.126" y="258.782" style="fill:#F7A954;" width="3.557" height="0.715"/>
					<rect x="260.903" y="139.286" style="fill:#F7A954;" width="3.557" height="0.714"/>
					<rect x="294.239" y="258.782" style="fill:#F7A954;" width="3.557" height="0.715"/>
					<rect x="282.244" y="139.286" style="fill:#F7A954;" width="3.557" height="0.714"/>
					<rect x="301.352" y="258.782" style="fill:#F7A954;" width="3.558" height="0.715"/>
					<rect x="268.016" y="139.286" style="fill:#F7A954;" width="3.557" height="0.714"/>
					<rect x="280.011" y="258.782" style="fill:#F7A954;" width="3.557" height="0.715"/>
					<rect x="215.989" y="258.782" style="fill:#F7A954;" width="3.557" height="0.715"/>
					<rect x="275.13" y="139.286" style="fill:#F7A954;" width="3.558" height="0.714"/>
					<rect x="272.898" y="258.782" style="fill:#F7A954;" width="3.557" height="0.715"/>
				</g>
				<g>
					<path style="fill:#F7A954;" d="M197.073,195.752h-2.704v-1h2.704V195.752z M189.369,195.752h-5v-1h5V195.752z M179.369,195.752
						h-5v-1h5V195.752z M169.369,195.752h-5v-1h5V195.752z M159.369,195.752h-5v-1h5V195.752z M149.369,195.752h-5v-1h5V195.752z
						 M139.369,195.752h-5v-1h5V195.752z M129.369,195.752h-5v-1h5V195.752z M119.369,195.752h-5v-1h5V195.752z M109.369,195.752h-5
						v-1h5V195.752z M99.369,195.752h-5v-1h5V195.752z M89.369,195.752h-5v-1h5V195.752z M79.369,195.752h-5v-1h5V195.752z
						 M69.369,195.752h-5v-1h5V195.752z M59.369,195.752h-5v-1h5V195.752z"/>
				</g>
				<path style="fill:#623310;" d="M189.487,203.472c0,0.799-0.648,1.447-1.447,1.447H63.671c-0.8,0-1.447-0.648-1.447-1.447l0,0
					c0-0.799,0.648-1.447,1.447-1.447H188.04C188.839,202.025,189.487,202.673,189.487,203.472L189.487,203.472z"/>
				<g>
					<path style="fill:#F7A954;" d="M194.299,263.605h-1v-1.448h1V263.605z M194.299,257.157h-1v-5h1V257.157z M194.299,247.157h-1
						v-5h1V247.157z M194.299,237.157h-1v-5h1V237.157z M194.299,227.157h-1v-5h1V227.157z M194.299,217.157h-1v-5h1V217.157z
						 M194.299,207.157h-1v-5h1V207.157z M194.299,197.157h-1v-5h1V197.157z"/>
				</g>
			</g>
		</g>
		<g>
			<g>
				<g>
					<path style="fill:#B6B6B5;" d="M196.291,22.702c0.01,14.995,0.047,32.762,0.133,34.099c0.165,2.569,0.965,7.51,2.188,10.061
						c0.934,1.953,2.666,5.978,3.834,7.632c0.777,1.104,1.56,1.974,2.315,2.671l12.876-48.836L196.291,22.702z"/>
					<path style="fill:#F2F2F2;" d="M250.262,2v52.942c0,0-0.081,6.124,2.214,12.357c1.026,2.782,1.981,3.949,3.363,5.851
						c3.337,4.594,9.021,6.727,9.021,6.727h-52.494c0,0-4.033,0.139-7.922-5.383c-1.168-1.654-2.9-5.679-3.834-7.632
						c-1.223-2.552-2.022-7.492-2.188-10.061c-0.145-2.246-0.151-50.813-0.12-54.801H250.262z"/>
					<path style="fill:#DCE0EF;" d="M231.563,42.856c3.537-4.975,11.138-4.975,11.138-4.975h36.324c0,0,0.302,14.199,0,18.919
						c-0.165,2.569-0.966,7.51-2.188,10.062c-0.935,1.952-3.398,5.112-4.811,6.562c-1.76,1.805-7.601,6.452-7.601,6.452h-51.838
						c0,0,6.378,0.989,11.452-10.28c2.729-6.058,3.146-14.654,3.146-14.654s0.07-1.785,0.08-1.956
						C227.512,49.385,229.351,45.966,231.563,42.856z"/>
					<path style="fill:#F2F2F2;" d="M250.262,0v52.942c0,0-0.081,6.124,2.214,12.357c1.026,2.782,1.981,3.949,3.363,5.851
						c3.337,4.594,9.021,6.727,9.021,6.727h-52.494c0,0-4.033,0.139-7.922-5.383c-1.168-1.654-2.9-5.679-3.834-7.632
						c-1.223-2.552-2.022-7.492-2.188-10.061c-0.145-2.246-0.151-50.813-0.12-54.801H250.262z"/>
					<rect x="202.689" y="48.567" style="opacity:0.4;fill:#4D515D;" width="30.018" height="1.313"/>
					<rect x="202.689" y="41.448" style="opacity:0.4;fill:#4D515D;" width="30.018" height="1.313"/>
					<rect x="202.689" y="34.328" style="opacity:0.4;fill:#4D515D;" width="42.833" height="1.313"/>
					<rect x="202.689" y="27.209" style="opacity:0.4;fill:#4D515D;" width="42.833" height="1.313"/>
					<rect x="202.689" y="20.09" style="opacity:0.4;fill:#4D515D;" width="42.833" height="1.313"/>
					<rect x="202.689" y="12.971" style="opacity:0.4;fill:#4D515D;" width="42.833" height="1.313"/>
					<rect x="202.689" y="55.566" style="opacity:0.4;fill:#4D515D;" width="35.651" height="1.313"/>
					<rect x="210.235" y="66.284" style="opacity:0.4;fill:#4D515D;" width="35.652" height="1.311"/>
					<rect x="216.059" y="70.371" style="opacity:0.4;fill:#4D515D;" width="20.423" height="1.313"/>
					<rect x="220.514" y="73.379" style="opacity:0.4;fill:#4D515D;" width="20.424" height="1.313"/>
				</g>
				<g>
					<path style="fill:#B9BFD6;" d="M231.563,42.856c3.537-4.975,11.138-4.975,11.138-4.975h36.324c0,0,0.302,14.199,0,18.919
						c-0.165,2.569-0.966,7.51-2.188,10.062c-0.935,1.952-3.398,5.112-4.811,6.562c-1.76,1.805-7.601,6.452-7.601,6.452h-51.838
						c0,0,6.378,0.989,11.452-10.28c2.729-6.058,3.146-14.654,3.146-14.654s0.07-1.785,0.08-1.956
						C227.512,49.385,229.351,45.966,231.563,42.856z"/>
					<rect x="239.108" y="41.568" style="opacity:0.4;fill:#4D515D;" width="43.197" height="1.313"/>
					<rect x="244.741" y="48.567" style="opacity:0.4;fill:#4D515D;" width="30.019" height="1.313"/>
					<rect x="239.108" y="55.566" style="opacity:0.4;fill:#4D515D;" width="35.652" height="1.313"/>
					<rect x="231.563" y="66.284" style="opacity:0.4;fill:#4D515D;" width="35.651" height="1.313"/>
					<rect x="240.967" y="70.372" style="opacity:0.4;fill:#4D515D;" width="20.424" height="1.313"/>
					<rect x="236.51" y="73.38" style="opacity:0.4;fill:#4D515D;" width="20.424" height="1.311"/>
				</g>
			</g>
			<g>
				<g>
					<path style="fill:#222328;" d="M359.087,218.576c0,2.727-2.991,5.648-6.682,6.525c-6.493,1.543-9.737,2.313-16.23,3.855
						c-3.69,0.879-6.682-0.902-6.682-3.975c0-37.715,0-75.43,0-113.144c0-3.073,2.991-4.854,6.682-3.978
						c6.493,1.545,9.737,2.314,16.23,3.859c3.69,0.877,6.682,3.798,6.682,6.522C359.087,151.686,359.087,185.132,359.087,218.576z"
						/>
				</g>
				<g>
					<path style="fill:#4D515D;" d="M349.244,110.967c-4.573-1.085-7.721-1.834-13.069-3.106c-3.69-0.876-6.682,0.904-6.682,3.978
						v113.144c0,3.072,2.991,4.854,6.682,3.975c5.349-1.27,8.496-2.018,13.069-3.105V110.967z"/>
				</g>
				<g>
					<path style="fill:#4D515D;" d="M354.602,112.521V224.3c2.61-1.295,4.484-3.568,4.484-5.725V118.243
						C359.087,116.087,357.213,113.813,354.602,112.521z"/>
				</g>
			</g>
			<g>
				<path style="fill:#B6B6B5;" d="M332.598,135.574H219.623v125.298c0,0.948,0.13,1.861,0.355,2.733h112.62
					c4.167,0,7.546-3.38,7.546-7.547V143.119C340.144,138.952,336.765,135.574,332.598,135.574z"/>
				<path style="fill:#888989;" d="M344.29,260.872c0,5.674-4.307,10.275-9.621,10.275H231.244c-5.313,0-9.621-4.602-9.621-10.275
					V75.946c0-5.675,4.309-10.274,9.621-10.274h103.425c5.315,0,9.621,4.6,9.621,10.274V260.872z"/>
				<rect x="231.923" y="65.671" style="fill:#B7B7B7;" width="102.065" height="198.991"/>
				<g>
					<g>
						<g>
							<path style="fill:#C6C8D4;" d="M293.634,256.16c0,1.18-0.957,2.137-2.138,2.137H275.73c-1.183,0-2.139-0.957-2.139-2.137
								v-6.77c0-1.184,0.956-2.141,2.139-2.141h15.767c1.181,0,2.138,0.957,2.138,2.141V256.16z"/>
							<path style="fill:#DBB61B;" d="M292.977,255.503c0,1.18-0.957,2.137-2.137,2.137h-15.767c-1.182,0-2.139-0.957-2.139-2.137
								v-6.77c0-1.182,0.957-2.141,2.139-2.141h15.767c1.18,0,2.137,0.959,2.137,2.141V255.503z"/>
							<path style="fill:#FFDA40;" d="M291.931,255.15c0,1.059-0.856,1.912-1.914,1.912h-14.121c-1.058,0-1.915-0.854-1.915-1.912
								v-6.063c0-1.061,0.858-1.916,1.915-1.916h14.121c1.058,0,1.914,0.855,1.914,1.916V255.15z"/>
						</g>
						<g>
							<g>
								<path style="fill:#C6C8D4;" d="M315.153,247.249h-14.819c-1.182,0-2.138,0.957-2.138,2.141v6.77
									c0,1.18,0.956,2.137,2.138,2.137h10.077c0.978,0,1.568-0.289,1.962-0.576c2.406-1.762,3.497-5.193,3.978-7.656
									C316.633,248.617,316.238,247.249,315.153,247.249z"/>
								<path style="fill:#779B2C;" d="M314.495,246.593h-14.817c-1.181,0-2.138,0.959-2.138,2.141v6.77
									c0,1.18,0.957,2.137,2.138,2.137h10.076c0.978,0,1.569-0.289,1.963-0.578c2.406-1.762,3.498-5.191,3.978-7.652
									C315.977,247.962,315.582,246.593,314.495,246.593z"/>
								<path style="fill:#A7BF4A;" d="M314.837,249.41c0.171-0.93,0-1.764-0.736-2.131c-0.183-0.064-0.373-0.107-0.576-0.107
									h-13.295c-0.998,0-1.804,0.855-1.804,1.916v6.063c0,1.059,0.806,1.912,1.804,1.912h9.256
									C312.088,257.062,314.201,252.855,314.837,249.41z"/>
							</g>
							<g>
								<path style="fill:#C6C8D4;" d="M252.06,247.249h14.818c1.18,0,2.139,0.957,2.139,2.141v6.77c0,1.18-0.959,2.137-2.139,2.137
									h-10.076c-0.979,0-1.57-0.289-1.963-0.576c-2.407-1.762-3.498-5.193-3.979-7.656
									C250.578,248.617,250.974,247.249,252.06,247.249z"/>
								<path style="fill:#D12D17;" d="M251.418,246.593h14.818c1.181,0,2.139,0.959,2.139,2.141v6.77
									c0,1.18-0.958,2.137-2.139,2.137H256.16c-0.979,0-1.57-0.289-1.963-0.578c-2.406-1.762-3.498-5.191-3.979-7.652
									C249.937,247.962,250.332,246.593,251.418,246.593z"/>
								<path style="fill:#E94A29;" d="M251.078,249.41c-0.172-0.93,0-1.764,0.736-2.131c0.182-0.064,0.373-0.107,0.574-0.107
									h13.297c0.996,0,1.804,0.855,1.804,1.916v6.063c0,1.059-0.808,1.912-1.804,1.912h-9.256
									C253.825,257.062,251.713,252.855,251.078,249.41z"/>
							</g>
						</g>
					</g>
					<g>
						<g>
							<ellipse style="fill:#C6C8D4;" cx="249.436" cy="171.531" rx="7.017" ry="3.391"/>
							<g>
								<ellipse style="fill:#C6C8D4;" cx="248.89" cy="170.915" rx="7.017" ry="3.391"/>
								<ellipse style="fill:#DCE0EF;" cx="248.891" cy="170.915" rx="6.009" ry="3.391"/>
							</g>
						</g>
						<g>
							<ellipse style="fill:#C6C8D4;" cx="266.333" cy="171.531" rx="7.017" ry="3.391"/>
							<g>
								<ellipse style="fill:#C6C8D4;" cx="265.787" cy="170.915" rx="7.018" ry="3.391"/>
								<ellipse style="fill:#DCE0EF;" cx="265.787" cy="170.915" rx="6.009" ry="3.391"/>
							</g>
						</g>
						<g>
							<ellipse style="fill:#C6C8D4;" cx="283.23" cy="171.531" rx="7.017" ry="3.391"/>
							<g>
								<ellipse style="fill:#C6C8D4;" cx="282.683" cy="170.915" rx="7.018" ry="3.391"/>
								<ellipse style="fill:#DCE0EF;" cx="282.684" cy="170.915" rx="6.009" ry="3.391"/>
							</g>
						</g>
						<g>
							<ellipse style="fill:#C6C8D4;" cx="300.126" cy="171.531" rx="7.017" ry="3.391"/>
							<g>
								<ellipse style="fill:#C6C8D4;" cx="299.58" cy="170.915" rx="7.018" ry="3.391"/>
								<ellipse style="fill:#DCE0EF;" cx="299.581" cy="170.915" rx="6.009" ry="3.391"/>
							</g>
						</g>
						<g>
							<ellipse style="fill:#C6C8D4;" cx="317.023" cy="171.531" rx="7.017" ry="3.391"/>
							<g>
								<ellipse style="fill:#C6C8D4;" cx="316.477" cy="170.915" rx="7.018" ry="3.391"/>
								<ellipse style="fill:#DCE0EF;" cx="316.477" cy="170.915" rx="6.008" ry="3.391"/>
							</g>
						</g>
					</g>
					<g>
						<g>
							<path style="fill:#383B45;" d="M322.075,236.476c0,3.182-2.903,5.762-6.486,5.762h-65.551c-3.583,0-6.486-2.58-6.486-5.762
								V184.05c0-3.184,2.903-5.764,6.486-5.764h65.551c3.583,0,6.486,2.58,6.486,5.764V236.476z"/>
							<path style="fill:#383B45;" d="M314.965,157.464c0,2.9-2.351,5.25-5.249,5.25h-53.055c-2.899,0-5.25-2.35-5.25-5.25v-47.764
								c0-2.899,2.351-5.249,5.25-5.249h53.055c2.898,0,5.249,2.35,5.249,5.249V157.464z"/>
							<path style="fill:#70A196;" d="M312.461,155.58c0,2.67-2.165,4.838-4.836,4.838h-48.872c-2.671,0-4.835-2.168-4.835-4.838
								v-43.996c0-2.672,2.164-4.837,4.835-4.837h48.872c2.671,0,4.836,2.165,4.836,4.837V155.58z"/>
						</g>
						<g>
							<g>
								<path style="fill:#C6C8D4;" d="M267.277,191.624c0,1.184-0.957,2.139-2.138,2.139h-15.767c-1.182,0-2.139-0.955-2.139-2.139
									v-6.768c0-1.182,0.957-2.139,2.139-2.139h15.767c1.181,0,2.138,0.957,2.138,2.139V191.624z"/>
								<path style="fill:#C6C8D4;" d="M266.621,190.97c0,1.182-0.957,2.137-2.139,2.137h-15.766c-1.182,0-2.139-0.955-2.139-2.137
									v-6.77c0-1.182,0.957-2.139,2.139-2.139h15.766c1.182,0,2.139,0.957,2.139,2.139V190.97z"/>
								<path style="fill:#DCE0EF;" d="M265.574,190.617c0,1.057-0.856,1.914-1.914,1.914h-14.121c-1.057,0-1.914-0.858-1.914-1.914
									v-6.063c0-1.059,0.857-1.914,1.914-1.914h14.121c1.058,0,1.914,0.855,1.914,1.914V190.617z"/>
							</g>
							<g>
								<path style="fill:#C6C8D4;" d="M293.634,191.624c0,1.184-0.957,2.139-2.138,2.139H275.73c-1.183,0-2.139-0.955-2.139-2.139
									v-6.768c0-1.182,0.956-2.139,2.139-2.139h15.767c1.181,0,2.138,0.957,2.138,2.139V191.624z"/>
								<path style="fill:#C6C8D4;" d="M292.977,190.97c0,1.182-0.957,2.137-2.137,2.137h-15.767c-1.182,0-2.139-0.955-2.139-2.137
									v-6.77c0-1.182,0.957-2.139,2.139-2.139h15.767c1.18,0,2.137,0.957,2.137,2.139V190.97z"/>
								<path style="fill:#DCE0EF;" d="M291.931,190.617c0,1.057-0.856,1.914-1.914,1.914h-14.121c-1.058,0-1.915-0.858-1.915-1.914
									v-6.063c0-1.059,0.858-1.914,1.915-1.914h14.121c1.058,0,1.914,0.855,1.914,1.914V190.617z"/>
							</g>
							<g>
								<path style="fill:#C6C8D4;" d="M319.992,191.624c0,1.184-0.957,2.139-2.138,2.139h-15.768c-1.18,0-2.138-0.955-2.138-2.139
									v-6.768c0-1.182,0.958-2.139,2.138-2.139h15.768c1.181,0,2.138,0.957,2.138,2.139V191.624z"/>
								<path style="fill:#C6C8D4;" d="M319.336,190.97c0,1.182-0.958,2.137-2.137,2.137H301.43c-1.181,0-2.138-0.955-2.138-2.137
									v-6.77c0-1.182,0.957-2.139,2.138-2.139h15.768c1.179,0,2.137,0.957,2.137,2.139V190.97z"/>
								<path style="fill:#DCE0EF;" d="M318.29,190.617c0,1.057-0.857,1.914-1.914,1.914h-14.122c-1.058,0-1.914-0.858-1.914-1.914
									v-6.063c0-1.059,0.857-1.914,1.914-1.914h14.122c1.057,0,1.914,0.855,1.914,1.914V190.617z"/>
							</g>
							<g>
								<path style="fill:#C6C8D4;" d="M267.277,206.499c0,1.182-0.957,2.139-2.138,2.139h-15.767c-1.182,0-2.139-0.957-2.139-2.139
									v-6.771c0-1.18,0.957-2.137,2.139-2.137h15.767c1.181,0,2.138,0.957,2.138,2.137V206.499z"/>
								<path style="fill:#C6C8D4;" d="M266.621,205.843c0,1.182-0.957,2.139-2.139,2.139h-15.766c-1.182,0-2.139-0.957-2.139-2.139
									v-6.77c0-1.184,0.957-2.139,2.139-2.139h15.766c1.182,0,2.139,0.955,2.139,2.139V205.843z"/>
								<path style="fill:#DCE0EF;" d="M265.574,205.49c0,1.057-0.856,1.914-1.914,1.914h-14.121c-1.057,0-1.914-0.857-1.914-1.914
									v-6.063c0-1.059,0.857-1.914,1.914-1.914h14.121c1.058,0,1.914,0.855,1.914,1.914V205.49z"/>
							</g>
							<g>
								<path style="fill:#C6C8D4;" d="M293.634,206.499c0,1.182-0.957,2.139-2.138,2.139H275.73c-1.183,0-2.139-0.957-2.139-2.139
									v-6.771c0-1.18,0.956-2.137,2.139-2.137h15.767c1.181,0,2.138,0.957,2.138,2.137V206.499z"/>
								<path style="fill:#C6C8D4;" d="M292.977,205.843c0,1.182-0.957,2.139-2.137,2.139h-15.767c-1.182,0-2.139-0.957-2.139-2.139
									v-6.77c0-1.184,0.957-2.139,2.139-2.139h15.767c1.18,0,2.137,0.955,2.137,2.139V205.843z"/>
								<path style="fill:#DCE0EF;" d="M291.931,205.49c0,1.057-0.856,1.914-1.914,1.914h-14.121c-1.058,0-1.915-0.857-1.915-1.914
									v-6.063c0-1.059,0.858-1.914,1.915-1.914h14.121c1.058,0,1.914,0.855,1.914,1.914V205.49z"/>
							</g>
							<g>
								<path style="fill:#C6C8D4;" d="M319.992,206.499c0,1.182-0.957,2.139-2.138,2.139h-15.768c-1.18,0-2.138-0.957-2.138-2.139
									v-6.771c0-1.18,0.958-2.137,2.138-2.137h15.768c1.181,0,2.138,0.957,2.138,2.137V206.499z"/>
								<path style="fill:#C6C8D4;" d="M319.336,205.843c0,1.182-0.958,2.139-2.137,2.139H301.43c-1.181,0-2.138-0.957-2.138-2.139
									v-6.77c0-1.184,0.957-2.139,2.138-2.139h15.768c1.179,0,2.137,0.955,2.137,2.139V205.843z"/>
								<path style="fill:#DCE0EF;" d="M318.29,205.49c0,1.057-0.857,1.914-1.914,1.914h-14.122c-1.058,0-1.914-0.857-1.914-1.914
									v-6.063c0-1.059,0.857-1.914,1.914-1.914h14.122c1.057,0,1.914,0.855,1.914,1.914V205.49z"/>
							</g>
							<g>
								<path style="fill:#C6C8D4;" d="M267.277,221.371c0,1.182-0.957,2.141-2.138,2.141h-15.767c-1.182,0-2.139-0.959-2.139-2.141
									v-6.77c0-1.18,0.957-2.137,2.139-2.137h15.767c1.181,0,2.138,0.957,2.138,2.137V221.371z"/>
								<path style="fill:#C6C8D4;" d="M266.621,220.714c0,1.184-0.957,2.139-2.139,2.139h-15.766c-1.182,0-2.139-0.955-2.139-2.139
									v-6.768c0-1.184,0.957-2.139,2.139-2.139h15.766c1.182,0,2.139,0.955,2.139,2.139V220.714z"/>
								<path style="fill:#DCE0EF;" d="M265.574,220.363c0,1.057-0.856,1.914-1.914,1.914h-14.121c-1.057,0-1.914-0.857-1.914-1.914
									V214.3c0-1.059,0.857-1.916,1.914-1.916h14.121c1.058,0,1.914,0.857,1.914,1.916V220.363z"/>
							</g>
							<g>
								<path style="fill:#C6C8D4;" d="M293.634,221.371c0,1.182-0.957,2.141-2.138,2.141H275.73c-1.183,0-2.139-0.959-2.139-2.141
									v-6.77c0-1.18,0.956-2.137,2.139-2.137h15.767c1.181,0,2.138,0.957,2.138,2.137V221.371z"/>
								<path style="fill:#C6C8D4;" d="M292.977,220.714c0,1.184-0.957,2.139-2.137,2.139h-15.767c-1.182,0-2.139-0.955-2.139-2.139
									v-6.768c0-1.184,0.957-2.139,2.139-2.139h15.767c1.18,0,2.137,0.955,2.137,2.139V220.714z"/>
								<path style="fill:#DCE0EF;" d="M291.931,220.363c0,1.057-0.856,1.914-1.914,1.914h-14.121c-1.058,0-1.915-0.857-1.915-1.914
									V214.3c0-1.059,0.858-1.916,1.915-1.916h14.121c1.058,0,1.914,0.857,1.914,1.916V220.363z"/>
							</g>
							<g>
								<path style="fill:#C6C8D4;" d="M319.992,221.371c0,1.182-0.957,2.141-2.138,2.141h-15.768c-1.18,0-2.138-0.959-2.138-2.141
									v-6.77c0-1.18,0.958-2.137,2.138-2.137h15.768c1.181,0,2.138,0.957,2.138,2.137V221.371z"/>
								<path style="fill:#C6C8D4;" d="M319.336,220.714c0,1.184-0.958,2.139-2.137,2.139H301.43c-1.181,0-2.138-0.955-2.138-2.139
									v-6.768c0-1.184,0.957-2.139,2.138-2.139h15.768c1.179,0,2.137,0.955,2.137,2.139V220.714z"/>
								<path style="fill:#DCE0EF;" d="M318.29,220.363c0,1.057-0.857,1.914-1.914,1.914h-14.122c-1.058,0-1.914-0.857-1.914-1.914
									V214.3c0-1.059,0.857-1.916,1.914-1.916h14.122c1.057,0,1.914,0.857,1.914,1.916V220.363z"/>
							</g>
							<g>
								<path style="fill:#C6C8D4;" d="M267.277,236.246c0,1.18-0.957,2.137-2.138,2.137h-15.767c-1.182,0-2.139-0.957-2.139-2.137
									v-6.77c0-1.182,0.957-2.139,2.139-2.139h15.767c1.181,0,2.138,0.957,2.138,2.139V236.246z"/>
								<path style="fill:#C6C8D4;" d="M266.621,235.587c0,1.184-0.957,2.141-2.139,2.141h-15.766c-1.182,0-2.139-0.957-2.139-2.141
									v-6.77c0-1.18,0.957-2.137,2.139-2.137h15.766c1.182,0,2.139,0.957,2.139,2.137V235.587z"/>
								<path style="fill:#DCE0EF;" d="M265.574,235.236c0,1.059-0.856,1.914-1.914,1.914h-14.121c-1.057,0-1.914-0.855-1.914-1.914
									v-6.064c0-1.057,0.857-1.912,1.914-1.912h14.121c1.058,0,1.914,0.855,1.914,1.912V235.236z"/>
							</g>
							<g>
								<path style="fill:#C6C8D4;" d="M293.634,236.246c0,1.18-0.957,2.137-2.138,2.137H275.73c-1.183,0-2.139-0.957-2.139-2.137
									v-6.77c0-1.182,0.956-2.139,2.139-2.139h15.767c1.181,0,2.138,0.957,2.138,2.139V236.246z"/>
								<path style="fill:#C6C8D4;" d="M292.977,235.587c0,1.184-0.957,2.141-2.137,2.141h-15.767c-1.182,0-2.139-0.957-2.139-2.141
									v-6.77c0-1.18,0.957-2.137,2.139-2.137h15.767c1.18,0,2.137,0.957,2.137,2.137V235.587z"/>
								<path style="fill:#DCE0EF;" d="M291.931,235.236c0,1.059-0.856,1.914-1.914,1.914h-14.121c-1.058,0-1.915-0.855-1.915-1.914
									v-6.064c0-1.057,0.858-1.912,1.915-1.912h14.121c1.058,0,1.914,0.855,1.914,1.912V235.236z"/>
							</g>
							<g>
								<path style="fill:#C6C8D4;" d="M319.992,236.246c0,1.18-0.957,2.137-2.138,2.137h-15.768c-1.18,0-2.138-0.957-2.138-2.137
									v-6.77c0-1.182,0.958-2.139,2.138-2.139h15.768c1.181,0,2.138,0.957,2.138,2.139V236.246z"/>
								<path style="fill:#C6C8D4;" d="M319.336,235.587c0,1.184-0.958,2.141-2.137,2.141H301.43c-1.181,0-2.138-0.957-2.138-2.141
									v-6.77c0-1.18,0.957-2.137,2.138-2.137h15.768c1.179,0,2.137,0.957,2.137,2.137V235.587z"/>
								<path style="fill:#DCE0EF;" d="M318.29,235.236c0,1.059-0.857,1.914-1.914,1.914h-14.122c-1.058,0-1.914-0.855-1.914-1.914
									v-6.064c0-1.057,0.857-1.912,1.914-1.912h14.122c1.057,0,1.914,0.855,1.914,1.912V235.236z"/>
							</g>
						</g>
						<g>
							<g>
								<path style="fill:#4D515D;" d="M267.891,135.125l-0.552,1.669h-0.708l1.804-5.307h0.826l1.811,5.307h-0.732l-0.566-1.669
									H267.891z M269.632,134.589l-0.52-1.527c-0.118-0.347-0.197-0.662-0.276-0.969h-0.016c-0.078,0.315-0.165,0.638-0.268,0.961
									l-0.52,1.535H269.632z"/>
								<path style="fill:#4D515D;" d="M271.852,131.55c0.331-0.055,0.764-0.103,1.314-0.103c0.677,0,1.173,0.158,1.488,0.441
									c0.292,0.252,0.464,0.638,0.464,1.11c0,0.48-0.141,0.858-0.408,1.134c-0.363,0.386-0.953,0.583-1.623,0.583
									c-0.204,0-0.393-0.009-0.551-0.048v2.126h-0.685V131.55z M272.537,134.109c0.15,0.04,0.339,0.055,0.566,0.055
									c0.827,0,1.331-0.401,1.331-1.134c0-0.701-0.495-1.039-1.251-1.039c-0.3,0-0.528,0.023-0.646,0.055V134.109z"/>
								<path style="fill:#4D515D;" d="M276.041,131.55c0.331-0.055,0.764-0.103,1.314-0.103c0.678,0,1.174,0.158,1.488,0.441
									c0.292,0.252,0.465,0.638,0.465,1.11c0,0.48-0.142,0.858-0.409,1.134c-0.362,0.386-0.952,0.583-1.622,0.583
									c-0.205,0-0.394-0.009-0.551-0.048v2.126h-0.686V131.55z M276.726,134.109c0.149,0.04,0.338,0.055,0.566,0.055
									c0.827,0,1.331-0.401,1.331-1.134c0-0.701-0.496-1.039-1.252-1.039c-0.3,0-0.528,0.023-0.646,0.055V134.109z"/>
								<path style="fill:#4D515D;" d="M280.23,131.558c0.346-0.071,0.842-0.11,1.314-0.11c0.732,0,1.205,0.134,1.535,0.433
									c0.268,0.236,0.418,0.599,0.418,1.008c0,0.701-0.441,1.165-1,1.354v0.023c0.409,0.142,0.653,0.52,0.779,1.07
									c0.174,0.74,0.299,1.252,0.409,1.457h-0.708c-0.087-0.149-0.205-0.606-0.354-1.268c-0.157-0.732-0.441-1.008-1.063-1.031
									h-0.646v2.299h-0.685V131.558z M280.915,133.975h0.701c0.731,0,1.196-0.401,1.196-1.008c0-0.685-0.496-0.984-1.221-0.992
									c-0.33,0-0.566,0.031-0.677,0.063V133.975z"/>
								<path style="fill:#4D515D;" d="M289.025,134.085c0,1.827-1.11,2.795-2.465,2.795c-1.401,0-2.386-1.087-2.386-2.693
									c0-1.685,1.048-2.788,2.465-2.788C288.088,131.4,289.025,132.511,289.025,134.085z M284.907,134.172
									c0,1.134,0.614,2.149,1.692,2.149c1.087,0,1.701-1,1.701-2.204c0-1.055-0.551-2.158-1.693-2.158
									C285.474,131.959,284.907,133.007,284.907,134.172z"/>
								<path style="fill:#4D515D;" d="M291.081,136.794l-1.732-5.307h0.74l0.827,2.614c0.229,0.716,0.425,1.362,0.566,1.984h0.016
									c0.15-0.613,0.37-1.283,0.606-1.976l0.897-2.622h0.732l-1.897,5.307H291.081z"/>
								<path style="fill:#4D515D;" d="M297.057,134.306h-2.063v1.913h2.299v0.575h-2.983v-5.307h2.866v0.575h-2.182v1.677h2.063
									V134.306z"/>
								<path style="fill:#4D515D;" d="M298.183,131.558c0.417-0.063,0.913-0.11,1.456-0.11c0.984,0,1.686,0.229,2.149,0.662
									c0.473,0.433,0.748,1.047,0.748,1.905c0,0.866-0.268,1.574-0.764,2.063c-0.496,0.496-1.314,0.764-2.346,0.764
									c-0.488,0-0.898-0.023-1.244-0.063V131.558z M298.868,136.251c0.174,0.031,0.426,0.039,0.693,0.039
									c1.464,0,2.26-0.818,2.26-2.252c0.008-1.252-0.701-2.047-2.149-2.047c-0.354,0-0.622,0.031-0.804,0.071V136.251z"/>
							</g>
							<g>
								<rect x="263.456" y="113.664" style="opacity:0.4;fill:#4D515D;" width="26.791" height="2.625"/>
								<rect x="263.456" y="118.914" style="opacity:0.4;fill:#4D515D;" width="18.153" height="2.623"/>
								<rect x="263.456" y="124.162" style="opacity:0.4;fill:#4D515D;" width="36.309" height="2.625"/>
								<rect x="263.456" y="141.113" style="opacity:0.4;fill:#4D515D;" width="41.121" height="2.625"/>
								<rect x="263.456" y="146.472" style="opacity:0.4;fill:#4D515D;" width="23.404" height="2.625"/>
								<rect x="263.456" y="151.831" style="opacity:0.4;fill:#4D515D;" width="10.28" height="2.625"/>
							</g>
						</g>
					</g>
				</g>
				<g>
					<g>
						<ellipse style="fill:#C6C8D4;" cx="323.488" cy="124.398" rx="5.382" ry="2.6"/>
						<g>
							<ellipse style="fill:#093D49;" cx="323.07" cy="123.927" rx="5.382" ry="2.6"/>
							<ellipse style="fill:#FFDA40;" cx="323.069" cy="123.927" rx="4.609" ry="2.6"/>
						</g>
					</g>
					<g>
						<ellipse style="fill:#C6C8D4;" cx="323.488" cy="134.193" rx="5.382" ry="2.602"/>
						<g>
							<ellipse style="fill:#093D49;" cx="323.07" cy="133.722" rx="5.382" ry="2.602"/>
							<ellipse style="fill:#FFDA40;" cx="323.069" cy="133.722" rx="4.609" ry="2.602"/>
						</g>
					</g>
					<g>
						<ellipse style="fill:#C6C8D4;" cx="323.488" cy="143.974" rx="5.382" ry="2.602"/>
						<g>
							<ellipse style="fill:#093D49;" cx="323.07" cy="143.503" rx="5.382" ry="2.6"/>
							<ellipse style="fill:#FFDA40;" cx="323.069" cy="143.503" rx="4.609" ry="2.6"/>
						</g>
					</g>
					<g>
						<ellipse style="fill:#C6C8D4;" cx="242.424" cy="124.398" rx="5.382" ry="2.6"/>
						<g>
							<ellipse style="fill:#093D49;" cx="242.843" cy="123.927" rx="5.382" ry="2.6"/>
							<ellipse style="fill:#FFDA40;" cx="242.843" cy="123.927" rx="4.608" ry="2.6"/>
						</g>
					</g>
					<g>
						<ellipse style="fill:#C6C8D4;" cx="242.424" cy="134.193" rx="5.382" ry="2.602"/>
						<g>
							<ellipse style="fill:#093D49;" cx="242.843" cy="133.722" rx="5.382" ry="2.602"/>
							<ellipse style="fill:#FFDA40;" cx="242.843" cy="133.722" rx="4.608" ry="2.602"/>
						</g>
					</g>
					<g>
						<ellipse style="fill:#C6C8D4;" cx="242.424" cy="143.974" rx="5.382" ry="2.602"/>
						<g>
							<ellipse style="fill:#093D49;" cx="242.843" cy="143.503" rx="5.382" ry="2.6"/>
							<ellipse style="fill:#FFDA40;" cx="242.843" cy="143.503" rx="4.608" ry="2.6"/>
						</g>
					</g>
				</g>
				<path style="fill:#4D515D;" d="M234.788,65.671v22.304c0,5.891,4.776,10.666,10.666,10.666h75.005
					c5.891,0,10.666-4.775,10.666-10.666V65.671H234.788z"/>
				<path style="fill:#0E0F11;" d="M321.202,77.546c0,1.312-1.063,2.375-2.375,2.375h-71.742c-1.311,0-2.375-1.063-2.375-2.375l0,0
					c0-1.312,1.064-2.375,2.375-2.375h71.742C320.139,75.171,321.202,76.235,321.202,77.546L321.202,77.546z"/>
			</g>
			<g>
				<path style="fill:#F4F4F4;" d="M257.575,79.888h51.839c0,0,0.302-14.2,0-18.92c-0.165-2.569-0.966-7.509-2.188-10.062
					c-0.936-1.953-2.828-4.979-4.088-6.563c-3.567-4.483-7.669-6.451-7.669-6.451h-52.494c0,0,5.688,2.132,9.021,6.725
					c1.381,1.901,2.338,3.067,3.363,5.851c2.297,6.233,2.215,12.357,2.215,12.357V79.888z"/>
				<rect x="261.949" y="72.889" style="opacity:0.4;fill:#4D515D;" width="43.198" height="1.313"/>
				<rect x="275.128" y="65.889" style="opacity:0.4;fill:#4D515D;" width="30.02" height="1.313"/>
				<rect x="269.497" y="58.89" style="opacity:0.4;fill:#4D515D;" width="35.65" height="1.313"/>
				<rect x="261.949" y="48.173" style="opacity:0.4;fill:#4D515D;" width="35.653" height="1.312"/>
				<rect x="271.356" y="44.085" style="opacity:0.4;fill:#4D515D;" width="20.422" height="1.313"/>
				<rect x="266.899" y="41.078" style="opacity:0.4;fill:#4D515D;" width="20.423" height="1.313"/>
			</g>
		</g>
		<g>
			<g>
				<g>
					<circle style="fill:#B6B6B5;" cx="224.863" cy="244.732" r="39.334"/>
					<circle style="fill:#F5A72A;" cx="222.863" cy="244.732" r="39.334"/>
					<g>
						<path style="fill:#C1691B;" d="M222.863,279.649c-19.253,0-34.917-15.664-34.917-34.917c0-19.252,15.664-34.916,34.917-34.916
							c19.252,0,34.916,15.664,34.916,34.916C257.779,263.985,242.115,279.649,222.863,279.649z M222.863,211.816
							c-18.149,0-32.917,14.767-32.917,32.916c0,18.151,14.768,32.917,32.917,32.917c18.15,0,32.916-14.766,32.916-32.917
							C255.779,226.583,241.013,211.816,222.863,211.816z"/>
					</g>
				</g>
				<path style="fill:#FFFFFF;" d="M223.906,242.065c-5.705-0.93-7.051-2.899-7.051-6.399v-0.328c0-3.336,2.227-5.578,5.66-5.578
					h0.416c4.314,0,6.078,2.844,6.078,9.243h6.217v-1.258c0-8.465-2.91-13.162-9.447-14.173V218.9h-5.834v4.715
					c-6.021,1.076-9.444,5.561-9.444,12.105v0.547c0,7.057,3.524,10.611,11.411,11.869c5.52,0.875,7.283,2.844,7.283,6.563v0.328
					c0,3.556-2.227,6.017-6.123,6.017h-0.418c-3.896,0-6.262-2.625-6.262-8.696h-6.218v0.547c0,8.562,3.372,13.274,9.771,14.323
					v4.182h5.834v-4.181c6.266-1.021,9.771-5.489,9.771-12.465v-0.602C235.55,246.66,231.793,243.324,223.906,242.065z"/>
			</g>
			<g>
				<g>
					<circle style="fill:#B6B6B5;" cx="183.763" cy="250.502" r="33.563"/>
					<circle style="fill:#F5A72A;" cx="181.763" cy="250.502" r="33.563"/>
					<g>
						<path style="fill:#C1691B;" d="M181.763,280.297c-16.429,0-29.794-13.366-29.794-29.795c0-16.428,13.365-29.794,29.794-29.794
							c16.428,0,29.794,13.366,29.794,29.794C211.557,266.931,198.191,280.297,181.763,280.297z M181.763,222.415
							c-15.487,0-28.088,12.6-28.088,28.087c0,15.488,12.601,28.088,28.088,28.088s28.087-12.6,28.087-28.088
							C209.85,235.015,197.251,222.415,181.763,222.415z"/>
					</g>
				</g>
				<path style="fill:#FFFFFF;" d="M182.653,248.227c-4.868-0.794-6.017-2.475-6.017-5.461v-0.28c0-2.847,1.9-4.76,4.83-4.76h0.355
					c3.682,0,5.186,2.427,5.186,7.888h5.305v-1.073c0-7.224-2.483-11.231-8.061-12.094v-3.987h-4.979v4.023
					c-5.138,0.919-8.059,4.745-8.059,10.33v0.467c0,6.02,3.008,9.054,9.737,10.127c4.71,0.747,6.215,2.427,6.215,5.601v0.279
					c0,3.034-1.9,5.135-5.225,5.135h-0.357c-3.324,0-5.343-2.24-5.343-7.421h-5.306v0.467c0,7.306,2.877,11.327,8.337,12.222v3.568
					h4.979v-3.567c5.347-0.871,8.338-4.684,8.338-10.637v-0.513C192.589,252.147,189.382,249.3,182.653,248.227z"/>
			</g>
		</g>
		<g>
			<path style="fill:#FDC427;" d="M75.709,143.857c-4.265,0.761-7.166,4.786-6.501,9.09l0.315,2.038l7.721-1.193L75.709,143.857z"/>
			
				<rect x="77.335" y="142.768" transform="matrix(0.9883 -0.1527 0.1527 0.9883 -21.5927 14.4189)" style="fill:#FDC427;" width="11.5" height="10.062"/>
			<path style="fill:#FDC427;" d="M89.049,141.789l1.536,9.942l7.844-1.212l-0.315-2.039
				C97.444,144.135,93.393,141.153,89.049,141.789z"/>
			<path style="fill:#FDC427;" d="M77.397,154.78l-7.721,1.193l0.22,1.421c0.665,4.303,4.645,7.265,8.941,6.703L77.397,154.78z"/>
			
				<rect x="78.976" y="153.704" transform="matrix(0.9883 -0.1527 0.1527 0.9883 -23.1953 14.7939)" style="fill:#FDC427;" width="11.5" height="9.437"/>
			<path style="fill:#FDC427;" d="M90.738,152.719l1.441,9.323c4.332-0.703,7.294-4.77,6.623-9.115l-0.219-1.42L90.738,152.719z"/>
		</g>
	</g>
</g>
<g>
</g>
<g>
</g>
<g>
</g>
<g>
</g>
<g>
</g>
<g>
</g>
</svg>
